<svg id="Layer_1" data-name="Layer 1" xmlns="http://www.w3.org/2000/svg" viewBox="0 0 160 160"><defs><style>.cls-1{fill:#fff;}</style></defs><path class="cls-1" d="M17,126.25c-9-13-15.13-29-15.13-46.39a77.79,77.79,0,0,1,155.57,0A75.23,75.23,0,0,1,142,126.24v3.19a78.54,78.54,0,0,0,17.47-49.58A79.75,79.75,0,0,0,79.82.15C35.86.15-.13,35.91-.13,79.86A78.25,78.25,0,0,0,17,129.44Z"/><path class="cls-1" d="M142.34,33.9c9,13,15.13,29,15.13,46.39a77.79,77.79,0,0,1-155.57,0A75.23,75.23,0,0,1,17.34,33.9V30.71A78.54,78.54,0,0,0-.13,80.29,79.75,79.75,0,0,0,79.53,160c44,0,79.94-35.76,79.94-79.71a78.25,78.25,0,0,0-17.13-49.58Z"/><path class="cls-1" d="M105.17,30.48a8,8,0,0,1,8,8v83.19a8,8,0,0,1-8,8h-51a8,8,0,0,1-8-8V38.48a8,8,0,0,1,8-8h51m0-2h-51a10,10,0,0,0-10,10v83.19a10,10,0,0,0,10,10h51a10,10,0,0,0,10-10V38.48a10,10,0,0,0-10-10Z"/><path class="cls-1" d="M56.15,43.39l3.55-1.72a1.41,1.41,0,0,1,.54-.15h.43V52.74H63.5v.71H56.37v-.71h3.38V42.52l-3.3,1.42Z"/><path class="cls-1" d="M66.11,53.45V52.17h1a.35.35,0,0,1,.19,0s0,.08,0,.16v1.08Z"/><path class="cls-1" d="M55.68,64.12a7.79,7.79,0,0,1,3.9-1.19,3.61,3.61,0,0,1,2.52.89,3,3,0,0,1,1,2.31,3.75,3.75,0,0,1-.64,2.08,20.22,20.22,0,0,1-2.26,2.67l-3.28,3.4h6.44V75H55.84v-.53a.51.51,0,0,1,.15-.33l3.59-3.85.93-1q.32-.35.69-.83a4.68,4.68,0,0,0,.53-.8A4.36,4.36,0,0,0,62,67a3.09,3.09,0,0,0,.11-.84,2.16,2.16,0,0,0-.7-1.72,2.75,2.75,0,0,0-1.87-.61,7.88,7.88,0,0,0-2.65.54l-.93.34Z"/><path class="cls-1" d="M66.11,75V73.77h1a.35.35,0,0,1,.19,0s0,.08,0,.16V75Z"/><path class="cls-1" d="M55,95.41l.31-.49,1,.4a8.81,8.81,0,0,0,3.06.71,3.31,3.31,0,0,0,2.32-.77,2.72,2.72,0,0,0,.85-2.11A2.29,2.29,0,0,0,62,91.45a2.59,2.59,0,0,0-1.88-.57H58.84a.21.21,0,0,1-.13,0,.14.14,0,0,1,0-.11v-.58h1.85a1.4,1.4,0,0,0,.57-.09,1,1,0,0,0,.36-.36,3.93,3.93,0,0,0,.63-2.1,2.17,2.17,0,0,0-.64-1.68,2.59,2.59,0,0,0-1.82-.59,8.06,8.06,0,0,0-2.52.5l-1.13.4-.29-.52a8.25,8.25,0,0,1,3.92-1.19,4.25,4.25,0,0,1,1.67.32,2.8,2.8,0,0,1,1.22,1A2.74,2.74,0,0,1,63,87.46a5.08,5.08,0,0,1-1.17,3,2.77,2.77,0,0,1,1.74,2.77,3.4,3.4,0,0,1-1.11,2.58,4.15,4.15,0,0,1-3,1A8.2,8.2,0,0,1,55,95.41Z"/><path class="cls-1" d="M66.11,96.65V95.37h1a.35.35,0,0,1,.19,0s0,.08,0,.16v1.08Z"/><path class="cls-1" d="M55.15,115.06v-.49a.48.48,0,0,1,.11-.33l6.08-7.76a.42.42,0,0,1,.33-.17h.65v8h1.86v.71H62.32v3.19H61.4v-3.19Zm1-.71H61.4v-6.79Z"/><path class="cls-1" d="M66.11,118.25V117h1a.35.35,0,0,1,.19,0s0,.08,0,.16v1.08Z"/><path class="cls-1" d="M101.17,42.48v10h-10v-10h10m2-2h-14v14h14v-14Z"/><path class="cls-1" d="M101.17,106.48v10h-10v-10h10m2-2h-14v14h14v-14Z"/><path class="cls-1" d="M101.17,85.15v10h-10v-10h10m2-2h-14v14h14v-14Z"/><path class="cls-1" d="M101.17,63.81v10h-10v-10h10m2-2h-14v14h14v-14Z"/><polygon class="cls-1" points="95.93 51.89 91.97 47.93 93.38 46.52 95.93 49.06 108.96 36.04 110.37 37.45 95.93 51.89"/><polygon class="cls-1" points="95.93 73.23 91.97 69.26 93.38 67.85 95.93 70.4 108.96 57.37 110.37 58.78 95.93 73.23"/><polygon class="cls-1" points="95.93 94.56 91.97 90.6 93.38 89.18 95.93 91.73 108.96 78.7 110.37 80.12 95.93 94.56"/><polygon class="cls-1" points="95.93 115.89 91.97 111.93 93.38 110.52 95.93 113.06 108.96 100.04 110.37 101.45 95.93 115.89"/></svg>
