<?xml version="1.0" encoding="utf-8"?>
<!-- Generator: Adobe Illustrator 21.1.0, SVG Export Plug-In . SVG Version: 6.00 Build 0)  -->
<svg version="1.1" id="Layer_1" xmlns="http://www.w3.org/2000/svg" xmlns:xlink="http://www.w3.org/1999/xlink" x="0px" y="0px"
	 viewBox="0 0 160 160" style="enable-background:new 0 0 160 160;" xml:space="preserve">
<style type="text/css">
	.st0{fill:#FFFFFF;}
</style>
<g>
	<g>
		<path class="st0" d="M80,2c43,0,78,35,78,78s-35,78-78,78S2,123,2,80S37,2,80,2 M80,0C35.8,0,0,35.8,0,80s35.8,80,80,80
			s80-35.8,80-80S124.2,0,80,0L80,0z"/>
	</g>
</g>
<g>
	<g>
		<g>
			<path class="st0" d="M90,57c-0.2,0-0.3,0-0.5-0.1c-0.5-0.3-0.6-0.9-0.4-1.4l10.8-18.7c0.3-0.5,0.9-0.6,1.4-0.4
				c0.5,0.3,0.6,0.9,0.4,1.4L90.8,56.5C90.7,56.8,90.3,57,90,57z"/>
		</g>
		<g>
			<path class="st0" d="M37.3,97c-0.3,0-0.6-0.1-0.8-0.4c-0.3-0.4-0.3-1.1,0.2-1.4l18.7-14.5c0.4-0.3,1-0.3,1.3,0.1l3.6,3.6
				c0.4,0.4,0.4,1,0,1.4s-1,0.4-1.4,0l-3-3l-18,14C37.8,96.9,37.6,97,37.3,97z"/>
		</g>
		<g>
			<path class="st0" d="M104.8,50.8c-0.4,0-0.8-0.3-1-0.7l-3.6-11.9l-12,3.6c-0.5,0.2-1.1-0.1-1.2-0.7s0.1-1.1,0.7-1.2l12.9-3.9
				c0.3-0.1,0.5,0,0.8,0.1c0.2,0.1,0.4,0.3,0.5,0.6l3.9,12.9c0.2,0.5-0.1,1.1-0.7,1.2C105,50.8,104.9,50.8,104.8,50.8z"/>
		</g>
		<g>
			<path class="st0" d="M65.3,112.2H29.5c-0.6,0-1-0.4-1-1V32.5c0-0.6,0.4-1,1-1s1,0.4,1,1v77.7h34.7c0.6,0,1,0.4,1,1
				S65.8,112.2,65.3,112.2z"/>
		</g>
	</g>
	<g>
		<g>
			<path class="st0" d="M94,118.3c-15.2,0-27.6-12.4-27.6-27.6C66.4,75.4,78.8,63,94,63c15.2,0,27.6,12.4,27.6,27.6
				C121.6,105.9,109.2,118.3,94,118.3z M94,65c-14.1,0-25.6,11.5-25.6,25.6s11.5,25.6,25.6,25.6c14.1,0,25.6-11.5,25.6-25.6
				S108.1,65,94,65z"/>
		</g>
		<g>
			<path class="st0" d="M130.5,128.5c-0.3,0-0.5-0.1-0.7-0.3L112,110.5c-0.4-0.4-0.4-1,0-1.4s1-0.4,1.4,0l17.7,17.7
				c0.4,0.4,0.4,1,0,1.4C131,128.4,130.7,128.5,130.5,128.5z"/>
		</g>
	</g>
</g>
</svg>
