<svg xmlns="http://www.w3.org/2000/svg" xmlns:xlink="http://www.w3.org/1999/xlink" preserveAspectRatio="xMidYMid" width="31" height="21" viewBox="0 0 31 21">
  <g>
    <path d="M0.008,21.188 C0.008,21.188 0.008,-0.007 0.008,-0.007 C0.008,-0.007 30.719,-0.007 30.719,-0.007 C30.719,-0.007 30.719,21.188 30.719,21.188 C30.719,21.188 0.008,21.188 0.008,21.188 ZM7.793,8.294 C8.298,7.649 8.964,7.327 9.790,7.327 C10.363,7.327 10.836,7.457 11.208,7.716 C11.580,7.975 11.936,8.364 12.278,8.883 C12.469,9.149 12.641,9.342 12.795,9.462 C12.948,9.581 13.141,9.641 13.373,9.641 C13.728,9.641 14.030,9.525 14.280,9.293 C14.529,9.061 14.653,8.777 14.653,8.443 C14.653,8.115 14.542,7.762 14.320,7.383 C14.099,7.004 13.778,6.648 13.358,6.313 C12.938,5.979 12.426,5.706 11.822,5.494 C11.218,5.282 10.554,5.176 9.831,5.176 C8.663,5.176 7.660,5.417 6.820,5.898 C5.981,6.380 5.339,7.061 4.895,7.941 C4.451,8.822 4.230,9.835 4.230,10.982 C4.230,12.675 4.714,14.025 5.684,15.032 C6.653,16.039 8.001,16.542 9.728,16.542 C10.540,16.542 11.271,16.433 11.919,16.215 C12.568,15.996 13.105,15.708 13.532,15.349 C13.959,14.991 14.276,14.614 14.484,14.218 C14.692,13.822 14.797,13.450 14.797,13.102 C14.797,12.808 14.684,12.532 14.459,12.272 C14.233,12.013 13.950,11.883 13.609,11.883 C13.322,11.883 13.080,11.972 12.882,12.149 C12.684,12.327 12.499,12.573 12.329,12.887 C12.022,13.419 11.668,13.815 11.269,14.074 C10.870,14.334 10.390,14.464 9.831,14.464 C9.414,14.464 9.032,14.383 8.684,14.223 C8.336,14.063 8.039,13.827 7.793,13.516 C7.547,13.206 7.359,12.830 7.230,12.390 C7.100,11.950 7.035,11.467 7.035,10.941 C7.035,9.822 7.288,8.939 7.793,8.294 ZM19.206,8.294 C19.711,7.649 20.376,7.327 21.202,7.327 C21.776,7.327 22.248,7.457 22.621,7.716 C22.992,7.975 23.349,8.364 23.691,8.883 C23.882,9.149 24.054,9.342 24.208,9.462 C24.361,9.581 24.554,9.641 24.786,9.641 C25.141,9.641 25.443,9.525 25.692,9.293 C25.941,9.061 26.066,8.777 26.066,8.443 C26.066,8.115 25.955,7.762 25.733,7.383 C25.511,7.004 25.191,6.648 24.771,6.313 C24.351,5.979 23.839,5.706 23.235,5.494 C22.631,5.282 21.967,5.176 21.243,5.176 C20.076,5.176 19.073,5.417 18.233,5.898 C17.393,6.380 16.752,7.061 16.308,7.941 C15.864,8.822 15.642,9.835 15.642,10.982 C15.642,12.675 16.127,14.025 17.096,15.032 C18.066,16.039 19.414,16.542 21.141,16.542 C21.953,16.542 22.684,16.433 23.332,16.215 C23.981,15.996 24.518,15.708 24.945,15.349 C25.371,14.991 25.689,14.614 25.897,14.218 C26.105,13.822 26.209,13.450 26.209,13.102 C26.209,12.808 26.097,12.532 25.872,12.272 C25.646,12.013 25.363,11.883 25.022,11.883 C24.735,11.883 24.493,11.972 24.295,12.149 C24.097,12.327 23.912,12.573 23.742,12.887 C23.435,13.419 23.081,13.815 22.682,14.074 C22.283,14.334 21.803,14.464 21.243,14.464 C20.827,14.464 20.445,14.383 20.096,14.223 C19.748,14.063 19.451,13.827 19.206,13.516 C18.960,13.206 18.772,12.830 18.643,12.390 C18.513,11.950 18.448,11.467 18.448,10.941 C18.448,9.822 18.700,8.939 19.206,8.294 Z" class="cls-3" fill-rule="evenodd"/>
  </g>
</svg>
