<svg version="1.1" id="Layer_1" xmlns="http://www.w3.org/2000/svg" xmlns:xlink="http://www.w3.org/1999/xlink" x="0px" y="0px" width="24" height="18" 
	 viewBox="-454 307 24 18" enable-background="new -454 307 24 18" xml:space="preserve">
<path class="cls-3" fill="#FFFFFF" d="M-452.5,312.5h-1.5V307h6v1.5h-4.5V312.5z M-454,325h6v-1.5h-4.5v-4h-1.5V325z M-430,307h-6v1.5h4.5v4h1.5
	V307z M-431.5,323.5h-4.5v1.5h6v-5.5h-1.5V323.5z M-434.3,320.5v-9c0-0.4-0.3-0.8-0.8-0.8h-14c-0.4,0-0.8,0.3-0.8,0.8v9
	c0,0.4,0.3,0.8,0.8,0.8h14C-434.6,321.3-434.3,320.9-434.3,320.5z M-448.3,312.3h12.5v7.5h-12.5V312.3z"/>
</svg>
