<?xml version="1.0" encoding="utf-8"?>
<!-- Generator: Adobe Illustrator 18.1.1, SVG Export Plug-In . SVG Version: 6.00 Build 0)  -->
<svg version="1.1" id="Layer_1" xmlns="http://www.w3.org/2000/svg" xmlns:xlink="http://www.w3.org/1999/xlink" x="0px" y="0px" width="21" height="18"
	 viewBox="-464 308 21 18" enable-background="new -464 308 21 18" xml:space="preserve">
<path class="cls-3" fill="#FFFFFF" d="M-455.1,324.1l-4.9-5h-4v-4.2h4l4.9-5L-455.1,324.1z M-449.6,323.4c2.3-3.6,2.3-9.3,0-12.9
	c-0.3-0.5-1-0.7-1.5-0.3c-0.5,0.3-0.7,1-0.3,1.6c1.8,2.8,1.8,7.6,0,10.5c-0.3,0.5-0.2,1.2,0.3,1.6c0.2,0.1,0.4,0.2,0.6,0.2
	C-450.2,324-449.8,323.8-449.6,323.4z M-445.1,325.5c2.8-4.7,2.8-12.2,0-16.9c-0.3-0.5-1-0.7-1.5-0.4c-0.5,0.3-0.7,1-0.4,1.5
	c2.4,4,2.4,10.6,0,14.6c-0.3,0.5-0.1,1.2,0.4,1.5c0.2,0.1,0.4,0.2,0.6,0.2C-445.7,326-445.3,325.8-445.1,325.5z"/>
</svg>
