<?xml version="1.0" standalone="no"?>
<!DOCTYPE svg PUBLIC "-//W3C//DTD SVG 20010904//EN"
 "http://www.w3.org/TR/2001/REC-SVG-20010904/DTD/svg10.dtd">
<svg version="1.0" xmlns="http://www.w3.org/2000/svg"
 width="152.000000pt" height="152.000000pt" viewBox="0 0 152.000000 152.000000"
 preserveAspectRatio="xMidYMid meet">
<metadata>
Created by potrace 1.11, written by Peter Selinger 2001-2013
</metadata>
<g transform="translate(0.000000,152.000000) scale(0.100000,-0.100000)"
fill="#000000" stroke="none">
<path d="M401 1071 c-8 -5 -20 -7 -28 -4 -16 6 -83 -24 -83 -37 0 -6 7 -10 16
-10 14 0 14 -3 4 -15 -7 -9 -19 -14 -27 -11 -16 7 -17 -6 -1 -22 17 -17 38
-15 38 3 0 8 5 15 10 15 14 0 12 -37 -2 -43 -9 -3 -10 -8 -2 -16 8 -9 17 -7
35 7 34 27 62 34 93 23 33 -13 34 -31 2 -31 -14 0 -28 -5 -32 -12 -5 -7 -3 -8
5 -3 7 4 45 8 84 9 71 1 100 18 55 31 -13 4 -34 17 -48 30 -14 12 -43 33 -65
46 -35 21 -37 24 -18 27 12 2 45 -4 74 -12 29 -9 67 -16 85 -16 43 0 84 -19
77 -35 -3 -9 13 -17 54 -24 32 -7 86 -25 121 -41 60 -29 117 -43 82 -20 -8 5
-10 10 -5 10 17 1 -158 76 -251 108 -140 48 -240 64 -273 43z m-36 -49 c-22
-5 -27 1 -19 23 7 17 8 17 21 -1 12 -17 12 -19 -2 -22z"/>
<path d="M650 914 c-13 -14 -27 -15 -105 -10 -89 7 -91 6 -115 -19 -22 -24
-25 -24 -31 -8 -7 16 -8 15 -8 -4 -1 -31 12 -36 37 -13 25 24 55 25 112 5 45
-16 81 -18 227 -16 85 2 94 0 110 -20 61 -77 65 -79 156 -79 75 0 89 -3 114
-24 41 -34 69 -47 88 -40 23 9 13 27 -20 35 -15 5 -41 21 -57 36 -25 24 -38
28 -104 31 l-74 4 -43 49 c-52 59 -98 79 -197 86 -63 3 -79 1 -90 -13z"/>
<path d="M1037 869 c7 -7 15 -10 18 -7 3 3 -2 9 -12 12 -14 6 -15 5 -6 -5z"/>
<path d="M1010 853 c1 -26 41 -53 77 -53 47 0 77 15 50 26 -10 3 -20 4 -24 1
-3 -4 -17 0 -32 7 -38 20 -71 29 -71 19z"/>
<path d="M1160 792 c0 -5 13 -21 30 -37 24 -23 39 -29 81 -29 39 -1 54 3 65
19 13 17 13 20 -3 26 -21 8 -36 1 -28 -12 3 -5 0 -7 -7 -4 -7 2 -28 6 -46 9
-18 2 -44 12 -57 20 -27 18 -35 20 -35 8z"/>
<path d="M275 610 c-3 -6 1 -7 9 -4 11 4 16 0 16 -10 0 -9 -6 -16 -14 -16 -8
0 -18 -9 -21 -20 -5 -17 -15 -20 -61 -20 -36 0 -54 -4 -54 -12 0 -17 135 -12
149 5 5 7 12 29 16 50 6 33 5 37 -13 37 -12 0 -24 -4 -27 -10z"/>
<path d="M372 576 c-45 -44 -51 -56 -27 -56 8 0 15 5 15 10 0 6 27 10 60 10
33 0 60 -4 60 -10 0 -5 11 -10 25 -10 32 0 32 10 0 40 -28 26 -69 35 -61 13 4
-9 -4 -13 -24 -13 -34 0 -39 14 -10 30 19 10 28 31 13 29 -5 -1 -27 -20 -51
-43z"/>
<path d="M440 610 c0 -5 5 -10 11 -10 5 0 7 5 4 10 -3 6 -8 10 -11 10 -2 0 -4
-4 -4 -10z"/>
<path d="M595 610 c-4 -6 16 -8 57 -4 82 9 86 14 10 14 -33 0 -64 -4 -67 -10z"/>
<path d="M790 610 c0 -5 5 -10 11 -10 5 0 7 5 4 10 -3 6 -8 10 -11 10 -2 0 -4
-4 -4 -10z"/>
<path d="M915 610 c-3 -5 1 -10 9 -10 9 0 16 5 16 10 0 6 -4 10 -9 10 -6 0
-13 -4 -16 -10z"/>
<path d="M1050 613 c0 -4 10 -17 22 -30 l21 -23 -32 0 c-29 0 -32 2 -26 23 6
19 2 17 -29 -12 -39 -38 -44 -51 -21 -51 8 0 15 5 15 10 0 6 27 10 60 10 33 0
60 -4 60 -10 0 -5 11 -10 25 -10 14 0 25 4 25 8 0 14 -45 52 -62 52 -9 0 -22
8 -29 17 -10 11 -10 14 -1 9 6 -4 12 -2 12 3 0 6 -9 11 -20 11 -11 0 -20 -3
-20 -7z"/>
<path d="M1200 570 c0 -47 2 -50 25 -50 16 0 25 6 25 15 0 21 39 19 73 -4 16
-10 38 -16 49 -13 20 5 21 5 2 20 -13 10 -15 16 -6 19 6 3 12 11 12 19 0 8 -6
11 -15 8 -10 -4 -15 0 -15 11 0 10 5 13 12 9 7 -4 8 -3 4 4 -4 8 -37 12 -87
12 l-79 0 0 -50z m128 18 c3 -14 -3 -18 -30 -18 -48 0 -78 10 -78 27 0 23 104
14 108 -9z"/>
<path d="M545 569 c-4 -5 1 -19 11 -30 14 -16 31 -19 96 -19 77 0 78 0 78 25
0 18 -5 25 -20 25 -11 0 -20 -7 -20 -15 0 -11 -12 -15 -46 -15 -37 0 -47 4
-51 20 -6 21 -37 27 -48 9z"/>
<path d="M772 558 c4 -32 44 -50 101 -45 51 4 96 35 83 56 -11 17 -46 13 -46
-4 0 -9 -11 -21 -25 -27 -30 -13 -75 3 -75 27 0 9 -9 15 -21 15 -15 0 -20 -5
-17 -22z"/>
</g>
</svg>
