<?xml version="1.0" encoding="utf-8"?>
<!-- Generator: Adobe Illustrator 18.1.1, SVG Export Plug-In . SVG Version: 6.00 Build 0)  -->
<svg version="1.1" id="Layer_1" xmlns="http://www.w3.org/2000/svg" xmlns:xlink="http://www.w3.org/1999/xlink" x="0px" y="0px"
	 viewBox="0 0 64 64" enable-background="new 0 0 64 64" xml:space="preserve">
<g>
	<path fill="none" stroke="#FFFFFF" stroke-width="2" stroke-linecap="round" stroke-linejoin="round" stroke-miterlimit="10" d="
		M27.6,62L11.4,45.8c-1.5-1.5-1.5-4.1,0-5.7l0.4-0.4c1.5-1.5,4.1-1.5,5.7,0l7.4,7.3v-9.5V17.8c0-2.2,1.8-4,4-4h0.3c2.2,0,4,1.8,4,4
		v15.1l15.4,2.6c0,0,5.1,1,5.1,7.5l-1.5,19H27.6z"/>
	<path fill="none" stroke="#FFFFFF" stroke-width="2" stroke-linecap="round" stroke-linejoin="round" stroke-miterlimit="10" d="
		M20.6,20.9c-0.7-1.3-1-2.7-1-4.4c0-5.2,4.2-9.4,9.5-9.4c5.2,0,9.4,4.2,9.4,9.4c0,1.5-0.3,3-1,4.3"/>
	<path fill="none" stroke="#FFFFFF" stroke-width="2" stroke-linecap="round" stroke-linejoin="round" stroke-miterlimit="10" d="
		M15.9,23.2c-0.9-2-1.5-4.2-1.5-6.5C14.4,8.5,20.9,2,29,2s14.7,6.5,14.7,14.7c0,2.3-0.5,4.5-1.5,6.5"/>
</g>
</svg>
