<?xml version="1.0" encoding="utf-8"?>
<!-- Generator: Adobe Illustrator 21.1.0, SVG Export Plug-In . SVG Version: 6.00 Build 0)  -->
<svg version="1.1" xmlns="http://www.w3.org/2000/svg" xmlns:xlink="http://www.w3.org/1999/xlink" x="0px" y="0px"
	 viewBox="0 0 160 160" style="enable-background:new 0 0 160 160;" xml:space="preserve">
<style type="text/css">
	.st0{fill:#FFFFFF;}
	.st1{fill:none;}
</style>
<g id="circle">
	<path class="st0" d="M80,2c43,0,78,35,78,78s-35,78-78,78S2,123,2,80S37,2,80,2 M80,0C35.8,0,0,35.8,0,80s35.8,80,80,80
		s80-35.8,80-80S124.2,0,80,0L80,0z"/>
</g>
<g id="_x31_">
	<g>
		<path class="st1" d="M117,103.1V56.8c0-1.2-1-2.1-2.1-2.1h-3c-1.2,0-2.1,1-2.1,2.1v44.6c0.1,0,0.3,0,0.4,0
			C112.6,101.4,114.9,102,117,103.1z"/>
		<path class="st1" d="M103.7,102.9l0-49.3c-0.5-10.3-9.1-18.5-19.5-18.5c-10.6,0-19.3,8.6-19.5,19.1l0,0.1L54.7,114h-6.5
			c-1.7,0-3.1,1.4-3.1,3.1v0.7c0,0.1,0,0.3,0,0.4l0.1,1.1h-4.3v2.6h34.9v-2.6h-4.2l0.1-1.1c0-0.1,0-0.3,0-0.4v-0.7
			c0-1.7-1.4-3.1-3.1-3.1h-7.1l10-59.4c0-7,5.7-12.6,12.6-12.6c6.6,0,12.2,5.2,12.6,11.8l0.1,0.9L96,54.9c-9.4,1.4-16.4,9.6-16.4,19
			v29.3c0,10.1,7.9,18.5,17.9,19.2c-1.1-2-1.6-4.3-1.6-6.7C95.8,110.3,98.9,105.3,103.7,102.9z"/>
		<path class="st1" d="M109.9,106.6c-5,0-9.1,4.1-9.1,9.1c0,5,4.1,9.1,9.1,9.1c5,0,9.1-4.1,9.1-9.1
			C119.1,110.7,115,106.6,109.9,106.6z"/>
		<path class="st0" d="M117.4,105.8l1.6,1.2V56.8c0-2.3-1.8-4.1-4.1-4.1h-3c-2.3,0-4.1,1.8-4.1,4.1v46.8l1.1-0.1
			C112,103.2,114.9,104,117.4,105.8z M109.7,56.8c0-1.2,1-2.1,2.1-2.1h3c1.2,0,2.1,1,2.1,2.1v46.3c-2.1-1.1-4.4-1.7-6.8-1.7
			c-0.1,0-0.3,0-0.4,0V56.8z"/>
		<path class="st0" d="M109.9,104.6c-6.1,0-11.1,5-11.1,11.1s5,11.1,11.1,11.1s11.1-5,11.1-11.1S116.1,104.6,109.9,104.6z
			 M109.9,124.9c-5,0-9.1-4.1-9.1-9.1c0-5,4.1-9.1,9.1-9.1c5,0,9.1,4.1,9.1,9.1C119.1,120.8,115,124.9,109.9,124.9z"/>
		<path class="st0" d="M97.8,115.7c0-4.9,2.9-9.3,7.3-11.3l0.6-0.3l0-49.6c0-11.9-9.6-21.5-21.5-21.5c-11.6,0-21.2,9.4-21.5,21
			L53,112h-4.8c-2.8,0-5.1,2.3-5.1,5.1v0.2h-4.1v6.6h38.9v-6.6h-4.1v-0.2c0-2.8-2.3-5.1-5.1-5.1H64l9.6-56.9l0-0.5
			c0-5.9,4.8-10.6,10.6-10.6c5.3,0,9.7,3.9,10.5,9.1C84.9,55,77.6,63.8,77.6,73.9v29.3c0,11.7,9.5,21.2,21.2,21.2h2.4l-1.1-1.6
			C98.6,120.8,97.8,118.3,97.8,115.7z M79.6,103.2V73.9c0-9.5,7.1-17.6,16.4-19l0.9-0.1l-0.1-0.9C96.4,47.2,90.9,42,84.3,42
			c-7,0-12.6,5.7-12.6,12.6l-10,59.4h7.1c1.7,0,3.1,1.4,3.1,3.1v0.7c0,0.1,0,0.3,0,0.4l-0.1,1.1h4.2v2.6H40.9v-2.6h4.3l-0.1-1.1
			c0-0.1,0-0.3,0-0.4v-0.7c0-1.7,1.4-3.1,3.1-3.1h6.5l10.1-59.6l0-0.1c0.2-10.5,8.9-19.1,19.5-19.1c10.4,0,19,8.2,19.5,18.5l0,49.3
			c-4.8,2.4-7.9,7.4-7.9,12.8c0,2.3,0.6,4.6,1.6,6.7C87.5,121.7,79.6,113.4,79.6,103.2z"/>
	</g>
</g>
</svg>
