<svg id="People" xmlns="http://www.w3.org/2000/svg" viewBox="0 0 160 160"><defs><style>.cls-1{fill:#fff;}</style></defs><title>shine-affects-our-people-160x160</title><path class="cls-1" d="M37.62,79.47c0,.15,0,.3,0,.46v.14c0-.2,0-.4,0-.59Z"/><path class="cls-1" d="M55.89,57.83H56a6.27,6.27,0,0,1,6.14,5.7v.09c0,.14,0,.29,0,.44V85.81c0,1.2-.74,2.1-1.41,2.1a1.48,1.48,0,0,1-1.2-1,2.71,2.71,0,0,1-.2-1V62H54v56a1.72,1.72,0,1,1-3.42,0V87.65H45.43v30.3a1.72,1.72,0,1,1-3.42,0s0-7.53,0-15.06c0-3.77,0-7.53,0-10.36,0-1.41,0-2.59,0-3.42a12.59,12.59,0,0,0,0-1.29h0V62H36.68V85.81a2.73,2.73,0,0,1-.2,1,1.48,1.48,0,0,1-1.21,1c-.66,0-1.41-.9-1.41-2.1V64.06c0-.15,0-.3,0-.45A6.27,6.27,0,0,1,40,57.83H55.89m0-2H40a8.26,8.26,0,0,0-8.12,7.64c0,.19,0,.39,0,.59V85.81c0,2.25,1.53,4.1,3.41,4.1a3.42,3.42,0,0,0,3.05-2.28,4.74,4.74,0,0,0,.36-1.82V64H40v23.8s0,30.12,0,30.12a3.72,3.72,0,1,0,7.42,0V89.65h1.14V118A3.72,3.72,0,1,0,56,118V64h1.32V85.81a4.73,4.73,0,0,0,.36,1.82,3.42,3.42,0,0,0,3.05,2.28c1.87,0,3.41-1.84,3.41-4.1V64.06c0-.2,0-.39,0-.59h0A8.26,8.26,0,0,0,56,55.83Z"/><path class="cls-1" d="M48,40.07a5.67,5.67,0,1,1-5.67,5.67A5.67,5.67,0,0,1,48,40.07m0-2a7.67,7.67,0,1,0,7.67,7.67A7.67,7.67,0,0,0,48,38.07Z"/><path class="cls-1" d="M112,40.07a5.67,5.67,0,1,1-5.67,5.67A5.67,5.67,0,0,1,112,40.07m0-2a7.67,7.67,0,1,0,7.67,7.67A7.67,7.67,0,0,0,112,38.07Z"/><path class="cls-1" d="M119.89,57.83H120a6.27,6.27,0,0,1,6.14,5.7v.09c0,.14,0,.29,0,.44V85.81c0,1.2-.74,2.1-1.41,2.1a1.48,1.48,0,0,1-1.21-1,2.71,2.71,0,0,1-.2-1V62H118v56a1.72,1.72,0,1,1-3.42,0V87.65h-5.14v30.3a1.72,1.72,0,1,1-3.42,0s0-7.53,0-15.06c0-3.77,0-7.53,0-10.36,0-1.41,0-2.59,0-3.42a12.59,12.59,0,0,0,0-1.29h0V62h-5.32V85.81a2.73,2.73,0,0,1-.2,1,1.48,1.48,0,0,1-1.21,1c-.66,0-1.41-.9-1.41-2.1V64.06c0-.15,0-.3,0-.45A6.27,6.27,0,0,1,104,57.83h15.86m0-2H104a8.26,8.26,0,0,0-8.12,7.64c0,.19,0,.39,0,.59V85.81c0,2.25,1.53,4.1,3.41,4.1a3.42,3.42,0,0,0,3.05-2.28,4.74,4.74,0,0,0,.36-1.82V64H104v23.8s0,30.12,0,30.12a3.72,3.72,0,1,0,7.42,0V89.65h1.14V118a3.72,3.72,0,1,0,7.42,0V64h1.32V85.81a4.73,4.73,0,0,0,.36,1.82,3.42,3.42,0,0,0,3.05,2.28c1.87,0,3.41-1.84,3.41-4.1V64.06c0-.2,0-.39,0-.59h0A8.26,8.26,0,0,0,120,55.83Z"/><path class="cls-1" d="M101.62,79.47c0,.15,0,.3,0,.46v.14c0-.2,0-.4,0-.59Z"/><path class="cls-1" d="M80.26,68.16l-1.14,8.13-.26,1.89,1.87.35,5.55,1L80.56,91.84l1.14-8.13L82,81.82l-1.87-.35-5.55-1,5.73-12.25m3.82-12.89L71.63,81.9l8.09,1.53-3,21.3L89.19,78.1,81.1,76.57l3-21.3Z"/><path class="cls-1" d="M80,2A78,78,0,1,1,2,80,78.09,78.09,0,0,1,80,2m0-2a80,80,0,1,0,80,80A80,80,0,0,0,80,0Z"/></svg>