<svg xmlns="http://www.w3.org/2000/svg" viewBox="0 0 160 160"><defs><style>.cls-1{fill:#fff;}</style></defs><title>shine-affects-our-customers-160x160</title><g id="Clock"><path class="cls-1" d="M80,2A78,78,0,1,1,2,80,78.09,78.09,0,0,1,80,2m0-2a80,80,0,1,0,80,80A80,80,0,0,0,80,0Z"/><path class="cls-1" d="M80,39.5A40.5,40.5,0,1,1,39.5,80,40.55,40.55,0,0,1,80,39.5m0-2A42.5,42.5,0,1,0,122.5,80,42.5,42.5,0,0,0,80,37.5Z"/><path class="cls-1" d="M80,83.5A3.5,3.5,0,1,1,83.5,80,3.5,3.5,0,0,1,80,83.5Zm0-5A1.5,1.5,0,1,0,81.5,80,1.5,1.5,0,0,0,80,78.5Z"/><rect class="cls-1" x="79" y="42.5" width="2" height="35"/><rect class="cls-1" x="87.26" y="79.82" width="2" height="23.1" transform="translate(-36.85 69.33) rotate(-36)"/></g></svg>