<?xml version="1.0" encoding="utf-8"?>
<!-- Generator: Adobe Illustrator 21.1.0, SVG Export Plug-In . SVG Version: 6.00 Build 0)  -->
<svg version="1.1" xmlns="http://www.w3.org/2000/svg" xmlns:xlink="http://www.w3.org/1999/xlink" x="0px" y="0px"
	 viewBox="0 0 160 160" style="enable-background:new 0 0 160 160;" xml:space="preserve">
<style type="text/css">
	.st0{fill:#FFFFFF;}
</style>
<g id="circle">
	<path class="st0" d="M80,2c43,0,78,35,78,78s-35,78-78,78S2,123,2,80S37,2,80,2 M80,0C35.8,0,0,35.8,0,80s35.8,80,80,80
		s80-35.8,80-80S124.2,0,80,0L80,0z"/>
</g>
<g id="_x32_">
	<g>
		<g>
			<polygon class="st0" points="158,71.8 116,71.8 119,69.8 158,69.8 			"/>
		</g>
		<g>
			<polygon class="st0" points="54.1,71.8 2,71.8 2,69.8 56.1,69.8 			"/>
		</g>
		<g>
			<rect x="7" y="109.8" class="st0" width="146" height="2"/>
		</g>
		<g>
			<g>
				<path class="st0" d="M15,89.5c0.9,1.3,2,2.5,3.4,3.4c-1.3,0.9-2.5,2-3.4,3.4c-0.9-1.3-2-2.5-3.4-3.4C13,91.9,14.2,90.8,15,89.5
					 M15,82.8c0,5.5-4.5,10-10,10c5.5,0,10,4.5,10,10c0-5.5,4.5-10,10-10C19.5,92.8,15,88.3,15,82.8L15,82.8z"/>
			</g>
		</g>
		<g>
			<g>
				<path class="st0" d="M25,82.7c0,0,0.1,0.1,0.1,0.1c0,0-0.1,0.1-0.1,0.1c0,0-0.1-0.1-0.1-0.1C25,82.8,25,82.8,25,82.7 M25,77.8
					c0,2.8-2.2,5-5,5c2.8,0,5,2.2,5,5c0-2.8,2.2-5,5-5C27.3,82.8,25,80.6,25,77.8L25,77.8z"/>
			</g>
		</g>
		<path class="st0" d="M117.3,71.4l-2.5,1.3c8.5,2.6,17.5,5.6,17.7,7.3c0,0-0.1,0.3-1.2,0.7c-3.4,1.3-8,3.5-12.9,5.7
			c-12.4,5.8-27.9,12.9-35.1,12.3c-5.8-0.5-8.1-1.3-12.8-2.9c-3.5-1.2-8.2-2.8-16.5-5c-15.2-4-19.4-6.9-20-7.8
			c0.2-0.1,0.6-0.3,1.6-0.5c3.6-0.5,7.5-3.1,12.5-6.3c4.1-2.7,8.6-5.6,14-8.2l1.2-0.5c6.3-2.9,11.1-5.2,15.2-5.9l5.6-1.8
			c-5.7-1.6-12.4,1.6-21.6,5.9l-1.2,0.5C55.7,69,51.1,72,47,74.7c-4.7,3.1-8.5,5.6-11.7,6c-0.8,0.1-3.3,0.5-3.4,2.3
			c-0.2,2.8,7.1,6.1,21.5,9.9c8.3,2.2,13,3.8,16.4,4.9c4.6,1.6,7.2,2.4,13.2,3c0.3,0,0.7,0,1.1,0c8,0,22.9-6.9,35-12.5
			c4.9-2.3,9.5-4.4,12.8-5.7c1.7-0.7,2.5-1.5,2.5-2.7C134.4,77.3,128.9,75,117.3,71.4z"/>
		<g>
			<g>
				<path class="st0" d="M77.1,92.7c-2.6,0-4.9-0.4-6.5-1.1c-1.3-0.6-2.7-1.5-2.5-2.9c0.3-1.4,2.2-2.1,6.9-2.6
					c6.4-0.6,7.2-1.5,7.3-1.7c0,0-0.3-0.3-1-0.5c-1.1-0.4-7.3-2-20.7,5.4c-2.5,1.4-3.6,0.5-4-0.1c-0.1-0.2-0.2-0.5-0.3-0.7
					c-0.7,0.1-1.5,0-2.2-0.7c-1.6-1.6-0.9-3.7-0.1-5.1c0-0.1-0.1-0.3-0.1-0.5c0-1.1,1-2.4,1.9-3.4c-0.1-0.1-0.1-0.2-0.1-0.2
					c-1.2-2.9,8.9-9.9,10.9-11.2c11.4-7.7,16.2-9.6,27.8-8.3c17,1.9,27.4-10.9,27.5-11l1.6,1.2c-0.4,0.6-11.2,13.8-29.3,11.7
					c-11.1-1.3-15.4,0.4-26.5,7.9c-6.3,4.3-9.5,7.6-10,8.8l0.7,1.4c-1.3,1.1-2.4,2.5-2.4,3c0-0.1,0-0.2-0.1-0.2l0.2,1.4
					c0,0-1.5,1.9-0.5,2.9c0.3,0.3,0.5,0.3,1.9-0.7l0,0c0,0,0,0,0,0l1.2,1.6c-0.2,0.2-0.4,0.6-0.4,0.8c0.2,0,0.6-0.1,1.3-0.5
					c11.2-6.3,19-6.9,22.6-5.5c1.4,0.6,1.8,1.3,2,1.8c0.2,0.6,0.1,1.1-0.3,1.6c-0.9,1.3-3.4,2-8.7,2.5c-3.2,0.3-4.4,0.7-4.9,1
					c0.2,0.2,0.5,0.4,1.2,0.7c3.6,1.8,12.6,0.9,18.9-1.8c1.9-0.9,6.1-3.9,10.1-6.8c3.6-2.7,7-5.2,9.1-6.3
					c4.2-2.3,23.3-14.7,23.5-14.8l1.1,1.7c-0.8,0.5-19.4,12.6-23.6,14.9c-1.9,1-5.5,3.6-8.9,6.2c-4.3,3.2-8.3,6.1-10.5,7.1
					C86.9,91.7,81.6,92.7,77.1,92.7z"/>
			</g>
		</g>
		<g>
			<path class="st0" d="M134.6,92.8l1.3,2.3l-3.2,1.7v-4H134.6 M135.7,90.8h-5.1v9.3l7.9-4.2L135.7,90.8L135.7,90.8z"/>
		</g>
		<g>
			<path class="st0" d="M146.6,84.8L149,86l-0.6,2.1l-2.6-1.1L146.6,84.8 M145.5,82l-2.3,6l6.5,2.8l1.6-5.8L145.5,82L145.5,82z"/>
		</g>
		<g>
			<path class="st0" d="M147.1,99.2l1,1.1l-0.6,0.3l-1.1-0.7L147.1,99.2 M147.3,96.4l-4.1,3.7l4.1,2.8l4.1-1.9L147.3,96.4
				L147.3,96.4z"/>
		</g>
	</g>
</g>
</svg>
