<svg xmlns="http://www.w3.org/2000/svg" viewBox="0 0 160 160"><defs><style>.cls-1{fill:#fff;}</style></defs><title>shine-affects-process-products-160x160</title><g id="Pound"><path class="cls-1" d="M81.51,44c7.75,0,15.3,2.87,22.45,8.53l-1.06,1.31-6.35-3.11a33.54,33.54,0,0,0-15-3.78c-5.38,0-9.68,1.34-12.78,4S64,57.49,64,62.61c0,4.11,1.18,9.53,3.51,16.09L68,80H92.35v2.15H68.68l.87,2.63a34.64,34.64,0,0,1,2.08,10.27,15.72,15.72,0,0,1-1.28,6.43,30.87,30.87,0,0,1-4.79,7l-1.41,1.67-2.77,3.29h43.68V116H58.82V114.4a3.17,3.17,0,0,1,.54-1.7l3.41-4.47a39.48,39.48,0,0,0,4.46-6.93,14.1,14.1,0,0,0,1.23-5.84,37.61,37.61,0,0,0-2.54-11.93l-.47-1.33H54.94v-.8l7.32-1.19,2.3-.37-.72-2.22c-2-6.22-3-11.3-3-15.09a17.46,17.46,0,0,1,5.6-13.17C70.15,45.8,75.23,44,81.51,44m0-2C74.7,42,69.16,44,65,47.88A19.39,19.39,0,0,0,58.81,62.5c0,4,1.05,9.29,3.13,15.71l-9,1.46v4.51H64a35.71,35.71,0,0,1,2.42,11.27,12.12,12.12,0,0,1-1.05,5A37.69,37.69,0,0,1,61.18,107l-3.45,4.53a5.16,5.16,0,0,0-.91,2.85V118h50.24v-6.53H65.68l1.41-1.67a32.7,32.7,0,0,0,5.09-7.47,17.7,17.7,0,0,0,1.46-7.25,36.5,36.5,0,0,0-2.18-10.89h22.9V78h-25C67.12,71.68,66,66.5,66,62.61c0-4.5,1.32-7.82,4-10.14S76.62,49,81.51,49a31.56,31.56,0,0,1,14.14,3.57l7.8,3.81,3.32-4.1-.68-.56C98.31,45.27,90,42,81.51,42Z"/><path class="cls-1" d="M80,2A78,78,0,1,1,2,80,78.09,78.09,0,0,1,80,2m0-2a80,80,0,1,0,80,80A80,80,0,0,0,80,0Z"/></g></svg>