<svg xmlns="http://www.w3.org/2000/svg" viewBox="0 0 160 160"><defs><style>.cls-1{fill:#fff;}</style></defs><title>5_adjourning</title><g id="circle"><path class="cls-1" d="M80,2A78,78,0,1,1,2,80,78.09,78.09,0,0,1,80,2m0-2a80,80,0,1,0,80,80A80,80,0,0,0,80,0Z"/></g><g id="icon"><path class="cls-1" d="M38.65,56.55h0a3.14,3.14,0,0,1,2.24.92l3.31,3.31A10.5,10.5,0,1,0,57.69,74.27L62,78.53A3.18,3.18,0,0,1,62,83l-7.07,7.07a2,2,0,0,0,1.41,3.41l.34,0a6.6,6.6,0,0,1,1.11-.09,6.5,6.5,0,1,1-4.6,11.09,6.51,6.51,0,0,1-1.8-5.7A2,2,0,0,0,48,97l-7.07,7.07a3.18,3.18,0,0,1-4.48,0L15.36,83a3.18,3.18,0,0,1,0-4.48L36.41,57.47a3.14,3.14,0,0,1,2.24-.92m0-2A5.15,5.15,0,0,0,35,56.06L13.94,77.12a5.18,5.18,0,0,0,0,7.31L35,105.48a5.18,5.18,0,0,0,7.31,0l7.07-7.07a8.5,8.5,0,1,0,8.38-7,8.58,8.58,0,0,0-1.45.12l7.07-7.07a5.18,5.18,0,0,0,0-7.31l-7-7a8.5,8.5,0,1,1-8.48-7.93l.57,0-6.1-6.1a5.15,5.15,0,0,0-3.65-1.51Z"/><path class="cls-1" d="M98.32,95.76a6.5,6.5,0,1,1,0,13,6.6,6.6,0,0,1-1.11-.09l-.34,0A2,2,0,0,0,95.46,112l7.07,7.07a3.18,3.18,0,0,1,0,4.48L81.47,144.64a3.18,3.18,0,0,1-4.48,0L55.93,123.59a3.18,3.18,0,0,1,0-4.48l3.31-3.31a10.5,10.5,0,1,0,13.49-13.49L77,98a3.18,3.18,0,0,1,4.48,0l7.07,7.07a2,2,0,0,0,3.39-1.75,6.49,6.49,0,0,1,6.4-7.61h0m0-2A8.49,8.49,0,0,0,90,103.7l-7.07-7.07a5.18,5.18,0,0,0-7.31,0l-7,7,.57,0a8.5,8.5,0,1,1-8.48,7.93l-6.1,6.1a5.18,5.18,0,0,0,0,7.31l21.06,21.06a5.18,5.18,0,0,0,7.31,0L103.94,125a5.18,5.18,0,0,0,0-7.31l-7.07-7.07a8.59,8.59,0,0,0,1.45.12,8.5,8.5,0,0,0,0-17Z"/><path class="cls-1" d="M102.26,53.64h0a6.49,6.49,0,0,1,6.4,7.61A2,2,0,0,0,112,63l7.07-7.07a3.18,3.18,0,0,1,4.48,0L144.64,77a3.17,3.17,0,0,1,0,4.48l-21.06,21.06a3.18,3.18,0,0,1-4.48,0l-3.31-3.31a10.5,10.5,0,1,0-13.49-13.49L98,81.47A3.17,3.17,0,0,1,98,77l7.07-7.07a2,2,0,0,0-1.41-3.41l-.34,0a6.6,6.6,0,0,1-1.11.09,6.5,6.5,0,0,1,0-13m0-2a8.5,8.5,0,1,0,0,17,8.58,8.58,0,0,0,1.45-.12l-7.07,7.07a5.18,5.18,0,0,0,0,7.31l7,7a8.5,8.5,0,1,1,8.48,7.93l-.57,0,6.1,6.1a5.18,5.18,0,0,0,7.31,0l21.06-21.06a5.18,5.18,0,0,0,0-7.31L125,54.52a5.18,5.18,0,0,0-7.31,0l-7.07,7.07a8.49,8.49,0,0,0-8.37-9.94Z"/><path class="cls-1" d="M80.77,14.43a3.14,3.14,0,0,1,2.24.92l21.06,21.06a3.17,3.17,0,0,1,0,4.48l-3.31,3.31A10.5,10.5,0,1,0,87.26,57.69L83,62a3.18,3.18,0,0,1-4.48,0l-7.07-7.07a2,2,0,0,0-3.39,1.75,6.5,6.5,0,1,1-11-3.49,6.45,6.45,0,0,1,4.59-1.9,6.6,6.6,0,0,1,1.11.09l.34,0A2,2,0,0,0,64.54,48l-7.07-7.07a3.17,3.17,0,0,1,0-4.48L78.53,15.36a3.14,3.14,0,0,1,2.24-.92m0-2a5.15,5.15,0,0,0-3.65,1.51L56.06,35a5.18,5.18,0,0,0,0,7.31l7.07,7.07a8.58,8.58,0,0,0-1.45-.12,8.5,8.5,0,1,0,8.38,7l7.07,7.07a5.18,5.18,0,0,0,7.31,0l7-7-.57,0a8.5,8.5,0,1,1,8.48-7.93l6.1-6.1a5.18,5.18,0,0,0,0-7.31L84.42,13.94a5.15,5.15,0,0,0-3.65-1.51Z"/></g></svg>