<svg xmlns="http://www.w3.org/2000/svg" viewBox="0 0 160 160"><defs><style>.cls-1{fill:#fff;}</style></defs><title>1_forming</title><g id="circle"><path class="cls-1" d="M80,2A78,78,0,1,1,2,80,78.09,78.09,0,0,1,80,2m0-2a80,80,0,1,0,80,80A80,80,0,0,0,80,0Z"/></g><g id="icon"><path class="cls-1" d="M125.88,86.41a17,17,0,0,0-13.48,6.7L75.77,73.44a24.46,24.46,0,0,0-6.4-27.92L89.61,33.76A12.7,12.7,0,1,0,88.69,32l-21,12.2A24.49,24.49,0,1,0,49.32,88.1v16.07a17,17,0,1,0,2,0V88.33c.62,0,1.25.08,1.88.08A24.52,24.52,0,0,0,74.91,75.25l36.37,19.52a17,17,0,1,0,14.61-8.36ZM100.69,16a11,11,0,1,1-11,11A11,11,0,0,1,100.69,16ZM65.3,121.11a15,15,0,1,1-15-15A15,15,0,0,1,65.3,121.11ZM53.2,86.41a22.5,22.5,0,1,1,22.5-22.5A22.53,22.53,0,0,1,53.2,86.41Zm72.68,32a15,15,0,1,1,15-15A15,15,0,0,1,125.88,118.38Z"/></g></svg>