<svg xmlns="http://www.w3.org/2000/svg" viewBox="0 0 160 160"><defs><style>.cls-1{fill:#fff;}</style></defs><title>3_norming</title><g id="circle"><path class="cls-1" d="M80,2A78,78,0,1,1,2,80,78.09,78.09,0,0,1,80,2m0-2a80,80,0,1,0,80,80A80,80,0,0,0,80,0Z"/></g><g id="icon"><path class="cls-1" d="M69.54,117.1l-10.3-7-.71.25a37.49,37.49,0,0,1-12.6,2.12c-16.08,0-29.17-9.65-29.17-21.51S29.85,69.5,45.93,69.5,75.1,79.15,75.1,91c0,6-3.46,11.77-9.48,15.85l-1.11.75Zm-10-9.18L64,111l-2.12-4,2.59-1.76C70,101.5,73.1,96.33,73.1,91c0-10.75-12.19-19.5-27.17-19.5S18.76,80.25,18.76,91,31,110.51,45.93,110.51a35.51,35.51,0,0,0,11.94-2Z"/><path class="cls-1" d="M85,92.63l5.74-10.83-1.47-1C82.11,75.95,78,69.09,78,62c0-14.1,15.59-25.56,34.75-25.56S147.5,47.88,147.5,62s-15.59,25.57-34.75,25.57a44.72,44.72,0,0,1-15-2.53l-.94-.33Zm27.74-54.22C94.69,38.41,80,49,80,62c0,6.44,3.79,12.7,10.39,17.16l3,2-2.83,5.34,6-4,1.9.67a42.76,42.76,0,0,0,14.37,2.41C130.8,85.54,145.5,75,145.5,62S130.8,38.41,112.75,38.41Z"/></g></svg>