<svg xmlns="http://www.w3.org/2000/svg" viewBox="0 0 160 160"><defs><style>.cls-1{fill:#fff;}</style></defs><title>4_performing</title><g id="circle"><path class="cls-1" d="M80,2A78,78,0,1,1,2,80,78.09,78.09,0,0,1,80,2m0-2a80,80,0,1,0,80,80A80,80,0,0,0,80,0Z"/></g><g id="icon"><path class="cls-1" d="M56.41,125.25H42.5a3,3,0,0,1-3.07-2.81V96.25a3,3,0,0,1,3.07-2.81H56.41a3,3,0,0,1,3.07,2.81v26.18A3,3,0,0,1,56.41,125.25ZM42.5,95.44c-.58,0-1.07.37-1.07.81v26.18c0,.44.49.81,1.07.81H56.41c.58,0,1.07-.37,1.07-.81V96.25c0-.44-.49-.81-1.07-.81Z"/><path class="cls-1" d="M77.35,125.25H63.44a3,3,0,0,1-3.07-2.81V85.53a3,3,0,0,1,3.07-2.81H77.35a3,3,0,0,1,3.08,2.81v36.91A3,3,0,0,1,77.35,125.25ZM63.44,84.71c-.58,0-1.07.37-1.07.81v36.91c0,.44.49.81,1.07.81H77.35c.58,0,1.08-.37,1.08-.81V85.53c0-.44-.49-.81-1.08-.81Z"/><path class="cls-1" d="M98.29,125.25H84.38a3,3,0,0,1-3.07-2.81V78.27a3,3,0,0,1,3.07-2.81H98.29a3,3,0,0,1,3.07,2.81v44.17A3,3,0,0,1,98.29,125.25ZM84.38,77.46c-.58,0-1.07.37-1.07.81v44.17c0,.44.49.81,1.07.81H98.29c.58,0,1.07-.37,1.07-.81V78.27c0-.44-.49-.81-1.07-.81Z"/><path class="cls-1" d="M119.24,125.25H105.33a3,3,0,0,1-3.07-2.81V59a3,3,0,0,1,3.07-2.81h13.91A3,3,0,0,1,122.31,59v63.41A3,3,0,0,1,119.24,125.25Zm-13.91-67c-.58,0-1.07.37-1.07.81v63.41c0,.44.49.81,1.07.81h13.91c.58,0,1.07-.37,1.07-.81V59c0-.44-.49-.81-1.07-.81Z"/><polygon class="cls-1" points="111.12 34.75 92.57 39.13 98.55 42.7 37.69 87.17 38.87 88.78 99.73 44.31 101.31 51.09 111.12 34.75"/></g></svg>