<svg xmlns="http://www.w3.org/2000/svg" viewBox="0 0 160 160"><defs><style>.cls-1{fill:#fff;}</style></defs><g id="Layer_1" data-name="Layer 1"><path class="cls-1" d="M17.13,126.1c-9-13-15.13-29-15.13-46.39a77.79,77.79,0,0,1,155.57,0,75.23,75.23,0,0,1-15.44,46.39v3.19A78.54,78.54,0,0,0,159.6,79.71,79.75,79.75,0,0,0,79.94,0C36,0,0,35.76,0,79.71a78.25,78.25,0,0,0,17.13,49.58Z"/><path class="cls-1" d="M142.47,33.76c9,13,15.13,29,15.13,46.39A77.79,77.79,0,0,1,2,80.14,75.23,75.23,0,0,1,17.47,33.76V30.57A78.54,78.54,0,0,0,0,80.14a79.75,79.75,0,0,0,79.65,79.71c44,0,79.94-35.76,79.94-79.71a78.25,78.25,0,0,0-17.13-49.58Z"/><path class="cls-1" d="M109.29,140.85l-.59-.89a77.79,77.79,0,0,0-5.7-7.61l-3-2c-7.7-5.13-12-8-19.56-18l-2.08-1.15a108.29,108.29,0,0,1-15.51-9.81c-2.51-2-3.59-5-2.41-6.73.65-.95,2.37-2.16,6.7.37a89.27,89.27,0,0,0,12.17,6.28C74.07,96.31,69,91.26,64,85.61c-2.43-2.75-2.36-5.13-1.21-6.28s3.48-1.22,6.15,1.15,9.33,8.27,15.86,13C81.47,89.06,77.28,84,74.23,80.36,72.75,78.58,71.47,77,70.64,76c-2.8-3.54-3.57-7.42-1.79-9,1-.87,3.3-1.62,8.1,3.09,2.32,2.27,6.5,6.82,10.55,11.21l4,4.37c-1.58-3-3.33-5.83-5-8.65-1.23-2-2.51-4.12-3.71-6.23-1.9-3.34-1.18-5.79.38-6.75s4.22-.52,6.32,2.71S94,73.46,96.5,77c1.65,2.36,3.32,4.77,5,7.25,2.65,3.91,7.69,9.16,10.25,8.88.4,0,1-.25,1.46-1.48s.84-2.35,1.27-3.64c2.15-6.44,4.59-13.74,11.71-13.44l.8,0,.15.79c.41,2.22-.45,4.25-1.2,6.05l-.07.16a36.4,36.4,0,0,0-2,8.23,58.36,58.36,0,0,1-1.25,6.26c.3,6.42.18,7.8-1.06,12-1.49,5.08-1.8,6.37-1.23,11.4a51.27,51.27,0,0,0,4.73,8l.55.78ZM62.78,95.53a.84.84,0,0,0-.72.25c-.39.57.08,2.53,2,4a106.74,106.74,0,0,0,15.25,9.64l2.45,1.36.13.17c7.47,9.88,11.64,12.65,19.2,17.69l3.15,2.11.2.17a76.25,76.25,0,0,1,5.34,7l13.14-10.13a50.7,50.7,0,0,1-4.43-7.63l-.08-.3c-.63-5.52-.25-7.11,1.28-12.35,1.18-4,1.28-5.2,1-11.52v-.16l0-.16a55.53,55.53,0,0,0,1.24-6.19,38.39,38.39,0,0,1,2.1-8.68l.07-.16a11.23,11.23,0,0,0,1.15-4.08c-5,.42-6.95,6.33-8.86,12.06-.44,1.31-.85,2.55-1.3,3.72a3.78,3.78,0,0,1-3.1,2.75c-4.21.49-10.18-6.87-12.13-9.74-1.67-2.47-3.34-4.87-5-7.23-2.49-3.58-4.84-7-7.05-10.35-1.3-2-2.83-2.57-3.61-2.1s-.87,2,.31,4S87,73.94,88.2,76a110.61,110.61,0,0,1,7.93,14.65l2,4.84-3.66-3.76c-2.07-2.12-5.18-5.49-8.46-9.06-4-4.37-8.2-8.9-10.48-11.14-3.42-3.36-5-3.33-5.36-3-.6.54-.44,3.18,2,6.29.81,1,2.08,2.56,3.56,4.33,4.17,5,10.48,12.59,13.78,17.76L92,100.6l-3.77-2.37C80.41,93.35,70.75,84.79,67.57,82c-1.7-1.5-3-1.62-3.41-1.23s-.27,1.77,1.29,3.54c5.92,6.68,12,12.55,18.25,18.48l2.53,2.41-3.42-.7c-5.47-1.12-12-4.93-16.72-7.71A7.26,7.26,0,0,0,62.78,95.53Z"/><path class="cls-1" d="M36.48,60.24l-.72-1.87a9.55,9.55,0,0,0,3.45-2.2l23-23a12.49,12.49,0,0,0,2.74-5l1.9.62a14.41,14.41,0,0,1-3.23,5.8l-23,23A11.47,11.47,0,0,1,36.48,60.24Z"/><path class="cls-1" d="M46.19,67.88,44.41,67a13.87,13.87,0,0,1,2.33-3.28l23-23a14.38,14.38,0,0,1,5.77-3.21l.62,1.9a12.47,12.47,0,0,0-5,2.73l-23,23A11.88,11.88,0,0,0,46.19,67.88Z"/><path class="cls-1" d="M32.35,88.6h-.41l-3-.07,4.95-11.4a2.5,2.5,0,0,0,0-2.33,5.23,5.23,0,0,0-2.58-2c-1.87-.81-3.45-.77-4.33.1a3.09,3.09,0,0,0-.63,1l-4.95,11.4-2.12-2.16c-4.62-4.71-6-11.37-3.62-17a14.17,14.17,0,0,1,3-4.4C23,57.28,30.06,56,36.47,58.36l.87.35A17.93,17.93,0,0,1,46.24,67l.1.2a14.89,14.89,0,0,1,.45,12.49,14.14,14.14,0,0,1-3,4.39A16.18,16.18,0,0,1,32.35,88.6Zm-.43-2H32a14.29,14.29,0,0,0,10.4-4h0a12.14,12.14,0,0,0,2.57-3.77,12.72,12.72,0,0,0-.41-10.81l-.09-.17a15.93,15.93,0,0,0-7.91-7.33l-.78-.31c-5.68-2.13-11.87-1-15.77,2.9a12.18,12.18,0,0,0-2.57,3.78c-2.1,4.83-.84,10.63,3.21,14.75l0,0L24.45,73a5.06,5.06,0,0,1,1-1.58C27,70,29.36,69.78,32,70.94a7.05,7.05,0,0,1,3.54,2.89,4.49,4.49,0,0,1,.11,4.09Z"/><path class="cls-1" d="M77.29,39.44a12.5,12.5,0,1,1,0-25h0a12.5,12.5,0,0,1,8.84,21.34h0A12.42,12.42,0,0,1,77.29,39.44Zm0-23a10.5,10.5,0,1,0,7.43,17.93h0a10.5,10.5,0,0,0-7.43-17.93ZM75.1,34.07l-.33-1.5a1,1,0,0,0-1.1-.63l-.44.06H72l.34-1.44a1,1,0,0,0-.63-1.1l-.32-.12-1.15-.51.75-1,.21-.25a1,1,0,0,0,0-1.27h0L70.89,26l-.73-1.22,1.5-.33A.9.9,0,0,0,72,24.2a1.05,1.05,0,0,0,.3-.88L72,21.61l1.67.33a1.05,1.05,0,0,0,.88-.31.91.91,0,0,0,.21-.33l.07-.18.31-1.54,1.51,1.21a1,1,0,0,0,1.27,0l1.37-1.15.51,1.65a1,1,0,0,0,1.1.64l.16,0,1.56-.62-.34,2a1,1,0,0,0,.63,1.1l.09,0h1.56L83.7,26l-.27.35a1,1,0,0,0,0,1.26l1,1.18-1.13.57-.36.14a.92.92,0,0,0-.33.22,1,1,0,0,0-.3.88l.06.34.14,1.41-1.58-.38a1,1,0,0,0-.88.3.92.92,0,0,0-.21.33L79.27,34l-1-.7-.3-.24a1,1,0,0,0-1.27,0l-.34.27Zm1.55-2.19Zm.64-1a3,3,0,0,1,1.11.21l.21-.24h0a3.11,3.11,0,0,1,1.7-.86,3.12,3.12,0,0,1,.86-1.7l.24-.21a3.07,3.07,0,0,1,0-2.21,3.07,3.07,0,0,1-1.1-1.91,3.07,3.07,0,0,1-1.91-1.1,3.07,3.07,0,0,1-2.21,0L76,23a3.12,3.12,0,0,1-1.7.86,3.11,3.11,0,0,1-.86,1.7l-.24.21a3.06,3.06,0,0,1,0,2.21A3.07,3.07,0,0,1,74.27,30a3.07,3.07,0,0,1,1.91,1.1A3,3,0,0,1,77.29,30.85Z"/></g></svg>
