<svg xmlns="http://www.w3.org/2000/svg" viewBox="0 0 159.6 159.85"><defs><style>.cls-1{fill:#fff;}</style></defs><g id="Layer_4" data-name="Layer 4"><path class="cls-1" d="M17.13,126.1c-9-13-15.13-29-15.13-46.39a77.79,77.79,0,0,1,155.57,0,75.23,75.23,0,0,1-15.44,46.39v3.19A78.54,78.54,0,0,0,159.6,79.71,79.75,79.75,0,0,0,79.94,0C36,0,0,35.76,0,79.71a78.25,78.25,0,0,0,17.13,49.58Z"/><path class="cls-1" d="M142.47,33.76c9,13,15.13,29,15.13,46.39A77.79,77.79,0,0,1,2,80.14,75.23,75.23,0,0,1,17.47,33.76V30.57A78.54,78.54,0,0,0,0,80.14a79.75,79.75,0,0,0,79.65,79.71c44,0,79.94-35.76,79.94-79.71a78.25,78.25,0,0,0-17.13-49.58Z"/><path class="cls-1" d="M79.35,100.36h0a11.46,11.46,0,0,1-8.23-3.09,9.13,9.13,0,0,1-2.21-3.55,1,1,0,1,1,1.9-.64,7.13,7.13,0,0,0,1.73,2.78,9.48,9.48,0,0,0,6.82,2.5,1,1,0,0,1,0,2Zm7.68-3a1,1,0,0,1-.71-1.7,7.4,7.4,0,0,0,2.17-5.27l0-5.37a1,1,0,0,1,1-1h0a1,1,0,0,1,1,1l0,5.37A9.37,9.37,0,0,1,87.74,97,1,1,0,0,1,87,97.33ZM69.42,82.45h0a1,1,0,0,1-1-1l.05-11.18-.09-.14-.07-.48a1,1,0,1,1,2-.31l0,.09.16.25-.06,11.78A1,1,0,0,1,69.42,82.45ZM89.57,74h0a1,1,0,0,1-1-1V70.36c0-1.95.2-4.43,2.4-9.26L91,61a1,1,0,0,1,1.82.83l-.06.13c-2,4.47-2.21,6.7-2.22,8.44V73A1,1,0,0,1,89.57,74Zm-25-14.43a1,1,0,0,1-.83-.44l-.3-.44c-1.53-2.27-3-4.42-3.39-7.21a29.06,29.06,0,0,1-.3-4,1,1,0,0,1,1-1h0a1,1,0,0,1,1,1,26.9,26.9,0,0,0,.28,3.71c.36,2.36,1.68,4.32,3.07,6.4l.3.45a1,1,0,0,1-.83,1.56Zm32.77-7.89a1,1,0,0,1-.9-1.44A12.48,12.48,0,0,0,97.82,45v-.21a12,12,0,0,0-1.41-5.23,1,1,0,0,1,1.79-.89,13.91,13.91,0,0,1,1.62,6.12v.27a14.45,14.45,0,0,1-1.55,6A1,1,0,0,1,97.37,51.67ZM63,36.76a1,1,0,0,1-.91-1.4q.18-.42.38-.83c2-4.12,4.78-5.15,6.73-5.29l.46,0a5.89,5.89,0,0,1,3.19.93,1,1,0,0,1-1.08,1.68,3.88,3.88,0,0,0-2.1-.62h-.32c-2.06.14-3.81,1.59-5.08,4.17q-.18.37-.35.75A1,1,0,0,1,63,36.76Zm26.89-6a1,1,0,0,1-.67-.26c-.72-.66-1.47-1.31-2.23-1.92a4.45,4.45,0,0,0-4.66-1,5.1,5.1,0,0,0-2,1.41,1,1,0,0,1-1.51-1.31,7,7,0,0,1,2.76-2,6.45,6.45,0,0,1,6.65,1.29c.77.62,1.56,1.29,2.31,2a1,1,0,0,1-.68,1.74Z"/><path class="cls-1" d="M84.31,32.92c2.69,2.27,8.61,8.09,8.51,12a7.6,7.6,0,0,1-.93,3.31C91.77,48.43,89,53.5,86.43,59s-2.84,8.66-2.85,11.31h0c0,.47,0,3.15-.1,20,0,2.94-3.9,3-3.94,3h-.19a4.69,4.69,0,0,1-3.28-1,2.72,2.72,0,0,1-.7-2l.09-19.1A27.76,27.76,0,0,0,71.91,59c-.89-1.65-1.82-3-2.63-4.24C68.11,53,67.19,51.66,67,50.41a23.93,23.93,0,0,1,1.73-12.79c.09-.18.18-.35.26-.49.49,1.89,1.32,4.95,2.29,8,.9,2.83,3.39,4.51,6.66,4.51a11.11,11.11,0,0,0,2.67-.34,10.55,10.55,0,0,0,4.8-2.47l.15-.14.11-.17c1.71-2.49.73-5.84.21-7.64-.06-.2-.11-.38-.15-.54l-.45-1.69c-.56-2.11-.82-3.07-1-3.72m-.51-2.56a.9.9,0,0,0-.37.08,1.93,1.93,0,0,0-1.21,2.25c.17.93.41,1.77,1.58,6.16.37,1.38,1.57,4.58.23,6.53a8.55,8.55,0,0,1-3.89,2,9.11,9.11,0,0,1-2.19.28c-2.29,0-4.09-1-4.76-3.12-1.45-4.55-2.58-9.13-2.72-9.69a.89.89,0,0,0-.86-.6h-.07c-1.2.07-2.11,1.5-2.61,2.51-2.3,4.68-2.42,10.67-1.91,14,.42,2.74,2.9,5.13,5.13,9.26a26.15,26.15,0,0,1,3.32,11.23l-.09,19.1c0,3.84,3.09,5.07,6,5.07h.19c2,0,5.92-1.15,5.94-5,0,0,.09-19.94.09-20,0-2,.16-5,2.67-10.49s5.39-10.67,5.39-10.67A9.68,9.68,0,0,0,94.82,45c.16-6.08-9.75-14-9.75-14a2,2,0,0,0-1.27-.59Z"/><path class="cls-1" d="M109.8,116.5v16h-60v-16h60m2-2h-64v20h64v-20Z"/></g></svg>
