<svg xmlns="http://www.w3.org/2000/svg" viewBox="0 0 160 160"><defs><style>.cls-1{fill:#fff;}</style></defs><g id="Layer_5" data-name="Layer 5"><path class="cls-1" d="M17.13,126.1c-9-13-15.13-29-15.13-46.39a77.79,77.79,0,0,1,155.57,0,75.23,75.23,0,0,1-15.44,46.39v3.19A78.54,78.54,0,0,0,159.6,79.71,79.75,79.75,0,0,0,79.94,0C36,0,0,35.76,0,79.71a78.25,78.25,0,0,0,17.13,49.58Z"/><path class="cls-1" d="M142.47,33.76c9,13,15.13,29,15.13,46.39A77.79,77.79,0,0,1,2,80.14,75.23,75.23,0,0,1,17.47,33.76V30.57A78.54,78.54,0,0,0,0,80.14a79.75,79.75,0,0,0,79.65,79.71c44,0,79.94-35.76,79.94-79.71a78.25,78.25,0,0,0-17.13-49.58Z"/><path class="cls-1" d="M91.8,93.81a15.11,15.11,0,1,1-15.11,15.11A15.13,15.13,0,0,1,91.8,93.81m0-1.31a16.43,16.43,0,1,0,16.43,16.43A16.43,16.43,0,0,0,91.8,92.5Z"/><path class="cls-1" d="M91.8,87.24a57.46,57.46,0,0,1,45.14,21.69,57.82,57.82,0,0,1-90.28,0A57.46,57.46,0,0,1,91.8,87.24m0-1.31a59,59,0,0,0-46.81,23,59.14,59.14,0,0,0,93.63,0,59,59,0,0,0-46.81-23Z"/><path class="cls-1" d="M81.56,42.82l-.1-1.47,1-.07-.1-.61,3.75-.62.32,2Zm4.77-2.52-.17-2.43H86l0-2h.48a1.71,1.71,0,0,1,1.62,1.57l.19,2.7Zm-.2-2.71h0Z"/><path class="cls-1" d="M54.89,85.88l-4.11-.8.38-2,4.11.8Zm-12.32-2.4-4.11-.8.38-2,4.11.8Zm20.51-.91-1.84-.79a4.17,4.17,0,0,0,.26-.85l.59-3,2,.38-.59,3A6.09,6.09,0,0,1,63.08,82.58ZM30.15,79.7a6.1,6.1,0,0,1-1.43-4.65l2,.22a4,4,0,0,0,0,.46,4.13,4.13,0,0,0,1,2.67Zm32.94-9.52a4.16,4.16,0,0,0-2.14-2.48l.87-1.8A6.17,6.17,0,0,1,65,69.58Zm-30.81-3-2-.38.18-.93a6.06,6.06,0,0,1,1.86-3.32L33.71,64a4.08,4.08,0,0,0-1.25,2.23ZM53,65a13.58,13.58,0,0,1-1.64-1l-2.47-1.81h3.34l.24.15a.36.36,0,0,0,.13,0c.16,0,.33-.2.41-.32l.14-.19L54.79,63l-.13.18a2.74,2.74,0,0,1-1.21,1ZM38.67,58.88l-1.84-.78a11,11,0,0,1,2.73-3.68l1.34,1.48A9.14,9.14,0,0,0,38.67,58.88Zm16.1-3.22L53.31,54.3a3.09,3.09,0,0,1,2.2-1.08,2.1,2.1,0,0,1,.74.13.7.7,0,0,0-.33.09H57.7l0,.68H57.6a1.39,1.39,0,0,1-1.39,1.22,1.85,1.85,0,0,1-.66-.13A1.34,1.34,0,0,0,54.77,55.67Zm8-1.33-.14-2,4.17-.29.14,2ZM33.28,53.27A13,13,0,0,1,30.22,50l1.68-1.09a11,11,0,0,0,2.59,2.8Zm42.43-.84L75.19,52l-1.27-.24a.42.42,0,0,0,0,.07v-.34l.2-.32L76.54,48l1.59,1.21Zm5.91-8.79-.29-4.17,2-.14.29,4.18ZM29.84,41.49l-2,0a15.25,15.25,0,0,1,.69-4.41l1.91.6A13.26,13.26,0,0,0,29.84,41.49ZM79,34.93l-1.48-1.46L78.92,32l.83.83,2.1-.15.14,2ZM34.93,31.66,33.87,30a11.24,11.24,0,0,1,4.27-1.59l.3,2A9.24,9.24,0,0,0,34.93,31.66Zm21.75-.83-.3-4.25,2-.14.05.74,1.2-.08.14,2-1.6.11Zm-10-1.08-.14-2,4.17-.29.14,2Zm21.42-1.24-.14-2,4.17-.29.14,2Z"/></g></svg>
