<?xml version="1.0" encoding="utf-8"?>
<!-- Generator: Adobe Illustrator 18.1.1, SVG Export Plug-In . SVG Version: 6.00 Build 0)  -->
<svg version="1.0" id="Layer_1" xmlns="http://www.w3.org/2000/svg" xmlns:xlink="http://www.w3.org/1999/xlink" x="0px" y="0px"
	 viewBox="0 0 30 30" enable-background="new 0 0 30 30" xml:space="preserve" width="27px">
<g>
	<path fill="#FC4C02" d="M25.7,1.3c-0.1,0.1-0.2,0.1-0.4,0.2C25.5,1.5,25.6,1.4,25.7,1.3z"/>
	<path fill="#FC4C02" d="M26.3,1.1c-0.1,0-0.3,0.1-0.4,0.1C26.1,1.2,26.2,1.1,26.3,1.1z"/>
	<path fill="#FC4C02" d="M4.2,14c0.1,0.1,0.2,0.1,0.4,0.2C4.5,14.1,4.3,14,4.2,14z"/>
	<path fill="#FC4C02" d="M1.6,14c0.1,0,0.1,0,0.2-0.1C1.7,14,1.6,14,1.6,14z"/>
	<path fill="#FC4C02" d="M29,3.4c-0.1-0.4-0.3-0.8-0.7-1.1C27.9,2.1,27.5,2,27.1,2c-0.6,0-1.2,0.3-1.6,0.7L10.8,20.9l-0.7,0.9
		L9.3,21l-4.9-5.6c-0.4-0.4-0.9-0.7-1.5-0.7c-0.4,0-0.9,0.1-1.2,0.4c-0.4,0.3-0.6,0.7-0.7,1.1c0,0.4,0.1,0.8,0.4,1.1l8.8,10.1
		L28.7,4.5C28.9,4.2,29,3.8,29,3.4z"/>
	<path fill="#FC4C02" d="M3.4,13.8c-0.1,0-0.2,0-0.4,0C3.2,13.7,3.3,13.7,3.4,13.8z"/>
	<path fill="#FC4C02" d="M4,13.9c-0.1,0-0.2-0.1-0.4-0.1C3.8,13.8,3.9,13.9,4,13.9z"/>
	<path fill="#FC4C02" d="M27,1c-0.1,0-0.3,0-0.4,0C26.7,1,26.8,1,27,1z"/>
	<path fill="#FC4C02" d="M2.8,13.7c-0.1,0-0.1,0-0.2,0C2.6,13.7,2.7,13.7,2.8,13.7z"/>
	<path fill="#FC4C02" d="M2.3,13.8c-0.1,0-0.1,0-0.2,0C2.1,13.8,2.2,13.8,2.3,13.8z"/>
	<path fill="#FC4C02" d="M28.3,1.3c0,0-0.1,0-0.2-0.1C28.2,1.2,28.3,1.2,28.3,1.3z"/>
	<path fill="#FC4C02" d="M1.1,14.3C1.1,14.3,1.1,14.3,1.1,14.3C1.1,14.3,1.1,14.3,1.1,14.3c-0.5,0.3-0.8,0.8-1,1.3
		C0.3,15,0.6,14.6,1.1,14.3z"/>
	<path fill="#FC4C02" d="M5.2,14.7l4.9,5.6L5.2,14.7c-0.1-0.2-0.3-0.3-0.5-0.4C4.9,14.4,5,14.5,5.2,14.7z"/>
	<path fill="#FC4C02" d="M24.7,2.1c0.1-0.2,0.3-0.3,0.4-0.4C25,1.8,24.9,1.9,24.7,2.1z"/>
	<path fill="#FC4C02" d="M27.3,1c-0.1,0-0.1,0-0.2,0C27.2,1,27.3,1,27.3,1z"/>
	<path fill="#FC4C02" d="M27.7,1.1c0.1,0,0.1,0,0.2,0C27.8,1.1,27.7,1.1,27.7,1.1z"/>
</g>
</svg>
