<?xml version="1.0" encoding="utf-8"?>
<!-- Generator: Adobe Illustrator 18.1.1, SVG Export Plug-In . SVG Version: 6.00 Build 0)  -->
<svg version="1.0" id="Layer_1" xmlns="http://www.w3.org/2000/svg" xmlns:xlink="http://www.w3.org/1999/xlink" x="0px" y="0px" height="20px"
	 viewBox="0 0 34 30" enable-background="new 0 0 34 30" xml:space="preserve">
<g>
	<g>
		<path d="M8.1,21l-0.3-1.6H7.7c-0.5,0.7-1.1,1.1-1.6,1.4c-0.5,0.2-1.2,0.4-2,0.4c-1.1,0-1.9-0.3-2.5-0.8C0.8,19.8,0.5,19,0.5,18
			c0-2.2,1.8-3.4,5.3-3.5l1.9-0.1v-0.7c0-0.9-0.2-1.5-0.6-1.9c-0.4-0.4-1-0.6-1.8-0.6c-0.9,0-1.9,0.3-3.1,0.8l-0.5-1.3
			c0.5-0.3,1.1-0.5,1.8-0.7C4.2,10,4.8,9.9,5.5,9.9c1.3,0,2.3,0.3,2.9,0.9c0.6,0.6,0.9,1.5,0.9,2.8V21H8.1z M4.3,19.8
			c1,0,1.8-0.3,2.4-0.8c0.6-0.6,0.9-1.4,0.9-2.4v-1L6,15.7c-1.3,0-2.3,0.3-2.8,0.6c-0.6,0.4-0.9,0.9-0.9,1.7c0,0.6,0.2,1.1,0.5,1.4
			C3.2,19.7,3.7,19.8,4.3,19.8z" class="cls-4"/>
		<path d="M17.8,9.9c1.4,0,2.6,0.5,3.3,1.5c0.8,1,1.2,2.4,1.2,4.2c0,1.8-0.4,3.2-1.2,4.2c-0.8,1-1.9,1.5-3.3,1.5
			c-0.7,0-1.4-0.1-2-0.4c-0.6-0.3-1.1-0.7-1.5-1.2h-0.1L13.9,21h-1.2V5.5h1.7v3.8c0,0.8,0,1.6-0.1,2.3h0.1
			C15.1,10.4,16.3,9.9,17.8,9.9z M17.6,11.3c-1.1,0-1.9,0.3-2.4,1c-0.5,0.6-0.7,1.7-0.7,3.3s0.3,2.6,0.8,3.3c0.5,0.7,1.3,1,2.5,1
			c1,0,1.8-0.4,2.3-1.1s0.7-1.8,0.7-3.2c0-1.4-0.2-2.5-0.7-3.2S18.6,11.3,17.6,11.3z" class="cls-4"/>
		<path d="M29.6,21.2c-1.6,0-2.8-0.5-3.7-1.5c-0.9-1-1.3-2.4-1.3-4.1c0-1.8,0.4-3.2,1.3-4.2c0.9-1,2.1-1.5,3.8-1.5
			c0.5,0,1.1,0.1,1.6,0.2c0.5,0.1,0.9,0.2,1.2,0.4L32,11.8c-0.4-0.1-0.8-0.3-1.2-0.4c-0.4-0.1-0.8-0.1-1.1-0.1
			c-2.2,0-3.3,1.4-3.3,4.2c0,1.3,0.3,2.4,0.8,3.1c0.5,0.7,1.3,1.1,2.4,1.1c0.9,0,1.8-0.2,2.8-0.6v1.5C31.6,21,30.7,21.2,29.6,21.2z"
			class="cls-4"/>
	</g>
	<line stroke-width="2" stroke-miterlimit="10" x1="34" y1="29" x2="0" y2="29" class="cls-3"/>
	<line stroke-width="2" stroke-miterlimit="10" x1="34" y1="1" x2="0" y2="1" class="cls-3"/>
</g>
</svg>
