<svg version="1.0"  xmlns="http://www.w3.org/2000/svg" xmlns:xlink="http://www.w3.org/1999/xlink" x="0px" y="0px"
	 width="26px" height="26px"  xml:space="preserve">
		<path class="cls-3" fill-rule="evenodd" clip-rule="evenodd" d="M4.969,9.177L1,19.333h1.645c0.177,0,0.324-0.048,0.441-0.144
			s0.198-0.201,0.245-0.318l0.686-1.938h4.046l0.686,1.938c0.056,0.136,0.141,0.246,0.255,0.333
			c0.114,0.086,0.263,0.129,0.445,0.129h1.631L7.118,9.177H4.969z M4.535,15.477l1.092-3.094c0.065-0.164,0.134-0.356,0.207-0.578
			s0.141-0.463,0.207-0.725c0.065,0.257,0.134,0.495,0.207,0.714c0.072,0.22,0.141,0.411,0.207,0.574l1.099,3.108H4.535z
			 M11.717,15.883h3.696v-1.582h-3.696V15.883z M16.764,9.177v1.645h4.858l-5.026,7.14c-0.061,0.08-0.107,0.167-0.14,0.263
			c-0.033,0.096-0.049,0.192-0.049,0.291v0.818h7.77v-1.645h-5.074l5.012-7.112c0.064-0.093,0.115-0.194,0.15-0.305
			c0.035-0.109,0.053-0.218,0.053-0.325v-0.77H16.764z"/>
</svg>
