<?xml version="1.0" encoding="utf-8"?>
<!-- Generator: Adobe Illustrator 16.0.0, SVG Export Plug-In . SVG Version: 6.00 Build 0)  -->
<!DOCTYPE svg PUBLIC "-//W3C//DTD SVG 1.0//EN" "http://www.w3.org/TR/2001/REC-SVG-20010904/DTD/svg10.dtd">
<svg version="1.0" id="Layer_1" xmlns="http://www.w3.org/2000/svg" xmlns:xlink="http://www.w3.org/1999/xlink" x="0px" y="0px"
	 width="24px" height="24px" viewBox="0 0 35.6 35.6" enable-background="new 0 0 35.6 35.6" xml:space="preserve">
<circle fill="none" class="cls-3" stroke-width="2" stroke-miterlimit="10" cx="17.8" cy="17.8" r="16.8"/>
<g>
	<path class="cls-4" d="M14.324,25.904c0.429,0,0.796,0.15,1.102,0.451c0.306,0.302,0.459,0.671,0.459,1.109
		c0,0.429-0.153,0.794-0.459,1.095c-0.306,0.301-0.673,0.451-1.102,0.451c-0.428,0-0.795-0.15-1.102-0.451s-0.459-0.666-0.459-1.095
		c0-0.438,0.15-0.808,0.451-1.109C13.516,26.055,13.886,25.904,14.324,25.904z M15.242,23.44h-0.581
		c0.143-1.295,0.454-2.412,0.933-3.351s1.418-2.15,2.815-3.634s2.321-2.68,2.77-3.588c0.316-0.643,0.475-1.306,0.475-1.989
		c0-0.806-0.286-1.487-0.857-2.043c-0.571-0.556-1.306-0.834-2.204-0.834c-0.867,0-1.571,0.184-2.111,0.551
		c-0.306,0.205-0.459,0.454-0.459,0.75c0,0.204,0.084,0.484,0.252,0.842c0.168,0.357,0.252,0.653,0.252,0.887
		c0,0.347-0.123,0.638-0.367,0.872c-0.245,0.235-0.546,0.352-0.903,0.352c-0.357,0-0.661-0.127-0.911-0.382s-0.375-0.592-0.375-1.01
		c0-0.897,0.437-1.713,1.309-2.448c0.872-0.734,2.063-1.102,3.573-1.102c1.571,0,2.838,0.441,3.802,1.324
		c0.964,0.882,1.446,1.89,1.446,3.022c0,0.908-0.225,1.698-0.673,2.372c-0.592,0.877-1.714,1.885-3.366,3.022
		c-1.653,1.138-2.79,2.14-3.413,3.007C16.028,20.927,15.559,22.054,15.242,23.44z"/>
</g>
</svg>
