
<svg version="1.0"  xmlns="http://www.w3.org/2000/svg" xmlns:xlink="http://www.w3.org/1999/xlink" x="0px" y="0px"
	 width="26px" height="26px" xml:space="preserve">

		<path class="cls-3" fill-rule="evenodd" clip-rule="evenodd" d="M6.551,19.551h3.25l-3.25-3.25V19.551z M21.455,8.095l-3.447-3.447L7.668,14.99
			l3.447,3.446L21.455,8.095z M19.551,22.801H3.301V6.551h10.506l3.248-3.25H3.301c-1.795,0-3.25,1.455-3.25,3.25v16.25
			c0,1.795,1.455,3.25,3.25,3.25h16.25c1.795,0,3.25-1.455,3.25-3.25V9.046l-3.25,3.251V22.801z M19.157,3.498l3.446,3.447
			l1.149-1.149l-3.446-3.447L19.157,3.498z M22.604,0.051l-1.148,1.148l3.447,3.448l1.148-1.149L22.604,0.051z"/>

</svg>
