<svg xmlns="http://www.w3.org/2000/svg" xmlns:xlink="http://www.w3.org/1999/xlink" preserveAspectRatio="xMidYMid" width="19" height="19" viewBox="0 0 19 19">
  <g>
    <path d="M14.135,7.059 C14.135,10.962 10.971,14.126 7.068,14.126 C3.164,14.126 0.000,10.962 0.000,7.059 C0.000,3.155 3.164,-0.009 7.068,-0.009 C10.971,-0.009 14.135,3.155 14.135,7.059 ZM7.068,2.465 C4.531,2.465 2.474,4.521 2.474,7.059 C2.474,9.596 4.531,11.653 7.068,11.653 C9.605,11.653 11.662,9.596 11.662,7.059 C11.662,4.521 9.605,2.465 7.068,2.465 Z" id="path-1" class="cls-3" fill-rule="evenodd"/>
    <path d="M11.483,11.546 C12.188,10.841 13.330,10.841 14.035,11.546 C14.035,11.546 17.938,15.449 17.938,15.449 C18.643,16.153 18.643,17.296 17.938,18.001 C17.234,18.706 16.091,18.706 15.386,18.001 C15.386,18.001 11.483,14.098 11.483,14.098 C10.778,13.393 10.778,12.250 11.483,11.546 Z" id="path-2" class="cls-3" fill-rule="evenodd"/>
  </g>
</svg>
