<svg xmlns="http://www.w3.org/2000/svg" xmlns:xlink="http://www.w3.org/1999/xlink" preserveAspectRatio="xMidYMid" width="37" height="37" viewBox="0 0 37 37">
  <g id="group-2-copysvg">
    <path d="M24.625,12.328 C24.625,19.128 19.112,24.640 12.312,24.640 C5.512,24.640 -0.000,19.128 -0.000,12.328 C-0.000,5.528 5.512,0.015 12.312,0.015 C19.112,0.015 24.625,5.528 24.625,12.328 ZM12.312,4.325 C7.892,4.325 4.309,7.908 4.309,12.328 C4.309,16.748 7.892,20.331 12.312,20.331 C16.732,20.331 20.315,16.748 20.315,12.328 C20.315,7.908 16.732,4.325 12.312,4.325 Z" id="path-1" class="cls-4" fill-rule="evenodd"/>
    <path d="M21.611,21.191 C22.489,20.313 24.072,20.471 25.146,21.545 C25.146,21.545 32.571,28.969 32.571,28.969 C33.645,30.043 33.803,31.626 32.924,32.505 C32.046,33.384 30.463,33.225 29.389,32.151 C29.389,32.151 21.964,24.727 21.964,24.727 C20.890,23.653 20.732,22.070 21.611,21.191 Z" id="path-2" class="cls-4" fill-rule="evenodd"/>
  </g>
</svg>
