<?xml version="1.0" encoding="utf-8"?>
<!-- Generator: Adobe Illustrator 18.1.1, SVG Export Plug-In . SVG Version: 6.00 Build 0)  -->
<svg version="1.0" id="Layer_1" xmlns="http://www.w3.org/2000/svg" xmlns:xlink="http://www.w3.org/1999/xlink" x="0px" y="0px" height="24px"
	 viewBox="0 0 35.6 35.6" enable-background="new 0 0 35.6 35.6" xml:space="preserve">
<g>
	<g>
		<path class="cls-4" d="M20.1,13.4l-3.2,11.5c-0.2,0.8-0.3,1.2-0.3,1.4c0,0.2,0.1,0.3,0.2,0.4c0.1,0.1,0.2,0.2,0.4,0.2c0.2,0,0.4-0.1,0.6-0.3
			c0.6-0.5,1.3-1.2,1.9-2.1l0.6,0.4c-0.7,1.1-1.6,2.1-2.6,2.9c-0.7,0.6-1.5,0.9-2.1,0.9c-0.4,0-0.8-0.1-1.1-0.4s-0.4-0.6-0.4-1
			c0-0.4,0.1-1.1,0.4-2l2.1-7.4c0.4-1.2,0.5-2,0.5-2.3c0-0.2-0.1-0.4-0.3-0.6c-0.2-0.2-0.5-0.2-0.8-0.2c-0.2,0-0.6,0.1-1.6,0.2v-0.6
			L20.1,13.4z M20,6.9c0.5,0,0.8,0.2,1.2,0.5s0.5,0.7,0.5,1.2c0,0.4-0.2,0.8-0.5,1.2c-0.3,0.3-0.7,0.5-1.2,0.5
			c-0.4,0-0.8-0.2-1.2-0.5c-0.3-0.3-0.5-0.7-0.5-1.2c0-0.5,0.2-0.8,0.5-1.2C19.2,7.1,19.6,6.9,20,6.9z"/>
	</g>
	<circle class="cls-3" stroke-width="2" stroke-miterlimit="10" cx="17.8" cy="17.8" r="16.8"/>
</g>
</svg>
