<?xml version="1.0" encoding="utf-8"?>
<!-- Generator: Adobe Illustrator 21.1.0, SVG Export Plug-In . SVG Version: 6.00 Build 0)  -->
<svg version="1.1" id="Layer_1" xmlns="http://www.w3.org/2000/svg" xmlns:xlink="http://www.w3.org/1999/xlink" x="0px" y="0px"
	 viewBox="0 0 160 160" style="enable-background:new 0 0 160 160;" xml:space="preserve">
<style type="text/css">
	.st0{fill:#FFFFFF;}
</style>
<g>
	<g>
		<g>
			<g>
				<path class="st0" d="M17,126.2c-9-13-15.1-29-15.1-46.4c0-42.9,35-77.7,77.9-77.7c42.9,0,77.7,34.9,77.7,77.7
					c0,17.4-5.4,33.4-15.4,46.4v3.2c11-13.6,17.5-30.8,17.5-49.6c0-44-35.7-79.7-79.7-79.7c-44,0-79.9,35.8-79.9,79.7
					c0,18.7,6.1,36,17.1,49.6V126.2z"/>
			</g>
			<g>
				<path class="st0" d="M142.3,33.9c9,13,15.1,29,15.1,46.4c0,42.9-35,77.7-77.9,77.7c-42.9,0-77.7-34.9-77.7-77.7
					c0-17.4,5.4-33.4,15.4-46.4v-3.2C6.3,44.3-0.1,61.6-0.1,80.3c0,44,35.7,79.7,79.7,79.7c44,0,79.9-35.8,79.9-79.7
					c0-18.7-6.1-36-17.1-49.6V33.9z"/>
			</g>
		</g>
	</g>
</g>
<g>
	<g>
		<polygon class="st0" points="157.7,71.9 115.7,71.9 118.7,69.9 157.7,69.9 		"/>
	</g>
	<g>
		<polygon class="st0" points="53.7,71.9 1.7,71.9 1.7,69.9 55.7,69.9 		"/>
	</g>
	<g>
		<rect x="6.7" y="109.9" class="st0" width="146" height="2"/>
	</g>
	<g>
		<g>
			<path class="st0" d="M14.7,89.5c0.9,1.3,2,2.5,3.4,3.4c-1.3,0.9-2.5,2-3.4,3.4c-0.9-1.3-2-2.5-3.4-3.4
				C12.7,92,13.8,90.9,14.7,89.5 M14.7,82.9c0,5.5-4.5,10-10,10c5.5,0,10,4.5,10,10c0-5.5,4.5-10,10-10
				C19.2,92.9,14.7,88.4,14.7,82.9L14.7,82.9z"/>
		</g>
	</g>
	<g>
		<g>
			<path class="st0" d="M24.7,82.8c0,0,0.1,0.1,0.1,0.1c0,0-0.1,0.1-0.1,0.1c0,0-0.1-0.1-0.1-0.1C24.6,82.9,24.7,82.8,24.7,82.8
				 M24.7,77.9c0,2.8-2.2,5-5,5c2.8,0,5,2.2,5,5c0-2.8,2.2-5,5-5C27,82.9,24.7,80.7,24.7,77.9L24.7,77.9z"/>
		</g>
	</g>
	<path class="st0" d="M116.9,71.5l-2.5,1.3c8.5,2.6,17.5,5.6,17.7,7.3c0,0-0.1,0.3-1.2,0.7c-3.4,1.3-8,3.5-12.9,5.7
		C105.6,92.3,90.1,99.5,83,98.9c-5.8-0.5-8.1-1.3-12.8-2.9c-3.5-1.2-8.2-2.8-16.5-5c-15.2-4-19.4-6.9-20-7.8
		c0.2-0.1,0.6-0.3,1.6-0.5c3.6-0.5,7.5-3.1,12.5-6.3c4.1-2.7,8.6-5.6,14-8.2l1.2-0.5c6.3-2.9,11.1-5.2,15.2-5.9l5.6-1.8
		c-5.7-1.6-12.4,1.6-21.6,5.9L61,66.5c-5.5,2.6-10.2,5.6-14.2,8.3c-4.7,3.1-8.5,5.6-11.7,6c-0.8,0.1-3.3,0.5-3.4,2.3
		c-0.2,2.8,7.1,6.1,21.5,9.9c8.3,2.2,13,3.8,16.4,4.9c4.6,1.6,7.2,2.4,13.2,3c0.3,0,0.7,0,1.1,0c8,0,22.9-6.9,35-12.5
		c4.9-2.3,9.5-4.4,12.8-5.7c1.7-0.7,2.5-1.5,2.5-2.7C134.1,77.4,128.5,75.1,116.9,71.5z"/>
	<g>
		<g>
			<path class="st0" d="M76.8,92.8c-2.6,0-4.9-0.4-6.5-1.1c-1.3-0.6-2.7-1.5-2.5-2.9c0.3-1.4,2.2-2.1,6.9-2.6
				c6.4-0.6,7.2-1.5,7.3-1.7c0,0-0.3-0.3-1-0.5c-1.1-0.4-7.3-2-20.7,5.4c-2.5,1.4-3.6,0.5-4-0.1c-0.1-0.2-0.2-0.5-0.3-0.7
				c-0.7,0.1-1.5,0-2.2-0.7c-1.6-1.6-0.9-3.7-0.1-5.1c0-0.1-0.1-0.3-0.1-0.5c0-1.1,1-2.4,1.9-3.4c-0.1-0.1-0.1-0.2-0.1-0.2
				c-1.2-2.9,8.9-9.9,10.9-11.2c11.4-7.7,16.2-9.6,27.8-8.3c17,1.9,27.4-10.9,27.5-11l1.6,1.2c-0.4,0.6-11.2,13.8-29.3,11.7
				c-11.1-1.3-15.4,0.4-26.5,7.9c-6.3,4.3-9.5,7.6-10,8.8l0.7,1.4c-1.3,1.1-2.4,2.5-2.4,3c0-0.1,0-0.2-0.1-0.2l0.2,1.4
				c0,0-1.5,1.9-0.5,2.9c0.3,0.3,0.5,0.3,1.9-0.7l0,0c0,0,0,0,0,0l1.2,1.6C58.2,87.5,58,88,58,88.2c0.2,0,0.6-0.1,1.3-0.5
				c11.2-6.3,19-6.9,22.6-5.5c1.4,0.6,1.8,1.3,2,1.8c0.2,0.6,0.1,1.1-0.3,1.6c-0.9,1.3-3.4,2-8.7,2.5c-3.2,0.3-4.4,0.7-4.9,1
				c0.2,0.2,0.5,0.4,1.2,0.7c3.6,1.8,12.6,0.9,18.9-1.8c1.9-0.9,6.1-3.9,10.1-6.8c3.6-2.7,7-5.2,9.1-6.3
				c4.2-2.3,23.3-14.7,23.5-14.8l1.1,1.7c-0.8,0.5-19.4,12.6-23.6,14.9c-1.9,1-5.5,3.6-8.9,6.2C97.1,86,93,89,90.9,89.9
				C86.6,91.8,81.2,92.8,76.8,92.8z"/>
		</g>
	</g>
	<g>
		<path class="st0" d="M134.2,92.9l1.3,2.3l-3.2,1.7v-4H134.2 M135.4,90.9h-5.1v9.3l7.9-4.2L135.4,90.9L135.4,90.9z"/>
	</g>
	<g>
		<path class="st0" d="M146.2,84.8l2.4,1.2l-0.6,2.1l-2.6-1.1L146.2,84.8 M145.2,82l-2.3,6l6.5,2.8l1.6-5.8L145.2,82L145.2,82z"/>
	</g>
	<g>
		<path class="st0" d="M146.8,99.3l1,1.1l-0.6,0.3l-1.1-0.7L146.8,99.3 M146.9,96.5l-4.1,3.7l4.1,2.8l4.1-1.9L146.9,96.5L146.9,96.5
			z"/>
	</g>
</g>
</svg>
