<?xml version="1.0" encoding="utf-8"?>
<!-- Generator: Adobe Illustrator 21.1.0, SVG Export Plug-In . SVG Version: 6.00 Build 0)  -->
<svg version="1.1" xmlns="http://www.w3.org/2000/svg" xmlns:xlink="http://www.w3.org/1999/xlink" x="0px" y="0px"
	 viewBox="0 0 160 160" style="enable-background:new 0 0 160 160;" xml:space="preserve">
<style type="text/css">
	.st0{fill:#FFFFFF;}
</style>
<g id="circle">
	<path class="st0" d="M80,2c43,0,78,35,78,78s-35,78-78,78S2,123,2,80S37,2,80,2 M80,0C35.8,0,0,35.8,0,80s35.8,80,80,80
		s80-35.8,80-80S124.2,0,80,0L80,0z"/>
</g>
<g id="_x32_">
	<path class="st0" d="M60.9,83.1l4.1,19.9l20.5-32.4l7.4,20.8l18.9-24.7l2.5,11.3l9.3-32.8L95.9,61.7l10.2-0.3L95.4,75.1l-7.4-21.8
		L68.8,84.8l-4.3-22.1l-23.3,43.1l1.7,1.1L60.9,83.1z M63.6,68.5l4.2,21.7l19.6-32.3l7.2,21.3l15.6-19.8l-6.8,0.2l16.9-10l-5.7,20.4
		l-1.7-7.8L93.6,87.2L86.1,66L66,97.8l-4-19.4l-13,17L63.6,68.5z"/>
	<path class="st0" d="M119.1,112.8H38.4V57.5c0-0.6-0.4-1-1-1s-1,0.4-1,1v57.3h82.7c0.6,0,1-0.4,1-1S119.6,112.8,119.1,112.8z"/>
</g>
</svg>
