<?xml version="1.0" encoding="utf-8"?>
<!-- Generator: Adobe Illustrator 21.1.0, SVG Export Plug-In . SVG Version: 6.00 Build 0)  -->
<svg version="1.1" xmlns="http://www.w3.org/2000/svg" xmlns:xlink="http://www.w3.org/1999/xlink" x="0px" y="0px"
	 viewBox="0 0 160 160" style="enable-background:new 0 0 160 160;" xml:space="preserve">
<style type="text/css">
	.st0{fill:#FFFFFF;}
	.st1{fill:none;}
</style>
<g id="circle">
	<path class="st0" d="M80,2c43,0,78,35,78,78s-35,78-78,78S2,123,2,80S37,2,80,2 M80,0C35.8,0,0,35.8,0,80s35.8,80,80,80
		s80-35.8,80-80S124.2,0,80,0L80,0z"/>
</g>
<g id="_x35_">
	<g>
		<polygon class="st1" points="62,97.6 72.1,90.6 51.8,88.1 41.7,95.1 		"/>
		<polygon class="st1" points="89.1,43.8 88.7,65.3 99.3,58 99.7,36.4 		"/>
		<polygon class="st1" points="52.6,86.1 73.9,88.7 74.3,66.7 53,64.1 		"/>
		<polygon class="st1" points="95.4,93.4 75.1,90.9 65,98 85.3,100.5 		"/>
		<polygon class="st1" points="99.2,90.8 109.8,83.5 110.2,61.9 99.6,69.2 		"/>
		<path class="st1" d="M75.4,64.8C75.4,64.8,75.4,64.8,75.4,64.8l11.3,1.4l0.4-22.1l-21.3-2.6L65.6,54c0,0.2,0,0.3,0,0.5l-0.2,9.2
			L75.4,64.8C75.4,64.8,75.4,64.8,75.4,64.8z"/>
		<polygon class="st1" points="75.9,89 97.2,91.6 97.6,69.6 76.3,67 		"/>
		<polygon class="st1" points="107.8,105.2 86.5,102.6 86.1,124.7 107.5,127.3 		"/>
		<polygon class="st1" points="98.3,67.7 108.5,60.6 100.4,59.6 90.3,66.7 		"/>
		<polygon class="st1" points="98.4,93.8 88.3,100.8 108.6,103.3 118.8,96.3 		"/>
		<polygon class="st1" points="61.2,99.5 39.9,96.9 39.5,118.9 60.8,121.5 		"/>
		<polygon class="st1" points="109.9,104.9 109.5,126.5 120.1,119.1 120.4,97.5 		"/>
		<polygon class="st1" points="84.5,102.4 63.2,99.8 62.8,121.8 84.1,124.4 		"/>
		<polygon class="st1" points="101,92.1 109.7,93.1 109.8,85.9 		"/>
		<polygon class="st1" points="87.9,42.2 98,35.1 77.7,32.6 67.5,39.7 		"/>
		<polygon class="st1" points="63.4,63.4 63.5,56.2 54.7,62.3 		"/>
		<path class="st0" d="M122.5,95.5c0-0.1,0-0.1,0-0.2c0,0,0-0.1,0-0.1c0-0.1,0-0.1-0.1-0.2c0,0,0-0.1,0-0.1c0,0,0,0,0,0
			c0,0,0,0-0.1-0.1c0,0-0.1-0.1-0.1-0.1c0,0-0.1-0.1-0.1-0.1c0,0,0,0-0.1,0c0,0-0.1,0-0.2-0.1c-0.1,0-0.1,0-0.1,0c0,0,0,0,0,0
			l-9.9-1.2l0.2-9.4c0,0,0-0.1,0-0.1c0-0.1,0-0.1,0-0.2l0.4-23.8c0,0,0-0.1,0-0.1c0-0.1,0-0.1,0-0.2c0,0,0-0.1,0-0.1
			c0-0.1,0-0.1-0.1-0.2c0,0,0-0.1,0-0.1c0,0,0,0,0,0c0,0,0,0-0.1-0.1c0,0-0.1-0.1-0.1-0.1c0,0-0.1-0.1-0.1-0.1c0,0,0,0-0.1,0
			c0,0-0.1,0-0.2-0.1c0,0-0.1,0-0.1,0c0,0,0,0,0,0l-10-1.2l0.4-23.2c0,0,0-0.1,0-0.1c0-0.1,0-0.1,0-0.2c0,0,0-0.1,0-0.1
			c0-0.1,0-0.1-0.1-0.2c0,0,0-0.1,0-0.1c0,0,0,0,0,0c0,0,0,0-0.1-0.1c0,0-0.1-0.1-0.1-0.1c0,0-0.1-0.1-0.1-0.1c0,0,0,0-0.1,0
			c0,0-0.1,0-0.2-0.1c0,0-0.1,0-0.1,0c0,0,0,0,0,0l-23.3-2.9c-0.2,0-0.5,0-0.7,0.2l-12.6,8.8c0,0,0,0,0,0c0,0,0,0,0,0
			c-0.1,0-0.1,0.1-0.1,0.2c0,0-0.1,0.1-0.1,0.1c0,0,0,0,0,0.1c0,0.1,0,0.1-0.1,0.2c0,0,0,0.1,0,0.1c0,0,0,0,0,0c0,0,0,0,0,0.1
			c0,0,0,0,0,0.1l-0.2,13.4l-12.2,8.4c0,0,0,0,0,0c0,0,0,0-0.1,0.1c0,0-0.1,0.1-0.1,0.1c0,0-0.1,0.1-0.1,0.1c0,0,0,0,0,0.1
			c0,0,0,0.1-0.1,0.2c0,0,0,0.1,0,0.1c0,0,0,0,0,0c0,0,0,0,0,0.1c0,0,0,0,0,0.1l-0.4,23.5l-12.2,8.5c0,0,0,0,0,0c0,0,0,0,0,0
			c-0.1,0-0.1,0.1-0.1,0.2c0,0-0.1,0.1-0.1,0.1c0,0,0,0,0,0.1c0,0.1,0,0.1-0.1,0.2c0,0,0,0.1,0,0.1c0,0,0,0,0,0c0,0,0,0,0,0.1
			c0,0,0,0,0,0.1l-0.4,24c0,0.5,0.4,0.9,0.9,1l23.2,2.8c0,0,0.1,0,0.1,0l23.3,2.9c0,0,0.1,0,0.1,0c0,0,0,0,0,0c0,0,0,0,0,0
			c0,0,0,0,0,0c0,0,0,0,0,0c0,0,0,0,0,0l23.2,2.8c0,0,0.1,0,0.1,0c0,0,0,0,0,0c0,0,0,0,0,0c0,0,0,0,0,0c0,0,0,0,0,0
			c0.1,0,0.2,0,0.3-0.1c0,0,0,0,0,0c0,0,0.1,0,0.1,0c0,0,0.1,0,0.1-0.1l12.6-8.8c0.3-0.2,0.4-0.5,0.4-0.8l0.4-24
			C122.5,95.6,122.5,95.5,122.5,95.5z M65.6,54.5c0-0.2,0-0.3,0-0.5l0.2-12.5l21.3,2.6l-0.4,22.1l-11.3-1.4c0,0,0,0,0,0c0,0,0,0,0,0
			l-10-1.2L65.6,54.5z M108.5,60.6l-10.1,7l-8.1-1l10.1-7L108.5,60.6z M97.6,69.6l-0.4,22L75.9,89l0.4-22L97.6,69.6z M109.8,83.5
			l-10.6,7.4l0.4-21.6l10.6-7.4L109.8,83.5z M99.3,58l-10.6,7.4l0.4-21.6l10.6-7.4L99.3,58z M74.3,66.7l-0.4,22l-21.3-2.6l0.4-22
			L74.3,66.7z M51.8,88.1l20.3,2.5l-10.1,7l-20.3-2.5L51.8,88.1z M75.1,90.9l20.3,2.5l-10.1,7L65,98L75.1,90.9z M86.5,102.6
			l21.3,2.6l-0.4,22l-21.3-2.6L86.5,102.6z M108.6,103.3l-20.3-2.5l10.1-7l20.3,2.5L108.6,103.3z M101,92.1l8.8-6.1l-0.1,7.2
			L101,92.1z M77.7,32.6L98,35.1l-10.1,7l-20.3-2.5L77.7,32.6z M63.4,63.4l-8.7-1.1l8.8-6.1L63.4,63.4z M39.9,96.9l21.3,2.6l-0.4,22
			l-21.3-2.6L39.9,96.9z M63.2,99.8l21.3,2.6l-0.4,22l-21.3-2.6L63.2,99.8z M109.5,126.5l0.4-21.6l10.6-7.4l-0.4,21.6L109.5,126.5z"
			/>
	</g>
</g>
</svg>
