<?xml version="1.0" encoding="utf-8"?>
<!-- Generator: Adobe Illustrator 21.1.0, SVG Export Plug-In . SVG Version: 6.00 Build 0)  -->
<svg version="1.1" xmlns="http://www.w3.org/2000/svg" xmlns:xlink="http://www.w3.org/1999/xlink" x="0px" y="0px"
	 viewBox="0 0 160 160" style="enable-background:new 0 0 160 160;" xml:space="preserve">
<style type="text/css">
	.st0{fill:#FFFFFF;}
</style>
<g id="circle">
	<path class="st0" d="M80,2c43,0,78,35,78,78s-35,78-78,78S2,123,2,80S37,2,80,2 M80,0C35.8,0,0,35.8,0,80s35.8,80,80,80
		s80-35.8,80-80S124.2,0,80,0L80,0z"/>
</g>
<g id="_x33_">
	<g>
		<path class="st0" d="M78.8,84.2L79,80c0.1-2.8,1.8-8.8,7.4-14c7.3-6.8,18.7-10,33.8-9.5l0.4-8.9l26.2,19l-27.6,16.9l0.4-9
			c-0.7-0.1-1.7-0.3-2.8-0.6c-8.6-1.8-28.9-6-35.8,6.6L78.8,84.2z M100,69.8c6.6,0,13,1.3,17.1,2.2c1.6,0.3,2.9,0.6,3.5,0.6l1,0
			l-0.3,7.2l21.9-13.4l-20.7-15.1l-0.3,7.2l-1,0c-15.1-0.6-26.3,2.4-33.4,8.9c-3.1,2.9-4.8,5.9-5.7,8.2
			C86.6,71.1,93.4,69.8,100,69.8z"/>
	</g>
	<g>
		<path class="st0" d="M39.4,112.5l-26.2-19l27.6-16.9l-0.4,9c0.7,0.1,1.7,0.3,2.9,0.6c8.6,1.8,28.8,6,35.8-6.6l2-3.7L81,80
			c-0.1,2.8-1.8,8.8-7.4,14c-7.3,6.8-18.7,10-33.8,9.5L39.4,112.5z M16.8,93.6l20.8,15.1l0.3-7.2l1,0c15.1,0.6,26.3-2.4,33.4-8.9
			c3.1-2.9,4.8-5.8,5.7-8.2c-9.2,9-26.9,5.4-35,3.7c-1.6-0.3-3-0.6-3.5-0.6l-1,0l0.3-7.2L16.8,93.6z"/>
	</g>
</g>
</svg>
