<?xml version="1.0" encoding="utf-8"?>
<!-- Generator: Adobe Illustrator 21.1.0, SVG Export Plug-In . SVG Version: 6.00 Build 0)  -->
<svg version="1.1" xmlns="http://www.w3.org/2000/svg" xmlns:xlink="http://www.w3.org/1999/xlink" x="0px" y="0px"
	 viewBox="0 0 160 160" style="enable-background:new 0 0 160 160;" xml:space="preserve">
<style type="text/css">
	.st0{fill:#FFFFFF;}
	.st1{fill:none;stroke:#000000;stroke-width:0;stroke-linecap:round;stroke-linejoin:round;}
	.st2{fill:none;}
</style>
<g id="circle">
	<path class="st0" d="M80,2c43,0,78,35,78,78s-35,78-78,78S2,123,2,80S37,2,80,2 M80,0C35.8,0,0,35.8,0,80s35.8,80,80,80
		s80-35.8,80-80S124.2,0,80,0L80,0z"/>
</g>
<g id="_x34_">
	<line class="st1" x1="85.3" y1="79.5" x2="85.3" y2="79.5"/>
	<polyline class="st1" points="85.3,79.5 85.3,79.5 85.3,79.5 	"/>
	<g>
		<path class="st2" d="M80.7,102.5c-0.1-0.1-0.3-0.3-0.3-0.4c-0.5-0.2-0.6-0.3-0.7-0.3c-0.2,0-0.7,0.1-1.1,0.2
			c-0.2,0.3-0.5,0.6-0.9,0.7c-1.4,0.6-3,0.9-4.4,1.1c-1.2,0.2-2.4,0.3-3.4,0.7c-0.7,0.3-1.4,0.5-2,0.8c-0.8,0.4-1.7,0.7-2.6,1
			c-1.4,0.5-2.9,0.9-4.3,1.2c-1.4,0.3-4.1,0.6-4.2,0.6l-0.2-1.6c3.3-0.6,4.1-0.7,4.4-0.7c0.3,0,2.9-0.7,4.3-1.2
			c1.3-0.4,3.7-1.4,3.9-1.5c0.3-0.2,1.4-0.5,1.7-0.6c0.7-0.2,1.5-0.3,2.4-0.4c1.4-0.2,2.9-0.4,3.9-0.9c0,0,0.1-0.1,0.2-0.1
			c0-0.1,0.1-0.4,0.1-0.5c0-0.2,0-0.4,0-0.5c-0.1-0.2-0.1-0.3-0.2-0.4c-0.2-0.2-0.6-0.4-0.8-0.4c-0.1,0-0.7-0.1-1.4-0.1
			c-0.7,0-1.2,0-1.8,0c-0.7,0-1.3,0.2-2,0.3c-0.2,0-0.4,0.1-0.6,0.1c-0.2,0-0.4,0.1-0.5,0.1c-1.5,0.3-3.1,0.6-4.7,0.8
			c-0.8,0.1-1.7,0.3-2.5,0.4c-0.6,0.1-1.2,0.2-1.9,0.3c-0.9,0.1-1.8,0.3-2.6,0.5c-1.6,0.3-3.2,0.6-4.9,0.8c-0.6,0.1-1.1,0-1.6,0
			c-0.7,0-1.3,0-1.8,0.1c-0.4,0.1-0.8,0.3-1.3,0.5c-0.5,0.2-0.9,0.4-1.5,0.6l-0.2,0c-1.3,0.3-2.8,0.7-4.3,0.5
			c-0.3-0.1-0.7-0.2-1-0.5c-0.3-0.3-0.5-0.9-0.5-1.2l-0.1-0.3l0.2-0.3c0,0,0.5-0.8,0.8-1.2c0.4-0.5,0.9-1,1.3-1.4
			c0.3-0.3,0.7-0.6,1-0.9c0.3-0.3,0.7-0.6,1-0.9c0.4-0.3,0.7-0.7,1-1.1l0.3-0.3c0.6-0.7,1.2-1.4,1.6-2.1c0.4-0.7,0.9-2.1,0.9-2.3
			c0-0.1,0.1-0.8,0-1.1c-0.1-0.5-0.2-0.9-0.4-1.4c-0.1-0.3-0.3-0.7-0.4-0.8c-0.1-0.1-0.3-0.2-0.4-0.3c-0.1,0-0.4,0-0.5,0
			c-0.2,0.1-0.6,0.4-0.8,0.6c-0.2,0.2-0.3,0.5-0.4,0.8c-0.1,0.3-0.2,0.6-0.4,0.9c-0.4,0.7-0.9,1.4-1.4,2c-0.3,0.3-0.6,0.6-0.9,0.9
			c-0.3,0.3-0.6,0.6-0.8,0.9c-0.1,0.1-0.1,0.3-0.2,0.4c-0.1,0.3-0.2,0.6-0.4,0.9c-0.5,0.7-1.5,1.6-2.1,2c-0.1,0.1-0.2,0.2-0.2,0.2
			c-0.1,0.1-0.3,0.2-1.3,0.8c-0.5,0.2-1,0.5-1.3,0.7l-0.3,0.2c-0.4,0.2-0.8,0.5-1.1,0.7c-0.4,0.3-0.6,0.6-0.8,0.9
			c-0.5,0.8-0.9,1.8-1.3,2.8c-0.3,0.7-0.5,1.4-0.9,2c-0.4,0.7-0.8,1.4-1.2,2.1c-0.4,0.7-0.8,1.5-1.2,2.2c-0.2,0.4-0.3,0.8-0.5,1.2
			c-0.2,0.5-0.4,1-0.7,1.5l-0.1,0.3c-0.4,0.8-0.8,1.6-1.5,2.2c-0.8,0.9-1.8,1.6-2.6,2.1l0,0l-0.6,0.4c-3.1,1.8-4.1,6.1-2,9.8
			c2,3.6,6.2,5.2,9.3,3.5l0.1,0c0.4-0.2,0.8-0.3,1.2-0.4c0.4-0.1,0.8-0.2,1.2-0.3c0.5-0.1,0.9-0.2,1.3-0.3c0.2-0.1,0.5-0.3,0.7-0.5
			c0.4-0.3,0.8-0.6,1.3-0.8c0.6-0.2,1.1-0.1,1.6-0.1c0.3,0,0.6,0,0.8,0c1.1-0.1,3.1-0.5,3.3-0.5c0,0,0.1,0,0.7-0.2
			c0.8-0.2,2.1-0.4,2.9-0.7c1.2-0.4,2.5-0.9,3.7-1.4c0.7-0.3,1.3-0.6,2-0.8c0.5-0.2,1-0.4,1.5-0.6c0.9-0.3,1.7-0.6,2.6-1
			c0.6-0.3,1.2-0.5,1.8-0.8c0.5-0.2,1-0.5,1.4-0.7l0.5-0.2c1-0.5,2.1-0.9,3.1-1.4c0.3-0.1,0.7-0.2,1-0.3c0.3-0.1,0.6-0.2,0.7-0.2
			c0.2-0.1,2.5-1.4,2.7-1.5l0.1-0.1l3.1-1.2l2.4-1.1c0.2-0.2,0.4-0.5,0.5-0.6c0-0.1,0.1-0.3,0.2-0.5l-0.2-0.6l-0.3-0.4l-0.7-0.2
			l-2.7,0.8c-0.6,0.5-2.1,1.2-2.7,1.4c-0.4,0.1-0.7,0.1-1.1,0c-0.2,0-0.4,0-0.6,0c-1.9,0.4-3.5,0.9-4.8,1.7c-0.8,0.5-2.3,2-2.7,2.6
			l-1.2-1l0.7-0.9c0.5-0.6,1.2-1.2,1.8-1.7l0.5-0.4c0.7-0.6,1.8-1,2.7-1.2c0.2-0.1,0.4-0.1,0.6-0.2c0.6-0.2,1.2-0.3,1.8-0.4
			c0.2,0,0.4-0.1,0.6-0.1c0.3-0.1,0.6-0.1,0.9,0c0.2,0,0.4,0,0.5,0c0.5-0.1,1.4-0.6,2-0.9l0-0.1l1.2-0.6l1.7-1l-0.1,0.2l1.1-0.5
			c0,0,4.2-1.4,6.1-2.5c0.2-0.1,0.5-0.2,0.6-0.4c0.1-0.1,0.2-0.3,0.3-0.5c0.1-0.3,0.2-0.6,0.2-0.9c0-0.3,0-0.5-0.1-0.6
			c-0.5,0.3-1.2,0.6-1.7,0.8c-0.8,0.3-1.7,0.6-2.5,0.9c-0.8,0.3-1.6,0.5-2.4,0.9c-0.5,0.2-1,0.5-1.5,0.7c-0.3,0.2-0.6,0.3-0.9,0.5
			c-0.3,0.1-0.5,0.3-0.8,0.4c-0.6,0.3-1.2,0.7-1.9,0.9c-0.7,0.2-1.3,0.3-2,0.3c-0.5,0.1-1,0.1-1.5,0.2c-1,0.3-2.1,0.8-3,1.2
			c-1.4,0.7-4.3,2.3-4.3,2.3l-0.8-1.4c0.1-0.1,2.4-1.5,3.6-2.2l0.4-0.2c1.2-0.6,2.4-1.2,3.7-1.5c0.6-0.1,1.3-0.2,2-0.3
			c0.5,0,1.2-0.1,1.4-0.2c0.7-0.2,1-0.5,1.4-0.7c0.2-0.1,0.5-0.3,0.8-0.4c0.3-0.2,0.6-0.3,1-0.5c0.6-0.3,1.1-0.6,1.7-0.9
			c0.8-0.3,1.6-0.6,2.4-0.9c0.6-0.2,1.3-0.4,1.9-0.7c0.4-0.1,0.8-0.4,1.3-0.6l1.2-0.7c0.2-0.1,0.4-0.3,0.5-0.3
			c0.2-0.1,0.3-0.3,0.4-0.4c0-0.1,0.1-0.4,0.1-0.6c0-0.1-0.1-0.4-0.1-0.6C80.9,102.7,80.8,102.6,80.7,102.5z"/>
		<path class="st0" d="M82.7,103.3c0,0-0.1-1.3-0.6-1.7c-0.1-0.1-0.1-0.1-0.2-0.2c-0.4-0.4-0.5-0.6-0.7-0.7
			c-0.4-0.2-0.9-0.4-1.3-0.5c-0.3,0-0.6,0-1,0.1c0-0.2,0-0.4-0.1-0.6c-0.1-0.5-0.3-0.8-0.6-1.1c-0.4-0.5-1.1-0.8-1.5-0.9
			c-0.4-0.1-1.3-0.2-1.8-0.2c-0.7,0-1.4,0-2,0c-0.7,0.1-1.4,0.2-2.2,0.3c-0.2,0-0.4,0.1-0.7,0.1c-0.2,0-0.3,0.1-0.5,0.1
			c-1.5,0.3-3,0.6-4.6,0.8c-0.8,0.1-1.6,0.3-2.5,0.4c-0.6,0.1-1.2,0.2-1.9,0.3c-0.9,0.1-1.8,0.3-2.7,0.5c-1.6,0.3-3.2,0.6-4.8,0.8
			c-0.5,0-0.9,0-1.4,0c-0.7,0-1.5-0.1-2.2,0.1c-0.6,0.1-1.1,0.4-1.6,0.6c-0.4,0.2-0.8,0.4-1.2,0.5l-0.1,0c-1.2,0.3-2.5,0.6-3.6,0.4
			c-0.1,0-0.1,0-0.1,0c0,0,0-0.1,0-0.1c0.2-0.3,0.4-0.6,0.5-0.8c0.4-0.4,0.8-0.9,1.2-1.3c0.3-0.3,0.6-0.6,0.9-0.8
			c0.4-0.3,0.7-0.6,1.1-1c0.4-0.4,0.8-0.8,1.1-1.2l0.3-0.3c0.6-0.7,1.3-1.5,1.8-2.4c0.5-0.9,1-2.5,1.1-2.7c0.1-0.3,0.1-1.2,0.1-1.7
			c-0.1-0.6-0.3-1.2-0.5-1.8c-0.1-0.3-0.5-1.1-0.7-1.3c-0.2-0.2-0.8-0.6-1-0.7c-0.5-0.2-1.4,0-1.4,0c-0.4,0.1-1.3,0.7-1.7,1.1
			c-0.4,0.4-0.5,0.9-0.7,1.3c-0.1,0.2-0.2,0.5-0.3,0.6c-0.4,0.7-0.8,1.3-1.2,1.8c-0.2,0.2-0.4,0.5-0.7,0.7c-0.4,0.3-0.8,0.7-1.1,1.2
			c-0.2,0.3-0.3,0.6-0.4,0.8c-0.1,0.2-0.1,0.3-0.2,0.4c-0.4,0.6-1.3,1.3-1.8,1.7c-0.1,0.1-0.2,0.2-0.3,0.3c-0.1,0.1-0.6,0.3-0.9,0.5
			c-0.5,0.3-1,0.5-1.4,0.8l-0.3,0.2c-0.4,0.3-0.9,0.5-1.3,0.9c-0.5,0.4-0.8,0.8-1.1,1.2c-0.6,1-1.1,2.1-1.5,3.1
			c-0.3,0.7-0.5,1.3-0.8,1.9c-0.3,0.7-0.7,1.4-1.1,2.1c-0.4,0.7-0.9,1.5-1.2,2.3c-0.2,0.4-0.4,0.9-0.5,1.3c-0.2,0.5-0.4,1-0.6,1.4
			l-0.1,0.3c-0.4,0.7-0.7,1.4-1.2,1.9c-0.9,0.9-2,1.7-2.9,2.2l-0.6,0.4l0,0c-3.4,2.4-4.4,7.4-2,11.6c1.7,3.1,4.9,5,8,5
			c1.2,0,2.4-0.3,3.4-0.8c0.4-0.1,0.7-0.3,1.1-0.4c0.3-0.1,0.7-0.2,1-0.2c0.5-0.1,1.1-0.2,1.6-0.4c0.4-0.2,0.8-0.4,1.1-0.7
			c0.3-0.2,0.6-0.4,0.8-0.5c0.3-0.1,0.7-0.1,1.1,0c0.3,0,0.7,0.1,1.1,0c1.1-0.1,3.4-0.5,3.6-0.6c0.1,0,0.3-0.1,0.5-0.1
			c0.8-0.2,2.2-0.5,3-0.7c1.3-0.4,2.6-0.9,3.8-1.5c0.7-0.3,1.3-0.5,2-0.8c0.5-0.2,1-0.4,1.5-0.6c0.9-0.3,1.8-0.7,2.6-1
			c0.6-0.3,1.2-0.6,1.8-0.9c0.5-0.2,0.9-0.5,1.4-0.7l0.5-0.2c1-0.5,2-0.9,3.1-1.3c0.3-0.1,0.6-0.2,0.9-0.3c0.6-0.2,0.8-0.2,1.1-0.4
			c0.2-0.1,1.7-1,2.6-1.5l3.1-1.2l2.8-1.3l0.1-0.1c0.7-0.8,0.8-0.9,0.8-1c0.1-0.1,0.1-0.2,0.4-1.1l0.1-0.2l-0.4-1.3l-0.8-1.1l-0.2,0
			c1.4-0.5,4-1.5,5.5-2.3c0.4-0.2,0.7-0.4,1-0.7c0.3-0.3,0.4-0.7,0.6-1c0.2-0.4,0.4-0.9,0.4-1.5c0-0.4-0.1-0.9-0.3-1.3l-0.2-0.3
			l0.1-0.1c0.2-0.2,0.3-0.4,0.5-0.6l0,0C82.7,104.2,82.7,103.4,82.7,103.3z M81,104c0,0.1-0.2,0.2-0.4,0.4c-0.1,0.1-0.3,0.2-0.5,0.3
			l-1.2,0.7c-0.5,0.2-1,0.4-1.3,0.6c-0.6,0.2-1.3,0.5-1.9,0.7c-0.8,0.3-1.6,0.5-2.4,0.9c-0.6,0.3-1.2,0.6-1.7,0.9
			c-0.3,0.2-0.6,0.3-1,0.5c-0.3,0.1-0.5,0.3-0.8,0.4c-0.4,0.2-0.7,0.4-1.4,0.7c-0.2,0.1-0.9,0.1-1.4,0.2c-0.7,0.1-1.4,0.1-2,0.3
			c-1.3,0.3-2.5,0.9-3.7,1.5l-0.4,0.2c-1.3,0.6-3.5,2.1-3.6,2.2l0.8,1.4c0,0,2.8-1.6,4.3-2.3c1-0.5,2-0.9,3-1.2
			c0.5-0.1,1-0.2,1.5-0.2c0.7-0.1,1.3-0.1,2-0.3c0.7-0.2,1.3-0.6,1.9-0.9c0.3-0.1,0.5-0.3,0.8-0.4c0.3-0.1,0.6-0.3,0.9-0.5
			c0.5-0.3,1-0.5,1.5-0.7c0.8-0.3,1.6-0.6,2.4-0.9c0.8-0.3,1.7-0.5,2.5-0.9c0.5-0.2,1.1-0.5,1.7-0.8c0.1,0.2,0.1,0.4,0.1,0.6
			c0,0.3-0.1,0.6-0.2,0.9c-0.1,0.2-0.2,0.4-0.3,0.5c-0.1,0.1-0.3,0.3-0.6,0.4c-1.9,1-6.1,2.5-6.1,2.5l-1.1,0.5l-1.5,0.8l-1.1,0.7
			c-0.6,0.3-1.5,0.8-2,0.9c-0.1,0-0.3,0-0.5,0c-0.3,0-0.5,0-0.9,0c-0.2,0-0.4,0.1-0.6,0.1c-0.6,0.1-1.2,0.2-1.8,0.4
			c-0.2,0.1-0.4,0.1-0.6,0.2c-0.9,0.3-2,0.6-2.7,1.2l-0.5,0.4c-0.6,0.5-1.2,1-1.8,1.7l-0.7,0.9l1.2,1c0.5-0.5,1.9-2,2.7-2.6
			c1.3-0.8,2.8-1.3,4.8-1.7c0.2,0,0.4,0,0.6,0c0.3,0,0.7,0,1.1,0c0.6-0.1,2.1-0.8,2.7-1.4l2.7-0.8l0.7,0.2l0.3,0.4l0.2,0.6
			c-0.1,0.2-0.1,0.4-0.2,0.5c-0.1,0.1-0.4,0.5-0.5,0.6l-2.4,1.1l-3.1,1.2l-0.1,0.1c-0.3,0.1-2.5,1.4-2.7,1.5c-0.1,0-0.4,0.1-0.7,0.2
			c-0.3,0.1-0.7,0.2-1,0.3c-1.1,0.4-2.1,0.9-3.1,1.4l-0.5,0.2c-0.5,0.2-1,0.5-1.4,0.7c-0.6,0.3-1.2,0.6-1.8,0.8
			c-0.8,0.4-1.7,0.7-2.6,1c-0.5,0.2-1,0.4-1.5,0.6c-0.7,0.3-1.3,0.5-2,0.8c-1.2,0.5-2.4,1-3.7,1.4c-0.8,0.2-2.1,0.5-2.9,0.7
			c-0.6,0.1-0.6,0.1-0.7,0.2c-0.2,0.1-2.2,0.5-3.3,0.5c-0.2,0-0.5,0-0.8,0c-0.5,0-1.1-0.1-1.6,0.1c-0.6,0.2-1,0.5-1.3,0.8
			c-0.3,0.2-0.5,0.4-0.7,0.5c-0.4,0.2-0.8,0.2-1.3,0.3c-0.4,0.1-0.8,0.1-1.2,0.3c-0.4,0.1-0.8,0.3-1.2,0.4l-0.1,0
			c-3.1,1.7-7.3,0.1-9.3-3.5c-2-3.6-1.1-8,2-9.8l0.6-0.4l0,0c0.8-0.6,1.8-1.3,2.6-2.1c0.6-0.7,1.1-1.5,1.5-2.2l0.1-0.3
			c0.3-0.5,0.5-1,0.7-1.5c0.2-0.4,0.3-0.8,0.5-1.2c0.4-0.8,0.8-1.5,1.2-2.2c0.4-0.7,0.8-1.4,1.2-2.1c0.3-0.7,0.6-1.4,0.9-2
			c0.4-1,0.7-2,1.3-2.8c0.2-0.3,0.4-0.5,0.8-0.9c0.3-0.3,0.7-0.5,1.1-0.7l0.3-0.2c0.4-0.2,0.9-0.5,1.3-0.7c0.9-0.5,1.1-0.6,1.3-0.8
			c0,0,0.1-0.1,0.2-0.2c0.5-0.5,1.6-1.3,2.1-2c0.2-0.3,0.3-0.6,0.4-0.9c0.1-0.2,0.1-0.3,0.2-0.4c0.2-0.3,0.5-0.6,0.8-0.9
			c0.3-0.3,0.6-0.5,0.9-0.9c0.5-0.6,1-1.3,1.4-2c0.2-0.3,0.3-0.6,0.4-0.9c0.1-0.3,0.2-0.6,0.4-0.8c0.2-0.2,0.6-0.5,0.8-0.6
			c0.1,0,0.4,0,0.5,0c0.1,0.1,0.3,0.2,0.4,0.3c0.1,0.1,0.3,0.6,0.4,0.8c0.2,0.4,0.4,0.9,0.4,1.4c0,0.4,0,1,0,1.1
			c0,0.2-0.5,1.6-0.9,2.3c-0.4,0.7-1,1.4-1.6,2.1l-0.3,0.3c-0.3,0.4-0.7,0.7-1,1.1c-0.3,0.3-0.7,0.6-1,0.9c-0.3,0.3-0.7,0.6-1,0.9
			c-0.5,0.5-0.9,0.9-1.3,1.4c-0.3,0.4-0.8,1.1-0.8,1.2l-0.2,0.3l0.1,0.3c0.1,0.3,0.2,0.9,0.5,1.2c0.3,0.3,0.7,0.5,1,0.5
			c1.5,0.2,3-0.1,4.3-0.5l0.2,0c0.5-0.1,1-0.4,1.5-0.6c0.4-0.2,0.9-0.4,1.3-0.5c0.6-0.1,1.2-0.1,1.8-0.1c0.5,0,1.1,0,1.6,0
			c1.7-0.2,3.3-0.5,4.9-0.8c0.9-0.2,1.8-0.3,2.6-0.5c0.6-0.1,1.2-0.2,1.9-0.3c0.8-0.1,1.7-0.3,2.5-0.4c1.6-0.3,3.1-0.5,4.7-0.8
			c0.2,0,0.4-0.1,0.5-0.1c0.2,0,0.4-0.1,0.6-0.1c0.7-0.1,1.4-0.3,2-0.3c0.5,0,1.1,0,1.8,0c0.7,0,1.3,0.1,1.4,0.1
			c0.2,0.1,0.7,0.3,0.8,0.4c0,0,0.1,0.1,0.2,0.4c0,0.1,0,0.3,0,0.5c0,0.1-0.1,0.4-0.1,0.5c-0.1,0.1-0.2,0.1-0.2,0.1
			c-1,0.5-2.5,0.7-3.9,0.9c-0.8,0.1-1.6,0.2-2.4,0.4c-0.3,0.1-1.4,0.3-1.7,0.6c-0.2,0.1-2.6,1.1-3.9,1.5c-1.4,0.5-4,1.1-4.3,1.2
			c-0.3,0-1.1,0.2-4.4,0.7l0.2,1.6c0.1,0,2.8-0.3,4.2-0.6c1.4-0.3,2.9-0.7,4.3-1.2c0.9-0.3,1.8-0.7,2.6-1c0.7-0.3,1.3-0.6,2-0.8
			c1.1-0.4,2.2-0.6,3.4-0.7c1.5-0.2,3-0.4,4.4-1.1c0.3-0.1,0.6-0.5,0.9-0.7c0.4-0.1,0.9-0.2,1.1-0.2c0,0,0.2,0,0.7,0.3
			c0.1,0.1,0.2,0.2,0.3,0.4c0.1,0.1,0.2,0.2,0.3,0.3c0.1,0.2,0.1,0.5,0.1,0.6C81.1,103.6,81.1,103.9,81,104z"/>
	</g>
	<g>
		<path class="st2" d="M143.9,60.7l-0.7,0.2l-0.1,0c-0.2,0.1-0.4,0.1-0.7,0.2c-0.8,0.3-1.7,0.6-2.6,0.7c-1.5,0.2-2.7,0.2-3.8,0.1
			c-0.5-0.1-1-0.3-1.4-0.4c-0.3-0.1-0.6-0.2-0.8-0.3c-0.6-0.1-1.2-0.2-1.8-0.2c-0.5,0-0.9-0.1-1.4-0.2c-1.1-0.2-2.3-0.3-3.4-0.6
			c-0.6-0.1-1.2-0.3-1.7-0.5c-0.5-0.2-1-0.3-1.5-0.5c-0.6-0.1-1.2-0.3-1.8-0.4c-0.2,0-0.3-0.1-0.5-0.1c-0.4-0.1-0.8-0.2-1.1-0.2
			c-0.7,0-1.5,0.2-2.1,0.4c-0.4,0.1-0.9,0.3-1.3,0.6c-0.6,0.3-1.1,0.5-1.8,0.7c-0.7,0.2-2.9,0.5-3.4,0.3c-0.1,0-0.6-0.1-0.9-0.1
			l-0.3,0c-0.8-0.1-1.7-0.2-2.5-0.3c-0.2,0-0.5-0.1-0.7-0.1c-0.6-0.1-1.3-0.2-1.9-0.2c-0.7,0-1.8,0-2,0.1c0,0-0.2,0.1-0.8,0.1
			c-0.5,0.7-0.5,1.2-0.2,1.9l0.1,0.2c0.1,0.1,0.2,0.4,0.2,0.5c1.2,1.3,2.7,2.1,4.5,2.2c0.7,0.1,1.3,0,2.1-0.1l0.5,0
			c0.8-0.1,1.6-0.2,2.4-0.3c1-0.2,2-0.3,3-0.4c0.3,0,1.7,0,2.2,0.1c1,0.4,1.5,1.1,2,1.8l0.5,0.6l-0.6,0.5c0,0-1.9,1.5-2.9,2.2
			c-0.3,0.3-0.7,0.5-1.1,0.8c-0.5,0.4-1.1,0.7-1.5,1.1c-0.8,0.7-1.7,1.4-2.5,2.2c-0.6,0.5-1.1,1-1.7,1.6c-1.5,1.3-2.8,2.4-4,3.4
			l-0.7,0.6c-1.2,0.9-2.4,1.9-3.6,2.8c-0.6,0.4-1.3,0.8-1.9,1.2c-1.2,0.7-2.3,1.4-3.2,2.4L96.1,85l-0.4,0.3
			c-0.4,0.3-0.8,0.6-1.2,0.9c-0.7,0.5-1.3,1-2,1.7c-0.1,0.1-0.2,0.2-0.3,0.3c-0.3,0.3-0.7,0.7-0.8,1c-0.1,0.3-0.1,0.6-0.1,0.9
			c0,0.2,0.2,0.5,0.3,0.7c0.2,0.1,0.5,0.1,0.8,0.1l0.7,0c0.1-0.1,0.2-0.2,0.3-0.3l11.8-5.9c0.4-0.2,0.9,0,1.1,0.4
			c0.2,0.4,0,0.9-0.4,1.1l-9.3,4.7l0.5,0l-2.1,0.8l-0.9,0.4c-0.1,0.1-0.2,0.1-0.4,0.1c0,0,0,0-0.1,0l-1,0.4c-0.5,0.2-1.5,0.7-1.8,1
			c-0.8,0.8-0.9,1.1-0.3,2c0.3,0.5,0.8,0.7,1,0.7c0.1,0,0.4-0.2,0.6-0.3l1.5-0.7l0,0.1c2.9-1.5,9.9-5.3,12.5-6.1
			c0.4-0.1,0.9,0.1,1,0.5c0.1,0.4-0.1,0.9-0.5,1c-2.8,0.9-11.3,5.5-13.1,6.5c0,0,0,0.1,0,0.1c0,0,0,0.1,0,0.1
			c0.1,0.1,0.2,0.4,0.3,0.4c0.2,0.2,0.8,0.4,1,0.4c0.2,0,1,0,1.4-0.1c0.7-0.2,1.4-0.6,2.2-1c0.4-0.2,0.9-0.5,1.3-0.7
			c1.4-0.6,4.2-1.9,4.2-1.9l0.2-0.1l0.5,0.1c8.6-4.6,9-4.6,9.2-4.6c0.4,0,0.8,0.4,0.8,0.8c0,0.4-0.3,0.7-0.7,0.8
			c-0.7,0.3-6,3.1-9.6,5c-0.2,0.2-0.3,0.3-0.3,0.4c-0.3,0.5-0.3,0.5,0.1,1.1c0.1,0.1,0.4,0.3,0.5,0.3c0.3,0.1,0.7,0,1.1-0.1
			c0.8-0.2,1.5-0.5,2.2-0.8c0.3-0.1,0.6-0.3,0.9-0.4c0.6-0.2,1.2-0.5,1.8-0.8c0.6-0.3,1.1-0.5,1.7-0.8c0.7-0.3,2.2-0.9,2.2-0.9
			l2.9-1.3l3.8-2.2c2.5-1.1,3.3-1.3,3.5-1.4c0.4-0.2,2.9-1.7,4.6-2.8l6.3-3.4l2.3-1.7l1.6-1.8c1.5-1.6,1.6-1.6,1.9-1.6
			c0.1,0,0.7-0.1,1.8-0.2c0.6-0.2,1.2-0.4,1.3-0.5c0.1-0.1,0.7-0.6,1.2-1l0.2-0.2l0.3,0c0,0,0.9,0,1.3-0.1c0.1,0,0.6-0.3,2.3-1.2
			l0,0l0.7-0.4c1.9-1,2-4.9,0.2-8.7C149,62.3,145.8,59.8,143.9,60.7z M137.6,71.9c-7.8,1.9-13.2,2.3-16.3,2.3c-2,0-3-0.2-3.1-0.2
			c-0.4-0.1-0.7-0.5-0.7-0.9c0.1-0.4,0.5-0.7,0.9-0.7c0.1,0,6.4,0.9,18.8-2.1c0.4-0.1,0.9,0.2,1,0.6C138.3,71.4,138,71.8,137.6,71.9
			z"/>
		<path class="st0" d="M152.2,65.4c-2-4.3-5.3-7-8.1-6.4L144,59l-1.1,0.3c-0.3,0.1-0.6,0.2-0.9,0.3c-0.8,0.3-1.6,0.5-2.4,0.6
			c-1.4,0.2-2.4,0.2-3.4,0.1c-0.3,0-0.6-0.2-1-0.3c-0.3-0.1-0.7-0.3-1.1-0.4c-0.7-0.2-1.4-0.2-2-0.3c-0.4,0-0.9-0.1-1.3-0.1
			c-1.1-0.2-2.2-0.3-3.2-0.6c-0.5-0.1-1.1-0.3-1.6-0.5c-0.5-0.2-1.1-0.4-1.6-0.5c-0.6-0.2-1.3-0.3-1.9-0.4c-0.2,0-0.3-0.1-0.5-0.1
			c-0.5-0.1-0.9-0.2-1.5-0.2c-0.9,0-1.8,0.3-2.5,0.5c-0.6,0.2-1.1,0.4-1.6,0.6c-0.5,0.2-1,0.5-1.5,0.6c-0.8,0.2-2.2,0.3-2.6,0.3
			c-0.2-0.1-0.5-0.1-1.1-0.2l-0.3,0c-0.8-0.1-1.7-0.2-2.5-0.3c-0.2,0-0.5-0.1-0.7-0.1c-0.7-0.1-1.3-0.2-2-0.2c-0.5,0-2.1,0-2.4,0.1
			c-0.1,0-0.5,0-0.8,0l-0.4,0l-0.3,0.3c-0.8,1-1.4,2.2-0.6,3.9l0.1,0.2c0.2,0.4,0.3,0.6,0.5,0.8c1.5,1.6,3.4,2.6,5.6,2.8
			c0.8,0.1,1.6,0,2.4-0.1l0.5,0c0.8-0.1,1.7-0.2,2.5-0.4c1-0.2,1.9-0.3,2.8-0.4c0.5,0,1.4,0,1.6,0c0.3,0.1,0.5,0.3,0.7,0.6
			c-0.6,0.5-1.6,1.3-2.3,1.7c-0.3,0.3-0.7,0.5-1,0.7c-0.5,0.4-1.1,0.8-1.6,1.2c-0.9,0.7-1.7,1.5-2.5,2.2c-0.6,0.5-1.1,1-1.7,1.5
			c-1.5,1.3-2.8,2.4-4,3.3l-0.7,0.6c-1.1,0.9-2.3,1.9-3.5,2.7c-0.6,0.4-1.2,0.8-1.8,1.2c-1.2,0.7-2.4,1.5-3.5,2.6l-0.4,0.3
			c-0.4,0.3-0.7,0.6-1.1,0.8c-0.7,0.5-1.4,1.1-2.2,1.9c-0.1,0.1-0.2,0.2-0.3,0.3c-0.4,0.4-0.9,0.9-1.2,1.5c-0.2,0.6-0.3,1.2-0.2,1.8
			c0.1,0.5,0.4,1.1,0.7,1.5c-0.2,0.1-0.4,0.3-0.6,0.4c-1.4,1.3-1.5,2.5-0.6,4c0.6,0.9,1.5,1.4,2.2,1.5c0.2,0,0.4,0,0.6-0.1
			c0,0.2,0.1,0.2,0.1,0.3l0.1,0.1c0.2,0.3,0.4,0.7,0.7,0.9c0.6,0.5,1.7,0.7,1.9,0.7c0.3,0,1.4,0,2-0.2c0.9-0.3,1.7-0.7,2.5-1.1
			c0.4-0.2,0.8-0.4,1.2-0.6c0.5-0.2,1.1-0.5,1.8-0.8c-0.1,0.7,0.2,1.2,0.6,1.8c0.2,0.3,0.8,0.8,1.4,1c0.2,0.1,0.4,0.1,0.6,0.1
			c0.4,0,0.9-0.1,1.3-0.2c0.9-0.2,1.7-0.6,2.4-0.9c0.3-0.1,0.6-0.3,0.8-0.4c0.6-0.3,1.2-0.5,1.8-0.8c0.6-0.3,1.1-0.5,1.7-0.7
			c0.7-0.3,2.1-0.8,2.2-0.9l3-1.3l3.7-2.1c1.5-0.6,3.1-1.3,3.3-1.3c0.2,0,0.4-0.1,5-2.9l6.3-3.4l2.6-1.9l1.8-2
			c0.4-0.4,0.9-1,1.2-1.2c0.5-0.1,1.5-0.2,1.5-0.2l0.2,0c0.4-0.1,1.3-0.4,1.6-0.6c0.1,0,0.3-0.2,1.4-1.1c0.3,0,0.8-0.1,1.1-0.1
			c0.3,0,0.8-0.3,3-1.4c0.1-0.1,0.2-0.1,0.3-0.1c0,0,0.2-0.1,0.3-0.2l0.3-0.2c0,0,0,0,0.1,0l0.3-0.2l0,0
			C154.1,74,154.3,69.7,152.2,65.4z M150.6,74.8l-0.7,0.4l0,0c-1.7,0.9-2.2,1.2-2.3,1.2c-0.4,0-1.3,0.1-1.3,0.1l-0.3,0l-0.2,0.2
			c-0.5,0.4-1.1,0.9-1.2,1c-0.1,0.1-0.8,0.3-1.3,0.5c-1.1,0.1-1.7,0.2-1.8,0.2c-0.3,0.1-0.4,0.1-1.9,1.6l-1.6,1.8l-2.3,1.7l-6.3,3.4
			c-1.7,1-4.2,2.6-4.6,2.8c-0.2,0.1-1,0.4-3.5,1.4l-3.8,2.2l-2.9,1.3c0,0-1.5,0.6-2.2,0.9c-0.6,0.2-1.1,0.5-1.7,0.8
			c-0.6,0.3-1.2,0.5-1.8,0.8c-0.3,0.1-0.6,0.3-0.9,0.4c-0.7,0.3-1.4,0.6-2.2,0.8c-0.4,0.1-0.8,0.2-1.1,0.1c-0.1,0-0.4-0.2-0.5-0.3
			c-0.5-0.6-0.5-0.6-0.1-1.1c0-0.1,0.2-0.2,0.3-0.4c3.6-1.9,8.9-4.7,9.6-5c0.4-0.1,0.7-0.4,0.7-0.8c0-0.4-0.4-0.8-0.8-0.8
			c-0.2,0-0.6,0-9.2,4.6c0,0-3.5,1.3-4.9,1.9c-0.4,0.2-0.9,0.4-1.3,0.7c-0.7,0.4-1.4,0.8-2.2,1c-0.4,0.1-1.3,0.2-1.4,0.1
			c-0.2,0-0.8-0.2-1-0.4c-0.1-0.1-0.2-0.3-0.3-0.4c0,0,0-0.1,0-0.1c0,0,0-0.1,0-0.1c1.8-1,10.4-5.6,13.1-6.5c0.4-0.1,0.7-0.6,0.5-1
			c-0.1-0.4-0.6-0.7-1-0.5c-2.6,0.8-9.7,4.6-12.5,6.1l-1.5,0.6c-0.2,0.1-0.5,0.3-0.6,0.3c-0.2,0-0.7-0.2-1-0.7
			c-0.6-0.9-0.5-1.2,0.3-2c0.3-0.3,1.3-0.8,1.8-1l1-0.4c0,0,1.3-0.5,1.3-0.5l1.6-0.8l9.3-4.7c0.4-0.2,0.6-0.7,0.4-1.1
			c-0.2-0.4-0.7-0.6-1.1-0.4c0,0-12.1,6.1-12.1,6.2l-0.7,0c-0.3,0-0.6,0-0.8-0.1c-0.1-0.2-0.3-0.5-0.3-0.7c-0.1-0.3,0-0.6,0.1-0.9
			c0.1-0.3,0.5-0.7,0.8-1c0.1-0.1,0.2-0.2,0.3-0.3c0.7-0.7,1.3-1.2,2-1.7c0.4-0.3,0.8-0.6,1.2-0.9l0.4-0.3l0.1-0.1
			c1-1,2.1-1.6,3.2-2.4c0.6-0.4,1.2-0.8,1.9-1.2c1.2-0.9,2.4-1.9,3.6-2.8l0.7-0.6c1.2-1,2.5-2.1,4-3.4c0.6-0.5,1.2-1,1.7-1.6
			c0.8-0.7,1.6-1.5,2.5-2.2c0.5-0.4,1-0.8,1.5-1.1c0.4-0.3,0.7-0.5,1.1-0.8c1-0.7,2.9-2.2,2.9-2.2l0.6-0.5l-0.5-0.6
			c-0.5-0.6-1-1.4-2-1.8c-0.4-0.1-1.8-0.1-2.2-0.1c-1,0.1-2,0.2-3,0.4c-0.8,0.1-1.6,0.3-2.4,0.3l-0.5,0c-0.7,0.1-1.4,0.1-2.1,0.1
			c-1.8-0.1-3.3-0.9-4.5-2.2c-0.1-0.1-0.2-0.3-0.2-0.5l-0.1-0.2c-0.3-0.7-0.3-1.2,0.2-1.9c0.6,0,0.8-0.1,0.8-0.1
			c0.2,0,1.3-0.1,2-0.1c0.6,0,1.2,0.1,1.9,0.2c0.2,0,0.5,0.1,0.7,0.1c0.8,0.1,1.7,0.2,2.5,0.3l0.3,0c0.3,0,0.8,0.1,0.9,0.1
			c0.5,0.2,2.7-0.1,3.4-0.3c0.6-0.2,1.2-0.4,1.8-0.7c0.5-0.2,0.9-0.4,1.3-0.6c0.6-0.2,1.4-0.4,2.1-0.4c0.3,0,0.7,0.1,1.1,0.2
			c0.2,0,0.3,0.1,0.5,0.1c0.6,0.1,1.2,0.2,1.8,0.4c0.5,0.1,1,0.3,1.5,0.5c0.6,0.2,1.1,0.4,1.7,0.5c1.1,0.3,2.3,0.4,3.4,0.6
			c0.5,0.1,0.9,0.1,1.4,0.2c0.6,0.1,1.2,0.1,1.8,0.2c0.3,0.1,0.5,0.2,0.8,0.3c0.4,0.2,0.8,0.4,1.4,0.4c1.1,0.2,2.3,0.1,3.8-0.1
			c0.9-0.1,1.8-0.4,2.6-0.7c0.2-0.1,0.4-0.1,0.7-0.2l0.1,0l0.7-0.2c1.9-0.9,5.1,1.6,6.9,5.4C152.6,69.8,152.5,73.8,150.6,74.8z"/>
		<path class="st0" d="M137.2,70.4c-12.4,3-18.7,2.1-18.8,2.1c-0.4-0.1-0.8,0.2-0.9,0.7c-0.1,0.4,0.2,0.8,0.7,0.9
			c0.1,0,1.1,0.2,3.1,0.2c3.1,0,8.5-0.4,16.3-2.3c0.4-0.1,0.7-0.5,0.6-1C138.1,70.5,137.7,70.3,137.2,70.4z"/>
	</g>
	<g>
		<g>
			<path class="st0" d="M83.8,86.3h-14V73.5h11c1,0,1.8,0.2,2.3,0.7c0.5,0.5,0.7,1.2,0.7,2.2V86.3z M71.8,84.3h10v-8
				c0-0.5-0.1-0.7-0.1-0.7l0,0c0,0-0.2-0.1-0.9-0.1h-9V84.3z M81.4,69.5H72l-1.2-7c-0.3-1.7-0.5-2.9-0.5-3.8c0-1.2,0.3-2.3,0.9-3.1
				c0.6-0.7,1.5-1.5,2.9-2.4l3.3-1.9c1.2-0.7,2-1.2,2.4-1.4l2-1.2c1.1-0.7,1.5-1,1.7-1.1c0.3-0.2,0.7-0.6,1.3-1.1
				c0.7-0.6,0.8-0.8,0.9-0.9c0.2-0.3,0.4-0.7,0.7-1.2c0.2-0.4,0.3-0.7,0.4-1.1c0.1-0.4,0.1-0.9,0.1-1.4c0-1.7-0.6-2.9-1.8-3.8
				c-1.3-1-3.1-1.5-5.5-1.5c-3.2,0-7,0.9-11.4,2.5L62,41.5l-5-8.6l0.6-0.5c3.1-2.6,6.7-4.7,10.7-6.2c7.8-3,15.7-3.1,22-0.3
				c3.1,1.4,5.6,3.5,7.6,6.3c1.9,2.8,2.9,6.1,2.9,9.9c0,8.6-5.9,15.1-17.6,19.3L81.4,69.5z M73.7,67.5h6.1l1.7-7.7l0.5-0.2
				c11.3-3.9,16.8-9.7,16.8-17.6c0-3.4-0.9-6.3-2.6-8.8c-1.7-2.5-4-4.4-6.7-5.6C83.7,25.1,76.4,25.2,69,28c-3.5,1.4-6.7,3.2-9.5,5.3
				l3.3,5.7l4.6-1.8c4.6-1.8,8.7-2.7,12.1-2.7c2.8,0,5,0.6,6.7,1.9c1.7,1.3,2.6,3.1,2.6,5.4c0,0.6,0,1.2-0.1,1.7
				c-0.1,0.6-0.3,1.2-0.6,1.8c-0.3,0.5-0.5,0.8-0.6,1.1c-0.2,0.4-0.7,0.9-1.4,1.5c-0.6,0.5-1,0.8-1.3,1.1c-0.3,0.3-0.9,0.7-1.9,1.3
				l-2,1.2c-0.4,0.3-1.2,0.7-2.5,1.5L75.2,55c-1.4,0.9-2.1,1.5-2.3,1.8c-0.4,0.5-0.5,1.1-0.5,1.9c0,0.8,0.1,1.9,0.4,3.5L73.7,67.5z"
				/>
		</g>
	</g>
</g>
</svg>
