<?xml version="1.0" encoding="utf-8"?>
<!-- Generator: Adobe Illustrator 18.1.1, SVG Export Plug-In . SVG Version: 6.00 Build 0)  -->
<svg version="1.1" id="Layer_1" xmlns="http://www.w3.org/2000/svg" xmlns:xlink="http://www.w3.org/1999/xlink" x="0px" y="0px"
	 viewBox="0 0 120 120" enable-background="new 0 0 120 120" xml:space="preserve">
<rect x="0" y="0.4" display="none" fill="#FFFFFF" width="120" height="120"/>
<g id="condition_of_car" display="none">
	<g display="inline">
		<g>
			<g>
				<g>
					<path fill="#FFFFFF" d="M90.2,77.2H87c-0.9,0-1.8-0.2-2.6-0.7c-0.5-0.2-0.6-0.8-0.4-1.2c0.2-0.5,0.8-0.6,1.2-0.4
						c0.6,0.3,1.2,0.5,1.8,0.5h3.2c2.1,0,3.8-1.7,3.8-3.8v-4.1c0-0.3,0.2-0.6,0.5-0.8c1.7-1,2.7-2.7,2.7-4.7V50.9
						c0-4.1-1.8-7.8-5-10.4c-0.3-0.2-0.4-0.7-0.3-1c0.1-0.4,0.5-0.6,0.9-0.6h4.6c2.6,0,4.6-2.1,4.6-4.6c0-1.7-1.4-3.1-3.1-3.1h-4.8
						c-1.7,0-3.1,1.4-3.1,3.1v3c0,0.4-0.3,0.8-0.7,0.9c-0.4,0.1-0.8-0.1-1-0.5l-5.8-11.3c-1.5-2.9-4.4-4.7-7.7-4.7H44.1
						c-3.2,0-6.2,1.8-7.7,4.7l-5.8,11.3c-0.2,0.4-0.6,0.6-1,0.5c-0.4-0.1-0.7-0.5-0.7-0.9v-3c0-1.7-1.4-3.1-3.1-3.1H21
						c-1.7,0-3.1,1.4-3.1,3.1c0,2.6,2.1,4.6,4.6,4.6h4.6c0.4,0,0.7,0.2,0.9,0.6c0.1,0.4,0,0.8-0.3,1c-3.2,2.6-5,6.4-5,10.4V62
						c0,1.9,1,3.7,2.7,4.7c0.3,0.2,0.5,0.5,0.5,0.8v4.1c0,2.1,1.7,3.8,3.8,3.8H33c2.1,0,3.8-1.7,3.8-3.8v-3.2c0-0.5,0.4-0.9,0.9-0.9
						h3.1c0.5,0,0.9,0.4,0.9,0.9c0,0.5-0.4,0.9-0.9,0.9h-2.2v2.3c0,3.1-2.6,5.7-5.7,5.7h-3.2c-3.1,0-5.7-2.6-5.7-5.7V68
						c-2-1.4-3.2-3.6-3.2-6V50.9c0-3.8,1.4-7.4,4-10.2h-2.2c-3.6,0-6.5-2.9-6.5-6.5c0-2.7,2.2-4.9,4.9-4.9h4.8
						c2.5,0,4.5,1.8,4.8,4.2l4.1-8c1.8-3.5,5.4-5.7,9.3-5.7h31.8c3.9,0,7.5,2.2,9.3,5.7l4.1,8c0.4-2.4,2.4-4.2,4.8-4.2H99
						c2.7,0,4.9,2.2,4.9,4.9c0,3.6-2.9,6.5-6.5,6.5h-2.2c2.5,2.8,4,6.4,4,10.2V62c0,2.4-1.2,4.6-3.2,6v3.6
						C95.9,74.7,93.3,77.2,90.2,77.2z M91.8,69.3h-6.3c-0.5,0-0.9-0.4-0.9-0.9c0-0.5,0.4-0.9,0.9-0.9h6.3c0.5,0,0.9,0.4,0.9,0.9
						C92.7,68.9,92.3,69.3,91.8,69.3z M34.6,69.3h-6.4c-0.5,0-0.9-0.4-0.9-0.9c0-0.5,0.4-0.9,0.9-0.9h6.4c0.5,0,0.9,0.4,0.9,0.9
						C35.5,68.9,35.1,69.3,34.6,69.3z M88.7,58.2c-0.2,0-0.4-0.1-0.6-0.2c-0.3-0.2-0.4-0.6-0.4-1.1c0-0.4,0.1-0.8,0.4-1l6.2-5.6
						c0.2-0.2,0.6-0.3,0.9-0.2c0.3,0.1,0.5,0.3,0.6,0.6c0.1,0.2,0.1,0.3,0.1,0.5v5.7c0,0.1,0,0.2,0,0.3c0,0,0,0.1,0,0.1
						c0,0.5-0.4,0.8-0.9,0.8L88.7,58.2C88.7,58.2,88.7,58.2,88.7,58.2z M94.1,53l-3.7,3.3l3.7,0L94.1,53z M25.1,58.2
						c-0.2,0-0.4-0.1-0.6-0.2c-0.3-0.2-0.5-0.6-0.5-1.1v-5.7c0-0.2,0-0.4,0.1-0.5c0.1-0.3,0.3-0.5,0.6-0.6c0.3-0.1,0.6,0,0.9,0.2
						l6.2,5.6c0,0,0,0,0,0c0.3,0.2,0.4,0.6,0.4,1c0,0.1,0,0.2,0,0.3c0,0,0,0.1,0,0.1c0,0.5-0.4,0.8-0.9,0.8L25.1,58.2
						C25.1,58.2,25.1,58.2,25.1,58.2z M25.9,53v3.3l3.7,0L25.9,53z M87.2,39.1H32.8c-0.3,0-0.6-0.2-0.8-0.4c-0.2-0.3-0.2-0.6,0-0.9
						l5.6-10.9c1.3-2.4,3.7-3.9,6.5-3.9h31.8c2.7,0,5.2,1.5,6.5,3.9L88,37.7c0.1,0.3,0.1,0.6,0,0.9C87.8,38.9,87.5,39.1,87.2,39.1z
						 M34.4,37.2h51.3l-4.9-9.5c-0.9-1.8-2.8-2.9-4.8-2.9H44.1c-2,0-3.9,1.1-4.8,2.9L34.4,37.2z"/>
				</g>
			</g>
			<g>
				<g>
					<path fill="#FFFFFF" d="M91.8,101.1c-0.7,0-1.3-0.3-1.8-0.7L75.4,85.8c-3.5,2.7-7.8,4.2-12.2,4.2c-11,0-20-9-20-20s9-20,20-20
						c11,0,20,9,20,20c0,4.4-1.5,8.7-4.2,12.2l14.6,14.6c0.5,0.5,0.7,1.1,0.7,1.8c0,0.7-0.3,1.3-0.7,1.8
						C93.1,100.8,92.5,101.1,91.8,101.1z M75.5,83.6c0.2,0,0.5,0.1,0.7,0.3L91.3,99c0.3,0.3,0.7,0.3,0.9,0c0.1-0.1,0.2-0.3,0.2-0.5
						c0-0.2-0.1-0.3-0.2-0.5L77.1,82.9c-0.3-0.3-0.4-0.9-0.1-1.3c2.8-3.3,4.3-7.4,4.3-11.7c0-10-8.1-18.2-18.2-18.2
						C53.2,51.8,45,59.9,45,70s8.1,18.2,18.2,18.2c4.3,0,8.4-1.5,11.7-4.3C75.1,83.7,75.3,83.6,75.5,83.6z"/>
				</g>
			</g>
		</g>
		<g>
			<g>
				<path fill="#FFFFFF" d="M51.5,59.5c-0.2,0-0.5-0.1-0.6-0.3c-0.4-0.4-0.4-0.9,0-1.3c3.1-3.3,7.4-5.2,12-5.3
					c4.5-0.1,8.8,1.6,12,4.6c0.4,0.4,0.4,0.9,0,1.3s-0.9,0.4-1.3,0c-2.9-2.7-6.7-4.2-10.7-4.1c-4.1,0.1-7.9,1.8-10.7,4.7
					C52,59.4,51.8,59.5,51.5,59.5z"/>
			</g>
		</g>
	</g>
	<g display="inline">
		<g>
			<path fill="#FFFFFF" d="M76.5,49.4H46.7c-0.5,0-0.9-0.4-0.9-0.9s0.4-0.9,0.9-0.9h29.8c0.5,0,0.9,0.4,0.9,0.9S77,49.4,76.5,49.4z"
				/>
		</g>
	</g>
</g>
<g id="RFT" display="none">
	<g display="inline">
		<g>
			<path fill="#FFFFFF" d="M114.5,101.3H50.6c-1.4,0-2.5-1.1-2.5-2.5V28.4c0-1.4,1.1-2.5,2.5-2.5h22.9c0.3,0,0.5-0.2,0.6-0.4
				c1.3-3.6,4.6-6,8.4-6s7.2,2.4,8.4,6c0.1,0.3,0.3,0.4,0.6,0.4h22.9c1.4,0,2.5,1.1,2.5,2.5v70.3C117,100.2,115.9,101.3,114.5,101.3
				z M50.6,27.8c-0.4,0-0.7,0.3-0.7,0.7v70.3c0,0.4,0.3,0.7,0.7,0.7h63.9c0.4,0,0.7-0.3,0.7-0.7V28.4c0-0.4-0.3-0.7-0.7-0.7H91.6
				c-1.1,0-2-0.7-2.4-1.7c-1-2.8-3.7-4.7-6.7-4.7c-3,0-5.7,1.9-6.7,4.7c-0.4,1-1.3,1.7-2.4,1.7H50.6z M92.2,37.4H73
				c-3.2,0-5.7-2.6-5.7-5.7c0-1.4,1.1-2.5,2.5-2.5h25.6c1.4,0,2.5,1.1,2.5,2.5C97.9,34.8,95.3,37.4,92.2,37.4z M69.8,31
				c-0.4,0-0.7,0.3-0.7,0.7c0,2.1,1.7,3.9,3.9,3.9h19.2c2.1,0,3.9-1.7,3.9-3.9c0-0.4-0.3-0.7-0.7-0.7H69.8z M82.8,27.8h-0.4
				c-1.6,0-2.5-1.2-2.5-2.5c0-1.2,0.7-2.4,2.3-2.6c0.3,0,0.6,0,0.9,0c1.5,0.1,2.3,1.4,2.3,2.6C85.2,26.5,84.3,27.8,82.8,27.8z
				 M82.6,24.6c-0.1,0-0.2,0-0.3,0c-0.5,0-0.6,0.4-0.6,0.7c0,0.1,0.1,0.7,0.7,0.7h0.4c0.6,0,0.7-0.6,0.7-0.7c0-0.2-0.1-0.6-0.6-0.7
				C82.8,24.6,82.7,24.6,82.6,24.6z"/>
		</g>
	</g>
	<g display="inline">
		<g>
			<path fill="#FFFFFF" d="M70.8,56.5h-8.4c-0.8,0-1.5-0.7-1.5-1.5v-8.4c0-0.8,0.7-1.5,1.5-1.5h8.4c0.8,0,1.5,0.7,1.5,1.5V55
				C72.3,55.9,71.6,56.5,70.8,56.5z M62.7,54.7h7.7V47h-7.7V54.7z"/>
		</g>
	</g>
	<g display="inline">
		<g>
			<path fill="#FFFFFF" d="M70.8,72.5h-8.4c-0.8,0-1.5-0.7-1.5-1.5v-8.4c0-0.8,0.7-1.5,1.5-1.5h8.4c0.8,0,1.5,0.7,1.5,1.5V71
				C72.3,71.8,71.6,72.5,70.8,72.5z M62.7,70.7h7.7v-7.7h-7.7V70.7z"/>
		</g>
	</g>
	<g display="inline">
		<g>
			<path fill="#FFFFFF" d="M19.7,101.3h-2c-3.5,0-6.3-2.8-6.3-6.3v-3c-2-1.4-3.2-3.6-3.2-6v-9.3c0-0.5,0.1-1,0.3-1.6
				c0.5-2.8,1.8-5.3,3.7-7.4H9.8c-2,0-3.9-0.9-5.1-2.5C3,63,2.5,60.9,3.4,59.1c0.9-1.8,3-2.8,5.8-2.8h3.3c2.6,0,4.8,1.9,5.4,4.3
				l4.1-7.9c1.9-3.7,5.7-6,9.9-6h14c0.5,0,0.9,0.4,0.9,0.9s-0.4,0.9-0.9,0.9h-14c-3.5,0-6.6,1.9-8.2,5L19,62.5
				c-0.3,0.6-1,0.9-1.7,0.8c-0.7-0.2-1.2-0.8-1.2-1.5c0-2-1.6-3.7-3.7-3.7H9.2c-2.1,0-3.6,0.6-4.2,1.8c-0.5,1.1-0.1,2.6,1.1,4.2
				c0.9,1.1,2.2,1.8,3.7,1.8h3.1c0.6,0,1.2,0.4,1.4,0.9c0.2,0.6,0.1,1.2-0.3,1.6c-2,1.9-3.3,4.4-3.8,7.1c0,0.1,0,0.1,0,0.2
				c-0.1,0.4-0.2,0.7-0.2,1V86c0,1.8,0.9,3.5,2.5,4.6c0.4,0.3,0.7,0.8,0.7,1.3V95c0,2.5,2,4.5,4.5,4.5h2c2.5,0,4.5-2,4.5-4.5v-2
				c0-0.8,0.7-1.5,1.5-1.5h20.2c0.5,0,0.9,0.4,0.9,0.9c0,0.5-0.4,0.9-0.9,0.9H26V95C26,98.5,23.1,101.3,19.7,101.3z M12.4,83.7
				c-0.2,0-0.4-0.1-0.6-0.2c-0.3-0.2-0.5-0.6-0.5-1.1V78c0-0.1,0-0.2,0-0.2c0-0.6,0.4-1.1,0.9-1.3c0.5-0.2,1.2-0.1,1.6,0.3l5.3,4.8
				c0.3,0.2,0.4,0.6,0.4,1c0,0.1,0,0.2,0,0.3c0,0,0,0.1,0,0.1c0,0.5-0.4,0.8-0.9,0.8L12.4,83.7C12.4,83.7,12.4,83.7,12.4,83.7z
				 M13.2,78.5v3.3l3.7,0L13.2,78.5z"/>
		</g>
	</g>
	<g display="inline">
		<g>
			<path fill="#FFFFFF" d="M107.8,96H59.2c-2.4,0-4.3-1.9-4.3-4.3V36.4c0-2.4,1.9-4.3,4.3-4.3h8.6c0.5,0,0.9,0.4,0.9,0.9
				s-0.4,0.9-0.9,0.9h-8.6c-1.4,0-2.5,1.1-2.5,2.5v55.2c0,1.4,1.1,2.5,2.5,2.5h48.6c1.4,0,2.5-1.1,2.5-2.5V36.4
				c0-1.4-1.1-2.5-2.5-2.5H97.1c-0.5,0-0.9-0.4-0.9-0.9s0.4-0.9,0.9-0.9h10.8c2.4,0,4.3,1.9,4.3,4.3v55.2
				C112.2,94,110.2,96,107.8,96z"/>
		</g>
	</g>
	<g display="inline">
		<g>
			<path fill="#FFFFFF" d="M77.5,53.7v-2.3l-1.8-3.3h1.5l0.6,1.3c0.2,0.4,0.3,0.7,0.4,1.1h0c0.1-0.3,0.3-0.7,0.4-1.1l0.6-1.3h1.4
				l-1.9,3.3v2.3H77.5z"/>
		</g>
		<g>
			<path fill="#FFFFFF" d="M84.4,51.3h-2.1v1.3h2.3v1h-3.6v-5.6h3.5v1h-2.2v1.2h2.1V51.3z"/>
		</g>
		<g>
			<path fill="#FFFFFF" d="M85.6,52.4c0.3,0.2,0.9,0.3,1.4,0.3c0.6,0,0.9-0.2,0.9-0.6c0-0.3-0.3-0.5-0.9-0.8
				c-0.9-0.3-1.5-0.8-1.5-1.7c0-1,0.8-1.7,2.1-1.7c0.6,0,1.1,0.1,1.4,0.3l-0.3,1c-0.2-0.1-0.6-0.3-1.2-0.3s-0.8,0.2-0.8,0.5
				c0,0.4,0.3,0.5,1,0.8c1,0.4,1.5,0.9,1.5,1.7c0,0.9-0.7,1.7-2.3,1.7c-0.6,0-1.3-0.2-1.6-0.3L85.6,52.4z"/>
		</g>
	</g>
	<g display="inline">
		<g>
			<path fill="#FFFFFF" d="M76.2,69.6V64h1.5l1.2,2.1c0.3,0.6,0.7,1.3,0.9,1.9h0c-0.1-0.7-0.1-1.5-0.1-2.3V64h1.2v5.6h-1.3l-1.2-2.2
				c-0.3-0.6-0.7-1.3-1-2l0,0c0,0.7,0.1,1.5,0.1,2.4v1.7H76.2z"/>
		</g>
		<g>
			<path fill="#FFFFFF" d="M87.1,66.7c0,1.8-1.1,3-2.8,3c-1.7,0-2.6-1.3-2.6-2.9c0-1.7,1.1-2.9,2.7-2.9
				C86.2,63.9,87.1,65.2,87.1,66.7z M83.1,66.8c0,1.1,0.5,1.9,1.4,1.9c0.9,0,1.4-0.8,1.4-1.9c0-1-0.5-1.9-1.4-1.9
				C83.6,64.9,83.1,65.7,83.1,66.8z"/>
		</g>
	</g>
	<g display="inline">
		<g>
			<path fill="#FFFFFF" d="M66.1,53.4c-0.3,0-0.7-0.1-0.9-0.3l-2.4-1.9c-0.4-0.3-0.5-0.9-0.1-1.3c0.3-0.4,0.9-0.5,1.3-0.1l2.1,1.7
				l3-3.9c0.3-0.4,0.9-0.5,1.3-0.2c0.4,0.3,0.5,0.9,0.2,1.3l-3.2,4.2c-0.3,0.3-0.6,0.5-1,0.6C66.2,53.4,66.2,53.4,66.1,53.4z"/>
		</g>
	</g>
	<g display="inline">
		<g>
			<path fill="#FFFFFF" d="M23.2,92.4h-8.8c-0.5,0-0.9-0.4-0.9-0.9c0-0.5,0.4-0.9,0.9-0.9h8.8c0.5,0,0.9,0.4,0.9,0.9
				C24.1,92,23.7,92.4,23.2,92.4z"/>
		</g>
	</g>
	<g display="inline">
		<g>
			<path fill="#FFFFFF" d="M45.3,69.5H20.4c-0.5,0-1-0.3-1.3-0.7c-0.3-0.4-0.3-0.9-0.1-1.4l5.3-12.7c1.2-3,3.7-4.8,6.5-4.8h15
				c0.5,0,0.9,0.4,0.9,0.9c0,0.5-0.4,0.9-0.9,0.9h-15c-2,0-3.8,1.4-4.8,3.7L21,67.7h24.4c0.5,0,0.9,0.4,0.9,0.9
				C46.3,69.1,45.9,69.5,45.3,69.5z"/>
		</g>
	</g>
	<g display="inline">
		<g>
			<path fill="#FFFFFF" d="M45.8,76.2H17.9c-0.5,0-0.9-0.4-0.9-0.9c0-0.5,0.4-0.9,0.9-0.9h27.9c0.5,0,0.9,0.4,0.9,0.9
				C46.7,75.8,46.3,76.2,45.8,76.2z"/>
		</g>
	</g>
</g>
<g id="cost_of_service_repair" display="none">
	<g display="inline">
		<g>
			<g>
				<g>
					<g>
						<path fill="#FFFFFF" d="M87.9,89.2h-3.2c-0.9,0-1.8-0.2-2.6-0.7c0,0-0.1,0-0.1-0.1c-1.7-1-2.9-2.8-2.9-4.9v-2.3H36.3v2.3
							c0,3.1-2.6,5.7-5.7,5.7h-3.2c-3.1,0-5.7-2.6-5.7-5.7v-3.6c-2-1.4-3.2-3.6-3.2-6V62.8c0-3.8,1.4-7.4,4-10.2h-2.2
							c-3.6,0-6.5-2.9-6.5-6.5c0-2.7,2.2-4.9,4.9-4.9h4.8c2.5,0,4.5,1.8,4.8,4.2l4.1-8c1.8-3.5,5.4-5.7,9.3-5.7h31.8
							c3.9,0,7.5,2.2,9.3,5.7l3.6,6.9c0.2,0.5,0.1,1-0.4,1.2c-0.5,0.2-1,0.1-1.2-0.4l-3.6-6.9c-1.5-2.9-4.4-4.7-7.7-4.7H41.8
							c-3.2,0-6.2,1.8-7.7,4.7l-5.8,11.3c-0.2,0.4-0.6,0.6-1,0.5c-0.4-0.1-0.7-0.5-0.7-0.9v-3c0-1.7-1.4-3.1-3.1-3.1h-4.8
							c-1.7,0-3.1,1.4-3.1,3.1c0,2.6,2.1,4.6,4.6,4.6h4.6c0.4,0,0.7,0.2,0.9,0.6c0.1,0.4,0,0.8-0.3,1c-3.2,2.6-5,6.4-5,10.4v11.1
							c0,1.9,1,3.7,2.7,4.7c0.3,0.2,0.5,0.5,0.5,0.8v4.1c0,2.1,1.7,3.8,3.8,3.8h3.2c2.1,0,3.8-1.7,3.8-3.8v-3.2
							c0-0.5,0.4-0.9,0.9-0.9H80c0.5,0,0.9,0.4,0.9,0.9v3.2c0,2.1,1.7,3.8,3.8,3.8h3.1c2.1,0,3.8-1.7,3.8-3.8v-4.1
							c0-0.3,0.2-0.6,0.5-0.8c1.7-1,2.7-2.7,2.7-4.7c0-0.5,0.4-0.9,0.9-0.9c0.5,0,0.9,0.4,0.9,0.9c0,2.4-1.2,4.6-3.2,6v3.6
							C93.6,86.6,91,89.2,87.9,89.2z M89.5,81.2h-6.3c-0.5,0-0.9-0.4-0.9-0.9c0-0.5,0.4-0.9,0.9-0.9h6.3c0.5,0,0.9,0.4,0.9,0.9
							C90.4,80.8,90,81.2,89.5,81.2z M32.2,81.2h-6.4c-0.5,0-0.9-0.4-0.9-0.9c0-0.5,0.4-0.9,0.9-0.9h6.4c0.5,0,0.9,0.4,0.9,0.9
							C33.1,80.8,32.7,81.2,32.2,81.2z M22.8,70.1c-0.2,0-0.4-0.1-0.6-0.2c-0.3-0.2-0.5-0.6-0.5-1.1v-5.7c0-0.2,0-0.4,0.1-0.5
							c0.1-0.3,0.3-0.5,0.6-0.6c0.3-0.1,0.6,0,0.9,0.2l6.2,5.6c0,0,0,0,0,0c0.3,0.2,0.4,0.6,0.4,1c0,0.1,0,0.2,0,0.3
							c0,0,0,0.1,0,0.1c0,0.5-0.4,0.8-0.9,0.8L22.8,70.1C22.8,70.1,22.8,70.1,22.8,70.1z M23.6,64.9v3.3l3.7,0L23.6,64.9z M79.5,51
							h-49c-0.3,0-0.6-0.2-0.8-0.4s-0.2-0.6,0-0.9l5.6-10.9c1.3-2.4,3.7-3.9,6.5-3.9h31.8c2.7,0,5.2,1.5,6.5,3.9l3.6,6.9
							c0.2,0.5,0.1,1-0.4,1.2c-0.5,0.2-1,0.1-1.2-0.4l-3.6-6.9c-0.9-1.8-2.8-2.9-4.8-2.9H41.8c-2,0-3.9,1.1-4.8,2.9L32,49.2h47.5
							c0.5,0,0.9,0.4,0.9,0.9S80,51,79.5,51z"/>
					</g>
				</g>
			</g>
		</g>
		<g>
			<g>
				<path fill="#FFFFFF" d="M64,61.3H44.4c-0.5,0-0.9-0.4-0.9-0.9s0.4-0.9,0.9-0.9H64c0.5,0,0.9,0.4,0.9,0.9S64.5,61.3,64,61.3z"/>
			</g>
		</g>
	</g>
	<g display="inline">
		<g>
			<g>
				<path fill="#FFFFFF" d="M73.1,74.3c-2.4,0-4.6-0.9-6.3-2.6c-2-2-2.9-4.8-2.5-7.6c0.5-3.7,3.3-6.7,7-7.5c0.9-0.2,1.9-0.2,2.8-0.1
					c0.5,0.1,1-0.1,1.3-0.4l12.5-12.5c0.3-0.3,0.5-0.8,0.4-1.3c0,0,0,0,0,0l-0.1-0.8c0,0,0,0,0-0.1c0-2.8,1.3-5.4,3.5-7.1
					c2.2-1.7,5-2.3,7.7-1.6c0.6,0.2,1.1,0.6,1.2,1.2c0.2,0.6,0,1.2-0.4,1.7l-3.1,3.1c0.2,0.5,0.5,1.3,1,1.8c0.5,0.5,1.2,0.8,1.8,1
					l3.1-3.1c0.4-0.4,1.1-0.6,1.7-0.4c0.6,0.2,1.1,0.6,1.2,1.2c0.2,0.7,0.3,1.5,0.3,2.2c0,4.9-4,9-9,9c0,0,0,0-0.1,0l-0.8,0
					c0,0,0,0-0.1,0c-0.6-0.1-1,0.1-1.4,0.4c-0.4,0.4-0.9,0.4-1.3,0c-0.4-0.4-0.4-0.9,0-1.3c0.7-0.7,1.8-1.1,2.9-0.9l0.8,0
					c3.9,0,7.1-3.2,7.1-7.1c0-0.5-0.1-1-0.2-1.5l-3.3,3.3c-0.2,0.2-0.6,0.3-0.9,0.2c-0.7-0.2-2.1-0.7-3.1-1.7c-1-1-1.5-2.4-1.7-3.1
					c-0.1-0.3,0-0.7,0.2-0.9l3.3-3.3c-2.1-0.5-4.2,0-5.9,1.3c-1.7,1.4-2.8,3.4-2.8,5.6l0,0.8c0.1,1.1-0.2,2.1-0.9,2.8L76.8,57.4
					c-0.7,0.7-1.8,1.1-2.8,0.9c-0.7-0.1-1.5,0-2.3,0.1c-2.9,0.6-5.2,3-5.6,5.9c-0.3,2.3,0.4,4.5,2,6.1c1.3,1.3,3.1,2.1,5,2.1
					c0.3,0,0.7,0,1-0.1c2.9-0.4,5.3-2.7,5.9-5.6c0.2-0.7,0.2-1.5,0.1-2.3c-0.1-1.1,0.2-2.1,0.9-2.8l0.9-0.9c0.4-0.4,0.9-0.4,1.3,0
					c0.4,0.4,0.4,0.9,0,1.3L82.4,63c-0.3,0.3-0.5,0.8-0.4,1.3c0.1,0.9,0.1,1.9-0.1,2.8c-0.8,3.7-3.8,6.5-7.5,7
					C74,74.3,73.6,74.3,73.1,74.3z"/>
			</g>
		</g>
		<g>
			<g>
				<path fill="#FFFFFF" d="M74.2,71.1c-0.2,0-0.3,0-0.4-0.1l-4-1.1c-0.6-0.2-1.1-0.6-1.2-1.2l-1.1-4c-0.2-0.6,0-1.2,0.4-1.7l3-3
					c0.4-0.4,1.1-0.6,1.7-0.4l4,1.1c0.6,0.2,1.1,0.6,1.2,1.2l1.1,4c0.2,0.6,0,1.2-0.4,1.7l-3,3C75.1,70.9,74.6,71.1,74.2,71.1z
					 M70.3,68.2l3.9,1l2.9-2.9l-1-3.9l-3.9-1l-2.9,2.9L70.3,68.2z"/>
			</g>
		</g>
	</g>
	<g display="inline">
		<g>
			<path fill="#FFFFFF" d="M89.5,81.2h-6.4c-0.5,0-0.9-0.4-0.9-0.9c0-0.5,0.4-0.9,0.9-0.9h6.4c0.5,0,0.9,0.4,0.9,0.9
				C90.4,80.8,90,81.2,89.5,81.2z"/>
		</g>
	</g>
	<g display="inline">
		<g>
			<path fill="#FFFFFF" d="M92.4,75.1h-2.7c-0.5,0-0.9-0.4-0.9-0.9v-1.8c-1.6-0.2-3.2-0.6-4.3-1.3c-0.4-0.2-0.5-0.6-0.4-1l0.8-3.3
				c0.1-0.3,0.3-0.5,0.5-0.6c0.3-0.1,0.6-0.1,0.8,0c0.5,0.3,1.5,0.8,2.8,1v-2.5c-2.2-0.9-4.8-2.4-4.8-5.7c0-2.7,1.8-4.9,4.7-5.7
				v-1.9c0-0.5,0.4-0.9,0.9-0.9h2.7c0.5,0,0.9,0.4,0.9,0.9V53c1.3,0.1,2.5,0.4,3.5,0.9c0.4,0.2,0.6,0.6,0.5,1.1l-0.8,3.2
				c-0.1,0.3-0.2,0.5-0.5,0.6c-0.2,0.1-0.5,0.1-0.8,0l-0.2-0.1c-0.5-0.2-1.1-0.5-2-0.7v2.1c3.5,1.3,5.1,3.1,5.1,6
				c0,2.8-1.9,5.1-5,5.9v2.1C93.3,74.7,92.9,75.1,92.4,75.1z M90.6,73.2h0.9v-1.9c0-0.4,0.3-0.8,0.8-0.9c2.6-0.5,4.2-2.1,4.2-4.2
				c0-1.8-0.7-3.2-4.1-4.3c-0.2-0.1-0.3-0.1-0.5-0.2c-0.4-0.1-0.6-0.5-0.6-0.9V57c0-0.3,0.1-0.5,0.3-0.7c0.2-0.2,0.4-0.3,0.7-0.3
				c1.2,0.1,2.1,0.3,2.8,0.6l0.3-1.4c-0.9-0.3-1.9-0.5-3-0.5c-0.5,0-0.9-0.4-0.9-0.9v-1.5h-0.9V54c0,0.4-0.3,0.8-0.7,0.9
				c-2.5,0.5-4,2-4,4.1c0,1.9,1.2,3.1,4.2,4.2c0.4,0.1,0.6,0.5,0.6,0.9v4.2c0,0.3-0.1,0.5-0.3,0.7c-0.2,0.2-0.4,0.3-0.7,0.3
				c-1.2-0.1-2.4-0.3-3.5-0.8L86,69.8c1,0.4,2.4,0.7,3.7,0.8c0.5,0,0.9,0.4,0.9,0.9V73.2z M92.3,68.8c-0.2,0-0.3,0-0.5-0.1
				c-0.3-0.2-0.5-0.5-0.5-0.8v-2.7c0-0.3,0.2-0.7,0.5-0.8c0.3-0.2,0.7-0.1,1,0.1c0.8,0.6,1.2,1.3,1.2,2.2c0,0.9-0.4,1.6-1.3,2.1
				C92.6,68.7,92.4,68.8,92.3,68.8z M89.9,60.5c-0.2,0-0.4-0.1-0.6-0.2c-0.6-0.5-0.9-1.1-0.9-1.7c0-0.7,0.3-1.4,0.9-1.8
				c0.3-0.2,0.7-0.2,1-0.1c0.3,0.2,0.5,0.5,0.5,0.8v2.1c0,0.4-0.2,0.7-0.5,0.8C90.2,60.4,90,60.5,89.9,60.5z"/>
		</g>
	</g>
</g>
<g id="explanation_work" display="none">
	<g display="inline">
		<g>
			<g>
				<path fill="#FFFFFF" d="M114.2,101.2H50.2c-1.4,0-2.5-1.1-2.5-2.5V28.3c0-1.4,1.1-2.5,2.5-2.5h22.9c0.3,0,0.5-0.2,0.6-0.4
					c1.3-3.6,4.6-6,8.4-6c3.8,0,7.2,2.4,8.4,6c0.1,0.3,0.3,0.4,0.6,0.4h22.9c1.4,0,2.5,1.1,2.5,2.5v70.3
					C116.7,100,115.5,101.2,114.2,101.2z M50.2,27.7c-0.4,0-0.7,0.3-0.7,0.7v70.3c0,0.4,0.3,0.7,0.7,0.7h63.9c0.4,0,0.7-0.3,0.7-0.7
					V28.3c0-0.4-0.3-0.7-0.7-0.7H91.2c-1.1,0-2-0.7-2.4-1.7c-1-2.8-3.7-4.7-6.7-4.7c-3,0-5.7,1.9-6.7,4.7c-0.4,1-1.3,1.7-2.4,1.7
					H50.2z M91.8,37.2H72.6c-3.2,0-5.7-2.6-5.7-5.7c0-1.4,1.1-2.5,2.5-2.5H95c1.4,0,2.5,1.1,2.5,2.5C97.5,34.7,94.9,37.2,91.8,37.2z
					 M69.4,30.9c-0.4,0-0.7,0.3-0.7,0.7c0,2.1,1.7,3.9,3.9,3.9h19.2c2.1,0,3.9-1.7,3.9-3.9c0-0.4-0.3-0.7-0.7-0.7H69.4z M82.4,27.7
					H82c-1.6,0-2.5-1.2-2.5-2.5c0-1.2,0.7-2.4,2.3-2.6c0.3,0,0.6,0,0.9,0c1.5,0.1,2.3,1.4,2.3,2.6C84.9,26.4,84,27.7,82.4,27.7z
					 M82.2,24.5c-0.1,0-0.2,0-0.3,0c-0.5,0-0.6,0.4-0.6,0.7c0,0.1,0.1,0.7,0.7,0.7h0.4c0.6,0,0.7-0.6,0.7-0.7c0-0.2-0.1-0.6-0.6-0.7
					C82.4,24.5,82.3,24.5,82.2,24.5z"/>
			</g>
		</g>
		<g>
			<g>
				<path fill="#FFFFFF" d="M107.5,95.8H58.9c-2.4,0-4.3-1.9-4.3-4.3V36.3c0-2.4,1.9-4.3,4.3-4.3h8.6c0.5,0,0.9,0.4,0.9,0.9
					s-0.4,0.9-0.9,0.9h-8.6c-1.4,0-2.5,1.1-2.5,2.5v55.2c0,1.4,1.1,2.5,2.5,2.5h48.6c1.4,0,2.5-1.1,2.5-2.5V36.3
					c0-1.4-1.1-2.5-2.5-2.5H96.7c-0.5,0-0.9-0.4-0.9-0.9s0.4-0.9,0.9-0.9h10.8c2.4,0,4.3,1.9,4.3,4.3v55.2
					C111.8,93.9,109.9,95.8,107.5,95.8z"/>
			</g>
		</g>
	</g>
	<g display="inline">
		<g>
			<g>
				<g>
					<g>
						<g>
							<g>
								<path fill="#FFFFFF" d="M20.2,101.4H17c-3.2,0-5.7-2.6-5.7-5.7v-3.6c-2-1.4-3.2-3.6-3.2-6v-9.3c0-0.5,0.1-1,0.3-1.6
									c0.5-2.8,1.8-5.3,3.7-7.4H9.8c-3.6,0-6.5-2.9-6.5-6.5c0-2.7,2.2-4.9,4.9-4.9H13c2.5,0,4.5,1.8,4.9,4.2l4.2-8.1
									c1.8-3.5,5.4-5.7,9.3-5.7h14.4c0.5,0,0.9,0.4,0.9,0.9c0,0.5-0.4,0.9-0.9,0.9H31.4c-3.3,0-6.2,1.8-7.7,4.7l-5.9,11.4
									c-0.2,0.4-0.6,0.6-1,0.5c-0.4-0.1-0.7-0.5-0.7-0.9v-3c0-1.7-1.4-3.1-3.1-3.1H8.2c-1.7,0-3.1,1.4-3.1,3.1
									c0,2.6,2.1,4.7,4.7,4.7h4.6c0.4,0,0.7,0.2,0.9,0.6c0.1,0.4,0,0.8-0.3,1c-2.5,2-4.2,4.9-4.8,8c0,0.1,0,0.1,0,0.2
									c-0.1,0.4-0.2,0.7-0.2,1v9.3c0,2,1,3.7,2.7,4.7c0.3,0.2,0.5,0.5,0.5,0.8v4.1c0,2.1,1.7,3.9,3.9,3.9h3.2
									c2.1,0,3.9-1.7,3.9-3.9v-3.2c0-0.5,0.4-0.9,0.9-0.9h20.8c0.5,0,0.9,0.4,0.9,0.9c0,0.5-0.4,0.9-0.9,0.9H25.9v2.3
									C25.9,98.8,23.4,101.4,20.2,101.4z M12.4,83.9c-0.2,0-0.4-0.1-0.6-0.2c-0.3-0.2-0.5-0.6-0.5-1.1v-4.5c0-0.5,0-1,0.1-1.6
									c0-0.3,0.3-0.6,0.6-0.7c0.3-0.1,0.7,0,0.9,0.2l6.2,5.6c0.3,0.2,0.4,0.6,0.4,1c0,0.1,0,0.2,0,0.3c0,0,0,0.1,0,0.1
									c0,0.5-0.4,0.8-0.9,0.8L12.4,83.9C12.4,83.9,12.4,83.9,12.4,83.9z M13.2,78.7V82l3.7,0L13.2,78.7z"/>
							</g>
						</g>
					</g>
				</g>
				<g>
					<g>
						<path fill="#FFFFFF" d="M23.2,92.6h-8.8c-0.5,0-0.9-0.4-0.9-0.9c0-0.5,0.4-0.9,0.9-0.9h8.8c0.5,0,0.9,0.4,0.9,0.9
							C24.1,92.1,23.7,92.6,23.2,92.6z"/>
					</g>
				</g>
			</g>
			<g>
				<g>
					<path fill="#FFFFFF" d="M45.3,69.6H19.6c-0.3,0-0.6-0.2-0.8-0.4c-0.2-0.3-0.2-0.6-0.1-0.9l5.6-13.5c1.2-3,3.7-4.8,6.5-4.8h15
						c0.5,0,0.9,0.4,0.9,0.9s-0.4,0.9-0.9,0.9h-15c-2,0-3.8,1.4-4.8,3.7L21,67.8h24.4c0.5,0,0.9,0.4,0.9,0.9
						C46.3,69.2,45.8,69.6,45.3,69.6z"/>
				</g>
			</g>
			<g>
				<g>
					<path fill="#FFFFFF" d="M45.8,76.3H17.9c-0.5,0-0.9-0.4-0.9-0.9s0.4-0.9,0.9-0.9h27.9c0.5,0,0.9,0.4,0.9,0.9
						S46.3,76.3,45.8,76.3z"/>
				</g>
			</g>
		</g>
		<g>
			<g>
				<g>
					<path fill="#FFFFFF" d="M102,52.9H63.1c-0.5,0-0.9-0.4-0.9-0.9c0-0.5,0.4-0.9,0.9-0.9H102c0.5,0,0.9,0.4,0.9,0.9
						C102.9,52.5,102.5,52.9,102,52.9z"/>
				</g>
			</g>
			<g>
				<g>
					<path fill="#FFFFFF" d="M102,47.4H63.1c-0.5,0-0.9-0.4-0.9-0.9s0.4-0.9,0.9-0.9H102c0.5,0,0.9,0.4,0.9,0.9S102.5,47.4,102,47.4
						z"/>
				</g>
			</g>
			<g>
				<g>
					<path fill="#FFFFFF" d="M98.1,63.9h-35c-0.5,0-0.9-0.4-0.9-0.9c0-0.5,0.4-0.9,0.9-0.9h35c0.5,0,0.9,0.4,0.9,0.9
						C99,63.5,98.6,63.9,98.1,63.9z"/>
				</g>
			</g>
			<g>
				<g>
					<path fill="#FFFFFF" d="M100.8,58.4H63.1c-0.5,0-0.9-0.4-0.9-0.9s0.4-0.9,0.9-0.9h37.8c0.5,0,0.9,0.4,0.9,0.9
						S101.3,58.4,100.8,58.4z"/>
				</g>
			</g>
			<g>
				<g>
					<path fill="#FFFFFF" d="M98.1,74.9h-35c-0.5,0-0.9-0.4-0.9-0.9c0-0.5,0.4-0.9,0.9-0.9h35c0.5,0,0.9,0.4,0.9,0.9
						C99,74.5,98.6,74.9,98.1,74.9z"/>
				</g>
			</g>
			<g>
				<g>
					<path fill="#FFFFFF" d="M102,69.4H63.1c-0.5,0-0.9-0.4-0.9-0.9c0-0.5,0.4-0.9,0.9-0.9H102c0.5,0,0.9,0.4,0.9,0.9
						C102.9,69,102.5,69.4,102,69.4z"/>
				</g>
			</g>
			<g>
				<g>
					<path fill="#FFFFFF" d="M102,85.9H63.1c-0.5,0-0.9-0.4-0.9-0.9s0.4-0.9,0.9-0.9H102c0.5,0,0.9,0.4,0.9,0.9S102.5,85.9,102,85.9
						z"/>
				</g>
			</g>
			<g>
				<g>
					<path fill="#FFFFFF" d="M100.6,80.4H63.1c-0.5,0-0.9-0.4-0.9-0.9c0-0.5,0.4-0.9,0.9-0.9h37.5c0.5,0,0.9,0.4,0.9,0.9
						C101.5,80,101.1,80.4,100.6,80.4z"/>
				</g>
			</g>
		</g>
	</g>
</g>
<g id="mobility" display="none">
	<g display="inline">
		<g>
			<g>
				<g>
					<g>
						<path fill="#FFFFFF" d="M105.4,89.2h-3.2c-0.9,0-1.8-0.2-2.6-0.7c0,0-0.1,0-0.1-0.1c-1.7-1-2.9-2.8-2.9-4.9v-2.3H53.8v2.3
							c0,3.1-2.6,5.7-5.7,5.7h-3.2c-3.1,0-5.7-2.6-5.7-5.7v-3.6c-2-1.4-3.2-3.6-3.2-6V62.8c0-3.8,1.4-7.4,4-10.2h-2.2
							c-3.6,0-6.5-2.9-6.5-6.5c0-2.7,2.2-4.9,4.9-4.9H41c2.5,0,4.5,1.8,4.8,4.2l4.1-8c1.8-3.5,5.4-5.7,9.3-5.7H91
							c3.9,0,7.5,2.2,9.3,5.7l4.1,8c0.4-2.4,2.4-4.2,4.8-4.2h4.8c2.7,0,4.9,2.2,4.9,4.9c0,3.6-2.9,6.5-6.5,6.5h-2.2
							c2.5,2.8,4,6.4,4,10.2v11.1c0,2.4-1.2,4.6-3.2,6v3.6C111.1,86.6,108.5,89.2,105.4,89.2z M102.2,87.3h3.1
							c2.1,0,3.8-1.7,3.8-3.8v-4.1c0-0.3,0.2-0.6,0.5-0.8c1.7-1,2.7-2.7,2.7-4.7V62.8c0-4.1-1.8-7.8-5-10.4c-0.3-0.2-0.4-0.7-0.3-1
							c0.1-0.4,0.5-0.6,0.9-0.6h4.6c2.6,0,4.6-2.1,4.6-4.6c0-1.7-1.4-3.1-3.1-3.1h-4.8c-1.7,0-3.1,1.4-3.1,3.1v3
							c0,0.4-0.3,0.8-0.7,0.9c-0.4,0.1-0.8-0.1-1-0.5l-5.8-11.3c-1.5-2.9-4.4-4.7-7.7-4.7H59.2c-3.2,0-6.2,1.8-7.7,4.7l-5.8,11.3
							c-0.2,0.4-0.6,0.6-1,0.5c-0.4-0.1-0.7-0.5-0.7-0.9v-3c0-1.7-1.4-3.1-3.1-3.1h-4.8c-1.7,0-3.1,1.4-3.1,3.1
							c0,2.6,2.1,4.6,4.6,4.6h4.6c0.4,0,0.7,0.2,0.9,0.6c0.1,0.4,0,0.8-0.3,1c-3.2,2.6-5,6.4-5,10.4v11.1c0,1.9,1,3.7,2.7,4.7
							c0.3,0.2,0.5,0.5,0.5,0.8v4.1c0,2.1,1.7,3.8,3.8,3.8h3.2c2.1,0,3.8-1.7,3.8-3.8v-3.2c0-0.5,0.4-0.9,0.9-0.9h44.6
							c0.5,0,0.9,0.4,0.9,0.9v3.2C98.4,85.6,100.1,87.3,102.2,87.3z M106.9,81.2h-6.3c-0.5,0-0.9-0.4-0.9-0.9s0.4-0.9,0.9-0.9h6.3
							c0.5,0,0.9,0.4,0.9,0.9S107.5,81.2,106.9,81.2z M49.7,81.2h-6.4c-0.5,0-0.9-0.4-0.9-0.9s0.4-0.9,0.9-0.9h6.4
							c0.5,0,0.9,0.4,0.9,0.9S50.2,81.2,49.7,81.2z M103.9,70.1c-0.2,0-0.4-0.1-0.6-0.2c-0.3-0.2-0.4-0.6-0.4-1.1
							c0-0.4,0.1-0.8,0.4-1l6.2-5.6c0.2-0.2,0.6-0.3,0.9-0.2c0.3,0.1,0.5,0.3,0.6,0.6c0.1,0.2,0.1,0.3,0.1,0.5v5.7
							c0,0.1,0,0.2,0,0.3c0,0,0,0.1,0,0.1c0,0.5-0.4,0.8-0.9,0.8L103.9,70.1C103.9,70.1,103.9,70.1,103.9,70.1z M109.2,65l-3.7,3.3
							l3.7,0L109.2,65z M40.3,70.1c-0.2,0-0.4-0.1-0.6-0.2c-0.3-0.2-0.5-0.6-0.5-1.1v-5.7c0-0.2,0-0.4,0.1-0.5
							c0.1-0.3,0.3-0.5,0.6-0.6c0.3-0.1,0.6,0,0.9,0.2l6.2,5.6c0,0,0,0,0,0c0.3,0.2,0.4,0.6,0.4,1c0,0.1,0,0.2,0,0.3
							c0,0,0,0.1,0,0.1c0,0.5-0.4,0.8-0.9,0.8L40.3,70.1C40.3,70.1,40.3,70.1,40.3,70.1z M41.1,64.9v3.3l3.7,0L41.1,64.9z M102.3,51
							H48c-0.3,0-0.6-0.2-0.8-0.4c-0.2-0.3-0.2-0.6,0-0.9l5.6-10.9c1.3-2.4,3.7-3.9,6.5-3.9H91c2.7,0,5.2,1.5,6.5,3.9l5.6,10.9
							c0.1,0.3,0.1,0.6,0,0.9C102.9,50.8,102.6,51,102.3,51z M49.5,49.2h51.3l-4.9-9.5c-0.9-1.8-2.8-2.9-4.8-2.9H59.2
							c-2,0-3.9,1.1-4.8,2.9L49.5,49.2z"/>
					</g>
				</g>
			</g>
		</g>
		<g>
			<g>
				<path fill="#FFFFFF" d="M91.6,61.3H61.9c-0.5,0-0.9-0.4-0.9-0.9c0-0.5,0.4-0.9,0.9-0.9h29.8c0.5,0,0.9,0.4,0.9,0.9
					C92.5,60.9,92.1,61.3,91.6,61.3z"/>
			</g>
		</g>
	</g>
	<g display="inline">
		<g>
			<g>
				<g>
					<g>
						<path fill="#FFFFFF" d="M67.8,86.4h-2.9c-0.8,0-1.6-0.2-2.4-0.6c-0.1,0-0.1-0.1-0.1-0.1c-1.1-0.7-2-1.7-2.4-3
							c-0.1-0.5,0.1-1,0.6-1.1c0.5-0.1,1,0.1,1.1,0.6c0.4,1.4,1.8,2.4,3.2,2.4h2.8c1.5,0,2.8-0.9,3.2-2.3c0.2-0.5,0.7-0.7,1.2-0.6
							c0.5,0.2,0.7,0.7,0.6,1.2C72,84.9,70,86.4,67.8,86.4z M16.2,86.4h-2.9c-2.9,0-5.2-2.3-5.2-5.2V78c-1.8-1.2-2.9-3.3-2.9-5.4
							v-10c0-3.4,1.2-6.6,3.5-9.1H6.9c-3.3,0-5.9-2.7-5.9-5.9C1,45,3,43,5.5,43h4.3c2.2,0,4,1.5,4.4,3.6l3.6-7
							c1.6-3.2,4.9-5.2,8.5-5.2h23.7c0.5,0,0.9,0.4,0.9,0.9s-0.4,0.9-0.9,0.9H26.3c-2.9,0-5.5,1.6-6.8,4.2l-5.3,10.2
							c-0.2,0.4-0.6,0.6-1,0.5c-0.4-0.1-0.7-0.5-0.7-0.9v-2.7c0-1.5-1.2-2.7-2.7-2.7H5.5c-1.5,0-2.7,1.2-2.7,2.7
							c0,2.3,1.8,4.1,4.1,4.1H11c0.4,0,0.7,0.2,0.9,0.6c0.1,0.4,0,0.8-0.3,1c-2.9,2.3-4.5,5.7-4.5,9.3v10c0,1.7,0.9,3.3,2.4,4.1
							c0.3,0.2,0.5,0.5,0.5,0.8v3.7c0,1.9,1.5,3.4,3.4,3.4h2.9c1.9,0,3.4-1.5,3.4-3.4v-2.9c0-0.5,0.4-0.9,0.9-0.9h14.4
							c0.5,0,0.9,0.4,0.9,0.9c0,0.5-0.4,0.9-0.9,0.9H21.5v1.9C21.5,84.1,19.1,86.4,16.2,86.4z M17.7,79.2h-5.7
							c-0.5,0-0.9-0.4-0.9-0.9c0-0.5,0.4-0.9,0.9-0.9h5.7c0.5,0,0.9,0.4,0.9,0.9C18.6,78.8,18.2,79.2,17.7,79.2z M9.2,69.2
							c-0.2,0-0.4-0.1-0.6-0.2c-0.3-0.2-0.5-0.6-0.5-1v-5.2c0-0.2,0-0.3,0.1-0.5c0.1-0.3,0.3-0.5,0.6-0.6c0.3-0.1,0.6,0,0.9,0.2
							l5.6,5c0,0,0,0,0,0c0.3,0.2,0.4,0.6,0.4,1c0,0.1,0,0.2,0,0.2c0,0,0,0.1,0,0.1c0,0.5-0.4,0.8-0.9,0.8L9.2,69.2
							C9.2,69.2,9.2,69.2,9.2,69.2z M10,64.7v2.7l3,0L10,64.7z M31.3,52H16.1c-0.3,0-0.6-0.2-0.8-0.4c-0.2-0.3-0.2-0.6,0-0.9l5-9.8
							c1.1-2.2,3.4-3.6,5.9-3.6h20.4c0.5,0,0.9,0.4,0.9,0.9s-0.4,0.9-0.9,0.9H26.3c-1.8,0-3.4,1-4.3,2.6l-4.4,8.4h13.6
							c0.5,0,0.9,0.4,0.9,0.9S31.8,52,31.3,52z"/>
					</g>
				</g>
			</g>
		</g>
		<g>
			<g>
				<path fill="#FFFFFF" d="M34.8,61.3h-6.2c-0.5,0-0.9-0.4-0.9-0.9c0-0.5,0.4-0.9,0.9-0.9h6.2c0.5,0,0.9,0.4,0.9,0.9
					C35.7,60.9,35.3,61.3,34.8,61.3z"/>
			</g>
		</g>
	</g>
</g>
<g id="lead_time" display="none">
	<g display="inline">
		<g>
			<g>
				<path fill="#FFFFFF" d="M109.7,84.8H55.1c-4.5,0-8.2-3.7-8.2-8.2V42c0-4.5,3.7-8.2,8.2-8.2h54.6c4.5,0,8.2,3.7,8.2,8.2v34.5
					C118,81.1,114.3,84.8,109.7,84.8z M55.1,35.7c-3.5,0-6.4,2.9-6.4,6.4v34.5c0,3.5,2.9,6.4,6.4,6.4h54.6c3.5,0,6.4-2.9,6.4-6.4V42
					c0-3.5-2.9-6.4-6.4-6.4H55.1z"/>
			</g>
		</g>
		<g>
			<g>
				<path fill="#FFFFFF" d="M116.9,45h-69C47.4,45,47,44.5,47,44c0-0.5,0.4-0.9,0.9-0.9h69c0.5,0,0.9,0.4,0.9,0.9
					C117.8,44.5,117.4,45,116.9,45z"/>
			</g>
		</g>
		<g>
			<g>
				<path fill="#FFFFFF" d="M63.1,38.9c-0.5,0-0.9-0.4-0.9-0.9v-9c0-0.5,0.4-0.9,0.9-0.9S64,28.5,64,29v9
					C64,38.5,63.6,38.9,63.1,38.9z"/>
			</g>
		</g>
		<g>
			<g>
				<path fill="#FFFFFF" d="M98,38.9c-0.5,0-0.9-0.4-0.9-0.9v-9c0-0.5,0.4-0.9,0.9-0.9S99,28.5,99,29v9C99,38.5,98.6,38.9,98,38.9z"
					/>
			</g>
		</g>
		<g>
			<g>
				<path fill="#FFFFFF" d="M80.6,38.9c-0.5,0-0.9-0.4-0.9-0.9v-9c0-0.5,0.4-0.9,0.9-0.9s0.9,0.4,0.9,0.9v9
					C81.5,38.5,81.1,38.9,80.6,38.9z"/>
			</g>
		</g>
		<g>
			<g>
				<g>
					<g>
						<g>
							<path fill="#FFFFFF" d="M72.4,65.4h-1.1c-0.5,0-0.9-0.4-0.9-0.9v-1.1c0-0.5,0.4-0.9,0.9-0.9h1.1c0.5,0,0.9,0.4,0.9,0.9v1.1
								C73.3,65,72.9,65.4,72.4,65.4z"/>
						</g>
					</g>
				</g>
				<g>
					<g>
						<g>
							<path fill="#FFFFFF" d="M61.7,65.4h-1.1c-0.5,0-0.9-0.4-0.9-0.9v-1.1c0-0.5,0.4-0.9,0.9-0.9h1.1c0.5,0,0.9,0.4,0.9,0.9v1.1
								C62.7,65,62.2,65.4,61.7,65.4z"/>
						</g>
					</g>
				</g>
				<g>
					<g>
						<g>
							<path fill="#FFFFFF" d="M83,65.4h-1.1c-0.5,0-0.9-0.4-0.9-0.9v-1.1c0-0.5,0.4-0.9,0.9-0.9H83c0.5,0,0.9,0.4,0.9,0.9v1.1
								C83.9,65,83.5,65.4,83,65.4z"/>
						</g>
					</g>
				</g>
				<g>
					<g>
						<g>
							<path fill="#FFFFFF" d="M93.6,65.4h-1.1c-0.5,0-0.9-0.4-0.9-0.9v-1.1c0-0.5,0.4-0.9,0.9-0.9h1.1c0.5,0,0.9,0.4,0.9,0.9v1.1
								C94.6,65,94.1,65.4,93.6,65.4z"/>
						</g>
					</g>
				</g>
				<g>
					<g>
						<g>
							<path fill="#FFFFFF" d="M104.3,65.4h-1.1c-0.5,0-0.9-0.4-0.9-0.9v-1.1c0-0.5,0.4-0.9,0.9-0.9h1.1c0.5,0,0.9,0.4,0.9,0.9v1.1
								C105.2,65,104.8,65.4,104.3,65.4z"/>
						</g>
					</g>
				</g>
			</g>
			<g>
				<g>
					<g>
						<g>
							<path fill="#FFFFFF" d="M72.4,54.8h-1.1c-0.5,0-0.9-0.4-0.9-0.9v-1.1c0-0.5,0.4-0.9,0.9-0.9h1.1c0.5,0,0.9,0.4,0.9,0.9v1.1
								C73.3,54.4,72.9,54.8,72.4,54.8z"/>
						</g>
					</g>
				</g>
				<g>
					<g>
						<g>
							<path fill="#FFFFFF" d="M83,54.8h-1.1c-0.5,0-0.9-0.4-0.9-0.9v-1.1c0-0.5,0.4-0.9,0.9-0.9H83c0.5,0,0.9,0.4,0.9,0.9v1.1
								C83.9,54.4,83.5,54.8,83,54.8z"/>
						</g>
					</g>
				</g>
				<g>
					<g>
						<g>
							<path fill="#FFFFFF" d="M93.6,54.8h-1.1c-0.5,0-0.9-0.4-0.9-0.9v-1.1c0-0.5,0.4-0.9,0.9-0.9h1.1c0.5,0,0.9,0.4,0.9,0.9v1.1
								C94.6,54.4,94.1,54.8,93.6,54.8z"/>
						</g>
					</g>
				</g>
				<g>
					<g>
						<g>
							<path fill="#FFFFFF" d="M104.3,54.8h-1.1c-0.5,0-0.9-0.4-0.9-0.9v-1.1c0-0.5,0.4-0.9,0.9-0.9h1.1c0.5,0,0.9,0.4,0.9,0.9v1.1
								C105.2,54.4,104.8,54.8,104.3,54.8z"/>
						</g>
					</g>
				</g>
			</g>
			<g>
				<g>
					<g>
						<g>
							<path fill="#FFFFFF" d="M72.4,76h-1.1c-0.5,0-0.9-0.4-0.9-0.9V74c0-0.5,0.4-0.9,0.9-0.9h1.1c0.5,0,0.9,0.4,0.9,0.9v1.1
								C73.3,75.6,72.9,76,72.4,76z"/>
						</g>
					</g>
				</g>
				<g>
					<g>
						<g>
							<path fill="#FFFFFF" d="M61.7,76h-1.1c-0.5,0-0.9-0.4-0.9-0.9V74c0-0.5,0.4-0.9,0.9-0.9h1.1c0.5,0,0.9,0.4,0.9,0.9v1.1
								C62.7,75.6,62.2,76,61.7,76z"/>
						</g>
					</g>
				</g>
				<g>
					<g>
						<g>
							<path fill="#FFFFFF" d="M83,76h-1.1c-0.5,0-0.9-0.4-0.9-0.9V74c0-0.5,0.4-0.9,0.9-0.9H83c0.5,0,0.9,0.4,0.9,0.9v1.1
								C83.9,75.6,83.5,76,83,76z"/>
						</g>
					</g>
				</g>
				<g>
					<g>
						<g>
							<path fill="#FFFFFF" d="M93.6,76h-1.1c-0.5,0-0.9-0.4-0.9-0.9V74c0-0.5,0.4-0.9,0.9-0.9h1.1c0.5,0,0.9,0.4,0.9,0.9v1.1
								C94.6,75.6,94.1,76,93.6,76z"/>
						</g>
					</g>
				</g>
			</g>
		</g>
	</g>
	<g display="inline">
		<g>
			<g>
				<g>
					<g>
						<g>
							<path fill="#FFFFFF" d="M18.9,92.8h-3.2c-3.1,0-5.7-2.6-5.7-5.7v-3.6c-2-1.4-3.2-3.6-3.2-6V66.4c0-3.8,1.4-7.4,4-10.2H8.5
								C5,56.2,2,53.3,2,49.7c0-2.7,2.2-4.9,4.9-4.9h4.8c2.5,0,4.5,1.8,4.8,4.2l4.1-8c1.8-3.5,5.4-5.7,9.3-5.7h17
								c0.5,0,0.9,0.4,0.9,0.9c0,0.5-0.4,0.9-0.9,0.9H30c-3.2,0-6.2,1.8-7.7,4.7l-5.8,11.3c-0.2,0.4-0.6,0.6-1,0.5
								c-0.4-0.1-0.7-0.5-0.7-0.9v-3c0-1.7-1.4-3.1-3.1-3.1H6.9c-1.7,0-3.1,1.4-3.1,3.1c0,2.6,2.1,4.6,4.6,4.6h4.6
								c0.4,0,0.7,0.2,0.9,0.6c0.1,0.4,0,0.8-0.3,1c-3.2,2.6-5,6.4-5,10.4v11.1c0,1.9,1,3.7,2.7,4.7c0.3,0.2,0.5,0.5,0.5,0.8v4.1
								c0,2.1,1.7,3.8,3.8,3.8h3.2c2.1,0,3.8-1.7,3.8-3.8v-3.2c0-0.5,0.4-0.9,0.9-0.9h20.4c0.5,0,0.9,0.4,0.9,0.9
								c0,0.5-0.4,0.9-0.9,0.9H24.6v2.3C24.6,90.2,22,92.8,18.9,92.8z M20.5,84.8h-6.4c-0.5,0-0.9-0.4-0.9-0.9
								c0-0.5,0.4-0.9,0.9-0.9h6.4c0.5,0,0.9,0.4,0.9,0.9C21.4,84.4,21,84.8,20.5,84.8z M11,73.7c-0.2,0-0.4-0.1-0.6-0.2
								c-0.3-0.2-0.5-0.6-0.5-1.1v-5.7c0-0.2,0-0.4,0.1-0.5c0.1-0.3,0.3-0.5,0.6-0.6c0.3-0.1,0.6,0,0.9,0.2l6.2,5.6c0,0,0,0,0,0
								c0.3,0.2,0.4,0.6,0.4,1c0,0.1,0,0.2,0,0.3c0,0,0,0.1,0,0.1c0,0.5-0.4,0.8-0.9,0.9L11,73.7C11,73.7,11,73.7,11,73.7z
								 M11.8,68.6v3.3l3.7,0L11.8,68.6z M44.1,54.6H18.7c-0.3,0-0.6-0.2-0.8-0.4c-0.2-0.3-0.2-0.6,0-0.9l5.6-10.9
								c1.3-2.4,3.7-3.9,6.5-3.9h14c0.5,0,0.9,0.4,0.9,0.9s-0.4,0.9-0.9,0.9H30c-2,0-3.9,1.1-4.8,2.9l-4.9,9.5h23.8
								c0.5,0,0.9,0.4,0.9,0.9S44.6,54.6,44.1,54.6z"/>
						</g>
					</g>
				</g>
			</g>
			<g>
				<g>
					<path fill="#FFFFFF" d="M44.1,65H32.6c-0.5,0-0.9-0.4-0.9-0.9c0-0.5,0.4-0.9,0.9-0.9h11.4c0.5,0,0.9,0.4,0.9,0.9
						C45,64.5,44.6,65,44.1,65z"/>
				</g>
			</g>
		</g>
		<g>
			<g>
				<g>
					<g>
						<g>
							
								<path fill="#FFFFFF" stroke="#000000" stroke-width="4" stroke-linecap="round" stroke-linejoin="round" stroke-miterlimit="10" d="
								M42.9,84.8 M33.3,43.6"/>
						</g>
					</g>
				</g>
			</g>
		</g>
	</g>
</g>
<g display="none">
	
		<path display="inline" fill="none" stroke="#000000" stroke-width="2" stroke-linecap="round" stroke-linejoin="round" stroke-miterlimit="10" d="
		M55.6,57.2c-0.4,1.6-0.6,3.3-0.6,5c0,12.8,10.4,23.2,23.2,23.2s23.2-10.4,23.2-23.2S91.1,39,78.3,39c-6.6,0-12.6,2.8-16.8,7.2"/>
	
		<circle display="inline" fill="none" stroke="#000000" stroke-width="2" stroke-linecap="round" stroke-linejoin="round" stroke-miterlimit="10" cx="78.3" cy="62.2" r="7.7"/>
	
		<path display="inline" fill="none" stroke="#000000" stroke-width="2" stroke-linecap="round" stroke-linejoin="round" stroke-miterlimit="10" d="
		M41.7,49.8c-1.3,3.9-2.1,8.1-2.1,12.5c0,21.3,17.3,38.6,38.6,38.6s38.6-17.3,38.6-38.6S99.6,23.6,78.3,23.6
		c-12.6,0-23.7,6-30.8,15.3"/>
	<g display="inline">
		
			<line fill="none" stroke="#000000" stroke-width="2" stroke-linecap="round" stroke-linejoin="round" stroke-miterlimit="10" x1="63.9" y1="54.6" x2="10.2" y2="26.1"/>
		
			<polyline fill="none" stroke="#000000" stroke-width="2" stroke-linecap="round" stroke-linejoin="round" stroke-miterlimit="10" points="
			9.5,19.1 10.2,26.1 4.1,29.4 		"/>
		
			<polyline fill="none" stroke="#000000" stroke-width="2" stroke-linecap="round" stroke-linejoin="round" stroke-miterlimit="10" points="
			15.7,22.4 16.4,29.3 10.2,32.6 		"/>
	</g>
</g>
<g id="objects">
	<path fill="#FFFFFF" d="M55.8,56.2c-0.5-0.1-1.1,0.2-1.2,0.8c-0.4,1.7-0.6,3.5-0.6,5.2c0,13.3,10.9,24.2,24.2,24.2
		s24.2-10.9,24.2-24.2S91.6,38,78.3,38c-6.7,0-12.9,2.7-17.5,7.6c-0.4,0.4-0.4,1,0,1.4c0.4,0.4,1,0.4,1.4,0c4.2-4.5,10-6.9,16.1-6.9
		c12.2,0,22.2,10,22.2,22.2c0,12.2-10,22.2-22.2,22.2s-22.2-10-22.2-22.2c0-1.6,0.2-3.2,0.5-4.8C56.7,56.9,56.4,56.3,55.8,56.2z"/>
	<path fill="#FFFFFF" d="M87,62.2c0-4.8-3.9-8.7-8.7-8.7s-8.7,3.9-8.7,8.7c0,4.8,3.9,8.7,8.7,8.7S87,67,87,62.2z M71.5,62.2
		c0-3.7,3-6.7,6.7-6.7s6.7,3,6.7,6.7S82,69,78.3,69S71.5,65.9,71.5,62.2z"/>
	<path fill="#FFFFFF" d="M78.3,22.6c-12.5,0-24,5.7-31.6,15.7c-0.3,0.4-0.2,1.1,0.2,1.4c0.4,0.3,1.1,0.2,1.4-0.2
		c7.2-9.5,18.1-14.9,30-14.9c20.8,0,37.6,16.9,37.6,37.6S99,99.9,78.3,99.9S40.6,83,40.6,62.2c0-4.1,0.7-8.2,2-12.1
		c0.2-0.5-0.1-1.1-0.6-1.3c-0.5-0.2-1.1,0.1-1.3,0.6c-1.4,4.1-2.1,8.4-2.1,12.8c0,21.9,17.8,39.6,39.6,39.6s39.6-17.8,39.6-39.6
		C117.9,40.4,100.1,22.6,78.3,22.6z"/>
	<path fill="#FFFFFF" d="M63.4,55.5c0.1,0.1,0.3,0.1,0.5,0.1c0.4,0,0.7-0.2,0.9-0.5c0.3-0.5,0.1-1.1-0.4-1.4l-47.1-25l-0.6-6.4
		c-0.1-0.5-0.5-1-1.1-0.9c-0.5,0.1-1,0.5-0.9,1.1l0.5,5.1l-4-2.1L10.5,19c-0.1-0.5-0.5-1-1.1-0.9c-0.5,0.1-1,0.5-0.9,1.1l0.6,6.3
		l-5.5,3c-0.5,0.3-0.7,0.9-0.4,1.4c0.2,0.3,0.5,0.5,0.9,0.5c0.2,0,0.3,0,0.5-0.1l5.7-3.1l4,2.1l-4.5,2.4c-0.5,0.3-0.7,0.9-0.4,1.4
		c0.2,0.3,0.5,0.5,0.9,0.5c0.2,0,0.3,0,0.5-0.1l5.7-3.1L63.4,55.5z"/>
</g>
</svg>
