<?xml version="1.0" standalone="no"?>
<!DOCTYPE svg PUBLIC "-//W3C//DTD SVG 1.1//EN" "http://www.w3.org/Graphics/SVG/1.1/DTD/svg11.dtd" >
<svg xmlns="http://www.w3.org/2000/svg" xmlns:xlink="http://www.w3.org/1999/xlink" version="1.1">
<metadata>
Created by FontForge 20161013 at Tue Jan 19 15:51:20 2016
 By ,,,
Copyright (c) 2014 by Fontsmith Ltd. All rights reserved.
</metadata>
<defs>
<font id="JLREmeric-SemiBold" horiz-adv-x="1333" >
  <font-face 
    font-family="JLR Emeric SemiBold"
    font-weight="600"
    font-stretch="normal"
    units-per-em="2048"
    panose-1="2 0 5 3 4 0 0 2 0 4"
    ascent="1497"
    descent="-551"
    x-height="999"
    cap-height="1358"
    bbox="-115 -514 2148 1890"
    underline-thickness="102"
    underline-position="-408"
    unicode-range="U+000D-FB04"
  />
<missing-glyph horiz-adv-x="748" 
d="M68 0v1365h544v-1365h-544zM136 68h408v1229h-408v-1229z" />
    <glyph glyph-name="uniFB01" unicode="fi" horiz-adv-x="1273" 
d="M4 793v163l176 37q-26 80 -26 154q0 145 107.5 235.5t277.5 90.5q181 0 354 -111l-62 -158l-81 19q-94 20 -162 20q-168 0 -168 -135q0 -63 20 -109h336v-206h-325v-793h-265v793h-182zM887 0v999h264v-999h-264z" />
    <glyph glyph-name="uniFB02" unicode="fl" horiz-adv-x="1351" 
d="M4 793v163l176 37q-30 79 -30 162q0 145 97.5 231.5t252.5 86.5q157 0 311 -93l-41 -159l-70 10q-99 14 -131 12q-153 0 -153 -129q0 -62 24 -115h336v-206h-325v-793h-265v793h-182zM903 238v1214h264v-1237l168 -35v-139q-37 -19 -97 -33t-105 -14q-105 0 -168 63
q-62 65 -62 181z" />
    <glyph glyph-name="uniFB03" unicode="ffi" horiz-adv-x="2007" 
d="M4 793v163l174 37q-24 63 -24 154q0 145 98.5 232t259.5 87q152 0 313 -94l-41 -155l-73 10q-94 12 -133 12q-158 0 -158 -133q0 -45 20 -107h473q-26 80 -26 148q0 145 107.5 235.5t277.5 90.5q181 0 354 -111l-61 -158l-82 19q-94 20 -162 20q-168 0 -168 -135
q0 -61 21 -109h335v-206h-325v-793h-266v793h-467v-793h-265v793h-182zM1620 0v999h264v-999h-264z" />
    <glyph glyph-name="uniFB04" unicode="ffl" horiz-adv-x="2086" 
d="M4 793v163l174 37q-24 63 -24 154q0 145 98.5 232t259.5 87q152 0 313 -94l-41 -155l-73 10q-94 12 -133 12q-158 0 -158 -133q0 -45 20 -107h467q-24 84 -24 154q0 144 97.5 232t254.5 88t311 -93l-41 -159l-69 10q-99 14 -131 12q-156 0 -156 -131q0 -56 22 -113h334
v-206h-327v-793h-265v793h-462v-793h-265v793h-182zM1638 238v1214h265v-1237l168 -35v-139q-37 -19 -97.5 -33t-105.5 -14q-105 0 -168 63q-62 65 -62 181z" />
    <glyph glyph-name=".notdef" horiz-adv-x="748" 
d="M68 0v1365h544v-1365h-544zM136 68h408v1229h-408v-1229z" />
    <glyph glyph-name="glyph1" horiz-adv-x="0" 
 />
    <glyph glyph-name="glyph1" horiz-adv-x="0" 
 />
    <glyph glyph-name="glyph2" horiz-adv-x="682" 
 />
    <glyph glyph-name="uni000D" unicode="&#xd;" horiz-adv-x="466" 
 />
    <glyph glyph-name="space" unicode=" " horiz-adv-x="466" 
 />
    <glyph glyph-name="exclam" unicode="!" horiz-adv-x="573" 
d="M147 0v266h234q26 0 35.5 -9.5t9.5 -33.5v-223h-279zM152 911v447h270v-447q0 -53 -16 -217l-33 -295h-172l-33 295q-16 164 -16 217z" />
    <glyph glyph-name="quotedbl" unicode="&#x22;" horiz-adv-x="913" 
d="M119 1249v109h280v-109q0 -90 -16 -221l-35 -266h-178l-35 266q-16 131 -16 221zM514 1249v109h281v-109q0 -82 -17 -221l-35 -266h-178l-35 266q-16 131 -16 221z" />
    <glyph glyph-name="numbersign" unicode="#" 
d="M133 379v199h197l35 198h-232v201h268l68 381h215l-68 -381h205l68 381h215l-68 -381h164v-201h-201l-34 -198h235v-199h-270l-66 -379h-215l66 379h-205l-66 -379h-215l66 379h-162zM545 578h205l34 198h-204z" />
    <glyph glyph-name="dollar" unicode="$" 
d="M158 127l71 182l142 -33q112 -27 235 -43v371l-12 4q-217 64 -319.5 156t-102.5 244q0 163 118.5 257.5t315.5 108.5l31 246h147v-248q190 -15 363 -86l-43 -192l-109 12q-139 15 -211 20v-303q239 -70 333.5 -162.5t94.5 -248.5q0 -179 -113.5 -292.5t-314.5 -133.5
l-30 -250h-148v248q-122 12 -241.5 50.5t-206.5 92.5zM438 1010q0 -49 39.5 -78.5t128.5 -57.5v250q-87 -9 -127.5 -36t-40.5 -78zM784 238q78 14 119 54.5t41 104.5q0 56 -35.5 89.5t-124.5 64.5v-313z" />
    <glyph glyph-name="percent" unicode="%" horiz-adv-x="1964" 
d="M94 1022q0 159 108.5 257.5t256.5 98.5q149 0 257.5 -98t108.5 -258q0 -158 -108 -256t-256 -98q-150 0 -258.5 97.5t-108.5 256.5zM305 1022q0 -74 40.5 -115t113.5 -41t114 40t41 116t-40 117t-113 41q-74 0 -115 -41t-41 -117zM524 0l670 1358h246l-672 -1358h-244z
M1139 334q0 159 108 257.5t256 98.5q149 0 258 -98t109 -258q0 -158 -108.5 -256t-256.5 -98q-149 0 -257.5 97.5t-108.5 256.5zM1350 334q0 -75 40.5 -115.5t112.5 -40.5q73 0 114.5 40.5t41.5 115.5q0 76 -40.5 117t-113.5 41q-74 0 -114.5 -41t-40.5 -117z" />
    <glyph glyph-name="ampersand" unicode="&#x26;" horiz-adv-x="1560" 
d="M74 438q0 239 278 367q-69 107 -69 213q0 109 58.5 193t150.5 125.5t198 41.5q165 0 276 -96.5t111 -243.5q0 -204 -268 -370l225 -215q63 77 123 188l113 207l162 -62q-37 -123 -101 -252.5t-139 -232.5l98 -92l180 -29v-135q-31 -21 -80 -36t-96 -15q-67 0 -114 24.5
t-146 110.5q-189 -149 -413 -149q-147 0 -272.5 58.5t-200 164.5t-74.5 235zM336 463q0 -100 86.5 -175t230.5 -75q126 0 224 66l-416 397l-43 -43q-43 -43 -62.5 -81t-19.5 -89zM520 1026q0 -56 39 -110.5t131 -133.5l49 52q111 117 111 194q0 65 -44.5 102t-115.5 37
q-74 0 -122 -37.5t-48 -103.5z" />
    <glyph glyph-name="quotesingle" unicode="'" horiz-adv-x="518" 
d="M119 1249v109h280v-109q0 -90 -16 -221l-35 -266h-178l-35 266q-16 131 -16 221z" />
    <glyph glyph-name="parenleft" unicode="(" horiz-adv-x="729" 
d="M127 444q0 276 119.5 528.5t322.5 413.5l121 -102q-143 -204 -211.5 -402t-68.5 -438t68.5 -437.5t211.5 -403.5l-121 -101q-202 159 -322 412.5t-120 529.5z" />
    <glyph glyph-name="parenright" unicode=")" horiz-adv-x="729" 
d="M39 -397q143 206 211.5 403.5t68.5 437.5t-68.5 438t-211.5 402l121 102q203 -161 322.5 -413.5t119.5 -528.5t-120 -529.5t-322 -412.5z" />
    <glyph glyph-name="asterisk" unicode="*" horiz-adv-x="954" 
d="M82 1010l61 149q9 22 20.5 26.5t33.5 -5.5l217 -123l-47 301h194q32 0 29 -33l-43 -268l256 141l63 -156q14 -35 -28 -41l-252 -51l239 -245l-157 -105q-28 -18 -45 10l-142 250l-159 -278l-158 104q-30 19 4 53l209 211z" />
    <glyph glyph-name="plus" unicode="+" horiz-adv-x="1142" 
d="M150 391v225h307v308h225v-308h309v-225h-309v-311h-225v311h-307z" />
    <glyph glyph-name="comma" unicode="," horiz-adv-x="487" 
d="M43 -260l135 227q8 16 8 21q0 8 -18 20l-31 19q-25 15 -31 24.5t-6 38.5v191h228q31 0 43 -12.5t12 -39.5v-137q0 -60 -7.5 -99.5t-33 -89t-74.5 -104t-133 -131.5z" />
    <glyph glyph-name="hyphen" unicode="-" horiz-adv-x="866" 
d="M100 387v223h666v-223h-666z" />
    <glyph glyph-name="period" unicode="." horiz-adv-x="489" 
d="M102 0v281h228q31 0 43 -12.5t12 -39.5v-229h-283z" />
    <glyph glyph-name="slash" unicode="/" horiz-adv-x="974" 
d="M6 0l686 1358h277l-686 -1358h-277z" />
    <glyph glyph-name="zero" unicode="0" 
d="M92 668v22q0 320 155 504t417 184q265 0 421 -183.5t156 -504.5v-22q0 -320 -155 -504t-418 -184q-264 0 -420 183t-156 505zM381 668q0 -221 70.5 -323.5t214.5 -102.5q147 0 216.5 101t69.5 325v22q0 222 -70 324t-214 102q-146 0 -216.5 -102t-70.5 -324v-22z" />
    <glyph glyph-name="one" unicode="1" 
d="M188 1145l439 192q49 21 94 21h149v-1129h285v-229h-907v229h346v832h-2q-73 -31 -154 -57l-170 -54z" />
    <glyph glyph-name="two" unicode="2" 
d="M150 1188q264 190 509 190q130 0 233 -46t165.5 -140t62.5 -221q0 -133 -74 -242t-278 -287l-242 -213h623v-229h-973v141q0 28 6 43t29 39l410 410q89 90 126.5 132.5t62 91t24.5 99.5q0 86 -54 128t-149 42q-106 0 -269 -59l-126 -47z" />
    <glyph glyph-name="three" unicode="3" 
d="M106 197l91 157l118 -45q218 -82 336 -82q109 0 173.5 51t64.5 146q0 84 -38.5 116.5t-135.5 32.5h-170q-21 0 -29 6.5t-8 24.5v191h256q19 0 26 0.5t16.5 5.5t16.5 16q35 53 35 135q0 174 -203 174q-116 0 -290 -61l-121 -43l-86 170q256 186 512 186q200 0 330 -100.5
t130 -271.5q0 -152 -143 -289q92 -43 140.5 -122.5t48.5 -178.5q0 -201 -140.5 -318.5t-369.5 -117.5q-160 0 -306 57.5t-254 159.5z" />
    <glyph glyph-name="four" unicode="4" 
d="M84 305v187q0 27 6 42.5t27 40.5l588 742q19 24 34.5 32.5t42.5 8.5h271v-826h178v-227h-178v-305h-275v305h-694zM360 532h418v533q-40 -62 -102 -139l-201 -258q-92 -113 -115 -136z" />
    <glyph glyph-name="five" unicode="5" 
d="M129 184l88 160l152 -55q172 -62 276 -62q113 0 177.5 58.5t64.5 163.5q0 97 -68 143.5t-178 46.5q-111 0 -233 -45q-17 -7 -34 -6.5t-40 12.5l-76 43q-32 19 -40.5 32.5t-8.5 41.5v641h866v-238h-620v-149q0 -101 -9 -166q119 55 271 55q200 0 326 -113.5t126 -302.5
q0 -96 -33.5 -179.5t-96 -147.5t-160.5 -100.5t-220 -36.5q-139 0 -283 55.5t-247 148.5z" />
    <glyph glyph-name="six" unicode="6" 
d="M129 627v10q0 168 49 308t134.5 234.5t200.5 146.5t247 52q198 0 368 -110l-69 -176q-6 1 -32 7.5t-35 8.5t-33 7t-35.5 7t-33 5.5t-36 5t-32.5 3t-34 1.5q-162 0 -258.5 -91.5t-111.5 -271.5l45 21q159 73 303 73q191 0 315.5 -113.5t124.5 -308.5q0 -198 -142 -332
t-362 -134q-138 0 -248 51t-180.5 139.5t-107.5 205t-37 251.5zM414 539q0 -139 78.5 -227.5t203.5 -88.5q109 0 175.5 62t66.5 166q0 196 -236 196q-119 0 -239 -49q-35 -14 -42 -24t-7 -35z" />
    <glyph glyph-name="seven" unicode="7" 
d="M147 1118v240h1051v-125q0 -42 -6.5 -63t-26.5 -56l-278 -446q-110 -176 -162 -334.5t-61 -333.5h-285q6 195 48.5 341t139.5 298q180 281 324 479h-744z" />
    <glyph glyph-name="eight" unicode="8" 
d="M111 408q0 186 202 315q-149 102 -149 272q0 167 139.5 275t358.5 108q226 0 365.5 -106t139.5 -266q0 -80 -44.5 -155.5t-121.5 -137.5q220 -106 220 -307q0 -177 -155.5 -301.5t-395.5 -124.5q-159 0 -285 51.5t-200 149.5t-74 227zM379 434q0 -95 81 -154t210 -59
q115 0 193.5 50.5t78.5 129.5q0 57 -52 86t-237 91l-129 43q-28 7 -37 4.5t-26 -17.5q-82 -76 -82 -174zM430 999q0 -23 6.5 -41.5t25 -34.5t34.5 -26.5t53.5 -25t61.5 -22t77 -24.5l84 -28q23 -8 31 -6t28 20q34 32 58 76t24 84q0 81 -70 126.5t-186 45.5q-99 0 -163 -37.5
t-64 -106.5z" />
    <glyph glyph-name="nine" unicode="9" 
d="M119 915q0 197 144.5 330t363.5 133q138 0 248.5 -51t180.5 -139.5t107 -205.5t37 -253v-10q0 -162 -34 -294t-102.5 -233t-181.5 -156.5t-261 -55.5q-109 0 -222.5 35t-197.5 98l71 163l82 -20q159 -37 224 -37q169 0 249 88.5t86 276.5l-45 -23q-141 -71 -303 -74
q-195 0 -320.5 116t-125.5 312zM389 918q0 -104 64 -157.5t174 -53.5t225 41q47 16 56.5 27.5t9.5 41.5q0 144 -79.5 232t-207.5 88q-108 0 -175 -61t-67 -158z" />
    <glyph glyph-name="colon" unicode=":" horiz-adv-x="489" 
d="M102 0v281h228q31 0 43 -12.5t12 -39.5v-229h-283zM102 635v280h228q31 0 43 -12t12 -39v-229h-283z" />
    <glyph glyph-name="semicolon" unicode=";" horiz-adv-x="487" 
d="M43 -260l135 227q8 16 8 21q0 9 -18 18q-14 11 -29.5 21t-20.5 13.5t-10.5 10.5t-6.5 14.5t-1 22.5v193h228q31 0 43 -12.5t12 -39.5v-137q0 -60 -7.5 -99.5t-33 -89t-74.5 -104t-133 -131.5zM100 635v280h228q31 0 43 -12t12 -39v-229h-283z" />
    <glyph glyph-name="less" unicode="&#x3c;" horiz-adv-x="1142" 
d="M150 410v184l841 381v-260l-504 -213v-4l504 -207v-260z" />
    <glyph glyph-name="equal" unicode="=" horiz-adv-x="1142" 
d="M150 184v226h841v-226h-841zM150 596v225h841v-225h-841z" />
    <glyph glyph-name="greater" unicode="&#x3e;" horiz-adv-x="1142" 
d="M150 31v260l503 207v4l-503 213v260l841 -381v-184z" />
    <glyph glyph-name="question" unicode="?" horiz-adv-x="1081" 
d="M45 1186q102 87 236.5 139.5t263.5 52.5q121 0 221.5 -44t163.5 -134.5t63 -212.5q0 -281 -399 -418l-41 -180h-176l-25 139q-10 54 -10 82q0 34 16.5 55.5t59.5 47.5l74 43q42 24 56 32.5t45 27.5t40.5 27t29.5 24.5t25.5 27t14.5 26.5t11.5 32t2.5 36q0 66 -50 102.5
t-137 36.5q-114 0 -268 -57l-123 -45zM332 0v252h225q26 0 35.5 -9.5t9.5 -33.5v-209h-270z" />
    <glyph glyph-name="at" unicode="@" horiz-adv-x="1591" 
d="M86 498q0 126 38.5 238t107 195t160 143.5t199 91t222.5 30.5q145 0 273 -51t216.5 -137t139.5 -201.5t51 -241.5q0 -195 -101.5 -303t-250.5 -108q-66 0 -115.5 21.5t-75.5 55.5l-49 -26q-85 -45 -166 -45q-106 0 -173.5 64t-67.5 159q0 90 63.5 138t169.5 48
q98 0 172 -22v49q0 39 -27 63.5t-79 24.5q-53 0 -140 -25l-67 -22l-56 100q139 109 287 109q124 0 198.5 -69t74.5 -197v-187q0 -86 77 -86q61 0 101.5 57.5t40.5 186.5q0 194 -136.5 326.5t-359.5 132.5q-146 0 -262 -58t-185 -172.5t-69 -267.5q0 -247 146.5 -387.5
t394.5 -140.5q167 0 364 71l166 60l64 -117q-105 -86 -274.5 -143.5t-344.5 -57.5q-160 0 -296.5 54.5t-230.5 148.5t-147 223t-53 275zM676 389q0 -34 24.5 -56t69.5 -22q47 0 104 17q16 5 20.5 10t4.5 20v68q0 10 -10 10h-170q-43 0 -43 -47z" />
    <glyph glyph-name="A" unicode="A" horiz-adv-x="1443" 
d="M27 0l522 1358h278q19 0 26 -5t15 -22l549 -1331h-268q-18 0 -25.5 5t-13.5 20l-98 247h-598l-90 -247q-6 -16 -12.5 -20.5t-24.5 -4.5h-260zM498 500h424l-95 243q-93 238 -125 342q-32 -109 -133 -387z" />
    <glyph glyph-name="B" unicode="B" horiz-adv-x="1343" 
d="M139 0v1358h574q220 0 342.5 -83t122.5 -253q0 -149 -127 -289q213 -113 213 -336q0 -197 -126 -297t-370 -100h-629zM422 238h330q122 0 172.5 39.5t50.5 132.5q0 87 -41.5 124t-151.5 37h-360v-333zM422 795h371q47 0 67 34q37 56 37 138q0 89 -46 121t-159 32h-270
v-325z" />
    <glyph glyph-name="C" unicode="C" horiz-adv-x="1396" 
d="M74 678q0 158 53 291.5t143.5 222t210 137.5t252.5 49q211 0 360.5 -107t221.5 -300l-182 -117l-125 115q-79 73 -146.5 106t-148.5 33q-149 0 -246.5 -110t-97.5 -318q0 -197 101.5 -313.5t285.5 -116.5q130 0 274 69l207 101l111 -144q-115 -130 -277 -213t-346 -83
q-145 0 -267.5 53t-206.5 146t-130.5 221.5t-46.5 277.5z" />
    <glyph glyph-name="D" unicode="D" horiz-adv-x="1472" 
d="M139 0v1358h453q410 0 606 -170q201 -173 201 -510q0 -335 -201 -508q-196 -170 -606 -170h-453zM422 246h162q154 0 255 26t162 86q105 102 105 322q0 217 -105 319q-62 60 -163 86.5t-254 26.5h-162v-866z" />
    <glyph glyph-name="E" unicode="E" horiz-adv-x="1251" 
d="M139 0v1358h979v-238h-696v-309h629v-236h-629v-337h717v-238h-1000z" />
    <glyph glyph-name="F" unicode="F" horiz-adv-x="1175" 
d="M139 0v1358h961v-238h-678v-332h606v-233h-606v-555h-283z" />
    <glyph glyph-name="G" unicode="G" horiz-adv-x="1513" 
d="M74 678q0 158 55.5 291.5t149 222t216 137.5t257.5 49q205 0 358.5 -94.5t228.5 -265.5l-178 -123l-153 115q-71 54 -132.5 78t-138.5 24q-163 0 -265.5 -112.5t-102.5 -319.5q0 -210 102.5 -321t292.5 -111q77 0 165.5 14t147.5 37q22 8 29.5 17.5t7.5 31.5v158h-223
v211h457q23 0 32 -6.5t9 -28.5v-682h-205l-43 123l-105 -57q-158 -86 -315 -86q-192 0 -340 90.5t-227.5 249t-79.5 358.5z" />
    <glyph glyph-name="H" unicode="H" horiz-adv-x="1480" 
d="M139 0v1358h283v-537h637v537h282v-1358h-282v575h-637v-575h-283z" />
    <glyph glyph-name="I" unicode="I" horiz-adv-x="573" 
d="M145 0v1358h283v-1358h-283z" />
    <glyph glyph-name="J" unicode="J" horiz-adv-x="1050" 
d="M47 111l57 172l119 -23q151 -29 230 -29q105 0 147 48q37 45 37 151v928h283v-920q0 -224 -115 -342q-116 -116 -309 -116q-116 0 -235 35t-214 96z" />
    <glyph glyph-name="K" unicode="K" horiz-adv-x="1366" 
d="M139 0v1358h283v-600l713 616l159 -172l-487 -411l547 -791h-291q-23 0 -33 5t-22 22l-408 598q-71 -62 -178 -117v-508h-283z" />
    <glyph glyph-name="L" unicode="L" horiz-adv-x="1163" 
d="M139 0v1358h283v-1120h670v-238h-953z" />
    <glyph glyph-name="M" unicode="M" horiz-adv-x="1742" 
d="M139 0v1358h228q21 0 31 -6t24 -25l448 -561h13l440 561q14 19 24 25t31 6h226v-1358h-275v930h-4l-352 -453h-168q-31 0 -49 23l-340 430h-4v-930h-273z" />
    <glyph glyph-name="N" unicode="N" horiz-adv-x="1523" 
d="M139 0v1358h213q20 0 29.5 -5t21.5 -20l486 -608q167 -209 223 -293v926h272v-1358h-210q-20 0 -31 5t-23 20l-526 661q-54 68 -182 242v-928h-273z" />
    <glyph glyph-name="O" unicode="O" horiz-adv-x="1515" 
d="M74 678q0 157 56 290t150.5 222t218 138.5t257.5 49.5h4q134 0 257.5 -49.5t218 -138.5t150.5 -222t56 -290q0 -125 -36.5 -236.5t-101 -194.5t-150 -144t-186.5 -92t-208 -31h-4q-107 0 -208 31t-186.5 92t-150 144t-101 194.5t-36.5 236.5zM369 678q0 -200 103 -312
t284 -112h4q181 0 284 111.5t103 312.5q0 202 -102.5 313t-284.5 111h-4q-182 0 -284.5 -111t-102.5 -313z" />
    <glyph glyph-name="P" unicode="P" horiz-adv-x="1316" 
d="M139 0v1358h531q160 0 271 -31.5t183 -103.5q115 -118 115 -324q0 -225 -131 -350q-126 -117 -371 -117h-315v-432h-283zM422 668h389q61 0 86 37q24 33 38.5 86t14.5 108q0 112 -55 164q-58 55 -209 55h-264v-450z" />
    <glyph glyph-name="Q" unicode="Q" horiz-adv-x="1515" 
d="M74 678q0 157 56 290t150.5 222t218 138.5t257.5 49.5h4q134 0 257.5 -49.5t218 -138.5t150.5 -222t56 -290q0 -205 -91 -361t-245 -247l223 -340l-276 -111l-193 369q-66 -8 -100 -8q-136 0 -260 49.5t-218.5 137.5t-151 221t-56.5 290zM369 678q0 -200 103 -312
t284 -112h4q181 0 284 111.5t103 312.5q0 202 -102.5 313t-284.5 111h-4q-182 0 -284.5 -111t-102.5 -313z" />
    <glyph glyph-name="R" unicode="R" horiz-adv-x="1374" 
d="M139 0v1358h535q285 0 428 -104t143 -339q0 -130 -60.5 -233.5t-164.5 -169.5l309 -512h-285q-16 0 -22.5 1t-13.5 7.5t-15 20.5l-233 401q-11 19 -19.5 23t-33.5 4h-285v-457h-283zM422 692h407q55 0 80 37q47 68 47 186q0 104 -49 150q-62 53 -225 53h-260v-426z" />
    <glyph glyph-name="S" unicode="S" horiz-adv-x="1212" 
d="M76 123l71 184l140 -31q218 -49 350 -49q106 0 169.5 44.5t63.5 125.5q0 63 -46 96t-171 70l-139 41q-214 63 -319 156.5t-105 245.5q0 119 70 204.5t185.5 126.5t262.5 41q237 0 463 -92l-43 -190l-108 12q-191 22 -295 22q-136 0 -203.5 -29.5t-67.5 -92.5
q0 -54 50.5 -86.5t166.5 -65.5l127 -37q245 -70 342 -161.5t97 -247.5q0 -199 -136 -314.5t-380 -115.5q-131 0 -283 41t-262 102z" />
    <glyph glyph-name="T" unicode="T" horiz-adv-x="1259" 
d="M35 1120v238h1188v-238h-453v-1120h-283v1120h-452z" />
    <glyph glyph-name="U" unicode="U" horiz-adv-x="1447" 
d="M125 559v799h283v-774q0 -97 14.5 -155.5t54.5 -98.5q38 -37 105.5 -58.5t144.5 -21.5t145 21.5t105 58.5q40 40 55 98.5t15 155.5v774h276v-799q0 -144 -36 -244.5t-109 -173.5q-77 -79 -195.5 -120t-259.5 -41q-140 0 -257 41t-196 120q-73 73 -109 173.5t-36 244.5z
" />
    <glyph glyph-name="V" unicode="V" horiz-adv-x="1384" 
d="M16 1358h277q14 0 20.5 -5t12.5 -20l217 -581q93 -252 157 -500h5q91 321 178 563l184 518q6 15 12.5 20t20.5 5h268l-500 -1358h-301q-36 0 -47 33z" />
    <glyph glyph-name="W" unicode="W" horiz-adv-x="2080" 
d="M16 1358h265q27 0 34 -25l179 -581q59 -192 127 -459q50 251 149 590l141 475h230q17 0 23.5 -5t11.5 -20l182 -600q71 -239 115 -440q73 298 141 514l166 526q4 16 10.5 20.5t21.5 4.5h252l-432 -1358h-289q-36 0 -45 29l-104 344q-39 125 -91.5 316.5t-68.5 273.5
q-22 -131 -155 -598l-105 -365h-291q-36 0 -45 29z" />
    <glyph glyph-name="X" unicode="X" horiz-adv-x="1396" 
d="M10 0l506 700l-500 658h297q20 0 29 -4.5t20 -18.5l330 -440l318 440q11 14 20 18.5t27 4.5h276l-477 -656l530 -702h-296q-33 0 -48 20l-360 486l-346 -488q-13 -18 -43 -18h-283z" />
    <glyph glyph-name="Y" unicode="Y" horiz-adv-x="1370" 
d="M0 1358h289q26 0 39 -23l178 -313q58 -103 186 -354q46 99 191 358l172 307q8 14 16 19.5t25 5.5h274l-541 -926v-432h-282v432z" />
    <glyph glyph-name="Z" unicode="Z" horiz-adv-x="1261" 
d="M92 1120v238h1065v-158q0 -20 -6 -33.5t-23 -38.5l-471 -620q-111 -147 -213 -270h721v-238h-1067v156q0 22 5 35t22 38l471 621q28 38 215 270h-719z" />
    <glyph glyph-name="bracketleft" unicode="[" horiz-adv-x="720" 
d="M152 -469v1827h530v-238h-274v-1351h274v-238h-530z" />
    <glyph glyph-name="backslash" unicode="\" horiz-adv-x="974" 
d="M6 1358h277l686 -1358h-277z" />
    <glyph glyph-name="bracketright" unicode="]" horiz-adv-x="720" 
d="M39 -231h274v1351h-274v238h530v-1827h-530v238z" />
    <glyph glyph-name="asciicircum" unicode="^" horiz-adv-x="1142" 
d="M121 913l358 465h187l358 -465l-193 -129l-258 330h-4l-258 -330z" />
    <glyph glyph-name="underscore" unicode="_" horiz-adv-x="1052" 
d="M47 -90h959v-215h-959v215z" />
    <glyph glyph-name="grave" unicode="`" horiz-adv-x="851" 
d="M154 1348l104 155q16 25 33 25q12 0 33 -15l374 -286l-84 -117z" />
    <glyph glyph-name="a" unicode="a" horiz-adv-x="1128" 
d="M61 319q0 134 94 208.5t255 74.5h6q145 0 284 -39v66q0 78 -36 114q-43 43 -148 43q-102 0 -244 -49l-84 -28l-82 143q214 164 441 164q210 0 319 -115q99 -102 99 -289v-405l137 -27v-141q-36 -18 -91.5 -30.5t-97.5 -12.5q-98 0 -176 88l-53 -29q-133 -71 -256 -71
q-161 0 -264 95.5t-103 239.5zM313 330q0 -59 42.5 -95t121.5 -36q49 0 105.5 12.5t91.5 26.5q15 6 20.5 12.5t5.5 21.5v117q0 12 -4.5 16.5t-17.5 4.5h-287q-42 0 -60 -19.5t-18 -60.5z" />
    <glyph glyph-name="b" unicode="b" horiz-adv-x="1173" 
d="M119 0v1452h264v-532l61 30q132 66 232 66q188 0 312 -143.5t124 -372.5q0 -233 -122 -374.5t-314 -141.5q-112 0 -236 65l-84 43l-37 -92h-200zM383 309q0 -17 4 -25t16 -14q92 -43 205 -43q119 0 176.5 61.5t57.5 211.5q0 146 -57 207t-177 61q-117 0 -205 -45
q-14 -7 -17 -14.5t-3 -24.5v-375z" />
    <glyph glyph-name="c" unicode="c" horiz-adv-x="1056" 
d="M61 504q0 150 69 268.5t180 181t241 62.5q168 0 291 -95t162 -243l-175 -88l-92 90q-59 58 -102.5 79t-95.5 21q-90 0 -148.5 -70t-58.5 -202q0 -150 62 -219.5t192 -69.5q93 0 225 53l119 47l88 -143q-90 -83 -214.5 -137.5t-246.5 -54.5q-224 0 -360 142.5t-136 377.5z
" />
    <glyph glyph-name="d" unicode="d" horiz-adv-x="1175" 
d="M61 498q0 224 128.5 371t320.5 147q128 0 283 -94v530h264v-1452h-199l-37 92l-76 -41q-122 -67 -235 -67q-199 0 -324 142.5t-125 371.5zM332 500q0 -150 58 -211.5t177 -61.5q54 0 111 12t94 31q21 10 21 39v379q0 17 -3.5 24.5t-17.5 14.5q-84 43 -205 43
q-120 0 -177.5 -62t-57.5 -208z" />
    <glyph glyph-name="e" unicode="e" horiz-adv-x="1112" 
d="M61 498q0 153 68.5 272.5t182 182.5t249.5 63q212 0 349 -138t137 -339q0 -58 -11 -95q-6 -17 -14.5 -21.5t-28.5 -4.5h-661q11 -93 78.5 -147t185.5 -54q95 0 231 47l113 39l84 -147q-92 -79 -211.5 -125.5t-241.5 -46.5q-220 0 -365 145t-145 369zM332 604h452
q-8 81 -68 130.5t-157 49.5q-98 0 -158 -49.5t-69 -130.5z" />
    <glyph glyph-name="f" unicode="f" horiz-adv-x="786" 
d="M4 793v163l176 37q-24 63 -24 156q0 141 99.5 232.5t266.5 91.5q90 0 182.5 -30t169.5 -81l-61 -158l-96 21q-85 18 -146 18q-149 0 -149 -123q0 -69 20 -121h340v-206h-331v-793h-265v793h-182z" />
    <glyph glyph-name="g" unicode="g" horiz-adv-x="1142" 
d="M20 -182q0 119 127 190q-41 48 -41 94q0 59 70 140l66 75q-148 113 -148 301q0 173 128 285.5t319 112.5q158 0 276 -82q108 102 195 102q85 0 135 -37v-149l-184 -31q-18 -3 -21 -8t4 -20q41 -77 41 -173q0 -175 -128 -286t-318 -111q-37 0 -125 17q-14 3 -20 -1
t-11 -16l-12 -28q-8 -19 -8 -29q0 -19 28 -19h293q373 0 373 -282q0 -111 -69.5 -197.5t-189 -133t-268.5 -46.5q-223 0 -367.5 94.5t-144.5 237.5zM270 -143q0 -68 68 -109t199 -41q124 0 198 39t74 111q0 42 -27 59.5t-96 17.5h-350q-32 0 -47 -20q-19 -25 -19 -57z
M342 618q0 -89 53 -136.5t146 -47.5q91 0 144.5 47.5t53.5 136.5q0 88 -53.5 135.5t-144.5 47.5q-92 0 -145.5 -47.5t-53.5 -135.5z" />
    <glyph glyph-name="h" unicode="h" horiz-adv-x="1150" 
d="M119 0v1452h264v-524l47 26q111 62 221 62q176 0 284.5 -104t108.5 -285v-627h-264v616q0 75 -32 107q-40 43 -154 43h-4q-113 0 -187 -29q-14 -5 -17 -13.5t-3 -25.5v-698h-264z" />
    <glyph glyph-name="i" unicode="i" horiz-adv-x="509" 
d="M123 0v999h264v-999h-264zM123 1159v260h209q32 0 43.5 -11.5t11.5 -39.5v-209h-264z" />
    <glyph glyph-name="j" unicode="j" horiz-adv-x="507" 
d="M-115 -301l117 22q74 13 96.5 37.5t22.5 85.5v1155h264v-1114q0 -97 -14 -162t-50 -111.5t-98 -67.5t-157 -21q-98 0 -181 33v143zM121 1159v260h209q32 0 43.5 -11.5t11.5 -39.5v-209h-264z" />
    <glyph glyph-name="k" unicode="k" horiz-adv-x="1130" 
d="M119 0v1452h264v-850l535 432l147 -168l-332 -266l393 -600h-262q-21 0 -30.5 5t-20.5 20l-274 434q-48 -35 -156 -88v-371h-264z" />
    <glyph glyph-name="l" unicode="l" horiz-adv-x="571" 
d="M123 238v1214h264v-1237l168 -35v-139q-37 -19 -97.5 -33t-105.5 -14q-105 0 -168 63q-61 64 -61 181z" />
    <glyph glyph-name="m" unicode="m" horiz-adv-x="1773" 
d="M121 0v999h201l32 -88l45 27q135 78 254 78q175 0 291 -131l74 41q162 90 278 90q165 0 275 -113q96 -104 96 -274v-629h-266v629q0 74 -37 104q-42 33 -141 33h-4q-98 0 -172 -29q-21 -8 -21 -39v-698h-266v629q0 74 -37 104q-42 33 -141 33h-4q-98 0 -172 -29
q-21 -8 -21 -39v-698h-264z" />
    <glyph glyph-name="n" unicode="n" horiz-adv-x="1150" 
d="M119 0v999h200l33 -88l78 43q108 62 221 62q176 0 284.5 -104t108.5 -285v-627h-264v616q0 75 -32 107q-40 43 -154 43h-4q-113 0 -187 -29q-14 -5 -17 -13.5t-3 -25.5v-698h-264z" />
    <glyph glyph-name="o" unicode="o" horiz-adv-x="1144" 
d="M61 500q0 120 41.5 219t112 163t162 99t192.5 35h6q101 0 192.5 -35t162 -99t112 -163t41.5 -219q0 -121 -41.5 -220t-112 -163t-162 -98.5t-192.5 -34.5h-6q-101 0 -192.5 34.5t-162 98.5t-112 163t-41.5 220zM332 500q0 -271 237 -271h6q238 0 238 271q0 268 -238 268
h-6q-237 0 -237 -268z" />
    <glyph glyph-name="p" unicode="p" horiz-adv-x="1173" 
d="M119 -469v1468h200l37 -92l88 43q74 36 124.5 51t105.5 15q189 0 313.5 -143.5t124.5 -372.5q0 -233 -122 -374.5t-314 -141.5q-106 0 -236 65l-57 29v-547h-264zM383 309q0 -17 4 -25t16 -14q92 -43 205 -43q119 0 176.5 61.5t57.5 211.5q0 146 -57 207t-177 61
q-117 0 -205 -45q-14 -7 -17 -14.5t-3 -24.5v-375z" />
    <glyph glyph-name="q" unicode="q" horiz-adv-x="1177" 
d="M61 498q0 224 128.5 371t320.5 147q151 0 309 -113l39 96h201v-1468h-266v545l-48 -25q-127 -67 -235 -67q-199 0 -324 142.5t-125 371.5zM332 500q0 -150 58 -211.5t177 -61.5q54 0 111 12t94 31q21 10 21 39v379q0 17 -3.5 24.5t-17.5 14.5q-84 43 -205 43
q-120 0 -177.5 -62t-57.5 -208z" />
    <glyph glyph-name="r" unicode="r" horiz-adv-x="786" 
d="M121 0v999h198l41 -122q187 139 289 139q59 0 127 -35v-180l-98 -19q-122 -22 -264 -67q-18 -6 -23.5 -13.5t-5.5 -23.5v-678h-264z" />
    <glyph glyph-name="s" unicode="s" horiz-adv-x="978" 
d="M66 92l55 162l110 -21q166 -32 271 -32q80 0 124 24.5t44 71.5q0 38 -27 56.5t-106 37.5l-129 31q-165 40 -247.5 107t-82.5 192q0 139 115.5 217t304.5 78q200 0 374 -78l-41 -166l-98 10q-160 17 -231 17q-98 0 -141.5 -15t-43.5 -55q0 -30 29 -45.5t98 -32.5l134 -33
q91 -22 150 -46.5t102 -60t62 -83.5t19 -115q0 -150 -106 -239.5t-305 -89.5q-110 0 -229 30.5t-205 77.5z" />
    <glyph glyph-name="t" unicode="t" horiz-adv-x="880" 
d="M0 793v163l180 39v293h264v-289h332v-206h-332v-455q0 -65 27 -92q31 -31 90 -31q34 0 131 18l94 21l62 -148q-67 -53 -161 -87.5t-179 -34.5q-151 0 -238 84q-90 87 -90 260v465h-180z" />
    <glyph glyph-name="u" unicode="u" horiz-adv-x="1148" 
d="M106 373v626h265v-618q0 -74 32 -109q38 -41 156 -41q111 0 184 27q21 8 21 41v700h264v-999h-201l-34 86l-58 -31q-133 -71 -237 -71q-176 0 -284 103t-108 286z" />
    <glyph glyph-name="v" unicode="v" horiz-adv-x="1087" 
d="M0 999h248q20 0 26.5 -4.5t14.5 -23.5l157 -391q86 -214 109 -306q35 127 100 297l150 400q6 18 13.5 23t27.5 5h241l-401 -999h-242q-26 0 -36 23z" />
    <glyph glyph-name="w" unicode="w" horiz-adv-x="1660" 
d="M-2 999h246q19 0 26 -4.5t13 -21.5l98 -305q62 -190 117 -396q40 169 108 400l96 327h222q21 0 29 -5t14 -23l96 -307q88 -285 113 -394q35 136 116 387l101 314q5 16 13 22t26 6h233l-346 -999h-262q-33 0 -41 25l-103 329q-55 181 -86 305q-20 -94 -82 -305l-104 -354
h-262q-32 0 -41 25z" />
    <glyph glyph-name="x" unicode="x" horiz-adv-x="1083" 
d="M6 0l361 516l-353 483h277q19 0 28.5 -4.5t18.5 -17.5l203 -291l198 291q9 13 17.5 17.5t25.5 4.5h256l-338 -489l377 -510h-280q-29 0 -43 20l-226 318h-2l-209 -318q-15 -20 -43 -20h-268z" />
    <glyph glyph-name="y" unicode="y" horiz-adv-x="1087" 
d="M0 999h250q19 0 26.5 -5t14.5 -23l158 -391q83 -207 108 -306q35 127 100 297l150 400q7 18 14.5 23t26.5 5h242l-596 -1482l-254 59l184 414z" />
    <glyph glyph-name="z" unicode="z" horiz-adv-x="993" 
d="M70 0v123q0 32 22 63l359 455q63 81 131 152h-500v206h838v-114q0 -26 -25 -62l-326 -415q-90 -117 -166 -201h527v-207h-860z" />
    <glyph glyph-name="braceleft" unicode="{" horiz-adv-x="780" 
d="M82 354v178q117 37 165 79t48 112q0 52 -24.5 195.5t-24.5 203.5q0 126 81.5 191t215.5 65q83 0 215 -32v-162l-213 -43q-22 -5 -30.5 -15t-8.5 -32q0 -23 22.5 -163.5t22.5 -207.5q0 -99 -55 -164t-199 -117q145 -50 199.5 -115t54.5 -165q0 -66 -22.5 -206.5
t-22.5 -162.5q0 -23 8.5 -32.5t30.5 -14.5l213 -45v-160q-121 -33 -215 -33q-134 0 -215.5 64.5t-81.5 191.5q0 60 24.5 203t24.5 195q0 70 -47.5 111.5t-165.5 80.5z" />
    <glyph glyph-name="bar" unicode="|" horiz-adv-x="561" 
d="M156 -469v1921h250v-1921h-250z" />
    <glyph glyph-name="braceright" unicode="}" horiz-adv-x="780" 
d="M23 -299l213 45q22 5 30 14.5t8 32.5q0 22 -22.5 162.5t-22.5 206.5q0 100 54.5 165t199.5 115q-144 52 -199 117t-55 164q0 67 22.5 207.5t22.5 163.5q0 22 -8 32.5t-30 14.5l-213 43v162q132 32 215 32q134 0 215.5 -65t81.5 -191q0 -60 -25 -203.5t-25 -195.5
q0 -70 48 -112t165 -79v-178q-118 -39 -165.5 -80.5t-47.5 -111.5q0 -52 25 -195t25 -203q0 -127 -81.5 -191.5t-215.5 -64.5q-94 0 -215 33v160z" />
    <glyph glyph-name="asciitilde" unicode="~" horiz-adv-x="1142" 
d="M121 621q19 114 102 192t191 78q56 0 119 -24t118 -48t90 -24q40 0 70 23.5t59 74.5l152 -51q-19 -115 -102 -194t-191 -79q-54 0 -116 24.5t-117.5 48.5t-92.5 24q-42 0 -71 -23.5t-58 -75.5z" />
    <glyph glyph-name="uni00A0" unicode="&#xa0;" horiz-adv-x="466" 
 />
    <glyph glyph-name="exclamdown" unicode="&#xa1;" horiz-adv-x="573" 
d="M137 776v223h279v-266h-234q-26 0 -35.5 9.5t-9.5 33.5zM141 88q0 43 17 217l32 295h172l33 -295q17 -174 17 -217v-446h-271v446z" />
    <glyph glyph-name="cent" unicode="&#xa2;" 
d="M201 504q0 205 117.5 343t295.5 163l31 266h148v-270q127 -26 217 -112t123 -208l-168 -84l-93 88q-47 47 -79 66v-531q69 12 157 49l119 50l86 -144q-72 -69 -167.5 -119t-194.5 -67l-31 -258h-148v254q-192 25 -302.5 162.5t-110.5 351.5zM467 508q0 -224 147 -277v545
q-68 -23 -107.5 -90.5t-39.5 -177.5z" />
    <glyph glyph-name="sterling" unicode="&#xa3;" 
d="M117 571v138l141 34q-37 116 -37 207q0 189 133 308.5t346 119.5q174 0 307 -92.5t201 -232.5l-164 -113l-122 96q-118 90 -228 90q-94 0 -149.5 -50.5t-55.5 -129.5q0 -66 31 -180h395v-195h-337q26 -86 26 -135q0 -83 -74 -160l-45 -47h721v-229h-1018v139q0 25 6 40.5
t25 37.5l60 72q56 67 59 131q0 30 -33 151h-188z" />
    <glyph glyph-name="currency" unicode="&#xa4;" 
d="M129 324l154 153q-45 80 -45 201q0 118 45 201l-154 151l170 170l152 -151q92 51 213 51h6q119 0 211 -51l153 151l168 -170l-153 -151q45 -83 45 -201q0 -121 -45 -201l153 -153l-168 -168l-153 151q-92 -51 -211 -51h-6q-121 0 -213 51l-152 -151zM475 678
q0 -99 48.5 -152t140.5 -53h6q91 0 138.5 53t47.5 152q0 98 -47.5 151.5t-138.5 53.5h-6q-92 0 -140.5 -53.5t-48.5 -151.5z" />
    <glyph glyph-name="yen" unicode="&#xa5;" 
d="M25 1358h284q27 0 39 -23l180 -342q81 -155 144 -309q59 144 145 309l180 342q11 23 39 23h271l-418 -770h209v-168h-287v-66h287v-168h-287v-186h-283v186h-282v168h282v66h-282v168h200z" />
    <glyph glyph-name="brokenbar" unicode="&#xa6;" horiz-adv-x="561" 
d="M156 387h250v-856h-250v856zM156 596v856h250v-856h-250z" />
    <glyph glyph-name="section" unicode="&#xa7;" horiz-adv-x="1261" 
d="M129 475q0 145 131 262q-106 98 -106 258q0 92 41.5 166.5t111 121t156 71t180.5 24.5q232 0 438 -116l-57 -183l-123 23q-161 28 -242 28q-109 0 -169 -38.5t-60 -106.5q0 -55 41 -88t133 -59l117 -33q78 -22 135 -44.5t112 -55.5t89.5 -72.5t55 -95.5t20.5 -125
q0 -142 -134 -265q109 -98 109 -256q0 -93 -41.5 -167.5t-111 -120.5t-156 -70.5t-181.5 -24.5q-228 0 -438 115l58 184l122 -22q151 -29 242 -29q110 0 171 38t61 106q0 56 -40.5 88t-136.5 59l-116 33q-76 22 -133 44t-112 55t-90 73t-56 96.5t-21 126.5zM385 494
q0 -62 44.5 -96t156.5 -66l123 -35q51 -14 106 -39q62 69 62 137q0 61 -45.5 95.5t-157.5 66.5l-121 35q-66 18 -109 37q-59 -65 -59 -135z" />
    <glyph glyph-name="dieresis" unicode="&#xa8;" horiz-adv-x="849" 
d="M86 1169v248h209q29 0 39 -10t10 -35v-203h-258zM506 1169v248h209q29 0 39 -10t10 -35v-203h-258z" />
    <glyph glyph-name="copyright" unicode="&#xa9;" horiz-adv-x="1574" 
d="M90 680q0 193 92.5 353.5t252 252.5t351.5 92t352 -92t252.5 -252.5t92.5 -353.5q0 -194 -92.5 -355t-252.5 -253t-352 -92t-351.5 92t-252 253t-92.5 355zM293 680q0 -229 134 -369.5t359 -140.5q226 0 360 140.5t134 369.5q0 228 -134.5 368t-359.5 140t-359 -140
t-134 -368zM492 686q0 133 85 216t207 83q85 0 152 -48t104 -136l-98 -70l-68 60q-27 24 -48 34.5t-50 10.5q-54 0 -86.5 -38.5t-32.5 -113.5q0 -71 34.5 -110t103.5 -39q46 0 104 28l96 47l60 -94q-50 -60 -125 -96.5t-150 -36.5q-125 0 -206.5 85t-81.5 218z" />
    <glyph glyph-name="ordfeminine" unicode="&#xaa;" horiz-adv-x="1003" 
d="M86 799q0 107 76 167t209 60h10q111 0 213 -25v54q0 69 -35.5 97t-109.5 28q-64 0 -189 -39l-72 -23l-67 127q183 133 356 133q157 0 249.5 -82t92.5 -245v-324l94 -20v-123q-67 -41 -137 -41q-47 0 -80.5 16t-68.5 51q-132 -82 -242 -82q-132 0 -215.5 77.5t-83.5 193.5
zM303 809q0 -41 31.5 -66.5t91.5 -25.5q80 0 139 24q18 7 23.5 13.5t5.5 19.5v80q0 14 -14 14h-224q-53 0 -53 -59z" />
    <glyph glyph-name="guillemotleft" unicode="&#xab;" horiz-adv-x="1312" 
d="M84 457v112l467 369l119 -119l-301 -317v-4l301 -316l-119 -121l-447 353q-13 10 -16.5 17.5t-3.5 25.5zM639 457v112l467 369l119 -119l-301 -317v-4l301 -316l-119 -121l-447 353q-13 10 -16.5 17.5t-3.5 25.5z" />
    <glyph glyph-name="logicalnot" unicode="&#xac;" horiz-adv-x="1142" 
d="M150 596v225h841v-637h-225v412h-616z" />
    <glyph glyph-name="uni00AD" unicode="&#xad;" horiz-adv-x="866" 
d="M100 387v223h666v-223h-666z" />
    <glyph glyph-name="registered" unicode="&#xae;" horiz-adv-x="1574" 
d="M90 680q0 193 92.5 353.5t252 252.5t351.5 92t352 -92t252.5 -252.5t92.5 -353.5q0 -194 -92.5 -355t-252.5 -253t-352 -92t-351.5 92t-252 253t-92.5 355zM293 680q0 -229 134 -369.5t359 -140.5q226 0 360 140.5t134 369.5q0 228 -134.5 368t-359.5 140t-359 -140
t-134 -368zM535 389v588h278q113 0 172 -48t59 -141q0 -95 -100 -167l125 -232h-156q-21 0 -30 21l-74 143q-10 20 -14.5 24.5t-12.5 4.5h-84v-193h-163zM698 707h140q16 0 26 12q19 24 19 61q0 30 -19 49t-71 19h-95v-141z" />
    <glyph glyph-name="macron" unicode="&#xaf;" horiz-adv-x="849" 
d="M100 1198v199h650v-199h-650z" />
    <glyph glyph-name="degree" unicode="&#xb0;" horiz-adv-x="942" 
d="M104 1020q0 110 54 193.5t136 124t175 40.5h4q93 0 175 -40.5t136 -124t54 -193.5t-54 -193.5t-136 -124t-175 -40.5h-4q-93 0 -175 40.5t-136 124t-54 193.5zM317 1020q0 -76 40.5 -116t111.5 -40h4q71 0 111.5 40t40.5 116q0 74 -40.5 114t-111.5 40h-4
q-71 0 -111.5 -40t-40.5 -114z" />
    <glyph glyph-name="plusminus" unicode="&#xb1;" horiz-adv-x="1142" 
d="M150 0v225h841v-225h-841zM150 602v225h307v238h225v-238h309v-225h-309v-240h-225v240h-307z" />
    <glyph glyph-name="uni00B2" unicode="&#xb2;" horiz-adv-x="815" 
d="M111 1264q60 53 136 83.5t148 30.5q116 0 186 -61.5t70 -151.5q0 -67 -33 -122t-126 -128l-80 -65h252v-162h-523v90q0 15 4 22.5t19 22.5l192 183q54 53 76.5 85t22.5 58q0 59 -74 59q-53 0 -133 -30l-78 -29z" />
    <glyph glyph-name="uni00B3" unicode="&#xb3;" horiz-adv-x="815" 
d="M115 788l55 105l115 -35q67 -18 114 -18q90 0 90 67q0 56 -75 56h-80q-18 0 -23.5 4.5t-5.5 17.5v109h146q11 0 18 12q10 18 10 47q0 59 -82 59q-51 0 -125 -20l-86 -25l-51 115q142 96 281 96q109 0 180.5 -54.5t71.5 -137.5q0 -81 -64 -139q38 -21 60 -58.5t22 -85.5
q0 -97 -76 -163t-198 -66q-81 0 -160 31t-137 83z" />
    <glyph glyph-name="acute" unicode="&#xb4;" horiz-adv-x="851" 
d="M154 1227l374 286q21 15 33 15q17 0 33 -25l104 -155l-460 -238z" />
    <glyph glyph-name="uni00B5" unicode="&#xb5;" horiz-adv-x="1165" 
d="M119 -469v1468h264v-618q0 -73 33 -109q38 -41 155 -41q112 0 185 27q20 8 20 41v700h264v-999h-200l-35 86l-57 -31q-133 -71 -238 -71q-71 0 -127 18v-471h-264z" />
    <glyph glyph-name="paragraph" unicode="&#xb6;" horiz-adv-x="1206" 
d="M84 915v443h1108v-197h-166v-1630h-205v1630h-139v-1630h-205v1231h-217q-103 0 -139.5 35t-36.5 118z" />
    <glyph glyph-name="periodcentered" unicode="&#xb7;" horiz-adv-x="489" 
d="M102 428v281h228q31 0 43 -12.5t12 -39.5v-229h-283z" />
    <glyph glyph-name="cedilla" unicode="&#xb8;" horiz-adv-x="854" 
d="M217 -135q0 39 31 77t96 95l119 -27q-47 -56 -47 -86q0 -15 23 -26.5t55 -22.5t64.5 -26t55.5 -46.5t23 -76.5q0 -99 -99.5 -160.5t-285.5 -61.5l-27 144l68 10q123 19 123 55q0 14 -31 28t-68.5 25t-68.5 37t-31 62z" />
    <glyph glyph-name="uni00B9" unicode="&#xb9;" horiz-adv-x="815" 
d="M127 1255l246 107q19 8 49 8h115v-520h131v-162h-504v162h176v319q-38 -19 -96 -36l-62 -19z" />
    <glyph glyph-name="ordmasculine" unicode="&#xba;" horiz-adv-x="1003" 
d="M82 954q0 130 58.5 228t153 147t208.5 49q113 0 207.5 -49t153.5 -147t59 -228q0 -129 -59 -227t-153.5 -146.5t-207.5 -48.5q-114 0 -208.5 48.5t-153 146t-58.5 227.5zM313 954q0 -97 48.5 -153t140.5 -56t140 56t48 153q0 99 -48 154t-140 55t-140.5 -55.5
t-48.5 -153.5z" />
    <glyph glyph-name="guillemotright" unicode="&#xbb;" horiz-adv-x="1312" 
d="M86 180l301 318v4l-301 315l119 121l446 -352q14 -11 17.5 -18.5t3.5 -24.5v-113l-467 -369zM641 180l301 318v4l-301 315l119 121l446 -352q14 -11 17.5 -18.5t3.5 -24.5v-113l-467 -369z" />
    <glyph glyph-name="onequarter" unicode="&#xbc;" horiz-adv-x="1902" 
d="M164 1255l246 107q19 8 49 8h114v-520h132v-162h-504v162h176v319q-38 -19 -96 -36l-62 -19zM516 0l670 1358h246l-672 -1358h-244zM1120 145v111q0 19 4 29.5t21 31.5l268 340q12 17 19.5 21t29.5 4h183v-387h106v-150h-106v-145h-191v145h-334zM1307 295h147v186
q-7 -13 -37 -51l-71 -92q-26 -33 -39 -43z" />
    <glyph glyph-name="onehalf" unicode="&#xbd;" horiz-adv-x="1902" 
d="M164 1255l246 107q19 8 49 8h114v-520h132v-162h-504v162h176v319q-38 -19 -96 -36l-62 -19zM516 0l670 1358h246l-672 -1358h-244zM1182 575q60 53 136.5 84t147.5 31q116 0 186 -61.5t70 -151.5q0 -67 -33 -122t-126 -128l-80 -65h252v-162h-523v90q0 15 4 22.5
t19 22.5l192 182q54 53 76.5 85.5t22.5 58.5q0 59 -74 59q-51 0 -133 -31l-78 -28z" />
    <glyph glyph-name="threequarters" unicode="&#xbe;" horiz-adv-x="1902" 
d="M176 788l55 105l115 -35q67 -18 115 -18q90 0 90 67q0 56 -76 56h-80q-18 0 -23 4.5t-5 17.5v109h145q11 0 18 12q11 19 11 47q0 59 -82 59q-51 0 -125 -20l-86 -25l-51 115q142 96 280 96q109 0 180.5 -54.5t71.5 -137.5q0 -82 -63 -139q38 -21 60 -58.5t22 -85.5
q0 -97 -76.5 -163t-198.5 -66q-81 0 -160 31t-137 83zM516 0l670 1358h246l-672 -1358h-244zM1120 145v111q0 19 4 29.5t21 31.5l268 340q12 17 19.5 21t29.5 4h183v-387h106v-150h-106v-145h-191v145h-334zM1307 295h147v186q-7 -13 -37 -51l-71 -92q-26 -33 -39 -43z" />
    <glyph glyph-name="questiondown" unicode="&#xbf;" horiz-adv-x="1081" 
d="M96 12q0 280 400 418l41 180h176l24 -139q11 -59 11 -82q0 -34 -16.5 -55t-59.5 -47l-74 -43q-52 -30 -73 -43t-54.5 -35t-45.5 -35t-27.5 -33.5t-20 -41t-4.5 -46.5q0 -66 49.5 -102.5t136.5 -36.5q114 0 268 57l123 45l94 -159q-102 -87 -236 -140t-263 -53
q-121 0 -221.5 44t-164 134.5t-63.5 212.5zM487 791v208h271v-251h-226q-26 0 -35.5 9.5t-9.5 33.5z" />
    <glyph glyph-name="Agrave" unicode="&#xc0;" horiz-adv-x="1443" 
d="M27 0l522 1358h278q19 0 26 -5t15 -22l549 -1331h-268q-18 0 -25.5 5t-13.5 20l-98 247h-598l-90 -247q-6 -16 -12.5 -20.5t-24.5 -4.5h-260zM428 1710l104 156q15 24 33 24q13 0 33 -14l375 -287l-84 -116zM498 500h424l-95 243q-93 238 -125 342q-32 -109 -133 -387z
" />
    <glyph glyph-name="Aacute" unicode="&#xc1;" horiz-adv-x="1443" 
d="M27 0l522 1358h278q19 0 26 -5t15 -22l549 -1331h-268q-18 0 -25.5 5t-13.5 20l-98 247h-598l-90 -247q-6 -16 -12.5 -20.5t-24.5 -4.5h-260zM446 1589l375 287q20 14 33 14q18 0 33 -24l104 -156l-461 -237zM498 500h424l-95 243q-93 238 -125 342q-32 -109 -133 -387z
" />
    <glyph glyph-name="Acircumflex" unicode="&#xc2;" horiz-adv-x="1443" 
d="M27 0l522 1358h278q19 0 26 -5t15 -22l549 -1331h-268q-18 0 -25.5 5t-13.5 20l-98 247h-598l-90 -247q-6 -16 -12.5 -20.5t-24.5 -4.5h-260zM336 1575l262 260q27 27 64 27h83q37 0 64 -27l262 -260l-106 -102l-260 192l-263 -192zM498 500h424l-95 243
q-93 238 -125 342q-32 -109 -133 -387z" />
    <glyph glyph-name="Atilde" unicode="&#xc3;" horiz-adv-x="1443" 
d="M27 0l522 1358h278q19 0 26 -5t15 -22l549 -1331h-268q-18 0 -25.5 5t-13.5 20l-98 247h-598l-90 -247q-6 -16 -12.5 -20.5t-24.5 -4.5h-260zM330 1544q14 108 76 180t159 72q49 0 100.5 -23.5t94 -47t71.5 -23.5t52.5 23t54.5 77l141 -39q-16 -108 -77.5 -180
t-159.5 -72q-49 0 -100 23.5t-93.5 47.5t-70.5 24q-31 0 -54 -23.5t-53 -77.5zM498 500h424l-95 243q-93 238 -125 342q-32 -109 -133 -387z" />
    <glyph glyph-name="Adieresis" unicode="&#xc4;" horiz-adv-x="1443" 
d="M27 0l522 1358h278q19 0 26 -5t15 -22l549 -1331h-268q-18 0 -25.5 5t-13.5 20l-98 247h-598l-90 -247q-6 -16 -12.5 -20.5t-24.5 -4.5h-260zM367 1532v248h208q29 0 39.5 -10t10.5 -35v-203h-258zM498 500h424l-95 243q-93 238 -125 342q-32 -109 -133 -387zM786 1532
v248h209q29 0 39 -10t10 -35v-203h-258z" />
    <glyph glyph-name="Aring" unicode="&#xc5;" horiz-adv-x="1443" 
d="M27 0l520 1354q-109 69 -109 211q0 115 75.5 185.5t191.5 70.5t191 -70.5t75 -185.5q0 -138 -113 -211l559 -1354h-268q-18 0 -25.5 5t-13.5 20l-98 247h-598l-90 -247q-6 -16 -12.5 -20.5t-24.5 -4.5h-260zM498 500h424l-95 243q-93 238 -125 342q-32 -109 -133 -387z
M594 1565q0 -105 111 -105q108 0 108 105q0 104 -108 104q-111 0 -111 -104z" />
    <glyph glyph-name="AE" unicode="&#xc6;" horiz-adv-x="2080" 
d="M0 0l866 1358h1082v-238h-697v-309h629v-236h-629v-337h717v-238h-999v272h-482l-153 -247q-16 -25 -49 -25h-285zM629 500h340v573q-45 -83 -213 -362z" />
    <glyph glyph-name="Ccedilla" unicode="&#xc7;" horiz-adv-x="1396" 
d="M74 678q0 158 53 291.5t143.5 222t210 137.5t252.5 49q211 0 360.5 -107t221.5 -300l-182 -117l-125 115q-79 73 -146.5 106t-148.5 33q-149 0 -246.5 -110t-97.5 -318q0 -197 101.5 -313.5t285.5 -116.5q130 0 274 69l207 101l111 -144q-107 -120 -254 -201.5
t-312 -92.5q-24 -34 -24 -58q0 -15 23 -26.5t55 -22.5t64.5 -26t55.5 -46.5t23 -76.5q0 -99 -99.5 -160.5t-285.5 -61.5l-27 144l68 10q123 19 123 55q0 14 -31 28t-68.5 25t-68.5 37t-31 62q0 52 72 121q-253 32 -405 223.5t-152 468.5z" />
    <glyph glyph-name="Egrave" unicode="&#xc8;" horiz-adv-x="1251" 
d="M139 0v1358h979v-238h-696v-309h629v-236h-629v-337h717v-238h-1000zM369 1710l104 156q15 24 33 24q13 0 33 -14l374 -287l-84 -116z" />
    <glyph glyph-name="Eacute" unicode="&#xc9;" horiz-adv-x="1251" 
d="M139 0v1358h979v-238h-696v-309h629v-236h-629v-337h717v-238h-1000zM369 1589l374 287q20 14 33 14q18 0 33 -24l104 -156l-460 -237z" />
    <glyph glyph-name="Ecircumflex" unicode="&#xca;" horiz-adv-x="1251" 
d="M139 0v1358h979v-238h-696v-309h629v-236h-629v-337h717v-238h-1000zM260 1575l262 260q27 27 64 27h84q22 0 34.5 -5.5t28.5 -21.5l262 -260l-106 -102l-260 192l-262 -192z" />
    <glyph glyph-name="Edieresis" unicode="&#xcb;" horiz-adv-x="1251" 
d="M139 0v1358h979v-238h-696v-309h629v-236h-629v-337h717v-238h-1000zM289 1532v248h209q29 0 39 -10t10 -35v-203h-258zM709 1532v248h209q29 0 39 -10t10 -35v-203h-258z" />
    <glyph glyph-name="Igrave" unicode="&#xcc;" horiz-adv-x="573" 
d="M14 1710l105 156q15 24 33 24q12 0 32 -14l375 -287l-84 -116zM145 0v1358h283v-1358h-283z" />
    <glyph glyph-name="Iacute" unicode="&#xcd;" horiz-adv-x="573" 
d="M14 1589l375 287q20 14 33 14q18 0 33 -24l104 -156l-461 -237zM145 0v1358h283v-1358h-283z" />
    <glyph glyph-name="Icircumflex" unicode="&#xce;" horiz-adv-x="573" 
d="M-80 1575l262 260q27 27 64 27h84q22 0 34.5 -5.5t28.5 -21.5l262 -260l-106 -102l-260 192l-262 -192zM145 0v1358h283v-1358h-283z" />
    <glyph glyph-name="Idieresis" unicode="&#xcf;" horiz-adv-x="573" 
d="M-53 1532v248h209q29 0 39 -10t10 -35v-203h-258zM145 0v1358h283v-1358h-283zM367 1532v248h208q29 0 39.5 -10t10.5 -35v-203h-258z" />
    <glyph glyph-name="Eth" unicode="&#xd0;" horiz-adv-x="1517" 
d="M20 586v213h164v559h453q410 0 606 -170q201 -173 201 -510q0 -335 -201 -508q-196 -170 -606 -170h-453v586h-164zM467 246h162q154 0 255.5 26t162.5 86q104 101 104 322q0 218 -104 319q-62 60 -163.5 86.5t-254.5 26.5h-162v-313h287v-213h-287v-340z" />
    <glyph glyph-name="Ntilde" unicode="&#xd1;" horiz-adv-x="1511" 
d="M133 0v1358h213q20 0 29.5 -5t21.5 -20l486 -608q167 -209 223 -293v926h272v-1358h-211q-20 0 -30.5 5t-22.5 20l-526 661q-54 68 -182 242v-928h-273zM383 1544q14 108 76 180t159 72q49 0 100.5 -23.5t94.5 -47t72 -23.5t52 22.5t54 77.5l142 -39q-16 -108 -78 -180
t-160 -72q-49 0 -100 23.5t-93.5 47.5t-70.5 24q-31 0 -54 -23.5t-53 -77.5z" />
    <glyph glyph-name="Ograve" unicode="&#xd2;" horiz-adv-x="1515" 
d="M74 678q0 157 56 290t150.5 222t218 138.5t257.5 49.5h4q134 0 257.5 -49.5t218 -138.5t150.5 -222t56 -290q0 -125 -36.5 -236.5t-101 -194.5t-150 -144t-186.5 -92t-208 -31h-4q-107 0 -208 31t-186.5 92t-150 144t-101 194.5t-36.5 236.5zM369 678q0 -200 103 -312
t284 -112h4q181 0 284 111.5t103 312.5q0 202 -102.5 313t-284.5 111h-4q-182 0 -284.5 -111t-102.5 -313zM485 1710l105 156q15 24 33 24q12 0 32 -14l375 -287l-84 -116z" />
    <glyph glyph-name="Oacute" unicode="&#xd3;" horiz-adv-x="1515" 
d="M74 678q0 157 56 290t150.5 222t218 138.5t257.5 49.5h4q134 0 257.5 -49.5t218 -138.5t150.5 -222t56 -290q0 -125 -36.5 -236.5t-101 -194.5t-150 -144t-186.5 -92t-208 -31h-4q-107 0 -208 31t-186.5 92t-150 144t-101 194.5t-36.5 236.5zM369 678q0 -200 103 -312
t284 -112h4q181 0 284 111.5t103 312.5q0 202 -102.5 313t-284.5 111h-4q-182 0 -284.5 -111t-102.5 -313zM494 1589l374 287q20 14 33 14q18 0 33 -24l104 -156l-460 -237z" />
    <glyph glyph-name="Ocircumflex" unicode="&#xd4;" horiz-adv-x="1515" 
d="M74 678q0 157 56 290t150.5 222t218 138.5t257.5 49.5h4q134 0 257.5 -49.5t218 -138.5t150.5 -222t56 -290q0 -125 -36.5 -236.5t-101 -194.5t-150 -144t-186.5 -92t-208 -31h-4q-107 0 -208 31t-186.5 92t-150 144t-101 194.5t-36.5 236.5zM369 678q0 -200 103 -312
t284 -112h4q181 0 284 111.5t103 312.5q0 202 -102.5 313t-284.5 111h-4q-182 0 -284.5 -111t-102.5 -313zM389 1575l262 260q27 27 64 27h84q22 0 34.5 -5.5t28.5 -21.5l262 -260l-106 -102l-260 192l-262 -192z" />
    <glyph glyph-name="Otilde" unicode="&#xd5;" horiz-adv-x="1515" 
d="M74 678q0 157 56 290t150.5 222t218 138.5t257.5 49.5h4q134 0 257.5 -49.5t218 -138.5t150.5 -222t56 -290q0 -125 -36.5 -236.5t-101 -194.5t-150 -144t-186.5 -92t-208 -31h-4q-107 0 -208 31t-186.5 92t-150 144t-101 194.5t-36.5 236.5zM369 678q0 -200 103 -312
t284 -112h4q181 0 284 111.5t103 312.5q0 202 -102.5 313t-284.5 111h-4q-182 0 -284.5 -111t-102.5 -313zM383 1544q14 108 76 180t159 72q49 0 100.5 -23.5t94.5 -47t72 -23.5t52 22.5t54 77.5l142 -39q-16 -108 -78 -180t-160 -72q-49 0 -100 23.5t-93.5 47.5t-70.5 24
q-31 0 -54 -23.5t-53 -77.5z" />
    <glyph glyph-name="Odieresis" unicode="&#xd6;" horiz-adv-x="1515" 
d="M74 678q0 157 56 290t150.5 222t218 138.5t257.5 49.5h4q134 0 257.5 -49.5t218 -138.5t150.5 -222t56 -290q0 -125 -36.5 -236.5t-101 -194.5t-150 -144t-186.5 -92t-208 -31h-4q-107 0 -208 31t-186.5 92t-150 144t-101 194.5t-36.5 236.5zM369 678q0 -200 103 -312
t284 -112h4q181 0 284 111.5t103 312.5q0 202 -102.5 313t-284.5 111h-4q-182 0 -284.5 -111t-102.5 -313zM418 1532v248h209q29 0 39 -10t10 -35v-203h-258zM838 1532v248h209q29 0 39 -10t10 -35v-203h-258z" />
    <glyph glyph-name="multiply" unicode="&#xd7;" horiz-adv-x="1142" 
d="M193 285l217 217l-217 217l159 160l217 -217l219 219l160 -160l-219 -219l219 -219l-160 -160l-219 219l-217 -217z" />
    <glyph glyph-name="Oslash" unicode="&#xd8;" horiz-adv-x="1515" 
d="M74 678q0 157 56 290t150.5 222t218 138.5t257.5 49.5h4q177 0 330 -84l133 172l155 -112l-135 -174q94 -94 146.5 -222t52.5 -280q0 -125 -36.5 -236.5t-101 -194.5t-150 -144t-186.5 -92t-208 -31q-208 0 -365 98l-135 -176l-156 112l144 187q-174 195 -174 477z
M369 678q0 -144 55 -248l496 645q-68 27 -160 27h-4q-182 0 -284.5 -111t-102.5 -313zM563 297q79 -43 193 -43h4q181 0 284 111.5t103 312.5q0 174 -76 278z" />
    <glyph glyph-name="Ugrave" unicode="&#xd9;" horiz-adv-x="1447" 
d="M125 559v799h283v-774q0 -97 14.5 -155.5t54.5 -98.5q38 -37 105.5 -58.5t144.5 -21.5t145 21.5t105 58.5q40 40 55 98.5t15 155.5v774h276v-799q0 -144 -36 -244.5t-109 -173.5q-77 -79 -195.5 -120t-259.5 -41q-140 0 -257 41t-196 120q-73 73 -109 173.5t-36 244.5z
M442 1710l105 156q15 24 33 24q12 0 32 -14l375 -287l-84 -116z" />
    <glyph glyph-name="Uacute" unicode="&#xda;" horiz-adv-x="1447" 
d="M125 559v799h283v-774q0 -97 14.5 -155.5t54.5 -98.5q38 -37 105.5 -58.5t144.5 -21.5t145 21.5t105 58.5q40 40 55 98.5t15 155.5v774h276v-799q0 -144 -36 -244.5t-109 -173.5q-77 -79 -195.5 -120t-259.5 -41q-140 0 -257 41t-196 120q-73 73 -109 173.5t-36 244.5z
M465 1589l375 287q20 14 32 14q18 0 33 -24l105 -156l-461 -237z" />
    <glyph glyph-name="Ucircumflex" unicode="&#xdb;" horiz-adv-x="1447" 
d="M125 559v799h283v-774q0 -97 14.5 -155.5t54.5 -98.5q38 -37 105.5 -58.5t144.5 -21.5t145 21.5t105 58.5q40 40 55 98.5t15 155.5v774h276v-799q0 -144 -36 -244.5t-109 -173.5q-77 -79 -195.5 -120t-259.5 -41q-140 0 -257 41t-196 120q-73 73 -109 173.5t-36 244.5z
M358 1575l263 260q16 16 28.5 21.5t34.5 5.5h84q22 0 34.5 -5.5t28.5 -21.5l263 -260l-107 -102l-260 192l-262 -192z" />
    <glyph glyph-name="Udieresis" unicode="&#xdc;" horiz-adv-x="1447" 
d="M125 559v799h283v-774q0 -97 14.5 -155.5t54.5 -98.5q38 -37 105.5 -58.5t144.5 -21.5t145 21.5t105 58.5q40 40 55 98.5t15 155.5v774h276v-799q0 -144 -36 -244.5t-109 -173.5q-77 -79 -195.5 -120t-259.5 -41q-140 0 -257 41t-196 120q-73 73 -109 173.5t-36 244.5z
M383 1532v248h209q29 0 39 -10t10 -35v-203h-258zM803 1532v248h209q29 0 39 -10t10 -35v-203h-258z" />
    <glyph glyph-name="Yacute" unicode="&#xdd;" horiz-adv-x="1370" 
d="M0 1358h289q26 0 39 -23l178 -313q58 -103 186 -354q46 99 191 358l172 307q8 14 16 19.5t25 5.5h274l-541 -926v-432h-282v432zM436 1589l375 287q20 14 33 14q18 0 33 -24l104 -156l-461 -237z" />
    <glyph glyph-name="Thorn" unicode="&#xde;" horiz-adv-x="1316" 
d="M139 0v1358h283v-213h248q160 0 271 -31.5t183 -103.5q115 -118 115 -324q0 -225 -131 -350q-126 -117 -371 -117h-315v-219h-283zM422 453h389q62 0 86 36q23 33 38 86.5t15 108.5q0 112 -55 164q-58 55 -209 55h-264v-450z" />
    <glyph glyph-name="germandbls" unicode="&#xdf;" horiz-adv-x="1390" 
d="M4 793v163l178 35q41 482 535 482q204 0 328 -95t124 -237q0 -85 -45.5 -146t-146.5 -125l-84 -53q-44 -28 -59 -42t-15 -32q0 -19 24.5 -33t100.5 -42l62 -23q162 -59 241.5 -132.5t79.5 -197.5q0 -149 -108.5 -241t-280.5 -92q-109 0 -210.5 31t-174.5 83l65 158
l91 -25q117 -32 209 -32q72 0 116.5 28.5t44.5 75.5q0 36 -28 58.5t-109 52.5l-113 41q-139 51 -199.5 107.5t-60.5 144.5q0 112 119 208l146 117q52 42 68 61t16 44q0 48 -53.5 80t-151.5 32q-131 0 -196.5 -61.5t-65.5 -194.5v-991h-265v793h-182z" />
    <glyph glyph-name="agrave" unicode="&#xe0;" horiz-adv-x="1128" 
d="M61 319q0 134 94 208.5t255 74.5h6q145 0 284 -39v66q0 78 -36 114q-43 43 -148 43q-102 0 -244 -49l-84 -28l-82 143q214 164 441 164q210 0 319 -115q99 -102 99 -289v-405l137 -27v-141q-36 -18 -91.5 -30.5t-97.5 -12.5q-98 0 -176 88l-53 -29q-133 -71 -256 -71
q-161 0 -264 95.5t-103 239.5zM287 1348l104 155q16 25 33 25q12 0 33 -15l374 -286l-83 -117zM313 330q0 -59 42.5 -95t121.5 -36q49 0 105.5 12.5t91.5 26.5q15 6 20.5 12.5t5.5 21.5v117q0 12 -4.5 16.5t-17.5 4.5h-287q-42 0 -60 -19.5t-18 -60.5z" />
    <glyph glyph-name="aacute" unicode="&#xe1;" horiz-adv-x="1128" 
d="M61 319q0 134 94 208.5t255 74.5h6q145 0 284 -39v66q0 78 -36 114q-43 43 -148 43q-102 0 -244 -49l-84 -28l-82 143q214 164 441 164q210 0 319 -115q99 -102 99 -289v-405l137 -27v-141q-36 -18 -91.5 -30.5t-97.5 -12.5q-98 0 -176 88l-53 -29q-133 -71 -256 -71
q-161 0 -264 95.5t-103 239.5zM295 1227l375 286q21 15 32 15q17 0 33 -25l105 -155l-461 -238zM313 330q0 -59 42.5 -95t121.5 -36q49 0 105.5 12.5t91.5 26.5q15 6 20.5 12.5t5.5 21.5v117q0 12 -4.5 16.5t-17.5 4.5h-287q-42 0 -60 -19.5t-18 -60.5z" />
    <glyph glyph-name="acircumflex" unicode="&#xe2;" horiz-adv-x="1128" 
d="M61 319q0 134 94 208.5t255 74.5h6q145 0 284 -39v66q0 78 -36 114q-43 43 -148 43q-102 0 -244 -49l-84 -28l-82 143q214 164 441 164q210 0 319 -115q99 -102 99 -289v-405l137 -27v-141q-36 -18 -91.5 -30.5t-97.5 -12.5q-98 0 -176 88l-53 -29q-133 -71 -256 -71
q-161 0 -264 95.5t-103 239.5zM190 1212l263 261q15 15 27.5 20.5t35.5 5.5h84q38 0 64 -26l262 -261l-107 -102l-260 193l-262 -193zM313 330q0 -59 42.5 -95t121.5 -36q49 0 105.5 12.5t91.5 26.5q15 6 20.5 12.5t5.5 21.5v117q0 12 -4.5 16.5t-17.5 4.5h-287
q-42 0 -60 -19.5t-18 -60.5z" />
    <glyph glyph-name="atilde" unicode="&#xe3;" horiz-adv-x="1128" 
d="M61 319q0 134 94 208.5t255 74.5h6q145 0 284 -39v66q0 78 -36 114q-43 43 -148 43q-102 0 -244 -49l-84 -28l-82 143q214 164 441 164q210 0 319 -115q99 -102 99 -289v-405l137 -27v-141q-36 -18 -91.5 -30.5t-97.5 -12.5q-98 0 -176 88l-53 -29q-133 -71 -256 -71
q-161 0 -264 95.5t-103 239.5zM184 1182q14 107 76.5 179.5t159.5 72.5q49 0 100.5 -24t94 -47.5t71.5 -23.5t52.5 23t54.5 78l141 -39q-16 -108 -78 -180t-160 -72q-49 0 -100 23.5t-93.5 47t-70.5 23.5q-31 0 -53.5 -23t-52.5 -77zM313 330q0 -59 42.5 -95t121.5 -36
q49 0 105.5 12.5t91.5 26.5q15 6 20.5 12.5t5.5 21.5v117q0 12 -4.5 16.5t-17.5 4.5h-287q-42 0 -60 -19.5t-18 -60.5z" />
    <glyph glyph-name="adieresis" unicode="&#xe4;" horiz-adv-x="1128" 
d="M61 319q0 134 94 208.5t255 74.5h6q145 0 284 -39v66q0 78 -36 114q-43 43 -148 43q-102 0 -244 -49l-84 -28l-82 143q214 164 441 164q210 0 319 -115q99 -102 99 -289v-405l137 -27v-141q-36 -18 -91.5 -30.5t-97.5 -12.5q-98 0 -176 88l-53 -29q-133 -71 -256 -71
q-161 0 -264 95.5t-103 239.5zM221 1169v248h209q29 0 39 -10t10 -35v-203h-258zM313 330q0 -59 42.5 -95t121.5 -36q49 0 105.5 12.5t91.5 26.5q15 6 20.5 12.5t5.5 21.5v117q0 12 -4.5 16.5t-17.5 4.5h-287q-42 0 -60 -19.5t-18 -60.5zM641 1169v248h209q29 0 39 -10
t10 -35v-203h-258z" />
    <glyph glyph-name="aring" unicode="&#xe5;" horiz-adv-x="1128" 
d="M61 319q0 134 94 208.5t255 74.5h6q145 0 284 -39v66q0 78 -36 114q-43 43 -148 43q-102 0 -244 -49l-84 -28l-82 143q214 164 441 164q210 0 319 -115q99 -102 99 -289v-405l137 -27v-141q-36 -18 -91.5 -30.5t-97.5 -12.5q-98 0 -176 88l-53 -29q-133 -71 -256 -71
q-161 0 -264 95.5t-103 239.5zM291 1372q0 115 75 185.5t191 70.5t191 -70.5t75 -185.5q0 -114 -75.5 -185t-190.5 -71t-190.5 71t-75.5 185zM313 330q0 -59 42.5 -95t121.5 -36q49 0 105.5 12.5t91.5 26.5q15 6 20.5 12.5t5.5 21.5v117q0 12 -4.5 16.5t-17.5 4.5h-287
q-42 0 -60 -19.5t-18 -60.5zM446 1372q0 -104 111 -104q109 0 109 104q0 105 -109 105q-111 0 -111 -105z" />
    <glyph glyph-name="ae" unicode="&#xe6;" horiz-adv-x="1746" 
d="M66 324q0 136 96.5 212t251.5 76h10q149 0 274 -37v60q0 84 -45 116.5t-135 32.5q-108 0 -244 -47l-84 -28l-79 143q214 164 434 164q90 0 173 -33t142 -92q137 125 330 125q211 0 351 -139.5t140 -341.5q0 -55 -10 -89q-6 -18 -14 -23t-27 -5h-663q11 -92 79.5 -146.5
t188.5 -54.5q88 0 215 43l125 43l84 -145q-91 -80 -211 -127t-242 -47q-107 0 -198.5 35.5t-155.5 99.5l-78 -45q-155 -90 -317 -90q-164 0 -277.5 95t-113.5 245zM317 334q0 -58 48.5 -97.5t132.5 -39.5q58 0 126 17.5t119 45.5q-34 72 -43 158h-292q-91 0 -91 -84z
M967 604h452q-8 81 -68.5 130.5t-158.5 49.5t-157 -48.5t-68 -131.5z" />
    <glyph glyph-name="ccedilla" unicode="&#xe7;" horiz-adv-x="1056" 
d="M61 504q0 150 69 268.5t180 181t241 62.5q168 0 291 -95t162 -243l-175 -88l-92 90q-59 58 -102.5 79t-95.5 21q-90 0 -148.5 -70t-58.5 -202q0 -150 62 -219.5t192 -69.5q93 0 225 53l119 47l88 -143q-80 -73 -187.5 -125.5t-216.5 -62.5q-28 -42 -28 -64
q0 -15 23 -26.5t55 -22.5t64.5 -26t55.5 -46.5t23 -76.5q0 -99 -99.5 -160.5t-285.5 -61.5l-27 144l68 10q123 19 123 55q0 14 -31 28t-68.5 25t-68.5 37t-31 62q0 51 76 127q-185 28 -293.5 165t-108.5 347z" />
    <glyph glyph-name="egrave" unicode="&#xe8;" horiz-adv-x="1112" 
d="M61 498q0 153 68.5 272.5t182 182.5t249.5 63q212 0 349 -138t137 -339q0 -58 -11 -95q-6 -17 -14.5 -21.5t-28.5 -4.5h-661q11 -93 78.5 -147t185.5 -54q95 0 231 47l113 39l84 -147q-92 -79 -211.5 -125.5t-241.5 -46.5q-220 0 -365 145t-145 369zM295 1348l104 155
q16 25 33 25q12 0 33 -15l375 -286l-84 -117zM332 604h452q-8 81 -68 130.5t-157 49.5q-98 0 -158 -49.5t-69 -130.5z" />
    <glyph glyph-name="eacute" unicode="&#xe9;" horiz-adv-x="1112" 
d="M61 498q0 153 68.5 272.5t182 182.5t249.5 63q212 0 349 -138t137 -339q0 -58 -11 -95q-6 -17 -14.5 -21.5t-28.5 -4.5h-661q11 -93 78.5 -147t185.5 -54q95 0 231 47l113 39l84 -147q-92 -79 -211.5 -125.5t-241.5 -46.5q-220 0 -365 145t-145 369zM291 1227l375 286
q21 15 32 15q17 0 33 -25l105 -155l-461 -238zM332 604h452q-8 81 -68 130.5t-157 49.5q-98 0 -158 -49.5t-69 -130.5z" />
    <glyph glyph-name="ecircumflex" unicode="&#xea;" horiz-adv-x="1112" 
d="M61 498q0 153 68.5 272.5t182 182.5t249.5 63q212 0 349 -138t137 -339q0 -58 -11 -95q-6 -17 -14.5 -21.5t-28.5 -4.5h-661q11 -93 78.5 -147t185.5 -54q95 0 231 47l113 39l84 -147q-92 -79 -211.5 -125.5t-241.5 -46.5q-220 0 -365 145t-145 369zM190 1212l263 261
q15 15 27.5 20.5t35.5 5.5h84q38 0 64 -26l262 -261l-107 -102l-260 193l-262 -193zM332 604h452q-8 81 -68 130.5t-157 49.5q-98 0 -158 -49.5t-69 -130.5z" />
    <glyph glyph-name="edieresis" unicode="&#xeb;" horiz-adv-x="1112" 
d="M61 498q0 153 68.5 272.5t182 182.5t249.5 63q212 0 349 -138t137 -339q0 -58 -11 -95q-6 -17 -14.5 -21.5t-28.5 -4.5h-661q11 -93 78.5 -147t185.5 -54q95 0 231 47l113 39l84 -147q-92 -79 -211.5 -125.5t-241.5 -46.5q-220 0 -365 145t-145 369zM217 1169v248h209
q29 0 39 -10t10 -35v-203h-258zM332 604h452q-8 81 -68 130.5t-157 49.5q-98 0 -158 -49.5t-69 -130.5zM637 1169v248h209q29 0 39 -10t10 -35v-203h-258z" />
    <glyph glyph-name="igrave" unicode="&#xec;" horiz-adv-x="509" 
d="M-18 1348l104 155q16 25 33 25q12 0 33 -15l374 -286l-84 -117zM123 0v999h264v-999h-264z" />
    <glyph glyph-name="iacute" unicode="&#xed;" horiz-adv-x="509" 
d="M-18 1227l374 286q21 15 33 15q17 0 33 -25l104 -155l-460 -238zM123 0v999h264v-999h-264z" />
    <glyph glyph-name="icircumflex" unicode="&#xee;" horiz-adv-x="509" 
d="M-113 1212l263 261q15 15 27.5 20.5t35.5 5.5h84q23 0 35.5 -5.5t27.5 -20.5l263 -261l-107 -102l-260 193l-262 -193zM123 0v999h264v-999h-264z" />
    <glyph glyph-name="idieresis" unicode="&#xef;" horiz-adv-x="509" 
d="M-84 1169v248h209q29 0 39 -10t10 -35v-203h-258zM123 0v999h264v-999h-264zM336 1169v248h209q29 0 39 -10t10 -35v-203h-258z" />
    <glyph glyph-name="eth" unicode="&#xf0;" horiz-adv-x="1157" 
d="M61 481q0 143 63.5 253t167 166t228.5 56q123 0 232 -53q-53 152 -170 246l-263 -127l-92 156l189 92l-150 84l80 139q175 -55 283 -119l262 129l92 -157l-188 -93q146 -135 218 -314t72 -380q0 -269 -141 -423t-381 -154h-6q-222 0 -359 141.5t-137 357.5zM330 481
q0 -119 62 -190.5t181 -71.5q244 0 244 320q0 77 -10 131q-5 26 -35 39q-73 32 -190 32h-9q-243 0 -243 -260z" />
    <glyph glyph-name="ntilde" unicode="&#xf1;" horiz-adv-x="1153" 
d="M121 0v999h201l32 -88l78 43q108 62 221 62q177 0 285.5 -104t108.5 -285v-627h-265v616q0 75 -32 107q-40 43 -154 43h-4q-112 0 -186 -29q-21 -8 -21 -39v-698h-264zM221 1182q14 107 76.5 179.5t159.5 72.5q49 0 100.5 -24t94 -47.5t71.5 -23.5t51.5 23t54.5 78
l142 -39q-16 -108 -78 -180t-160 -72q-49 0 -100 23.5t-93.5 47t-70.5 23.5q-31 0 -54.5 -23t-52.5 -77z" />
    <glyph glyph-name="ograve" unicode="&#xf2;" horiz-adv-x="1144" 
d="M61 500q0 120 41.5 219t112 163t162 99t192.5 35h6q101 0 192.5 -35t162 -99t112 -163t41.5 -219q0 -121 -41.5 -220t-112 -163t-162 -98.5t-192.5 -34.5h-6q-101 0 -192.5 34.5t-162 98.5t-112 163t-41.5 220zM299 1348l104 155q16 25 33 25q12 0 33 -15l375 -286
l-84 -117zM332 500q0 -271 237 -271h6q238 0 238 271q0 268 -238 268h-6q-237 0 -237 -268z" />
    <glyph glyph-name="oacute" unicode="&#xf3;" horiz-adv-x="1144" 
d="M61 500q0 120 41.5 219t112 163t162 99t192.5 35h6q101 0 192.5 -35t162 -99t112 -163t41.5 -219q0 -121 -41.5 -220t-112 -163t-162 -98.5t-192.5 -34.5h-6q-101 0 -192.5 34.5t-162 98.5t-112 163t-41.5 220zM307 1227l375 286q21 15 33 15q17 0 33 -25l104 -155
l-461 -238zM332 500q0 -271 237 -271h6q238 0 238 271q0 268 -238 268h-6q-237 0 -237 -268z" />
    <glyph glyph-name="ocircumflex" unicode="&#xf4;" horiz-adv-x="1144" 
d="M61 500q0 120 41.5 219t112 163t162 99t192.5 35h6q101 0 192.5 -35t162 -99t112 -163t41.5 -219q0 -121 -41.5 -220t-112 -163t-162 -98.5t-192.5 -34.5h-6q-101 0 -192.5 34.5t-162 98.5t-112 163t-41.5 220zM203 1212l262 261q15 15 27.5 20.5t35.5 5.5h84
q38 0 64 -26l262 -261l-107 -102l-260 193l-262 -193zM332 500q0 -271 237 -271h6q238 0 238 271q0 268 -238 268h-6q-237 0 -237 -268z" />
    <glyph glyph-name="otilde" unicode="&#xf5;" horiz-adv-x="1144" 
d="M61 500q0 120 41.5 219t112 163t162 99t192.5 35h6q101 0 192.5 -35t162 -99t112 -163t41.5 -219q0 -121 -41.5 -220t-112 -163t-162 -98.5t-192.5 -34.5h-6q-101 0 -192.5 34.5t-162 98.5t-112 163t-41.5 220zM197 1182q14 108 76 180t159 72q49 0 100.5 -24t94 -47.5
t71.5 -23.5t52.5 23t54.5 78l141 -39q-16 -108 -77.5 -180t-159.5 -72q-49 0 -100.5 23.5t-94 47t-70.5 23.5q-31 0 -53.5 -23t-52.5 -77zM332 500q0 -271 237 -271h6q238 0 238 271q0 268 -238 268h-6q-237 0 -237 -268z" />
    <glyph glyph-name="odieresis" unicode="&#xf6;" horiz-adv-x="1144" 
d="M61 500q0 120 41.5 219t112 163t162 99t192.5 35h6q101 0 192.5 -35t162 -99t112 -163t41.5 -219q0 -121 -41.5 -220t-112 -163t-162 -98.5t-192.5 -34.5h-6q-101 0 -192.5 34.5t-162 98.5t-112 163t-41.5 220zM231 1169v248h209q29 0 39 -10t10 -35v-203h-258zM332 500
q0 -271 237 -271h6q238 0 238 271q0 268 -238 268h-6q-237 0 -237 -268zM651 1169v248h209q29 0 39 -10t10 -35v-203h-258z" />
    <glyph glyph-name="divide" unicode="&#xf7;" horiz-adv-x="1142" 
d="M150 401v226h841v-226h-841zM440 43v250h211q28 0 37.5 -9.5t9.5 -35.5v-205h-258zM440 733v250h211q28 0 37.5 -9.5t9.5 -35.5v-205h-258z" />
    <glyph glyph-name="oslash" unicode="&#xf8;" horiz-adv-x="1144" 
d="M61 500q0 120 41.5 219t112 163t162 99t192.5 35h6q124 0 232 -51l123 174l127 -82l-125 -178q151 -144 151 -379q0 -121 -41.5 -220t-112 -163t-162 -98.5t-192.5 -34.5h-6q-119 0 -225 47l-125 -181l-127 82l127 181q-158 145 -158 387zM332 500q0 -104 35 -172
l297 428q-41 12 -89 12h-6q-237 0 -237 -268zM489 240q46 -11 80 -11h6q115 0 176.5 67t61.5 204q0 95 -31 162q-55 -80 -157.5 -227.5t-135.5 -194.5z" />
    <glyph glyph-name="ugrave" unicode="&#xf9;" horiz-adv-x="1148" 
d="M106 373v626h265v-618q0 -74 32 -109q38 -41 156 -41q111 0 184 27q21 8 21 41v700h264v-999h-201l-34 86l-58 -31q-133 -71 -237 -71q-176 0 -284 103t-108 286zM291 1348l104 155q16 25 33 25q12 0 33 -15l375 -286l-84 -117z" />
    <glyph glyph-name="uacute" unicode="&#xfa;" horiz-adv-x="1148" 
d="M106 373v626h265v-618q0 -74 32 -109q38 -41 156 -41q111 0 184 27q21 8 21 41v700h264v-999h-201l-34 86l-58 -31q-133 -71 -237 -71q-176 0 -284 103t-108 286zM322 1227l374 286q21 15 33 15q17 0 33 -25l104 -155l-460 -238z" />
    <glyph glyph-name="ucircumflex" unicode="&#xfb;" horiz-adv-x="1148" 
d="M106 373v626h265v-618q0 -74 32 -109q38 -41 156 -41q111 0 184 27q21 8 21 41v700h264v-999h-201l-34 86l-58 -31q-133 -71 -237 -71q-176 0 -284 103t-108 286zM205 1212l262 261q15 15 27.5 20.5t35.5 5.5h84q38 0 64 -26l262 -261l-106 -102l-261 193l-262 -193z" />
    <glyph glyph-name="udieresis" unicode="&#xfc;" horiz-adv-x="1148" 
d="M106 373v626h265v-618q0 -74 32 -109q38 -41 156 -41q111 0 184 27q21 8 21 41v700h264v-999h-201l-34 86l-58 -31q-133 -71 -237 -71q-176 0 -284 103t-108 286zM233 1169v248h209q29 0 39.5 -10t10.5 -35v-203h-259zM653 1169v248h209q29 0 39 -10t10 -35v-203h-258z
" />
    <glyph glyph-name="yacute" unicode="&#xfd;" horiz-adv-x="1087" 
d="M0 999h250q19 0 26.5 -5t14.5 -23l158 -391q83 -207 108 -306q35 127 100 297l150 400q7 18 14.5 23t26.5 5h242l-596 -1482l-254 59l184 414zM303 1227l375 286q21 15 33 15q16 0 32 -25l105 -155l-461 -238z" />
    <glyph glyph-name="thorn" unicode="&#xfe;" horiz-adv-x="1173" 
d="M119 -469v1921h264v-532l61 30q72 36 123 51t107 15q189 0 313.5 -143.5t124.5 -372.5q0 -233 -122 -374.5t-314 -141.5q-106 0 -236 65l-57 29v-547h-264zM383 309q0 -17 4 -25t16 -14q92 -43 205 -43q119 0 176.5 61.5t57.5 211.5q0 146 -57 207t-177 61
q-117 0 -205 -45q-14 -7 -17 -14.5t-3 -24.5v-375z" />
    <glyph glyph-name="ydieresis" unicode="&#xff;" horiz-adv-x="1087" 
d="M0 999h250q19 0 26.5 -5t14.5 -23l158 -391q83 -207 108 -306q35 127 100 297l150 400q7 18 14.5 23t26.5 5h242l-596 -1482l-254 59l184 414zM205 1169v248h209q29 0 39 -10t10 -35v-203h-258zM625 1169v248h209q29 0 39 -10t10 -35v-203h-258z" />
    <glyph glyph-name="OE" unicode="&#x152;" horiz-adv-x="2250" 
d="M74 678q0 156 53.5 288.5t144 222t210 139.5t251.5 50q126 0 232 -49t174 -129v158h979v-238h-697v-309h629v-236h-629v-337h717v-238h-999v158q-68 -80 -174 -129t-232 -49q-132 0 -251.5 50t-210 139t-144 221.5t-53.5 287.5zM369 678q0 -200 103 -312t284 -112h4
q181 0 284 111.5t103 312.5q0 202 -102.5 313t-284.5 111h-4q-182 0 -284.5 -111t-102.5 -313z" />
    <glyph glyph-name="oe" unicode="&#x153;" horiz-adv-x="1863" 
d="M61 500q0 120 41.5 219t112 163t162 99t192.5 35h6q108 0 206 -40t169 -114q68 73 163.5 113.5t201.5 40.5q140 0 251 -64.5t170.5 -173t59.5 -239.5q0 -61 -10 -95q-6 -17 -14.5 -21.5t-28.5 -4.5h-656q11 -92 75 -147.5t175 -55.5q107 0 240 47l113 39l84 -145
q-92 -79 -211.5 -125.5t-241.5 -46.5q-231 0 -373 151q-71 -74 -167.5 -112.5t-205.5 -38.5h-6q-101 0 -192.5 34.5t-162 98.5t-112 163t-41.5 220zM332 500q0 -271 237 -271h6q238 0 238 271q0 268 -238 268h-6q-237 0 -237 -268zM1090 604h444q-8 80 -66.5 131t-154.5 51
q-97 0 -155.5 -50.5t-67.5 -131.5z" />
    <glyph glyph-name="Ydieresis" unicode="&#x178;" horiz-adv-x="1370" 
d="M0 1358h289q26 0 39 -23l178 -313q58 -103 186 -354q46 99 191 358l172 307q8 14 16 19.5t25 5.5h274l-541 -926v-432h-282v432zM344 1532v248h209q29 0 39 -10t10 -35v-203h-258zM764 1532v248h209q29 0 39 -10t10 -35v-203h-258z" />
    <glyph glyph-name="circumflex" unicode="&#x2c6;" horiz-adv-x="847" 
d="M55 1212l262 261q26 26 64 26h84q23 0 35.5 -5.5t27.5 -20.5l263 -261l-107 -102l-260 193l-262 -193z" />
    <glyph glyph-name="tilde" unicode="&#x2dc;" horiz-adv-x="847" 
d="M49 1182q14 107 76.5 179.5t159.5 72.5q49 0 100.5 -24t94 -47.5t71.5 -23.5t51.5 23t54.5 78l142 -39q-16 -108 -78 -180t-160 -72q-49 0 -100 23.5t-93.5 47t-70.5 23.5q-31 0 -54.5 -23t-52.5 -77z" />
    <glyph glyph-name="uni2000" unicode="&#x2000;" horiz-adv-x="945" 
 />
    <glyph glyph-name="uni2001" unicode="&#x2001;" horiz-adv-x="1890" 
 />
    <glyph glyph-name="uni2002" unicode="&#x2002;" horiz-adv-x="945" 
 />
    <glyph glyph-name="uni2003" unicode="&#x2003;" horiz-adv-x="1890" 
 />
    <glyph glyph-name="uni2004" unicode="&#x2004;" horiz-adv-x="630" 
 />
    <glyph glyph-name="uni2005" unicode="&#x2005;" horiz-adv-x="472" 
 />
    <glyph glyph-name="uni2006" unicode="&#x2006;" horiz-adv-x="315" 
 />
    <glyph glyph-name="uni2007" unicode="&#x2007;" horiz-adv-x="315" 
 />
    <glyph glyph-name="uni2008" unicode="&#x2008;" horiz-adv-x="236" 
 />
    <glyph glyph-name="uni2009" unicode="&#x2009;" horiz-adv-x="378" 
 />
    <glyph glyph-name="uni200A" unicode="&#x200a;" horiz-adv-x="105" 
 />
    <glyph glyph-name="uni2010" unicode="&#x2010;" horiz-adv-x="866" 
d="M100 387v223h666v-223h-666z" />
    <glyph glyph-name="uni2011" unicode="&#x2011;" horiz-adv-x="866" 
d="M100 387v223h666v-223h-666z" />
    <glyph glyph-name="figuredash" unicode="&#x2012;" horiz-adv-x="866" 
d="M100 387v223h666v-223h-666z" />
    <glyph glyph-name="endash" unicode="&#x2013;" horiz-adv-x="1224" 
d="M100 387v223h1024v-223h-1024z" />
    <glyph glyph-name="emdash" unicode="&#x2014;" horiz-adv-x="2248" 
d="M100 387v223h2048v-223h-2048z" />
    <glyph glyph-name="quoteleft" unicode="&#x2018;" horiz-adv-x="473" 
d="M84 825v138q0 79 15.5 131t68.5 121t164 171l92 -71l-135 -228q-8 -16 -8 -20q0 -8 18 -20l31 -19q25 -15 31 -24.5t6 -38.5v-191h-228q-31 0 -43 12t-12 39z" />
    <glyph glyph-name="quoteright" unicode="&#x2019;" horiz-adv-x="473" 
d="M49 817l135 227q9 18 9 21q0 7 -19 20l-31 19q-25 15 -31 24.5t-6 38.5v191h228q31 0 43 -12t12 -39v-138q0 -60 -7.5 -99.5t-33 -89t-74.5 -104t-133 -131.5z" />
    <glyph glyph-name="quotesinglbase" unicode="&#x201a;" horiz-adv-x="487" 
d="M43 -414l135 228q8 16 8 20q0 9 -18 21l-31 18q-25 15 -31 25t-6 39v190h228q31 0 43 -12t12 -39v-137q0 -60 -7.5 -99.5t-33 -89t-74.5 -104t-133 -131.5z" />
    <glyph glyph-name="quotedblleft" unicode="&#x201c;" horiz-adv-x="876" 
d="M84 825v138q0 79 15.5 131t68.5 121t164 171l92 -71l-135 -228q-8 -16 -8 -20q0 -8 18 -20l31 -19q25 -15 31 -24.5t6 -38.5v-191h-228q-31 0 -43 12t-12 39zM487 825v138q0 79 15.5 131t68.5 121t164 171l92 -71l-135 -228q-8 -16 -8 -20q0 -8 18 -20l31 -19
q25 -15 31 -24.5t6 -38.5v-191h-227q-31 0 -43.5 12t-12.5 39z" />
    <glyph glyph-name="quotedblright" unicode="&#x201d;" horiz-adv-x="876" 
d="M49 817l135 227q9 18 9 21q0 7 -19 20l-31 19q-25 15 -31 24.5t-6 38.5v191h228q31 0 43 -12t12 -39v-138q0 -60 -7.5 -99.5t-33 -89t-74.5 -104t-133 -131.5zM453 817l135 227q8 16 8 21q0 8 -18 20l-31 19q-25 15 -31 24.5t-6 38.5v191h227q31 0 43.5 -12t12.5 -39
v-138q0 -60 -7.5 -99.5t-33 -89t-74.5 -104t-133 -131.5z" />
    <glyph glyph-name="quotedblbase" unicode="&#x201e;" horiz-adv-x="890" 
d="M43 -414l135 228q8 16 8 20q0 9 -18 21l-31 18q-25 15 -31 25t-6 39v190h228q31 0 43 -12t12 -39v-137q0 -60 -7.5 -99.5t-33 -89t-74.5 -104t-133 -131.5zM446 -414l136 228q8 16 8 20q0 8 -19 21l-30 18q-25 15 -31 25t-6 39v190h227q31 0 43 -12t12 -39v-137
q0 -80 -15 -131.5t-68.5 -121.5t-163.5 -171z" />
    <glyph glyph-name="bullet" unicode="&#x2022;" horiz-adv-x="743" 
d="M133 352v453h408q40 0 54.5 -13.5t14.5 -50.5v-389h-477z" />
    <glyph glyph-name="ellipsis" unicode="&#x2026;" horiz-adv-x="1456" 
d="M102 0v281h228q31 0 43 -12.5t12 -39.5v-229h-283zM586 0v281h227q31 0 43 -12.5t12 -39.5v-229h-282zM1069 0v281h227q31 0 43.5 -12.5t12.5 -39.5v-229h-283z" />
    <glyph glyph-name="uni202F" unicode="&#x202f;" horiz-adv-x="378" 
 />
    <glyph glyph-name="guilsinglleft" unicode="&#x2039;" horiz-adv-x="755" 
d="M84 457v112l467 369l119 -119l-301 -317v-4l301 -316l-119 -121l-447 353q-13 10 -16.5 17.5t-3.5 25.5z" />
    <glyph glyph-name="guilsinglright" unicode="&#x203a;" horiz-adv-x="755" 
d="M86 180l301 318v4l-301 315l119 121l446 -352q14 -11 17.5 -18.5t3.5 -24.5v-113l-467 -369z" />
    <glyph glyph-name="uni205F" unicode="&#x205f;" horiz-adv-x="472" 
 />
    <glyph glyph-name="Euro" unicode="&#x20ac;" 
d="M63 471v121l130 24q-3 30 -3 62v43h-127v121l146 26q43 238 197.5 374t361.5 136q166 0 293.5 -87.5t200.5 -243.5l-168 -111l-113 96q-62 52 -108 74t-105 22q-103 0 -177.5 -66.5t-98.5 -193.5h389v-147h-408v-47q0 -36 4 -56h404v-147h-379q25 -116 104 -175.5
t191 -59.5q131 0 254 69l116 66l107 -135q-83 -115 -226 -185.5t-280 -70.5q-218 0 -369 132.5t-188 358.5h-148z" />
    <glyph glyph-name="trademark" unicode="&#x2122;" horiz-adv-x="1495" 
d="M41 1198v160h551v-160h-182v-477h-183v477h-186zM664 721v637h137q15 0 28 -15l203 -266h2l195 266q12 15 31 15h135v-637h-170v364l-138 -186h-92q-20 0 -30 12l-134 174v-364h-167z" />
    <glyph glyph-name="uni25FC" unicode="&#x25fc;" horiz-adv-x="1003" 
d="M0 0v1004h1004v-1004h-1004z" />
    </font>
</defs>
</svg>
