<?xml version="1.0" encoding="utf-8"?>
<!-- Generator: Adobe Illustrator 21.1.0, SVG Export Plug-In . SVG Version: 6.00 Build 0)  -->
<svg version="1.1" xmlns="http://www.w3.org/2000/svg" xmlns:xlink="http://www.w3.org/1999/xlink" x="0px" y="0px"
	 viewBox="0 0 160 160" style="enable-background:new 0 0 160 160;" xml:space="preserve">
<style type="text/css">
	.st0{fill:#FFFFFF;}
	.st1{display:none;fill:#FFFFFF;}
</style>
<g id="Layer_1">
	<path class="st0" d="M159.8,80.2c0-0.1,0-0.1,0-0.2c0-0.1,0-0.1,0-0.2c0-0.6,0-1.2,0-1.8c0-0.5,0-0.9,0-1.4c0-1-0.1-2-0.2-3.1
		c0-0.1,0-0.2,0-0.3c-0.1-1.1-0.2-2.2-0.3-3.2c0-0.1,0-0.1,0-0.2c-0.5-3.9-1.3-7.8-2.3-11.5c-0.2-0.6-0.3-1.2-0.5-1.8
		c-0.1-0.4-0.3-0.8-0.4-1.3c-0.3-0.8-0.5-1.6-0.8-2.4c-0.1-0.3-0.3-0.7-0.4-1c-0.3-0.8-0.6-1.7-1-2.5c-0.1-0.3-0.3-0.6-0.4-0.9
		c-0.3-0.8-0.7-1.6-1.1-2.4c-0.2-0.4-0.3-0.7-0.5-1.1c-0.3-0.6-0.6-1.1-0.9-1.7c-13.3-25.6-40-43.1-70.7-43.1
		C37.2,0.1,1.9,34.1,0.3,76.6c0,0.3,0,0.5,0,0.8c0,0.8-0.1,1.6-0.1,2.3c0,0.1,0,0.1,0,0.2c0,0.1,0,0.1,0,0.2c0,0.6,0,1.2,0,1.8
		c0,0.5,0,0.9,0,1.4c0,1,0.1,2,0.2,3.1c0,0.1,0,0.2,0,0.3c0.1,1.1,0.2,2.2,0.3,3.2c0,0.1,0,0.1,0,0.2c0.5,3.9,1.3,7.8,2.3,11.5
		c0.2,0.6,0.3,1.2,0.5,1.8c0.1,0.4,0.3,0.8,0.4,1.3c0.3,0.8,0.5,1.6,0.8,2.4c0.1,0.3,0.3,0.7,0.4,1c0.3,0.8,0.6,1.7,1,2.5
		c0.1,0.3,0.3,0.6,0.4,0.9c0.3,0.8,0.7,1.6,1.1,2.4c0.2,0.4,0.3,0.7,0.5,1.1c0.3,0.6,0.6,1.1,0.9,1.7c13.3,25.6,40,43.1,70.7,43.1
		c42.9,0,78.2-34.1,79.9-76.6c0-0.3,0-0.5,0-0.8C159.8,81.8,159.8,81,159.8,80.2z M79.9,158c-25.7,0-48.4-12.5-62.6-31.8v0
		C9.5,114.9,3.9,101.4,2.5,86.6c0-0.5-0.1-1-0.1-1.5c0-0.4-0.1-0.7-0.1-1.1c-0.1-1.2-0.1-2.5-0.1-3.8c0-17.4,5.4-33.4,15.4-46.4
		v-0.5C31.9,14.4,54.6,2,80.1,2c25.7,0,48.4,12.5,62.6,31.8v0c7.8,11.2,13.5,24.8,14.8,39.6c0,0.5,0.1,1,0.1,1.5
		c0,0.4,0.1,0.7,0.1,1.1c0.1,1.2,0.1,2.5,0.1,3.8c0,17.4-5.4,33.4-15.4,46.4v0.5C128.1,145.6,105.4,158,79.9,158z"/>
	<path class="st1" d="M54.6,93.5c-1.9,0.7-3.2,0.7-4.9-0.6c-3.2-2.7-8.3-1.8-10.8,1.5c-2.6,3.4-2.1,8.5,1.2,11.1
		c3.5,2.8,8.4,2.3,11.2-1.1c1.5-1.9,1.6-1.9,4.4-1.9c-0.8,4.6-5.5,8.1-10.8,8c-5.3,0-9.9-4.1-10.8-9.3c-0.8-4.6,1.3-10.7,8.4-12.9
		C46.6,87.2,52.4,89.5,54.6,93.5z"/>
	<path class="st1" d="M128.6,91.9c1,1.4,1.8,2.5,0.9,4.4c-1.8,4.1,0.5,8.7,4.6,10.2c4.3,1.6,8.9-0.6,10.3-4.8
		c1.5-4.2-0.7-8.6-4.9-10.1c-2.1-0.7-2.1-0.7-3.1-3.4c3.6-1.2,8.8,1.8,10.8,6.2c2.4,5.2,0.5,11.3-4.4,14.2c-4.9,3-11.1,1.8-14.6-2.6
		C124.7,101.8,124.9,95.7,128.6,91.9z"/>
</g>
<g id="Layer_2">
	<path class="st0" d="M106.5,50.7c0.1,0,0.2,0.1,0.3,0.1c5.9,2.4,11.3,6.1,16,11.1c2.3,2.5,2.6,4.6,1,7.5c-0.3,0.5-1.1,1-1.8,1.5
		c-0.2,0.1-0.4,0.3-0.6,0.4c-0.3,0.2-0.8,0.4-1.4,0.7c-0.3,0.1-0.7,0.3-1,0.4c-0.5,0.2-0.9,0.6-1.1,1.2c-0.2,0.5-0.1,1.1,0.1,1.6
		l1.2,2.4l0.8,1.5c0.3,0.7,1,1.1,1.8,1.1c0.1,0,0.2,0,0.4,0c1.3-0.2,2.5-0.4,3.7-0.4c3.1,0,5.9,0.8,8.6,2.4c3.3,2,5.5,4.9,6.7,8.6
		c2.3,7.2-0.8,15.3-7.3,18.9c-2.4,1.3-5.1,2-7.8,2c-4.8,0-9.3-2.1-12.4-5.8c-5.4-6.5-4.6-14.7,2-22.6c0.5-0.6,0.6-1.5,0.3-2.2
		l-1.9-3.9c-0.3-0.5-0.8-0.9-1.4-1.1c-0.1,0-0.3,0-0.4,0c-0.5,0-0.9,0.2-1.3,0.5c-10.4,8.6-10,19.6-8,27.9l-0.4,0l-2.7,0l-3.1,0
		l-3.9,0l-4.8,0l-4.8,0c-7,0-14.4,0-21.8,0.1l-0.1,0c-0.5,0-0.8-0.1-0.8-0.1c0-0.1-0.1-0.2-0.1-0.6c-0.2-1.7-0.5-3.3-0.8-5
		c-0.1-0.7-0.3-1.5-0.4-2.3c-0.2-1-1-1.7-2-1.7c-0.1,0-0.2,0-0.3,0c-0.4,0.1-0.8,0.1-1.2,0.2c-1.1,0.1-2.2,0.3-3.4,0.7
		c-1.5,0.6-2.2,2.5-2.4,3.5c-1.7,7-6.7,11.6-13.8,12.6c-0.6,0.1-1.3,0.1-2,0.1c-7.1,0-13.6-5-15.3-11.9c-1.9-7.7,2.1-15.9,9.5-19
		c1.8-0.7,3.7-1.1,5.7-1.1c6.3,0,12.1,3.5,14.6,8.8c0.1,0.3,0.3,0.6,0.5,0.8c0.1,0.1,0.1,0.2,0.2,0.3c0.4,0.6,1,0.9,1.7,0.9
		c0.1,0,0.3,0,0.4,0l0.1,0l3.4-0.7c0.7-0.2,1.3-0.7,1.5-1.4c0.2-0.7,0-1.5-0.5-2c-1.2-1.1-2.3-2.2-3.4-3.4c-2.9-2.9-5.7-5.7-8.8-8.3
		c-1.4-1.1-3.2-1.4-4.7-1.5c-0.6-0.1-1.2-0.1-1.6-0.2C36.7,73,36.3,73,35.8,73c-4.4,0-7.6-1.6-9.9-4.9c10.2,0.1,19.4,0.2,28.9,0.4
		c1,0,2.2,0.6,3.5,1.2c5,2.4,9.2,3.5,13.4,3.5c0.3,0,0.5,0,0.8,0c4.6-0.2,8.3-2.4,10.4-6.3c3.1-5.9,7.9-8.7,14.5-8.7
		c0.9,0,1.8,0,2.7,0.1c0.4,0,0.7,0.1,1,0.1c1.6,0,3.6-0.6,4-3.7c0.1-0.5,0.3-1.1,0.7-1.9c0.2-0.4,0.4-0.9,0.6-1.4
		C106.4,51.1,106.5,50.9,106.5,50.7 M125.9,101.7c-0.7,0-1.4-0.1-2.1-0.4c-1.5-0.6-2.8-1.8-3.5-3.3c-0.6-1.4-0.6-2.9,0-4.3
		c1.4-3.1-0.1-5.1-1.2-6.5c-0.4-0.5-0.9-0.7-1.5-0.8c0,0-0.1,0-0.1,0c-0.5,0-1,0.2-1.4,0.6c-4.4,4.4-4.7,11.7-0.6,16.8
		c2.5,3.2,6.3,5.1,10.4,5.1c2.4,0,4.8-0.7,6.9-1.9c5.7-3.5,7.9-10.7,5.2-16.8c-2-4.4-6.7-7.6-10.9-7.6c-0.8,0-1.6,0.1-2.3,0.4
		c-0.5,0.2-1,0.5-1.2,1c-0.2,0.5-0.3,1.1-0.1,1.6c1.2,3,1.5,3.6,4.3,4.5c1.6,0.5,2.8,1.6,3.5,3.1c0.7,1.4,0.8,3,0.2,4.5
		C130.7,100.1,128.4,101.7,125.9,101.7 M34,109.1c6.2,0,11.6-4.1,12.6-9.7c0.1-0.6-0.1-1.2-0.4-1.6c-0.4-0.5-0.9-0.7-1.5-0.7l-0.3,0
		c-3.1,0-3.7,0.3-5.6,2.6c-1.1,1.4-2.8,2.2-4.5,2.2c-1.4,0-2.8-0.5-3.9-1.4c-2.4-1.9-2.8-5.8-0.8-8.3c1.1-1.4,2.9-2.3,4.7-2.3
		c1.2,0,2.3,0.4,3.2,1.1c1.3,1.1,2.6,1.6,4,1.6c0.9,0,1.8-0.2,2.9-0.6c0.5-0.2,1-0.6,1.2-1.2s0.2-1.1-0.1-1.6
		c-2.1-3.8-6.7-6.5-11.4-6.5c-1,0-2,0.1-3,0.4c-8.1,2.5-10.8,9.6-9.8,15.1c1.1,6.2,6.6,10.9,12.8,11L34,109.1 M95.1,46.1
		c-0.5,0-1.2,0.8-1.7,1.2c0.5,0.5,1,1.2,1.6,1.5c0.5,0.3,1.2,0.1,1.9,0.2c2.6,0.5,5.3,1,7.8,1.5c-0.6,1.5-1.2,2.6-1.4,3.7
		c-0.2,1.5-0.8,2-2.1,2c-0.2,0-0.5,0-0.8,0c-1-0.1-2-0.2-2.9-0.2c-7,0-12.6,2.9-16.3,9.8c-1.8,3.3-4.9,5.1-8.7,5.3
		c-0.2,0-0.5,0-0.7,0c-4.5,0-8.6-1.4-12.5-3.3c-1.3-0.7-2.8-1.4-4.3-1.4C45,66.2,35.2,66.1,25.3,66c0,0,0,0,0,0
		c-0.7,0-1.7,0.3-1.9,0.8c-0.2,0.5,0.2,1.4,0.6,2C26.8,73,30.8,75,35.8,75c0.3,0,0.6,0,0.8,0.1c1.9,0.4,4.2,0.3,5.5,1.4
		c4.2,3.5,8,7.5,12.1,11.6c-1.3,0.3-2.4,0.5-3.5,0.7c-0.2-0.4-0.4-0.6-0.5-0.8c-2.9-6.3-9.7-10-16.4-10c-2.2,0-4.4,0.4-6.5,1.3
		c-8.2,3.4-12.9,12.4-10.6,21.3c2,7.9,9.4,13.4,17.3,13.4c0.7,0,1.5,0,2.2-0.1c7.9-1.1,13.7-6.3,15.5-14.1c0.2-0.8,0.6-1.9,1.2-2.1
		c1.2-0.5,2.7-0.5,4.2-0.8c0.4,2.6,0.9,4.9,1.2,7.2c0.2,1.9,1.1,2.5,3,2.5c0,0,0,0,0.1,0c7.3-0.1,14.5-0.1,21.8-0.1
		c3.2,0,6.4,0,9.5,0c1.3,0,2.6,0,3.9,0c1,0,2.1,0,3.1,0c1.8,0,3.6,0,5.6,0c-3-10.9-2.6-20.7,6.7-28.4c0.7,1.4,1.3,2.7,1.9,3.9
		c-7.2,8.7-7.9,18-2,25.2c3.5,4.3,8.7,6.6,13.9,6.6c3,0,6-0.7,8.8-2.3c7.4-4.1,10.9-13.1,8.3-21.2c-1.4-4.1-3.9-7.4-7.6-9.7
		c-3-1.9-6.2-2.8-9.6-2.8c-1.3,0-2.7,0.1-4,0.4c-0.7-1.3-1.3-2.5-2-3.8c1-0.5,2-0.7,2.8-1.3c1.1-0.8,2.4-1.5,3-2.6
		c2-3.7,1.5-6.7-1.3-9.8c-4.7-5.1-10.3-9.1-16.7-11.6C103.6,47.4,99.3,46.9,95.1,46.1C95.1,46.1,95.1,46.1,95.1,46.1L95.1,46.1z
		 M125.9,103.7c3.3,0,6.3-2,7.5-5.4c1.5-4.2-0.7-8.6-4.9-10.1c-2.1-0.7-2.1-0.7-3.1-3.4c0.5-0.2,1.1-0.3,1.7-0.3
		c3.4,0,7.4,2.7,9.1,6.5c2.4,5.2,0.5,11.3-4.4,14.2c-1.8,1.1-3.9,1.7-5.9,1.7c-3.3,0-6.6-1.5-8.8-4.3c-3.4-4.3-3.2-10.5,0.5-14.2
		c1,1.4,1.8,2.5,0.9,4.4c-1.8,4.1,0.5,8.7,4.6,10.2C124,103.5,124.9,103.7,125.9,103.7L125.9,103.7z M34,107.1c0,0-0.1,0-0.1,0
		c-5.3,0-9.9-4.1-10.8-9.3c-0.8-4.6,1.3-10.7,8.4-12.9c0.8-0.2,1.6-0.3,2.4-0.3c3.7,0,7.8,2.2,9.6,5.5c-0.8,0.3-1.5,0.5-2.2,0.5
		c-0.9,0-1.8-0.3-2.7-1.1c-1.3-1.1-2.9-1.6-4.5-1.6c-2.4,0-4.8,1.1-6.3,3.1c-2.6,3.4-2.1,8.5,1.2,11.1c1.5,1.2,3.4,1.8,5.1,1.8
		c2.3,0,4.5-1,6.1-2.9c1.5-1.8,1.6-1.9,4.1-1.9c0.1,0,0.2,0,0.3,0C43.8,103.6,39.2,107.1,34,107.1L34,107.1z"/>
	<g>
		<path class="st0" d="M81.9,94h-1.8V82.8c-0.4,0.4-1,0.8-1.7,1.2s-1.3,0.7-1.9,0.9v-1.7c1-0.5,1.8-1,2.6-1.7s1.3-1.3,1.6-1.9h1.1
			V94z"/>
	</g>
</g>
</svg>
