<svg xmlns="http://www.w3.org/2000/svg" viewBox="0 0 159.6 159.85"><defs><style>.cls-1{fill:#fff;}</style></defs><title>bike-sim-day-4</title><g id="Layer_1" data-name="Layer 1"><path class="cls-1" d="M17.33,126.17c-9-13-15.13-29-15.13-46.39a77.79,77.79,0,0,1,155.57,0,75.23,75.23,0,0,1-15.44,46.39v3.19A78.54,78.54,0,0,0,159.8,79.78,79.75,79.75,0,0,0,80.14.07C36.19.07.2,35.83.2,79.78a78.25,78.25,0,0,0,17.13,49.58Z" transform="translate(-0.2 -0.07)"/><path class="cls-1" d="M142.67,33.83c9,13,15.13,29,15.13,46.39a77.79,77.79,0,0,1-155.57,0A75.23,75.23,0,0,1,17.67,33.83V30.64A78.54,78.54,0,0,0,.2,80.22a79.75,79.75,0,0,0,79.65,79.71c44,0,79.94-35.76,79.94-79.71a78.25,78.25,0,0,0-17.13-49.58Z" transform="translate(-0.2 -0.07)"/></g><g id="Layer_2" data-name="Layer 2"><path class="cls-1" d="M106.51,50.73l.27.1a43.6,43.6,0,0,1,16,11.14c2.34,2.53,2.62,4.55,1,7.45A6.32,6.32,0,0,1,121.94,71l-.56.38A7.59,7.59,0,0,1,120,72c-.34.13-.68.27-1,.43a2,2,0,0,0-1,2.75l1.23,2.36.77,1.48a2,2,0,0,0,2.14,1,20.37,20.37,0,0,1,3.68-.35,15.74,15.74,0,0,1,8.57,2.45,15.43,15.43,0,0,1,6.71,8.62,16.07,16.07,0,0,1-7.34,18.86,16.31,16.31,0,0,1-7.85,2,16,16,0,0,1-12.4-5.83c-5.35-6.47-4.64-14.72,2-22.65a2,2,0,0,0,.26-2.16l-1.94-3.95a2,2,0,0,0-3.07-.66c-10.43,8.64-10,19.62-8,27.94H83.07c-7,0-14.42,0-21.77.06h-.05a2.69,2.69,0,0,1-.83-.09,2.14,2.14,0,0,1-.14-.62c-.19-1.69-.49-3.32-.8-5-.13-.74-.27-1.5-.4-2.28a2,2,0,0,0-2-1.67l-.33,0c-.42.07-.83.12-1.24.17a13,13,0,0,0-3.35.73c-1.53.62-2.17,2.45-2.42,3.49a15.79,15.79,0,0,1-13.82,12.59,14.71,14.71,0,0,1-2,.13A16,16,0,0,1,18.66,99.94a16.38,16.38,0,0,1,9.46-19,14.57,14.57,0,0,1,5.7-1.12c6.3,0,12.15,3.55,14.56,8.83a5.33,5.33,0,0,0,.46.78l.19.28a2,2,0,0,0,2.1.89l.14,0,3.38-.71a2,2,0,0,0,1-3.39c-1.16-1.13-2.29-2.25-3.41-3.36-2.95-2.93-5.73-5.69-8.79-8.29a8.59,8.59,0,0,0-4.75-1.54c-.59-.07-1.16-.13-1.64-.24A5.81,5.81,0,0,0,35.79,73c-4.36,0-7.59-1.62-9.86-4.94,10.18.08,19.41.17,28.86.4a9.49,9.49,0,0,1,3.47,1.19c5,2.42,9.24,3.55,13.42,3.55h.75a11.77,11.77,0,0,0,10.44-6.31c3.14-5.88,7.88-8.74,14.49-8.74a26.47,26.47,0,0,1,2.72.15,9.48,9.48,0,0,0,1,.06c1.59,0,3.57-.64,4-3.69a8.14,8.14,0,0,1,.68-1.88c.19-.42.4-.9.61-1.43a2,2,0,0,0,.13-.55m19.38,50.95a6.18,6.18,0,0,1-2.15-.39A6,6,0,0,1,120.28,98a5.36,5.36,0,0,1,0-4.28c1.37-3.14-.15-5.13-1.16-6.46a2,2,0,0,0-1.46-.78h-.13a2,2,0,0,0-1.42.59,12.73,12.73,0,0,0-.65,16.82,13.09,13.09,0,0,0,10.37,5.06,13.25,13.25,0,0,0,12.07-18.7c-2-4.36-6.66-7.64-10.89-7.64a7.49,7.49,0,0,0-2.31.35,2,2,0,0,0-1.25,2.62c1.17,3,1.52,3.55,4.34,4.53a6,6,0,0,1,3.49,3.06,5.84,5.84,0,0,1,.23,4.5,5.91,5.91,0,0,1-5.62,4M34,109.11c6.21,0,11.64-4.15,12.63-9.65a2,2,0,0,0-2-2.35h-.31c-3.06,0-3.75.32-5.64,2.6a5.89,5.89,0,0,1-4.55,2.16,6,6,0,0,1-4.71-9.73,6,6,0,0,1,4.69-2.31A5,5,0,0,1,37.35,91a6.07,6.07,0,0,0,4,1.59A8,8,0,0,0,44.2,92a2,2,0,0,0,1.06-2.81A13.28,13.28,0,0,0,33.87,82.6a10.19,10.19,0,0,0-3,.43C22.77,85.5,20.1,92.6,21.06,98.15a13.31,13.31,0,0,0,12.78,11H34m61.09-63c-.51,0-1.16.77-1.75,1.16a7.92,7.92,0,0,0,1.59,1.52c.51.27,1.24.09,1.85.21,2.63.5,5.25,1,7.76,1.54a19.92,19.92,0,0,0-1.41,3.74c-.23,1.53-.83,2-2.05,2a7.55,7.55,0,0,1-.77,0,28.34,28.34,0,0,0-2.92-.16c-7,0-12.58,2.91-16.26,9.8a9.77,9.77,0,0,1-8.74,5.26h-.69a28.53,28.53,0,0,1-12.55-3.34,11.07,11.07,0,0,0-4.3-1.39C45,66.18,35.15,66.09,25.31,66h0c-.66,0-1.67.33-1.87.79s.23,1.39.61,2C26.77,73,30.78,75,35.79,75a3.94,3.94,0,0,1,.83.08c1.87.41,4.23.26,5.52,1.35,4.17,3.54,8,7.53,12.1,11.56l-3.52.74a8.44,8.44,0,0,1-.52-.83c-2.87-6.29-9.7-10-16.38-10a16.65,16.65,0,0,0-6.48,1.27,18.3,18.3,0,0,0-10.63,21.29A18.06,18.06,0,0,0,34,113.87a16.66,16.66,0,0,0,2.23-.15A17.86,17.86,0,0,0,51.7,99.61c.18-.78.62-1.85,1.22-2.09a20.39,20.39,0,0,1,4.17-.79c.43,2.56.93,4.87,1.19,7.21.22,1.91,1.1,2.48,3,2.48h.07c7.25-.05,14.51-.06,21.76-.06h22.15c-3-10.91-2.59-20.66,6.75-28.4l1.94,3.95c-7.21,8.65-7.91,18-2,25.2a18,18,0,0,0,31-17,17.5,17.5,0,0,0-7.55-9.7,17.82,17.82,0,0,0-9.63-2.75,22.26,22.26,0,0,0-4,.39l-2-3.84A17.6,17.6,0,0,0,122.5,73c1.11-.75,2.44-1.51,3-2.61,2-3.69,1.52-6.67-1.34-9.76A45.65,45.65,0,0,0,107.52,49c-3.89-1.55-8.21-2-12.37-2.84Zm30.82,57.55a7.94,7.94,0,0,0,2.57-15.46c-2.13-.74-2.13-.74-3.13-3.36a5.49,5.49,0,0,1,1.7-.26c3.38,0,7.36,2.71,9.07,6.47a11.23,11.23,0,0,1-19,11.59,10.74,10.74,0,0,1,.49-14.18c1,1.35,1.78,2.47.92,4.44a7.76,7.76,0,0,0,4.6,10.25,8.18,8.18,0,0,0,2.84.51ZM34,107.11h-.11A11.35,11.35,0,0,1,23,97.81c-.8-4.61,1.27-10.68,8.45-12.87a8.2,8.2,0,0,1,2.39-.34,11.37,11.37,0,0,1,9.62,5.48,6.13,6.13,0,0,1-2.15.47,4.09,4.09,0,0,1-2.71-1.12,7,7,0,0,0-4.51-1.61,8,8,0,0,0-6.28,3.1A8.13,8.13,0,0,0,29,102a8.25,8.25,0,0,0,5.15,1.84A7.85,7.85,0,0,0,40.23,101c1.48-1.79,1.57-1.88,4.09-1.88h.31c-.81,4.53-5.45,8-10.66,8Z" transform="translate(-0.2 -0.07)"/><path class="cls-1" d="M80.9,94V90.56H74.69V88.95l6.53-9.28h1.44v9.28h1.93v1.61H82.66V94Zm0-5V82.49l-4.48,6.46Z" transform="translate(-0.2 -0.07)"/></g></svg>