<?xml version="1.0" encoding="utf-8"?>
<!-- Generator: Adobe Illustrator 18.1.1, SVG Export Plug-In . SVG Version: 6.00 Build 0)  -->
<svg version="1.1" id="Layer_1" xmlns="http://www.w3.org/2000/svg" xmlns:xlink="http://www.w3.org/1999/xlink" x="0px" y="0px"
	 viewBox="0 0 40 40" enable-background="new 0 0 40 40" xml:space="preserve">
<g>
	<g>
		<path fill="#FFFFFF" d="M20,2c5.5,0,10,4.5,10,10v16c0,5.5-4.5,10-10,10c-5.5,0-10-4.5-10-10V12C10,6.5,14.5,2,20,2 M20,0L20,0
			C13.4,0,8,5.4,8,12v16c0,6.6,5.4,12,12,12h0c6.6,0,12-5.4,12-12V12C32,5.4,26.6,0,20,0L20,0z"/>
	</g>
	<circle fill="#FFFFFF" cx="20" cy="10" r="2"/>
</g>
</svg>
