<svg id="Layer_2" data-name="Layer 2" xmlns="http://www.w3.org/2000/svg" viewBox="0 0 812 456.75"><title>andon-a</title><rect width="812" height="386"/><path d="M7,35.67V27.46H4v-1.1h7.38v1.1H8.27v8.21Z" style="fill:#00fb00"/><path d="M10.62,35.67l3.57-9.31h1.33l3.81,9.31h-1.4l-1.09-2.82H13l-1,2.82Zm2.69-3.82h3.15l-1-2.58q-.45-1.17-.66-1.93a11.83,11.83,0,0,1-.5,1.78Z" style="fill:#00fb00"/><path d="M20.34,35.67V26.36h4.13a5.49,5.49,0,0,1,1.89.25,2.07,2.07,0,0,1,1,.89,2.64,2.64,0,0,1,.39,1.4,2.34,2.34,0,0,1-.64,1.67,3.24,3.24,0,0,1-2,.86,3.23,3.23,0,0,1,.74.46,6.43,6.43,0,0,1,1,1.24l1.62,2.53H27l-1.23-1.94q-.54-.84-.89-1.28a2.78,2.78,0,0,0-.62-.62,1.83,1.83,0,0,0-.56-.25,3.68,3.68,0,0,0-.69,0H21.57v4.13Zm1.23-5.2h2.65a4,4,0,0,0,1.32-.17,1.41,1.41,0,0,0,.72-.56,1.51,1.51,0,0,0,.25-.83A1.39,1.39,0,0,0,26,27.81a2.24,2.24,0,0,0-1.51-.43H21.57Z" style="fill:#00fb00"/><path d="M34.06,32V30.92H38v3.45a7,7,0,0,1-1.87,1.09,5.56,5.56,0,0,1-2,.36,5.29,5.29,0,0,1-2.49-.59A3.88,3.88,0,0,1,30,33.54a5.35,5.35,0,0,1-.57-2.48A5.77,5.77,0,0,1,30,28.52a3.78,3.78,0,0,1,1.63-1.75,5.12,5.12,0,0,1,2.46-.57,4.86,4.86,0,0,1,1.82.33,3,3,0,0,1,1.28.91A4,4,0,0,1,37.86,29l-1.11.3a3.42,3.42,0,0,0-.52-1.12,2.14,2.14,0,0,0-.89-.65,3.26,3.26,0,0,0-1.28-.24,3.76,3.76,0,0,0-1.46.26,2.72,2.72,0,0,0-1,.68,3.22,3.22,0,0,0-.59.92A4.86,4.86,0,0,0,30.66,31a4.55,4.55,0,0,0,.43,2.08,2.74,2.74,0,0,0,1.25,1.24,3.86,3.86,0,0,0,1.74.41,4.13,4.13,0,0,0,1.56-.31,4,4,0,0,0,1.16-.66V32Z" style="fill:#00fb00"/><path d="M39.84,35.67V26.36h6.73v1.1h-5.5v2.85h5.15V31.4H41.07v3.17h5.71v1.1Z" style="fill:#00fb00"/><path d="M50.86,35.67V27.46H47.79v-1.1h7.38v1.1H52.09v8.21Z" style="fill:#00fb00"/><path d="M60,35.67V26.36h1.23v9.31Z" style="fill:#00fb00"/><path d="M63.4,35.67V26.36h1.26l4.89,7.31V26.36h1.18v9.31H69.47l-4.89-7.31v7.31Z" style="fill:#00fb00"/><path d="M162.47,28.64l-1.14.09a2.16,2.16,0,0,0-.43-1,1.51,1.51,0,0,0-1.14-.49,1.57,1.57,0,0,0-1,.3,2.6,2.6,0,0,0-.85,1.15,6,6,0,0,0-.32,2.15,2.65,2.65,0,0,1,1-.93,2.71,2.71,0,0,1,1.25-.3,2.59,2.59,0,0,1,1.95.84,3,3,0,0,1,.8,2.17,3.57,3.57,0,0,1-.38,1.63,2.75,2.75,0,0,1-1,1.15,2.83,2.83,0,0,1-1.5.4,2.93,2.93,0,0,1-2.33-1.05,5.3,5.3,0,0,1-.9-3.46,6.2,6.2,0,0,1,1-3.92,2.86,2.86,0,0,1,2.34-1.07,2.49,2.49,0,0,1,2.64,2.32Zm-4.67,4a2.65,2.65,0,0,0,.25,1.13,1.87,1.87,0,0,0,.7.82,1.75,1.75,0,0,0,.95.28,1.61,1.61,0,0,0,1.24-.58,2.3,2.3,0,0,0,.52-1.59,2.15,2.15,0,0,0-.51-1.52,1.69,1.69,0,0,0-1.29-.56,1.76,1.76,0,0,0-1.31.56A2,2,0,0,0,157.8,32.65Z" style="fill:#00fb00"/><path d="M168.07,35.67h-1.14V28.39a5.86,5.86,0,0,1-1.08.79,7.65,7.65,0,0,1-1.2.59v-1.1a6.88,6.88,0,0,0,1.68-1.09,4.29,4.29,0,0,0,1-1.24h.74Z" style="fill:#00fb00"/><path d="M171,33.21l1.14-.15a2.52,2.52,0,0,0,.67,1.4,1.65,1.65,0,0,0,1.15.43,1.85,1.85,0,0,0,1.36-.56,1.88,1.88,0,0,0,.55-1.38,1.75,1.75,0,0,0-.51-1.3,1.78,1.78,0,0,0-1.31-.51,3.28,3.28,0,0,0-.81.13l.13-1h.18a2.36,2.36,0,0,0,1.31-.38,1.31,1.31,0,0,0,.58-1.17,1.39,1.39,0,0,0-.43-1,1.51,1.51,0,0,0-1.1-.41,1.56,1.56,0,0,0-1.11.42,2.1,2.1,0,0,0-.57,1.26l-1.14-.2a2.94,2.94,0,0,1,1-1.78,2.75,2.75,0,0,1,1.85-.63,3,3,0,0,1,1.4.33,2.36,2.36,0,0,1,1,.89,2.29,2.29,0,0,1,.34,1.2,2,2,0,0,1-.32,1.1,2.21,2.21,0,0,1-1,.79,2.16,2.16,0,0,1,1.28.79,2.41,2.41,0,0,1,.46,1.5,2.75,2.75,0,0,1-.89,2.07,3.12,3.12,0,0,1-2.25.85,2.92,2.92,0,0,1-2-.73A2.82,2.82,0,0,1,171,33.21Z" style="fill:#00fb00"/><path d="M76.81,86l1.43-.12a3.14,3.14,0,0,0,.47,1.41,2.57,2.57,0,0,0,1.15.89,4.36,4.36,0,0,0,1.76.34,4.21,4.21,0,0,0,1.53-.26,2.13,2.13,0,0,0,1-.71,1.64,1.64,0,0,0,.32-1,1.49,1.49,0,0,0-.31-.94,2.33,2.33,0,0,0-1-.68,20.35,20.35,0,0,0-2-.56,10.39,10.39,0,0,1-2.21-.71,3.09,3.09,0,0,1-1.22-1.07,2.61,2.61,0,0,1-.4-1.43,2.91,2.91,0,0,1,.49-1.62,3,3,0,0,1,1.44-1.14,5.45,5.45,0,0,1,2.1-.39,5.74,5.74,0,0,1,2.25.41A3.24,3.24,0,0,1,85,79.64a3.47,3.47,0,0,1,.56,1.8l-1.45.11a2.35,2.35,0,0,0-.79-1.64,3.09,3.09,0,0,0-2-.55,3.2,3.2,0,0,0-2,.5,1.51,1.51,0,0,0-.63,1.21,1.3,1.3,0,0,0,.45,1,6,6,0,0,0,2.29.82,15.19,15.19,0,0,1,2.54.73,3.48,3.48,0,0,1,1.48,1.17,2.85,2.85,0,0,1,.48,1.63,3.12,3.12,0,0,1-.52,1.72,3.45,3.45,0,0,1-1.5,1.26,5.25,5.25,0,0,1-2.21.45,6.59,6.59,0,0,1-2.61-.45A3.64,3.64,0,0,1,77.44,88,3.86,3.86,0,0,1,76.81,86Z" style="fill:#00fb00"/><path d="M90.89,88.41l.2,1.24a5.24,5.24,0,0,1-1.06.13,2.41,2.41,0,0,1-1.19-.24,1.35,1.35,0,0,1-.59-.64,5,5,0,0,1-.17-1.66V82.46H87V81.37h1V79.31l1.4-.84v2.9h1.41v1.09H89.48v4.85a2.44,2.44,0,0,0,.07.77.58.58,0,0,0,.24.27.93.93,0,0,0,.48.1A4.56,4.56,0,0,0,90.89,88.41Z" style="fill:#00fb00"/><path d="M97.68,88.64a5.24,5.24,0,0,1-1.5.94,4.35,4.35,0,0,1-1.55.27,3,3,0,0,1-2.1-.67,2.2,2.2,0,0,1-.73-1.71,2.26,2.26,0,0,1,.28-1.11,2.29,2.29,0,0,1,.73-.81,3.42,3.42,0,0,1,1-.46,10.08,10.08,0,0,1,1.25-.21,12.86,12.86,0,0,0,2.51-.48c0-.19,0-.31,0-.37a1.55,1.55,0,0,0-.4-1.21,2.36,2.36,0,0,0-1.6-.48,2.48,2.48,0,0,0-1.46.35,2.12,2.12,0,0,0-.7,1.23L92,83.74a3.4,3.4,0,0,1,.62-1.43,2.7,2.7,0,0,1,1.24-.84,5.54,5.54,0,0,1,1.88-.29,5,5,0,0,1,1.73.25,2.29,2.29,0,0,1,1,.63,2.23,2.23,0,0,1,.44,1,7.92,7.92,0,0,1,.07,1.3v1.88a19.76,19.76,0,0,0,.09,2.48,3.1,3.1,0,0,0,.36,1H98A3,3,0,0,1,97.68,88.64Zm-.12-3.14a10.3,10.3,0,0,1-2.3.53,5.33,5.33,0,0,0-1.23.28,1.22,1.22,0,0,0-.55.46,1.24,1.24,0,0,0,.23,1.61,1.83,1.83,0,0,0,1.25.38,2.9,2.9,0,0,0,1.45-.36,2.19,2.19,0,0,0,.93-1A3.41,3.41,0,0,0,97.56,86Z" style="fill:#00fb00"/><path d="M104.23,88.41l.2,1.24a5.24,5.24,0,0,1-1.06.13,2.41,2.41,0,0,1-1.19-.24,1.35,1.35,0,0,1-.59-.64,5,5,0,0,1-.17-1.66V82.46h-1V81.37h1V79.31l1.4-.84v2.9h1.41v1.09h-1.41v4.85a2.44,2.44,0,0,0,.07.77.58.58,0,0,0,.24.27.93.93,0,0,0,.48.1A4.56,4.56,0,0,0,104.23,88.41Z" style="fill:#00fb00"/><path d="M105.62,79.83V78.21H107v1.62Zm0,9.84v-8.3H107v8.3Z" style="fill:#00fb00"/><path d="M108.64,85.52a4.28,4.28,0,0,1,1.28-3.41,3.86,3.86,0,0,1,2.61-.92,3.72,3.72,0,0,1,2.8,1.12,4.27,4.27,0,0,1,1.09,3.1,5.49,5.49,0,0,1-.48,2.52,3.4,3.4,0,0,1-1.4,1.43,4.07,4.07,0,0,1-2,.51,3.73,3.73,0,0,1-2.82-1.12A4.46,4.46,0,0,1,108.64,85.52Zm1.45,0a3.53,3.53,0,0,0,.7,2.39,2.32,2.32,0,0,0,3.49,0,3.62,3.62,0,0,0,.7-2.43,3.43,3.43,0,0,0-.7-2.33,2.32,2.32,0,0,0-3.49,0A3.52,3.52,0,0,0,110.09,85.52Z" style="fill:#00fb00"/><path d="M118.06,89.67v-8.3h1.27v1.18A3,3,0,0,1,122,81.18a3.47,3.47,0,0,1,1.38.27,2.18,2.18,0,0,1,.94.71,2.73,2.73,0,0,1,.44,1,8.09,8.09,0,0,1,.08,1.37v5.1H123.4v-5a3.79,3.79,0,0,0-.16-1.29,1.35,1.35,0,0,0-.58-.68,1.86,1.86,0,0,0-1-.25,2.28,2.28,0,0,0-1.55.57,2.81,2.81,0,0,0-.65,2.16v4.53Z" style="fill:#00fb00"/><path d="M260.42,89.67H259v-9a7.21,7.21,0,0,1-1.33,1,9.36,9.36,0,0,1-1.48.73V81a8.45,8.45,0,0,0,2.06-1.34,5.26,5.26,0,0,0,1.25-1.53h.91Z" style="fill:#00fb00"/><path d="M268.13,89.67h-1.41v-9a7.21,7.21,0,0,1-1.33,1,9.36,9.36,0,0,1-1.48.73V81A8.45,8.45,0,0,0,266,79.7a5.26,5.26,0,0,0,1.25-1.53h.91Z" style="fill:#00fb00"/><path d="M279,81l-1.4.11a2.65,2.65,0,0,0-.53-1.2,1.86,1.86,0,0,0-1.41-.6,1.93,1.93,0,0,0-1.18.38,3.21,3.21,0,0,0-1,1.41,7.41,7.41,0,0,0-.4,2.65,3.26,3.26,0,0,1,1.24-1.15,3.34,3.34,0,0,1,1.54-.37,3.19,3.19,0,0,1,2.39,1,3.71,3.71,0,0,1,1,2.68,4.39,4.39,0,0,1-.46,2,3.38,3.38,0,0,1-1.28,1.42,3.49,3.49,0,0,1-1.84.49,3.6,3.6,0,0,1-2.87-1.29,6.53,6.53,0,0,1-1.11-4.26q0-3.32,1.23-4.83a3.53,3.53,0,0,1,2.88-1.31A3.07,3.07,0,0,1,279,81ZM273.29,86a3.27,3.27,0,0,0,.31,1.39,2.3,2.3,0,0,0,.86,1,2.16,2.16,0,0,0,1.16.35,2,2,0,0,0,1.53-.72,2.83,2.83,0,0,0,.64-2,2.65,2.65,0,0,0-.63-1.87,2.08,2.08,0,0,0-1.59-.68,2.17,2.17,0,0,0-1.62.68A2.47,2.47,0,0,0,273.29,86Z" style="fill:#00fb00"/><path d="M280.63,84a10.49,10.49,0,0,1,.42-3.27,4.08,4.08,0,0,1,1.24-1.91,3.18,3.18,0,0,1,2.07-.67,3.38,3.38,0,0,1,1.62.37,3.09,3.09,0,0,1,1.15,1.07,5.73,5.73,0,0,1,.71,1.7A11.32,11.32,0,0,1,288.1,84a10.5,10.5,0,0,1-.41,3.25,4.06,4.06,0,0,1-1.24,1.91,3.49,3.49,0,0,1-4.68-.51A7.55,7.55,0,0,1,280.63,84Zm1.45,0a7.19,7.19,0,0,0,.66,3.75,1.89,1.89,0,0,0,3.26,0,7.18,7.18,0,0,0,.66-3.75,7.18,7.18,0,0,0-.66-3.76,2,2,0,0,0-1.64-.93,1.8,1.8,0,0,0-1.55.82A7.27,7.27,0,0,0,282.08,84Z" style="fill:#00fb00"/><path d="M415.09,89.67h-1.41v-9a7.25,7.25,0,0,1-1.33,1,9.4,9.4,0,0,1-1.48.73V81a8.49,8.49,0,0,0,2.06-1.34,5.28,5.28,0,0,0,1.25-1.53h.91Z" style="fill:#00fb00"/><path d="M422.8,89.67H421.4v-9a7.25,7.25,0,0,1-1.33,1,9.4,9.4,0,0,1-1.48.73V81a8.49,8.49,0,0,0,2.06-1.34,5.28,5.28,0,0,0,1.25-1.53h.91Z" style="fill:#00fb00"/><path d="M426.5,79.71V78.36h7.41v1.09a15.62,15.62,0,0,0-2.17,3.09,18.86,18.86,0,0,0-1.66,4,14.75,14.75,0,0,0-.54,3.15H428.1a14,14,0,0,1,.53-3.27,17.17,17.17,0,0,1,1.46-3.69,15.82,15.82,0,0,1,2-3Z" style="fill:#00fb00"/><path d="M435.3,84a10.49,10.49,0,0,1,.42-3.27A4.07,4.07,0,0,1,437,78.84a3.18,3.18,0,0,1,2.07-.67,3.39,3.39,0,0,1,1.62.37,3.09,3.09,0,0,1,1.15,1.07,5.76,5.76,0,0,1,.71,1.7,11.32,11.32,0,0,1,.26,2.71,10.5,10.5,0,0,1-.41,3.25,4.07,4.07,0,0,1-1.24,1.91,3.17,3.17,0,0,1-2.08.68,3.14,3.14,0,0,1-2.6-1.19A7.55,7.55,0,0,1,435.3,84Zm1.45,0a7.18,7.18,0,0,0,.66,3.75,1.89,1.89,0,0,0,3.26,0,7.18,7.18,0,0,0,.66-3.75,7.18,7.18,0,0,0-.66-3.76,2,2,0,0,0-1.64-.93,1.8,1.8,0,0,0-1.55.82A7.27,7.27,0,0,0,436.75,84Z" style="fill:#00fb00"/><path d="M569.76,89.67h-1.41v-9a7.28,7.28,0,0,1-1.33,1,9.4,9.4,0,0,1-1.48.73V81a8.49,8.49,0,0,0,2.06-1.34,5.3,5.3,0,0,0,1.25-1.53h.91Z" style="fill:#00fb00"/><path d="M577.47,89.67h-1.41v-9a7.28,7.28,0,0,1-1.33,1,9.4,9.4,0,0,1-1.48.73V81a8.49,8.49,0,0,0,2.06-1.34,5.3,5.3,0,0,0,1.25-1.53h.91Z" style="fill:#00fb00"/><path d="M583.23,83.46a2.64,2.64,0,0,1-1.3-.91,2.39,2.39,0,0,1-.42-1.42,2.78,2.78,0,0,1,.9-2.1,3.78,3.78,0,0,1,4.8,0,2.82,2.82,0,0,1,.91,2.12,2.34,2.34,0,0,1-.42,1.39,2.64,2.64,0,0,1-1.27.91,3.08,3.08,0,0,1,1.61,1.11,3,3,0,0,1,.55,1.83,3.29,3.29,0,0,1-1,2.47,4.23,4.23,0,0,1-5.47,0,3.34,3.34,0,0,1-1-2.5,3,3,0,0,1,.57-1.87A2.84,2.84,0,0,1,583.23,83.46Zm-.73,2.91a2.54,2.54,0,0,0,.29,1.16,2,2,0,0,0,.85.87,2.47,2.47,0,0,0,1.21.31,2.27,2.27,0,0,0,1.66-.65,2.22,2.22,0,0,0,.66-1.65,2.26,2.26,0,0,0-.68-1.68,2.32,2.32,0,0,0-1.69-.66,2.24,2.24,0,0,0-2.3,2.3Zm.45-5.29a1.78,1.78,0,0,0,.52,1.33,1.85,1.85,0,0,0,1.36.52,1.82,1.82,0,0,0,1.33-.51,1.69,1.69,0,0,0,.52-1.25,1.76,1.76,0,0,0-.54-1.3,2,2,0,0,0-2.67,0A1.66,1.66,0,0,0,583,81.07Z" style="fill:#00fb00"/><path d="M590,84a10.46,10.46,0,0,1,.42-3.27,4.07,4.07,0,0,1,1.24-1.91,3.17,3.17,0,0,1,2.07-.67,3.39,3.39,0,0,1,1.62.37,3.11,3.11,0,0,1,1.15,1.07,5.76,5.76,0,0,1,.71,1.7,11.32,11.32,0,0,1,.26,2.71,10.53,10.53,0,0,1-.41,3.25,4.07,4.07,0,0,1-1.24,1.91,3.18,3.18,0,0,1-2.08.68,3.14,3.14,0,0,1-2.6-1.19A7.54,7.54,0,0,1,590,84Zm1.45,0a7.18,7.18,0,0,0,.66,3.75,1.89,1.89,0,0,0,3.26,0A7.19,7.19,0,0,0,596,84a7.19,7.19,0,0,0-.66-3.76,2,2,0,0,0-1.64-.93,1.8,1.8,0,0,0-1.55.82A7.27,7.27,0,0,0,591.41,84Z" style="fill:#00fb00"/><path d="M723.76,89.67h-1.41v-9a7.28,7.28,0,0,1-1.33,1,9.4,9.4,0,0,1-1.48.73V81a8.49,8.49,0,0,0,2.06-1.34,5.3,5.3,0,0,0,1.25-1.53h.91Z" style="fill:#00fb00"/><path d="M731.47,89.67h-1.41v-9a7.28,7.28,0,0,1-1.33,1,9.4,9.4,0,0,1-1.48.73V81a8.49,8.49,0,0,0,2.06-1.34,5.3,5.3,0,0,0,1.25-1.53h.91Z" style="fill:#00fb00"/><path d="M735.28,87l1.35-.12a2.34,2.34,0,0,0,.66,1.38,1.8,1.8,0,0,0,1.24.43,2.14,2.14,0,0,0,1.14-.3,2.43,2.43,0,0,0,.8-.79,4.67,4.67,0,0,0,.52-1.34,7.06,7.06,0,0,0,.21-1.72c0-.06,0-.16,0-.28A3.22,3.22,0,0,1,740,85.37a3.13,3.13,0,0,1-1.58.42,3.2,3.2,0,0,1-2.41-1,3.77,3.77,0,0,1-1-2.72,3.86,3.86,0,0,1,1-2.8,3.43,3.43,0,0,1,2.57-1.06,3.67,3.67,0,0,1,2,.6,3.76,3.76,0,0,1,1.41,1.71,8.45,8.45,0,0,1,.48,3.22,10.44,10.44,0,0,1-.48,3.5,4.1,4.1,0,0,1-1.42,2,3.67,3.67,0,0,1-2.21.68A3,3,0,0,1,735.28,87ZM741,82a2.75,2.75,0,0,0-.64-1.92,2,2,0,0,0-1.55-.71,2.14,2.14,0,0,0-1.63.77,2.84,2.84,0,0,0-.7,2,2.45,2.45,0,0,0,.66,1.78,2.17,2.17,0,0,0,1.63.68,2.09,2.09,0,0,0,1.61-.68A2.69,2.69,0,0,0,741,82Z" style="fill:#00fb00"/><path d="M744,84a10.46,10.46,0,0,1,.42-3.27,4.07,4.07,0,0,1,1.24-1.91,3.17,3.17,0,0,1,2.07-.67,3.39,3.39,0,0,1,1.62.37,3.11,3.11,0,0,1,1.15,1.07,5.76,5.76,0,0,1,.71,1.7,11.32,11.32,0,0,1,.26,2.71,10.53,10.53,0,0,1-.41,3.25,4.07,4.07,0,0,1-1.24,1.91,3.18,3.18,0,0,1-2.08.68,3.14,3.14,0,0,1-2.6-1.19A7.54,7.54,0,0,1,744,84Zm1.45,0a7.18,7.18,0,0,0,.66,3.75,1.89,1.89,0,0,0,3.26,0A7.19,7.19,0,0,0,750,84a7.19,7.19,0,0,0-.66-3.76,2,2,0,0,0-1.64-.93,1.8,1.8,0,0,0-1.55.82A7.27,7.27,0,0,0,745.41,84Z" style="fill:#00fb00"/><path d="M79,106l1.43-.12a3.14,3.14,0,0,0,.47,1.41,2.57,2.57,0,0,0,1.15.89,4.36,4.36,0,0,0,1.76.34,4.21,4.21,0,0,0,1.53-.26,2.13,2.13,0,0,0,1-.71,1.64,1.64,0,0,0,.32-1,1.49,1.49,0,0,0-.31-.94,2.33,2.33,0,0,0-1-.68,20.35,20.35,0,0,0-2-.56,10.39,10.39,0,0,1-2.21-.71,3.09,3.09,0,0,1-1.22-1.07,2.61,2.61,0,0,1-.4-1.43A2.91,2.91,0,0,1,80,99.55a3,3,0,0,1,1.44-1.14,5.45,5.45,0,0,1,2.1-.39,5.74,5.74,0,0,1,2.25.41,3.24,3.24,0,0,1,1.5,1.21,3.47,3.47,0,0,1,.56,1.8l-1.45.11a2.35,2.35,0,0,0-.79-1.64,3.09,3.09,0,0,0-2-.55,3.2,3.2,0,0,0-2,.5,1.51,1.51,0,0,0-.63,1.21,1.3,1.3,0,0,0,.45,1,6,6,0,0,0,2.29.82,15.19,15.19,0,0,1,2.54.73,3.48,3.48,0,0,1,1.48,1.17,2.85,2.85,0,0,1,.48,1.63,3.12,3.12,0,0,1-.52,1.72,3.45,3.45,0,0,1-1.5,1.26,5.25,5.25,0,0,1-2.21.45,6.59,6.59,0,0,1-2.61-.45A3.64,3.64,0,0,1,79.67,108,3.86,3.86,0,0,1,79,106Z" style="fill:#00fb00"/><path d="M93.12,108.41l.2,1.24a5.24,5.24,0,0,1-1.06.13,2.41,2.41,0,0,1-1.19-.24,1.35,1.35,0,0,1-.59-.64,5,5,0,0,1-.17-1.66v-4.77h-1v-1.09h1V99.31l1.4-.84v2.9h1.41v1.09H91.7v4.85a2.44,2.44,0,0,0,.07.77.58.58,0,0,0,.24.27.93.93,0,0,0,.48.1A4.56,4.56,0,0,0,93.12,108.41Z" style="fill:#00fb00"/><path d="M99.91,108.64a5.24,5.24,0,0,1-1.5.94,4.35,4.35,0,0,1-1.55.27,3,3,0,0,1-2.1-.67,2.2,2.2,0,0,1-.73-1.71,2.26,2.26,0,0,1,.28-1.11,2.29,2.29,0,0,1,.73-.81,3.42,3.42,0,0,1,1-.46,10.08,10.08,0,0,1,1.25-.21,12.86,12.86,0,0,0,2.51-.48c0-.19,0-.31,0-.37a1.55,1.55,0,0,0-.4-1.21,2.36,2.36,0,0,0-1.6-.48,2.48,2.48,0,0,0-1.46.35,2.12,2.12,0,0,0-.7,1.23l-1.37-.19a3.4,3.4,0,0,1,.62-1.43,2.7,2.7,0,0,1,1.24-.84,5.54,5.54,0,0,1,1.88-.29,5,5,0,0,1,1.73.25,2.29,2.29,0,0,1,1,.63,2.23,2.23,0,0,1,.44,1,7.92,7.92,0,0,1,.07,1.3v1.88a19.76,19.76,0,0,0,.09,2.48,3.1,3.1,0,0,0,.36,1h-1.47A3,3,0,0,1,99.91,108.64Zm-.12-3.14a10.3,10.3,0,0,1-2.3.53,5.33,5.33,0,0,0-1.23.28,1.22,1.22,0,0,0-.55.46,1.24,1.24,0,0,0,.23,1.61,1.83,1.83,0,0,0,1.25.38,2.9,2.9,0,0,0,1.45-.36,2.19,2.19,0,0,0,.93-1,3.41,3.41,0,0,0,.23-1.41Z" style="fill:#00fb00"/><path d="M106.46,108.41l.2,1.24a5.24,5.24,0,0,1-1.06.13,2.41,2.41,0,0,1-1.19-.24,1.35,1.35,0,0,1-.59-.64,5,5,0,0,1-.17-1.66v-4.77h-1v-1.09h1V99.31l1.4-.84v2.9h1.41v1.09H105v4.85a2.44,2.44,0,0,0,.07.77.58.58,0,0,0,.24.27.93.93,0,0,0,.48.1A4.56,4.56,0,0,0,106.46,108.41Z" style="fill:#00fb00"/><path d="M113.27,109.67v-1.22a3,3,0,0,1-2.63,1.41,3.35,3.35,0,0,1-1.37-.28,2.25,2.25,0,0,1-.95-.71,2.64,2.64,0,0,1-.43-1,7.11,7.11,0,0,1-.09-1.31v-5.14h1.41V106a8.17,8.17,0,0,0,.09,1.48,1.46,1.46,0,0,0,.56.87,1.74,1.74,0,0,0,1.06.32,2.31,2.31,0,0,0,1.19-.32,1.81,1.81,0,0,0,.79-.88,4.44,4.44,0,0,0,.23-1.62v-4.45h1.41v8.3Z" style="fill:#00fb00"/><path d="M116.17,107.19l1.39-.22a1.94,1.94,0,0,0,.65,1.28,2.27,2.27,0,0,0,1.5.45,2.2,2.2,0,0,0,1.44-.39,1.18,1.18,0,0,0,.47-.93.86.86,0,0,0-.41-.75,6.12,6.12,0,0,0-1.44-.48,13.07,13.07,0,0,1-2.14-.68,2,2,0,0,1-1.21-1.9,2.13,2.13,0,0,1,.25-1,2.27,2.27,0,0,1,.69-.79,2.91,2.91,0,0,1,.89-.41,4.25,4.25,0,0,1,1.21-.17,4.8,4.8,0,0,1,1.71.28,2.33,2.33,0,0,1,1.09.76,3,3,0,0,1,.48,1.29l-1.37.19a1.51,1.51,0,0,0-.54-1,2,2,0,0,0-1.27-.36,2.3,2.3,0,0,0-1.38.32.93.93,0,0,0-.41.75.77.77,0,0,0,.17.49,1.23,1.23,0,0,0,.54.38q.21.08,1.24.36a17.41,17.41,0,0,1,2.08.65,2.12,2.12,0,0,1,.93.74,2.06,2.06,0,0,1,.34,1.2,2.36,2.36,0,0,1-.41,1.32,2.65,2.65,0,0,1-1.18,1,4.31,4.31,0,0,1-1.75.34,3.9,3.9,0,0,1-2.46-.67A3.12,3.12,0,0,1,116.17,107.19Z" style="fill:#00fb00"/><path d="M77.33,129.67V118.21h1.55l6,9v-9h1.45v11.45H84.8l-6-9v9Z" style="fill:#00fb00"/><path d="M88.71,129.67v-8.3H90v1.26a3.43,3.43,0,0,1,.89-1.16,1.56,1.56,0,0,1,.9-.28,2.75,2.75,0,0,1,1.45.45l-.48,1.3a2,2,0,0,0-1-.3,1.34,1.34,0,0,0-.83.28,1.5,1.5,0,0,0-.52.77,5.48,5.48,0,0,0-.23,1.64v4.34Z" style="fill:#00fb00"/><path d="M98.21,124.09a6.22,6.22,0,0,1,1.53-4.46,5.21,5.21,0,0,1,4-1.61,5.49,5.49,0,0,1,2.86.76,5,5,0,0,1,1.94,2.11,6.87,6.87,0,0,1,.67,3.07,6.75,6.75,0,0,1-.7,3.12,4.8,4.8,0,0,1-2,2.08,5.69,5.69,0,0,1-2.78.71,5.41,5.41,0,0,1-2.89-.78,5,5,0,0,1-1.93-2.13A6.46,6.46,0,0,1,98.21,124.09Zm1.56,0a4.59,4.59,0,0,0,1.11,3.26,3.88,3.88,0,0,0,5.61,0,4.87,4.87,0,0,0,1.11-3.41,5.88,5.88,0,0,0-.47-2.44,3.64,3.64,0,0,0-1.38-1.62,3.75,3.75,0,0,0-2-.57,3.88,3.88,0,0,0-2.77,1.11A4.94,4.94,0,0,0,99.78,124.11Z" style="fill:#00fb00"/><path d="M109.89,129.86,113.21,118h1.13L111,129.86Z" style="fill:#00fb00"/><path d="M123.74,125.65l1.52.38a5.11,5.11,0,0,1-1.71,2.85,4.73,4.73,0,0,1-3,1,5.44,5.44,0,0,1-3-.75,4.7,4.7,0,0,1-1.77-2.18,7.78,7.78,0,0,1-.61-3.07,6.75,6.75,0,0,1,.68-3.12,4.68,4.68,0,0,1,1.95-2,5.68,5.68,0,0,1,2.78-.69,4.7,4.7,0,0,1,2.89.88,4.55,4.55,0,0,1,1.63,2.46l-1.49.35a3.54,3.54,0,0,0-1.16-1.82,3.08,3.08,0,0,0-1.91-.57,3.7,3.7,0,0,0-2.21.63,3.34,3.34,0,0,0-1.25,1.7,6.82,6.82,0,0,0-.36,2.2,7,7,0,0,0,.43,2.55,3.17,3.17,0,0,0,1.32,1.63,3.71,3.71,0,0,0,1.95.54,3.26,3.26,0,0,0,2.16-.73A3.76,3.76,0,0,0,123.74,125.65Z" style="fill:#00fb00"/><path d="M275.18,121l-1.4.11a2.65,2.65,0,0,0-.53-1.2,1.86,1.86,0,0,0-1.41-.6,1.93,1.93,0,0,0-1.18.38,3.21,3.21,0,0,0-1,1.41,7.41,7.41,0,0,0-.4,2.65,3.26,3.26,0,0,1,1.24-1.15,3.34,3.34,0,0,1,1.54-.37,3.19,3.19,0,0,1,2.39,1,3.71,3.71,0,0,1,1,2.68,4.39,4.39,0,0,1-.46,2,3.38,3.38,0,0,1-1.28,1.42,3.49,3.49,0,0,1-1.84.49,3.6,3.6,0,0,1-2.87-1.29,6.53,6.53,0,0,1-1.11-4.26q0-3.32,1.23-4.83a3.53,3.53,0,0,1,2.88-1.31,3.07,3.07,0,0,1,3.25,2.85ZM269.44,126a3.27,3.27,0,0,0,.31,1.39,2.3,2.3,0,0,0,.86,1,2.16,2.16,0,0,0,1.16.35,2,2,0,0,0,1.53-.72,2.83,2.83,0,0,0,.64-2,2.65,2.65,0,0,0-.63-1.87,2.08,2.08,0,0,0-1.59-.68,2.17,2.17,0,0,0-1.62.68A2.47,2.47,0,0,0,269.44,126Z" style="fill:#00fb00"/><path d="M424.71,123.46a2.65,2.65,0,0,1-1.3-.91,2.39,2.39,0,0,1-.42-1.42,2.78,2.78,0,0,1,.9-2.1,3.78,3.78,0,0,1,4.8,0,2.82,2.82,0,0,1,.91,2.12,2.34,2.34,0,0,1-.42,1.39,2.63,2.63,0,0,1-1.27.91,3.08,3.08,0,0,1,1.61,1.11,3,3,0,0,1,.55,1.83,3.29,3.29,0,0,1-1,2.47,4.23,4.23,0,0,1-5.47,0,3.34,3.34,0,0,1-1-2.5,3,3,0,0,1,.57-1.87A2.84,2.84,0,0,1,424.71,123.46Zm-.73,2.91a2.54,2.54,0,0,0,.29,1.16,2,2,0,0,0,.85.87,2.47,2.47,0,0,0,1.21.31,2.27,2.27,0,0,0,1.66-.65,2.22,2.22,0,0,0,.66-1.65,2.26,2.26,0,0,0-.68-1.68,2.32,2.32,0,0,0-1.69-.66,2.24,2.24,0,0,0-2.3,2.3Zm.45-5.29a1.78,1.78,0,0,0,.52,1.33,1.85,1.85,0,0,0,1.36.52,1.82,1.82,0,0,0,1.33-.51,1.69,1.69,0,0,0,.52-1.25,1.76,1.76,0,0,0-.54-1.3,1.82,1.82,0,0,0-1.33-.53,1.84,1.84,0,0,0-1.34.52A1.66,1.66,0,0,0,424.43,121.07Z" style="fill:#00fb00"/><path d="M572.77,126.64l1.41-.19a3.09,3.09,0,0,0,.82,1.72,2,2,0,0,0,1.42.53,2.27,2.27,0,0,0,1.68-.69,2.32,2.32,0,0,0,.68-1.7,2.16,2.16,0,0,0-.63-1.6,2.19,2.19,0,0,0-1.61-.63,4,4,0,0,0-1,.16l.16-1.23.23,0a2.9,2.9,0,0,0,1.62-.47,1.61,1.61,0,0,0,.72-1.45,1.71,1.71,0,0,0-.52-1.28,1.86,1.86,0,0,0-1.35-.51,1.91,1.91,0,0,0-1.37.52,2.58,2.58,0,0,0-.7,1.55l-1.41-.25a3.62,3.62,0,0,1,1.17-2.19,3.39,3.39,0,0,1,2.27-.78,3.75,3.75,0,0,1,1.73.4,2.92,2.92,0,0,1,1.21,1.1,2.82,2.82,0,0,1,.42,1.48,2.42,2.42,0,0,1-.4,1.35,2.72,2.72,0,0,1-1.18,1,2.66,2.66,0,0,1,1.58,1,3,3,0,0,1,.56,1.85,3.38,3.38,0,0,1-1.09,2.54,3.85,3.85,0,0,1-2.77,1,3.6,3.6,0,0,1-2.5-.9A3.47,3.47,0,0,1,572.77,126.64Z" style="fill:#00fb00"/><path d="M581.67,126.64l1.41-.19a3.09,3.09,0,0,0,.82,1.72,2,2,0,0,0,1.42.53A2.27,2.27,0,0,0,587,128a2.32,2.32,0,0,0,.68-1.7,2.16,2.16,0,0,0-.63-1.6,2.19,2.19,0,0,0-1.61-.63,4,4,0,0,0-1,.16l.16-1.23.23,0a2.9,2.9,0,0,0,1.62-.47,1.61,1.61,0,0,0,.72-1.45,1.71,1.71,0,0,0-.52-1.28,1.86,1.86,0,0,0-1.35-.51,1.91,1.91,0,0,0-1.37.52,2.58,2.58,0,0,0-.7,1.55l-1.41-.25a3.62,3.62,0,0,1,1.17-2.19,3.39,3.39,0,0,1,2.27-.78,3.75,3.75,0,0,1,1.73.4,2.92,2.92,0,0,1,1.21,1.1,2.82,2.82,0,0,1,.42,1.48,2.42,2.42,0,0,1-.4,1.35,2.72,2.72,0,0,1-1.18,1,2.66,2.66,0,0,1,1.58,1,3,3,0,0,1,.56,1.85,3.38,3.38,0,0,1-1.09,2.54,3.85,3.85,0,0,1-2.77,1,3.6,3.6,0,0,1-2.5-.9A3.47,3.47,0,0,1,581.67,126.64Z" style="fill:#00fb00"/><path d="M732.06,129.67h-1.41v-9a7.28,7.28,0,0,1-1.33,1,9.4,9.4,0,0,1-1.48.73V121a8.49,8.49,0,0,0,2.06-1.34,5.3,5.3,0,0,0,1.25-1.53h.91Z" style="fill:#00fb00"/><path d="M735.66,124a10.46,10.46,0,0,1,.42-3.27,4.07,4.07,0,0,1,1.24-1.91,3.17,3.17,0,0,1,2.07-.67,3.39,3.39,0,0,1,1.62.37,3.11,3.11,0,0,1,1.15,1.07,5.76,5.76,0,0,1,.71,1.7,11.32,11.32,0,0,1,.26,2.71,10.53,10.53,0,0,1-.41,3.25,4.07,4.07,0,0,1-1.24,1.91,3.18,3.18,0,0,1-2.08.68,3.14,3.14,0,0,1-2.6-1.19A7.54,7.54,0,0,1,735.66,124Zm1.45,0a7.18,7.18,0,0,0,.66,3.75,1.89,1.89,0,0,0,3.26,0,7.19,7.19,0,0,0,.66-3.75,7.19,7.19,0,0,0-.66-3.76,2,2,0,0,0-1.64-.93,1.8,1.8,0,0,0-1.55.82A7.27,7.27,0,0,0,737.11,124Z" style="fill:#00fb00"/><path d="M88.47,145.17v-1.34h4.85v4.25a8.58,8.58,0,0,1-2.3,1.34,6.84,6.84,0,0,1-2.44.45,6.5,6.5,0,0,1-3.07-.72A4.77,4.77,0,0,1,83.43,147a6.58,6.58,0,0,1-.7-3.05,7.08,7.08,0,0,1,.7-3.12,4.65,4.65,0,0,1,2-2.15,6.3,6.3,0,0,1,3-.7,6,6,0,0,1,2.25.4,3.73,3.73,0,0,1,1.57,1.12,5,5,0,0,1,.87,1.88l-1.37.38a4.24,4.24,0,0,0-.64-1.37,2.64,2.64,0,0,0-1.09-.8,4,4,0,0,0-1.58-.3,4.64,4.64,0,0,0-1.8.32,3.35,3.35,0,0,0-1.22.83,4,4,0,0,0-.72,1.13,6,6,0,0,0-.44,2.3,5.59,5.59,0,0,0,.53,2.56A3.37,3.37,0,0,0,86.36,148a4.75,4.75,0,0,0,2.14.5,5.08,5.08,0,0,0,1.92-.38,5,5,0,0,0,1.42-.81v-2.13Z" style="fill:#00fb00"/><path d="M100.79,148.64a5.24,5.24,0,0,1-1.5.94,4.35,4.35,0,0,1-1.55.27,3,3,0,0,1-2.1-.67,2.2,2.2,0,0,1-.73-1.71,2.26,2.26,0,0,1,.28-1.11,2.29,2.29,0,0,1,.73-.81,3.42,3.42,0,0,1,1-.46,10.08,10.08,0,0,1,1.25-.21,12.86,12.86,0,0,0,2.51-.48c0-.19,0-.31,0-.37a1.55,1.55,0,0,0-.4-1.21,2.36,2.36,0,0,0-1.6-.48,2.48,2.48,0,0,0-1.46.35,2.12,2.12,0,0,0-.7,1.23l-1.37-.19a3.4,3.4,0,0,1,.62-1.43,2.7,2.7,0,0,1,1.24-.84,5.54,5.54,0,0,1,1.88-.29,5,5,0,0,1,1.73.25,2.29,2.29,0,0,1,1,.63,2.23,2.23,0,0,1,.44,1,7.92,7.92,0,0,1,.07,1.3v1.88a19.76,19.76,0,0,0,.09,2.48,3.1,3.1,0,0,0,.36,1h-1.47A3,3,0,0,1,100.79,148.64Zm-.12-3.14a10.3,10.3,0,0,1-2.3.53,5.33,5.33,0,0,0-1.23.28,1.22,1.22,0,0,0-.55.46,1.24,1.24,0,0,0,.23,1.61,1.83,1.83,0,0,0,1.25.38,2.9,2.9,0,0,0,1.45-.36,2.19,2.19,0,0,0,.93-1,3.41,3.41,0,0,0,.23-1.41Z" style="fill:#00fb00"/><path d="M104.28,152.85V141.37h1.28v1.08a3.15,3.15,0,0,1,1-.95,2.81,2.81,0,0,1,1.38-.32,3.28,3.28,0,0,1,1.88.55,3.36,3.36,0,0,1,1.23,1.54,5.65,5.65,0,0,1,.41,2.18,5.55,5.55,0,0,1-.46,2.29,3.45,3.45,0,0,1-1.33,1.56,3.41,3.41,0,0,1-1.83.54,2.65,2.65,0,0,1-1.26-.3,2.86,2.86,0,0,1-.92-.75v4Zm1.27-7.28a3.61,3.61,0,0,0,.65,2.37,2,2,0,0,0,1.57.77,2,2,0,0,0,1.61-.79,3.76,3.76,0,0,0,.67-2.46,3.67,3.67,0,0,0-.65-2.37,2,2,0,0,0-1.56-.79,2,2,0,0,0-1.59.84A3.76,3.76,0,0,0,105.55,145.56Z" style="fill:#00fb00"/><path d="M112.61,147.19,114,147a1.94,1.94,0,0,0,.65,1.28,2.27,2.27,0,0,0,1.5.45,2.2,2.2,0,0,0,1.44-.39,1.18,1.18,0,0,0,.47-.93.86.86,0,0,0-.41-.75,6.12,6.12,0,0,0-1.44-.48,13.07,13.07,0,0,1-2.14-.68,2,2,0,0,1-1.21-1.9,2.13,2.13,0,0,1,.25-1,2.27,2.27,0,0,1,.69-.79,2.91,2.91,0,0,1,.89-.41,4.25,4.25,0,0,1,1.21-.17,4.8,4.8,0,0,1,1.71.28,2.33,2.33,0,0,1,1.09.76,3,3,0,0,1,.48,1.29l-1.37.19a1.51,1.51,0,0,0-.54-1,2,2,0,0,0-1.27-.36,2.3,2.3,0,0,0-1.38.32.93.93,0,0,0-.41.75.77.77,0,0,0,.17.49,1.23,1.23,0,0,0,.54.38q.21.08,1.24.36a17.41,17.41,0,0,1,2.08.65,2.12,2.12,0,0,1,.93.74,2.06,2.06,0,0,1,.34,1.2,2.36,2.36,0,0,1-.41,1.32,2.65,2.65,0,0,1-1.18,1,4.31,4.31,0,0,1-1.75.34,3.9,3.9,0,0,1-2.46-.67A3.12,3.12,0,0,1,112.61,147.19Z" style="fill:#00fb00"/><path d="M270.73,141l-1.4.11a2.65,2.65,0,0,0-.53-1.2,1.86,1.86,0,0,0-1.41-.6,1.93,1.93,0,0,0-1.18.38,3.21,3.21,0,0,0-1,1.41,7.41,7.41,0,0,0-.4,2.65,3.26,3.26,0,0,1,1.24-1.15,3.34,3.34,0,0,1,1.54-.37,3.19,3.19,0,0,1,2.39,1,3.71,3.71,0,0,1,1,2.68,4.39,4.39,0,0,1-.46,2,3.38,3.38,0,0,1-1.28,1.42,3.49,3.49,0,0,1-1.84.49,3.6,3.6,0,0,1-2.87-1.29,6.53,6.53,0,0,1-1.11-4.26q0-3.32,1.23-4.83a3.53,3.53,0,0,1,2.88-1.31,3.07,3.07,0,0,1,3.25,2.85ZM265,146a3.27,3.27,0,0,0,.31,1.39,2.3,2.3,0,0,0,.86,1,2.16,2.16,0,0,0,1.16.35,2,2,0,0,0,1.53-.72,2.83,2.83,0,0,0,.64-2,2.65,2.65,0,0,0-.63-1.87,2.08,2.08,0,0,0-1.59-.68,2.17,2.17,0,0,0-1.62.68A2.47,2.47,0,0,0,265,146Z" style="fill:#00fb00"/><path d="M272.33,146.67l1.48-.12a2.65,2.65,0,0,0,.76,1.62,2.07,2.07,0,0,0,1.44.54,2.24,2.24,0,0,0,1.72-.77,2.89,2.89,0,0,0,.7-2,2.61,2.61,0,0,0-.68-1.9,2.36,2.36,0,0,0-1.77-.7,2.46,2.46,0,0,0-1.23.31,2.39,2.39,0,0,0-.86.8l-1.32-.17,1.11-5.88h5.7v1.34h-4.57l-.62,3.08a3.73,3.73,0,0,1,2.16-.72,3.43,3.43,0,0,1,2.53,1,3.63,3.63,0,0,1,1,2.67,4.17,4.17,0,0,1-.91,2.69,3.63,3.63,0,0,1-3,1.39,3.71,3.71,0,0,1-2.55-.87A3.42,3.42,0,0,1,272.33,146.67Z" style="fill:#00fb00"/><path d="M413.65,146.67l1.48-.12a2.65,2.65,0,0,0,.76,1.62,2.07,2.07,0,0,0,1.44.54,2.24,2.24,0,0,0,1.72-.77,2.89,2.89,0,0,0,.7-2,2.61,2.61,0,0,0-.68-1.9,2.36,2.36,0,0,0-1.77-.7,2.45,2.45,0,0,0-1.23.31,2.38,2.38,0,0,0-.86.8l-1.32-.17,1.11-5.88h5.7v1.34h-4.57l-.62,3.08a3.73,3.73,0,0,1,2.16-.72,3.43,3.43,0,0,1,2.53,1,3.63,3.63,0,0,1,1,2.67,4.17,4.17,0,0,1-.91,2.69,3.63,3.63,0,0,1-3,1.39,3.7,3.7,0,0,1-2.55-.87A3.41,3.41,0,0,1,413.65,146.67Z" style="fill:#00fb00"/><path d="M422.55,144a10.49,10.49,0,0,1,.42-3.27,4.07,4.07,0,0,1,1.24-1.91,3.18,3.18,0,0,1,2.07-.67,3.39,3.39,0,0,1,1.62.37,3.09,3.09,0,0,1,1.15,1.07,5.76,5.76,0,0,1,.71,1.7A11.32,11.32,0,0,1,430,144a10.5,10.5,0,0,1-.41,3.25,4.07,4.07,0,0,1-1.24,1.91,3.17,3.17,0,0,1-2.08.68,3.14,3.14,0,0,1-2.6-1.19A7.55,7.55,0,0,1,422.55,144Zm1.45,0a7.18,7.18,0,0,0,.66,3.75,1.89,1.89,0,0,0,3.26,0,11,11,0,0,0,0-7.51,2,2,0,0,0-1.64-.93,1.8,1.8,0,0,0-1.55.82A7.27,7.27,0,0,0,424,144Z" style="fill:#00fb00"/><path d="M436.74,149.67h-1.41v-9a7.25,7.25,0,0,1-1.33,1,9.4,9.4,0,0,1-1.48.73V141a8.49,8.49,0,0,0,2.06-1.34,5.28,5.28,0,0,0,1.25-1.53h.91Z" style="fill:#00fb00"/><path d="M572.82,149.67v-2.74h-5v-1.29l5.23-7.42h1.15v7.42h1.55v1.29h-1.55v2.74Zm0-4v-5.16l-3.59,5.16Z" style="fill:#00fb00"/><path d="M577.31,139.71v-1.35h7.41v1.09a15.62,15.62,0,0,0-2.17,3.09,18.81,18.81,0,0,0-1.66,4,14.75,14.75,0,0,0-.54,3.15h-1.45a14,14,0,0,1,.53-3.27,17.12,17.12,0,0,1,1.46-3.69,15.82,15.82,0,0,1,2-3Z" style="fill:#00fb00"/><path d="M586.12,146.64l1.41-.19a3.09,3.09,0,0,0,.82,1.72,2,2,0,0,0,1.42.53,2.27,2.27,0,0,0,1.68-.69,2.32,2.32,0,0,0,.68-1.7,2.16,2.16,0,0,0-.63-1.6,2.19,2.19,0,0,0-1.61-.63,4,4,0,0,0-1,.16l.16-1.23.23,0a2.9,2.9,0,0,0,1.62-.47,1.61,1.61,0,0,0,.72-1.45,1.71,1.71,0,0,0-.52-1.28,1.86,1.86,0,0,0-1.35-.51,1.91,1.91,0,0,0-1.37.52,2.58,2.58,0,0,0-.7,1.55l-1.41-.25a3.62,3.62,0,0,1,1.17-2.19,3.39,3.39,0,0,1,2.27-.78,3.75,3.75,0,0,1,1.73.4,2.92,2.92,0,0,1,1.21,1.1,2.82,2.82,0,0,1,.42,1.48,2.42,2.42,0,0,1-.4,1.35,2.72,2.72,0,0,1-1.18,1,2.66,2.66,0,0,1,1.58,1,3,3,0,0,1,.56,1.85,3.38,3.38,0,0,1-1.09,2.54,3.85,3.85,0,0,1-2.77,1,3.6,3.6,0,0,1-2.5-.9A3.47,3.47,0,0,1,586.12,146.64Z" style="fill:#00fb00"/><path d="M726.82,149.67v-2.74h-5v-1.29l5.23-7.42h1.15v7.42h1.55v1.29h-1.55v2.74Zm0-4v-5.16l-3.59,5.16Z" style="fill:#00fb00"/><path d="M733.38,143.46a2.64,2.64,0,0,1-1.3-.91,2.39,2.39,0,0,1-.42-1.42,2.78,2.78,0,0,1,.9-2.1,3.78,3.78,0,0,1,4.8,0,2.82,2.82,0,0,1,.91,2.12,2.34,2.34,0,0,1-.42,1.39,2.64,2.64,0,0,1-1.27.91,3.08,3.08,0,0,1,1.61,1.11,3,3,0,0,1,.55,1.83,3.29,3.29,0,0,1-1,2.47,4.23,4.23,0,0,1-5.47,0,3.34,3.34,0,0,1-1-2.5,3,3,0,0,1,.57-1.87A2.84,2.84,0,0,1,733.38,143.46Zm-.73,2.91a2.54,2.54,0,0,0,.29,1.16,2,2,0,0,0,.85.87,2.47,2.47,0,0,0,1.21.31,2.27,2.27,0,0,0,1.66-.65,2.22,2.22,0,0,0,.66-1.65,2.26,2.26,0,0,0-.68-1.68,2.32,2.32,0,0,0-1.69-.66,2.24,2.24,0,0,0-2.3,2.3Zm.45-5.29a1.78,1.78,0,0,0,.52,1.33,1.85,1.85,0,0,0,1.36.52,1.82,1.82,0,0,0,1.33-.51,1.69,1.69,0,0,0,.52-1.25,1.76,1.76,0,0,0-.54-1.3,2,2,0,0,0-2.67,0A1.66,1.66,0,0,0,733.1,141.07Z" style="fill:#00fb00"/><path d="M745.41,149.67H744v-9a7.28,7.28,0,0,1-1.33,1,9.4,9.4,0,0,1-1.48.73V141a8.49,8.49,0,0,0,2.06-1.34,5.3,5.3,0,0,0,1.25-1.53h.91Z" style="fill:#00fb00"/><path d="M76.81,180l1.43-.12a3.14,3.14,0,0,0,.47,1.41,2.57,2.57,0,0,0,1.15.89,4.36,4.36,0,0,0,1.76.34,4.21,4.21,0,0,0,1.53-.26,2.13,2.13,0,0,0,1-.71,1.64,1.64,0,0,0,.32-1,1.49,1.49,0,0,0-.31-.94,2.33,2.33,0,0,0-1-.68,20.35,20.35,0,0,0-2-.56,10.39,10.39,0,0,1-2.21-.71,3.09,3.09,0,0,1-1.22-1.07,2.61,2.61,0,0,1-.4-1.43,2.91,2.91,0,0,1,.49-1.62,3,3,0,0,1,1.44-1.14,5.45,5.45,0,0,1,2.1-.39,5.74,5.74,0,0,1,2.25.41,3.24,3.24,0,0,1,1.5,1.21,3.47,3.47,0,0,1,.56,1.8l-1.45.11a2.35,2.35,0,0,0-.79-1.64,3.09,3.09,0,0,0-2-.55,3.2,3.2,0,0,0-2,.5,1.51,1.51,0,0,0-.63,1.21,1.3,1.3,0,0,0,.45,1,6,6,0,0,0,2.29.82,15.19,15.19,0,0,1,2.54.73,3.48,3.48,0,0,1,1.48,1.17,2.85,2.85,0,0,1,.48,1.63,3.12,3.12,0,0,1-.52,1.72,3.45,3.45,0,0,1-1.5,1.26,5.25,5.25,0,0,1-2.21.45,6.59,6.59,0,0,1-2.61-.45A3.64,3.64,0,0,1,77.44,182,3.86,3.86,0,0,1,76.81,180Z" style="fill:#00fb00"/><path d="M90.89,182.41l.2,1.24a5.24,5.24,0,0,1-1.06.13,2.41,2.41,0,0,1-1.19-.24,1.35,1.35,0,0,1-.59-.64,5,5,0,0,1-.17-1.66v-4.77H87v-1.09h1v-2.05l1.4-.84v2.9h1.41v1.09H89.48v4.85a2.44,2.44,0,0,0,.07.77.58.58,0,0,0,.24.27.93.93,0,0,0,.48.1A4.56,4.56,0,0,0,90.89,182.41Z" style="fill:#00fb00"/><path d="M97.68,182.64a5.24,5.24,0,0,1-1.5.94,4.35,4.35,0,0,1-1.55.27,3,3,0,0,1-2.1-.67,2.2,2.2,0,0,1-.73-1.71,2.26,2.26,0,0,1,.28-1.11,2.29,2.29,0,0,1,.73-.81,3.42,3.42,0,0,1,1-.46,10.08,10.08,0,0,1,1.25-.21,12.86,12.86,0,0,0,2.51-.48c0-.19,0-.31,0-.37a1.55,1.55,0,0,0-.4-1.21,2.36,2.36,0,0,0-1.6-.48,2.48,2.48,0,0,0-1.46.35,2.12,2.12,0,0,0-.7,1.23L92,177.74a3.4,3.4,0,0,1,.62-1.43,2.7,2.7,0,0,1,1.24-.84,5.54,5.54,0,0,1,1.88-.29,5,5,0,0,1,1.73.25,2.29,2.29,0,0,1,1,.63,2.23,2.23,0,0,1,.44,1,7.92,7.92,0,0,1,.07,1.3v1.88a19.76,19.76,0,0,0,.09,2.48,3.1,3.1,0,0,0,.36,1H98A3,3,0,0,1,97.68,182.64Zm-.12-3.14a10.3,10.3,0,0,1-2.3.53,5.33,5.33,0,0,0-1.23.28,1.22,1.22,0,0,0-.55.46,1.24,1.24,0,0,0,.23,1.61,1.83,1.83,0,0,0,1.25.38,2.9,2.9,0,0,0,1.45-.36,2.19,2.19,0,0,0,.93-1,3.41,3.41,0,0,0,.23-1.41Z" style="fill:#00fb00"/><path d="M104.23,182.41l.2,1.24a5.24,5.24,0,0,1-1.06.13,2.41,2.41,0,0,1-1.19-.24,1.35,1.35,0,0,1-.59-.64,5,5,0,0,1-.17-1.66v-4.77h-1v-1.09h1v-2.05l1.4-.84v2.9h1.41v1.09h-1.41v4.85a2.44,2.44,0,0,0,.07.77.58.58,0,0,0,.24.27.93.93,0,0,0,.48.1A4.56,4.56,0,0,0,104.23,182.41Z" style="fill:#00fb00"/><path d="M105.62,173.83v-1.62H107v1.62Zm0,9.84v-8.3H107v8.3Z" style="fill:#00fb00"/><path d="M108.64,179.52a4.28,4.28,0,0,1,1.28-3.41,3.86,3.86,0,0,1,2.61-.92,3.72,3.72,0,0,1,2.8,1.12,4.27,4.27,0,0,1,1.09,3.1,5.49,5.49,0,0,1-.48,2.52,3.4,3.4,0,0,1-1.4,1.43,4.07,4.07,0,0,1-2,.51,3.73,3.73,0,0,1-2.82-1.12A4.46,4.46,0,0,1,108.64,179.52Zm1.45,0a3.53,3.53,0,0,0,.7,2.39,2.32,2.32,0,0,0,3.49,0,3.62,3.62,0,0,0,.7-2.43,3.43,3.43,0,0,0-.7-2.33,2.32,2.32,0,0,0-3.49,0A3.52,3.52,0,0,0,110.09,179.52Z" style="fill:#00fb00"/><path d="M118.06,183.67v-8.3h1.27v1.18a3,3,0,0,1,2.64-1.37,3.47,3.47,0,0,1,1.38.27,2.18,2.18,0,0,1,.94.71,2.73,2.73,0,0,1,.44,1,8.09,8.09,0,0,1,.08,1.37v5.1H123.4v-5a3.79,3.79,0,0,0-.16-1.29,1.35,1.35,0,0,0-.58-.68,1.86,1.86,0,0,0-1-.25,2.28,2.28,0,0,0-1.55.57,2.81,2.81,0,0,0-.65,2.16v4.53Z" style="fill:#00fb00"/><path d="M259.83,183.67h-1.41v-9a7.21,7.21,0,0,1-1.33,1,9.36,9.36,0,0,1-1.48.73V175a8.45,8.45,0,0,0,2.06-1.34,5.26,5.26,0,0,0,1.25-1.53h.91Z" style="fill:#00fb00"/><path d="M270.82,182.31v1.35h-7.57a2.51,2.51,0,0,1,.16-1,5.19,5.19,0,0,1,.93-1.52,14.55,14.55,0,0,1,1.84-1.73,15.55,15.55,0,0,0,2.52-2.43,2.9,2.9,0,0,0,.66-1.69,1.88,1.88,0,0,0-.6-1.41,2.16,2.16,0,0,0-1.56-.57,2.2,2.2,0,0,0-1.62.61,2.31,2.31,0,0,0-.62,1.69l-1.45-.15a3.56,3.56,0,0,1,1.12-2.46,3.81,3.81,0,0,1,2.6-.85,3.63,3.63,0,0,1,2.61.91,3,3,0,0,1,1,2.27,3.43,3.43,0,0,1-.28,1.35,5.22,5.22,0,0,1-.93,1.4,22.62,22.62,0,0,1-2.17,2q-1.27,1.06-1.62,1.44a4.67,4.67,0,0,0-.59.76Z" style="fill:#00fb00"/><path d="M272.33,178a10.49,10.49,0,0,1,.42-3.27,4.08,4.08,0,0,1,1.24-1.91,3.18,3.18,0,0,1,2.07-.67,3.38,3.38,0,0,1,1.62.37,3.09,3.09,0,0,1,1.15,1.07,5.73,5.73,0,0,1,.71,1.7,11.32,11.32,0,0,1,.26,2.71,10.5,10.5,0,0,1-.41,3.25,4.06,4.06,0,0,1-1.24,1.91,3.49,3.49,0,0,1-4.68-.51A7.55,7.55,0,0,1,272.33,178Zm1.45,0a7.19,7.19,0,0,0,.66,3.75,1.89,1.89,0,0,0,3.26,0,11,11,0,0,0,0-7.51,2,2,0,0,0-1.64-.93,1.8,1.8,0,0,0-1.55.82A7.27,7.27,0,0,0,273.78,178Z" style="fill:#00fb00"/><path d="M281.23,178a10.49,10.49,0,0,1,.42-3.27,4.08,4.08,0,0,1,1.24-1.91,3.18,3.18,0,0,1,2.07-.67,3.38,3.38,0,0,1,1.62.37,3.09,3.09,0,0,1,1.15,1.07,5.73,5.73,0,0,1,.71,1.7,11.32,11.32,0,0,1,.26,2.71,10.5,10.5,0,0,1-.41,3.25,4.06,4.06,0,0,1-1.24,1.91,3.49,3.49,0,0,1-4.68-.51A7.55,7.55,0,0,1,281.23,178Zm1.45,0a7.19,7.19,0,0,0,.66,3.75,1.89,1.89,0,0,0,3.26,0,11,11,0,0,0,0-7.51,2,2,0,0,0-1.64-.93,1.8,1.8,0,0,0-1.55.82A7.27,7.27,0,0,0,282.67,178Z" style="fill:#00fb00"/><path d="M414.5,183.67h-1.41v-9a7.25,7.25,0,0,1-1.33,1,9.4,9.4,0,0,1-1.48.73V175a8.49,8.49,0,0,0,2.06-1.34,5.28,5.28,0,0,0,1.25-1.53h.91Z" style="fill:#00fb00"/><path d="M425.49,182.31v1.35h-7.57a2.48,2.48,0,0,1,.16-1,5.15,5.15,0,0,1,.93-1.52,14.55,14.55,0,0,1,1.84-1.73,15.55,15.55,0,0,0,2.52-2.43,2.9,2.9,0,0,0,.66-1.69,1.88,1.88,0,0,0-.6-1.41,2.16,2.16,0,0,0-1.56-.57,2.2,2.2,0,0,0-1.62.61,2.3,2.3,0,0,0-.62,1.69l-1.45-.15A3.56,3.56,0,0,1,419.3,173a3.81,3.81,0,0,1,2.6-.85,3.63,3.63,0,0,1,2.61.91,3,3,0,0,1,1,2.27,3.43,3.43,0,0,1-.28,1.35,5.25,5.25,0,0,1-.93,1.4,22.62,22.62,0,0,1-2.17,2q-1.27,1.06-1.62,1.44a4.67,4.67,0,0,0-.59.76Z" style="fill:#00fb00"/><path d="M434.39,182.31v1.35h-7.57a2.48,2.48,0,0,1,.16-1,5.15,5.15,0,0,1,.93-1.52,14.55,14.55,0,0,1,1.84-1.73,15.55,15.55,0,0,0,2.52-2.43,2.9,2.9,0,0,0,.66-1.69,1.88,1.88,0,0,0-.6-1.41,2.16,2.16,0,0,0-1.56-.57,2.2,2.2,0,0,0-1.62.61,2.3,2.3,0,0,0-.62,1.69l-1.45-.15A3.56,3.56,0,0,1,428.2,173a3.81,3.81,0,0,1,2.6-.85,3.63,3.63,0,0,1,2.61.91,3,3,0,0,1,1,2.27,3.43,3.43,0,0,1-.28,1.35,5.25,5.25,0,0,1-.93,1.4,22.62,22.62,0,0,1-2.17,2q-1.27,1.06-1.62,1.44a4.67,4.67,0,0,0-.59.76Z" style="fill:#00fb00"/><path d="M435.9,178a10.49,10.49,0,0,1,.42-3.27,4.07,4.07,0,0,1,1.24-1.91,3.18,3.18,0,0,1,2.07-.67,3.39,3.39,0,0,1,1.62.37,3.09,3.09,0,0,1,1.15,1.07,5.76,5.76,0,0,1,.71,1.7,11.32,11.32,0,0,1,.26,2.71,10.5,10.5,0,0,1-.41,3.25,4.07,4.07,0,0,1-1.24,1.91,3.17,3.17,0,0,1-2.08.68,3.14,3.14,0,0,1-2.6-1.19A7.55,7.55,0,0,1,435.9,178Zm1.45,0a7.18,7.18,0,0,0,.66,3.75,1.89,1.89,0,0,0,3.26,0,11,11,0,0,0,0-7.51,2,2,0,0,0-1.64-.93,1.8,1.8,0,0,0-1.55.82A7.27,7.27,0,0,0,437.34,178Z" style="fill:#00fb00"/><path d="M569.16,183.67h-1.41v-9a7.28,7.28,0,0,1-1.33,1,9.4,9.4,0,0,1-1.48.73V175A8.49,8.49,0,0,0,567,173.7a5.3,5.3,0,0,0,1.25-1.53h.91Z" style="fill:#00fb00"/><path d="M580.16,182.31v1.35h-7.57a2.48,2.48,0,0,1,.16-1,5.15,5.15,0,0,1,.93-1.52,14.42,14.42,0,0,1,1.84-1.73A15.6,15.6,0,0,0,578,177a2.9,2.9,0,0,0,.66-1.69,1.88,1.88,0,0,0-.6-1.41,2.16,2.16,0,0,0-1.56-.57,2.2,2.2,0,0,0-1.62.61,2.3,2.3,0,0,0-.62,1.69l-1.45-.15A3.55,3.55,0,0,1,574,173a3.81,3.81,0,0,1,2.6-.85,3.63,3.63,0,0,1,2.61.91,3,3,0,0,1,1,2.27,3.43,3.43,0,0,1-.28,1.35,5.25,5.25,0,0,1-.93,1.4,22.86,22.86,0,0,1-2.17,2q-1.27,1.06-1.62,1.44a4.62,4.62,0,0,0-.59.76Z" style="fill:#00fb00"/><path d="M581.67,180.64l1.41-.19a3.09,3.09,0,0,0,.82,1.72,2,2,0,0,0,1.42.53A2.27,2.27,0,0,0,587,182a2.32,2.32,0,0,0,.68-1.7,2.16,2.16,0,0,0-.63-1.6,2.19,2.19,0,0,0-1.61-.63,4,4,0,0,0-1,.16l.16-1.23.23,0a2.9,2.9,0,0,0,1.62-.47,1.61,1.61,0,0,0,.72-1.45,1.71,1.71,0,0,0-.52-1.28,1.86,1.86,0,0,0-1.35-.51,1.91,1.91,0,0,0-1.37.52,2.58,2.58,0,0,0-.7,1.55l-1.41-.25a3.62,3.62,0,0,1,1.17-2.19,3.39,3.39,0,0,1,2.27-.78,3.75,3.75,0,0,1,1.73.4,2.92,2.92,0,0,1,1.21,1.1,2.82,2.82,0,0,1,.42,1.48,2.42,2.42,0,0,1-.4,1.35,2.72,2.72,0,0,1-1.18,1,2.66,2.66,0,0,1,1.58,1,3,3,0,0,1,.56,1.85,3.38,3.38,0,0,1-1.09,2.54,3.85,3.85,0,0,1-2.77,1,3.6,3.6,0,0,1-2.5-.9A3.47,3.47,0,0,1,581.67,180.64Z" style="fill:#00fb00"/><path d="M590.56,178a10.46,10.46,0,0,1,.42-3.27,4.07,4.07,0,0,1,1.24-1.91,3.17,3.17,0,0,1,2.07-.67,3.39,3.39,0,0,1,1.62.37,3.11,3.11,0,0,1,1.15,1.07,5.76,5.76,0,0,1,.71,1.7A11.32,11.32,0,0,1,598,178a10.53,10.53,0,0,1-.41,3.25,4.07,4.07,0,0,1-1.24,1.91,3.18,3.18,0,0,1-2.08.68,3.14,3.14,0,0,1-2.6-1.19A7.54,7.54,0,0,1,590.56,178Zm1.45,0a7.18,7.18,0,0,0,.66,3.75,1.89,1.89,0,0,0,3.26,0,11,11,0,0,0,0-7.51,2,2,0,0,0-1.64-.93,1.8,1.8,0,0,0-1.55.82A7.27,7.27,0,0,0,592,178Z" style="fill:#00fb00"/><path d="M723.16,183.67h-1.41v-9a7.28,7.28,0,0,1-1.33,1,9.4,9.4,0,0,1-1.48.73V175A8.49,8.49,0,0,0,721,173.7a5.3,5.3,0,0,0,1.25-1.53h.91Z" style="fill:#00fb00"/><path d="M734.16,182.31v1.35h-7.57a2.48,2.48,0,0,1,.16-1,5.15,5.15,0,0,1,.93-1.52,14.42,14.42,0,0,1,1.84-1.73A15.6,15.6,0,0,0,732,177a2.9,2.9,0,0,0,.66-1.69,1.88,1.88,0,0,0-.6-1.41,2.16,2.16,0,0,0-1.56-.57,2.2,2.2,0,0,0-1.62.61,2.3,2.3,0,0,0-.62,1.69l-1.45-.15A3.55,3.55,0,0,1,728,173a3.81,3.81,0,0,1,2.6-.85,3.63,3.63,0,0,1,2.61.91,3,3,0,0,1,1,2.27,3.43,3.43,0,0,1-.28,1.35,5.25,5.25,0,0,1-.93,1.4,22.86,22.86,0,0,1-2.17,2q-1.27,1.06-1.62,1.44a4.62,4.62,0,0,0-.59.76Z" style="fill:#00fb00"/><path d="M740.17,183.67v-2.74h-5v-1.29l5.23-7.42h1.15v7.42h1.55v1.29h-1.55v2.74Zm0-4v-5.16l-3.59,5.16Z" style="fill:#00fb00"/><path d="M744.56,178a10.46,10.46,0,0,1,.42-3.27,4.07,4.07,0,0,1,1.24-1.91,3.17,3.17,0,0,1,2.07-.67,3.39,3.39,0,0,1,1.62.37,3.11,3.11,0,0,1,1.15,1.07,5.76,5.76,0,0,1,.71,1.7A11.32,11.32,0,0,1,752,178a10.53,10.53,0,0,1-.41,3.25,4.07,4.07,0,0,1-1.24,1.91,3.18,3.18,0,0,1-2.08.68,3.14,3.14,0,0,1-2.6-1.19A7.54,7.54,0,0,1,744.56,178Zm1.45,0a7.18,7.18,0,0,0,.66,3.75,1.89,1.89,0,0,0,3.26,0,11,11,0,0,0,0-7.51,2,2,0,0,0-1.64-.93,1.8,1.8,0,0,0-1.55.82A7.27,7.27,0,0,0,746,178Z" style="fill:#00fb00"/><path d="M79,200l1.43-.12a3.14,3.14,0,0,0,.47,1.41,2.57,2.57,0,0,0,1.15.89,4.36,4.36,0,0,0,1.76.34,4.21,4.21,0,0,0,1.53-.26,2.13,2.13,0,0,0,1-.71,1.64,1.64,0,0,0,.32-1,1.49,1.49,0,0,0-.31-.94,2.33,2.33,0,0,0-1-.68,20.35,20.35,0,0,0-2-.56,10.39,10.39,0,0,1-2.21-.71,3.09,3.09,0,0,1-1.22-1.07,2.61,2.61,0,0,1-.4-1.43,2.91,2.91,0,0,1,.49-1.62,3,3,0,0,1,1.44-1.14,5.45,5.45,0,0,1,2.1-.39,5.74,5.74,0,0,1,2.25.41,3.24,3.24,0,0,1,1.5,1.21,3.47,3.47,0,0,1,.56,1.8l-1.45.11a2.35,2.35,0,0,0-.79-1.64,3.09,3.09,0,0,0-2-.55,3.2,3.2,0,0,0-2,.5,1.51,1.51,0,0,0-.63,1.21,1.3,1.3,0,0,0,.45,1,6,6,0,0,0,2.29.82,15.19,15.19,0,0,1,2.54.73,3.48,3.48,0,0,1,1.48,1.17,2.85,2.85,0,0,1,.48,1.63,3.12,3.12,0,0,1-.52,1.72,3.45,3.45,0,0,1-1.5,1.26,5.25,5.25,0,0,1-2.21.45,6.59,6.59,0,0,1-2.61-.45A3.64,3.64,0,0,1,79.67,202,3.86,3.86,0,0,1,79,200Z" style="fill:#00fb00"/><path d="M93.12,202.41l.2,1.24a5.24,5.24,0,0,1-1.06.13,2.41,2.41,0,0,1-1.19-.24,1.35,1.35,0,0,1-.59-.64,5,5,0,0,1-.17-1.66v-4.77h-1v-1.09h1v-2.05l1.4-.84v2.9h1.41v1.09H91.7v4.85a2.44,2.44,0,0,0,.07.77.58.58,0,0,0,.24.27.93.93,0,0,0,.48.1A4.56,4.56,0,0,0,93.12,202.41Z" style="fill:#00fb00"/><path d="M99.91,202.64a5.24,5.24,0,0,1-1.5.94,4.35,4.35,0,0,1-1.55.27,3,3,0,0,1-2.1-.67,2.2,2.2,0,0,1-.73-1.71,2.26,2.26,0,0,1,.28-1.11,2.29,2.29,0,0,1,.73-.81,3.42,3.42,0,0,1,1-.46,10.08,10.08,0,0,1,1.25-.21,12.86,12.86,0,0,0,2.51-.48c0-.19,0-.31,0-.37a1.55,1.55,0,0,0-.4-1.21,2.36,2.36,0,0,0-1.6-.48,2.48,2.48,0,0,0-1.46.35,2.12,2.12,0,0,0-.7,1.23l-1.37-.19a3.4,3.4,0,0,1,.62-1.43,2.7,2.7,0,0,1,1.24-.84,5.54,5.54,0,0,1,1.88-.29,5,5,0,0,1,1.73.25,2.29,2.29,0,0,1,1,.63,2.23,2.23,0,0,1,.44,1,7.92,7.92,0,0,1,.07,1.3v1.88a19.76,19.76,0,0,0,.09,2.48,3.1,3.1,0,0,0,.36,1h-1.47A3,3,0,0,1,99.91,202.64Zm-.12-3.14a10.3,10.3,0,0,1-2.3.53,5.33,5.33,0,0,0-1.23.28,1.22,1.22,0,0,0-.55.46,1.24,1.24,0,0,0,.23,1.61,1.83,1.83,0,0,0,1.25.38,2.9,2.9,0,0,0,1.45-.36,2.19,2.19,0,0,0,.93-1,3.41,3.41,0,0,0,.23-1.41Z" style="fill:#00fb00"/><path d="M106.46,202.41l.2,1.24a5.24,5.24,0,0,1-1.06.13,2.41,2.41,0,0,1-1.19-.24,1.35,1.35,0,0,1-.59-.64,5,5,0,0,1-.17-1.66v-4.77h-1v-1.09h1v-2.05l1.4-.84v2.9h1.41v1.09H105v4.85a2.44,2.44,0,0,0,.07.77.58.58,0,0,0,.24.27.93.93,0,0,0,.48.1A4.56,4.56,0,0,0,106.46,202.41Z" style="fill:#00fb00"/><path d="M113.27,203.67v-1.22a3,3,0,0,1-2.63,1.41,3.35,3.35,0,0,1-1.37-.28,2.25,2.25,0,0,1-.95-.71,2.64,2.64,0,0,1-.43-1,7.11,7.11,0,0,1-.09-1.31v-5.14h1.41V200a8.17,8.17,0,0,0,.09,1.48,1.46,1.46,0,0,0,.56.87,1.74,1.74,0,0,0,1.06.32,2.31,2.31,0,0,0,1.19-.32,1.81,1.81,0,0,0,.79-.88,4.44,4.44,0,0,0,.23-1.62v-4.45h1.41v8.3Z" style="fill:#00fb00"/><path d="M116.17,201.19l1.39-.22a1.94,1.94,0,0,0,.65,1.28,2.27,2.27,0,0,0,1.5.45,2.2,2.2,0,0,0,1.44-.39,1.18,1.18,0,0,0,.47-.93.86.86,0,0,0-.41-.75,6.12,6.12,0,0,0-1.44-.48,13.07,13.07,0,0,1-2.14-.68,2,2,0,0,1-1.21-1.9,2.13,2.13,0,0,1,.25-1,2.27,2.27,0,0,1,.69-.79,2.91,2.91,0,0,1,.89-.41,4.25,4.25,0,0,1,1.21-.17,4.8,4.8,0,0,1,1.71.28,2.33,2.33,0,0,1,1.09.76,3,3,0,0,1,.48,1.29l-1.37.19a1.51,1.51,0,0,0-.54-1,2,2,0,0,0-1.27-.36,2.3,2.3,0,0,0-1.38.32.93.93,0,0,0-.41.75.77.77,0,0,0,.17.49,1.23,1.23,0,0,0,.54.38q.21.08,1.24.36a17.41,17.41,0,0,1,2.08.65,2.12,2.12,0,0,1,.93.74,2.06,2.06,0,0,1,.34,1.2,2.36,2.36,0,0,1-.41,1.32,2.65,2.65,0,0,1-1.18,1,4.31,4.31,0,0,1-1.75.34,3.9,3.9,0,0,1-2.46-.67A3.12,3.12,0,0,1,116.17,201.19Z" style="fill:#00fb00"/><path d="M77.33,223.67V212.21h1.55l6,9v-9h1.45v11.45H84.8l-6-9v9Z" style="fill:#00fb00"/><path d="M88.71,223.67v-8.3H90v1.26a3.43,3.43,0,0,1,.89-1.16,1.56,1.56,0,0,1,.9-.28,2.75,2.75,0,0,1,1.45.45l-.48,1.3a2,2,0,0,0-1-.3,1.34,1.34,0,0,0-.83.28,1.5,1.5,0,0,0-.52.77,5.48,5.48,0,0,0-.23,1.64v4.34Z" style="fill:#00fb00"/><path d="M93,223.86,96.32,212h1.13l-3.31,11.84Z" style="fill:#00fb00"/><path d="M98.21,218.09a6.22,6.22,0,0,1,1.53-4.46,5.21,5.21,0,0,1,4-1.61,5.49,5.49,0,0,1,2.86.76,5,5,0,0,1,1.94,2.11,6.87,6.87,0,0,1,.67,3.07,6.75,6.75,0,0,1-.7,3.12,4.8,4.8,0,0,1-2,2.08,5.69,5.69,0,0,1-2.78.71,5.41,5.41,0,0,1-2.89-.78,5,5,0,0,1-1.93-2.13A6.46,6.46,0,0,1,98.21,218.09Zm1.56,0a4.59,4.59,0,0,0,1.11,3.26,3.88,3.88,0,0,0,5.61,0,4.87,4.87,0,0,0,1.11-3.41,5.88,5.88,0,0,0-.47-2.44,3.64,3.64,0,0,0-1.38-1.62,3.75,3.75,0,0,0-2-.57,3.88,3.88,0,0,0-2.77,1.11A4.94,4.94,0,0,0,99.78,218.11Z" style="fill:#00fb00"/><path d="M109.89,223.86,113.21,212h1.13L111,223.86Z" style="fill:#00fb00"/><path d="M123.74,219.65l1.52.38a5.11,5.11,0,0,1-1.71,2.85,4.73,4.73,0,0,1-3,1,5.44,5.44,0,0,1-3-.75,4.7,4.7,0,0,1-1.77-2.18,7.78,7.78,0,0,1-.61-3.07,6.75,6.75,0,0,1,.68-3.12,4.68,4.68,0,0,1,1.95-2,5.68,5.68,0,0,1,2.78-.69,4.7,4.7,0,0,1,2.89.88,4.55,4.55,0,0,1,1.63,2.46l-1.49.35a3.54,3.54,0,0,0-1.16-1.82,3.08,3.08,0,0,0-1.91-.57,3.7,3.7,0,0,0-2.21.63,3.34,3.34,0,0,0-1.25,1.7,6.82,6.82,0,0,0-.36,2.2,7,7,0,0,0,.43,2.55,3.17,3.17,0,0,0,1.32,1.63,3.71,3.71,0,0,0,1.95.54,3.26,3.26,0,0,0,2.16-.73A3.76,3.76,0,0,0,123.74,219.65Z" style="fill:#00fb00"/><path d="M267.88,220.67l1.48-.12a2.65,2.65,0,0,0,.76,1.62,2.07,2.07,0,0,0,1.44.54,2.24,2.24,0,0,0,1.72-.77,2.89,2.89,0,0,0,.7-2,2.61,2.61,0,0,0-.68-1.9,2.36,2.36,0,0,0-1.77-.7,2.46,2.46,0,0,0-1.23.31,2.39,2.39,0,0,0-.86.8l-1.32-.17,1.11-5.88h5.7v1.34h-4.57l-.62,3.08a3.73,3.73,0,0,1,2.16-.72,3.43,3.43,0,0,1,2.53,1,3.63,3.63,0,0,1,1,2.67,4.17,4.17,0,0,1-.91,2.69,3.63,3.63,0,0,1-3,1.39A3.71,3.71,0,0,1,269,223,3.42,3.42,0,0,1,267.88,220.67Z" style="fill:#00fb00"/><path d="M422.55,220.67l1.48-.12a2.65,2.65,0,0,0,.76,1.62,2.07,2.07,0,0,0,1.44.54,2.24,2.24,0,0,0,1.72-.77,2.89,2.89,0,0,0,.7-2A2.61,2.61,0,0,0,428,218a2.36,2.36,0,0,0-1.77-.7,2.45,2.45,0,0,0-1.23.31,2.38,2.38,0,0,0-.86.8l-1.32-.17,1.11-5.88h5.7v1.34H425l-.62,3.08a3.73,3.73,0,0,1,2.16-.72,3.43,3.43,0,0,1,2.53,1,3.63,3.63,0,0,1,1,2.67,4.17,4.17,0,0,1-.91,2.69,3.63,3.63,0,0,1-3,1.39,3.7,3.7,0,0,1-2.55-.87A3.41,3.41,0,0,1,422.55,220.67Z" style="fill:#00fb00"/><path d="M736.51,223.67h-1.41v-9a7.28,7.28,0,0,1-1.33,1,9.4,9.4,0,0,1-1.48.73V215a8.49,8.49,0,0,0,2.06-1.34,5.3,5.3,0,0,0,1.25-1.53h.91Z" style="fill:#00fb00"/><path d="M88.47,239.17v-1.34h4.85v4.25a8.58,8.58,0,0,1-2.3,1.34,6.84,6.84,0,0,1-2.44.45,6.5,6.5,0,0,1-3.07-.72A4.77,4.77,0,0,1,83.43,241a6.58,6.58,0,0,1-.7-3.05,7.08,7.08,0,0,1,.7-3.12,4.65,4.65,0,0,1,2-2.15,6.3,6.3,0,0,1,3-.7,6,6,0,0,1,2.25.4,3.73,3.73,0,0,1,1.57,1.12,5,5,0,0,1,.87,1.88l-1.37.38a4.24,4.24,0,0,0-.64-1.37,2.64,2.64,0,0,0-1.09-.8,4,4,0,0,0-1.58-.3,4.64,4.64,0,0,0-1.8.32,3.35,3.35,0,0,0-1.22.83,4,4,0,0,0-.72,1.13,6,6,0,0,0-.44,2.3,5.59,5.59,0,0,0,.53,2.56A3.37,3.37,0,0,0,86.36,242a4.75,4.75,0,0,0,2.14.5,5.08,5.08,0,0,0,1.92-.38,5,5,0,0,0,1.42-.81v-2.13Z" style="fill:#00fb00"/><path d="M100.79,242.64a5.24,5.24,0,0,1-1.5.94,4.35,4.35,0,0,1-1.55.27,3,3,0,0,1-2.1-.67,2.2,2.2,0,0,1-.73-1.71,2.26,2.26,0,0,1,.28-1.11,2.29,2.29,0,0,1,.73-.81,3.42,3.42,0,0,1,1-.46,10.08,10.08,0,0,1,1.25-.21,12.86,12.86,0,0,0,2.51-.48c0-.19,0-.31,0-.37a1.55,1.55,0,0,0-.4-1.21,2.36,2.36,0,0,0-1.6-.48,2.48,2.48,0,0,0-1.46.35,2.12,2.12,0,0,0-.7,1.23l-1.37-.19a3.4,3.4,0,0,1,.62-1.43,2.7,2.7,0,0,1,1.24-.84,5.54,5.54,0,0,1,1.88-.29,5,5,0,0,1,1.73.25,2.29,2.29,0,0,1,1,.63,2.23,2.23,0,0,1,.44,1,7.92,7.92,0,0,1,.07,1.3v1.88a19.76,19.76,0,0,0,.09,2.48,3.1,3.1,0,0,0,.36,1h-1.47A3,3,0,0,1,100.79,242.64Zm-.12-3.14a10.3,10.3,0,0,1-2.3.53,5.33,5.33,0,0,0-1.23.28,1.22,1.22,0,0,0-.55.46,1.24,1.24,0,0,0,.23,1.61,1.83,1.83,0,0,0,1.25.38,2.9,2.9,0,0,0,1.45-.36,2.19,2.19,0,0,0,.93-1,3.41,3.41,0,0,0,.23-1.41Z" style="fill:#00fb00"/><path d="M104.28,246.85V235.37h1.28v1.08a3.15,3.15,0,0,1,1-.95,2.81,2.81,0,0,1,1.38-.32,3.28,3.28,0,0,1,1.88.55,3.36,3.36,0,0,1,1.23,1.54,5.65,5.65,0,0,1,.41,2.18,5.55,5.55,0,0,1-.46,2.29,3.45,3.45,0,0,1-1.33,1.56,3.41,3.41,0,0,1-1.83.54,2.65,2.65,0,0,1-1.26-.3,2.86,2.86,0,0,1-.92-.75v4Zm1.27-7.28a3.61,3.61,0,0,0,.65,2.37,2,2,0,0,0,1.57.77,2,2,0,0,0,1.61-.79,3.76,3.76,0,0,0,.67-2.46,3.67,3.67,0,0,0-.65-2.37,2,2,0,0,0-1.56-.79,2,2,0,0,0-1.59.84A3.76,3.76,0,0,0,105.55,239.56Z" style="fill:#00fb00"/><path d="M112.61,241.19,114,241a1.94,1.94,0,0,0,.65,1.28,2.27,2.27,0,0,0,1.5.45,2.2,2.2,0,0,0,1.44-.39,1.18,1.18,0,0,0,.47-.93.86.86,0,0,0-.41-.75,6.12,6.12,0,0,0-1.44-.48,13.07,13.07,0,0,1-2.14-.68,2,2,0,0,1-1.21-1.9,2.13,2.13,0,0,1,.25-1,2.27,2.27,0,0,1,.69-.79,2.91,2.91,0,0,1,.89-.41,4.25,4.25,0,0,1,1.21-.17,4.8,4.8,0,0,1,1.71.28,2.33,2.33,0,0,1,1.09.76,3,3,0,0,1,.48,1.29l-1.37.19a1.51,1.51,0,0,0-.54-1,2,2,0,0,0-1.27-.36,2.3,2.3,0,0,0-1.38.32.93.93,0,0,0-.41.75.77.77,0,0,0,.17.49,1.23,1.23,0,0,0,.54.38q.21.08,1.24.36a17.41,17.41,0,0,1,2.08.65,2.12,2.12,0,0,1,.93.74,2.06,2.06,0,0,1,.34,1.2,2.36,2.36,0,0,1-.41,1.32,2.65,2.65,0,0,1-1.18,1,4.31,4.31,0,0,1-1.75.34,3.9,3.9,0,0,1-2.46-.67A3.12,3.12,0,0,1,112.61,241.19Z" style="fill:#00fb00"/><path d="M259,240.64l1.41-.19a3.1,3.1,0,0,0,.82,1.72,2,2,0,0,0,1.42.53,2.27,2.27,0,0,0,1.68-.69,2.32,2.32,0,0,0,.68-1.7,2.16,2.16,0,0,0-.63-1.6,2.19,2.19,0,0,0-1.61-.63,4,4,0,0,0-1,.16l.16-1.23.23,0a2.89,2.89,0,0,0,1.62-.47,1.6,1.6,0,0,0,.72-1.45,1.71,1.71,0,0,0-.52-1.28,1.86,1.86,0,0,0-1.35-.51,1.92,1.92,0,0,0-1.37.52,2.59,2.59,0,0,0-.7,1.55l-1.41-.25a3.62,3.62,0,0,1,1.17-2.19,3.39,3.39,0,0,1,2.27-.78,3.75,3.75,0,0,1,1.73.4,2.91,2.91,0,0,1,1.21,1.1,2.82,2.82,0,0,1,.42,1.48,2.42,2.42,0,0,1-.4,1.35,2.71,2.71,0,0,1-1.18,1,2.66,2.66,0,0,1,1.58,1,3,3,0,0,1,.56,1.85,3.38,3.38,0,0,1-1.09,2.54,3.84,3.84,0,0,1-2.77,1,3.6,3.6,0,0,1-2.5-.9A3.47,3.47,0,0,1,259,240.64Z" style="fill:#00fb00"/><path d="M275.27,242.31v1.35H267.7a2.51,2.51,0,0,1,.16-1,5.19,5.19,0,0,1,.93-1.52,14.55,14.55,0,0,1,1.84-1.73,15.55,15.55,0,0,0,2.52-2.43,2.9,2.9,0,0,0,.66-1.69,1.88,1.88,0,0,0-.6-1.41,2.16,2.16,0,0,0-1.56-.57,2.2,2.2,0,0,0-1.62.61,2.31,2.31,0,0,0-.62,1.69l-1.45-.15a3.56,3.56,0,0,1,1.12-2.46,3.81,3.81,0,0,1,2.6-.85,3.63,3.63,0,0,1,2.61.91,3,3,0,0,1,1,2.27,3.43,3.43,0,0,1-.28,1.35,5.22,5.22,0,0,1-.93,1.4,22.62,22.62,0,0,1-2.17,2q-1.27,1.06-1.62,1.44a4.67,4.67,0,0,0-.59.76Z" style="fill:#00fb00"/><path d="M278.94,237.46a2.65,2.65,0,0,1-1.3-.91,2.39,2.39,0,0,1-.42-1.42,2.78,2.78,0,0,1,.9-2.1,3.78,3.78,0,0,1,4.8,0,2.82,2.82,0,0,1,.91,2.12,2.33,2.33,0,0,1-.42,1.39,2.63,2.63,0,0,1-1.27.91,3.08,3.08,0,0,1,1.61,1.11,3,3,0,0,1,.55,1.83,3.29,3.29,0,0,1-1,2.47,4.23,4.23,0,0,1-5.47,0,3.34,3.34,0,0,1-1-2.5,3,3,0,0,1,.57-1.87A2.84,2.84,0,0,1,278.94,237.46Zm-.73,2.91a2.55,2.55,0,0,0,.29,1.16,2,2,0,0,0,.85.87,2.48,2.48,0,0,0,1.21.31,2.27,2.27,0,0,0,1.66-.65,2.22,2.22,0,0,0,.66-1.65,2.25,2.25,0,0,0-.68-1.68,2.32,2.32,0,0,0-1.69-.66,2.24,2.24,0,0,0-2.3,2.3Zm.45-5.29a1.78,1.78,0,0,0,.52,1.33,1.86,1.86,0,0,0,1.36.52,1.82,1.82,0,0,0,1.33-.51,1.69,1.69,0,0,0,.52-1.25,1.75,1.75,0,0,0-.54-1.3,1.82,1.82,0,0,0-1.33-.53,1.84,1.84,0,0,0-1.34.52A1.66,1.66,0,0,0,278.66,235.07Z" style="fill:#00fb00"/><path d="M418.95,243.67h-1.41v-9a7.25,7.25,0,0,1-1.33,1,9.4,9.4,0,0,1-1.48.73V235a8.49,8.49,0,0,0,2.06-1.34,5.28,5.28,0,0,0,1.25-1.53h.91Z" style="fill:#00fb00"/><path d="M429.94,242.31v1.35h-7.57a2.48,2.48,0,0,1,.16-1,5.15,5.15,0,0,1,.93-1.52,14.55,14.55,0,0,1,1.84-1.73,15.55,15.55,0,0,0,2.52-2.43,2.9,2.9,0,0,0,.66-1.69,1.88,1.88,0,0,0-.6-1.41,2.16,2.16,0,0,0-1.56-.57,2.2,2.2,0,0,0-1.62.61,2.3,2.3,0,0,0-.62,1.69l-1.45-.15a3.56,3.56,0,0,1,1.12-2.46,3.81,3.81,0,0,1,2.6-.85,3.63,3.63,0,0,1,2.61.91,3,3,0,0,1,1,2.27,3.43,3.43,0,0,1-.28,1.35,5.25,5.25,0,0,1-.93,1.4,22.62,22.62,0,0,1-2.17,2q-1.27,1.06-1.62,1.44a4.67,4.67,0,0,0-.59.76Z" style="fill:#00fb00"/><path d="M431.45,240.67l1.48-.12a2.65,2.65,0,0,0,.76,1.62,2.07,2.07,0,0,0,1.44.54,2.24,2.24,0,0,0,1.72-.77,2.89,2.89,0,0,0,.7-2,2.61,2.61,0,0,0-.68-1.9,2.36,2.36,0,0,0-1.77-.7,2.45,2.45,0,0,0-1.23.31,2.38,2.38,0,0,0-.86.8l-1.32-.17,1.11-5.88h5.7v1.34h-4.57l-.62,3.08a3.73,3.73,0,0,1,2.16-.72,3.43,3.43,0,0,1,2.53,1,3.63,3.63,0,0,1,1,2.67,4.17,4.17,0,0,1-.91,2.69,3.63,3.63,0,0,1-3,1.39,3.7,3.7,0,0,1-2.55-.87A3.41,3.41,0,0,1,431.45,240.67Z" style="fill:#00fb00"/><path d="M573.61,243.67h-1.41v-9a7.28,7.28,0,0,1-1.33,1,9.4,9.4,0,0,1-1.48.73V235a8.49,8.49,0,0,0,2.06-1.34,5.3,5.3,0,0,0,1.25-1.53h.91Z" style="fill:#00fb00"/><path d="M577.21,240.67l1.48-.12a2.65,2.65,0,0,0,.76,1.62,2.07,2.07,0,0,0,1.44.54,2.24,2.24,0,0,0,1.72-.77,2.89,2.89,0,0,0,.7-2,2.61,2.61,0,0,0-.68-1.9,2.36,2.36,0,0,0-1.77-.7,2.45,2.45,0,0,0-1.23.31,2.38,2.38,0,0,0-.86.8l-1.32-.17,1.11-5.88h5.7v1.34H579.7l-.62,3.08a3.73,3.73,0,0,1,2.16-.72,3.43,3.43,0,0,1,2.53,1,3.63,3.63,0,0,1,1,2.67,4.17,4.17,0,0,1-.91,2.69,3.63,3.63,0,0,1-3,1.39,3.7,3.7,0,0,1-2.55-.87A3.41,3.41,0,0,1,577.21,240.67Z" style="fill:#00fb00"/><path d="M593.41,235l-1.4.11a2.66,2.66,0,0,0-.53-1.2,1.86,1.86,0,0,0-1.41-.6,1.93,1.93,0,0,0-1.18.38,3.2,3.2,0,0,0-1,1.41,7.36,7.36,0,0,0-.4,2.65,3.25,3.25,0,0,1,1.24-1.15,3.34,3.34,0,0,1,1.54-.37,3.19,3.19,0,0,1,2.39,1,3.72,3.72,0,0,1,1,2.68,4.41,4.41,0,0,1-.46,2,3.4,3.4,0,0,1-1.28,1.42,3.49,3.49,0,0,1-1.84.49,3.6,3.6,0,0,1-2.87-1.29,6.52,6.52,0,0,1-1.11-4.26q0-3.32,1.23-4.83a3.52,3.52,0,0,1,2.88-1.31,3.07,3.07,0,0,1,3.25,2.85ZM587.67,240a3.26,3.26,0,0,0,.31,1.39,2.29,2.29,0,0,0,.86,1,2.16,2.16,0,0,0,1.16.35,2,2,0,0,0,1.53-.72,2.83,2.83,0,0,0,.64-2,2.65,2.65,0,0,0-.63-1.87,2.08,2.08,0,0,0-1.59-.68,2.17,2.17,0,0,0-1.62.68A2.46,2.46,0,0,0,587.67,240Z" style="fill:#00fb00"/><path d="M722.32,240.64l1.41-.19a3.09,3.09,0,0,0,.82,1.72,2,2,0,0,0,1.42.53,2.27,2.27,0,0,0,1.68-.69,2.32,2.32,0,0,0,.68-1.7,2.16,2.16,0,0,0-.63-1.6,2.19,2.19,0,0,0-1.61-.63,4,4,0,0,0-1,.16l.16-1.23.23,0a2.9,2.9,0,0,0,1.62-.47,1.61,1.61,0,0,0,.72-1.45,1.71,1.71,0,0,0-.52-1.28,1.86,1.86,0,0,0-1.35-.51,1.91,1.91,0,0,0-1.37.52,2.58,2.58,0,0,0-.7,1.55l-1.41-.25a3.62,3.62,0,0,1,1.17-2.19,3.39,3.39,0,0,1,2.27-.78,3.75,3.75,0,0,1,1.73.4,2.92,2.92,0,0,1,1.21,1.1,2.82,2.82,0,0,1,.42,1.48,2.42,2.42,0,0,1-.4,1.35,2.72,2.72,0,0,1-1.18,1,2.66,2.66,0,0,1,1.58,1,3,3,0,0,1,.56,1.85,3.38,3.38,0,0,1-1.09,2.54,3.85,3.85,0,0,1-2.77,1,3.6,3.6,0,0,1-2.5-.9A3.47,3.47,0,0,1,722.32,240.64Z" style="fill:#00fb00"/><path d="M738.51,235l-1.4.11a2.66,2.66,0,0,0-.53-1.2,1.86,1.86,0,0,0-1.41-.6,1.93,1.93,0,0,0-1.18.38,3.2,3.2,0,0,0-1,1.41,7.36,7.36,0,0,0-.4,2.65,3.25,3.25,0,0,1,1.24-1.15,3.34,3.34,0,0,1,1.54-.37,3.19,3.19,0,0,1,2.39,1,3.72,3.72,0,0,1,1,2.68,4.41,4.41,0,0,1-.46,2,3.4,3.4,0,0,1-1.28,1.42,3.49,3.49,0,0,1-1.84.49,3.6,3.6,0,0,1-2.87-1.29,6.52,6.52,0,0,1-1.11-4.26q0-3.32,1.23-4.83a3.52,3.52,0,0,1,2.88-1.31,3.07,3.07,0,0,1,3.25,2.85ZM732.77,240a3.26,3.26,0,0,0,.31,1.39,2.29,2.29,0,0,0,.86,1,2.16,2.16,0,0,0,1.16.35,2,2,0,0,0,1.53-.72,2.83,2.83,0,0,0,.64-2,2.65,2.65,0,0,0-.63-1.87,2.08,2.08,0,0,0-1.59-.68,2.17,2.17,0,0,0-1.62.68A2.46,2.46,0,0,0,732.77,240Z" style="fill:#00fb00"/><path d="M740.12,240.64l1.41-.19a3.09,3.09,0,0,0,.82,1.72,2,2,0,0,0,1.42.53,2.27,2.27,0,0,0,1.68-.69,2.32,2.32,0,0,0,.68-1.7,2.16,2.16,0,0,0-.63-1.6,2.19,2.19,0,0,0-1.61-.63,4,4,0,0,0-1,.16l.16-1.23.23,0a2.9,2.9,0,0,0,1.62-.47,1.61,1.61,0,0,0,.72-1.45,1.71,1.71,0,0,0-.52-1.28,1.86,1.86,0,0,0-1.35-.51,1.91,1.91,0,0,0-1.37.52,2.58,2.58,0,0,0-.7,1.55l-1.41-.25a3.62,3.62,0,0,1,1.17-2.19,3.39,3.39,0,0,1,2.27-.78,3.75,3.75,0,0,1,1.73.4,2.92,2.92,0,0,1,1.21,1.1,2.82,2.82,0,0,1,.42,1.48,2.42,2.42,0,0,1-.4,1.35,2.72,2.72,0,0,1-1.18,1,2.66,2.66,0,0,1,1.58,1,3,3,0,0,1,.56,1.85,3.38,3.38,0,0,1-1.09,2.54,3.85,3.85,0,0,1-2.77,1,3.6,3.6,0,0,1-2.5-.9A3.47,3.47,0,0,1,740.12,240.64Z" style="fill:#00fb00"/><path d="M3.65,55.67l3.57-9.31H8.55l3.81,9.31H11L9.87,52.85H6L5,55.67Zm2.68-3.82H9.49l-1-2.58q-.44-1.17-.66-1.93a11.83,11.83,0,0,1-.5,1.78Z" style="fill:#00fb00"/><path d="M20,52.4l1.23.31A4.15,4.15,0,0,1,19.82,55a3.84,3.84,0,0,1-2.46.8,4.41,4.41,0,0,1-2.45-.61,3.82,3.82,0,0,1-1.44-1.77A6.33,6.33,0,0,1,13,50.94a5.47,5.47,0,0,1,.56-2.54,3.8,3.8,0,0,1,1.58-1.64,4.61,4.61,0,0,1,2.26-.56,3.82,3.82,0,0,1,2.35.71,3.69,3.69,0,0,1,1.33,2l-1.21.29a2.87,2.87,0,0,0-.94-1.48,2.5,2.5,0,0,0-1.55-.46,3,3,0,0,0-1.79.51,2.71,2.71,0,0,0-1,1.38,5.54,5.54,0,0,0-.29,1.79A5.68,5.68,0,0,0,14.6,53a2.58,2.58,0,0,0,1.08,1.32,3,3,0,0,0,1.58.44,2.65,2.65,0,0,0,1.75-.6A3.06,3.06,0,0,0,20,52.4Z" style="fill:#00fb00"/><path d="M25.1,55.67V47.46H22v-1.1h7.38v1.1H26.33v8.21Z" style="fill:#00fb00"/><path d="M36.78,46.36H38v5.38A6.35,6.35,0,0,1,37.69,54a2.72,2.72,0,0,1-1.14,1.34,4.06,4.06,0,0,1-2.17.52,4.47,4.47,0,0,1-2.14-.45A2.58,2.58,0,0,1,31,54.07a6.21,6.21,0,0,1-.36-2.33V46.36h1.23v5.37a5.26,5.26,0,0,0,.22,1.79,1.71,1.71,0,0,0,.78.89,2.68,2.68,0,0,0,1.34.31,2.57,2.57,0,0,0,1.94-.62,3.54,3.54,0,0,0,.58-2.37Z" style="fill:#00fb00"/><path d="M39,55.67l3.57-9.31h1.33l3.81,9.31h-1.4l-1.09-2.82H41.37l-1,2.82Zm2.69-3.82h3.15l-1-2.58q-.45-1.17-.66-1.93a11.83,11.83,0,0,1-.5,1.78Z" style="fill:#00fb00"/><path d="M48.68,55.67V46.36h1.23v8.21h4.58v1.1Z" style="fill:#00fb00"/><path d="M59.3,55.67V46.36h1.23v9.31Z" style="fill:#00fb00"/><path d="M62.69,55.67V46.36H64l4.89,7.31V46.36H70v9.31H68.76l-4.89-7.31v7.31Z" style="fill:#00fb00"/><path d="M160.84,55.67H159.7V48.39a5.93,5.93,0,0,1-1.08.79,7.69,7.69,0,0,1-1.2.59v-1.1a6.91,6.91,0,0,0,1.68-1.09,4.31,4.31,0,0,0,1-1.24h.74Z" style="fill:#00fb00"/><path d="M169.7,48.64l-1.14.09a2.16,2.16,0,0,0-.43-1,1.51,1.51,0,0,0-1.14-.49,1.57,1.57,0,0,0-1,.3,2.61,2.61,0,0,0-.85,1.15,6,6,0,0,0-.32,2.15,2.64,2.64,0,0,1,1-.93,2.71,2.71,0,0,1,1.25-.3,2.59,2.59,0,0,1,1.95.84,3,3,0,0,1,.8,2.17,3.58,3.58,0,0,1-.38,1.63,2.75,2.75,0,0,1-1,1.15,2.83,2.83,0,0,1-1.5.4,2.93,2.93,0,0,1-2.33-1.05,5.31,5.31,0,0,1-.9-3.46,6.21,6.21,0,0,1,1-3.92,2.87,2.87,0,0,1,2.34-1.07,2.49,2.49,0,0,1,2.64,2.32Zm-4.67,4a2.65,2.65,0,0,0,.25,1.13,1.87,1.87,0,0,0,.7.82,1.76,1.76,0,0,0,.95.28,1.61,1.61,0,0,0,1.24-.58,2.3,2.3,0,0,0,.52-1.59,2.15,2.15,0,0,0-.51-1.52,1.69,1.69,0,0,0-1.29-.56,1.76,1.76,0,0,0-1.31.56A2,2,0,0,0,165,52.65Z" style="fill:#00fb00"/><path d="M171,53.23l1.2-.1a2.15,2.15,0,0,0,.62,1.32,1.68,1.68,0,0,0,1.17.44,1.82,1.82,0,0,0,1.4-.62,2.34,2.34,0,0,0,.57-1.65,2.12,2.12,0,0,0-.55-1.54,1.92,1.92,0,0,0-1.44-.56,2,2,0,0,0-1,.25,2,2,0,0,0-.7.65l-1.07-.14.9-4.78h4.63v1.09H173l-.5,2.5a3,3,0,0,1,1.76-.58,2.78,2.78,0,0,1,2.06.84,3,3,0,0,1,.84,2.17,3.39,3.39,0,0,1-.74,2.18A3,3,0,0,1,174,55.83a3,3,0,0,1-2.07-.71A2.77,2.77,0,0,1,171,53.23Z" style="fill:#00fb00"/><path d="M581,35.67V27.46H578v-1.1h7.38v1.1h-3.08v8.21Z" style="fill:#00fb00"/><path d="M584.62,35.67l3.57-9.31h1.33l3.81,9.31h-1.4l-1.09-2.82H587l-1,2.82Zm2.69-3.82h3.15l-1-2.58q-.45-1.17-.66-1.93a11.83,11.83,0,0,1-.5,1.78Z" style="fill:#00fb00"/><path d="M594.34,35.67V26.36h4.13a5.49,5.49,0,0,1,1.89.25,2.07,2.07,0,0,1,1,.89,2.64,2.64,0,0,1,.39,1.4,2.34,2.34,0,0,1-.64,1.67,3.24,3.24,0,0,1-2,.86,3.23,3.23,0,0,1,.74.46,6.43,6.43,0,0,1,1,1.24l1.62,2.53H601l-1.23-1.94q-.54-.84-.89-1.28a2.78,2.78,0,0,0-.62-.62,1.83,1.83,0,0,0-.56-.25,3.68,3.68,0,0,0-.69,0h-1.43v4.13Zm1.23-5.2h2.65a4,4,0,0,0,1.32-.17,1.41,1.41,0,0,0,.72-.56,1.51,1.51,0,0,0,.25-.83,1.39,1.39,0,0,0-.48-1.09,2.24,2.24,0,0,0-1.51-.43h-2.95Z" style="fill:#00fb00"/><path d="M608.06,32V30.92H612v3.45a7,7,0,0,1-1.87,1.09,5.56,5.56,0,0,1-2,.36,5.29,5.29,0,0,1-2.49-.59,3.88,3.88,0,0,1-1.69-1.7,5.35,5.35,0,0,1-.57-2.48,5.77,5.77,0,0,1,.57-2.54,3.78,3.78,0,0,1,1.63-1.75,5.12,5.12,0,0,1,2.46-.57,4.86,4.86,0,0,1,1.82.33,3,3,0,0,1,1.28.91,4,4,0,0,1,.71,1.52l-1.11.3a3.42,3.42,0,0,0-.52-1.12,2.14,2.14,0,0,0-.89-.65,3.26,3.26,0,0,0-1.28-.24,3.76,3.76,0,0,0-1.46.26,2.72,2.72,0,0,0-1,.68,3.22,3.22,0,0,0-.59.92,4.86,4.86,0,0,0-.36,1.87,4.55,4.55,0,0,0,.43,2.08,2.74,2.74,0,0,0,1.25,1.24,3.86,3.86,0,0,0,1.74.41,4.13,4.13,0,0,0,1.56-.31,4,4,0,0,0,1.16-.66V32Z" style="fill:#00fb00"/><path d="M613.84,35.67V26.36h6.73v1.1h-5.5v2.85h5.15V31.4h-5.15v3.17h5.71v1.1Z" style="fill:#00fb00"/><path d="M624.86,35.67V27.46h-3.07v-1.1h7.38v1.1h-3.08v8.21Z" style="fill:#00fb00"/><path d="M633.43,31.13a5.06,5.06,0,0,1,1.24-3.63,4.23,4.23,0,0,1,3.21-1.31,4.46,4.46,0,0,1,2.32.62,4,4,0,0,1,1.58,1.72,5.58,5.58,0,0,1,.54,2.5,5.48,5.48,0,0,1-.57,2.53,3.9,3.9,0,0,1-1.62,1.69,4.63,4.63,0,0,1-2.26.57,4.4,4.4,0,0,1-2.35-.63A4.09,4.09,0,0,1,634,33.46,5.25,5.25,0,0,1,633.43,31.13Zm1.27,0a3.72,3.72,0,0,0,.91,2.65,3.15,3.15,0,0,0,4.56,0,4,4,0,0,0,.9-2.77,4.75,4.75,0,0,0-.38-2,3,3,0,0,0-1.12-1.31,3,3,0,0,0-1.66-.47,3.15,3.15,0,0,0-2.25.9A4,4,0,0,0,634.7,31.15Z" style="fill:#00fb00"/><path d="M650,26.36h1.23v5.38a6.38,6.38,0,0,1-.32,2.23,2.72,2.72,0,0,1-1.15,1.34,4.06,4.06,0,0,1-2.17.52,4.47,4.47,0,0,1-2.14-.45,2.57,2.57,0,0,1-1.19-1.3,6.23,6.23,0,0,1-.36-2.33V26.36h1.23v5.37a5.24,5.24,0,0,0,.22,1.79,1.71,1.71,0,0,0,.77.89,2.69,2.69,0,0,0,1.34.31,2.56,2.56,0,0,0,1.94-.62,3.54,3.54,0,0,0,.58-2.37Z" style="fill:#00fb00"/><path d="M655.67,35.67V27.46h-3.07v-1.1H660v1.1H656.9v8.21Z" style="fill:#00fb00"/><path d="M785.13,28.64l-1.14.09a2.15,2.15,0,0,0-.43-1,1.51,1.51,0,0,0-1.14-.49,1.57,1.57,0,0,0-1,.3,2.6,2.6,0,0,0-.85,1.15,6,6,0,0,0-.32,2.15,2.65,2.65,0,0,1,1-.93,2.72,2.72,0,0,1,1.25-.3,2.59,2.59,0,0,1,1.95.84,3,3,0,0,1,.8,2.17,3.57,3.57,0,0,1-.38,1.63,2.75,2.75,0,0,1-1,1.15,2.83,2.83,0,0,1-1.5.4,2.93,2.93,0,0,1-2.33-1.05,5.3,5.3,0,0,1-.9-3.46,6.2,6.2,0,0,1,1-3.92,2.86,2.86,0,0,1,2.34-1.07,2.49,2.49,0,0,1,2.64,2.32Zm-4.67,4a2.64,2.64,0,0,0,.25,1.13,1.86,1.86,0,0,0,.7.82,1.75,1.75,0,0,0,.95.28,1.61,1.61,0,0,0,1.24-.58,2.3,2.3,0,0,0,.52-1.59,2.15,2.15,0,0,0-.51-1.52,1.69,1.69,0,0,0-1.29-.56,1.76,1.76,0,0,0-1.31.56A2,2,0,0,0,780.47,32.65Z" style="fill:#00fb00"/><path d="M790.74,35.67H789.6V28.39a5.93,5.93,0,0,1-1.08.79,7.69,7.69,0,0,1-1.2.59v-1.1A6.91,6.91,0,0,0,789,27.57a4.31,4.31,0,0,0,1-1.24h.74Z" style="fill:#00fb00"/><path d="M793.67,33.21l1.14-.15a2.53,2.53,0,0,0,.67,1.4,1.66,1.66,0,0,0,1.15.43,1.85,1.85,0,0,0,1.36-.56,1.88,1.88,0,0,0,.56-1.38,1.75,1.75,0,0,0-.51-1.3,1.78,1.78,0,0,0-1.31-.51,3.29,3.29,0,0,0-.81.13l.13-1h.18a2.35,2.35,0,0,0,1.31-.38,1.31,1.31,0,0,0,.58-1.17,1.39,1.39,0,0,0-.43-1,1.51,1.51,0,0,0-1.1-.41,1.56,1.56,0,0,0-1.11.42,2.1,2.1,0,0,0-.57,1.26l-1.14-.2a2.93,2.93,0,0,1,1-1.78,2.75,2.75,0,0,1,1.85-.63,3,3,0,0,1,1.4.33,2.36,2.36,0,0,1,1,.89,2.29,2.29,0,0,1,.34,1.2,2,2,0,0,1-.32,1.1,2.21,2.21,0,0,1-1,.79,2.16,2.16,0,0,1,1.28.79,2.41,2.41,0,0,1,.46,1.5,2.74,2.74,0,0,1-.89,2.07,3.12,3.12,0,0,1-2.25.85,2.92,2.92,0,0,1-2-.73A2.83,2.83,0,0,1,793.67,33.21Z" style="fill:#00fb00"/><path d="M663.13,17.67v-10h1.33v8.84h4.94v1.18Z" style="fill:#f5f500"/><path d="M675.55,16.77a4.59,4.59,0,0,1-1.32.82,3.8,3.8,0,0,1-1.36.24,2.64,2.64,0,0,1-1.84-.58,1.93,1.93,0,0,1-.64-1.49,2,2,0,0,1,.88-1.68,3,3,0,0,1,.88-.4,8.76,8.76,0,0,1,1.09-.18,11.27,11.27,0,0,0,2.2-.42c0-.17,0-.28,0-.32a1.36,1.36,0,0,0-.35-1.06,2.06,2.06,0,0,0-1.4-.42,2.17,2.17,0,0,0-1.28.3,1.86,1.86,0,0,0-.61,1.08l-1.2-.16a3,3,0,0,1,.54-1.25,2.37,2.37,0,0,1,1.09-.73,4.84,4.84,0,0,1,1.65-.26,4.36,4.36,0,0,1,1.51.22,2,2,0,0,1,.85.55,1.92,1.92,0,0,1,.38.84A6.89,6.89,0,0,1,676.7,13v1.64a17.38,17.38,0,0,0,.08,2.17,2.76,2.76,0,0,0,.31.87H675.8A2.64,2.64,0,0,1,675.55,16.77Zm-.1-2.75a9,9,0,0,1-2,.46,4.65,4.65,0,0,0-1.07.25,1.07,1.07,0,0,0-.48.4,1.09,1.09,0,0,0,.2,1.4,1.6,1.6,0,0,0,1.09.33,2.54,2.54,0,0,0,1.27-.31,1.91,1.91,0,0,0,.81-.85,3,3,0,0,0,.2-1.23Z" style="fill:#f5f500"/><path d="M678.11,15.5l1.22-.19a1.7,1.7,0,0,0,.57,1.12,2,2,0,0,0,1.31.39,1.93,1.93,0,0,0,1.26-.35,1,1,0,0,0,.41-.81.75.75,0,0,0-.36-.66,5.32,5.32,0,0,0-1.26-.42,11.47,11.47,0,0,1-1.88-.59,1.79,1.79,0,0,1-1.06-1.66,1.87,1.87,0,0,1,.22-.9,2,2,0,0,1,.61-.69,2.53,2.53,0,0,1,.78-.36,3.72,3.72,0,0,1,1.06-.15,4.2,4.2,0,0,1,1.5.25,2,2,0,0,1,1,.67,2.6,2.6,0,0,1,.42,1.12l-1.2.16a1.32,1.32,0,0,0-.47-.87,1.74,1.74,0,0,0-1.11-.31,2,2,0,0,0-1.21.28.82.82,0,0,0-.36.66.68.68,0,0,0,.15.43,1.08,1.08,0,0,0,.47.33q.18.07,1.09.31a15.12,15.12,0,0,1,1.82.57,1.85,1.85,0,0,1,.81.65,1.81,1.81,0,0,1,.29,1.05,2.07,2.07,0,0,1-.36,1.16,2.32,2.32,0,0,1-1,.84,3.77,3.77,0,0,1-1.53.3,3.41,3.41,0,0,1-2.16-.59A2.74,2.74,0,0,1,678.11,15.5Z" style="fill:#f5f500"/><path d="M688.29,16.57l.18,1.09a4.58,4.58,0,0,1-.93.11,2.1,2.1,0,0,1-1-.21A1.18,1.18,0,0,1,686,17a4.4,4.4,0,0,1-.15-1.45V11.36h-.9v-1h.9V8.61l1.22-.74v2.54h1.24v1h-1.24v4.25a2.12,2.12,0,0,0,.07.68.52.52,0,0,0,.21.24.82.82,0,0,0,.42.09A4,4,0,0,0,688.29,16.57Z" style="fill:#f5f500"/><path d="M700.12,7.65h1.33v5.79a6.86,6.86,0,0,1-.34,2.4,2.93,2.93,0,0,1-1.23,1.45,4.37,4.37,0,0,1-2.34.56,4.81,4.81,0,0,1-2.3-.49,2.77,2.77,0,0,1-1.28-1.4,6.7,6.7,0,0,1-.38-2.51V7.65h1.33v5.78a5.65,5.65,0,0,0,.24,1.92,1.84,1.84,0,0,0,.83,1,2.89,2.89,0,0,0,1.45.33,2.76,2.76,0,0,0,2.08-.66,3.82,3.82,0,0,0,.62-2.55Z" style="fill:#f5f500"/><path d="M703.49,20.45v-10h1.12v.94a2.76,2.76,0,0,1,.89-.83,2.46,2.46,0,0,1,1.21-.28,2.87,2.87,0,0,1,1.64.48,2.93,2.93,0,0,1,1.07,1.35A4.92,4.92,0,0,1,709.8,14a4.85,4.85,0,0,1-.4,2,3,3,0,0,1-1.16,1.37,3,3,0,0,1-1.6.48,2.31,2.31,0,0,1-1.1-.26,2.51,2.51,0,0,1-.8-.66v3.53Zm1.11-6.37a3.15,3.15,0,0,0,.57,2.07,1.74,1.74,0,0,0,1.37.67,1.78,1.78,0,0,0,1.41-.69,3.29,3.29,0,0,0,.58-2.15A3.21,3.21,0,0,0,708,11.9a1.72,1.72,0,0,0-1.36-.69,1.77,1.77,0,0,0-1.39.73A3.29,3.29,0,0,0,704.61,14.08Z" style="fill:#f5f500"/><path d="M716,17.67v-.92a2.26,2.26,0,0,1-2,1.08,2.85,2.85,0,0,1-1.6-.48A3.15,3.15,0,0,1,711.24,16a4.62,4.62,0,0,1-.4-2,5.17,5.17,0,0,1,.36-2,2.86,2.86,0,0,1,1.09-1.36,2.9,2.9,0,0,1,1.62-.47,2.42,2.42,0,0,1,2,1V7.65h1.22v10ZM712.1,14a3.15,3.15,0,0,0,.59,2.08,1.77,1.77,0,0,0,1.39.69,1.74,1.74,0,0,0,1.37-.66,3,3,0,0,0,.56-2,3.41,3.41,0,0,0-.57-2.19,1.76,1.76,0,0,0-1.41-.7,1.71,1.71,0,0,0-1.37.67A3.3,3.3,0,0,0,712.1,14Z" style="fill:#f5f500"/><path d="M723.8,16.77a4.59,4.59,0,0,1-1.32.82,3.8,3.8,0,0,1-1.36.24,2.64,2.64,0,0,1-1.84-.58,1.93,1.93,0,0,1-.64-1.49,2,2,0,0,1,.88-1.68,3,3,0,0,1,.88-.4,8.76,8.76,0,0,1,1.09-.18,11.27,11.27,0,0,0,2.2-.42c0-.17,0-.28,0-.32a1.36,1.36,0,0,0-.35-1.06,2.06,2.06,0,0,0-1.4-.42,2.17,2.17,0,0,0-1.28.3,1.86,1.86,0,0,0-.61,1.08l-1.2-.16a3,3,0,0,1,.54-1.25,2.37,2.37,0,0,1,1.09-.73,4.84,4.84,0,0,1,1.65-.26,4.36,4.36,0,0,1,1.51.22,2,2,0,0,1,.85.55,1.92,1.92,0,0,1,.38.84,6.89,6.89,0,0,1,.06,1.13v1.64a17.38,17.38,0,0,0,.08,2.17,2.76,2.76,0,0,0,.31.87H724A2.64,2.64,0,0,1,723.8,16.77ZM723.7,14a9,9,0,0,1-2,.46,4.65,4.65,0,0,0-1.07.25,1.07,1.07,0,0,0-.48.4,1.09,1.09,0,0,0,.2,1.4,1.6,1.6,0,0,0,1.09.33,2.54,2.54,0,0,0,1.27-.31,1.91,1.91,0,0,0,.81-.85,3,3,0,0,0,.2-1.23Z" style="fill:#f5f500"/><path d="M729.54,16.57l.18,1.09a4.58,4.58,0,0,1-.93.11,2.1,2.1,0,0,1-1-.21,1.18,1.18,0,0,1-.52-.56,4.4,4.4,0,0,1-.15-1.45V11.36h-.9v-1h.9V8.61l1.22-.74v2.54h1.24v1H728.3v4.25a2.12,2.12,0,0,0,.07.68.52.52,0,0,0,.21.24.82.82,0,0,0,.42.09A4,4,0,0,0,729.54,16.57Z" style="fill:#f5f500"/><path d="M735.71,15.33l1.27.16a3.1,3.1,0,0,1-1.11,1.73,3.78,3.78,0,0,1-4.6-.37,3.83,3.83,0,0,1-.93-2.75,4,4,0,0,1,.94-2.84,3.19,3.19,0,0,1,2.45-1,3.1,3.1,0,0,1,2.38,1A3.94,3.94,0,0,1,737,14q0,.11,0,.33H731.6a2.79,2.79,0,0,0,.68,1.83,2,2,0,0,0,1.52.64,1.89,1.89,0,0,0,1.16-.36A2.36,2.36,0,0,0,735.71,15.33Zm-4-2h4.05a2.45,2.45,0,0,0-.46-1.37,1.88,1.88,0,0,0-1.52-.71,2,2,0,0,0-1.43.57A2.25,2.25,0,0,0,731.67,13.34Z" style="fill:#f5f500"/><path d="M743.24,17.67v-.92a2.26,2.26,0,0,1-2,1.08,2.85,2.85,0,0,1-1.6-.48A3.15,3.15,0,0,1,738.48,16a4.62,4.62,0,0,1-.4-2,5.17,5.17,0,0,1,.36-2,2.86,2.86,0,0,1,1.09-1.36,2.9,2.9,0,0,1,1.62-.47,2.42,2.42,0,0,1,2,1V7.65h1.22v10ZM739.35,14a3.15,3.15,0,0,0,.59,2.08,1.77,1.77,0,0,0,1.39.69,1.74,1.74,0,0,0,1.37-.66,3,3,0,0,0,.56-2,3.41,3.41,0,0,0-.57-2.19,1.76,1.76,0,0,0-1.41-.7,1.71,1.71,0,0,0-1.37.67A3.3,3.3,0,0,0,739.35,14Z" style="fill:#f5f500"/><path d="M746.66,11.81v-1.4h1.4v1.4Zm0,5.86v-1.4h1.4v1.4Z" style="fill:#f5f500"/><path d="M758.39,17.67h-1.23V9.83a6.4,6.4,0,0,1-1.17.85,8.22,8.22,0,0,1-1.29.64V10.12a7.46,7.46,0,0,0,1.8-1.18,4.64,4.64,0,0,0,1.09-1.34h.79Z" style="fill:#f5f500"/><path d="M765.48,17.67v-2.4h-4.35V14.14l4.57-6.49h1v6.49h1.35v1.13h-1.35v2.4Zm0-3.53V9.62l-3.14,4.52Z" style="fill:#f5f500"/><path d="M770,11.81v-1.4h1.4v1.4Zm0,5.86v-1.4h1.4v1.4Z" style="fill:#f5f500"/><path d="M777.85,17.67h-1.23V9.83a6.32,6.32,0,0,1-1.17.85,8.26,8.26,0,0,1-1.3.64V10.12A7.42,7.42,0,0,0,776,8.94a4.61,4.61,0,0,0,1.09-1.34h.79Z" style="fill:#f5f500"/><path d="M782.89,12.23a2.32,2.32,0,0,1-1.13-.8,2.09,2.09,0,0,1-.37-1.24,2.43,2.43,0,0,1,.79-1.84,3.31,3.31,0,0,1,4.2,0,2.47,2.47,0,0,1,.8,1.86,2,2,0,0,1-.37,1.21,2.3,2.3,0,0,1-1.11.8,2.56,2.56,0,0,1,1.89,2.57,2.88,2.88,0,0,1-.91,2.16,3.7,3.7,0,0,1-4.79,0,2.92,2.92,0,0,1-.91-2.19,2.64,2.64,0,0,1,.5-1.64A2.48,2.48,0,0,1,782.89,12.23Zm-.64,2.54a2.23,2.23,0,0,0,.25,1,1.76,1.76,0,0,0,.74.76,2.16,2.16,0,0,0,1.06.27,2,2,0,0,0,1.46-.57,1.94,1.94,0,0,0,.57-1.44,2,2,0,0,0-.59-1.47,2,2,0,0,0-1.48-.58,2,2,0,0,0-2,2Zm.4-4.63a1.56,1.56,0,0,0,.46,1.16,1.62,1.62,0,0,0,1.19.45,1.59,1.59,0,0,0,1.17-.45,1.48,1.48,0,0,0,.45-1.1,1.54,1.54,0,0,0-.47-1.14,1.59,1.59,0,0,0-1.17-.46,1.61,1.61,0,0,0-1.17.45A1.45,1.45,0,0,0,782.65,10.15Z" style="fill:#f5f500"/><path d="M789.47,11.81v-1.4h1.4v1.4Zm0,5.86v-1.4h1.4v1.4Z" style="fill:#f5f500"/><path d="M792.68,15l1.29-.11a2.32,2.32,0,0,0,.67,1.42,1.81,1.81,0,0,0,1.26.48,2,2,0,0,0,1.5-.67,2.52,2.52,0,0,0,.62-1.78,2.28,2.28,0,0,0-.59-1.66,2.06,2.06,0,0,0-1.55-.61,2.15,2.15,0,0,0-1.07.27,2.09,2.09,0,0,0-.75.7l-1.15-.15,1-5.15h5V9h-4l-.54,2.69A3.26,3.26,0,0,1,796.2,11a3,3,0,0,1,2.21.91,3.18,3.18,0,0,1,.9,2.34,3.65,3.65,0,0,1-.79,2.35,3.18,3.18,0,0,1-2.63,1.22,3.24,3.24,0,0,1-2.23-.77A3,3,0,0,1,792.68,15Z" style="fill:#f5f500"/><path d="M806.85,10.1l-1.22.1a2.32,2.32,0,0,0-.46-1.05,1.63,1.63,0,0,0-1.23-.53,1.69,1.69,0,0,0-1,.33,2.81,2.81,0,0,0-.92,1.24,6.48,6.48,0,0,0-.35,2.32,2.85,2.85,0,0,1,1.09-1,2.93,2.93,0,0,1,1.35-.33,2.79,2.79,0,0,1,2.09.91,3.25,3.25,0,0,1,.86,2.34,3.85,3.85,0,0,1-.41,1.75,3,3,0,0,1-1.12,1.24,3.05,3.05,0,0,1-1.61.43,3.15,3.15,0,0,1-2.51-1.13,5.72,5.72,0,0,1-1-3.73,6.68,6.68,0,0,1,1.07-4.22A3.08,3.08,0,0,1,804,7.6a2.68,2.68,0,0,1,2.84,2.5Zm-5,4.32a2.86,2.86,0,0,0,.27,1.22,2,2,0,0,0,.76.89,1.89,1.89,0,0,0,1,.3,1.73,1.73,0,0,0,1.34-.63,2.47,2.47,0,0,0,.56-1.71,2.32,2.32,0,0,0-.55-1.64,1.82,1.82,0,0,0-1.39-.6,1.9,1.9,0,0,0-1.42.6A2.16,2.16,0,0,0,801.82,14.42Z" style="fill:#f5f500"/><path d="M664.43,375.53l1.61-.14a3.55,3.55,0,0,0,.53,1.59,2.9,2.9,0,0,0,1.3,1,4.91,4.91,0,0,0,2,.38,4.74,4.74,0,0,0,1.72-.29,2.39,2.39,0,0,0,1.11-.8,1.85,1.85,0,0,0,.37-1.1,1.68,1.68,0,0,0-.35-1.06,2.6,2.6,0,0,0-1.16-.76,22.72,22.72,0,0,0-2.29-.63,11.71,11.71,0,0,1-2.49-.8,3.49,3.49,0,0,1-1.38-1.2,2.94,2.94,0,0,1-.45-1.6,3.27,3.27,0,0,1,.55-1.82,3.43,3.43,0,0,1,1.62-1.29,6.14,6.14,0,0,1,2.37-.44A6.46,6.46,0,0,1,672,367a3.64,3.64,0,0,1,1.68,1.36,3.9,3.9,0,0,1,.63,2l-1.63.12a2.64,2.64,0,0,0-.89-1.85,3.47,3.47,0,0,0-2.25-.62,3.61,3.61,0,0,0-2.25.57,1.7,1.7,0,0,0-.71,1.37,1.47,1.47,0,0,0,.5,1.14,6.78,6.78,0,0,0,2.57.92,17,17,0,0,1,2.85.82,3.91,3.91,0,0,1,1.66,1.31,3.2,3.2,0,0,1,.54,1.83,3.5,3.5,0,0,1-.59,1.94,3.88,3.88,0,0,1-1.69,1.42,5.9,5.9,0,0,1-2.48.51,7.41,7.41,0,0,1-2.93-.51,4.11,4.11,0,0,1-1.85-1.53A4.35,4.35,0,0,1,664.43,375.53Z" style="fill:red"/><path d="M680.29,379.67V368.3H676v-1.52h10.21v1.52H682v11.36Z" style="fill:red"/><path d="M685.26,379.67l4.95-12.88H692l5.27,12.88h-1.94l-1.5-3.9h-5.39l-1.41,3.9Zm3.72-5.29h4.37L692,370.81q-.62-1.63-.91-2.67a16.42,16.42,0,0,1-.69,2.46Z" style="fill:red"/><path d="M700.62,379.67V368.3h-4.25v-1.52h10.21v1.52h-4.26v11.36Z" style="fill:red"/><path d="M708.63,379.67V366.78h1.71v12.88Z" style="fill:red"/><path d="M712.82,373.39a7,7,0,0,1,1.72-5,5.86,5.86,0,0,1,4.45-1.81,6.17,6.17,0,0,1,3.22.85,5.57,5.57,0,0,1,2.18,2.38,7.72,7.72,0,0,1,.75,3.46,7.59,7.59,0,0,1-.79,3.51,5.4,5.4,0,0,1-2.24,2.34,6.4,6.4,0,0,1-3.13.8,6.09,6.09,0,0,1-3.25-.88,5.65,5.65,0,0,1-2.17-2.4A7.27,7.27,0,0,1,712.82,373.39Zm1.76,0a5.16,5.16,0,0,0,1.25,3.67,4.37,4.37,0,0,0,6.31,0,5.47,5.47,0,0,0,1.24-3.84,6.6,6.6,0,0,0-.53-2.75,4.09,4.09,0,0,0-1.56-1.82A4.22,4.22,0,0,0,719,368a4.36,4.36,0,0,0-3.12,1.24Q714.58,370.51,714.58,373.42Z" style="fill:red"/><path d="M727.32,379.67V366.78h1.75l6.77,10.12V366.78h1.63v12.88h-1.75L729,369.54v10.13Z" style="fill:red"/><path d="M739.52,375.8v-1.59h4.86v1.59Z" style="fill:red"/><path d="M751.65,379.67h-1.58V369.59a8.18,8.18,0,0,1-1.5,1.09,10.62,10.62,0,0,1-1.67.82V370a9.55,9.55,0,0,0,2.32-1.51,6,6,0,0,0,1.41-1.72h1Z" style="fill:red"/><path d="M760.32,379.67h-1.58V369.59a8.17,8.17,0,0,1-1.5,1.09,10.63,10.63,0,0,1-1.67.82V370a9.55,9.55,0,0,0,2.32-1.51,6,6,0,0,0,1.41-1.72h1Z" style="fill:red"/><path d="M772.59,369.94l-1.57.12a3,3,0,0,0-.6-1.35,2.09,2.09,0,0,0-1.58-.68,2.17,2.17,0,0,0-1.33.42,3.61,3.61,0,0,0-1.18,1.59,8.31,8.31,0,0,0-.45,3,3.67,3.67,0,0,1,1.4-1.29,3.75,3.75,0,0,1,1.73-.42,3.59,3.59,0,0,1,2.69,1.16,4.18,4.18,0,0,1,1.11,3,5,5,0,0,1-.52,2.25,3.81,3.81,0,0,1-1.44,1.6,3.92,3.92,0,0,1-2.07.55,4.05,4.05,0,0,1-3.22-1.45q-1.25-1.45-1.25-4.79,0-3.74,1.38-5.43a4,4,0,0,1,3.24-1.48,3.45,3.45,0,0,1,3.66,3.21Zm-6.46,5.55a3.67,3.67,0,0,0,.35,1.56,2.59,2.59,0,0,0,1,1.14,2.43,2.43,0,0,0,1.31.39,2.23,2.23,0,0,0,1.72-.81,3.18,3.18,0,0,0,.72-2.2,3,3,0,0,0-.71-2.1,2.34,2.34,0,0,0-1.79-.77,2.44,2.44,0,0,0-1.82.77A2.77,2.77,0,0,0,766.13,375.49Z" style="fill:red"/><path d="M774.39,373.31a11.79,11.79,0,0,1,.47-3.68,4.58,4.58,0,0,1,1.4-2.15,3.57,3.57,0,0,1,2.33-.76,3.81,3.81,0,0,1,1.82.42,3.48,3.48,0,0,1,1.29,1.2,6.46,6.46,0,0,1,.8,1.92,12.74,12.74,0,0,1,.29,3,11.83,11.83,0,0,1-.46,3.66,4.58,4.58,0,0,1-1.39,2.15,3.57,3.57,0,0,1-2.34.76,3.53,3.53,0,0,1-2.93-1.34Q774.39,376.94,774.39,373.31Zm1.63,0q0,3.17.74,4.22a2.12,2.12,0,0,0,3.67,0q.74-1.05.74-4.22t-.74-4.23a2.21,2.21,0,0,0-1.85-1,2,2,0,0,0-1.74.92Q776,370.14,776,373.31Z" style="fill:red"/><path d="M784.22,375.8v-1.59h4.86v1.59Z" style="fill:red"/><path d="M796.35,379.67h-1.58V369.59a8.18,8.18,0,0,1-1.5,1.09,10.62,10.62,0,0,1-1.67.82V370a9.55,9.55,0,0,0,2.32-1.51,6,6,0,0,0,1.41-1.72h1Z" style="fill:red"/><path d="M800.4,373.31a11.79,11.79,0,0,1,.47-3.68,4.58,4.58,0,0,1,1.4-2.15,3.57,3.57,0,0,1,2.33-.76,3.81,3.81,0,0,1,1.82.42,3.48,3.48,0,0,1,1.29,1.2,6.46,6.46,0,0,1,.8,1.92,12.74,12.74,0,0,1,.29,3,11.83,11.83,0,0,1-.46,3.66,4.58,4.58,0,0,1-1.39,2.15,3.57,3.57,0,0,1-2.34.76,3.53,3.53,0,0,1-2.93-1.34Q800.4,376.94,800.4,373.31Zm1.63,0q0,3.17.74,4.22a2.12,2.12,0,0,0,3.67,0q.74-1.05.74-4.22t-.74-4.23a2.21,2.21,0,0,0-1.85-1,2,2,0,0,0-1.74.92Q802,370.14,802,373.31Z" style="fill:red"/><path d="M577.65,55.67l3.57-9.31h1.33l3.81,9.31H585l-1.08-2.82H580l-1,2.82Zm2.68-3.82h3.16l-1-2.58q-.44-1.17-.66-1.93a11.83,11.83,0,0,1-.5,1.78Z" style="fill:#00fb00"/><path d="M594,52.4l1.23.31A4.15,4.15,0,0,1,593.82,55a3.84,3.84,0,0,1-2.46.8,4.41,4.41,0,0,1-2.45-.61,3.82,3.82,0,0,1-1.44-1.77,6.33,6.33,0,0,1-.49-2.49,5.47,5.47,0,0,1,.56-2.54,3.8,3.8,0,0,1,1.58-1.64,4.61,4.61,0,0,1,2.26-.56,3.82,3.82,0,0,1,2.35.71,3.69,3.69,0,0,1,1.33,2l-1.21.29a2.87,2.87,0,0,0-.94-1.48,2.5,2.5,0,0,0-1.55-.46,3,3,0,0,0-1.79.51,2.71,2.71,0,0,0-1,1.38,5.54,5.54,0,0,0-.29,1.79A5.68,5.68,0,0,0,588.6,53a2.58,2.58,0,0,0,1.08,1.32,3,3,0,0,0,1.58.44,2.65,2.65,0,0,0,1.75-.6A3.06,3.06,0,0,0,594,52.4Z" style="fill:#00fb00"/><path d="M599.1,55.67V47.46H596v-1.1h7.38v1.1h-3.08v8.21Z" style="fill:#00fb00"/><path d="M610.78,46.36H612v5.38a6.35,6.35,0,0,1-.32,2.23,2.72,2.72,0,0,1-1.14,1.34,4.06,4.06,0,0,1-2.17.52,4.47,4.47,0,0,1-2.14-.45,2.58,2.58,0,0,1-1.19-1.3,6.21,6.21,0,0,1-.36-2.33V46.36h1.23v5.37a5.26,5.26,0,0,0,.22,1.79,1.71,1.71,0,0,0,.78.89,2.68,2.68,0,0,0,1.34.31,2.57,2.57,0,0,0,1.94-.62,3.54,3.54,0,0,0,.58-2.37Z" style="fill:#00fb00"/><path d="M613,55.67l3.57-9.31h1.33l3.81,9.31h-1.4l-1.09-2.82h-3.89l-1,2.82Zm2.69-3.82h3.15l-1-2.58q-.45-1.17-.66-1.93a11.83,11.83,0,0,1-.5,1.78Z" style="fill:#00fb00"/><path d="M622.68,55.67V46.36h1.23v8.21h4.58v1.1Z" style="fill:#00fb00"/><path d="M632.71,51.13A5.06,5.06,0,0,1,634,47.51a4.23,4.23,0,0,1,3.21-1.31,4.45,4.45,0,0,1,2.32.62,4,4,0,0,1,1.58,1.72,5.58,5.58,0,0,1,.54,2.5,5.48,5.48,0,0,1-.57,2.53,3.9,3.9,0,0,1-1.62,1.69,4.62,4.62,0,0,1-2.26.57,4.4,4.4,0,0,1-2.35-.63,4.09,4.09,0,0,1-1.57-1.73A5.25,5.25,0,0,1,632.71,51.13Zm1.27,0a3.72,3.72,0,0,0,.91,2.65,3.16,3.16,0,0,0,4.56,0,4,4,0,0,0,.9-2.77,4.77,4.77,0,0,0-.38-2,3,3,0,0,0-1.12-1.31,3.05,3.05,0,0,0-1.66-.47,3.15,3.15,0,0,0-2.25.9A4,4,0,0,0,634,51.15Z" style="fill:#00fb00"/><path d="M649.31,46.36h1.23v5.38a6.38,6.38,0,0,1-.32,2.23,2.72,2.72,0,0,1-1.15,1.34,4.06,4.06,0,0,1-2.17.52,4.47,4.47,0,0,1-2.14-.45,2.57,2.57,0,0,1-1.19-1.3,6.23,6.23,0,0,1-.36-2.33V46.36h1.23v5.37a5.23,5.23,0,0,0,.23,1.79,1.71,1.71,0,0,0,.77.89,2.69,2.69,0,0,0,1.34.31,2.56,2.56,0,0,0,1.94-.62,3.55,3.55,0,0,0,.58-2.37Z" style="fill:#00fb00"/><path d="M655,55.67V47.46h-3.07v-1.1h7.38v1.1h-3.08v8.21Z" style="fill:#00fb00"/><path d="M783.51,55.67h-1.14V48.39a5.92,5.92,0,0,1-1.08.79,7.74,7.74,0,0,1-1.2.59v-1.1a6.91,6.91,0,0,0,1.68-1.09,4.29,4.29,0,0,0,1-1.24h.74Z" style="fill:#00fb00"/><path d="M792.37,48.64l-1.14.09a2.16,2.16,0,0,0-.43-1,1.51,1.51,0,0,0-1.14-.49,1.57,1.57,0,0,0-1,.3,2.6,2.6,0,0,0-.85,1.15,6,6,0,0,0-.32,2.15,2.65,2.65,0,0,1,1-.93,2.71,2.71,0,0,1,1.25-.3,2.59,2.59,0,0,1,1.95.84,3,3,0,0,1,.8,2.17,3.57,3.57,0,0,1-.38,1.63,2.75,2.75,0,0,1-1,1.15,2.83,2.83,0,0,1-1.5.4,2.93,2.93,0,0,1-2.33-1.05,5.3,5.3,0,0,1-.9-3.46,6.2,6.2,0,0,1,1-3.92,2.86,2.86,0,0,1,2.34-1.07,2.49,2.49,0,0,1,2.64,2.32Zm-4.67,4a2.65,2.65,0,0,0,.25,1.13,1.87,1.87,0,0,0,.7.82,1.75,1.75,0,0,0,.95.28,1.61,1.61,0,0,0,1.24-.58,2.3,2.3,0,0,0,.52-1.59,2.15,2.15,0,0,0-.51-1.52,1.69,1.69,0,0,0-1.29-.56,1.76,1.76,0,0,0-1.31.56A2,2,0,0,0,787.7,52.65Z" style="fill:#00fb00"/><path d="M793.67,53.23l1.2-.1a2.16,2.16,0,0,0,.62,1.32,1.68,1.68,0,0,0,1.17.44,1.82,1.82,0,0,0,1.4-.62,2.34,2.34,0,0,0,.57-1.65,2.12,2.12,0,0,0-.55-1.54,1.91,1.91,0,0,0-1.44-.56,2,2,0,0,0-1,.25,1.94,1.94,0,0,0-.7.65l-1.07-.14.9-4.78h4.63v1.09h-3.71l-.5,2.5a3,3,0,0,1,1.76-.58,2.78,2.78,0,0,1,2.06.84,3,3,0,0,1,.84,2.17,3.39,3.39,0,0,1-.74,2.18,3,3,0,0,1-2.44,1.13,3,3,0,0,1-2.07-.71A2.77,2.77,0,0,1,793.67,53.23Z" style="fill:#00fb00"/><path d="M308.35,35.67l3.57-9.31h1.33l3.81,9.31h-1.4l-1.08-2.82h-3.89l-1,2.82ZM311,31.85h3.16l-1-2.58q-.44-1.17-.66-1.93a11.83,11.83,0,0,1-.5,1.78Z" style="fill:red"/><path d="M317.42,33l1.11-.15a2.39,2.39,0,0,0,.4,1.46,1.26,1.26,0,0,0,1,.39,1.46,1.46,0,0,0,.8-.21,1.09,1.09,0,0,0,.46-.58,3.85,3.85,0,0,0,.13-1.17V26.36h1.23V32.7a4.6,4.6,0,0,1-.28,1.81,2,2,0,0,1-.89,1,2.94,2.94,0,0,1-1.44.34,2.43,2.43,0,0,1-1.87-.7A2.91,2.91,0,0,1,317.42,33Z" style="fill:red"/><path d="M330.08,34.57v1.1h-6.15a2,2,0,0,1,.13-.79,4.2,4.2,0,0,1,.75-1.24,11.65,11.65,0,0,1,1.49-1.41,12.68,12.68,0,0,0,2.05-2,2.36,2.36,0,0,0,.53-1.37,1.53,1.53,0,0,0-.49-1.15,1.75,1.75,0,0,0-1.27-.47,1.78,1.78,0,0,0-1.32.5,1.87,1.87,0,0,0-.5,1.37L324.15,29a2.89,2.89,0,0,1,.91-2,3.1,3.1,0,0,1,2.11-.69,3,3,0,0,1,2.12.74,2.44,2.44,0,0,1,.78,1.84,2.79,2.79,0,0,1-.23,1.1,4.28,4.28,0,0,1-.76,1.14,18.55,18.55,0,0,1-1.76,1.64q-1,.86-1.32,1.17a3.71,3.71,0,0,0-.48.62Z" style="fill:red"/><path d="M331.31,31.08a8.55,8.55,0,0,1,.34-2.66,3.31,3.31,0,0,1,1-1.55,2.58,2.58,0,0,1,1.68-.55,2.75,2.75,0,0,1,1.31.3,2.51,2.51,0,0,1,.93.87,4.68,4.68,0,0,1,.58,1.38,9.19,9.19,0,0,1,.21,2.2,8.56,8.56,0,0,1-.34,2.64,3.3,3.3,0,0,1-1,1.55,2.58,2.58,0,0,1-1.69.55,2.55,2.55,0,0,1-2.11-1A6.14,6.14,0,0,1,331.31,31.08Zm1.17,0a5.84,5.84,0,0,0,.54,3.05,1.53,1.53,0,0,0,2.65,0,5.84,5.84,0,0,0,.54-3,5.84,5.84,0,0,0-.54-3.05,1.59,1.59,0,0,0-1.34-.76,1.47,1.47,0,0,0-1.26.67A5.91,5.91,0,0,0,332.48,31.08Z" style="fill:red"/><path d="M338.54,31.08a8.55,8.55,0,0,1,.34-2.66,3.31,3.31,0,0,1,1-1.55,2.58,2.58,0,0,1,1.69-.55,2.75,2.75,0,0,1,1.31.3,2.51,2.51,0,0,1,.93.87,4.65,4.65,0,0,1,.58,1.38,9.14,9.14,0,0,1,.21,2.2,8.53,8.53,0,0,1-.34,2.64,3.29,3.29,0,0,1-1,1.55,2.83,2.83,0,0,1-3.8-.42A6.13,6.13,0,0,1,338.54,31.08Zm1.17,0a5.84,5.84,0,0,0,.54,3.05,1.53,1.53,0,0,0,2.65,0,5.84,5.84,0,0,0,.54-3A5.84,5.84,0,0,0,342.9,28a1.59,1.59,0,0,0-1.34-.76,1.46,1.46,0,0,0-1.26.67A5.9,5.9,0,0,0,339.71,31.08Z" style="fill:red"/><path d="M346.23,35.67V26.36h3.21a7.78,7.78,0,0,1,1.66.13,3.15,3.15,0,0,1,1.37.67,3.79,3.79,0,0,1,1.1,1.59,6.25,6.25,0,0,1,.37,2.21,6.54,6.54,0,0,1-.25,1.88A4.59,4.59,0,0,1,353,34.2a3.39,3.39,0,0,1-.85.84,3.46,3.46,0,0,1-1.11.47,6.33,6.33,0,0,1-1.49.16Zm1.23-1.1h2a4.82,4.82,0,0,0,1.44-.17,2.06,2.06,0,0,0,.83-.48,2.94,2.94,0,0,0,.68-1.18,5.75,5.75,0,0,0,.24-1.79,4.32,4.32,0,0,0-.48-2.24A2.41,2.41,0,0,0,351,27.65a4.82,4.82,0,0,0-1.59-.19h-2Z" style="fill:red"/><path d="M357.49,35.67l3.57-9.31h1.33l3.81,9.31h-1.4l-1.09-2.82h-3.89l-1,2.82Zm2.69-3.82h3.15l-1-2.58q-.45-1.17-.66-1.93a12,12,0,0,1-.5,1.78Z" style="fill:red"/><path d="M366.77,32.68l1.16-.1a2.56,2.56,0,0,0,.38,1.15,2.09,2.09,0,0,0,.94.72,3.56,3.56,0,0,0,1.43.28,3.42,3.42,0,0,0,1.24-.21,1.72,1.72,0,0,0,.8-.57,1.33,1.33,0,0,0,.26-.8,1.21,1.21,0,0,0-.25-.76,1.87,1.87,0,0,0-.84-.55,16.27,16.27,0,0,0-1.66-.45,8.48,8.48,0,0,1-1.8-.58,2.52,2.52,0,0,1-1-.87,2.12,2.12,0,0,1-.33-1.16,2.36,2.36,0,0,1,.4-1.32,2.48,2.48,0,0,1,1.17-.93,4.43,4.43,0,0,1,1.71-.32,4.66,4.66,0,0,1,1.83.33,2.63,2.63,0,0,1,1.21,1A2.82,2.82,0,0,1,373.9,29l-1.18.09a1.91,1.91,0,0,0-.64-1.33,2.51,2.51,0,0,0-1.62-.45,2.6,2.6,0,0,0-1.63.41,1.23,1.23,0,0,0-.51,1,1.06,1.06,0,0,0,.36.83,4.9,4.9,0,0,0,1.86.66,12.28,12.28,0,0,1,2.06.59,2.82,2.82,0,0,1,1.2.95,2.31,2.31,0,0,1,.39,1.32,2.52,2.52,0,0,1-.43,1.4,2.8,2.8,0,0,1-1.22,1,4.26,4.26,0,0,1-1.79.36,5.34,5.34,0,0,1-2.12-.37,3,3,0,0,1-1.34-1.11A3.14,3.14,0,0,1,366.77,32.68Z" style="fill:red"/><path d="M375.44,32.68l1.16-.1a2.57,2.57,0,0,0,.38,1.15,2.11,2.11,0,0,0,.94.72,3.55,3.55,0,0,0,1.43.28,3.43,3.43,0,0,0,1.24-.21,1.73,1.73,0,0,0,.8-.57,1.33,1.33,0,0,0,.26-.8,1.21,1.21,0,0,0-.25-.76,1.88,1.88,0,0,0-.84-.55,16.48,16.48,0,0,0-1.66-.45,8.45,8.45,0,0,1-1.8-.58,2.52,2.52,0,0,1-1-.87,2.13,2.13,0,0,1-.33-1.16,2.36,2.36,0,0,1,.4-1.32,2.47,2.47,0,0,1,1.17-.93,4.44,4.44,0,0,1,1.71-.32,4.65,4.65,0,0,1,1.82.33,2.63,2.63,0,0,1,1.22,1,2.8,2.8,0,0,1,.46,1.47l-1.18.09a1.9,1.9,0,0,0-.64-1.33,2.51,2.51,0,0,0-1.62-.45,2.61,2.61,0,0,0-1.63.41,1.23,1.23,0,0,0-.51,1,1.06,1.06,0,0,0,.36.83,4.89,4.89,0,0,0,1.86.66,12.27,12.27,0,0,1,2.06.59,2.82,2.82,0,0,1,1.2.95,2.31,2.31,0,0,1,.39,1.32,2.53,2.53,0,0,1-.42,1.4,2.81,2.81,0,0,1-1.22,1,4.26,4.26,0,0,1-1.79.36,5.35,5.35,0,0,1-2.12-.37,3,3,0,0,1-1.34-1.11A3.15,3.15,0,0,1,375.44,32.68Z" style="fill:red"/><path d="M384.55,35.67V26.36h6.73v1.1h-5.5v2.85h5.15V31.4h-5.15v3.17h5.71v1.1Z" style="fill:red"/><path d="M393.16,35.67V26.36H395l2.2,6.59q.3.92.44,1.38.16-.51.5-1.49l2.23-6.47H402v9.31h-1.19V27.88l-2.71,7.79H397l-2.69-7.92v7.92Z" style="fill:red"/><path d="M404,35.67V26.36h3.49a4.33,4.33,0,0,1,1.71.28,2.21,2.21,0,0,1,1,.87,2.29,2.29,0,0,1,.37,1.23,2.11,2.11,0,0,1-.32,1.12,2.31,2.31,0,0,1-1,.85,2.43,2.43,0,0,1,1.3.84A2.26,2.26,0,0,1,411,33a2.72,2.72,0,0,1-.28,1.22,2.35,2.35,0,0,1-.68.87,2.86,2.86,0,0,1-1,.46,6.2,6.2,0,0,1-1.5.16Zm1.23-5.4h2a4.5,4.5,0,0,0,1.17-.11,1.3,1.3,0,0,0,.71-.46,1.34,1.34,0,0,0,.24-.81,1.49,1.49,0,0,0-.22-.82,1.12,1.12,0,0,0-.63-.48,5.28,5.28,0,0,0-1.42-.13h-1.86Zm0,4.3h2.32a5.32,5.32,0,0,0,.84,0,2,2,0,0,0,.71-.25,1.35,1.35,0,0,0,.47-.52,1.61,1.61,0,0,0,.18-.78,1.55,1.55,0,0,0-.27-.9,1.41,1.41,0,0,0-.74-.54,4.57,4.57,0,0,0-1.36-.16h-2.15Z" style="fill:red"/><path d="M412.65,35.67V26.36h1.23v8.21h4.58v1.1Z" style="fill:red"/><path d="M421.59,35.67V31.72L418,26.36h1.5l1.83,2.81q.51.79.95,1.57.42-.73,1-1.64l1.8-2.74h1.43l-3.71,5.36v3.94Z" style="fill:red"/><path d="M430.27,35.67V34.52l4.77-6q.51-.64,1-1.1h-5.19v-1.1h6.67v1.1l-5.22,6.46-.56.65h5.94v1.1Z" style="fill:red"/><path d="M438.58,31.13a5.06,5.06,0,0,1,1.24-3.63A4.23,4.23,0,0,1,443,26.2a4.46,4.46,0,0,1,2.32.62,4,4,0,0,1,1.58,1.72,5.58,5.58,0,0,1,.54,2.5,5.48,5.48,0,0,1-.57,2.53,3.9,3.9,0,0,1-1.62,1.69,4.63,4.63,0,0,1-2.26.57,4.4,4.4,0,0,1-2.35-.63,4.09,4.09,0,0,1-1.57-1.73A5.25,5.25,0,0,1,438.58,31.13Zm1.27,0a3.72,3.72,0,0,0,.91,2.65,3.15,3.15,0,0,0,4.56,0,4,4,0,0,0,.9-2.77,4.75,4.75,0,0,0-.38-2,3,3,0,0,0-1.12-1.31,3,3,0,0,0-1.66-.47,3.15,3.15,0,0,0-2.25.9A4,4,0,0,0,439.85,31.15Z" style="fill:red"/><path d="M449.05,35.67V26.36h1.26l4.89,7.31V26.36h1.18v9.31h-1.26l-4.89-7.31v7.31Z" style="fill:red"/><path d="M458.48,35.67V26.36h6.73v1.1h-5.5v2.85h5.15V31.4h-5.15v3.17h5.71v1.1Z" style="fill:red"/><path d="M476.28,34.57v1.1h-6.15a2,2,0,0,1,.13-.79,4.22,4.22,0,0,1,.75-1.24,11.73,11.73,0,0,1,1.5-1.41,12.71,12.71,0,0,0,2-2,2.36,2.36,0,0,0,.53-1.37,1.53,1.53,0,0,0-.49-1.15,1.75,1.75,0,0,0-1.27-.47,1.78,1.78,0,0,0-1.32.5,1.87,1.87,0,0,0-.5,1.37L470.34,29a2.9,2.9,0,0,1,.91-2,3.1,3.1,0,0,1,2.11-.69,3,3,0,0,1,2.12.74,2.44,2.44,0,0,1,.78,1.84A2.79,2.79,0,0,1,476,30a4.28,4.28,0,0,1-.76,1.14,18.43,18.43,0,0,1-1.76,1.64q-1,.86-1.32,1.17a3.76,3.76,0,0,0-.48.62Z" style="fill:red"/><path d="M352.92,55.67V47.46h-3.07v-1.1h7.38v1.1h-3.08v8.21Z" style="fill:red"/><path d="M357.87,47.67V46.36H359v1.31Zm0,8V48.93H359v6.74Z" style="fill:red"/><path d="M360.75,55.67V48.93h1v.95a2.38,2.38,0,0,1,2-1.1,2.22,2.22,0,0,1,1.23.31,1.67,1.67,0,0,1,.68.87,2.42,2.42,0,0,1,2.08-1.18,2,2,0,0,1,1.54.56,2.37,2.37,0,0,1,.54,1.71v4.63h-1.14V51.42a3.12,3.12,0,0,0-.11-1,1,1,0,0,0-.4-.49,1.26,1.26,0,0,0-.69-.18,1.6,1.6,0,0,0-1.18.47,2.09,2.09,0,0,0-.47,1.51v3.92h-1.14V51.29a1.92,1.92,0,0,0-.28-1.14,1.06,1.06,0,0,0-.91-.38,1.66,1.66,0,0,0-.89.25,1.44,1.44,0,0,0-.59.74,4.17,4.17,0,0,0-.18,1.41v3.5Z" style="fill:red"/><path d="M376.2,53.5l1.18.15a2.88,2.88,0,0,1-1,1.61,3.51,3.51,0,0,1-4.28-.34,3.56,3.56,0,0,1-.87-2.55,3.73,3.73,0,0,1,.88-2.64,3,3,0,0,1,2.27-.94,2.88,2.88,0,0,1,2.21.92,3.65,3.65,0,0,1,.86,2.59q0,.1,0,.3h-5a2.59,2.59,0,0,0,.63,1.7,1.87,1.87,0,0,0,1.41.59,1.75,1.75,0,0,0,1.07-.33A2.19,2.19,0,0,0,376.2,53.5Zm-3.75-1.85h3.76a2.28,2.28,0,0,0-.43-1.28,1.75,1.75,0,0,0-1.42-.66,1.82,1.82,0,0,0-1.32.53A2.09,2.09,0,0,0,372.45,51.65Z" style="fill:red"/><path d="M379.13,50.23v-1.3h1.3v1.3Zm0,5.44v-1.3h1.3v1.3Z" style="fill:red"/><path d="M390,55.67h-1.14V48.39a5.86,5.86,0,0,1-1.08.79,7.65,7.65,0,0,1-1.2.59v-1.1a6.88,6.88,0,0,0,1.68-1.09,4.29,4.29,0,0,0,1-1.24H390Z" style="fill:red"/><path d="M396.61,55.67V53.44h-4v-1l4.25-6h.93v6H399v1h-1.26v2.23Zm0-3.28V48.2l-2.91,4.2Z" style="fill:red"/><path d="M400.81,50.23v-1.3h1.3v1.3Zm0,5.44v-1.3h1.3v1.3Z" style="fill:red"/><path d="M408.09,55.67H407V48.39a5.85,5.85,0,0,1-1.08.79,7.7,7.7,0,0,1-1.2.59v-1.1a6.88,6.88,0,0,0,1.68-1.09,4.28,4.28,0,0,0,1-1.24h.74Z" style="fill:red"/><path d="M412.78,50.62a2.15,2.15,0,0,1-1.05-.74,1.94,1.94,0,0,1-.34-1.16,2.26,2.26,0,0,1,.73-1.71,3.07,3.07,0,0,1,3.9,0,2.29,2.29,0,0,1,.74,1.72,1.9,1.9,0,0,1-.34,1.13,2.14,2.14,0,0,1-1,.74A2.38,2.38,0,0,1,417.14,53a2.67,2.67,0,0,1-.84,2,3.44,3.44,0,0,1-4.44,0,2.71,2.71,0,0,1-.84-2,2.46,2.46,0,0,1,.46-1.52A2.3,2.3,0,0,1,412.78,50.62Zm-.6,2.36a2.07,2.07,0,0,0,.23.95,1.64,1.64,0,0,0,.69.71,2,2,0,0,0,1,.25,1.84,1.84,0,0,0,1.35-.53A1.8,1.8,0,0,0,416,53a1.83,1.83,0,0,0-.55-1.36,1.88,1.88,0,0,0-1.37-.54A1.82,1.82,0,0,0,412.18,53Zm.37-4.3a1.45,1.45,0,0,0,.42,1.08,1.51,1.51,0,0,0,1.1.42,1.48,1.48,0,0,0,1.08-.42,1.37,1.37,0,0,0,.42-1,1.43,1.43,0,0,0-.43-1.06,1.6,1.6,0,0,0-2.17,0A1.35,1.35,0,0,0,412.55,48.68Z" style="fill:red"/><path d="M418.88,50.23v-1.3h1.3v1.3Zm0,5.44v-1.3h1.3v1.3Z" style="fill:red"/><path d="M421.86,53.23l1.2-.1a2.15,2.15,0,0,0,.62,1.32,1.68,1.68,0,0,0,1.17.44,1.82,1.82,0,0,0,1.4-.62,2.34,2.34,0,0,0,.57-1.65,2.12,2.12,0,0,0-.55-1.54,1.92,1.92,0,0,0-1.44-.56,2,2,0,0,0-1,.25,1.94,1.94,0,0,0-.7.65l-1.07-.14.9-4.78h4.63v1.09h-3.71l-.5,2.5a3,3,0,0,1,1.76-.58,2.78,2.78,0,0,1,2.06.84,3,3,0,0,1,.84,2.17,3.39,3.39,0,0,1-.74,2.18,3,3,0,0,1-2.44,1.13,3,3,0,0,1-2.07-.71A2.78,2.78,0,0,1,421.86,53.23Z" style="fill:red"/><path d="M429.17,47.58v-1.1h6v.89a12.68,12.68,0,0,0-1.76,2.51,15.35,15.35,0,0,0-1.35,3.22,11.93,11.93,0,0,0-.44,2.56h-1.17A11.44,11.44,0,0,1,430.9,53a13.92,13.92,0,0,1,1.18-3,12.86,12.86,0,0,1,1.64-2.43Z" style="fill:red"/><rect x="212" y="95" width="120" height="18" style="fill:red"/><rect x="366" y="190" width="120" height="18" style="fill:red"/><rect x="520" y="95" width="120" height="18" style="fill:red"/><rect x="675" y="95" width="120" height="18" style="fill:red"/><rect y="346" width="812" height="111"/><path d="M664.43,445.53l1.61-.14a3.55,3.55,0,0,0,.53,1.59,2.9,2.9,0,0,0,1.3,1,4.91,4.91,0,0,0,2,.38,4.74,4.74,0,0,0,1.72-.29,2.39,2.39,0,0,0,1.11-.8,1.85,1.85,0,0,0,.37-1.1,1.68,1.68,0,0,0-.35-1.06,2.6,2.6,0,0,0-1.16-.76,22.72,22.72,0,0,0-2.29-.63,11.71,11.71,0,0,1-2.49-.8,3.49,3.49,0,0,1-1.38-1.2,2.94,2.94,0,0,1-.45-1.6,3.27,3.27,0,0,1,.55-1.82,3.43,3.43,0,0,1,1.62-1.29,6.14,6.14,0,0,1,2.37-.44A6.46,6.46,0,0,1,672,437a3.64,3.64,0,0,1,1.68,1.36,3.9,3.9,0,0,1,.63,2l-1.63.12a2.64,2.64,0,0,0-.89-1.85,3.47,3.47,0,0,0-2.25-.62,3.61,3.61,0,0,0-2.25.57,1.7,1.7,0,0,0-.71,1.37,1.47,1.47,0,0,0,.5,1.14,6.78,6.78,0,0,0,2.57.92,17,17,0,0,1,2.85.82,3.91,3.91,0,0,1,1.66,1.31,3.2,3.2,0,0,1,.54,1.83,3.5,3.5,0,0,1-.59,1.94,3.88,3.88,0,0,1-1.69,1.42,5.9,5.9,0,0,1-2.48.51,7.41,7.41,0,0,1-2.93-.51,4.11,4.11,0,0,1-1.85-1.53A4.35,4.35,0,0,1,664.43,445.53Z" style="fill:red"/><path d="M680.29,449.67V438.3H676v-1.52h10.21v1.52H682v11.36Z" style="fill:red"/><path d="M685.26,449.67l4.95-12.88H692l5.27,12.88h-1.94l-1.5-3.9h-5.39l-1.41,3.9Zm3.72-5.29h4.37L692,440.81q-.62-1.63-.91-2.67a16.42,16.42,0,0,1-.69,2.46Z" style="fill:red"/><path d="M700.62,449.67V438.3h-4.25v-1.52h10.21v1.52h-4.26v11.36Z" style="fill:red"/><path d="M708.63,449.67V436.78h1.71v12.88Z" style="fill:red"/><path d="M712.82,443.39a7,7,0,0,1,1.72-5,5.86,5.86,0,0,1,4.45-1.81,6.17,6.17,0,0,1,3.22.85,5.57,5.57,0,0,1,2.18,2.38,7.72,7.72,0,0,1,.75,3.46,7.59,7.59,0,0,1-.79,3.51,5.4,5.4,0,0,1-2.24,2.34,6.4,6.4,0,0,1-3.13.8,6.09,6.09,0,0,1-3.25-.88,5.65,5.65,0,0,1-2.17-2.4A7.27,7.27,0,0,1,712.82,443.39Zm1.76,0a5.16,5.16,0,0,0,1.25,3.67,4.37,4.37,0,0,0,6.31,0,5.47,5.47,0,0,0,1.24-3.84,6.6,6.6,0,0,0-.53-2.75,4.09,4.09,0,0,0-1.56-1.82A4.22,4.22,0,0,0,719,438a4.36,4.36,0,0,0-3.12,1.24Q714.58,440.51,714.58,443.42Z" style="fill:red"/><path d="M727.32,449.67V436.78h1.75l6.77,10.12V436.78h1.63v12.88h-1.75L729,439.54v10.13Z" style="fill:red"/><path d="M739.52,445.8v-1.59h4.86v1.59Z" style="fill:red"/><path d="M751.65,449.67h-1.58V439.59a8.18,8.18,0,0,1-1.5,1.09,10.62,10.62,0,0,1-1.67.82V440a9.55,9.55,0,0,0,2.32-1.51,6,6,0,0,0,1.41-1.72h1Z" style="fill:red"/><path d="M760.32,449.67h-1.58V439.59a8.17,8.17,0,0,1-1.5,1.09,10.63,10.63,0,0,1-1.67.82V440a9.55,9.55,0,0,0,2.32-1.51,6,6,0,0,0,1.41-1.72h1Z" style="fill:red"/><path d="M772.59,439.94l-1.57.12a3,3,0,0,0-.6-1.35,2.09,2.09,0,0,0-1.58-.68,2.17,2.17,0,0,0-1.33.42,3.61,3.61,0,0,0-1.18,1.59,8.31,8.31,0,0,0-.45,3,3.67,3.67,0,0,1,1.4-1.29,3.75,3.75,0,0,1,1.73-.42,3.59,3.59,0,0,1,2.69,1.16,4.18,4.18,0,0,1,1.11,3,5,5,0,0,1-.52,2.25,3.81,3.81,0,0,1-1.44,1.6,3.92,3.92,0,0,1-2.07.55,4.05,4.05,0,0,1-3.22-1.45q-1.25-1.45-1.25-4.79,0-3.74,1.38-5.43a4,4,0,0,1,3.24-1.48,3.45,3.45,0,0,1,3.66,3.21Zm-6.46,5.55a3.67,3.67,0,0,0,.35,1.56,2.59,2.59,0,0,0,1,1.14,2.43,2.43,0,0,0,1.31.39,2.23,2.23,0,0,0,1.72-.81,3.18,3.18,0,0,0,.72-2.2,3,3,0,0,0-.71-2.1,2.34,2.34,0,0,0-1.79-.77,2.44,2.44,0,0,0-1.82.77A2.77,2.77,0,0,0,766.13,445.49Z" style="fill:red"/><path d="M774.39,443.31a11.79,11.79,0,0,1,.47-3.68,4.58,4.58,0,0,1,1.4-2.15,3.57,3.57,0,0,1,2.33-.76,3.81,3.81,0,0,1,1.82.42,3.48,3.48,0,0,1,1.29,1.2,6.46,6.46,0,0,1,.8,1.92,12.74,12.74,0,0,1,.29,3,11.83,11.83,0,0,1-.46,3.66,4.58,4.58,0,0,1-1.39,2.15,3.57,3.57,0,0,1-2.34.76,3.53,3.53,0,0,1-2.93-1.34Q774.39,446.94,774.39,443.31Zm1.63,0q0,3.17.74,4.22a2.12,2.12,0,0,0,3.67,0q.74-1.05.74-4.22t-.74-4.23a2.21,2.21,0,0,0-1.85-1,2,2,0,0,0-1.74.92Q776,440.14,776,443.31Z" style="fill:red"/><path d="M784.22,445.8v-1.59h4.86v1.59Z" style="fill:red"/><path d="M796.35,449.67h-1.58V439.59a8.18,8.18,0,0,1-1.5,1.09,10.62,10.62,0,0,1-1.67.82V440a9.55,9.55,0,0,0,2.32-1.51,6,6,0,0,0,1.41-1.72h1Z" style="fill:red"/><path d="M800.4,443.31a11.79,11.79,0,0,1,.47-3.68,4.58,4.58,0,0,1,1.4-2.15,3.57,3.57,0,0,1,2.33-.76,3.81,3.81,0,0,1,1.82.42,3.48,3.48,0,0,1,1.29,1.2,6.46,6.46,0,0,1,.8,1.92,12.74,12.74,0,0,1,.29,3,11.83,11.83,0,0,1-.46,3.66,4.58,4.58,0,0,1-1.39,2.15,3.57,3.57,0,0,1-2.34.76,3.53,3.53,0,0,1-2.93-1.34Q800.4,446.94,800.4,443.31Zm1.63,0q0,3.17.74,4.22a2.12,2.12,0,0,0,3.67,0q.74-1.05.74-4.22t-.74-4.23a2.21,2.21,0,0,0-1.85-1,2,2,0,0,0-1.74.92Q802,440.14,802,443.31Z" style="fill:red"/></svg>