<svg id="Layer_2" data-name="Layer 2" xmlns="http://www.w3.org/2000/svg" viewBox="0 0 812 456.75"><title>andon-b</title><rect width="812" height="386"/><rect x="193" y="135" width="60" height="18" style="fill:red"/><rect x="269" y="135" width="60" height="18" style="fill:red"/><rect x="269" y="156" width="60" height="18" style="fill:#ff0"/><rect x="346" y="135" width="60" height="18" style="fill:red"/><rect x="422" y="135" width="60" height="18" style="fill:red"/><rect x="499" y="135" width="60" height="18" style="fill:red"/><rect x="575" y="135" width="60" height="18" style="fill:red"/><rect x="652" y="135" width="60" height="18" style="fill:red"/><path d="M6.67,35.67V26.36h3.51a8.51,8.51,0,0,1,1.42.09,2.8,2.8,0,0,1,1.15.43,2.29,2.29,0,0,1,.75.9A3,3,0,0,1,13,31.06a3.62,3.62,0,0,1-2.73.82H7.9v3.78ZM7.9,30.79h2.41a2.55,2.55,0,0,0,1.7-.44,1.58,1.58,0,0,0,.5-1.25,1.68,1.68,0,0,0-.3-1,1.37,1.37,0,0,0-.78-.55,5.24,5.24,0,0,0-1.15-.08H7.9Z" style="fill:#00fb00"/><path d="M15.29,35.67V26.36h1.23v8.21H21.1v1.1Z" style="fill:#00fb00"/><path d="M21.55,35.67l3.57-9.31h1.33l3.81,9.31h-1.4l-1.08-2.82H23.88l-1,2.82Zm2.68-3.82h3.16l-1-2.58q-.44-1.17-.66-1.93a11.94,11.94,0,0,1-.5,1.78Z" style="fill:#00fb00"/><path d="M31.23,35.67V26.36h1.26l4.89,7.31V26.36h1.18v9.31H37.3l-4.89-7.31v7.31Z" style="fill:#00fb00"/><path d="M120.8,28.64l-1.14.09a2.15,2.15,0,0,0-.43-1,1.51,1.51,0,0,0-1.14-.49,1.57,1.57,0,0,0-1,.3,2.61,2.61,0,0,0-.85,1.15,6,6,0,0,0-.32,2.15,2.64,2.64,0,0,1,1-.93,2.72,2.72,0,0,1,1.25-.3,2.59,2.59,0,0,1,1.95.84,3,3,0,0,1,.8,2.17,3.59,3.59,0,0,1-.38,1.63,2.76,2.76,0,0,1-1,1.15,2.83,2.83,0,0,1-1.5.4,2.93,2.93,0,0,1-2.33-1.05,5.31,5.31,0,0,1-.9-3.46,6.21,6.21,0,0,1,1-3.92,2.87,2.87,0,0,1,2.34-1.07,2.49,2.49,0,0,1,2.64,2.32Zm-4.67,4a2.64,2.64,0,0,0,.25,1.13,1.86,1.86,0,0,0,.7.82,1.75,1.75,0,0,0,.95.28,1.61,1.61,0,0,0,1.24-.58,2.3,2.3,0,0,0,.52-1.59,2.15,2.15,0,0,0-.51-1.52,1.69,1.69,0,0,0-1.29-.56,1.76,1.76,0,0,0-1.31.56A2,2,0,0,0,116.14,32.65Z" style="fill:#00fb00"/><path d="M126.41,35.67h-1.14V28.39a5.92,5.92,0,0,1-1.08.79,7.74,7.74,0,0,1-1.2.59v-1.1a6.91,6.91,0,0,0,1.68-1.09,4.29,4.29,0,0,0,1-1.24h.74Z" style="fill:#00fb00"/><path d="M129.34,33.21l1.14-.15a2.52,2.52,0,0,0,.67,1.4,1.66,1.66,0,0,0,1.15.43,1.85,1.85,0,0,0,1.36-.56,1.89,1.89,0,0,0,.56-1.38,1.75,1.75,0,0,0-.51-1.3,1.78,1.78,0,0,0-1.31-.51,3.3,3.3,0,0,0-.81.13l.13-1h.18a2.35,2.35,0,0,0,1.31-.38,1.3,1.3,0,0,0,.58-1.17,1.39,1.39,0,0,0-.42-1,1.51,1.51,0,0,0-1.1-.41,1.56,1.56,0,0,0-1.11.42,2.1,2.1,0,0,0-.57,1.26l-1.14-.2a2.94,2.94,0,0,1,1-1.78,2.75,2.75,0,0,1,1.85-.63,3,3,0,0,1,1.4.33,2.36,2.36,0,0,1,1,.89,2.29,2.29,0,0,1,.34,1.2,2,2,0,0,1-.32,1.1,2.21,2.21,0,0,1-1,.79,2.16,2.16,0,0,1,1.28.79,2.41,2.41,0,0,1,.46,1.5,2.74,2.74,0,0,1-.89,2.07,3.12,3.12,0,0,1-2.25.85,2.92,2.92,0,0,1-2-.73A2.82,2.82,0,0,1,129.34,33.21Z" style="fill:#00fb00"/><path d="M42.75,110.67v-1.41l5.87-7.34q.63-.78,1.19-1.36H43.42V99.21h8.2v1.35l-6.43,7.95-.7.8h7.31v1.35Z" style="fill:#00fb00"/><path d="M52.74,106.52A4.28,4.28,0,0,1,54,103.1a3.86,3.86,0,0,1,2.61-.92,3.72,3.72,0,0,1,2.8,1.12,4.26,4.26,0,0,1,1.09,3.1,5.49,5.49,0,0,1-.48,2.52,3.4,3.4,0,0,1-1.4,1.43,4.07,4.07,0,0,1-2,.51,3.73,3.73,0,0,1-2.82-1.12A4.46,4.46,0,0,1,52.74,106.52Zm1.45,0a3.54,3.54,0,0,0,.7,2.39,2.32,2.32,0,0,0,3.49,0,3.62,3.62,0,0,0,.7-2.43,3.43,3.43,0,0,0-.7-2.33,2.32,2.32,0,0,0-3.49,0A3.52,3.52,0,0,0,54.18,106.52Z" style="fill:#00fb00"/><path d="M62.16,110.67v-8.3h1.27v1.18a3,3,0,0,1,2.64-1.37,3.46,3.46,0,0,1,1.38.27,2.16,2.16,0,0,1,.94.71,2.7,2.7,0,0,1,.44,1,8,8,0,0,1,.08,1.37v5.1H67.49v-5a3.79,3.79,0,0,0-.16-1.29,1.35,1.35,0,0,0-.58-.68,1.85,1.85,0,0,0-1-.25,2.28,2.28,0,0,0-1.55.57,2.81,2.81,0,0,0-.65,2.16v4.53Z" style="fill:#00fb00"/><path d="M76.74,108l1.45.18a3.54,3.54,0,0,1-1.27,2,4.31,4.31,0,0,1-5.26-.42,4.38,4.38,0,0,1-1.07-3.14,4.59,4.59,0,0,1,1.08-3.25,3.65,3.65,0,0,1,2.8-1.16,3.55,3.55,0,0,1,2.72,1.13,4.5,4.5,0,0,1,1.05,3.19c0,.08,0,.21,0,.38H72a3.19,3.19,0,0,0,.77,2.09,2.3,2.3,0,0,0,1.73.73,2.15,2.15,0,0,0,1.32-.41A2.69,2.69,0,0,0,76.74,108Zm-4.62-2.27h4.63a2.81,2.81,0,0,0-.53-1.57,2.15,2.15,0,0,0-1.74-.81,2.24,2.24,0,0,0-1.63.65A2.57,2.57,0,0,0,72.12,105.72Z" style="fill:#00fb00"/><path d="M79.39,108.19l1.39-.22a1.94,1.94,0,0,0,.65,1.28,2.27,2.27,0,0,0,1.5.45,2.2,2.2,0,0,0,1.44-.39,1.18,1.18,0,0,0,.47-.93.85.85,0,0,0-.41-.75,6.1,6.1,0,0,0-1.44-.48,13.07,13.07,0,0,1-2.14-.68,2,2,0,0,1-1.21-1.9,2.14,2.14,0,0,1,.25-1,2.29,2.29,0,0,1,.69-.79,2.92,2.92,0,0,1,.89-.41,4.26,4.26,0,0,1,1.21-.17,4.8,4.8,0,0,1,1.71.28,2.33,2.33,0,0,1,1.09.76,3,3,0,0,1,.48,1.29l-1.37.19a1.5,1.5,0,0,0-.54-1,2,2,0,0,0-1.27-.36,2.3,2.3,0,0,0-1.38.32.94.94,0,0,0-.41.75.78.78,0,0,0,.17.49,1.24,1.24,0,0,0,.54.38q.21.08,1.24.36a17.29,17.29,0,0,1,2.08.65,2.11,2.11,0,0,1,.93.74,2.06,2.06,0,0,1,.34,1.2,2.36,2.36,0,0,1-.41,1.32,2.65,2.65,0,0,1-1.18,1,4.31,4.31,0,0,1-1.75.34,3.9,3.9,0,0,1-2.46-.67A3.13,3.13,0,0,1,79.39,108.19Z" style="fill:#00fb00"/><path d="M136.32,110.67v-1.41l5.87-7.34q.63-.78,1.19-1.36H137V99.21h8.2v1.35l-6.43,7.95-.7.8h7.31v1.35Z" style="fill:#00fb00"/><path d="M151.73,110.67h-1.41v-9a7.25,7.25,0,0,1-1.33,1,9.4,9.4,0,0,1-1.48.73V102a8.49,8.49,0,0,0,2.06-1.34,5.28,5.28,0,0,0,1.25-1.53h.91Z" style="fill:#00fb00"/><path d="M213.65,110.67v-1.41l5.87-7.34q.63-.78,1.19-1.36h-6.39V99.21h8.2v1.35l-6.43,7.95-.7.8h7.31v1.35Z" style="fill:#00fb00"/><path d="M231.16,109.31v1.35h-7.57a2.51,2.51,0,0,1,.16-1,5.19,5.19,0,0,1,.93-1.52,14.55,14.55,0,0,1,1.84-1.73A15.55,15.55,0,0,0,229,104a2.9,2.9,0,0,0,.66-1.69,1.88,1.88,0,0,0-.6-1.41,2.16,2.16,0,0,0-1.56-.57,2.2,2.2,0,0,0-1.62.61,2.31,2.31,0,0,0-.62,1.69l-1.45-.15A3.56,3.56,0,0,1,225,100a3.81,3.81,0,0,1,2.6-.85,3.63,3.63,0,0,1,2.61.91,3,3,0,0,1,1,2.27,3.43,3.43,0,0,1-.28,1.35,5.22,5.22,0,0,1-.93,1.4,22.62,22.62,0,0,1-2.17,2q-1.27,1.06-1.62,1.44a4.67,4.67,0,0,0-.59.76Z" style="fill:#00fb00"/><path d="M291,110.67v-1.41l5.87-7.34q.62-.78,1.19-1.36h-6.39V99.21h8.2v1.35l-6.43,7.95-.7.8H300v1.35Z" style="fill:#00fb00"/><path d="M301.11,107.64l1.41-.19a3.09,3.09,0,0,0,.82,1.72,2,2,0,0,0,1.42.53,2.27,2.27,0,0,0,1.68-.69,2.32,2.32,0,0,0,.68-1.7,2.16,2.16,0,0,0-.63-1.6,2.19,2.19,0,0,0-1.61-.63,4,4,0,0,0-1,.16L304,104l.23,0a2.9,2.9,0,0,0,1.62-.47,1.61,1.61,0,0,0,.72-1.45,1.71,1.71,0,0,0-.52-1.28,1.86,1.86,0,0,0-1.35-.51,1.91,1.91,0,0,0-1.37.52,2.58,2.58,0,0,0-.7,1.55l-1.41-.25a3.62,3.62,0,0,1,1.17-2.19,3.39,3.39,0,0,1,2.27-.78,3.75,3.75,0,0,1,1.73.4,2.92,2.92,0,0,1,1.21,1.1,2.82,2.82,0,0,1,.42,1.48,2.42,2.42,0,0,1-.4,1.35,2.72,2.72,0,0,1-1.18,1,2.66,2.66,0,0,1,1.58,1,3,3,0,0,1,.56,1.85,3.38,3.38,0,0,1-1.09,2.54,3.85,3.85,0,0,1-2.77,1,3.6,3.6,0,0,1-2.5-.9A3.47,3.47,0,0,1,301.11,107.64Z" style="fill:#00fb00"/><path d="M365.65,110.67v-1.41l5.87-7.34q.63-.78,1.19-1.36h-6.39V99.21h8.2v1.35l-6.43,7.95-.7.8h7.31v1.35Z" style="fill:#00fb00"/><path d="M380.28,110.67v-2.74h-5v-1.29l5.23-7.42h1.15v7.42h1.55v1.29h-1.55v2.74Zm0-4v-5.16l-3.59,5.16Z" style="fill:#00fb00"/><path d="M442.32,110.67v-1.41l5.87-7.34q.63-.78,1.19-1.36H443V99.21h8.2v1.35l-6.43,7.95-.7.8h7.31v1.35Z" style="fill:#00fb00"/><path d="M452.43,107.67l1.48-.12a2.65,2.65,0,0,0,.76,1.62,2.07,2.07,0,0,0,1.44.54,2.24,2.24,0,0,0,1.72-.77,2.89,2.89,0,0,0,.7-2,2.61,2.61,0,0,0-.68-1.9,2.36,2.36,0,0,0-1.77-.7,2.45,2.45,0,0,0-1.23.31,2.38,2.38,0,0,0-.86.8l-1.32-.17,1.11-5.88h5.7v1.34h-4.57l-.62,3.08a3.73,3.73,0,0,1,2.16-.72,3.43,3.43,0,0,1,2.53,1,3.63,3.63,0,0,1,1,2.67,4.17,4.17,0,0,1-.91,2.69,3.63,3.63,0,0,1-3,1.39,3.7,3.7,0,0,1-2.55-.87A3.41,3.41,0,0,1,452.43,107.67Z" style="fill:#00fb00"/><path d="M520.32,110.67v-1.41l5.87-7.34q.63-.78,1.19-1.36H521V99.21h8.2v1.35l-6.43,7.95-.7.8h7.31v1.35Z" style="fill:#00fb00"/><path d="M537.73,102l-1.4.11a2.65,2.65,0,0,0-.53-1.2,1.86,1.86,0,0,0-1.41-.6,1.93,1.93,0,0,0-1.18.38,3.21,3.21,0,0,0-1,1.41,7.41,7.41,0,0,0-.4,2.65,3.26,3.26,0,0,1,1.24-1.15,3.34,3.34,0,0,1,1.54-.37,3.19,3.19,0,0,1,2.39,1,3.71,3.71,0,0,1,1,2.68,4.41,4.41,0,0,1-.46,2,3.38,3.38,0,0,1-1.28,1.42,3.49,3.49,0,0,1-1.84.49,3.6,3.6,0,0,1-2.87-1.29,6.53,6.53,0,0,1-1.11-4.26q0-3.32,1.23-4.83a3.53,3.53,0,0,1,2.88-1.31,3.07,3.07,0,0,1,3.25,2.85ZM532,107a3.26,3.26,0,0,0,.31,1.39,2.3,2.3,0,0,0,.86,1,2.16,2.16,0,0,0,1.16.35,2,2,0,0,0,1.53-.72,2.83,2.83,0,0,0,.64-2,2.65,2.65,0,0,0-.63-1.87,2.08,2.08,0,0,0-1.59-.68,2.17,2.17,0,0,0-1.62.68A2.47,2.47,0,0,0,532,107Z" style="fill:#00fb00"/><path d="M596.32,110.67v-1.41l5.87-7.34q.63-.78,1.19-1.36H597V99.21h8.2v1.35l-6.43,7.95-.7.8h7.31v1.35Z" style="fill:#00fb00"/><path d="M606.53,100.71V99.36h7.41v1.09a15.62,15.62,0,0,0-2.17,3.09,18.86,18.86,0,0,0-1.66,4,14.75,14.75,0,0,0-.54,3.15h-1.45a14,14,0,0,1,.53-3.27,17.17,17.17,0,0,1,1.46-3.69,15.82,15.82,0,0,1,2-3Z" style="fill:#00fb00"/><path d="M672.32,110.67v-1.41l5.87-7.34q.63-.78,1.19-1.36H673V99.21h8.2v1.35l-6.43,7.95-.7.8h7.31v1.35Z" style="fill:#00fb00"/><path d="M684.6,104.46a2.65,2.65,0,0,1-1.3-.91,2.39,2.39,0,0,1-.42-1.42,2.78,2.78,0,0,1,.9-2.1,3.78,3.78,0,0,1,4.8,0,2.82,2.82,0,0,1,.91,2.12,2.34,2.34,0,0,1-.42,1.39,2.63,2.63,0,0,1-1.27.91,3.08,3.08,0,0,1,1.61,1.11,3,3,0,0,1,.55,1.83,3.29,3.29,0,0,1-1,2.47,4.23,4.23,0,0,1-5.47,0,3.34,3.34,0,0,1-1-2.5,3,3,0,0,1,.57-1.87A2.84,2.84,0,0,1,684.6,104.46Zm-.73,2.91a2.54,2.54,0,0,0,.29,1.16,2,2,0,0,0,.85.87,2.47,2.47,0,0,0,1.21.31,2.27,2.27,0,0,0,1.66-.65,2.22,2.22,0,0,0,.66-1.65,2.26,2.26,0,0,0-.68-1.68,2.32,2.32,0,0,0-1.69-.66,2.24,2.24,0,0,0-2.3,2.3Zm.45-5.29a1.78,1.78,0,0,0,.52,1.33,1.85,1.85,0,0,0,1.36.52,1.82,1.82,0,0,0,1.33-.51,1.69,1.69,0,0,0,.52-1.25,1.76,1.76,0,0,0-.54-1.3,1.82,1.82,0,0,0-1.33-.53,1.84,1.84,0,0,0-1.34.52A1.66,1.66,0,0,0,684.32,102.07Z" style="fill:#00fb00"/><path d="M744.54,110.67v-1.41l5.87-7.34q.62-.78,1.19-1.36H745.2V99.21h8.2v1.35L747,108.51l-.7.8h7.31v1.35Z" style="fill:#00fb00"/><path d="M759.95,110.67h-1.41v-9a7.28,7.28,0,0,1-1.33,1,9.4,9.4,0,0,1-1.48.73V102a8.49,8.49,0,0,0,2.06-1.34A5.3,5.3,0,0,0,759,99.17h.91Z" style="fill:#00fb00"/><path d="M763.64,100.71V99.36h7.41v1.09a15.62,15.62,0,0,0-2.17,3.09,18.81,18.81,0,0,0-1.66,4,14.75,14.75,0,0,0-.54,3.15h-1.45a14,14,0,0,1,.53-3.27,17.12,17.12,0,0,1,1.46-3.69,15.82,15.82,0,0,1,2-3Z" style="fill:#00fb00"/><path d="M42.41,130.67l4.4-11.45h1.63l4.69,11.45H51.4l-1.34-3.47H45.28L44,130.67Zm3.3-4.7H49.6l-1.2-3.17q-.55-1.45-.81-2.37A14.55,14.55,0,0,1,47,122.6Z" style="fill:#00fb00"/><path d="M59.57,127.63l1.38.18A3.58,3.58,0,0,1,59.79,130a3.38,3.38,0,0,1-2.29.81,3.56,3.56,0,0,1-2.74-1.11,4.52,4.52,0,0,1-1-3.19,5.78,5.78,0,0,1,.45-2.35,3.11,3.11,0,0,1,1.36-1.51,4,4,0,0,1,2-.5,3.44,3.44,0,0,1,2.21.68,3.13,3.13,0,0,1,1.1,1.94l-1.37.21a2.27,2.27,0,0,0-.69-1.26,1.79,1.79,0,0,0-1.2-.42,2.18,2.18,0,0,0-1.73.76,3.62,3.62,0,0,0-.66,2.41,3.74,3.74,0,0,0,.64,2.43,2.09,2.09,0,0,0,1.67.76,2,2,0,0,0,1.38-.51A2.52,2.52,0,0,0,59.57,127.63Z" style="fill:#00fb00"/><path d="M65.23,129.41l.2,1.24a5.24,5.24,0,0,1-1.06.13,2.41,2.41,0,0,1-1.19-.24,1.36,1.36,0,0,1-.59-.64,5,5,0,0,1-.17-1.66v-4.77h-1v-1.09h1v-2.05l1.4-.84v2.9h1.41v1.09H63.81v4.85a2.47,2.47,0,0,0,.07.77.59.59,0,0,0,.24.27.94.94,0,0,0,.48.1A4.54,4.54,0,0,0,65.23,129.41Z" style="fill:#00fb00"/><path d="M72,130.67v-1.22a3,3,0,0,1-2.63,1.41,3.36,3.36,0,0,1-1.37-.28,2.26,2.26,0,0,1-.95-.71,2.67,2.67,0,0,1-.43-1,7.2,7.2,0,0,1-.09-1.31v-5.14H68V127a8.26,8.26,0,0,0,.09,1.48,1.47,1.47,0,0,0,.56.87,1.74,1.74,0,0,0,1.06.32,2.31,2.31,0,0,0,1.19-.32,1.8,1.8,0,0,0,.79-.88,4.41,4.41,0,0,0,.23-1.62v-4.45H73.3v8.3Z" style="fill:#00fb00"/><path d="M80.92,129.64a5.22,5.22,0,0,1-1.5.94,4.35,4.35,0,0,1-1.55.27,3,3,0,0,1-2.1-.67,2.21,2.21,0,0,1-.73-1.71,2.27,2.27,0,0,1,.28-1.11,2.31,2.31,0,0,1,.73-.81,3.43,3.43,0,0,1,1-.46,10.14,10.14,0,0,1,1.25-.21,12.83,12.83,0,0,0,2.51-.48c0-.19,0-.31,0-.37a1.55,1.55,0,0,0-.4-1.21,2.35,2.35,0,0,0-1.6-.48,2.49,2.49,0,0,0-1.46.35,2.13,2.13,0,0,0-.7,1.23l-1.37-.19a3.41,3.41,0,0,1,.62-1.43,2.71,2.71,0,0,1,1.24-.84,5.54,5.54,0,0,1,1.88-.29,5,5,0,0,1,1.73.25,2.27,2.27,0,0,1,1,.63,2.2,2.2,0,0,1,.44,1,7.92,7.92,0,0,1,.07,1.3v1.88a20,20,0,0,0,.09,2.48,3.15,3.15,0,0,0,.36,1H81.2A3,3,0,0,1,80.92,129.64Zm-.12-3.14a10.27,10.27,0,0,1-2.3.53,5.34,5.34,0,0,0-1.23.28,1.23,1.23,0,0,0-.55.46,1.24,1.24,0,0,0,.23,1.61,1.83,1.83,0,0,0,1.25.38,2.9,2.9,0,0,0,1.45-.36,2.18,2.18,0,0,0,.93-1A3.39,3.39,0,0,0,80.8,127Z" style="fill:#00fb00"/><path d="M84.37,130.67V119.21h1.41v11.45Z" style="fill:#00fb00"/><path d="M137.95,130.67h-1.41v-9a7.25,7.25,0,0,1-1.33,1,9.4,9.4,0,0,1-1.48.73V122a8.49,8.49,0,0,0,2.06-1.34,5.28,5.28,0,0,0,1.25-1.53h.91Z" style="fill:#00fb00"/><path d="M141.64,120.71v-1.35h7.41v1.09a15.62,15.62,0,0,0-2.17,3.09,18.86,18.86,0,0,0-1.66,4,14.75,14.75,0,0,0-.54,3.15h-1.45a14,14,0,0,1,.53-3.27,17.17,17.17,0,0,1,1.46-3.69,15.82,15.82,0,0,1,2-3Z" style="fill:#00fb00"/><path d="M155.74,130.67h-1.41v-9a7.25,7.25,0,0,1-1.33,1,9.4,9.4,0,0,1-1.48.73V122a8.49,8.49,0,0,0,2.06-1.34,5.28,5.28,0,0,0,1.25-1.53h.91Z" style="fill:#00fb00"/><path d="M215.28,130.67h-1.41v-9a7.21,7.21,0,0,1-1.33,1,9.36,9.36,0,0,1-1.48.73V122a8.45,8.45,0,0,0,2.06-1.34,5.26,5.26,0,0,0,1.25-1.53h.91Z" style="fill:#00fb00"/><path d="M218.88,127.67l1.48-.12a2.65,2.65,0,0,0,.76,1.62,2.07,2.07,0,0,0,1.44.54,2.24,2.24,0,0,0,1.72-.77,2.89,2.89,0,0,0,.7-2,2.61,2.61,0,0,0-.68-1.9,2.36,2.36,0,0,0-1.77-.7,2.46,2.46,0,0,0-1.23.31,2.39,2.39,0,0,0-.86.8l-1.32-.17,1.11-5.88h5.7v1.34h-4.57l-.62,3.08a3.73,3.73,0,0,1,2.16-.72,3.43,3.43,0,0,1,2.53,1,3.63,3.63,0,0,1,1,2.67,4.17,4.17,0,0,1-.91,2.69,3.63,3.63,0,0,1-3,1.39A3.71,3.71,0,0,1,220,130,3.42,3.42,0,0,1,218.88,127.67Z" style="fill:#00fb00"/><path d="M227.87,120.71v-1.35h7.41v1.09a15.7,15.7,0,0,0-2.17,3.09,18.86,18.86,0,0,0-1.66,4,14.75,14.75,0,0,0-.54,3.15h-1.45a14.07,14.07,0,0,1,.53-3.27,17.17,17.17,0,0,1,1.46-3.69,15.87,15.87,0,0,1,2-3Z" style="fill:#00fb00"/><path d="M292.61,130.67h-1.41v-9a7.28,7.28,0,0,1-1.33,1,9.4,9.4,0,0,1-1.48.73V122a8.49,8.49,0,0,0,2.06-1.34,5.3,5.3,0,0,0,1.25-1.53h.91Z" style="fill:#00fb00"/><path d="M303.51,122l-1.4.11a2.66,2.66,0,0,0-.53-1.2,1.86,1.86,0,0,0-1.41-.6,1.93,1.93,0,0,0-1.18.38,3.2,3.2,0,0,0-1,1.41,7.36,7.36,0,0,0-.4,2.65,3.25,3.25,0,0,1,1.24-1.15,3.34,3.34,0,0,1,1.54-.37,3.19,3.19,0,0,1,2.39,1,3.72,3.72,0,0,1,1,2.68,4.41,4.41,0,0,1-.46,2,3.4,3.4,0,0,1-1.28,1.42,3.49,3.49,0,0,1-1.84.49,3.6,3.6,0,0,1-2.87-1.29,6.52,6.52,0,0,1-1.11-4.26q0-3.32,1.23-4.83a3.52,3.52,0,0,1,2.88-1.31,3.07,3.07,0,0,1,3.25,2.85ZM297.77,127a3.26,3.26,0,0,0,.31,1.39,2.29,2.29,0,0,0,.86,1,2.16,2.16,0,0,0,1.16.35,2,2,0,0,0,1.53-.72,2.83,2.83,0,0,0,.64-2,2.65,2.65,0,0,0-.63-1.87,2.08,2.08,0,0,0-1.59-.68,2.17,2.17,0,0,0-1.62.68A2.46,2.46,0,0,0,297.77,127Z" style="fill:#00fb00"/><path d="M309.62,130.67v-2.74h-5v-1.29l5.23-7.42H311v7.42h1.55v1.29H311v2.74Zm0-4v-5.16L306,126.64Z" style="fill:#00fb00"/><path d="M367.28,130.67h-1.41v-9a7.21,7.21,0,0,1-1.33,1,9.36,9.36,0,0,1-1.48.73V122a8.45,8.45,0,0,0,2.06-1.34,5.26,5.26,0,0,0,1.25-1.53h.91Z" style="fill:#00fb00"/><path d="M378.18,122l-1.4.11a2.65,2.65,0,0,0-.53-1.2,1.86,1.86,0,0,0-1.41-.6,1.93,1.93,0,0,0-1.18.38,3.21,3.21,0,0,0-1,1.41,7.41,7.41,0,0,0-.4,2.65,3.26,3.26,0,0,1,1.24-1.15,3.34,3.34,0,0,1,1.54-.37,3.19,3.19,0,0,1,2.39,1,3.71,3.71,0,0,1,1,2.68,4.39,4.39,0,0,1-.46,2,3.38,3.38,0,0,1-1.28,1.42,3.49,3.49,0,0,1-1.84.49,3.6,3.6,0,0,1-2.87-1.29,6.53,6.53,0,0,1-1.11-4.26q0-3.32,1.23-4.83a3.53,3.53,0,0,1,2.88-1.31,3.07,3.07,0,0,1,3.25,2.85ZM372.44,127a3.27,3.27,0,0,0,.31,1.39,2.3,2.3,0,0,0,.86,1,2.16,2.16,0,0,0,1.16.35,2,2,0,0,0,1.53-.72,2.83,2.83,0,0,0,.64-2,2.65,2.65,0,0,0-.63-1.87,2.08,2.08,0,0,0-1.59-.68,2.17,2.17,0,0,0-1.62.68A2.47,2.47,0,0,0,372.44,127Z" style="fill:#00fb00"/><path d="M384.29,130.67v-2.74h-5v-1.29l5.23-7.42h1.15v7.42h1.55v1.29h-1.55v2.74Zm0-4v-5.16l-3.59,5.16Z" style="fill:#00fb00"/><path d="M443.95,130.67h-1.41v-9a7.25,7.25,0,0,1-1.33,1,9.4,9.4,0,0,1-1.48.73V122a8.49,8.49,0,0,0,2.06-1.34,5.28,5.28,0,0,0,1.25-1.53h.91Z" style="fill:#00fb00"/><path d="M454.84,122l-1.4.11a2.65,2.65,0,0,0-.53-1.2,1.86,1.86,0,0,0-1.41-.6,1.93,1.93,0,0,0-1.18.38,3.21,3.21,0,0,0-1,1.41,7.41,7.41,0,0,0-.4,2.65,3.26,3.26,0,0,1,1.24-1.15,3.34,3.34,0,0,1,1.54-.37,3.19,3.19,0,0,1,2.39,1,3.71,3.71,0,0,1,1,2.68,4.41,4.41,0,0,1-.46,2,3.38,3.38,0,0,1-1.28,1.42,3.49,3.49,0,0,1-1.84.49,3.6,3.6,0,0,1-2.87-1.29,6.53,6.53,0,0,1-1.11-4.26q0-3.32,1.23-4.83a3.53,3.53,0,0,1,2.88-1.31,3.07,3.07,0,0,1,3.25,2.85ZM449.1,127a3.26,3.26,0,0,0,.31,1.39,2.3,2.3,0,0,0,.86,1,2.16,2.16,0,0,0,1.16.35A2,2,0,0,0,453,129a2.83,2.83,0,0,0,.64-2,2.65,2.65,0,0,0-.63-1.87,2.08,2.08,0,0,0-1.59-.68,2.17,2.17,0,0,0-1.62.68A2.47,2.47,0,0,0,449.1,127Z" style="fill:#00fb00"/><path d="M456.54,120.71v-1.35H464v1.09a15.62,15.62,0,0,0-2.17,3.09,18.86,18.86,0,0,0-1.66,4,14.75,14.75,0,0,0-.54,3.15h-1.45a14,14,0,0,1,.53-3.27,17.17,17.17,0,0,1,1.46-3.69,15.82,15.82,0,0,1,2-3Z" style="fill:#00fb00"/><path d="M521.95,130.67h-1.41v-9a7.25,7.25,0,0,1-1.33,1,9.4,9.4,0,0,1-1.48.73V122a8.49,8.49,0,0,0,2.06-1.34,5.28,5.28,0,0,0,1.25-1.53h.91Z" style="fill:#00fb00"/><path d="M532.84,122l-1.4.11a2.65,2.65,0,0,0-.53-1.2,1.86,1.86,0,0,0-1.41-.6,1.93,1.93,0,0,0-1.18.38,3.21,3.21,0,0,0-1,1.41,7.41,7.41,0,0,0-.4,2.65,3.26,3.26,0,0,1,1.24-1.15,3.34,3.34,0,0,1,1.54-.37,3.19,3.19,0,0,1,2.39,1,3.71,3.71,0,0,1,1,2.68,4.41,4.41,0,0,1-.46,2,3.38,3.38,0,0,1-1.28,1.42,3.49,3.49,0,0,1-1.84.49,3.6,3.6,0,0,1-2.87-1.29,6.53,6.53,0,0,1-1.11-4.26q0-3.32,1.23-4.83a3.53,3.53,0,0,1,2.88-1.31,3.07,3.07,0,0,1,3.25,2.85ZM527.1,127a3.26,3.26,0,0,0,.31,1.39,2.3,2.3,0,0,0,.86,1,2.16,2.16,0,0,0,1.16.35A2,2,0,0,0,531,129a2.83,2.83,0,0,0,.64-2,2.65,2.65,0,0,0-.63-1.87,2.08,2.08,0,0,0-1.59-.68,2.17,2.17,0,0,0-1.62.68A2.47,2.47,0,0,0,527.1,127Z" style="fill:#00fb00"/><path d="M541.84,129.31v1.35h-7.57a2.48,2.48,0,0,1,.16-1,5.15,5.15,0,0,1,.93-1.52,14.55,14.55,0,0,1,1.84-1.73,15.55,15.55,0,0,0,2.52-2.43,2.9,2.9,0,0,0,.66-1.69,1.88,1.88,0,0,0-.6-1.41,2.16,2.16,0,0,0-1.56-.57,2.2,2.2,0,0,0-1.62.61,2.3,2.3,0,0,0-.62,1.69l-1.45-.15a3.56,3.56,0,0,1,1.12-2.46,3.81,3.81,0,0,1,2.6-.85,3.63,3.63,0,0,1,2.61.91,3,3,0,0,1,1,2.27,3.43,3.43,0,0,1-.28,1.35,5.25,5.25,0,0,1-.93,1.4,22.62,22.62,0,0,1-2.17,2q-1.27,1.06-1.62,1.44a4.67,4.67,0,0,0-.59.76Z" style="fill:#00fb00"/><path d="M597.95,130.67h-1.41v-9a7.25,7.25,0,0,1-1.33,1,9.4,9.4,0,0,1-1.48.73V122a8.49,8.49,0,0,0,2.06-1.34,5.28,5.28,0,0,0,1.25-1.53h.91Z" style="fill:#00fb00"/><path d="M608.84,122l-1.4.11a2.65,2.65,0,0,0-.53-1.2,1.86,1.86,0,0,0-1.41-.6,1.93,1.93,0,0,0-1.18.38,3.21,3.21,0,0,0-1,1.41,7.41,7.41,0,0,0-.4,2.65,3.26,3.26,0,0,1,1.24-1.15,3.34,3.34,0,0,1,1.54-.37,3.19,3.19,0,0,1,2.39,1,3.71,3.71,0,0,1,1,2.68,4.41,4.41,0,0,1-.46,2,3.38,3.38,0,0,1-1.28,1.42,3.49,3.49,0,0,1-1.84.49,3.6,3.6,0,0,1-2.87-1.29,6.53,6.53,0,0,1-1.11-4.26q0-3.32,1.23-4.83a3.53,3.53,0,0,1,2.88-1.31,3.07,3.07,0,0,1,3.25,2.85ZM603.1,127a3.26,3.26,0,0,0,.31,1.39,2.3,2.3,0,0,0,.86,1,2.16,2.16,0,0,0,1.16.35A2,2,0,0,0,607,129a2.83,2.83,0,0,0,.64-2,2.65,2.65,0,0,0-.63-1.87,2.08,2.08,0,0,0-1.59-.68,2.17,2.17,0,0,0-1.62.68A2.47,2.47,0,0,0,603.1,127Z" style="fill:#00fb00"/><path d="M615.74,130.67h-1.41v-9a7.25,7.25,0,0,1-1.33,1,9.4,9.4,0,0,1-1.48.73V122a8.49,8.49,0,0,0,2.06-1.34,5.28,5.28,0,0,0,1.25-1.53h.91Z" style="fill:#00fb00"/><path d="M673.95,130.67h-1.41v-9a7.25,7.25,0,0,1-1.33,1,9.4,9.4,0,0,1-1.48.73V122a8.49,8.49,0,0,0,2.06-1.34,5.28,5.28,0,0,0,1.25-1.53h.91Z" style="fill:#00fb00"/><path d="M677.55,127.67l1.48-.12a2.65,2.65,0,0,0,.76,1.62,2.07,2.07,0,0,0,1.44.54,2.24,2.24,0,0,0,1.72-.77,2.89,2.89,0,0,0,.7-2A2.61,2.61,0,0,0,683,125a2.36,2.36,0,0,0-1.77-.7,2.45,2.45,0,0,0-1.23.31,2.38,2.38,0,0,0-.86.8l-1.32-.17,1.11-5.88h5.7v1.34H680l-.62,3.08a3.73,3.73,0,0,1,2.16-.72,3.43,3.43,0,0,1,2.53,1,3.63,3.63,0,0,1,1,2.67,4.17,4.17,0,0,1-.91,2.69,3.63,3.63,0,0,1-3,1.39,3.7,3.7,0,0,1-2.55-.87A3.41,3.41,0,0,1,677.55,127.67Z" style="fill:#00fb00"/><path d="M688.61,124.46a2.65,2.65,0,0,1-1.3-.91,2.39,2.39,0,0,1-.42-1.42,2.78,2.78,0,0,1,.9-2.1,3.78,3.78,0,0,1,4.8,0,2.82,2.82,0,0,1,.91,2.12,2.34,2.34,0,0,1-.42,1.39,2.63,2.63,0,0,1-1.27.91,3.08,3.08,0,0,1,1.61,1.11,3,3,0,0,1,.55,1.83,3.29,3.29,0,0,1-1,2.47,4.23,4.23,0,0,1-5.47,0,3.34,3.34,0,0,1-1-2.5,3,3,0,0,1,.57-1.87A2.84,2.84,0,0,1,688.61,124.46Zm-.73,2.91a2.54,2.54,0,0,0,.29,1.16,2,2,0,0,0,.85.87,2.47,2.47,0,0,0,1.21.31,2.27,2.27,0,0,0,1.66-.65,2.22,2.22,0,0,0,.66-1.65,2.26,2.26,0,0,0-.68-1.68,2.32,2.32,0,0,0-1.69-.66,2.24,2.24,0,0,0-2.3,2.3Zm.45-5.29a1.78,1.78,0,0,0,.52,1.33,1.85,1.85,0,0,0,1.36.52,1.82,1.82,0,0,0,1.33-.51,1.69,1.69,0,0,0,.52-1.25,1.76,1.76,0,0,0-.54-1.3,1.82,1.82,0,0,0-1.33-.53,1.84,1.84,0,0,0-1.34.52A1.66,1.66,0,0,0,688.33,122.07Z" style="fill:#00fb00"/><path d="M750.61,130.67h-1.41v-9a7.28,7.28,0,0,1-1.33,1,9.4,9.4,0,0,1-1.48.73V122a8.49,8.49,0,0,0,2.06-1.34,5.3,5.3,0,0,0,1.25-1.53h.91Z" style="fill:#00fb00"/><path d="M761.51,122l-1.4.11a2.66,2.66,0,0,0-.53-1.2,1.86,1.86,0,0,0-1.41-.6,1.93,1.93,0,0,0-1.18.38,3.2,3.2,0,0,0-1,1.41,7.36,7.36,0,0,0-.4,2.65,3.25,3.25,0,0,1,1.24-1.15,3.34,3.34,0,0,1,1.54-.37,3.19,3.19,0,0,1,2.39,1,3.72,3.72,0,0,1,1,2.68,4.41,4.41,0,0,1-.46,2,3.4,3.4,0,0,1-1.28,1.42,3.49,3.49,0,0,1-1.84.49,3.6,3.6,0,0,1-2.87-1.29,6.52,6.52,0,0,1-1.11-4.26q0-3.32,1.23-4.83a3.52,3.52,0,0,1,2.88-1.31,3.07,3.07,0,0,1,3.25,2.85ZM755.77,127a3.26,3.26,0,0,0,.31,1.39,2.29,2.29,0,0,0,.86,1,2.16,2.16,0,0,0,1.16.35,2,2,0,0,0,1.53-.72,2.83,2.83,0,0,0,.64-2,2.65,2.65,0,0,0-.63-1.87,2.08,2.08,0,0,0-1.59-.68,2.17,2.17,0,0,0-1.62.68A2.46,2.46,0,0,0,755.77,127Z" style="fill:#00fb00"/><path d="M763.32,128l1.35-.13a2.34,2.34,0,0,0,.66,1.38,1.8,1.8,0,0,0,1.24.43,2.14,2.14,0,0,0,1.14-.3,2.43,2.43,0,0,0,.8-.79,4.67,4.67,0,0,0,.52-1.34,7.06,7.06,0,0,0,.21-1.72c0-.06,0-.16,0-.28a3.22,3.22,0,0,1-1.15,1.09,3.13,3.13,0,0,1-1.58.42,3.2,3.2,0,0,1-2.41-1,3.77,3.77,0,0,1-1-2.72,3.86,3.86,0,0,1,1-2.8,3.43,3.43,0,0,1,2.57-1.06,3.67,3.67,0,0,1,2,.6,3.76,3.76,0,0,1,1.41,1.71,8.45,8.45,0,0,1,.48,3.22,10.44,10.44,0,0,1-.48,3.5,4.1,4.1,0,0,1-1.42,2,3.67,3.67,0,0,1-2.21.68,3,3,0,0,1-3.22-2.84Zm5.76-5.05a2.75,2.75,0,0,0-.64-1.92,2,2,0,0,0-1.55-.71,2.14,2.14,0,0,0-1.63.77,2.84,2.84,0,0,0-.7,2,2.45,2.45,0,0,0,.66,1.78,2.17,2.17,0,0,0,1.63.68,2.09,2.09,0,0,0,1.61-.68A2.69,2.69,0,0,0,769.08,123Z" style="fill:#00fb00"/><path d="M34.86,150.67V139.21h7.73v1.35H36.38v3.55h5.38v1.35H36.38v5.2Z" style="fill:#00fb00"/><path d="M49.79,149.64a5.22,5.22,0,0,1-1.5.94,4.35,4.35,0,0,1-1.55.27,3,3,0,0,1-2.1-.67,2.21,2.21,0,0,1-.73-1.71,2.27,2.27,0,0,1,.28-1.11,2.31,2.31,0,0,1,.73-.81,3.43,3.43,0,0,1,1-.46,10.14,10.14,0,0,1,1.25-.21,12.83,12.83,0,0,0,2.51-.48c0-.19,0-.31,0-.37a1.55,1.55,0,0,0-.4-1.21,2.35,2.35,0,0,0-1.6-.48,2.49,2.49,0,0,0-1.46.35,2.13,2.13,0,0,0-.7,1.23l-1.37-.19a3.41,3.41,0,0,1,.62-1.43,2.71,2.71,0,0,1,1.24-.84,5.54,5.54,0,0,1,1.88-.29,5,5,0,0,1,1.73.25,2.27,2.27,0,0,1,1,.63,2.2,2.2,0,0,1,.44,1,7.92,7.92,0,0,1,.07,1.3v1.88a20,20,0,0,0,.09,2.48,3.15,3.15,0,0,0,.36,1H50.07A3,3,0,0,1,49.79,149.64Zm-.12-3.14a10.27,10.27,0,0,1-2.3.53,5.34,5.34,0,0,0-1.23.28,1.23,1.23,0,0,0-.55.46,1.24,1.24,0,0,0,.23,1.61,1.83,1.83,0,0,0,1.25.38,2.9,2.9,0,0,0,1.45-.36,2.18,2.18,0,0,0,.93-1,3.39,3.39,0,0,0,.23-1.41Z" style="fill:#00fb00"/><path d="M58.69,147.63l1.38.18A3.58,3.58,0,0,1,58.91,150a3.38,3.38,0,0,1-2.29.81,3.56,3.56,0,0,1-2.74-1.11,4.52,4.52,0,0,1-1-3.19,5.78,5.78,0,0,1,.45-2.35,3.11,3.11,0,0,1,1.36-1.51,4,4,0,0,1,2-.5,3.44,3.44,0,0,1,2.21.68,3.13,3.13,0,0,1,1.1,1.94l-1.37.21a2.27,2.27,0,0,0-.69-1.26,1.79,1.79,0,0,0-1.2-.42,2.18,2.18,0,0,0-1.73.76,3.62,3.62,0,0,0-.66,2.41,3.74,3.74,0,0,0,.64,2.43,2.09,2.09,0,0,0,1.67.76,2,2,0,0,0,1.38-.51A2.52,2.52,0,0,0,58.69,147.63Z" style="fill:#00fb00"/><path d="M61.28,140.83v-1.62h1.41v1.62Zm0,9.84v-8.3h1.41v8.3Z" style="fill:#00fb00"/><path d="M64.8,150.67V139.21h1.41v11.45Z" style="fill:#00fb00"/><path d="M68.39,140.83v-1.62H69.8v1.62Zm0,9.84v-8.3H69.8v8.3Z" style="fill:#00fb00"/><path d="M75,149.41l.2,1.24a5.24,5.24,0,0,1-1.06.13,2.41,2.41,0,0,1-1.19-.24,1.36,1.36,0,0,1-.59-.64,5,5,0,0,1-.17-1.66v-4.77h-1v-1.09h1v-2.05l1.4-.84v2.9H75v1.09H73.6v4.85a2.47,2.47,0,0,0,.07.77.59.59,0,0,0,.24.27.94.94,0,0,0,.48.1A4.54,4.54,0,0,0,75,149.41Z" style="fill:#00fb00"/><path d="M76.39,140.83v-1.62H77.8v1.62Zm0,9.84v-8.3H77.8v8.3Z" style="fill:#00fb00"/><path d="M85.62,148l1.45.18a3.54,3.54,0,0,1-1.27,2,4.31,4.31,0,0,1-5.26-.42,4.38,4.38,0,0,1-1.07-3.14,4.59,4.59,0,0,1,1.08-3.25,3.65,3.65,0,0,1,2.8-1.16,3.55,3.55,0,0,1,2.72,1.13,4.5,4.5,0,0,1,1.05,3.19c0,.08,0,.21,0,.38H80.92A3.19,3.19,0,0,0,81.7,149a2.3,2.3,0,0,0,1.73.73,2.15,2.15,0,0,0,1.32-.41A2.69,2.69,0,0,0,85.62,148ZM81,145.72h4.63a2.81,2.81,0,0,0-.53-1.57,2.15,2.15,0,0,0-1.74-.81,2.24,2.24,0,0,0-1.63.65A2.57,2.57,0,0,0,81,145.72Z" style="fill:#00fb00"/><path d="M88.28,148.19l1.39-.22a1.94,1.94,0,0,0,.65,1.28,2.27,2.27,0,0,0,1.5.45,2.2,2.2,0,0,0,1.44-.39,1.18,1.18,0,0,0,.47-.93.85.85,0,0,0-.41-.75,6.1,6.1,0,0,0-1.44-.48,13.07,13.07,0,0,1-2.14-.68,2,2,0,0,1-1.21-1.9,2.14,2.14,0,0,1,.25-1,2.29,2.29,0,0,1,.69-.79,2.92,2.92,0,0,1,.89-.41,4.26,4.26,0,0,1,1.21-.17,4.8,4.8,0,0,1,1.71.28,2.33,2.33,0,0,1,1.09.76,3,3,0,0,1,.48,1.29l-1.37.19a1.5,1.5,0,0,0-.54-1,2,2,0,0,0-1.27-.36,2.3,2.3,0,0,0-1.38.32.94.94,0,0,0-.41.75.78.78,0,0,0,.17.49,1.24,1.24,0,0,0,.54.38q.21.08,1.24.36a17.29,17.29,0,0,1,2.08.65,2.11,2.11,0,0,1,.93.74,2.06,2.06,0,0,1,.34,1.2,2.36,2.36,0,0,1-.41,1.32,2.65,2.65,0,0,1-1.18,1,4.31,4.31,0,0,1-1.75.34,3.9,3.9,0,0,1-2.46-.67A3.13,3.13,0,0,1,88.28,148.19Z" style="fill:#00fb00"/><path d="M223.39,150.67v-2.74h-5v-1.29l5.23-7.42h1.15v7.42h1.55v1.29h-1.55v2.74Zm0-4v-5.16l-3.59,5.16Z"/><path d="M301.51,150.67h-1.41v-9a7.28,7.28,0,0,1-1.33,1,9.4,9.4,0,0,1-1.48.73V142a8.49,8.49,0,0,0,2.06-1.34,5.3,5.3,0,0,0,1.25-1.53h.91Z"/><path d="M376.18,150.67h-1.41v-9a7.21,7.21,0,0,1-1.33,1,9.36,9.36,0,0,1-1.48.73V142A8.45,8.45,0,0,0,374,140.7a5.26,5.26,0,0,0,1.25-1.53h.91Z"/><path d="M454.94,149.31v1.35h-7.57a2.48,2.48,0,0,1,.16-1,5.15,5.15,0,0,1,.93-1.52,14.55,14.55,0,0,1,1.84-1.73,15.55,15.55,0,0,0,2.52-2.43,2.9,2.9,0,0,0,.66-1.69,1.88,1.88,0,0,0-.6-1.41,2.16,2.16,0,0,0-1.56-.57,2.2,2.2,0,0,0-1.62.61,2.3,2.3,0,0,0-.62,1.69l-1.45-.15a3.56,3.56,0,0,1,1.12-2.46,3.81,3.81,0,0,1,2.6-.85,3.63,3.63,0,0,1,2.61.91,3,3,0,0,1,1,2.27,3.43,3.43,0,0,1-.28,1.35,5.25,5.25,0,0,1-.93,1.4,22.62,22.62,0,0,1-2.17,2q-1.27,1.06-1.62,1.44a4.67,4.67,0,0,0-.59.76Z"/><path d="M530.84,150.67h-1.41v-9a7.25,7.25,0,0,1-1.33,1,9.4,9.4,0,0,1-1.48.73V142a8.49,8.49,0,0,0,2.06-1.34,5.28,5.28,0,0,0,1.25-1.53h.91Z"/><path d="M606.84,150.67h-1.41v-9a7.25,7.25,0,0,1-1.33,1,9.4,9.4,0,0,1-1.48.73V142a8.49,8.49,0,0,0,2.06-1.34,5.28,5.28,0,0,0,1.25-1.53h.91Z"/><path d="M677.64,140.71v-1.35h7.41v1.09a15.62,15.62,0,0,0-2.17,3.09,18.86,18.86,0,0,0-1.66,4,14.75,14.75,0,0,0-.54,3.15h-1.45a14,14,0,0,1,.53-3.27,17.17,17.17,0,0,1,1.46-3.69,15.82,15.82,0,0,1,2-3Z"/><path d="M60.29,166.65l1.52.38a5.09,5.09,0,0,1-1.71,2.85,4.72,4.72,0,0,1-3,1,5.44,5.44,0,0,1-3-.75,4.71,4.71,0,0,1-1.77-2.18,7.8,7.8,0,0,1-.61-3.07,6.76,6.76,0,0,1,.68-3.12,4.69,4.69,0,0,1,1.95-2,5.69,5.69,0,0,1,2.78-.69,4.7,4.7,0,0,1,2.89.88,4.54,4.54,0,0,1,1.63,2.46l-1.49.35A3.54,3.54,0,0,0,59,160.89a3.08,3.08,0,0,0-1.91-.57,3.7,3.7,0,0,0-2.21.63,3.35,3.35,0,0,0-1.25,1.7,6.85,6.85,0,0,0-.36,2.2,7,7,0,0,0,.43,2.55A3.17,3.17,0,0,0,55,169a3.72,3.72,0,0,0,1.95.54,3.26,3.26,0,0,0,2.16-.73A3.75,3.75,0,0,0,60.29,166.65Z" style="fill:#00fb00"/><path d="M68.91,169.64a5.22,5.22,0,0,1-1.5.94,4.35,4.35,0,0,1-1.55.27,3,3,0,0,1-2.1-.67,2.21,2.21,0,0,1-.73-1.71,2.27,2.27,0,0,1,.28-1.11,2.31,2.31,0,0,1,.73-.81,3.43,3.43,0,0,1,1-.46,10.14,10.14,0,0,1,1.25-.21,12.83,12.83,0,0,0,2.51-.48c0-.19,0-.31,0-.37a1.55,1.55,0,0,0-.4-1.21,2.35,2.35,0,0,0-1.6-.48,2.49,2.49,0,0,0-1.46.35,2.13,2.13,0,0,0-.7,1.23l-1.38-.19a3.41,3.41,0,0,1,.62-1.43,2.71,2.71,0,0,1,1.24-.84,5.54,5.54,0,0,1,1.88-.29,5,5,0,0,1,1.73.25,2.27,2.27,0,0,1,1,.63,2.2,2.2,0,0,1,.44,1,7.92,7.92,0,0,1,.07,1.3v1.88a20,20,0,0,0,.09,2.48,3.15,3.15,0,0,0,.36,1H69.19A3,3,0,0,1,68.91,169.64Zm-.12-3.14a10.27,10.27,0,0,1-2.3.53,5.34,5.34,0,0,0-1.23.28,1.23,1.23,0,0,0-.55.46,1.24,1.24,0,0,0,.23,1.61,1.83,1.83,0,0,0,1.25.38,2.9,2.9,0,0,0,1.45-.36,2.18,2.18,0,0,0,.93-1,3.39,3.39,0,0,0,.23-1.41Z" style="fill:#00fb00"/><path d="M72.36,170.67V159.21h1.41v11.45Z" style="fill:#00fb00"/><path d="M75.92,170.67V159.21h1.41v11.45Z" style="fill:#00fb00"/><path d="M301.51,170.67h-1.41v-9a7.28,7.28,0,0,1-1.33,1,9.4,9.4,0,0,1-1.48.73V162a8.49,8.49,0,0,0,2.06-1.34,5.3,5.3,0,0,0,1.25-1.53h.91Z"/><path d="M36.81,190.67v-10.1H33v-1.35h9.08v1.35H38.33v10.1Z" style="fill:#00fb00"/><path d="M42.88,190.67v-8.3h1.27v1.26a3.44,3.44,0,0,1,.89-1.16,1.56,1.56,0,0,1,.9-.28,2.74,2.74,0,0,1,1.45.45l-.48,1.3a2,2,0,0,0-1-.3,1.34,1.34,0,0,0-.83.28,1.51,1.51,0,0,0-.52.77,5.48,5.48,0,0,0-.23,1.64v4.34Z" style="fill:#00fb00"/><path d="M53.64,189.64a5.22,5.22,0,0,1-1.5.94,4.35,4.35,0,0,1-1.55.27,3,3,0,0,1-2.1-.67,2.21,2.21,0,0,1-.73-1.71,2.27,2.27,0,0,1,.28-1.11,2.31,2.31,0,0,1,.73-.81,3.43,3.43,0,0,1,1-.46,10.14,10.14,0,0,1,1.25-.21,12.83,12.83,0,0,0,2.51-.48c0-.19,0-.31,0-.37a1.55,1.55,0,0,0-.4-1.21,2.35,2.35,0,0,0-1.6-.48,2.49,2.49,0,0,0-1.46.35,2.13,2.13,0,0,0-.7,1.23L48,184.74a3.41,3.41,0,0,1,.62-1.43,2.71,2.71,0,0,1,1.24-.84,5.54,5.54,0,0,1,1.88-.29,5,5,0,0,1,1.73.25,2.27,2.27,0,0,1,1,.63,2.2,2.2,0,0,1,.44,1,7.92,7.92,0,0,1,.07,1.3v1.88a20,20,0,0,0,.09,2.48,3.15,3.15,0,0,0,.36,1H53.92A3,3,0,0,1,53.64,189.64Zm-.12-3.14a10.27,10.27,0,0,1-2.3.53,5.34,5.34,0,0,0-1.23.28,1.23,1.23,0,0,0-.55.46,1.24,1.24,0,0,0,.23,1.61,1.83,1.83,0,0,0,1.25.38,2.9,2.9,0,0,0,1.45-.36,2.18,2.18,0,0,0,.93-1,3.39,3.39,0,0,0,.23-1.41Z" style="fill:#00fb00"/><path d="M57.13,190.67v-8.3h1.27v1.18A3,3,0,0,1,61,182.18a3.46,3.46,0,0,1,1.38.27,2.16,2.16,0,0,1,.94.71,2.7,2.7,0,0,1,.44,1,8,8,0,0,1,.08,1.37v5.1H62.46v-5a3.79,3.79,0,0,0-.16-1.29,1.35,1.35,0,0,0-.58-.68,1.85,1.85,0,0,0-1-.25,2.28,2.28,0,0,0-1.55.57,2.81,2.81,0,0,0-.65,2.16v4.53Z" style="fill:#00fb00"/><path d="M65.46,188.19l1.39-.22a1.94,1.94,0,0,0,.65,1.28,2.27,2.27,0,0,0,1.5.45,2.2,2.2,0,0,0,1.44-.39,1.18,1.18,0,0,0,.47-.93.85.85,0,0,0-.41-.75,6.1,6.1,0,0,0-1.44-.48,13.07,13.07,0,0,1-2.14-.68,2,2,0,0,1-1.21-1.9,2.14,2.14,0,0,1,.25-1,2.29,2.29,0,0,1,.69-.79,2.92,2.92,0,0,1,.89-.41,4.26,4.26,0,0,1,1.21-.17,4.8,4.8,0,0,1,1.71.28,2.33,2.33,0,0,1,1.09.76,3,3,0,0,1,.48,1.29l-1.37.19a1.5,1.5,0,0,0-.54-1,2,2,0,0,0-1.27-.36,2.3,2.3,0,0,0-1.38.32.94.94,0,0,0-.41.75.78.78,0,0,0,.17.49,1.24,1.24,0,0,0,.54.38q.21.08,1.24.36a17.29,17.29,0,0,1,2.08.65A2.11,2.11,0,0,1,72,187a2.06,2.06,0,0,1,.34,1.2,2.36,2.36,0,0,1-.41,1.32,2.65,2.65,0,0,1-1.18,1,4.31,4.31,0,0,1-1.75.34,3.9,3.9,0,0,1-2.46-.67A3.13,3.13,0,0,1,65.46,188.19Z" style="fill:#00fb00"/><path d="M74,193.85V182.37h1.28v1.08a3.17,3.17,0,0,1,1-.95,2.82,2.82,0,0,1,1.38-.32,3.28,3.28,0,0,1,1.88.55,3.35,3.35,0,0,1,1.23,1.54,5.63,5.63,0,0,1,.41,2.18,5.55,5.55,0,0,1-.46,2.29,3.47,3.47,0,0,1-3.16,2.11,2.65,2.65,0,0,1-1.26-.3,2.88,2.88,0,0,1-.92-.75v4Zm1.27-7.28a3.61,3.61,0,0,0,.65,2.37,2,2,0,0,0,1.57.77,2,2,0,0,0,1.61-.79,3.76,3.76,0,0,0,.67-2.46,3.66,3.66,0,0,0-.65-2.37,2,2,0,0,0-1.56-.79,2,2,0,0,0-1.59.84A3.76,3.76,0,0,0,75.3,186.56Z" style="fill:#00fb00"/><path d="M82.4,186.52a4.28,4.28,0,0,1,1.28-3.41,3.86,3.86,0,0,1,2.61-.92,3.72,3.72,0,0,1,2.8,1.12,4.26,4.26,0,0,1,1.09,3.1,5.49,5.49,0,0,1-.48,2.52,3.4,3.4,0,0,1-1.4,1.43,4.07,4.07,0,0,1-2,.51,3.73,3.73,0,0,1-2.82-1.12A4.46,4.46,0,0,1,82.4,186.52Zm1.45,0a3.54,3.54,0,0,0,.7,2.39,2.32,2.32,0,0,0,3.49,0,3.62,3.62,0,0,0,.7-2.43,3.43,3.43,0,0,0-.7-2.33,2.32,2.32,0,0,0-3.49,0A3.52,3.52,0,0,0,83.85,186.52Z" style="fill:#00fb00"/><path d="M91.81,190.67v-8.3h1.27v1.26a3.44,3.44,0,0,1,.89-1.16,1.56,1.56,0,0,1,.9-.28,2.74,2.74,0,0,1,1.45.45l-.48,1.3a2,2,0,0,0-1-.3,1.34,1.34,0,0,0-.83.28,1.51,1.51,0,0,0-.52.77,5.48,5.48,0,0,0-.23,1.64v4.34Z" style="fill:#00fb00"/><path d="M100.22,189.41l.2,1.24a5.24,5.24,0,0,1-1.06.13,2.41,2.41,0,0,1-1.19-.24,1.36,1.36,0,0,1-.59-.64,5,5,0,0,1-.17-1.66v-4.77h-1v-1.09h1v-2.05l1.4-.84v2.9h1.41v1.09H98.81v4.85a2.47,2.47,0,0,0,.07.77.59.59,0,0,0,.24.27.94.94,0,0,0,.48.1A4.54,4.54,0,0,0,100.22,189.41Z" style="fill:#00fb00"/><path d="M5.65,55.67l3.57-9.31h1.33l3.81,9.31H13l-1.08-2.82H8L7,55.67Zm2.68-3.82h3.16l-1-2.58q-.44-1.17-.66-1.93a11.83,11.83,0,0,1-.5,1.78Z" style="fill:#00fb00"/><path d="M22,52.4l1.23.31A4.15,4.15,0,0,1,21.82,55a3.84,3.84,0,0,1-2.46.8,4.41,4.41,0,0,1-2.45-.61,3.82,3.82,0,0,1-1.44-1.77A6.33,6.33,0,0,1,15,50.94a5.47,5.47,0,0,1,.56-2.54,3.8,3.8,0,0,1,1.58-1.64,4.61,4.61,0,0,1,2.26-.56,3.82,3.82,0,0,1,2.35.71,3.69,3.69,0,0,1,1.33,2l-1.21.29a2.87,2.87,0,0,0-.94-1.48,2.5,2.5,0,0,0-1.55-.46,3,3,0,0,0-1.79.51,2.71,2.71,0,0,0-1,1.38,5.54,5.54,0,0,0-.29,1.79A5.68,5.68,0,0,0,16.6,53a2.58,2.58,0,0,0,1.08,1.32,3,3,0,0,0,1.58.44,2.65,2.65,0,0,0,1.75-.6A3.06,3.06,0,0,0,22,52.4Z" style="fill:#00fb00"/><path d="M27.1,55.67V47.46H24v-1.1h7.38v1.1H28.33v8.21Z" style="fill:#00fb00"/><path d="M38.78,46.36H40v5.38A6.35,6.35,0,0,1,39.69,54a2.72,2.72,0,0,1-1.14,1.34,4.06,4.06,0,0,1-2.17.52,4.47,4.47,0,0,1-2.14-.45A2.58,2.58,0,0,1,33,54.07a6.21,6.21,0,0,1-.36-2.33V46.36h1.23v5.37a5.26,5.26,0,0,0,.22,1.79,1.71,1.71,0,0,0,.78.89,2.68,2.68,0,0,0,1.34.31,2.57,2.57,0,0,0,1.94-.62,3.54,3.54,0,0,0,.58-2.37Z" style="fill:#00fb00"/><path d="M41,55.67l3.57-9.31h1.33l3.81,9.31h-1.4l-1.09-2.82H43.37l-1,2.82Zm2.69-3.82h3.15l-1-2.58q-.45-1.17-.66-1.93a11.83,11.83,0,0,1-.5,1.78Z" style="fill:#00fb00"/><path d="M50.68,55.67V46.36h1.23v8.21h4.58v1.1Z" style="fill:#00fb00"/><path d="M119.18,55.67H118V48.39a5.85,5.85,0,0,1-1.08.79,7.7,7.7,0,0,1-1.2.59v-1.1a6.88,6.88,0,0,0,1.68-1.09,4.28,4.28,0,0,0,1-1.24h.74Z" style="fill:#00fb00"/><path d="M122.18,47.58v-1.1h6v.89a12.68,12.68,0,0,0-1.76,2.51,15.36,15.36,0,0,0-1.35,3.22,12,12,0,0,0-.44,2.56h-1.17a11.33,11.33,0,0,1,.43-2.65,13.92,13.92,0,0,1,1.18-3,12.82,12.82,0,0,1,1.64-2.43Z" style="fill:#00fb00"/><path d="M129.5,53.51l1.1-.1a1.92,1.92,0,0,0,.53,1.12,1.47,1.47,0,0,0,1,.35,1.74,1.74,0,0,0,.92-.24,2,2,0,0,0,.65-.64,3.8,3.8,0,0,0,.43-1.09,5.78,5.78,0,0,0,.17-1.4c0-.05,0-.13,0-.23a2.62,2.62,0,0,1-.94.89,2.55,2.55,0,0,1-1.29.34,2.6,2.6,0,0,1-2-.84,3.07,3.07,0,0,1-.8-2.21,3.14,3.14,0,0,1,.83-2.28,2.79,2.79,0,0,1,2.09-.86,3,3,0,0,1,1.66.49,3.06,3.06,0,0,1,1.14,1.39,6.88,6.88,0,0,1,.39,2.62,8.48,8.48,0,0,1-.39,2.84,3.32,3.32,0,0,1-1.15,1.61,3,3,0,0,1-1.79.55,2.46,2.46,0,0,1-2.62-2.31Zm4.68-4.11a2.24,2.24,0,0,0-.52-1.56,1.64,1.64,0,0,0-1.26-.58,1.74,1.74,0,0,0-1.33.62,2.3,2.3,0,0,0-.57,1.61,2,2,0,0,0,.54,1.44,1.77,1.77,0,0,0,1.32.56,1.69,1.69,0,0,0,1.3-.56A2.19,2.19,0,0,0,134.18,49.41Z" style="fill:#00fb00"/><path d="M655.13,17.67v-10h1.33v8.84h4.94v1.18Z" style="fill:#f5f500"/><path d="M667.55,16.77a4.59,4.59,0,0,1-1.32.82,3.8,3.8,0,0,1-1.36.24,2.64,2.64,0,0,1-1.84-.58,1.93,1.93,0,0,1-.64-1.49,2,2,0,0,1,.88-1.68,3,3,0,0,1,.88-.4,8.76,8.76,0,0,1,1.09-.18,11.27,11.27,0,0,0,2.2-.42c0-.17,0-.28,0-.32a1.36,1.36,0,0,0-.35-1.06,2.06,2.06,0,0,0-1.4-.42,2.17,2.17,0,0,0-1.28.3,1.86,1.86,0,0,0-.61,1.08l-1.2-.16a3,3,0,0,1,.54-1.25,2.37,2.37,0,0,1,1.09-.73,4.84,4.84,0,0,1,1.65-.26,4.36,4.36,0,0,1,1.51.22,2,2,0,0,1,.85.55,1.92,1.92,0,0,1,.38.84A6.89,6.89,0,0,1,668.7,13v1.64a17.38,17.38,0,0,0,.08,2.17,2.76,2.76,0,0,0,.31.87H667.8A2.64,2.64,0,0,1,667.55,16.77Zm-.1-2.75a9,9,0,0,1-2,.46,4.65,4.65,0,0,0-1.07.25,1.07,1.07,0,0,0-.48.4,1.09,1.09,0,0,0,.2,1.4,1.6,1.6,0,0,0,1.09.33,2.54,2.54,0,0,0,1.27-.31,1.91,1.91,0,0,0,.81-.85,3,3,0,0,0,.2-1.23Z" style="fill:#f5f500"/><path d="M670.11,15.5l1.22-.19a1.7,1.7,0,0,0,.57,1.12,2,2,0,0,0,1.31.39,1.93,1.93,0,0,0,1.26-.35,1,1,0,0,0,.41-.81.75.75,0,0,0-.36-.66,5.32,5.32,0,0,0-1.26-.42,11.47,11.47,0,0,1-1.88-.59,1.79,1.79,0,0,1-1.06-1.66,1.87,1.87,0,0,1,.22-.9,2,2,0,0,1,.61-.69,2.53,2.53,0,0,1,.78-.36,3.72,3.72,0,0,1,1.06-.15,4.2,4.2,0,0,1,1.5.25,2,2,0,0,1,1,.67,2.6,2.6,0,0,1,.42,1.12l-1.2.16a1.32,1.32,0,0,0-.47-.87,1.74,1.74,0,0,0-1.11-.31,2,2,0,0,0-1.21.28.82.82,0,0,0-.36.66.68.68,0,0,0,.15.43,1.08,1.08,0,0,0,.47.33q.18.07,1.09.31a15.12,15.12,0,0,1,1.82.57,1.85,1.85,0,0,1,.81.65,1.81,1.81,0,0,1,.29,1.05,2.07,2.07,0,0,1-.36,1.16,2.32,2.32,0,0,1-1,.84,3.77,3.77,0,0,1-1.53.3,3.41,3.41,0,0,1-2.16-.59A2.74,2.74,0,0,1,670.11,15.5Z" style="fill:#f5f500"/><path d="M680.29,16.57l.18,1.09a4.58,4.58,0,0,1-.93.11,2.1,2.1,0,0,1-1-.21A1.18,1.18,0,0,1,678,17a4.4,4.4,0,0,1-.15-1.45V11.36h-.9v-1h.9V8.61l1.22-.74v2.54h1.24v1h-1.24v4.25a2.12,2.12,0,0,0,.07.68.52.52,0,0,0,.21.24.82.82,0,0,0,.42.09A4,4,0,0,0,680.29,16.57Z" style="fill:#f5f500"/><path d="M692.12,7.65h1.33v5.79a6.86,6.86,0,0,1-.34,2.4,2.93,2.93,0,0,1-1.23,1.45,4.37,4.37,0,0,1-2.34.56,4.81,4.81,0,0,1-2.3-.49,2.77,2.77,0,0,1-1.28-1.4,6.7,6.7,0,0,1-.38-2.51V7.65h1.33v5.78a5.65,5.65,0,0,0,.24,1.92,1.84,1.84,0,0,0,.83,1,2.89,2.89,0,0,0,1.45.33,2.76,2.76,0,0,0,2.08-.66,3.82,3.82,0,0,0,.62-2.55Z" style="fill:#f5f500"/><path d="M695.49,20.45v-10h1.12v.94a2.76,2.76,0,0,1,.89-.83,2.46,2.46,0,0,1,1.21-.28,2.87,2.87,0,0,1,1.64.48,2.93,2.93,0,0,1,1.07,1.35A4.92,4.92,0,0,1,701.8,14a4.85,4.85,0,0,1-.4,2,3,3,0,0,1-1.16,1.37,3,3,0,0,1-1.6.48,2.31,2.31,0,0,1-1.1-.26,2.51,2.51,0,0,1-.8-.66v3.53Zm1.11-6.37a3.15,3.15,0,0,0,.57,2.07,1.74,1.74,0,0,0,1.37.67,1.78,1.78,0,0,0,1.41-.69,3.29,3.29,0,0,0,.58-2.15A3.21,3.21,0,0,0,700,11.9a1.72,1.72,0,0,0-1.36-.69,1.77,1.77,0,0,0-1.39.73A3.29,3.29,0,0,0,696.61,14.08Z" style="fill:#f5f500"/><path d="M708,17.67v-.92a2.26,2.26,0,0,1-2,1.08,2.85,2.85,0,0,1-1.6-.48A3.15,3.15,0,0,1,703.24,16a4.62,4.62,0,0,1-.4-2,5.17,5.17,0,0,1,.36-2,2.86,2.86,0,0,1,1.09-1.36,2.9,2.9,0,0,1,1.62-.47,2.42,2.42,0,0,1,2,1V7.65h1.22v10ZM704.1,14a3.15,3.15,0,0,0,.59,2.08,1.77,1.77,0,0,0,1.39.69,1.74,1.74,0,0,0,1.37-.66,3,3,0,0,0,.56-2,3.41,3.41,0,0,0-.57-2.19,1.76,1.76,0,0,0-1.41-.7,1.71,1.71,0,0,0-1.37.67A3.3,3.3,0,0,0,704.1,14Z" style="fill:#f5f500"/><path d="M715.8,16.77a4.59,4.59,0,0,1-1.32.82,3.8,3.8,0,0,1-1.36.24,2.64,2.64,0,0,1-1.84-.58,1.93,1.93,0,0,1-.64-1.49,2,2,0,0,1,.88-1.68,3,3,0,0,1,.88-.4,8.76,8.76,0,0,1,1.09-.18,11.27,11.27,0,0,0,2.2-.42c0-.17,0-.28,0-.32a1.36,1.36,0,0,0-.35-1.06,2.06,2.06,0,0,0-1.4-.42,2.17,2.17,0,0,0-1.28.3,1.86,1.86,0,0,0-.61,1.08l-1.2-.16a3,3,0,0,1,.54-1.25,2.37,2.37,0,0,1,1.09-.73,4.84,4.84,0,0,1,1.65-.26,4.36,4.36,0,0,1,1.51.22,2,2,0,0,1,.85.55,1.92,1.92,0,0,1,.38.84,6.89,6.89,0,0,1,.06,1.13v1.64a17.38,17.38,0,0,0,.08,2.17,2.76,2.76,0,0,0,.31.87H716A2.64,2.64,0,0,1,715.8,16.77ZM715.7,14a9,9,0,0,1-2,.46,4.65,4.65,0,0,0-1.07.25,1.07,1.07,0,0,0-.48.4,1.09,1.09,0,0,0,.2,1.4,1.6,1.6,0,0,0,1.09.33,2.54,2.54,0,0,0,1.27-.31,1.91,1.91,0,0,0,.81-.85,3,3,0,0,0,.2-1.23Z" style="fill:#f5f500"/><path d="M721.54,16.57l.18,1.09a4.58,4.58,0,0,1-.93.11,2.1,2.1,0,0,1-1-.21,1.18,1.18,0,0,1-.52-.56,4.4,4.4,0,0,1-.15-1.45V11.36h-.9v-1h.9V8.61l1.22-.74v2.54h1.24v1H720.3v4.25a2.12,2.12,0,0,0,.07.68.52.52,0,0,0,.21.24.82.82,0,0,0,.42.09A4,4,0,0,0,721.54,16.57Z" style="fill:#f5f500"/><path d="M727.71,15.33l1.27.16a3.1,3.1,0,0,1-1.11,1.73,3.78,3.78,0,0,1-4.6-.37,3.83,3.83,0,0,1-.93-2.75,4,4,0,0,1,.94-2.84,3.19,3.19,0,0,1,2.45-1,3.1,3.1,0,0,1,2.38,1A3.94,3.94,0,0,1,729,14q0,.11,0,.33H723.6a2.79,2.79,0,0,0,.68,1.83,2,2,0,0,0,1.52.64,1.89,1.89,0,0,0,1.16-.36A2.36,2.36,0,0,0,727.71,15.33Zm-4-2h4.05a2.45,2.45,0,0,0-.46-1.37,1.88,1.88,0,0,0-1.52-.71,2,2,0,0,0-1.43.57A2.25,2.25,0,0,0,723.67,13.34Z" style="fill:#f5f500"/><path d="M735.24,17.67v-.92a2.26,2.26,0,0,1-2,1.08,2.85,2.85,0,0,1-1.6-.48A3.15,3.15,0,0,1,730.48,16a4.62,4.62,0,0,1-.4-2,5.17,5.17,0,0,1,.36-2,2.86,2.86,0,0,1,1.09-1.36,2.9,2.9,0,0,1,1.62-.47,2.42,2.42,0,0,1,2,1V7.65h1.22v10ZM731.35,14a3.15,3.15,0,0,0,.59,2.08,1.77,1.77,0,0,0,1.39.69,1.74,1.74,0,0,0,1.37-.66,3,3,0,0,0,.56-2,3.41,3.41,0,0,0-.57-2.19,1.76,1.76,0,0,0-1.41-.7,1.71,1.71,0,0,0-1.37.67A3.3,3.3,0,0,0,731.35,14Z" style="fill:#f5f500"/><path d="M738.66,11.81v-1.4h1.4v1.4Zm0,5.86v-1.4h1.4v1.4Z" style="fill:#f5f500"/><path d="M750.39,17.67h-1.23V9.83a6.4,6.4,0,0,1-1.17.85,8.22,8.22,0,0,1-1.29.64V10.12a7.46,7.46,0,0,0,1.8-1.18,4.64,4.64,0,0,0,1.09-1.34h.79Z" style="fill:#f5f500"/><path d="M757.48,17.67v-2.4h-4.35V14.14l4.57-6.49h1v6.49h1.35v1.13h-1.35v2.4Zm0-3.53V9.62l-3.14,4.52Z" style="fill:#f5f500"/><path d="M762,11.81v-1.4h1.4v1.4Zm0,5.86v-1.4h1.4v1.4Z" style="fill:#f5f500"/><path d="M769.85,17.67h-1.23V9.83a6.32,6.32,0,0,1-1.17.85,8.26,8.26,0,0,1-1.3.64V10.12A7.42,7.42,0,0,0,768,8.94a4.61,4.61,0,0,0,1.09-1.34h.79Z" style="fill:#f5f500"/><path d="M773,15l1.29-.11a2.32,2.32,0,0,0,.67,1.42,1.81,1.81,0,0,0,1.26.48,2,2,0,0,0,1.5-.67,2.52,2.52,0,0,0,.62-1.78,2.28,2.28,0,0,0-.59-1.66,2.06,2.06,0,0,0-1.55-.61,2.15,2.15,0,0,0-1.07.27,2.09,2.09,0,0,0-.75.7l-1.15-.15,1-5.15h5V9h-4l-.54,2.69a3.26,3.26,0,0,1,1.89-.63,3,3,0,0,1,2.21.91,3.18,3.18,0,0,1,.9,2.34,3.65,3.65,0,0,1-.79,2.35,3.18,3.18,0,0,1-2.63,1.22,3.24,3.24,0,0,1-2.23-.77A3,3,0,0,1,773,15Z" style="fill:#f5f500"/><path d="M781.47,11.81v-1.4h1.4v1.4Zm0,5.86v-1.4h1.4v1.4Z" style="fill:#f5f500"/><path d="M784.68,15l1.29-.11a2.32,2.32,0,0,0,.67,1.42,1.81,1.81,0,0,0,1.26.48,2,2,0,0,0,1.5-.67,2.52,2.52,0,0,0,.62-1.78,2.28,2.28,0,0,0-.59-1.66,2.06,2.06,0,0,0-1.55-.61,2.15,2.15,0,0,0-1.07.27,2.09,2.09,0,0,0-.75.7l-1.15-.15,1-5.15h5V9h-4l-.54,2.69A3.26,3.26,0,0,1,788.2,11a3,3,0,0,1,2.21.91,3.18,3.18,0,0,1,.9,2.34,3.65,3.65,0,0,1-.79,2.35,3.18,3.18,0,0,1-2.63,1.22,3.24,3.24,0,0,1-2.23-.77A3,3,0,0,1,784.68,15Z" style="fill:#f5f500"/><path d="M797.1,17.67h-1.23V9.83a6.32,6.32,0,0,1-1.17.85,8.26,8.26,0,0,1-1.3.64V10.12a7.42,7.42,0,0,0,1.8-1.18A4.61,4.61,0,0,0,796.3,7.6h.79Z" style="fill:#f5f500"/><path d="M163.24,341.8v-1.59h4.86v1.59Z" style="fill:red"/><path d="M169.54,341.8v-1.59h4.86v1.59Z" style="fill:red"/><path d="M175.84,341.8v-1.59h4.86v1.59Z" style="fill:red"/><path d="M163.47,372.53l1.61-.14a3.55,3.55,0,0,0,.53,1.59,2.9,2.9,0,0,0,1.3,1,4.9,4.9,0,0,0,2,.38,4.74,4.74,0,0,0,1.72-.29,2.39,2.39,0,0,0,1.11-.8,1.84,1.84,0,0,0,.36-1.1,1.68,1.68,0,0,0-.35-1.06,2.6,2.6,0,0,0-1.16-.76,22.63,22.63,0,0,0-2.29-.63,11.73,11.73,0,0,1-2.49-.8,3.49,3.49,0,0,1-1.37-1.2,2.94,2.94,0,0,1-.45-1.6,3.28,3.28,0,0,1,.55-1.82,3.43,3.43,0,0,1,1.62-1.29,6.13,6.13,0,0,1,2.36-.44A6.46,6.46,0,0,1,171,364a3.65,3.65,0,0,1,1.68,1.36,3.9,3.9,0,0,1,.63,2l-1.63.12a2.64,2.64,0,0,0-.89-1.85,3.47,3.47,0,0,0-2.25-.62,3.6,3.6,0,0,0-2.25.57,1.7,1.7,0,0,0-.71,1.37,1.46,1.46,0,0,0,.5,1.14,6.79,6.79,0,0,0,2.57.92,17,17,0,0,1,2.85.82,3.9,3.9,0,0,1,1.66,1.31,3.2,3.2,0,0,1,.54,1.83,3.51,3.51,0,0,1-.59,1.94,3.88,3.88,0,0,1-1.69,1.42,5.89,5.89,0,0,1-2.48.51,7.42,7.42,0,0,1-2.93-.51,4.11,4.11,0,0,1-1.85-1.53A4.35,4.35,0,0,1,163.47,372.53Z" style="fill:red"/><path d="M179.65,376.67V365.3H175.4v-1.52h10.21v1.52h-4.26v11.36Z" style="fill:red"/><path d="M184.92,376.67l4.95-12.88h1.84L197,376.67H195l-1.5-3.9h-5.39l-1.42,3.9Zm3.72-5.29H193l-1.34-3.57q-.62-1.63-.91-2.67a16.43,16.43,0,0,1-.69,2.46Z" style="fill:red"/><path d="M200.59,376.67V365.3h-4.24v-1.52h10.21v1.52h-4.26v11.36Z" style="fill:red"/><path d="M208.9,376.67V363.78h1.71v12.88Z" style="fill:red"/><path d="M213.4,370.39a7,7,0,0,1,1.72-5,5.86,5.86,0,0,1,4.45-1.81,6.17,6.17,0,0,1,3.22.85,5.57,5.57,0,0,1,2.18,2.38,7.73,7.73,0,0,1,.75,3.46,7.59,7.59,0,0,1-.79,3.51,5.4,5.4,0,0,1-2.24,2.34,6.4,6.4,0,0,1-3.13.8,6.09,6.09,0,0,1-3.25-.88,5.66,5.66,0,0,1-2.17-2.4A7.27,7.27,0,0,1,213.4,370.39Zm1.76,0a5.16,5.16,0,0,0,1.25,3.67,4.37,4.37,0,0,0,6.31,0,5.48,5.48,0,0,0,1.24-3.84,6.59,6.59,0,0,0-.53-2.75,4.08,4.08,0,0,0-1.55-1.82,4.22,4.22,0,0,0-2.3-.65,4.36,4.36,0,0,0-3.12,1.24Q215.15,367.51,215.16,370.42Z" style="fill:red"/><path d="M228.21,376.67V363.78H230l6.77,10.12V363.78h1.63v12.88h-1.75l-6.77-10.12v10.13Z" style="fill:red"/><path d="M240.71,372.8v-1.59h4.86v1.59Z" style="fill:red"/><path d="M253.15,376.67h-1.58V366.59a8.15,8.15,0,0,1-1.5,1.09,10.58,10.58,0,0,1-1.67.82V367a9.55,9.55,0,0,0,2.32-1.51,6,6,0,0,0,1.41-1.72h1Z" style="fill:red"/><path d="M262.13,376.67h-1.58V366.59a8.18,8.18,0,0,1-1.5,1.09,10.62,10.62,0,0,1-1.67.82V367a9.55,9.55,0,0,0,2.32-1.51,6,6,0,0,0,1.41-1.72h1Z" style="fill:red"/><path d="M274.69,366.94l-1.57.12a3,3,0,0,0-.6-1.35,2.09,2.09,0,0,0-1.58-.68,2.17,2.17,0,0,0-1.33.42,3.61,3.61,0,0,0-1.18,1.59,8.31,8.31,0,0,0-.45,3,3.67,3.67,0,0,1,1.4-1.29,3.76,3.76,0,0,1,1.73-.42,3.59,3.59,0,0,1,2.69,1.16,4.18,4.18,0,0,1,1.11,3,4.94,4.94,0,0,1-.52,2.25,3.8,3.8,0,0,1-1.44,1.6,3.92,3.92,0,0,1-2.07.55,4.05,4.05,0,0,1-3.23-1.45q-1.25-1.45-1.25-4.79,0-3.74,1.38-5.43a4,4,0,0,1,3.24-1.48,3.45,3.45,0,0,1,3.66,3.21Zm-6.46,5.55a3.68,3.68,0,0,0,.35,1.56,2.59,2.59,0,0,0,1,1.14,2.43,2.43,0,0,0,1.31.39,2.23,2.23,0,0,0,1.72-.81,3.18,3.18,0,0,0,.72-2.2,3,3,0,0,0-.71-2.1,2.34,2.34,0,0,0-1.79-.77,2.44,2.44,0,0,0-1.82.77A2.77,2.77,0,0,0,268.23,372.49Z" style="fill:red"/><path d="M276.8,370.31a11.79,11.79,0,0,1,.47-3.68,4.58,4.58,0,0,1,1.4-2.15,3.57,3.57,0,0,1,2.33-.76,3.81,3.81,0,0,1,1.82.42,3.48,3.48,0,0,1,1.29,1.2,6.46,6.46,0,0,1,.8,1.92,12.74,12.74,0,0,1,.29,3,11.83,11.83,0,0,1-.46,3.66,4.58,4.58,0,0,1-1.39,2.15,3.57,3.57,0,0,1-2.34.76,3.53,3.53,0,0,1-2.93-1.34Q276.8,373.94,276.8,370.31Zm1.63,0q0,3.17.74,4.22a2.12,2.12,0,0,0,3.67,0q.74-1.05.74-4.22t-.74-4.23a2.21,2.21,0,0,0-1.85-1,2,2,0,0,0-1.74.92Q278.43,367.14,278.43,370.31Z" style="fill:red"/><path d="M286.94,372.8v-1.59h4.86v1.59Z" style="fill:red"/><path d="M299.38,376.67h-1.58V366.59a8.21,8.21,0,0,1-1.5,1.09,10.67,10.67,0,0,1-1.67.82V367a9.55,9.55,0,0,0,2.32-1.51,6,6,0,0,0,1.41-1.72h1Z" style="fill:red"/><path d="M303.73,370.31a11.79,11.79,0,0,1,.47-3.68,4.58,4.58,0,0,1,1.4-2.15,3.57,3.57,0,0,1,2.33-.76,3.81,3.81,0,0,1,1.82.42,3.48,3.48,0,0,1,1.29,1.2,6.46,6.46,0,0,1,.8,1.92,12.74,12.74,0,0,1,.29,3,11.83,11.83,0,0,1-.46,3.66,4.58,4.58,0,0,1-1.39,2.15,3.57,3.57,0,0,1-2.34.76,3.53,3.53,0,0,1-2.93-1.34Q303.74,373.94,303.73,370.31Zm1.63,0q0,3.17.74,4.22a2.12,2.12,0,0,0,3.67,0q.74-1.05.74-4.22t-.74-4.23a2.21,2.21,0,0,0-1.85-1,2,2,0,0,0-1.74.92Q305.36,367.14,305.36,370.31Z" style="fill:red"/><path d="M314.05,370.31a11.79,11.79,0,0,1,.47-3.68,4.58,4.58,0,0,1,1.4-2.15,3.57,3.57,0,0,1,2.33-.76,3.81,3.81,0,0,1,1.82.42,3.48,3.48,0,0,1,1.29,1.2,6.46,6.46,0,0,1,.8,1.92,12.74,12.74,0,0,1,.29,3A11.83,11.83,0,0,1,322,374a4.58,4.58,0,0,1-1.39,2.15,3.57,3.57,0,0,1-2.34.76,3.53,3.53,0,0,1-2.93-1.34Q314.05,373.94,314.05,370.31Zm1.63,0q0,3.17.74,4.22a2.12,2.12,0,0,0,3.67,0q.74-1.05.74-4.22t-.74-4.23a2.21,2.21,0,0,0-1.85-1,2,2,0,0,0-1.74.92Q315.68,367.14,315.68,370.31Z" style="fill:red"/><path d="M323.35,380.24V379.1h10.49v1.14Z" style="fill:red"/><path d="M340.64,376.67h-1.58V366.59a8.18,8.18,0,0,1-1.5,1.09,10.62,10.62,0,0,1-1.67.82V367a9.55,9.55,0,0,0,2.32-1.51,6,6,0,0,0,1.41-1.72h1Z" style="fill:red"/><path d="M345,370.31a11.79,11.79,0,0,1,.47-3.68,4.58,4.58,0,0,1,1.4-2.15,3.57,3.57,0,0,1,2.33-.76,3.8,3.8,0,0,1,1.82.42,3.48,3.48,0,0,1,1.29,1.2,6.46,6.46,0,0,1,.8,1.92,12.72,12.72,0,0,1,.29,3,11.82,11.82,0,0,1-.47,3.66,4.58,4.58,0,0,1-1.39,2.15,3.92,3.92,0,0,1-5.27-.58Q345,373.94,345,370.31Zm1.63,0q0,3.17.74,4.22a2.12,2.12,0,0,0,3.67,0q.74-1.05.74-4.22t-.74-4.23a2.2,2.2,0,0,0-1.85-1,2,2,0,0,0-1.74.92Q346.63,367.14,346.63,370.31Z" style="fill:red"/><path d="M355.32,370.31a11.76,11.76,0,0,1,.47-3.68,4.57,4.57,0,0,1,1.4-2.15,3.58,3.58,0,0,1,2.33-.76,3.81,3.81,0,0,1,1.82.42,3.48,3.48,0,0,1,1.29,1.2,6.46,6.46,0,0,1,.8,1.92,12.73,12.73,0,0,1,.29,3,11.82,11.82,0,0,1-.47,3.66,4.57,4.57,0,0,1-1.39,2.15,3.92,3.92,0,0,1-5.27-.58Q355.32,373.94,355.32,370.31Zm1.63,0q0,3.17.74,4.22a2.12,2.12,0,0,0,3.66,0q.74-1.05.74-4.22t-.74-4.23a2.2,2.2,0,0,0-1.85-1,2,2,0,0,0-1.74.92Q356.94,367.14,356.94,370.31Z" style="fill:red"/><path d="M364.62,380.24V379.1H375.1v1.14Z" style="fill:red"/><path d="M384.27,375.15v1.52h-8.52a2.8,2.8,0,0,1,.18-1.1,5.81,5.81,0,0,1,1-1.71,16.31,16.31,0,0,1,2.07-2,17.56,17.56,0,0,0,2.84-2.73,3.27,3.27,0,0,0,.74-1.9,2.11,2.11,0,0,0-.67-1.59,2.42,2.42,0,0,0-1.75-.65,2.47,2.47,0,0,0-1.83.69,2.59,2.59,0,0,0-.7,1.9l-1.62-.17a4,4,0,0,1,1.26-2.77,4.29,4.29,0,0,1,2.93-1,4.08,4.08,0,0,1,2.94,1,3.38,3.38,0,0,1,1.08,2.55,3.87,3.87,0,0,1-.32,1.52,5.9,5.9,0,0,1-1,1.57,25.57,25.57,0,0,1-2.44,2.27q-1.42,1.2-1.83,1.62a5.2,5.2,0,0,0-.67.86Z" style="fill:red"/><path d="M386.27,370.31a11.82,11.82,0,0,1,.47-3.68,4.58,4.58,0,0,1,1.4-2.15,3.57,3.57,0,0,1,2.33-.76,3.81,3.81,0,0,1,1.82.42,3.48,3.48,0,0,1,1.29,1.2,6.46,6.46,0,0,1,.8,1.92,12.73,12.73,0,0,1,.29,3,11.82,11.82,0,0,1-.47,3.66,4.58,4.58,0,0,1-1.39,2.15,3.58,3.58,0,0,1-2.34.76,3.54,3.54,0,0,1-2.93-1.34Q386.27,373.94,386.27,370.31Zm1.63,0q0,3.17.74,4.22a2.12,2.12,0,0,0,3.67,0q.74-1.05.74-4.22t-.74-4.23a2.21,2.21,0,0,0-1.85-1,2,2,0,0,0-1.74.92Q387.89,367.14,387.89,370.31Z" style="fill:red"/><path d="M396.59,370.31a11.79,11.79,0,0,1,.47-3.68,4.58,4.58,0,0,1,1.4-2.15,3.57,3.57,0,0,1,2.33-.76,3.8,3.8,0,0,1,1.82.42,3.48,3.48,0,0,1,1.29,1.2,6.46,6.46,0,0,1,.8,1.92,12.72,12.72,0,0,1,.29,3,11.82,11.82,0,0,1-.47,3.66,4.58,4.58,0,0,1-1.39,2.15,3.92,3.92,0,0,1-5.27-.58Q396.58,373.94,396.59,370.31Zm1.63,0q0,3.17.74,4.22a2.12,2.12,0,0,0,3.67,0q.74-1.05.74-4.22t-.74-4.23a2.2,2.2,0,0,0-1.85-1A2,2,0,0,0,399,366Q398.21,367.14,398.21,370.31Z" style="fill:red"/><path d="M407.2,366.88a3.92,3.92,0,0,1,.69-2.35,2.32,2.32,0,0,1,2-1,2.61,2.61,0,0,1,2,.87,4.41,4.41,0,0,1,0,5.06,2.58,2.58,0,0,1-2,.88,2.5,2.5,0,0,1-1.95-.87A3.85,3.85,0,0,1,407.2,366.88Zm2.75-2.22a1.19,1.19,0,0,0-1,.51,3.22,3.22,0,0,0-.39,1.87,2.9,2.9,0,0,0,.4,1.74,1.2,1.2,0,0,0,2,0,3.22,3.22,0,0,0,.39-1.86,2.92,2.92,0,0,0-.4-1.75A1.2,1.2,0,0,0,410,364.65Zm0,12.49,7-13.58h1.28l-7,13.58Zm5.57-3.5a3.91,3.91,0,0,1,.69-2.35,2.34,2.34,0,0,1,2-1,2.61,2.61,0,0,1,2,.87,3.64,3.64,0,0,1,.79,2.54,3.61,3.61,0,0,1-.8,2.52,2.58,2.58,0,0,1-2,.88,2.5,2.5,0,0,1-1.95-.87A3.85,3.85,0,0,1,415.53,373.64Zm2.76-2.22a1.2,1.2,0,0,0-1,.51,3.22,3.22,0,0,0-.39,1.87,2.91,2.91,0,0,0,.4,1.74,1.21,1.21,0,0,0,2,0,3.2,3.2,0,0,0,.39-1.86,2.92,2.92,0,0,0-.4-1.75A1.2,1.2,0,0,0,418.29,371.42Z" style="fill:red"/><path d="M422.19,380.24V379.1h10.49v1.14Z" style="fill:red"/><path d="M433.65,370.39a7,7,0,0,1,1.72-5,5.86,5.86,0,0,1,4.45-1.81,6.17,6.17,0,0,1,3.22.85,5.57,5.57,0,0,1,2.18,2.38,7.72,7.72,0,0,1,.75,3.46,7.59,7.59,0,0,1-.79,3.51,5.4,5.4,0,0,1-2.24,2.34,6.4,6.4,0,0,1-3.13.8,6.09,6.09,0,0,1-3.25-.88,5.66,5.66,0,0,1-2.17-2.4A7.27,7.27,0,0,1,433.65,370.39Zm1.76,0a5.16,5.16,0,0,0,1.25,3.67,4.37,4.37,0,0,0,6.31,0,5.47,5.47,0,0,0,1.24-3.84,6.6,6.6,0,0,0-.53-2.75,4.09,4.09,0,0,0-1.56-1.82,4.22,4.22,0,0,0-2.3-.65,4.36,4.36,0,0,0-3.12,1.24Q435.41,367.51,435.41,370.42Z" style="fill:red"/><path d="M452.16,376.67l-5-12.88H449l3.35,9.36q.4,1.13.68,2.11.3-1.05.69-2.11l3.48-9.36H459l-5,12.88Z" style="fill:red"/><path d="M460.83,376.67V363.78h9.32v1.52h-7.61v3.95h7.13v1.51h-7.13v4.39h7.91v1.52Z" style="fill:red"/><path d="M473.13,376.67V363.78h5.71a7.6,7.6,0,0,1,2.62.35,2.86,2.86,0,0,1,1.43,1.23,3.66,3.66,0,0,1,.54,1.94,3.24,3.24,0,0,1-.89,2.31,4.49,4.49,0,0,1-2.74,1.2,4.43,4.43,0,0,1,1,.64,8.86,8.86,0,0,1,1.41,1.71l2.24,3.51h-2.14L480.63,374q-.75-1.16-1.23-1.78a3.87,3.87,0,0,0-.87-.86,2.56,2.56,0,0,0-.78-.34,5.12,5.12,0,0,0-.95-.06h-2v5.72Zm1.71-7.2h3.66a5.5,5.5,0,0,0,1.83-.24,2,2,0,0,0,1-.77,2.09,2.09,0,0,0,.34-1.16,1.92,1.92,0,0,0-.66-1.5,3.1,3.1,0,0,0-2.1-.59h-4.08Z" style="fill:red"/><path d="M495.6,372.15l1.71.43a5.74,5.74,0,0,1-1.93,3.2,5.32,5.32,0,0,1-3.41,1.1,6.12,6.12,0,0,1-3.39-.85,5.31,5.31,0,0,1-2-2.46,8.78,8.78,0,0,1-.68-3.45,7.6,7.6,0,0,1,.77-3.51,5.27,5.27,0,0,1,2.19-2.28,6.39,6.39,0,0,1,3.12-.78,5.28,5.28,0,0,1,3.25,1,5.11,5.11,0,0,1,1.84,2.77l-1.68.4a4,4,0,0,0-1.3-2A3.47,3.47,0,0,0,492,365a4.17,4.17,0,0,0-2.48.71,3.76,3.76,0,0,0-1.4,1.91,7.7,7.7,0,0,0-.4,2.47,7.84,7.84,0,0,0,.48,2.87,3.56,3.56,0,0,0,1.49,1.83,4.18,4.18,0,0,0,2.19.61,3.67,3.67,0,0,0,2.43-.83A4.23,4.23,0,0,0,495.6,372.15Z" style="fill:red"/><path d="M503.34,376.67v-5.46l-5-7.43h2.07l2.54,3.88q.7,1.09,1.31,2.18.58-1,1.41-2.28l2.5-3.79h2L505,371.21v5.46Z" style="fill:red"/><path d="M521.22,372.15l1.71.43a5.74,5.74,0,0,1-1.93,3.2,5.31,5.31,0,0,1-3.41,1.1,6.12,6.12,0,0,1-3.39-.85,5.3,5.3,0,0,1-2-2.46,8.77,8.77,0,0,1-.68-3.45,7.59,7.59,0,0,1,.77-3.51,5.27,5.27,0,0,1,2.19-2.28,6.39,6.39,0,0,1,3.12-.78,5.28,5.28,0,0,1,3.25,1,5.11,5.11,0,0,1,1.84,2.77l-1.68.4a4,4,0,0,0-1.3-2,3.47,3.47,0,0,0-2.14-.64,4.16,4.16,0,0,0-2.48.71,3.76,3.76,0,0,0-1.4,1.91,7.7,7.7,0,0,0-.4,2.47,7.86,7.86,0,0,0,.48,2.87,3.57,3.57,0,0,0,1.49,1.83,4.18,4.18,0,0,0,2.19.61,3.67,3.67,0,0,0,2.43-.83A4.23,4.23,0,0,0,521.22,372.15Z" style="fill:red"/><path d="M525.26,376.67V363.78H527v11.36h6.35v1.52Z" style="fill:red"/><path d="M535.68,376.67V363.78H545v1.52h-7.61v3.95h7.13v1.51h-7.13v4.39h7.91v1.52Z" style="fill:red"/><path d="M553.35,376.67V363.78H562v1.52h-7v4h6v1.52h-6v5.85Z" style="fill:red"/><path d="M562.16,376.67l4.95-12.88h1.84l5.27,12.88h-1.94l-1.5-3.9h-5.39l-1.42,3.9Zm3.72-5.29h4.37l-1.34-3.57q-.62-1.63-.91-2.67a16.43,16.43,0,0,1-.69,2.46Z" style="fill:red"/><path d="M584.34,363.78H586v7.44a8.81,8.81,0,0,1-.44,3.08,3.76,3.76,0,0,1-1.59,1.86,5.62,5.62,0,0,1-3,.72,6.18,6.18,0,0,1-3-.62,3.56,3.56,0,0,1-1.64-1.81,8.61,8.61,0,0,1-.49-3.23v-7.44h1.71v7.44a7.25,7.25,0,0,0,.31,2.47,2.37,2.37,0,0,0,1.07,1.23,3.72,3.72,0,0,0,1.86.43,3.55,3.55,0,0,0,2.68-.85,4.91,4.91,0,0,0,.8-3.28Z" style="fill:red"/><path d="M589.12,376.67V363.78h1.71v11.36h6.35v1.52Z" style="fill:red"/><path d="M601.45,376.67V365.3H597.2v-1.52h10.21v1.52h-4.26v11.36Z" style="fill:red"/><path d="M607.69,376.67v-1.8h1.8v1.8a3.2,3.2,0,0,1-.35,1.6,2.29,2.29,0,0,1-1.12.94l-.44-.68a1.5,1.5,0,0,0,.74-.65,2.75,2.75,0,0,0,.26-1.23Z" style="fill:red"/><path d="M617.51,372.53l1.61-.14a3.55,3.55,0,0,0,.53,1.59,2.9,2.9,0,0,0,1.3,1,4.9,4.9,0,0,0,2,.38,4.74,4.74,0,0,0,1.72-.29,2.39,2.39,0,0,0,1.11-.8,1.84,1.84,0,0,0,.36-1.1,1.68,1.68,0,0,0-.35-1.06,2.6,2.6,0,0,0-1.16-.76,22.63,22.63,0,0,0-2.29-.63,11.73,11.73,0,0,1-2.49-.8,3.49,3.49,0,0,1-1.37-1.2,2.94,2.94,0,0,1-.45-1.6,3.28,3.28,0,0,1,.55-1.82,3.43,3.43,0,0,1,1.62-1.29,6.13,6.13,0,0,1,2.36-.44,6.46,6.46,0,0,1,2.53.46,3.65,3.65,0,0,1,1.68,1.36,3.9,3.9,0,0,1,.63,2l-1.63.12a2.64,2.64,0,0,0-.89-1.85,3.47,3.47,0,0,0-2.25-.62,3.6,3.6,0,0,0-2.25.57,1.7,1.7,0,0,0-.71,1.37,1.46,1.46,0,0,0,.5,1.14,6.79,6.79,0,0,0,2.57.92,17,17,0,0,1,2.85.82,3.9,3.9,0,0,1,1.66,1.31,3.2,3.2,0,0,1,.54,1.83,3.51,3.51,0,0,1-.59,1.94,3.88,3.88,0,0,1-1.69,1.42,5.89,5.89,0,0,1-2.48.51,7.42,7.42,0,0,1-2.93-.51,4.11,4.11,0,0,1-1.85-1.53A4.35,4.35,0,0,1,617.51,372.53Z" style="fill:red"/><path d="M633.68,376.67V365.3h-4.24v-1.52h10.21v1.52h-4.26v11.36Z" style="fill:red"/><path d="M639,376.67l4.95-12.88h1.84L651,376.67h-1.94l-1.5-3.9h-5.39l-1.42,3.9Zm3.72-5.29H647l-1.34-3.57q-.62-1.63-.91-2.67a16.43,16.43,0,0,1-.69,2.46Z" style="fill:red"/><path d="M654.62,376.67V365.3h-4.24v-1.52h10.21v1.52h-4.26v11.36Z" style="fill:red"/><path d="M662.93,376.67V363.78h1.71v12.88Z" style="fill:red"/><path d="M667.43,370.39a7,7,0,0,1,1.72-5,5.86,5.86,0,0,1,4.45-1.81,6.17,6.17,0,0,1,3.22.85,5.57,5.57,0,0,1,2.18,2.38,7.73,7.73,0,0,1,.75,3.46,7.59,7.59,0,0,1-.79,3.51,5.4,5.4,0,0,1-2.24,2.34,6.4,6.4,0,0,1-3.13.8,6.09,6.09,0,0,1-3.25-.88,5.66,5.66,0,0,1-2.17-2.4A7.27,7.27,0,0,1,667.43,370.39Zm1.76,0a5.16,5.16,0,0,0,1.25,3.67,4.37,4.37,0,0,0,6.31,0,5.48,5.48,0,0,0,1.24-3.84,6.59,6.59,0,0,0-.53-2.75,4.08,4.08,0,0,0-1.55-1.82,4.22,4.22,0,0,0-2.3-.65,4.36,4.36,0,0,0-3.12,1.24Q669.19,367.51,669.19,370.42Z" style="fill:red"/><path d="M682.24,376.67V363.78H684l6.77,10.12V363.78h1.63v12.88h-1.75l-6.77-10.12v10.13Z" style="fill:red"/><path d="M694.75,372.8v-1.59h4.86v1.59Z" style="fill:red"/><path d="M707.18,376.67H705.6V366.59a8.15,8.15,0,0,1-1.5,1.09,10.58,10.58,0,0,1-1.67.82V367a9.55,9.55,0,0,0,2.32-1.51,6,6,0,0,0,1.41-1.72h1Z" style="fill:red"/><path d="M716.16,376.67h-1.58V366.59a8.18,8.18,0,0,1-1.5,1.09,10.62,10.62,0,0,1-1.67.82V367a9.55,9.55,0,0,0,2.32-1.51,6,6,0,0,0,1.41-1.72h1Z" style="fill:red"/><path d="M723,369.68a3,3,0,0,1-1.46-1,2.69,2.69,0,0,1-.47-1.6,3.13,3.13,0,0,1,1-2.36,4.25,4.25,0,0,1,5.41,0,3.17,3.17,0,0,1,1,2.39,2.62,2.62,0,0,1-.47,1.56,3,3,0,0,1-1.43,1,3.47,3.47,0,0,1,1.81,1.25A3.43,3.43,0,0,1,729,373a3.7,3.7,0,0,1-1.17,2.78,4.76,4.76,0,0,1-6.15,0,3.76,3.76,0,0,1-1.17-2.82,3.41,3.41,0,0,1,.64-2.1A3.2,3.2,0,0,1,723,369.68Zm-.83,3.27a2.85,2.85,0,0,0,.32,1.31,2.26,2.26,0,0,0,1,1,2.79,2.79,0,0,0,1.36.35,2.55,2.55,0,0,0,1.87-.73,2.5,2.5,0,0,0,.74-1.85,2.54,2.54,0,0,0-.76-1.89,2.61,2.61,0,0,0-1.9-.75,2.52,2.52,0,0,0-2.58,2.58Zm.51-6a2,2,0,0,0,.59,1.49,2.09,2.09,0,0,0,1.53.58,2,2,0,0,0,1.5-.58,1.9,1.9,0,0,0,.58-1.41,2,2,0,0,0-.6-1.46,2,2,0,0,0-1.5-.59,2.07,2.07,0,0,0-1.5.58A1.87,1.87,0,0,0,722.64,367Z" style="fill:red"/><path d="M730.84,370.31a11.76,11.76,0,0,1,.47-3.68,4.57,4.57,0,0,1,1.4-2.15,3.58,3.58,0,0,1,2.33-.76,3.81,3.81,0,0,1,1.82.42,3.48,3.48,0,0,1,1.29,1.2,6.46,6.46,0,0,1,.8,1.92,12.73,12.73,0,0,1,.29,3,11.82,11.82,0,0,1-.47,3.66,4.57,4.57,0,0,1-1.39,2.15,3.92,3.92,0,0,1-5.27-.58Q730.84,373.94,730.84,370.31Zm1.63,0q0,3.17.74,4.22a2.12,2.12,0,0,0,3.66,0q.74-1.05.74-4.22t-.74-4.23a2.2,2.2,0,0,0-1.85-1,2,2,0,0,0-1.74.92Q732.46,367.14,732.46,370.31Z" style="fill:red"/><path d="M741,372.8v-1.59h4.86v1.59Z" style="fill:red"/><path d="M753.41,376.67h-1.58V366.59a8.21,8.21,0,0,1-1.5,1.09,10.67,10.67,0,0,1-1.67.82V367a9.55,9.55,0,0,0,2.32-1.51,6,6,0,0,0,1.41-1.72h1Z" style="fill:red"/><path d="M757.77,370.31a11.76,11.76,0,0,1,.47-3.68,4.57,4.57,0,0,1,1.4-2.15,3.58,3.58,0,0,1,2.33-.76,3.81,3.81,0,0,1,1.82.42,3.48,3.48,0,0,1,1.29,1.2,6.46,6.46,0,0,1,.8,1.92,12.73,12.73,0,0,1,.29,3,11.82,11.82,0,0,1-.47,3.66,4.57,4.57,0,0,1-1.39,2.15,3.92,3.92,0,0,1-5.27-.58Q757.77,373.94,757.77,370.31Zm1.63,0q0,3.17.74,4.22a2.12,2.12,0,0,0,3.66,0q.74-1.05.74-4.22t-.74-4.23a2.2,2.2,0,0,0-1.85-1,2,2,0,0,0-1.74.92Q759.4,367.14,759.4,370.31Z" style="fill:red"/><path d="M768.09,370.31a11.79,11.79,0,0,1,.47-3.68,4.58,4.58,0,0,1,1.4-2.15,3.57,3.57,0,0,1,2.33-.76,3.81,3.81,0,0,1,1.82.42,3.48,3.48,0,0,1,1.29,1.2,6.46,6.46,0,0,1,.8,1.92,12.74,12.74,0,0,1,.29,3A11.83,11.83,0,0,1,776,374a4.58,4.58,0,0,1-1.39,2.15,3.57,3.57,0,0,1-2.34.76,3.53,3.53,0,0,1-2.93-1.34Q768.09,373.94,768.09,370.31Zm1.63,0q0,3.17.74,4.22a2.12,2.12,0,0,0,3.67,0q.74-1.05.74-4.22t-.74-4.23a2.21,2.21,0,0,0-1.85-1,2,2,0,0,0-1.74.92Q769.71,367.14,769.71,370.31Z" style="fill:red"/><path d="M777.38,380.24V379.1h10.49v1.14Z" style="fill:red"/><path d="M794.68,376.67H793.1V366.59a8.15,8.15,0,0,1-1.5,1.09,10.58,10.58,0,0,1-1.67.82V367a9.55,9.55,0,0,0,2.32-1.51,6,6,0,0,0,1.41-1.72h1Z" style="fill:red"/><path d="M799,370.31a11.79,11.79,0,0,1,.47-3.68,4.58,4.58,0,0,1,1.4-2.15,3.57,3.57,0,0,1,2.33-.76,3.8,3.8,0,0,1,1.82.42,3.48,3.48,0,0,1,1.29,1.2,6.46,6.46,0,0,1,.8,1.92,12.72,12.72,0,0,1,.29,3A11.82,11.82,0,0,1,807,374a4.58,4.58,0,0,1-1.39,2.15,3.92,3.92,0,0,1-5.27-.58Q799,373.94,799,370.31Zm1.63,0q0,3.17.74,4.22a2.12,2.12,0,0,0,3.67,0q.74-1.05.74-4.22t-.74-4.23a2.2,2.2,0,0,0-1.85-1,2,2,0,0,0-1.74.92Q800.66,367.14,800.66,370.31Z" style="fill:red"/><path d="M316.52,35.67l3.57-9.31h1.33l3.81,9.31h-1.4l-1.08-2.82h-3.89l-1,2.82Zm2.68-3.82h3.16l-1-2.58q-.44-1.17-.66-1.93a11.94,11.94,0,0,1-.5,1.78Z" style="fill:red"/><path d="M325.58,33l1.11-.15a2.39,2.39,0,0,0,.4,1.46,1.26,1.26,0,0,0,1,.39,1.46,1.46,0,0,0,.8-.21,1.1,1.1,0,0,0,.46-.58,3.88,3.88,0,0,0,.13-1.17V26.36h1.23V32.7a4.62,4.62,0,0,1-.28,1.81,2,2,0,0,1-.89,1,3,3,0,0,1-1.44.34,2.43,2.43,0,0,1-1.87-.7A2.91,2.91,0,0,1,325.58,33Z" style="fill:red"/><path d="M338.25,34.57v1.1H332.1a2,2,0,0,1,.13-.79,4.17,4.17,0,0,1,.75-1.24,11.78,11.78,0,0,1,1.49-1.41,12.68,12.68,0,0,0,2.05-2,2.36,2.36,0,0,0,.53-1.37,1.53,1.53,0,0,0-.49-1.15,1.75,1.75,0,0,0-1.27-.47,1.78,1.78,0,0,0-1.32.5,1.88,1.88,0,0,0-.5,1.37L332.31,29a2.89,2.89,0,0,1,.91-2,3.09,3.09,0,0,1,2.11-.69,3,3,0,0,1,2.12.74,2.44,2.44,0,0,1,.78,1.84A2.79,2.79,0,0,1,338,30a4.25,4.25,0,0,1-.76,1.14,18.55,18.55,0,0,1-1.76,1.64q-1,.86-1.32,1.17a3.71,3.71,0,0,0-.48.62Z" style="fill:red"/><path d="M339.47,31.08a8.51,8.51,0,0,1,.34-2.66,3.3,3.3,0,0,1,1-1.55,2.58,2.58,0,0,1,1.68-.55,2.74,2.74,0,0,1,1.31.3,2.51,2.51,0,0,1,.93.87,4.68,4.68,0,0,1,.58,1.38,9.25,9.25,0,0,1,.21,2.2,8.56,8.56,0,0,1-.34,2.64,3.31,3.31,0,0,1-1,1.55,2.58,2.58,0,0,1-1.69.55,2.56,2.56,0,0,1-2.11-1A6.14,6.14,0,0,1,339.47,31.08Zm1.17,0a5.84,5.84,0,0,0,.54,3.05,1.53,1.53,0,0,0,2.65,0,5.84,5.84,0,0,0,.54-3,5.83,5.83,0,0,0-.54-3.05,1.59,1.59,0,0,0-1.34-.76,1.46,1.46,0,0,0-1.26.67A5.9,5.9,0,0,0,340.65,31.08Z" style="fill:red"/><path d="M346.71,31.08a8.55,8.55,0,0,1,.34-2.66,3.31,3.31,0,0,1,1-1.55,2.58,2.58,0,0,1,1.68-.55,2.75,2.75,0,0,1,1.31.3,2.51,2.51,0,0,1,.93.87,4.68,4.68,0,0,1,.58,1.38,9.19,9.19,0,0,1,.21,2.2,8.56,8.56,0,0,1-.34,2.64,3.3,3.3,0,0,1-1,1.55,2.58,2.58,0,0,1-1.69.55,2.55,2.55,0,0,1-2.11-1A6.14,6.14,0,0,1,346.71,31.08Zm1.17,0a5.84,5.84,0,0,0,.54,3.05,1.53,1.53,0,0,0,2.65,0,5.84,5.84,0,0,0,.54-3,5.84,5.84,0,0,0-.54-3.05,1.59,1.59,0,0,0-1.34-.76,1.47,1.47,0,0,0-1.26.67A5.91,5.91,0,0,0,347.88,31.08Z" style="fill:red"/><path d="M354.4,35.67V26.36h3.21a7.77,7.77,0,0,1,1.66.13,3.15,3.15,0,0,1,1.37.67,3.8,3.8,0,0,1,1.1,1.59,6.25,6.25,0,0,1,.37,2.21,6.5,6.5,0,0,1-.25,1.88,4.56,4.56,0,0,1-.63,1.35,3.37,3.37,0,0,1-.85.84,3.45,3.45,0,0,1-1.11.47,6.33,6.33,0,0,1-1.49.16Zm1.23-1.1h2a4.82,4.82,0,0,0,1.44-.17,2.06,2.06,0,0,0,.83-.48,2.94,2.94,0,0,0,.68-1.18,5.78,5.78,0,0,0,.24-1.79,4.32,4.32,0,0,0-.48-2.24,2.41,2.41,0,0,0-1.16-1.05,4.82,4.82,0,0,0-1.59-.19h-2Z" style="fill:red"/><path d="M365.66,35.67l3.57-9.31h1.33l3.81,9.31H373l-1.09-2.82H368l-1,2.82Zm2.69-3.82h3.15l-1-2.58q-.45-1.17-.66-1.93a11.83,11.83,0,0,1-.5,1.78Z" style="fill:red"/><path d="M374.93,32.68l1.16-.1a2.58,2.58,0,0,0,.38,1.15,2.1,2.1,0,0,0,.94.72,3.56,3.56,0,0,0,1.43.28,3.42,3.42,0,0,0,1.24-.21,1.72,1.72,0,0,0,.8-.57,1.33,1.33,0,0,0,.26-.8,1.21,1.21,0,0,0-.25-.76,1.87,1.87,0,0,0-.84-.55,16.32,16.32,0,0,0-1.66-.45,8.47,8.47,0,0,1-1.8-.58,2.52,2.52,0,0,1-1-.87,2.12,2.12,0,0,1-.33-1.16,2.37,2.37,0,0,1,.4-1.32,2.48,2.48,0,0,1,1.17-.93,4.44,4.44,0,0,1,1.71-.32,4.66,4.66,0,0,1,1.83.33,2.63,2.63,0,0,1,1.21,1,2.8,2.8,0,0,1,.46,1.47l-1.18.09a1.91,1.91,0,0,0-.64-1.33,2.51,2.51,0,0,0-1.62-.45,2.6,2.6,0,0,0-1.63.41,1.23,1.23,0,0,0-.51,1,1.06,1.06,0,0,0,.36.83,4.9,4.9,0,0,0,1.86.66,12.3,12.3,0,0,1,2.06.59,2.82,2.82,0,0,1,1.2.95,2.31,2.31,0,0,1,.39,1.32,2.52,2.52,0,0,1-.42,1.4,2.8,2.8,0,0,1-1.22,1,4.26,4.26,0,0,1-1.79.36,5.35,5.35,0,0,1-2.12-.37,3,3,0,0,1-1.34-1.11A3.14,3.14,0,0,1,374.93,32.68Z" style="fill:red"/><path d="M383.6,32.68l1.16-.1a2.56,2.56,0,0,0,.38,1.15,2.1,2.1,0,0,0,.94.72,3.55,3.55,0,0,0,1.43.28,3.42,3.42,0,0,0,1.24-.21,1.73,1.73,0,0,0,.8-.57,1.33,1.33,0,0,0,.26-.8,1.21,1.21,0,0,0-.25-.76,1.88,1.88,0,0,0-.84-.55,16.43,16.43,0,0,0-1.66-.45,8.47,8.47,0,0,1-1.8-.58,2.52,2.52,0,0,1-1-.87,2.13,2.13,0,0,1-.33-1.16,2.36,2.36,0,0,1,.4-1.32,2.47,2.47,0,0,1,1.17-.93,4.43,4.43,0,0,1,1.71-.32,4.66,4.66,0,0,1,1.83.33,2.64,2.64,0,0,1,1.22,1,2.82,2.82,0,0,1,.46,1.47l-1.18.09a1.9,1.9,0,0,0-.64-1.33,2.51,2.51,0,0,0-1.62-.45,2.61,2.61,0,0,0-1.63.41,1.23,1.23,0,0,0-.51,1,1.06,1.06,0,0,0,.36.83,4.89,4.89,0,0,0,1.86.66,12.26,12.26,0,0,1,2.06.59,2.82,2.82,0,0,1,1.2.95A2.31,2.31,0,0,1,391,33a2.53,2.53,0,0,1-.43,1.4,2.8,2.8,0,0,1-1.22,1,4.26,4.26,0,0,1-1.79.36,5.35,5.35,0,0,1-2.12-.37,3,3,0,0,1-1.34-1.11A3.15,3.15,0,0,1,383.6,32.68Z" style="fill:red"/><path d="M392.72,35.67V26.36h6.73v1.1H394v2.85h5.15V31.4H394v3.17h5.71v1.1Z" style="fill:red"/><path d="M401.33,35.67V26.36h1.85l2.2,6.59q.3.92.44,1.38.16-.51.5-1.49l2.23-6.47h1.66v9.31H409V27.88l-2.7,7.79h-1.11l-2.69-7.92v7.92Z" style="fill:red"/><path d="M412.14,35.67V26.36h3.49a4.33,4.33,0,0,1,1.71.28,2.2,2.2,0,0,1,1,.87,2.28,2.28,0,0,1,.37,1.23,2.1,2.1,0,0,1-.32,1.12,2.31,2.31,0,0,1-1,.85,2.43,2.43,0,0,1,1.3.84,2.27,2.27,0,0,1,.45,1.41,2.72,2.72,0,0,1-.28,1.22,2.35,2.35,0,0,1-.68.87,2.86,2.86,0,0,1-1,.46,6.21,6.21,0,0,1-1.5.16Zm1.23-5.4h2a4.49,4.49,0,0,0,1.17-.11,1.31,1.31,0,0,0,.71-.46,1.34,1.34,0,0,0,.24-.81,1.5,1.5,0,0,0-.22-.82,1.12,1.12,0,0,0-.63-.48,5.29,5.29,0,0,0-1.42-.13h-1.86Zm0,4.3h2.32a5.32,5.32,0,0,0,.84,0,2,2,0,0,0,.71-.25,1.35,1.35,0,0,0,.47-.52,1.61,1.61,0,0,0,.18-.78,1.55,1.55,0,0,0-.27-.9,1.4,1.4,0,0,0-.74-.54,4.58,4.58,0,0,0-1.36-.16h-2.15Z" style="fill:red"/><path d="M420.81,35.67V26.36H422v8.21h4.58v1.1Z" style="fill:red"/><path d="M429.75,35.67V31.72l-3.59-5.36h1.5l1.83,2.81q.51.79.95,1.57.42-.73,1-1.64l1.8-2.74h1.43L431,31.72v3.94Z" style="fill:red"/><path d="M438.76,32.68l1.16-.1a2.56,2.56,0,0,0,.38,1.15,2.09,2.09,0,0,0,.94.72,3.56,3.56,0,0,0,1.43.28,3.42,3.42,0,0,0,1.24-.21,1.72,1.72,0,0,0,.8-.57,1.33,1.33,0,0,0,.26-.8,1.21,1.21,0,0,0-.25-.76,1.87,1.87,0,0,0-.84-.55,16.27,16.27,0,0,0-1.66-.45,8.48,8.48,0,0,1-1.8-.58,2.52,2.52,0,0,1-1-.87,2.12,2.12,0,0,1-.33-1.16,2.36,2.36,0,0,1,.4-1.32,2.48,2.48,0,0,1,1.17-.93,4.43,4.43,0,0,1,1.71-.32,4.66,4.66,0,0,1,1.83.33,2.63,2.63,0,0,1,1.21,1,2.82,2.82,0,0,1,.46,1.47l-1.18.09a1.91,1.91,0,0,0-.64-1.33,2.51,2.51,0,0,0-1.62-.45,2.6,2.6,0,0,0-1.63.41,1.23,1.23,0,0,0-.51,1,1.06,1.06,0,0,0,.36.83,4.9,4.9,0,0,0,1.86.66,12.28,12.28,0,0,1,2.06.59,2.82,2.82,0,0,1,1.2.95,2.31,2.31,0,0,1,.39,1.32,2.52,2.52,0,0,1-.43,1.4,2.8,2.8,0,0,1-1.22,1,4.26,4.26,0,0,1-1.79.36,5.34,5.34,0,0,1-2.12-.37,3,3,0,0,1-1.34-1.11A3.14,3.14,0,0,1,438.76,32.68Z" style="fill:red"/><path d="M447.87,35.67V26.36h6.73v1.1h-5.5v2.85h5.15V31.4h-5.15v3.17h5.71v1.1Z" style="fill:red"/><path d="M463.16,32.4l1.23.31A4.15,4.15,0,0,1,463,35a3.84,3.84,0,0,1-2.46.8,4.42,4.42,0,0,1-2.45-.61,3.81,3.81,0,0,1-1.43-1.77,6.33,6.33,0,0,1-.49-2.49,5.49,5.49,0,0,1,.55-2.54,3.81,3.81,0,0,1,1.58-1.64,4.62,4.62,0,0,1,2.26-.56,3.81,3.81,0,0,1,2.35.71,3.69,3.69,0,0,1,1.33,2L463,29.2a2.88,2.88,0,0,0-.94-1.48,2.51,2.51,0,0,0-1.55-.46,3,3,0,0,0-1.79.51,2.72,2.72,0,0,0-1,1.38,5.56,5.56,0,0,0-.29,1.79,5.68,5.68,0,0,0,.35,2.07,2.57,2.57,0,0,0,1.08,1.32,3,3,0,0,0,1.58.44,2.65,2.65,0,0,0,1.75-.6A3.05,3.05,0,0,0,463.16,32.4Z" style="fill:red"/><path d="M468.28,35.67V27.46h-3.07v-1.1h7.38v1.1h-3.08v8.21Z" style="fill:red"/><path d="M474.06,35.67V26.36h1.23v9.31Z" style="fill:red"/><path d="M477.09,31.13a5.06,5.06,0,0,1,1.24-3.63,4.23,4.23,0,0,1,3.21-1.31,4.46,4.46,0,0,1,2.32.62,4,4,0,0,1,1.58,1.72A5.58,5.58,0,0,1,486,31a5.48,5.48,0,0,1-.57,2.53,3.9,3.9,0,0,1-1.62,1.69,4.62,4.62,0,0,1-2.26.57,4.4,4.4,0,0,1-2.35-.63,4.08,4.08,0,0,1-1.57-1.73A5.25,5.25,0,0,1,477.09,31.13Zm1.27,0a3.72,3.72,0,0,0,.9,2.65,3.16,3.16,0,0,0,4.56,0,4,4,0,0,0,.9-2.77,4.75,4.75,0,0,0-.38-2,3,3,0,0,0-1.12-1.31,3,3,0,0,0-1.66-.47,3.15,3.15,0,0,0-2.25.9A4,4,0,0,0,478.36,31.15Z" style="fill:red"/><path d="M487.56,35.67V26.36h1.26l4.89,7.31V26.36h1.18v9.31h-1.26l-4.89-7.31v7.31Z" style="fill:red"/><path d="M504.41,35.67h-1.14V28.39a5.92,5.92,0,0,1-1.08.79,7.74,7.74,0,0,1-1.2.59v-1.1a6.91,6.91,0,0,0,1.68-1.09,4.29,4.29,0,0,0,1-1.24h.74Z" style="fill:red"/><path d="M371.91,55.67V47.46h-3.07v-1.1h7.38v1.1h-3.08v8.21Z" style="fill:red"/><path d="M376.86,47.67V46.36H378v1.31Zm0,8V48.93H378v6.74Z" style="fill:red"/><path d="M379.74,55.67V48.93h1v.95a2.38,2.38,0,0,1,2-1.1,2.22,2.22,0,0,1,1.23.31,1.66,1.66,0,0,1,.68.87,2.42,2.42,0,0,1,2.08-1.18,2.05,2.05,0,0,1,1.54.56,2.37,2.37,0,0,1,.54,1.71v4.63h-1.14V51.42a3.15,3.15,0,0,0-.11-1,1,1,0,0,0-.4-.49,1.26,1.26,0,0,0-.69-.18,1.59,1.59,0,0,0-1.18.47,2.08,2.08,0,0,0-.47,1.51v3.92h-1.14V51.29a1.92,1.92,0,0,0-.28-1.14,1.06,1.06,0,0,0-.91-.38,1.65,1.65,0,0,0-.89.25,1.44,1.44,0,0,0-.59.74,4.17,4.17,0,0,0-.18,1.41v3.5Z" style="fill:red"/><path d="M395.19,53.5l1.18.15a2.88,2.88,0,0,1-1,1.61,3.5,3.5,0,0,1-4.27-.34,3.56,3.56,0,0,1-.87-2.55,3.72,3.72,0,0,1,.88-2.64,3,3,0,0,1,2.27-.94,2.88,2.88,0,0,1,2.21.92,3.66,3.66,0,0,1,.86,2.59c0,.07,0,.17,0,.3h-5a2.59,2.59,0,0,0,.63,1.7,1.87,1.87,0,0,0,1.41.59,1.75,1.75,0,0,0,1.07-.33A2.19,2.19,0,0,0,395.19,53.5Zm-3.75-1.85h3.76a2.28,2.28,0,0,0-.43-1.28,1.75,1.75,0,0,0-1.42-.66,1.82,1.82,0,0,0-1.32.53A2.09,2.09,0,0,0,391.44,51.65Z" style="fill:red"/><path d="M398.12,50.23v-1.3h1.3v1.3Zm0,5.44v-1.3h1.3v1.3Z" style="fill:red"/><path d="M409,55.67h-1.14V48.39a5.85,5.85,0,0,1-1.08.79,7.7,7.7,0,0,1-1.2.59v-1.1a6.88,6.88,0,0,0,1.68-1.09,4.28,4.28,0,0,0,1-1.24H409Z" style="fill:red"/><path d="M415.6,55.67V53.44h-4v-1l4.25-6h.93v6H418v1h-1.26v2.23Zm0-3.28V48.2l-2.91,4.2Z" style="fill:red"/><path d="M419.8,50.23v-1.3h1.3v1.3Zm0,5.44v-1.3h1.3v1.3Z" style="fill:red"/><path d="M427.08,55.67h-1.14V48.39a5.92,5.92,0,0,1-1.08.79,7.74,7.74,0,0,1-1.2.59v-1.1a6.91,6.91,0,0,0,1.68-1.09,4.29,4.29,0,0,0,1-1.24h.74Z" style="fill:red"/><path d="M430,53.23l1.2-.1a2.15,2.15,0,0,0,.62,1.32,1.68,1.68,0,0,0,1.17.44,1.82,1.82,0,0,0,1.4-.62,2.34,2.34,0,0,0,.57-1.65,2.12,2.12,0,0,0-.55-1.54,1.92,1.92,0,0,0-1.44-.56,2,2,0,0,0-1,.25,1.93,1.93,0,0,0-.7.65l-1.07-.14.9-4.78h4.63v1.09H432l-.5,2.5a3,3,0,0,1,1.76-.58,2.78,2.78,0,0,1,2.06.84,3,3,0,0,1,.84,2.17,3.39,3.39,0,0,1-.74,2.18A3,3,0,0,1,433,55.83a3,3,0,0,1-2.07-.71A2.78,2.78,0,0,1,430,53.23Z" style="fill:red"/><path d="M437.88,50.23v-1.3h1.3v1.3Zm0,5.44v-1.3h1.3v1.3Z" style="fill:red"/><path d="M440.85,53.23l1.2-.1a2.15,2.15,0,0,0,.62,1.32,1.68,1.68,0,0,0,1.17.44,1.82,1.82,0,0,0,1.4-.62,2.34,2.34,0,0,0,.57-1.65,2.12,2.12,0,0,0-.55-1.54,1.92,1.92,0,0,0-1.44-.56,2,2,0,0,0-1,.25,1.93,1.93,0,0,0-.7.65l-1.07-.14.9-4.78h4.63v1.09h-3.71l-.5,2.5a3,3,0,0,1,1.76-.58,2.78,2.78,0,0,1,2.06.84,3,3,0,0,1,.84,2.17,3.39,3.39,0,0,1-.74,2.18,3,3,0,0,1-2.44,1.13,3,3,0,0,1-2.07-.71A2.78,2.78,0,0,1,440.85,53.23Z" style="fill:red"/><path d="M452.39,55.67h-1.14V48.39a5.86,5.86,0,0,1-1.08.79,7.65,7.65,0,0,1-1.2.59v-1.1a6.88,6.88,0,0,0,1.68-1.09,4.29,4.29,0,0,0,1-1.24h.74Z" style="fill:red"/><rect y="334" width="812" height="123"/><path d="M163.24,411.8v-1.59h4.86v1.59Z" style="fill:red"/><path d="M169.54,411.8v-1.59h4.86v1.59Z" style="fill:red"/><path d="M175.84,411.8v-1.59h4.86v1.59Z" style="fill:red"/><path d="M163.47,442.53l1.61-.14a3.55,3.55,0,0,0,.53,1.59,2.9,2.9,0,0,0,1.3,1,4.9,4.9,0,0,0,2,.38,4.74,4.74,0,0,0,1.72-.29,2.39,2.39,0,0,0,1.11-.8,1.84,1.84,0,0,0,.36-1.1,1.68,1.68,0,0,0-.35-1.06,2.6,2.6,0,0,0-1.16-.76,22.63,22.63,0,0,0-2.29-.63,11.73,11.73,0,0,1-2.49-.8,3.49,3.49,0,0,1-1.37-1.2,2.94,2.94,0,0,1-.45-1.6,3.28,3.28,0,0,1,.55-1.82,3.43,3.43,0,0,1,1.62-1.29,6.13,6.13,0,0,1,2.36-.44A6.46,6.46,0,0,1,171,434a3.65,3.65,0,0,1,1.68,1.36,3.9,3.9,0,0,1,.63,2l-1.63.12a2.64,2.64,0,0,0-.89-1.85,3.47,3.47,0,0,0-2.25-.62,3.6,3.6,0,0,0-2.25.57,1.7,1.7,0,0,0-.71,1.37,1.46,1.46,0,0,0,.5,1.14,6.79,6.79,0,0,0,2.57.92,17,17,0,0,1,2.85.82,3.9,3.9,0,0,1,1.66,1.31,3.2,3.2,0,0,1,.54,1.83,3.51,3.51,0,0,1-.59,1.94,3.88,3.88,0,0,1-1.69,1.42,5.89,5.89,0,0,1-2.48.51,7.42,7.42,0,0,1-2.93-.51,4.11,4.11,0,0,1-1.85-1.53A4.35,4.35,0,0,1,163.47,442.53Z" style="fill:red"/><path d="M179.65,446.67V435.3H175.4v-1.52h10.21v1.52h-4.26v11.36Z" style="fill:red"/><path d="M184.92,446.67l4.95-12.88h1.84L197,446.67H195l-1.5-3.9h-5.39l-1.42,3.9Zm3.72-5.29H193l-1.34-3.57q-.62-1.63-.91-2.67a16.43,16.43,0,0,1-.69,2.46Z" style="fill:red"/><path d="M200.59,446.67V435.3h-4.24v-1.52h10.21v1.52h-4.26v11.36Z" style="fill:red"/><path d="M208.9,446.67V433.78h1.71v12.88Z" style="fill:red"/><path d="M213.4,440.39a7,7,0,0,1,1.72-5,5.86,5.86,0,0,1,4.45-1.81,6.17,6.17,0,0,1,3.22.85,5.57,5.57,0,0,1,2.18,2.38,7.73,7.73,0,0,1,.75,3.46,7.59,7.59,0,0,1-.79,3.51,5.4,5.4,0,0,1-2.24,2.34,6.4,6.4,0,0,1-3.13.8,6.09,6.09,0,0,1-3.25-.88,5.66,5.66,0,0,1-2.17-2.4A7.27,7.27,0,0,1,213.4,440.39Zm1.76,0a5.16,5.16,0,0,0,1.25,3.67,4.37,4.37,0,0,0,6.31,0,5.48,5.48,0,0,0,1.24-3.84,6.59,6.59,0,0,0-.53-2.75,4.08,4.08,0,0,0-1.55-1.82,4.22,4.22,0,0,0-2.3-.65,4.36,4.36,0,0,0-3.12,1.24Q215.15,437.51,215.16,440.42Z" style="fill:red"/><path d="M228.21,446.67V433.78H230l6.77,10.12V433.78h1.63v12.88h-1.75l-6.77-10.12v10.13Z" style="fill:red"/><path d="M240.71,442.8v-1.59h4.86v1.59Z" style="fill:red"/><path d="M253.15,446.67h-1.58V436.59a8.15,8.15,0,0,1-1.5,1.09,10.58,10.58,0,0,1-1.67.82V437a9.55,9.55,0,0,0,2.32-1.51,6,6,0,0,0,1.41-1.72h1Z" style="fill:red"/><path d="M262.13,446.67h-1.58V436.59a8.18,8.18,0,0,1-1.5,1.09,10.62,10.62,0,0,1-1.67.82V437a9.55,9.55,0,0,0,2.32-1.51,6,6,0,0,0,1.41-1.72h1Z" style="fill:red"/><path d="M274.69,436.94l-1.57.12a3,3,0,0,0-.6-1.35,2.09,2.09,0,0,0-1.58-.68,2.17,2.17,0,0,0-1.33.42,3.61,3.61,0,0,0-1.18,1.59,8.31,8.31,0,0,0-.45,3,3.67,3.67,0,0,1,1.4-1.29,3.76,3.76,0,0,1,1.73-.42,3.59,3.59,0,0,1,2.69,1.16,4.18,4.18,0,0,1,1.11,3,4.94,4.94,0,0,1-.52,2.25,3.8,3.8,0,0,1-1.44,1.6,3.92,3.92,0,0,1-2.07.55,4.05,4.05,0,0,1-3.23-1.45q-1.25-1.45-1.25-4.79,0-3.74,1.38-5.43a4,4,0,0,1,3.24-1.48,3.45,3.45,0,0,1,3.66,3.21Zm-6.46,5.55a3.68,3.68,0,0,0,.35,1.56,2.59,2.59,0,0,0,1,1.14,2.43,2.43,0,0,0,1.31.39,2.23,2.23,0,0,0,1.72-.81,3.18,3.18,0,0,0,.72-2.2,3,3,0,0,0-.71-2.1,2.34,2.34,0,0,0-1.79-.77,2.44,2.44,0,0,0-1.82.77A2.77,2.77,0,0,0,268.23,442.49Z" style="fill:red"/><path d="M276.8,440.31a11.79,11.79,0,0,1,.47-3.68,4.58,4.58,0,0,1,1.4-2.15,3.57,3.57,0,0,1,2.33-.76,3.81,3.81,0,0,1,1.82.42,3.48,3.48,0,0,1,1.29,1.2,6.46,6.46,0,0,1,.8,1.92,12.74,12.74,0,0,1,.29,3,11.83,11.83,0,0,1-.46,3.66,4.58,4.58,0,0,1-1.39,2.15,3.57,3.57,0,0,1-2.34.76,3.53,3.53,0,0,1-2.93-1.34Q276.8,443.94,276.8,440.31Zm1.63,0q0,3.17.74,4.22a2.12,2.12,0,0,0,3.67,0q.74-1.05.74-4.22t-.74-4.23a2.21,2.21,0,0,0-1.85-1,2,2,0,0,0-1.74.92Q278.43,437.14,278.43,440.31Z" style="fill:red"/><path d="M286.94,442.8v-1.59h4.86v1.59Z" style="fill:red"/><path d="M299.38,446.67h-1.58V436.59a8.21,8.21,0,0,1-1.5,1.09,10.67,10.67,0,0,1-1.67.82V437a9.55,9.55,0,0,0,2.32-1.51,6,6,0,0,0,1.41-1.72h1Z" style="fill:red"/><path d="M303.73,440.31a11.79,11.79,0,0,1,.47-3.68,4.58,4.58,0,0,1,1.4-2.15,3.57,3.57,0,0,1,2.33-.76,3.81,3.81,0,0,1,1.82.42,3.48,3.48,0,0,1,1.29,1.2,6.46,6.46,0,0,1,.8,1.92,12.74,12.74,0,0,1,.29,3,11.83,11.83,0,0,1-.46,3.66,4.58,4.58,0,0,1-1.39,2.15,3.57,3.57,0,0,1-2.34.76,3.53,3.53,0,0,1-2.93-1.34Q303.74,443.94,303.73,440.31Zm1.63,0q0,3.17.74,4.22a2.12,2.12,0,0,0,3.67,0q.74-1.05.74-4.22t-.74-4.23a2.21,2.21,0,0,0-1.85-1,2,2,0,0,0-1.74.92Q305.36,437.14,305.36,440.31Z" style="fill:red"/><path d="M314.05,440.31a11.79,11.79,0,0,1,.47-3.68,4.58,4.58,0,0,1,1.4-2.15,3.57,3.57,0,0,1,2.33-.76,3.81,3.81,0,0,1,1.82.42,3.48,3.48,0,0,1,1.29,1.2,6.46,6.46,0,0,1,.8,1.92,12.74,12.74,0,0,1,.29,3A11.83,11.83,0,0,1,322,444a4.58,4.58,0,0,1-1.39,2.15,3.57,3.57,0,0,1-2.34.76,3.53,3.53,0,0,1-2.93-1.34Q314.05,443.94,314.05,440.31Zm1.63,0q0,3.17.74,4.22a2.12,2.12,0,0,0,3.67,0q.74-1.05.74-4.22t-.74-4.23a2.21,2.21,0,0,0-1.85-1,2,2,0,0,0-1.74.92Q315.68,437.14,315.68,440.31Z" style="fill:red"/><path d="M323.35,450.24V449.1h10.49v1.14Z" style="fill:red"/><path d="M340.64,446.67h-1.58V436.59a8.18,8.18,0,0,1-1.5,1.09,10.62,10.62,0,0,1-1.67.82V437a9.55,9.55,0,0,0,2.32-1.51,6,6,0,0,0,1.41-1.72h1Z" style="fill:red"/><path d="M345,440.31a11.79,11.79,0,0,1,.47-3.68,4.58,4.58,0,0,1,1.4-2.15,3.57,3.57,0,0,1,2.33-.76,3.8,3.8,0,0,1,1.82.42,3.48,3.48,0,0,1,1.29,1.2,6.46,6.46,0,0,1,.8,1.92,12.72,12.72,0,0,1,.29,3,11.82,11.82,0,0,1-.47,3.66,4.58,4.58,0,0,1-1.39,2.15,3.92,3.92,0,0,1-5.27-.58Q345,443.94,345,440.31Zm1.63,0q0,3.17.74,4.22a2.12,2.12,0,0,0,3.67,0q.74-1.05.74-4.22t-.74-4.23a2.2,2.2,0,0,0-1.85-1,2,2,0,0,0-1.74.92Q346.63,437.14,346.63,440.31Z" style="fill:red"/><path d="M355.32,440.31a11.76,11.76,0,0,1,.47-3.68,4.57,4.57,0,0,1,1.4-2.15,3.58,3.58,0,0,1,2.33-.76,3.81,3.81,0,0,1,1.82.42,3.48,3.48,0,0,1,1.29,1.2,6.46,6.46,0,0,1,.8,1.92,12.73,12.73,0,0,1,.29,3,11.82,11.82,0,0,1-.47,3.66,4.57,4.57,0,0,1-1.39,2.15,3.92,3.92,0,0,1-5.27-.58Q355.32,443.94,355.32,440.31Zm1.63,0q0,3.17.74,4.22a2.12,2.12,0,0,0,3.66,0q.74-1.05.74-4.22t-.74-4.23a2.2,2.2,0,0,0-1.85-1,2,2,0,0,0-1.74.92Q356.94,437.14,356.94,440.31Z" style="fill:red"/><path d="M364.62,450.24V449.1H375.1v1.14Z" style="fill:red"/><path d="M384.27,445.15v1.52h-8.52a2.8,2.8,0,0,1,.18-1.1,5.81,5.81,0,0,1,1-1.71,16.31,16.31,0,0,1,2.07-2,17.56,17.56,0,0,0,2.84-2.73,3.27,3.27,0,0,0,.74-1.9,2.11,2.11,0,0,0-.67-1.59,2.42,2.42,0,0,0-1.75-.65,2.47,2.47,0,0,0-1.83.69,2.59,2.59,0,0,0-.7,1.9l-1.62-.17a4,4,0,0,1,1.26-2.77,4.29,4.29,0,0,1,2.93-1,4.08,4.08,0,0,1,2.94,1,3.38,3.38,0,0,1,1.08,2.55,3.87,3.87,0,0,1-.32,1.52,5.9,5.9,0,0,1-1,1.57,25.57,25.57,0,0,1-2.44,2.27q-1.42,1.2-1.83,1.62a5.2,5.2,0,0,0-.67.86Z" style="fill:red"/><path d="M386.27,440.31a11.82,11.82,0,0,1,.47-3.68,4.58,4.58,0,0,1,1.4-2.15,3.57,3.57,0,0,1,2.33-.76,3.81,3.81,0,0,1,1.82.42,3.48,3.48,0,0,1,1.29,1.2,6.46,6.46,0,0,1,.8,1.92,12.73,12.73,0,0,1,.29,3,11.82,11.82,0,0,1-.47,3.66,4.58,4.58,0,0,1-1.39,2.15,3.58,3.58,0,0,1-2.34.76,3.54,3.54,0,0,1-2.93-1.34Q386.27,443.94,386.27,440.31Zm1.63,0q0,3.17.74,4.22a2.12,2.12,0,0,0,3.67,0q.74-1.05.74-4.22t-.74-4.23a2.21,2.21,0,0,0-1.85-1,2,2,0,0,0-1.74.92Q387.89,437.14,387.89,440.31Z" style="fill:red"/><path d="M396.59,440.31a11.79,11.79,0,0,1,.47-3.68,4.58,4.58,0,0,1,1.4-2.15,3.57,3.57,0,0,1,2.33-.76,3.8,3.8,0,0,1,1.82.42,3.48,3.48,0,0,1,1.29,1.2,6.46,6.46,0,0,1,.8,1.92,12.72,12.72,0,0,1,.29,3,11.82,11.82,0,0,1-.47,3.66,4.58,4.58,0,0,1-1.39,2.15,3.92,3.92,0,0,1-5.27-.58Q396.58,443.94,396.59,440.31Zm1.63,0q0,3.17.74,4.22a2.12,2.12,0,0,0,3.67,0q.74-1.05.74-4.22t-.74-4.23a2.2,2.2,0,0,0-1.85-1A2,2,0,0,0,399,436Q398.21,437.14,398.21,440.31Z" style="fill:red"/><path d="M407.2,436.88a3.92,3.92,0,0,1,.69-2.35,2.32,2.32,0,0,1,2-1,2.61,2.61,0,0,1,2,.87,4.41,4.41,0,0,1,0,5.06,2.58,2.58,0,0,1-2,.88,2.5,2.5,0,0,1-1.95-.87A3.85,3.85,0,0,1,407.2,436.88Zm2.75-2.22a1.19,1.19,0,0,0-1,.51,3.22,3.22,0,0,0-.39,1.87,2.9,2.9,0,0,0,.4,1.74,1.2,1.2,0,0,0,2,0,3.22,3.22,0,0,0,.39-1.86,2.92,2.92,0,0,0-.4-1.75A1.2,1.2,0,0,0,410,434.65Zm0,12.49,7-13.58h1.28l-7,13.58Zm5.57-3.5a3.91,3.91,0,0,1,.69-2.35,2.34,2.34,0,0,1,2-1,2.61,2.61,0,0,1,2,.87,3.64,3.64,0,0,1,.79,2.54,3.61,3.61,0,0,1-.8,2.52,2.58,2.58,0,0,1-2,.88,2.5,2.5,0,0,1-1.95-.87A3.85,3.85,0,0,1,415.53,443.64Zm2.76-2.22a1.2,1.2,0,0,0-1,.51,3.22,3.22,0,0,0-.39,1.87,2.91,2.91,0,0,0,.4,1.74,1.21,1.21,0,0,0,2,0,3.2,3.2,0,0,0,.39-1.86,2.92,2.92,0,0,0-.4-1.75A1.2,1.2,0,0,0,418.29,441.42Z" style="fill:red"/><path d="M422.19,450.24V449.1h10.49v1.14Z" style="fill:red"/><path d="M433.65,440.39a7,7,0,0,1,1.72-5,5.86,5.86,0,0,1,4.45-1.81,6.17,6.17,0,0,1,3.22.85,5.57,5.57,0,0,1,2.18,2.38,7.72,7.72,0,0,1,.75,3.46,7.59,7.59,0,0,1-.79,3.51,5.4,5.4,0,0,1-2.24,2.34,6.4,6.4,0,0,1-3.13.8,6.09,6.09,0,0,1-3.25-.88,5.66,5.66,0,0,1-2.17-2.4A7.27,7.27,0,0,1,433.65,440.39Zm1.76,0a5.16,5.16,0,0,0,1.25,3.67,4.37,4.37,0,0,0,6.31,0,5.47,5.47,0,0,0,1.24-3.84,6.6,6.6,0,0,0-.53-2.75,4.09,4.09,0,0,0-1.56-1.82,4.22,4.22,0,0,0-2.3-.65,4.36,4.36,0,0,0-3.12,1.24Q435.41,437.51,435.41,440.42Z" style="fill:red"/><path d="M452.16,446.67l-5-12.88H449l3.35,9.36q.4,1.13.68,2.11.3-1.05.69-2.11l3.48-9.36H459l-5,12.88Z" style="fill:red"/><path d="M460.83,446.67V433.78h9.32v1.52h-7.61v3.95h7.13v1.51h-7.13v4.39h7.91v1.52Z" style="fill:red"/><path d="M473.13,446.67V433.78h5.71a7.6,7.6,0,0,1,2.62.35,2.86,2.86,0,0,1,1.43,1.23,3.66,3.66,0,0,1,.54,1.94,3.24,3.24,0,0,1-.89,2.31,4.49,4.49,0,0,1-2.74,1.2,4.43,4.43,0,0,1,1,.64,8.86,8.86,0,0,1,1.41,1.71l2.24,3.51h-2.14L480.63,444q-.75-1.16-1.23-1.78a3.87,3.87,0,0,0-.87-.86,2.56,2.56,0,0,0-.78-.34,5.12,5.12,0,0,0-.95-.06h-2v5.72Zm1.71-7.2h3.66a5.5,5.5,0,0,0,1.83-.24,2,2,0,0,0,1-.77,2.09,2.09,0,0,0,.34-1.16,1.92,1.92,0,0,0-.66-1.5,3.1,3.1,0,0,0-2.1-.59h-4.08Z" style="fill:red"/><path d="M495.6,442.15l1.71.43a5.74,5.74,0,0,1-1.93,3.2,5.32,5.32,0,0,1-3.41,1.1,6.12,6.12,0,0,1-3.39-.85,5.31,5.31,0,0,1-2-2.46,8.78,8.78,0,0,1-.68-3.45,7.6,7.6,0,0,1,.77-3.51,5.27,5.27,0,0,1,2.19-2.28,6.39,6.39,0,0,1,3.12-.78,5.28,5.28,0,0,1,3.25,1,5.11,5.11,0,0,1,1.84,2.77l-1.68.4a4,4,0,0,0-1.3-2A3.47,3.47,0,0,0,492,435a4.17,4.17,0,0,0-2.48.71,3.76,3.76,0,0,0-1.4,1.91,7.7,7.7,0,0,0-.4,2.47,7.84,7.84,0,0,0,.48,2.87,3.56,3.56,0,0,0,1.49,1.83,4.18,4.18,0,0,0,2.19.61,3.67,3.67,0,0,0,2.43-.83A4.23,4.23,0,0,0,495.6,442.15Z" style="fill:red"/><path d="M503.34,446.67v-5.46l-5-7.43h2.07l2.54,3.88q.7,1.09,1.31,2.18.58-1,1.41-2.28l2.5-3.79h2L505,441.21v5.46Z" style="fill:red"/><path d="M521.22,442.15l1.71.43a5.74,5.74,0,0,1-1.93,3.2,5.31,5.31,0,0,1-3.41,1.1,6.12,6.12,0,0,1-3.39-.85,5.3,5.3,0,0,1-2-2.46,8.77,8.77,0,0,1-.68-3.45,7.59,7.59,0,0,1,.77-3.51,5.27,5.27,0,0,1,2.19-2.28,6.39,6.39,0,0,1,3.12-.78,5.28,5.28,0,0,1,3.25,1,5.11,5.11,0,0,1,1.84,2.77l-1.68.4a4,4,0,0,0-1.3-2,3.47,3.47,0,0,0-2.14-.64,4.16,4.16,0,0,0-2.48.71,3.76,3.76,0,0,0-1.4,1.91,7.7,7.7,0,0,0-.4,2.47,7.86,7.86,0,0,0,.48,2.87,3.57,3.57,0,0,0,1.49,1.83,4.18,4.18,0,0,0,2.19.61,3.67,3.67,0,0,0,2.43-.83A4.23,4.23,0,0,0,521.22,442.15Z" style="fill:red"/><path d="M525.26,446.67V433.78H527v11.36h6.35v1.52Z" style="fill:red"/><path d="M535.68,446.67V433.78H545v1.52h-7.61v3.95h7.13v1.51h-7.13v4.39h7.91v1.52Z" style="fill:red"/><path d="M553.35,446.67V433.78H562v1.52h-7v4h6v1.52h-6v5.85Z" style="fill:red"/><path d="M562.16,446.67l4.95-12.88h1.84l5.27,12.88h-1.94l-1.5-3.9h-5.39l-1.42,3.9Zm3.72-5.29h4.37l-1.34-3.57q-.62-1.63-.91-2.67a16.43,16.43,0,0,1-.69,2.46Z" style="fill:red"/><path d="M584.34,433.78H586v7.44a8.81,8.81,0,0,1-.44,3.08,3.76,3.76,0,0,1-1.59,1.86,5.62,5.62,0,0,1-3,.72,6.18,6.18,0,0,1-3-.62,3.56,3.56,0,0,1-1.64-1.81,8.61,8.61,0,0,1-.49-3.23v-7.44h1.71v7.44a7.25,7.25,0,0,0,.31,2.47,2.37,2.37,0,0,0,1.07,1.23,3.72,3.72,0,0,0,1.86.43,3.55,3.55,0,0,0,2.68-.85,4.91,4.91,0,0,0,.8-3.28Z" style="fill:red"/><path d="M589.12,446.67V433.78h1.71v11.36h6.35v1.52Z" style="fill:red"/><path d="M601.45,446.67V435.3H597.2v-1.52h10.21v1.52h-4.26v11.36Z" style="fill:red"/><path d="M607.69,446.67v-1.8h1.8v1.8a3.2,3.2,0,0,1-.35,1.6,2.29,2.29,0,0,1-1.12.94l-.44-.68a1.5,1.5,0,0,0,.74-.65,2.75,2.75,0,0,0,.26-1.23Z" style="fill:red"/><path d="M617.51,442.53l1.61-.14a3.55,3.55,0,0,0,.53,1.59,2.9,2.9,0,0,0,1.3,1,4.9,4.9,0,0,0,2,.38,4.74,4.74,0,0,0,1.72-.29,2.39,2.39,0,0,0,1.11-.8,1.84,1.84,0,0,0,.36-1.1,1.68,1.68,0,0,0-.35-1.06,2.6,2.6,0,0,0-1.16-.76,22.63,22.63,0,0,0-2.29-.63,11.73,11.73,0,0,1-2.49-.8,3.49,3.49,0,0,1-1.37-1.2,2.94,2.94,0,0,1-.45-1.6,3.28,3.28,0,0,1,.55-1.82,3.43,3.43,0,0,1,1.62-1.29,6.13,6.13,0,0,1,2.36-.44,6.46,6.46,0,0,1,2.53.46,3.65,3.65,0,0,1,1.68,1.36,3.9,3.9,0,0,1,.63,2l-1.63.12a2.64,2.64,0,0,0-.89-1.85,3.47,3.47,0,0,0-2.25-.62,3.6,3.6,0,0,0-2.25.57,1.7,1.7,0,0,0-.71,1.37,1.46,1.46,0,0,0,.5,1.14,6.79,6.79,0,0,0,2.57.92,17,17,0,0,1,2.85.82,3.9,3.9,0,0,1,1.66,1.31,3.2,3.2,0,0,1,.54,1.83,3.51,3.51,0,0,1-.59,1.94,3.88,3.88,0,0,1-1.69,1.42,5.89,5.89,0,0,1-2.48.51,7.42,7.42,0,0,1-2.93-.51,4.11,4.11,0,0,1-1.85-1.53A4.35,4.35,0,0,1,617.51,442.53Z" style="fill:red"/><path d="M633.68,446.67V435.3h-4.24v-1.52h10.21v1.52h-4.26v11.36Z" style="fill:red"/><path d="M639,446.67l4.95-12.88h1.84L651,446.67h-1.94l-1.5-3.9h-5.39l-1.42,3.9Zm3.72-5.29H647l-1.34-3.57q-.62-1.63-.91-2.67a16.43,16.43,0,0,1-.69,2.46Z" style="fill:red"/><path d="M654.62,446.67V435.3h-4.24v-1.52h10.21v1.52h-4.26v11.36Z" style="fill:red"/><path d="M662.93,446.67V433.78h1.71v12.88Z" style="fill:red"/><path d="M667.43,440.39a7,7,0,0,1,1.72-5,5.86,5.86,0,0,1,4.45-1.81,6.17,6.17,0,0,1,3.22.85,5.57,5.57,0,0,1,2.18,2.38,7.73,7.73,0,0,1,.75,3.46,7.59,7.59,0,0,1-.79,3.51,5.4,5.4,0,0,1-2.24,2.34,6.4,6.4,0,0,1-3.13.8,6.09,6.09,0,0,1-3.25-.88,5.66,5.66,0,0,1-2.17-2.4A7.27,7.27,0,0,1,667.43,440.39Zm1.76,0a5.16,5.16,0,0,0,1.25,3.67,4.37,4.37,0,0,0,6.31,0,5.48,5.48,0,0,0,1.24-3.84,6.59,6.59,0,0,0-.53-2.75,4.08,4.08,0,0,0-1.55-1.82,4.22,4.22,0,0,0-2.3-.65,4.36,4.36,0,0,0-3.12,1.24Q669.19,437.51,669.19,440.42Z" style="fill:red"/><path d="M682.24,446.67V433.78H684l6.77,10.12V433.78h1.63v12.88h-1.75l-6.77-10.12v10.13Z" style="fill:red"/><path d="M694.75,442.8v-1.59h4.86v1.59Z" style="fill:red"/><path d="M707.18,446.67H705.6V436.59a8.15,8.15,0,0,1-1.5,1.09,10.58,10.58,0,0,1-1.67.82V437a9.55,9.55,0,0,0,2.32-1.51,6,6,0,0,0,1.41-1.72h1Z" style="fill:red"/><path d="M716.16,446.67h-1.58V436.59a8.18,8.18,0,0,1-1.5,1.09,10.62,10.62,0,0,1-1.67.82V437a9.55,9.55,0,0,0,2.32-1.51,6,6,0,0,0,1.41-1.72h1Z" style="fill:red"/><path d="M723,439.68a3,3,0,0,1-1.46-1,2.69,2.69,0,0,1-.47-1.6,3.13,3.13,0,0,1,1-2.36,4.25,4.25,0,0,1,5.41,0,3.17,3.17,0,0,1,1,2.39,2.62,2.62,0,0,1-.47,1.56,3,3,0,0,1-1.43,1,3.47,3.47,0,0,1,1.81,1.25A3.43,3.43,0,0,1,729,443a3.7,3.7,0,0,1-1.17,2.78,4.76,4.76,0,0,1-6.15,0,3.76,3.76,0,0,1-1.17-2.82,3.41,3.41,0,0,1,.64-2.1A3.2,3.2,0,0,1,723,439.68Zm-.83,3.27a2.85,2.85,0,0,0,.32,1.31,2.26,2.26,0,0,0,1,1,2.79,2.79,0,0,0,1.36.35,2.55,2.55,0,0,0,1.87-.73,2.5,2.5,0,0,0,.74-1.85,2.54,2.54,0,0,0-.76-1.89,2.61,2.61,0,0,0-1.9-.75,2.52,2.52,0,0,0-2.58,2.58Zm.51-6a2,2,0,0,0,.59,1.49,2.09,2.09,0,0,0,1.53.58,2,2,0,0,0,1.5-.58,1.9,1.9,0,0,0,.58-1.41,2,2,0,0,0-.6-1.46,2,2,0,0,0-1.5-.59,2.07,2.07,0,0,0-1.5.58A1.87,1.87,0,0,0,722.64,437Z" style="fill:red"/><path d="M730.84,440.31a11.76,11.76,0,0,1,.47-3.68,4.57,4.57,0,0,1,1.4-2.15,3.58,3.58,0,0,1,2.33-.76,3.81,3.81,0,0,1,1.82.42,3.48,3.48,0,0,1,1.29,1.2,6.46,6.46,0,0,1,.8,1.92,12.73,12.73,0,0,1,.29,3,11.82,11.82,0,0,1-.47,3.66,4.57,4.57,0,0,1-1.39,2.15,3.92,3.92,0,0,1-5.27-.58Q730.84,443.94,730.84,440.31Zm1.63,0q0,3.17.74,4.22a2.12,2.12,0,0,0,3.66,0q.74-1.05.74-4.22t-.74-4.23a2.2,2.2,0,0,0-1.85-1,2,2,0,0,0-1.74.92Q732.46,437.14,732.46,440.31Z" style="fill:red"/><path d="M741,442.8v-1.59h4.86v1.59Z" style="fill:red"/><path d="M753.41,446.67h-1.58V436.59a8.21,8.21,0,0,1-1.5,1.09,10.67,10.67,0,0,1-1.67.82V437a9.55,9.55,0,0,0,2.32-1.51,6,6,0,0,0,1.41-1.72h1Z" style="fill:red"/><path d="M757.77,440.31a11.76,11.76,0,0,1,.47-3.68,4.57,4.57,0,0,1,1.4-2.15,3.58,3.58,0,0,1,2.33-.76,3.81,3.81,0,0,1,1.82.42,3.48,3.48,0,0,1,1.29,1.2,6.46,6.46,0,0,1,.8,1.92,12.73,12.73,0,0,1,.29,3,11.82,11.82,0,0,1-.47,3.66,4.57,4.57,0,0,1-1.39,2.15,3.92,3.92,0,0,1-5.27-.58Q757.77,443.94,757.77,440.31Zm1.63,0q0,3.17.74,4.22a2.12,2.12,0,0,0,3.66,0q.74-1.05.74-4.22t-.74-4.23a2.2,2.2,0,0,0-1.85-1,2,2,0,0,0-1.74.92Q759.4,437.14,759.4,440.31Z" style="fill:red"/><path d="M768.09,440.31a11.79,11.79,0,0,1,.47-3.68,4.58,4.58,0,0,1,1.4-2.15,3.57,3.57,0,0,1,2.33-.76,3.81,3.81,0,0,1,1.82.42,3.48,3.48,0,0,1,1.29,1.2,6.46,6.46,0,0,1,.8,1.92,12.74,12.74,0,0,1,.29,3A11.83,11.83,0,0,1,776,444a4.58,4.58,0,0,1-1.39,2.15,3.57,3.57,0,0,1-2.34.76,3.53,3.53,0,0,1-2.93-1.34Q768.09,443.94,768.09,440.31Zm1.63,0q0,3.17.74,4.22a2.12,2.12,0,0,0,3.67,0q.74-1.05.74-4.22t-.74-4.23a2.21,2.21,0,0,0-1.85-1,2,2,0,0,0-1.74.92Q769.71,437.14,769.71,440.31Z" style="fill:red"/><path d="M777.38,450.24V449.1h10.49v1.14Z" style="fill:red"/><path d="M794.68,446.67H793.1V436.59a8.15,8.15,0,0,1-1.5,1.09,10.58,10.58,0,0,1-1.67.82V437a9.55,9.55,0,0,0,2.32-1.51,6,6,0,0,0,1.41-1.72h1Z" style="fill:red"/><path d="M799,440.31a11.79,11.79,0,0,1,.47-3.68,4.58,4.58,0,0,1,1.4-2.15,3.57,3.57,0,0,1,2.33-.76,3.8,3.8,0,0,1,1.82.42,3.48,3.48,0,0,1,1.29,1.2,6.46,6.46,0,0,1,.8,1.92,12.72,12.72,0,0,1,.29,3A11.82,11.82,0,0,1,807,444a4.58,4.58,0,0,1-1.39,2.15,3.92,3.92,0,0,1-5.27-.58Q799,443.94,799,440.31Zm1.63,0q0,3.17.74,4.22a2.12,2.12,0,0,0,3.67,0q.74-1.05.74-4.22t-.74-4.23a2.2,2.2,0,0,0-1.85-1,2,2,0,0,0-1.74.92Q800.66,437.14,800.66,440.31Z" style="fill:red"/></svg>