<svg id="Layer_2" data-name="Layer 2" xmlns="http://www.w3.org/2000/svg" viewBox="0 0 812 456.75"><title>machining-andon-line</title><rect width="812" height="386"/><path d="M658.13,16.67v-10h1.33v8.84h4.94v1.18Z" style="fill:#f5f500"/><path d="M670.55,15.77a4.61,4.61,0,0,1-1.32.82,3.81,3.81,0,0,1-1.36.24,2.64,2.64,0,0,1-1.84-.58,1.93,1.93,0,0,1-.64-1.49,2,2,0,0,1,.88-1.68,3,3,0,0,1,.88-.4,8.73,8.73,0,0,1,1.09-.19,11.23,11.23,0,0,0,2.2-.42c0-.17,0-.28,0-.32a1.36,1.36,0,0,0-.35-1.06,2.06,2.06,0,0,0-1.4-.42,2.18,2.18,0,0,0-1.28.3,1.86,1.86,0,0,0-.61,1.08l-1.2-.16a3,3,0,0,1,.54-1.25,2.37,2.37,0,0,1,1.09-.73,4.84,4.84,0,0,1,1.65-.26,4.37,4.37,0,0,1,1.51.22,2,2,0,0,1,.85.55,1.92,1.92,0,0,1,.38.84A6.89,6.89,0,0,1,671.7,12v1.64a17.37,17.37,0,0,0,.08,2.17,2.76,2.76,0,0,0,.31.87H670.8A2.63,2.63,0,0,1,670.55,15.77Zm-.1-2.75a9.1,9.1,0,0,1-2,.46,4.6,4.6,0,0,0-1.07.25,1.07,1.07,0,0,0-.48.4,1.09,1.09,0,0,0,.2,1.41,1.6,1.6,0,0,0,1.09.33,2.53,2.53,0,0,0,1.27-.31,1.92,1.92,0,0,0,.81-.85,3,3,0,0,0,.2-1.23Z" style="fill:#f5f500"/><path d="M673.11,14.5l1.22-.19a1.7,1.7,0,0,0,.57,1.12,2,2,0,0,0,1.31.39,1.93,1.93,0,0,0,1.26-.34,1,1,0,0,0,.41-.81.75.75,0,0,0-.36-.66,5.33,5.33,0,0,0-1.26-.42,11.38,11.38,0,0,1-1.88-.59,1.79,1.79,0,0,1-1.06-1.67,1.86,1.86,0,0,1,.22-.9,2,2,0,0,1,.61-.69,2.56,2.56,0,0,1,.78-.36A3.7,3.7,0,0,1,676,9.24a4.2,4.2,0,0,1,1.5.25,2,2,0,0,1,1,.67,2.6,2.6,0,0,1,.42,1.12l-1.2.16a1.32,1.32,0,0,0-.47-.87,1.74,1.74,0,0,0-1.11-.31,2,2,0,0,0-1.21.28.81.81,0,0,0-.36.66.68.68,0,0,0,.15.43,1.08,1.08,0,0,0,.47.33q.18.07,1.09.31a15.19,15.19,0,0,1,1.82.57,1.85,1.85,0,0,1,.81.65,1.81,1.81,0,0,1,.29,1.05,2.07,2.07,0,0,1-.36,1.16,2.32,2.32,0,0,1-1,.84,3.77,3.77,0,0,1-1.53.3,3.4,3.4,0,0,1-2.16-.59A2.73,2.73,0,0,1,673.11,14.5Z" style="fill:#f5f500"/><path d="M683.29,15.57l.18,1.09a4.54,4.54,0,0,1-.93.11,2.11,2.11,0,0,1-1-.21A1.19,1.19,0,0,1,681,16a4.39,4.39,0,0,1-.15-1.45V10.36h-.9v-1h.9V7.61l1.22-.74V9.41h1.24v1h-1.24v4.25a2.11,2.11,0,0,0,.07.68.52.52,0,0,0,.21.24.82.82,0,0,0,.42.09A4.1,4.1,0,0,0,683.29,15.57Z" style="fill:#f5f500"/><path d="M695.12,6.64h1.33v5.79a6.85,6.85,0,0,1-.34,2.4,2.93,2.93,0,0,1-1.23,1.45,4.36,4.36,0,0,1-2.34.56,4.8,4.8,0,0,1-2.3-.49,2.77,2.77,0,0,1-1.28-1.4,6.7,6.7,0,0,1-.38-2.51V6.64h1.33v5.78a5.66,5.66,0,0,0,.24,1.92,1.84,1.84,0,0,0,.83,1,2.9,2.9,0,0,0,1.45.33,2.76,2.76,0,0,0,2.08-.66,3.82,3.82,0,0,0,.62-2.55Z" style="fill:#f5f500"/><path d="M698.49,19.45v-10h1.12v.94a2.76,2.76,0,0,1,.89-.83,2.46,2.46,0,0,1,1.21-.28,2.88,2.88,0,0,1,1.64.48,2.94,2.94,0,0,1,1.07,1.35A4.92,4.92,0,0,1,704.8,13a4.85,4.85,0,0,1-.4,2,3,3,0,0,1-2.77,1.84,2.31,2.31,0,0,1-1.1-.26,2.49,2.49,0,0,1-.8-.66v3.54Zm1.11-6.37a3.15,3.15,0,0,0,.57,2.07,1.74,1.74,0,0,0,1.37.67,1.78,1.78,0,0,0,1.41-.69,3.29,3.29,0,0,0,.58-2.15A3.21,3.21,0,0,0,703,10.9a1.72,1.72,0,0,0-1.36-.69,1.77,1.77,0,0,0-1.39.73A3.29,3.29,0,0,0,699.61,13.08Z" style="fill:#f5f500"/><path d="M711,16.67v-.92a2.26,2.26,0,0,1-2,1.08,2.84,2.84,0,0,1-1.6-.48A3.14,3.14,0,0,1,706.24,15a4.62,4.62,0,0,1-.4-2,5.17,5.17,0,0,1,.36-2,2.86,2.86,0,0,1,1.09-1.36,2.9,2.9,0,0,1,1.62-.47,2.42,2.42,0,0,1,1.17.28,2.45,2.45,0,0,1,.83.72V6.64h1.22v10ZM707.1,13a3.16,3.16,0,0,0,.59,2.09,1.78,1.78,0,0,0,1.39.69,1.74,1.74,0,0,0,1.37-.66,3,3,0,0,0,.56-2,3.41,3.41,0,0,0-.57-2.19,1.76,1.76,0,0,0-1.41-.7,1.7,1.7,0,0,0-1.37.67A3.3,3.3,0,0,0,707.1,13Z" style="fill:#f5f500"/><path d="M718.8,15.77a4.61,4.61,0,0,1-1.32.82,3.81,3.81,0,0,1-1.36.24,2.64,2.64,0,0,1-1.84-.58,1.93,1.93,0,0,1-.64-1.49,2,2,0,0,1,.88-1.68,3,3,0,0,1,.88-.4,8.73,8.73,0,0,1,1.09-.19,11.23,11.23,0,0,0,2.2-.42c0-.17,0-.28,0-.32a1.36,1.36,0,0,0-.35-1.06,2.06,2.06,0,0,0-1.4-.42,2.18,2.18,0,0,0-1.28.3,1.86,1.86,0,0,0-.61,1.08l-1.2-.16a3,3,0,0,1,.54-1.25,2.37,2.37,0,0,1,1.09-.73,4.84,4.84,0,0,1,1.65-.26,4.37,4.37,0,0,1,1.51.22,2,2,0,0,1,.85.55,1.92,1.92,0,0,1,.38.84,6.89,6.89,0,0,1,.06,1.13v1.64a17.37,17.37,0,0,0,.08,2.17,2.76,2.76,0,0,0,.31.87H719A2.63,2.63,0,0,1,718.8,15.77ZM718.7,13a9.1,9.1,0,0,1-2,.46,4.6,4.6,0,0,0-1.07.25,1.07,1.07,0,0,0-.48.4,1.09,1.09,0,0,0,.2,1.41,1.6,1.6,0,0,0,1.09.33,2.53,2.53,0,0,0,1.27-.31,1.92,1.92,0,0,0,.81-.85,3,3,0,0,0,.2-1.23Z" style="fill:#f5f500"/><path d="M724.54,15.57l.18,1.09a4.54,4.54,0,0,1-.93.11,2.11,2.11,0,0,1-1-.21,1.19,1.19,0,0,1-.52-.56,4.39,4.39,0,0,1-.15-1.45V10.36h-.9v-1h.9V7.61l1.22-.74V9.41h1.24v1H723.3v4.25a2.11,2.11,0,0,0,.07.68.52.52,0,0,0,.21.24.82.82,0,0,0,.42.09A4.1,4.1,0,0,0,724.54,15.57Z" style="fill:#f5f500"/><path d="M730.71,14.33l1.27.16a3.1,3.1,0,0,1-1.11,1.73,3.78,3.78,0,0,1-4.6-.37,3.83,3.83,0,0,1-.93-2.75,4,4,0,0,1,.94-2.84,3.2,3.2,0,0,1,2.45-1,3.1,3.1,0,0,1,2.38,1A3.94,3.94,0,0,1,732,13q0,.11,0,.33H726.6a2.79,2.79,0,0,0,.68,1.83,2,2,0,0,0,1.52.63,1.88,1.88,0,0,0,1.16-.36A2.36,2.36,0,0,0,730.71,14.33Zm-4-2h4.05a2.46,2.46,0,0,0-.46-1.37,1.88,1.88,0,0,0-1.52-.71,2,2,0,0,0-1.43.57A2.25,2.25,0,0,0,726.67,12.34Z" style="fill:#f5f500"/><path d="M738.24,16.67v-.92a2.26,2.26,0,0,1-2,1.08,2.84,2.84,0,0,1-1.6-.48A3.14,3.14,0,0,1,733.48,15a4.62,4.62,0,0,1-.4-2,5.17,5.17,0,0,1,.36-2,2.86,2.86,0,0,1,1.09-1.36,2.9,2.9,0,0,1,1.62-.47,2.42,2.42,0,0,1,1.17.28,2.45,2.45,0,0,1,.83.72V6.64h1.22v10ZM734.35,13a3.16,3.16,0,0,0,.59,2.09,1.78,1.78,0,0,0,1.39.69,1.74,1.74,0,0,0,1.37-.66,3,3,0,0,0,.56-2,3.41,3.41,0,0,0-.57-2.19,1.76,1.76,0,0,0-1.41-.7,1.7,1.7,0,0,0-1.37.67A3.3,3.3,0,0,0,734.35,13Z" style="fill:#f5f500"/><path d="M741.66,10.81V9.41h1.4v1.4Zm0,5.86v-1.4h1.4v1.4Z" style="fill:#f5f500"/><path d="M753.39,16.67h-1.23V8.83a6.45,6.45,0,0,1-1.17.85,8.2,8.2,0,0,1-1.29.63V9.12a7.43,7.43,0,0,0,1.8-1.18,4.63,4.63,0,0,0,1.09-1.34h.79Z" style="fill:#f5f500"/><path d="M760.48,16.67v-2.4h-4.35V13.14l4.57-6.49h1v6.49h1.35v1.13h-1.35v2.4Zm0-3.53V8.62l-3.14,4.52Z" style="fill:#f5f500"/><path d="M765,10.81V9.41h1.4v1.4Zm0,5.86v-1.4h1.4v1.4Z" style="fill:#f5f500"/><path d="M772.16,16.67v-2.4h-4.35V13.14l4.57-6.49h1v6.49h1.35v1.13h-1.35v2.4Zm0-3.53V8.62L769,13.14Z" style="fill:#f5f500"/><path d="M777.89,11.23a2.32,2.32,0,0,1-1.13-.8,2.09,2.09,0,0,1-.37-1.24,2.43,2.43,0,0,1,.79-1.84,3.3,3.3,0,0,1,4.2,0,2.47,2.47,0,0,1,.8,1.86,2,2,0,0,1-.37,1.21,2.31,2.31,0,0,1-1.11.8,2.56,2.56,0,0,1,1.89,2.57,2.88,2.88,0,0,1-.91,2.16,3.7,3.7,0,0,1-4.79,0,2.92,2.92,0,0,1-.91-2.19,2.64,2.64,0,0,1,.5-1.64A2.48,2.48,0,0,1,777.89,11.23Zm-.64,2.54a2.23,2.23,0,0,0,.25,1,1.76,1.76,0,0,0,.74.76,2.16,2.16,0,0,0,1.06.27,2,2,0,0,0,1.46-.57,1.94,1.94,0,0,0,.57-1.44,2,2,0,0,0-.59-1.47,2,2,0,0,0-1.48-.58,2,2,0,0,0-2,2Zm.4-4.63a1.56,1.56,0,0,0,.46,1.16,1.62,1.62,0,0,0,1.19.45,1.59,1.59,0,0,0,1.17-.45,1.48,1.48,0,0,0,.45-1.1,1.54,1.54,0,0,0-.47-1.14,1.59,1.59,0,0,0-1.17-.46,1.61,1.61,0,0,0-1.17.45A1.45,1.45,0,0,0,777.65,9.15Z" style="fill:#f5f500"/><path d="M784.47,10.81V9.41h1.4v1.4Zm0,5.86v-1.4h1.4v1.4Z" style="fill:#f5f500"/><path d="M787.68,14l1.23-.16a2.72,2.72,0,0,0,.72,1.51,1.78,1.78,0,0,0,1.24.46,2,2,0,0,0,1.47-.6,2,2,0,0,0,.6-1.49,1.89,1.89,0,0,0-.55-1.4,1.91,1.91,0,0,0-1.41-.55,3.54,3.54,0,0,0-.87.14l.14-1.08h.2a2.54,2.54,0,0,0,1.42-.41,1.4,1.4,0,0,0,.63-1.26A1.5,1.5,0,0,0,792,8.06a1.62,1.62,0,0,0-1.18-.45,1.68,1.68,0,0,0-1.2.45A2.27,2.27,0,0,0,789,9.42L787.8,9.2a3.16,3.16,0,0,1,1-1.92,3,3,0,0,1,2-.68,3.26,3.26,0,0,1,1.51.35,2.55,2.55,0,0,1,1.06,1,2.47,2.47,0,0,1,.37,1.29,2.11,2.11,0,0,1-.35,1.18,2.38,2.38,0,0,1-1,.85,2.33,2.33,0,0,1,1.38.85,2.59,2.59,0,0,1,.49,1.62,3,3,0,0,1-1,2.22,3.36,3.36,0,0,1-2.42.91,3.15,3.15,0,0,1-2.19-.79A3,3,0,0,1,787.68,14Z" style="fill:#f5f500"/><path d="M795.65,14.35l1.18-.11a2.05,2.05,0,0,0,.57,1.21,1.58,1.58,0,0,0,1.09.38,1.88,1.88,0,0,0,1-.26,2.13,2.13,0,0,0,.7-.69,4.11,4.11,0,0,0,.46-1.17,6.18,6.18,0,0,0,.19-1.5c0-.05,0-.14,0-.25a2.81,2.81,0,0,1-1,1,2.75,2.75,0,0,1-1.38.37,2.8,2.8,0,0,1-2.11-.9,3.3,3.3,0,0,1-.86-2.38,3.39,3.39,0,0,1,.9-2.46,3,3,0,0,1,2.25-.93,3.21,3.21,0,0,1,1.79.53,3.29,3.29,0,0,1,1.23,1.5,7.39,7.39,0,0,1,.42,2.82,9.14,9.14,0,0,1-.42,3.06,3.58,3.58,0,0,1-1.24,1.73,3.21,3.21,0,0,1-1.93.6,2.65,2.65,0,0,1-2.82-2.49Zm5-4.42a2.41,2.41,0,0,0-.56-1.68,1.77,1.77,0,0,0-1.36-.62,1.87,1.87,0,0,0-1.43.67,2.48,2.48,0,0,0-.61,1.74,2.14,2.14,0,0,0,.58,1.55,1.9,1.9,0,0,0,1.42.6,1.82,1.82,0,0,0,1.41-.6A2.36,2.36,0,0,0,800.68,9.93Z" style="fill:#f5f500"/><path d="M5.88,34.67v-9.3H7.11v9.3Z" style="fill:#00fb00"/><path d="M9.27,34.67v-9.3h1.26l4.89,7.31V25.36H16.6v9.3H15.34l-4.89-7.31v7.31Z" style="fill:#00fb00"/><path d="M18.67,34.67v-9.3h3.51a8.58,8.58,0,0,1,1.42.09,2.8,2.8,0,0,1,1.15.44,2.28,2.28,0,0,1,.75.9A3,3,0,0,1,25,30.06a3.62,3.62,0,0,1-2.73.82H19.9v3.78Zm1.23-4.88h2.41a2.56,2.56,0,0,0,1.7-.44,1.58,1.58,0,0,0,.5-1.25,1.68,1.68,0,0,0-.3-1,1.38,1.38,0,0,0-.78-.55,5.28,5.28,0,0,0-1.15-.08H19.9Z" style="fill:#00fb00"/><path d="M33.45,25.36h1.23v5.38A6.38,6.38,0,0,1,34.36,33a2.72,2.72,0,0,1-1.15,1.34,4.07,4.07,0,0,1-2.17.52,4.47,4.47,0,0,1-2.14-.45,2.57,2.57,0,0,1-1.19-1.3,6.23,6.23,0,0,1-.36-2.33V25.36h1.23v5.37a5.23,5.23,0,0,0,.23,1.79,1.72,1.72,0,0,0,.77.89,2.69,2.69,0,0,0,1.34.31,2.56,2.56,0,0,0,1.94-.62,3.55,3.55,0,0,0,.58-2.37Z" style="fill:#00fb00"/><path d="M39.1,34.67V26.46H36v-1.1h7.38v1.1H40.33v8.21Z" style="fill:#00fb00"/><path d="M148.71,30.08a8.55,8.55,0,0,1,.34-2.66,3.3,3.3,0,0,1,1-1.55,2.58,2.58,0,0,1,1.69-.55,2.75,2.75,0,0,1,1.31.3,2.5,2.5,0,0,1,.93.87,4.65,4.65,0,0,1,.58,1.38,9.15,9.15,0,0,1,.21,2.2,8.52,8.52,0,0,1-.34,2.64,3.29,3.29,0,0,1-1,1.55,2.83,2.83,0,0,1-3.8-.42A6.13,6.13,0,0,1,148.71,30.08Zm1.17,0a5.84,5.84,0,0,0,.54,3,1.53,1.53,0,0,0,2.65,0,5.84,5.84,0,0,0,.54-3,5.84,5.84,0,0,0-.54-3.05,1.6,1.6,0,0,0-1.34-.75,1.46,1.46,0,0,0-1.26.67A5.9,5.9,0,0,0,149.88,30.08Z" style="fill:#00fb00"/><path d="M631.67,34.67v-9.3h3.51a8.58,8.58,0,0,1,1.42.09,2.8,2.8,0,0,1,1.15.44,2.28,2.28,0,0,1,.75.9,3,3,0,0,1-.47,3.28,3.62,3.62,0,0,1-2.73.82H632.9v3.78Zm1.23-4.88h2.41a2.56,2.56,0,0,0,1.7-.44,1.58,1.58,0,0,0,.5-1.25,1.68,1.68,0,0,0-.3-1,1.38,1.38,0,0,0-.78-.55,5.28,5.28,0,0,0-1.15-.08H632.9Z" style="fill:#00fb00"/><path d="M640.29,34.67v-9.3h1.23v8.21h4.58v1.1Z" style="fill:#00fb00"/><path d="M646.55,34.67l3.57-9.3h1.33l3.81,9.3h-1.4l-1.08-2.82h-3.89l-1,2.82Zm2.68-3.82h3.16l-1-2.58q-.44-1.17-.66-1.93a11.89,11.89,0,0,1-.5,1.78Z" style="fill:#00fb00"/><path d="M656.23,34.67v-9.3h1.26l4.89,7.31V25.36h1.18v9.3H662.3l-4.89-7.31v7.31Z" style="fill:#00fb00"/><path d="M793.13,27.64l-1.14.09a2.14,2.14,0,0,0-.43-1,1.51,1.51,0,0,0-1.14-.49,1.57,1.57,0,0,0-1,.3,2.6,2.6,0,0,0-.85,1.15,6,6,0,0,0-.32,2.15,2.65,2.65,0,0,1,1-.93,2.72,2.72,0,0,1,1.25-.3,2.59,2.59,0,0,1,1.95.84,3,3,0,0,1,.8,2.17,3.58,3.58,0,0,1-.38,1.63,2.76,2.76,0,0,1-1,1.15,2.84,2.84,0,0,1-1.5.4,2.93,2.93,0,0,1-2.33-1,5.3,5.3,0,0,1-.9-3.46,6.21,6.21,0,0,1,1-3.92,2.86,2.86,0,0,1,2.34-1.07,2.49,2.49,0,0,1,2.64,2.32Zm-4.67,4a2.64,2.64,0,0,0,.25,1.13,1.86,1.86,0,0,0,.7.82,1.76,1.76,0,0,0,.95.28,1.61,1.61,0,0,0,1.24-.58,2.3,2.3,0,0,0,.52-1.59,2.14,2.14,0,0,0-.51-1.52,1.68,1.68,0,0,0-1.29-.56,1.76,1.76,0,0,0-1.31.56A2,2,0,0,0,788.47,31.65Z" style="fill:#00fb00"/><path d="M794.51,26.58v-1.1h6v.89a12.65,12.65,0,0,0-1.76,2.51,15.37,15.37,0,0,0-1.35,3.22,11.93,11.93,0,0,0-.44,2.56h-1.17a11.43,11.43,0,0,1,.43-2.65,13.93,13.93,0,0,1,1.18-3,12.85,12.85,0,0,1,1.64-2.43Z" style="fill:#00fb00"/><path d="M807.67,33.57v1.1h-6.15a2,2,0,0,1,.13-.79,4.2,4.2,0,0,1,.75-1.24,11.65,11.65,0,0,1,1.49-1.41,12.7,12.7,0,0,0,2.05-2,2.36,2.36,0,0,0,.53-1.37,1.53,1.53,0,0,0-.49-1.15,1.75,1.75,0,0,0-1.27-.47,1.78,1.78,0,0,0-1.32.5,1.87,1.87,0,0,0-.5,1.37L801.74,28a2.89,2.89,0,0,1,.91-2,3.1,3.1,0,0,1,2.11-.69,3,3,0,0,1,2.12.74,2.43,2.43,0,0,1,.78,1.84,2.79,2.79,0,0,1-.23,1.1,4.28,4.28,0,0,1-.76,1.14,18.55,18.55,0,0,1-1.76,1.64q-1,.86-1.32,1.17a3.73,3.73,0,0,0-.48.62Z" style="fill:#00fb00"/><path d="M621.65,54.67l3.57-9.3h1.33l3.81,9.3H629l-1.08-2.82H624l-1,2.82Zm2.68-3.82h3.16l-1-2.58q-.44-1.17-.66-1.93a11.78,11.78,0,0,1-.5,1.78Z" style="fill:#00fb00"/><path d="M638,51.4l1.23.31A4.15,4.15,0,0,1,637.82,54a3.84,3.84,0,0,1-2.46.8,4.42,4.42,0,0,1-2.45-.61,3.82,3.82,0,0,1-1.44-1.77,6.33,6.33,0,0,1-.49-2.5,5.47,5.47,0,0,1,.56-2.54,3.8,3.8,0,0,1,1.58-1.64,4.61,4.61,0,0,1,2.26-.56,3.82,3.82,0,0,1,2.35.71,3.69,3.69,0,0,1,1.33,2l-1.21.29a2.87,2.87,0,0,0-.94-1.48,2.5,2.5,0,0,0-1.55-.46,3,3,0,0,0-1.79.51,2.71,2.71,0,0,0-1,1.38,5.55,5.55,0,0,0-.29,1.79A5.68,5.68,0,0,0,632.6,52a2.59,2.59,0,0,0,1.08,1.32,3,3,0,0,0,1.58.44,2.65,2.65,0,0,0,1.75-.6A3.06,3.06,0,0,0,638,51.4Z" style="fill:#00fb00"/><path d="M643.1,54.67V46.46H640v-1.1h7.38v1.1h-3.08v8.21Z" style="fill:#00fb00"/><path d="M654.78,45.36H656v5.38a6.35,6.35,0,0,1-.32,2.23,2.72,2.72,0,0,1-1.14,1.34,4.07,4.07,0,0,1-2.17.52,4.48,4.48,0,0,1-2.14-.45,2.58,2.58,0,0,1-1.19-1.3,6.21,6.21,0,0,1-.36-2.33V45.36h1.23v5.37a5.26,5.26,0,0,0,.22,1.79,1.72,1.72,0,0,0,.78.89,2.68,2.68,0,0,0,1.34.31,2.56,2.56,0,0,0,1.94-.62,3.55,3.55,0,0,0,.58-2.37Z" style="fill:#00fb00"/><path d="M657,54.67l3.57-9.3h1.33l3.81,9.3h-1.4l-1.09-2.82h-3.89l-1,2.82Zm2.69-3.82h3.15l-1-2.58q-.45-1.17-.66-1.93a11.78,11.78,0,0,1-.5,1.78Z" style="fill:#00fb00"/><path d="M666.68,54.67v-9.3h1.23v8.21h4.58v1.1Z" style="fill:#00fb00"/><path d="M801.21,50.08a8.55,8.55,0,0,1,.34-2.66,3.3,3.3,0,0,1,1-1.55,2.58,2.58,0,0,1,1.69-.55,2.75,2.75,0,0,1,1.31.3,2.5,2.5,0,0,1,.93.87,4.65,4.65,0,0,1,.58,1.38,9.15,9.15,0,0,1,.21,2.2,8.52,8.52,0,0,1-.34,2.64,3.29,3.29,0,0,1-1,1.55,2.83,2.83,0,0,1-3.8-.42A6.13,6.13,0,0,1,801.21,50.08Zm1.17,0a5.84,5.84,0,0,0,.54,3,1.53,1.53,0,0,0,2.65,0,5.84,5.84,0,0,0,.54-3,5.84,5.84,0,0,0-.54-3.05,1.6,1.6,0,0,0-1.34-.75,1.46,1.46,0,0,0-1.26.67A5.9,5.9,0,0,0,802.38,50.08Z" style="fill:#00fb00"/><rect x="304" y="94" width="50" height="18" style="fill:red"/><rect x="304" y="115" width="50" height="18" style="fill:red"/><rect x="304" y="180" width="50" height="18" style="fill:red"/><rect x="621" y="115" width="50" height="18" style="fill:red"/><rect x="748" y="115" width="50" height="18" style="fill:red"/><rect x="51" y="115" width="50" height="18" style="fill:red"/><rect x="114" y="180" width="50" height="18" style="fill:red"/><rect x="241" y="115" width="50" height="18" style="fill:#ff0"/><rect x="241" y="180" width="50" height="18" style="fill:red"/><rect x="178" y="180" width="50" height="18" style="fill:#ff0"/><rect x="178" y="201" width="50" height="18" style="fill:#ff0"/><rect x="368" y="115" width="50" height="18" style="fill:#ff0"/><rect x="494" y="115" width="50" height="18" style="fill:#ff0"/><rect x="685" y="115" width="50" height="18" style="fill:#ff0"/><rect x="368" y="94" width="50" height="18" style="fill:red"/><rect x="494" y="94" width="50" height="18" style="fill:red"/><rect x="557" y="94" width="50" height="18" style="fill:red"/><rect x="621" y="94" width="50" height="18" style="fill:red"/><rect x="685" y="94" width="50" height="18" style="fill:red"/><rect x="748" y="94" width="50" height="18" style="fill:red"/><rect x="432" y="94" width="50" height="18" style="fill:#ff0"/><rect x="368" y="180" width="50" height="18" style="fill:red"/><rect x="494" y="180" width="50" height="18" style="fill:red"/><rect x="494" y="200" width="50" height="18" style="fill:#ff0"/><rect x="557" y="180" width="50" height="18" style="fill:red"/><rect x="621" y="180" width="50" height="18" style="fill:red"/><rect x="685" y="180" width="50" height="18" style="fill:red"/><rect x="748" y="180" width="50" height="18" style="fill:red"/><rect x="557" y="200" width="50" height="18" style="fill:red"/><rect x="621" y="200" width="50" height="18" style="fill:red"/><rect x="685" y="200" width="50" height="18" style="fill:red"/><rect x="748" y="200" width="50" height="18" style="fill:red"/><rect x="432" y="180" width="50" height="18" style="fill:red"/><path d="M17,82.09a6.23,6.23,0,0,1,1.53-4.46,5.21,5.21,0,0,1,4-1.61,5.49,5.49,0,0,1,2.86.76,5,5,0,0,1,1.94,2.11A6.87,6.87,0,0,1,28,82a6.74,6.74,0,0,1-.7,3.12,4.79,4.79,0,0,1-2,2.08,5.68,5.68,0,0,1-2.78.71,5.41,5.41,0,0,1-2.89-.78,5,5,0,0,1-1.93-2.13A6.46,6.46,0,0,1,17,82.09Zm1.56,0a4.59,4.59,0,0,0,1.11,3.26,3.88,3.88,0,0,0,5.61,0,4.86,4.86,0,0,0,1.11-3.41,5.86,5.86,0,0,0-.47-2.44,3.62,3.62,0,0,0-1.38-1.62,3.75,3.75,0,0,0-2-.57,3.88,3.88,0,0,0-2.77,1.11A4.94,4.94,0,0,0,18.59,82.11Z" style="fill:#00fb00"/><path d="M29.93,87.67V76.21h4.32a10.49,10.49,0,0,1,1.74.11,3.47,3.47,0,0,1,1.41.54A2.81,2.81,0,0,1,38.33,78a3.73,3.73,0,0,1-.58,4,4.45,4.45,0,0,1-3.36,1H31.45v4.66Zm1.52-6h3a3.14,3.14,0,0,0,2.09-.55,1.94,1.94,0,0,0,.62-1.54,2.07,2.07,0,0,0-.36-1.23,1.7,1.7,0,0,0-1-.68,6.56,6.56,0,0,0-1.41-.1H31.45Z" style="fill:#00fb00"/><path d="M73.21,84.67l1.48-.12a2.65,2.65,0,0,0,.76,1.62,2.06,2.06,0,0,0,1.44.54,2.24,2.24,0,0,0,1.72-.77,2.88,2.88,0,0,0,.7-2,2.61,2.61,0,0,0-.68-1.9,2.36,2.36,0,0,0-1.77-.7,2.46,2.46,0,0,0-1.23.31,2.38,2.38,0,0,0-.86.8l-1.32-.17,1.11-5.88h5.7v1.34H75.7l-.62,3.08a3.73,3.73,0,0,1,2.16-.72,3.43,3.43,0,0,1,2.53,1,3.63,3.63,0,0,1,1,2.67,4.17,4.17,0,0,1-.91,2.69,3.63,3.63,0,0,1-3,1.39A3.7,3.7,0,0,1,74.34,87,3.41,3.41,0,0,1,73.21,84.67Z" style="fill:#00fb00"/><path d="M138.73,87.67h-1.41v-9a7.14,7.14,0,0,1-1.33,1,9.19,9.19,0,0,1-1.48.73V79a8.41,8.41,0,0,0,2.06-1.34,5.24,5.24,0,0,0,1.25-1.53h.91Z" style="fill:#00fb00"/><path d="M142.33,82a10.5,10.5,0,0,1,.42-3.27A4.09,4.09,0,0,1,144,76.84a3.18,3.18,0,0,1,2.07-.67,3.4,3.4,0,0,1,1.62.37,3.1,3.1,0,0,1,1.15,1.07,5.75,5.75,0,0,1,.71,1.7A11.32,11.32,0,0,1,149.8,82a10.49,10.49,0,0,1-.41,3.25,4.05,4.05,0,0,1-1.24,1.91,3.49,3.49,0,0,1-4.68-.51A7.55,7.55,0,0,1,142.33,82Zm1.45,0a7.18,7.18,0,0,0,.66,3.75,1.89,1.89,0,0,0,3.26,0,7.18,7.18,0,0,0,.66-3.75,7.18,7.18,0,0,0-.66-3.76,2,2,0,0,0-1.64-.93,1.8,1.8,0,0,0-1.55.82A7.27,7.27,0,0,0,143.78,82Z" style="fill:#00fb00"/><path d="M202.82,86.31v1.35h-7.57a2.51,2.51,0,0,1,.16-1,5.19,5.19,0,0,1,.93-1.52,14.55,14.55,0,0,1,1.84-1.73A15.47,15.47,0,0,0,200.71,81a2.9,2.9,0,0,0,.66-1.69,1.88,1.88,0,0,0-.6-1.41,2.16,2.16,0,0,0-1.56-.57,2.2,2.2,0,0,0-1.62.61,2.31,2.31,0,0,0-.62,1.69l-1.45-.15A3.56,3.56,0,0,1,196.63,77a3.82,3.82,0,0,1,2.6-.85,3.63,3.63,0,0,1,2.61.91,3,3,0,0,1,1,2.27,3.43,3.43,0,0,1-.28,1.35,5.2,5.2,0,0,1-.93,1.4,22.49,22.49,0,0,1-2.17,2q-1.27,1.06-1.62,1.44a4.75,4.75,0,0,0-.59.76Z" style="fill:#00fb00"/><path d="M204.33,82a10.5,10.5,0,0,1,.42-3.27A4.09,4.09,0,0,1,206,76.84a3.18,3.18,0,0,1,2.07-.67,3.4,3.4,0,0,1,1.62.37,3.1,3.1,0,0,1,1.15,1.07,5.75,5.75,0,0,1,.71,1.7A11.32,11.32,0,0,1,211.8,82a10.49,10.49,0,0,1-.41,3.25,4.05,4.05,0,0,1-1.24,1.91,3.49,3.49,0,0,1-4.68-.51A7.55,7.55,0,0,1,204.33,82Zm1.45,0a7.18,7.18,0,0,0,.66,3.75,1.89,1.89,0,0,0,3.26,0,7.18,7.18,0,0,0,.66-3.75,7.18,7.18,0,0,0-.66-3.76,2,2,0,0,0-1.64-.93,1.8,1.8,0,0,0-1.55.82A7.27,7.27,0,0,0,205.78,82Z" style="fill:#00fb00"/><path d="M258.77,84.64l1.41-.19a3.09,3.09,0,0,0,.82,1.72,2,2,0,0,0,1.42.53A2.27,2.27,0,0,0,264.1,86a2.32,2.32,0,0,0,.68-1.7,2.16,2.16,0,0,0-.63-1.6,2.19,2.19,0,0,0-1.61-.63,4.07,4.07,0,0,0-1,.16L261.7,81l.23,0a2.9,2.9,0,0,0,1.62-.47,1.6,1.6,0,0,0,.72-1.45,1.71,1.71,0,0,0-.52-1.28,1.86,1.86,0,0,0-1.35-.51,1.91,1.91,0,0,0-1.37.52,2.58,2.58,0,0,0-.7,1.55l-1.41-.25a3.62,3.62,0,0,1,1.17-2.19,3.39,3.39,0,0,1,2.27-.78,3.75,3.75,0,0,1,1.73.4,2.93,2.93,0,0,1,1.21,1.1,2.83,2.83,0,0,1,.42,1.48,2.41,2.41,0,0,1-.4,1.35,2.71,2.71,0,0,1-1.18,1,2.66,2.66,0,0,1,1.58,1,3,3,0,0,1,.56,1.85,3.38,3.38,0,0,1-1.09,2.54,3.85,3.85,0,0,1-2.77,1,3.59,3.59,0,0,1-2.5-.9A3.47,3.47,0,0,1,258.77,84.64Z" style="fill:#00fb00"/><path d="M267.66,82a10.47,10.47,0,0,1,.42-3.27,4.08,4.08,0,0,1,1.24-1.91,3.18,3.18,0,0,1,2.07-.67,3.4,3.4,0,0,1,1.62.37,3.12,3.12,0,0,1,1.15,1.07,5.77,5.77,0,0,1,.71,1.7,11.32,11.32,0,0,1,.26,2.71,10.52,10.52,0,0,1-.41,3.25,4.07,4.07,0,0,1-1.24,1.91,3.17,3.17,0,0,1-2.08.68,3.14,3.14,0,0,1-2.6-1.19A7.54,7.54,0,0,1,267.66,82Zm1.45,0a7.17,7.17,0,0,0,.66,3.75,1.89,1.89,0,0,0,3.26,0,7.19,7.19,0,0,0,.66-3.75,7.19,7.19,0,0,0-.66-3.76,2,2,0,0,0-1.64-.93,1.8,1.8,0,0,0-1.55.82A7.27,7.27,0,0,0,269.11,82Z" style="fill:#00fb00"/><path d="M327.27,87.67V84.92h-5V83.63l5.23-7.42h1.15v7.42h1.55v1.29h-1.55v2.74Zm0-4V78.47l-3.59,5.16Z" style="fill:#00fb00"/><path d="M331.66,82a10.47,10.47,0,0,1,.42-3.27,4.08,4.08,0,0,1,1.24-1.91,3.18,3.18,0,0,1,2.07-.67,3.4,3.4,0,0,1,1.62.37,3.12,3.12,0,0,1,1.15,1.07,5.77,5.77,0,0,1,.71,1.7,11.32,11.32,0,0,1,.26,2.71,10.52,10.52,0,0,1-.41,3.25,4.07,4.07,0,0,1-1.24,1.91,3.17,3.17,0,0,1-2.08.68,3.14,3.14,0,0,1-2.6-1.19A7.54,7.54,0,0,1,331.66,82Zm1.45,0a7.17,7.17,0,0,0,.66,3.75,1.89,1.89,0,0,0,3.26,0,7.19,7.19,0,0,0,.66-3.75,7.19,7.19,0,0,0-.66-3.76,2,2,0,0,0-1.64-.93,1.8,1.8,0,0,0-1.55.82A7.27,7.27,0,0,0,333.11,82Z" style="fill:#00fb00"/><path d="M385.43,84.67l1.48-.12a2.65,2.65,0,0,0,.76,1.62,2.06,2.06,0,0,0,1.44.54,2.24,2.24,0,0,0,1.72-.77,2.88,2.88,0,0,0,.7-2,2.61,2.61,0,0,0-.68-1.9,2.36,2.36,0,0,0-1.77-.7,2.46,2.46,0,0,0-1.23.31,2.4,2.4,0,0,0-.86.8l-1.32-.17,1.11-5.88h5.7v1.34h-4.57l-.62,3.08a3.73,3.73,0,0,1,2.16-.72,3.43,3.43,0,0,1,2.53,1,3.63,3.63,0,0,1,1,2.67,4.17,4.17,0,0,1-.91,2.69,3.63,3.63,0,0,1-3,1.39,3.7,3.7,0,0,1-2.55-.87A3.41,3.41,0,0,1,385.43,84.67Z" style="fill:#00fb00"/><path d="M394.33,82a10.5,10.5,0,0,1,.42-3.27A4.09,4.09,0,0,1,396,76.84a3.18,3.18,0,0,1,2.07-.67,3.4,3.4,0,0,1,1.62.37,3.1,3.1,0,0,1,1.15,1.07,5.75,5.75,0,0,1,.71,1.7A11.32,11.32,0,0,1,401.8,82a10.49,10.49,0,0,1-.41,3.25,4.05,4.05,0,0,1-1.24,1.91,3.49,3.49,0,0,1-4.68-.51A7.55,7.55,0,0,1,394.33,82Zm1.45,0a7.18,7.18,0,0,0,.66,3.75,1.89,1.89,0,0,0,3.26,0,7.18,7.18,0,0,0,.66-3.75,7.18,7.18,0,0,0-.66-3.76,2,2,0,0,0-1.64-.93,1.8,1.8,0,0,0-1.55.82A7.27,7.27,0,0,0,395.78,82Z" style="fill:#00fb00"/><path d="M456.06,79l-1.4.11a2.66,2.66,0,0,0-.53-1.2,1.87,1.87,0,0,0-1.41-.6,1.93,1.93,0,0,0-1.18.38,3.21,3.21,0,0,0-1,1.41,7.37,7.37,0,0,0-.4,2.65,3.25,3.25,0,0,1,1.24-1.15,3.34,3.34,0,0,1,1.54-.37,3.19,3.19,0,0,1,2.39,1,3.72,3.72,0,0,1,1,2.68,4.41,4.41,0,0,1-.46,2,3.4,3.4,0,0,1-1.28,1.42,3.49,3.49,0,0,1-1.84.49,3.6,3.6,0,0,1-2.87-1.29,6.52,6.52,0,0,1-1.11-4.26q0-3.32,1.23-4.83a3.52,3.52,0,0,1,2.88-1.31A3.07,3.07,0,0,1,456.06,79ZM450.32,84a3.25,3.25,0,0,0,.31,1.39,2.28,2.28,0,0,0,.86,1,2.15,2.15,0,0,0,1.16.35,2,2,0,0,0,1.53-.72,2.83,2.83,0,0,0,.64-2,2.65,2.65,0,0,0-.63-1.87,2.08,2.08,0,0,0-1.59-.68,2.17,2.17,0,0,0-1.62.68A2.47,2.47,0,0,0,450.32,84Z" style="fill:#00fb00"/><path d="M457.66,82a10.47,10.47,0,0,1,.42-3.27,4.08,4.08,0,0,1,1.24-1.91,3.18,3.18,0,0,1,2.07-.67,3.4,3.4,0,0,1,1.62.37,3.12,3.12,0,0,1,1.15,1.07,5.77,5.77,0,0,1,.71,1.7,11.32,11.32,0,0,1,.26,2.71,10.52,10.52,0,0,1-.41,3.25,4.07,4.07,0,0,1-1.24,1.91,3.17,3.17,0,0,1-2.08.68,3.14,3.14,0,0,1-2.6-1.19A7.54,7.54,0,0,1,457.66,82Zm1.45,0a7.17,7.17,0,0,0,.66,3.75,1.89,1.89,0,0,0,3.26,0,7.19,7.19,0,0,0,.66-3.75,7.19,7.19,0,0,0-.66-3.76,2,2,0,0,0-1.64-.93,1.8,1.8,0,0,0-1.55.82A7.27,7.27,0,0,0,459.11,82Z" style="fill:#00fb00"/><path d="M510.86,77.71V76.36h7.41v1.09a15.67,15.67,0,0,0-2.17,3.09,18.82,18.82,0,0,0-1.66,4,14.76,14.76,0,0,0-.54,3.15h-1.45A14,14,0,0,1,513,84.4a17.14,17.14,0,0,1,1.46-3.69,15.85,15.85,0,0,1,2-3Z" style="fill:#00fb00"/><path d="M519.66,82a10.47,10.47,0,0,1,.42-3.27,4.08,4.08,0,0,1,1.24-1.91,3.18,3.18,0,0,1,2.07-.67,3.4,3.4,0,0,1,1.62.37,3.12,3.12,0,0,1,1.15,1.07,5.77,5.77,0,0,1,.71,1.7,11.32,11.32,0,0,1,.26,2.71,10.52,10.52,0,0,1-.41,3.25,4.07,4.07,0,0,1-1.24,1.91,3.17,3.17,0,0,1-2.08.68,3.14,3.14,0,0,1-2.6-1.19A7.54,7.54,0,0,1,519.66,82Zm1.45,0a7.17,7.17,0,0,0,.66,3.75,1.89,1.89,0,0,0,3.26,0,7.19,7.19,0,0,0,.66-3.75,7.19,7.19,0,0,0-.66-3.76,2,2,0,0,0-1.64-.93,1.8,1.8,0,0,0-1.55.82A7.27,7.27,0,0,0,521.11,82Z" style="fill:#00fb00"/><path d="M576.26,81.46a2.64,2.64,0,0,1-1.3-.91,2.39,2.39,0,0,1-.42-1.42,2.78,2.78,0,0,1,.9-2.1,3.78,3.78,0,0,1,4.8,0,2.82,2.82,0,0,1,.91,2.12,2.34,2.34,0,0,1-.42,1.39,2.62,2.62,0,0,1-1.27.91,3.09,3.09,0,0,1,1.61,1.11,3.05,3.05,0,0,1,.55,1.83,3.29,3.29,0,0,1-1,2.47,4.23,4.23,0,0,1-5.47,0,3.34,3.34,0,0,1-1-2.5,3,3,0,0,1,.57-1.87A2.85,2.85,0,0,1,576.26,81.46Zm-.73,2.91a2.54,2.54,0,0,0,.29,1.16,2,2,0,0,0,.85.87,2.46,2.46,0,0,0,1.21.31,2.26,2.26,0,0,0,1.66-.65,2.22,2.22,0,0,0,.66-1.65,2.26,2.26,0,0,0-.68-1.68,2.32,2.32,0,0,0-1.69-.66,2.24,2.24,0,0,0-2.3,2.3Zm.45-5.29a1.78,1.78,0,0,0,.52,1.33,1.85,1.85,0,0,0,1.36.52,1.82,1.82,0,0,0,1.33-.51,1.69,1.69,0,0,0,.52-1.25,1.76,1.76,0,0,0-.54-1.3,1.82,1.82,0,0,0-1.33-.53,1.84,1.84,0,0,0-1.34.52A1.66,1.66,0,0,0,576,79.07Z" style="fill:#00fb00"/><path d="M583,82a10.5,10.5,0,0,1,.42-3.27,4.08,4.08,0,0,1,1.24-1.91,3.18,3.18,0,0,1,2.07-.67,3.4,3.4,0,0,1,1.62.37,3.1,3.1,0,0,1,1.15,1.07,5.77,5.77,0,0,1,.71,1.7,11.32,11.32,0,0,1,.26,2.71,10.49,10.49,0,0,1-.41,3.25,4.06,4.06,0,0,1-1.24,1.91,3.17,3.17,0,0,1-2.08.68,3.14,3.14,0,0,1-2.6-1.19A7.55,7.55,0,0,1,583,82Zm1.45,0a7.17,7.17,0,0,0,.66,3.75,1.89,1.89,0,0,0,3.26,0A7.18,7.18,0,0,0,589,82a7.18,7.18,0,0,0-.66-3.76,2,2,0,0,0-1.64-.93,1.8,1.8,0,0,0-1.55.82A7.27,7.27,0,0,0,584.44,82Z" style="fill:#00fb00"/><path d="M638.31,85l1.35-.12a2.34,2.34,0,0,0,.66,1.38,1.8,1.8,0,0,0,1.24.43,2.13,2.13,0,0,0,1.14-.3,2.41,2.41,0,0,0,.8-.79,4.66,4.66,0,0,0,.52-1.34,7.06,7.06,0,0,0,.21-1.72c0-.06,0-.16,0-.28a3.2,3.2,0,0,1-1.15,1.09,3.13,3.13,0,0,1-1.58.42,3.2,3.2,0,0,1-2.41-1,3.77,3.77,0,0,1-1-2.72,3.87,3.87,0,0,1,1-2.8,3.44,3.44,0,0,1,2.57-1.06,3.68,3.68,0,0,1,2,.6,3.76,3.76,0,0,1,1.41,1.71,8.45,8.45,0,0,1,.48,3.22,10.43,10.43,0,0,1-.48,3.5,4.09,4.09,0,0,1-1.42,2,3.67,3.67,0,0,1-2.21.68A3,3,0,0,1,638.31,85ZM644.07,80a2.76,2.76,0,0,0-.64-1.92,2,2,0,0,0-1.55-.71,2.14,2.14,0,0,0-1.63.77,2.84,2.84,0,0,0-.7,2,2.45,2.45,0,0,0,.66,1.78,2.17,2.17,0,0,0,1.63.68,2.08,2.08,0,0,0,1.61-.68A2.69,2.69,0,0,0,644.07,80Z" style="fill:#00fb00"/><path d="M647,82a10.5,10.5,0,0,1,.42-3.27,4.08,4.08,0,0,1,1.24-1.91,3.18,3.18,0,0,1,2.07-.67,3.4,3.4,0,0,1,1.62.37,3.1,3.1,0,0,1,1.15,1.07,5.77,5.77,0,0,1,.71,1.7,11.32,11.32,0,0,1,.26,2.71,10.49,10.49,0,0,1-.41,3.25,4.06,4.06,0,0,1-1.24,1.91,3.17,3.17,0,0,1-2.08.68,3.14,3.14,0,0,1-2.6-1.19A7.55,7.55,0,0,1,647,82Zm1.45,0a7.17,7.17,0,0,0,.66,3.75,1.89,1.89,0,0,0,3.26,0A7.18,7.18,0,0,0,653,82a7.18,7.18,0,0,0-.66-3.76,2,2,0,0,0-1.64-.93,1.8,1.8,0,0,0-1.55.82A7.27,7.27,0,0,0,648.44,82Z" style="fill:#00fb00"/><path d="M702.28,87.67h-1.41v-9a7.14,7.14,0,0,1-1.33,1,9.19,9.19,0,0,1-1.48.73V79a8.41,8.41,0,0,0,2.06-1.34,5.24,5.24,0,0,0,1.25-1.53h.91Z" style="fill:#00fb00"/><path d="M705.88,82a10.5,10.5,0,0,1,.42-3.27,4.09,4.09,0,0,1,1.24-1.91,3.18,3.18,0,0,1,2.07-.67,3.4,3.4,0,0,1,1.62.37,3.1,3.1,0,0,1,1.15,1.07,5.75,5.75,0,0,1,.71,1.7,11.32,11.32,0,0,1,.26,2.71,10.49,10.49,0,0,1-.41,3.25,4.05,4.05,0,0,1-1.24,1.91,3.49,3.49,0,0,1-4.68-.51A7.55,7.55,0,0,1,705.88,82Zm1.45,0a7.18,7.18,0,0,0,.66,3.75,1.89,1.89,0,0,0,3.26,0A7.18,7.18,0,0,0,711.9,82a7.18,7.18,0,0,0-.66-3.76,2,2,0,0,0-1.64-.93,1.8,1.8,0,0,0-1.55.82A7.27,7.27,0,0,0,707.33,82Z" style="fill:#00fb00"/><path d="M714.78,82a10.5,10.5,0,0,1,.42-3.27,4.09,4.09,0,0,1,1.24-1.91,3.18,3.18,0,0,1,2.07-.67,3.4,3.4,0,0,1,1.62.37,3.1,3.1,0,0,1,1.15,1.07,5.75,5.75,0,0,1,.71,1.7,11.32,11.32,0,0,1,.26,2.71,10.49,10.49,0,0,1-.41,3.25,4.05,4.05,0,0,1-1.24,1.91,3.49,3.49,0,0,1-4.68-.51A7.55,7.55,0,0,1,714.78,82Zm1.45,0a7.18,7.18,0,0,0,.66,3.75,1.89,1.89,0,0,0,3.26,0A7.18,7.18,0,0,0,720.8,82a7.18,7.18,0,0,0-.66-3.76,2,2,0,0,0-1.64-.93,1.8,1.8,0,0,0-1.55.82A7.27,7.27,0,0,0,716.22,82Z" style="fill:#00fb00"/><path d="M766.87,87.67h-1.41v-9a7.14,7.14,0,0,1-1.33,1,9.19,9.19,0,0,1-1.48.73V79a8.41,8.41,0,0,0,2.06-1.34A5.24,5.24,0,0,0,766,76.17h.91Z" style="fill:#00fb00"/><path d="M774.58,87.67h-1.41v-9a7.14,7.14,0,0,1-1.33,1,9.19,9.19,0,0,1-1.48.73V79a8.41,8.41,0,0,0,2.06-1.34,5.24,5.24,0,0,0,1.25-1.53h.91Z" style="fill:#00fb00"/><path d="M778.19,82a10.5,10.5,0,0,1,.42-3.27,4.09,4.09,0,0,1,1.24-1.91,3.18,3.18,0,0,1,2.07-.67,3.4,3.4,0,0,1,1.62.37,3.1,3.1,0,0,1,1.15,1.07,5.75,5.75,0,0,1,.71,1.7,11.32,11.32,0,0,1,.26,2.71,10.49,10.49,0,0,1-.41,3.25A4.05,4.05,0,0,1,784,87.19a3.49,3.49,0,0,1-4.68-.51A7.55,7.55,0,0,1,778.19,82Zm1.45,0a7.18,7.18,0,0,0,.66,3.75,1.89,1.89,0,0,0,3.26,0,7.18,7.18,0,0,0,.66-3.75,7.18,7.18,0,0,0-.66-3.76,2,2,0,0,0-1.64-.93,1.8,1.8,0,0,0-1.55.82A7.27,7.27,0,0,0,779.63,82Z" style="fill:#00fb00"/><path d="M28,104.17v-1.34h4.85v4.25a8.53,8.53,0,0,1-2.3,1.34,6.82,6.82,0,0,1-2.44.45,6.5,6.5,0,0,1-3.07-.72A4.77,4.77,0,0,1,23,106a6.58,6.58,0,0,1-.7-3.05,7.1,7.1,0,0,1,.7-3.12,4.66,4.66,0,0,1,2-2.15,6.3,6.3,0,0,1,3-.7,6,6,0,0,1,2.25.4,3.73,3.73,0,0,1,1.57,1.12,5,5,0,0,1,.87,1.87l-1.37.38a4.24,4.24,0,0,0-.64-1.37,2.64,2.64,0,0,0-1.09-.8,4,4,0,0,0-1.58-.3,4.65,4.65,0,0,0-1.8.32,3.36,3.36,0,0,0-1.22.83,4,4,0,0,0-.72,1.13,6,6,0,0,0-.44,2.3,5.59,5.59,0,0,0,.53,2.56A3.37,3.37,0,0,0,25.92,107a4.75,4.75,0,0,0,2.14.5,5.06,5.06,0,0,0,1.92-.38,4.92,4.92,0,0,0,1.42-.81v-2.13Z" style="fill:#00fb00"/><path d="M332.51,108.67h-1.41v-9a7.21,7.21,0,0,1-1.33,1,9.23,9.23,0,0,1-1.48.73V100a8.45,8.45,0,0,0,2.06-1.34,5.28,5.28,0,0,0,1.25-1.53h.91Z"/><path d="M395.18,108.67h-1.41v-9a7.14,7.14,0,0,1-1.33,1,9.19,9.19,0,0,1-1.48.73V100A8.41,8.41,0,0,0,393,98.7a5.24,5.24,0,0,0,1.25-1.53h.91Z"/><path d="M458.51,108.67h-1.41v-9a7.21,7.21,0,0,1-1.33,1,9.23,9.23,0,0,1-1.48.73V100a8.45,8.45,0,0,0,2.06-1.34,5.28,5.28,0,0,0,1.25-1.53h.91Z"/><path d="M520.51,108.67h-1.41v-9a7.21,7.21,0,0,1-1.33,1,9.23,9.23,0,0,1-1.48.73V100a8.45,8.45,0,0,0,2.06-1.34,5.28,5.28,0,0,0,1.25-1.53h.91Z"/><path d="M583.84,108.67h-1.41v-9a7.18,7.18,0,0,1-1.33,1,9.23,9.23,0,0,1-1.48.73V100a8.45,8.45,0,0,0,2.06-1.34,5.26,5.26,0,0,0,1.25-1.53h.91Z"/><path d="M649.94,107.31v1.35h-7.57a2.48,2.48,0,0,1,.16-1,5.15,5.15,0,0,1,.93-1.52,14.55,14.55,0,0,1,1.84-1.73,15.47,15.47,0,0,0,2.52-2.43,2.9,2.9,0,0,0,.66-1.69,1.88,1.88,0,0,0-.6-1.41,2.16,2.16,0,0,0-1.56-.57,2.2,2.2,0,0,0-1.62.61,2.3,2.3,0,0,0-.62,1.69l-1.45-.15A3.56,3.56,0,0,1,643.75,98a3.81,3.81,0,0,1,2.6-.85,3.63,3.63,0,0,1,2.61.91,3,3,0,0,1,1,2.27,3.43,3.43,0,0,1-.28,1.35,5.22,5.22,0,0,1-.93,1.4,22.49,22.49,0,0,1-2.17,2q-1.27,1.06-1.62,1.44a4.75,4.75,0,0,0-.59.76Z"/><path d="M713.27,107.31v1.35H705.7a2.51,2.51,0,0,1,.16-1,5.19,5.19,0,0,1,.93-1.52,14.55,14.55,0,0,1,1.84-1.73,15.47,15.47,0,0,0,2.52-2.43,2.9,2.9,0,0,0,.66-1.69,1.88,1.88,0,0,0-.6-1.41,2.16,2.16,0,0,0-1.56-.57,2.2,2.2,0,0,0-1.62.61,2.31,2.31,0,0,0-.62,1.69l-1.45-.15A3.56,3.56,0,0,1,707.08,98a3.82,3.82,0,0,1,2.6-.85,3.63,3.63,0,0,1,2.61.91,3,3,0,0,1,1,2.27,3.43,3.43,0,0,1-.28,1.35,5.2,5.2,0,0,1-.93,1.4,22.49,22.49,0,0,1-2.17,2q-1.27,1.06-1.62,1.44a4.75,4.75,0,0,0-.59.76Z"/><path d="M775.18,108.67h-1.41v-9a7.14,7.14,0,0,1-1.33,1,9.19,9.19,0,0,1-1.48.73V100A8.41,8.41,0,0,0,773,98.7a5.24,5.24,0,0,0,1.25-1.53h.91Z"/><path d="M22.19,129.67V118.21h2.28l2.71,8.11q.38,1.13.55,1.7.2-.62.61-1.84l2.74-8h2v11.45H31.66v-9.59l-3.33,9.59H27l-3.31-9.75v9.75Z" style="fill:#00fb00"/><path d="M78.51,129.67H77.11v-9a7.21,7.21,0,0,1-1.33,1,9.23,9.23,0,0,1-1.48.73V121a8.45,8.45,0,0,0,2.06-1.34,5.28,5.28,0,0,0,1.25-1.53h.91Z"/><path d="M267.72,129.67v-2.74h-5v-1.29l5.23-7.42h1.15v7.42h1.55v1.29h-1.55v2.74Zm0-4v-5.16l-3.59,5.16Z"/><path d="M334.61,128.31v1.35H327a2.48,2.48,0,0,1,.16-1,5.15,5.15,0,0,1,.93-1.52,14.42,14.42,0,0,1,1.84-1.73,15.51,15.51,0,0,0,2.52-2.43,2.9,2.9,0,0,0,.66-1.69,1.88,1.88,0,0,0-.6-1.41,2.16,2.16,0,0,0-1.56-.57,2.2,2.2,0,0,0-1.62.61,2.3,2.3,0,0,0-.62,1.69l-1.45-.15a3.56,3.56,0,0,1,1.12-2.46,3.81,3.81,0,0,1,2.6-.85,3.63,3.63,0,0,1,2.61.91,3,3,0,0,1,1,2.27,3.43,3.43,0,0,1-.28,1.35,5.22,5.22,0,0,1-.93,1.4,22.74,22.74,0,0,1-2.17,2q-1.27,1.06-1.62,1.44a4.7,4.7,0,0,0-.59.76Z"/><path d="M389.89,126.64l1.41-.19a3.1,3.1,0,0,0,.82,1.72,2,2,0,0,0,1.42.53,2.27,2.27,0,0,0,1.68-.69,2.32,2.32,0,0,0,.68-1.7,2.16,2.16,0,0,0-.63-1.6,2.19,2.19,0,0,0-1.61-.63,4.07,4.07,0,0,0-1,.16l.16-1.23.23,0a2.89,2.89,0,0,0,1.62-.47,1.6,1.6,0,0,0,.72-1.45,1.71,1.71,0,0,0-.52-1.28,1.86,1.86,0,0,0-1.35-.51,1.92,1.92,0,0,0-1.37.52,2.59,2.59,0,0,0-.7,1.55l-1.41-.25a3.62,3.62,0,0,1,1.17-2.19,3.39,3.39,0,0,1,2.27-.78,3.75,3.75,0,0,1,1.73.4,2.92,2.92,0,0,1,1.21,1.1,2.82,2.82,0,0,1,.42,1.48,2.41,2.41,0,0,1-.4,1.35,2.71,2.71,0,0,1-1.18,1,2.66,2.66,0,0,1,1.58,1,3,3,0,0,1,.56,1.85,3.38,3.38,0,0,1-1.09,2.54,3.84,3.84,0,0,1-2.77,1,3.6,3.6,0,0,1-2.5-.9A3.47,3.47,0,0,1,389.89,126.64Z"/><path d="M522.61,128.31v1.35H515a2.48,2.48,0,0,1,.16-1,5.15,5.15,0,0,1,.93-1.52,14.42,14.42,0,0,1,1.84-1.73,15.51,15.51,0,0,0,2.52-2.43,2.9,2.9,0,0,0,.66-1.69,1.88,1.88,0,0,0-.6-1.41,2.16,2.16,0,0,0-1.56-.57,2.2,2.2,0,0,0-1.62.61,2.3,2.3,0,0,0-.62,1.69l-1.45-.15a3.56,3.56,0,0,1,1.12-2.46,3.81,3.81,0,0,1,2.6-.85,3.63,3.63,0,0,1,2.61.91,3,3,0,0,1,1,2.27,3.43,3.43,0,0,1-.28,1.35,5.22,5.22,0,0,1-.93,1.4,22.74,22.74,0,0,1-2.17,2q-1.27,1.06-1.62,1.44a4.7,4.7,0,0,0-.59.76Z"/><path d="M647.06,129.67v-2.74h-5v-1.29l5.23-7.42h1.15v7.42H650v1.29h-1.55v2.74Zm0-4v-5.16l-3.59,5.16Z"/><path d="M711.18,129.67h-1.41v-9a7.14,7.14,0,0,1-1.33,1,9.19,9.19,0,0,1-1.48.73V121A8.41,8.41,0,0,0,709,119.7a5.24,5.24,0,0,0,1.25-1.53h.91Z"/><path d="M775.18,129.67h-1.41v-9a7.14,7.14,0,0,1-1.33,1,9.19,9.19,0,0,1-1.48.73V121A8.41,8.41,0,0,0,773,119.7a5.24,5.24,0,0,0,1.25-1.53h.91Z"/><path d="M17,168.09a6.23,6.23,0,0,1,1.53-4.46,5.21,5.21,0,0,1,4-1.61,5.49,5.49,0,0,1,2.86.76,5,5,0,0,1,1.94,2.11A6.87,6.87,0,0,1,28,168a6.74,6.74,0,0,1-.7,3.12,4.79,4.79,0,0,1-2,2.08,5.68,5.68,0,0,1-2.78.71,5.41,5.41,0,0,1-2.89-.78,5,5,0,0,1-1.93-2.13A6.46,6.46,0,0,1,17,168.09Zm1.56,0a4.59,4.59,0,0,0,1.11,3.26,3.88,3.88,0,0,0,5.61,0,4.86,4.86,0,0,0,1.11-3.41,5.86,5.86,0,0,0-.47-2.44,3.62,3.62,0,0,0-1.38-1.62,3.75,3.75,0,0,0-2-.57,3.88,3.88,0,0,0-2.77,1.11A4.94,4.94,0,0,0,18.59,168.11Z" style="fill:#00fb00"/><path d="M29.93,173.67V162.21h4.32a10.49,10.49,0,0,1,1.74.11,3.47,3.47,0,0,1,1.41.54,2.81,2.81,0,0,1,.92,1.11,3.73,3.73,0,0,1-.58,4,4.45,4.45,0,0,1-3.36,1H31.45v4.66Zm1.52-6h3a3.14,3.14,0,0,0,2.09-.55,1.94,1.94,0,0,0,.62-1.54,2.07,2.07,0,0,0-.36-1.23,1.7,1.7,0,0,0-1-.68,6.56,6.56,0,0,0-1.41-.1H31.45Z" style="fill:#00fb00"/><path d="M70.21,173.67H68.8v-9a7.21,7.21,0,0,1-1.33,1,9.23,9.23,0,0,1-1.48.73V165a8.45,8.45,0,0,0,2.06-1.34,5.28,5.28,0,0,0,1.25-1.53h.91Z" style="fill:#00fb00"/><path d="M77.92,173.67H76.51v-9a7.21,7.21,0,0,1-1.33,1,9.23,9.23,0,0,1-1.48.73V165a8.45,8.45,0,0,0,2.06-1.34A5.28,5.28,0,0,0,77,162.17h.91Z" style="fill:#00fb00"/><path d="M81.52,170.67l1.48-.12a2.65,2.65,0,0,0,.76,1.62,2.06,2.06,0,0,0,1.44.54,2.24,2.24,0,0,0,1.72-.77,2.88,2.88,0,0,0,.7-2,2.61,2.61,0,0,0-.68-1.9,2.36,2.36,0,0,0-1.77-.7,2.46,2.46,0,0,0-1.23.31,2.38,2.38,0,0,0-.86.8l-1.32-.17,1.11-5.88h5.7v1.34H84l-.62,3.08a3.73,3.73,0,0,1,2.16-.72,3.43,3.43,0,0,1,2.53,1,3.63,3.63,0,0,1,1,2.67,4.17,4.17,0,0,1-.91,2.69,3.63,3.63,0,0,1-3,1.39,3.7,3.7,0,0,1-2.55-.87A3.41,3.41,0,0,1,81.52,170.67Z" style="fill:#00fb00"/><path d="M134.28,173.67h-1.41v-9a7.14,7.14,0,0,1-1.33,1,9.19,9.19,0,0,1-1.48.73V165a8.41,8.41,0,0,0,2.06-1.34,5.24,5.24,0,0,0,1.25-1.53h.91Z" style="fill:#00fb00"/><path d="M145.27,172.31v1.35H137.7a2.51,2.51,0,0,1,.16-1,5.19,5.19,0,0,1,.93-1.52,14.55,14.55,0,0,1,1.84-1.73,15.47,15.47,0,0,0,2.52-2.43,2.9,2.9,0,0,0,.66-1.69,1.88,1.88,0,0,0-.6-1.41,2.16,2.16,0,0,0-1.56-.57,2.2,2.2,0,0,0-1.62.61,2.31,2.31,0,0,0-.62,1.69l-1.45-.15a3.56,3.56,0,0,1,1.12-2.46,3.82,3.82,0,0,1,2.6-.85,3.63,3.63,0,0,1,2.61.91,3,3,0,0,1,1,2.27,3.43,3.43,0,0,1-.28,1.35,5.2,5.2,0,0,1-.93,1.4,22.49,22.49,0,0,1-2.17,2q-1.27,1.06-1.62,1.44a4.75,4.75,0,0,0-.59.76Z" style="fill:#00fb00"/><path d="M146.78,168a10.5,10.5,0,0,1,.42-3.27,4.09,4.09,0,0,1,1.24-1.91,3.18,3.18,0,0,1,2.07-.67,3.4,3.4,0,0,1,1.62.37,3.1,3.1,0,0,1,1.15,1.07,5.75,5.75,0,0,1,.71,1.7,11.32,11.32,0,0,1,.26,2.71,10.49,10.49,0,0,1-.41,3.25,4.05,4.05,0,0,1-1.24,1.91,3.49,3.49,0,0,1-4.68-.51A7.55,7.55,0,0,1,146.78,168Zm1.45,0a7.18,7.18,0,0,0,.66,3.75,1.89,1.89,0,0,0,3.26,0,11,11,0,0,0,0-7.51,2,2,0,0,0-1.64-.93,1.8,1.8,0,0,0-1.55.82A7.27,7.27,0,0,0,148.22,168Z" style="fill:#00fb00"/><path d="M196.28,173.67h-1.41v-9a7.14,7.14,0,0,1-1.33,1,9.19,9.19,0,0,1-1.48.73V165a8.41,8.41,0,0,0,2.06-1.34,5.24,5.24,0,0,0,1.25-1.53h.91Z" style="fill:#00fb00"/><path d="M204.39,173.67v-2.74h-5v-1.29l5.23-7.42h1.15v7.42h1.55v1.29h-1.55v2.74Zm0-4v-5.16l-3.59,5.16Z" style="fill:#00fb00"/><path d="M208.78,168a10.5,10.5,0,0,1,.42-3.27,4.09,4.09,0,0,1,1.24-1.91,3.18,3.18,0,0,1,2.07-.67,3.4,3.4,0,0,1,1.62.37,3.1,3.1,0,0,1,1.15,1.07,5.75,5.75,0,0,1,.71,1.7,11.32,11.32,0,0,1,.26,2.71,10.49,10.49,0,0,1-.41,3.25,4.05,4.05,0,0,1-1.24,1.91,3.49,3.49,0,0,1-4.68-.51A7.55,7.55,0,0,1,208.78,168Zm1.45,0a7.18,7.18,0,0,0,.66,3.75,1.89,1.89,0,0,0,3.26,0,11,11,0,0,0,0-7.51,2,2,0,0,0-1.64-.93,1.8,1.8,0,0,0-1.55.82A7.27,7.27,0,0,0,210.22,168Z" style="fill:#00fb00"/><path d="M259.61,173.67h-1.41v-9a7.21,7.21,0,0,1-1.33,1,9.23,9.23,0,0,1-1.48.73V165a8.45,8.45,0,0,0,2.06-1.34,5.28,5.28,0,0,0,1.25-1.53h.91Z" style="fill:#00fb00"/><path d="M263.21,170.67l1.48-.12a2.65,2.65,0,0,0,.76,1.62,2.06,2.06,0,0,0,1.44.54,2.24,2.24,0,0,0,1.72-.77,2.88,2.88,0,0,0,.7-2,2.61,2.61,0,0,0-.68-1.9,2.36,2.36,0,0,0-1.77-.7,2.46,2.46,0,0,0-1.23.31,2.38,2.38,0,0,0-.86.8l-1.32-.17,1.11-5.88h5.7v1.34H265.7l-.62,3.08a3.73,3.73,0,0,1,2.16-.72,3.43,3.43,0,0,1,2.53,1,3.63,3.63,0,0,1,1,2.67,4.17,4.17,0,0,1-.91,2.69,3.63,3.63,0,0,1-3,1.39,3.7,3.7,0,0,1-2.55-.87A3.41,3.41,0,0,1,263.21,170.67Z" style="fill:#00fb00"/><path d="M272.11,168a10.47,10.47,0,0,1,.42-3.27,4.08,4.08,0,0,1,1.24-1.91,3.18,3.18,0,0,1,2.07-.67,3.4,3.4,0,0,1,1.62.37,3.12,3.12,0,0,1,1.15,1.07,5.77,5.77,0,0,1,.71,1.7,11.32,11.32,0,0,1,.26,2.71,10.52,10.52,0,0,1-.41,3.25,4.07,4.07,0,0,1-1.24,1.91,3.17,3.17,0,0,1-2.08.68,3.14,3.14,0,0,1-2.6-1.19A7.54,7.54,0,0,1,272.11,168Zm1.45,0a7.17,7.17,0,0,0,.66,3.75,1.89,1.89,0,0,0,3.26,0,11,11,0,0,0,0-7.51,2,2,0,0,0-1.64-.93,1.8,1.8,0,0,0-1.55.82A7.27,7.27,0,0,0,273.56,168Z" style="fill:#00fb00"/><path d="M323.61,173.67h-1.41v-9a7.21,7.21,0,0,1-1.33,1,9.23,9.23,0,0,1-1.48.73V165a8.45,8.45,0,0,0,2.06-1.34,5.28,5.28,0,0,0,1.25-1.53h.91Z" style="fill:#00fb00"/><path d="M334.51,165l-1.4.11a2.66,2.66,0,0,0-.53-1.2,1.87,1.87,0,0,0-1.41-.6,1.93,1.93,0,0,0-1.18.38,3.21,3.21,0,0,0-1,1.41,7.37,7.37,0,0,0-.4,2.65,3.25,3.25,0,0,1,1.24-1.15,3.34,3.34,0,0,1,1.54-.37,3.19,3.19,0,0,1,2.39,1,3.72,3.72,0,0,1,1,2.68,4.41,4.41,0,0,1-.46,2,3.4,3.4,0,0,1-1.28,1.42,3.49,3.49,0,0,1-1.84.49,3.6,3.6,0,0,1-2.87-1.29,6.52,6.52,0,0,1-1.11-4.26q0-3.32,1.23-4.83a3.52,3.52,0,0,1,2.88-1.31,3.07,3.07,0,0,1,3.25,2.85ZM328.77,170a3.25,3.25,0,0,0,.31,1.39,2.28,2.28,0,0,0,.86,1,2.15,2.15,0,0,0,1.16.35,2,2,0,0,0,1.53-.72,2.83,2.83,0,0,0,.64-2,2.65,2.65,0,0,0-.63-1.87,2.08,2.08,0,0,0-1.59-.68,2.17,2.17,0,0,0-1.62.68A2.47,2.47,0,0,0,328.77,170Z" style="fill:#00fb00"/><path d="M336.11,168a10.47,10.47,0,0,1,.42-3.27,4.08,4.08,0,0,1,1.24-1.91,3.18,3.18,0,0,1,2.07-.67,3.4,3.4,0,0,1,1.62.37,3.12,3.12,0,0,1,1.15,1.07,5.77,5.77,0,0,1,.71,1.7,11.32,11.32,0,0,1,.26,2.71,10.52,10.52,0,0,1-.41,3.25,4.07,4.07,0,0,1-1.24,1.91,3.17,3.17,0,0,1-2.08.68,3.14,3.14,0,0,1-2.6-1.19A7.54,7.54,0,0,1,336.11,168Zm1.45,0a7.17,7.17,0,0,0,.66,3.75,1.89,1.89,0,0,0,3.26,0,11,11,0,0,0,0-7.51,2,2,0,0,0-1.64-.93,1.8,1.8,0,0,0-1.55.82A7.27,7.27,0,0,0,337.56,168Z" style="fill:#00fb00"/><path d="M386.28,173.67h-1.41v-9a7.14,7.14,0,0,1-1.33,1,9.19,9.19,0,0,1-1.48.73V165a8.41,8.41,0,0,0,2.06-1.34,5.24,5.24,0,0,0,1.25-1.53h.91Z" style="fill:#00fb00"/><path d="M392,167.46a2.64,2.64,0,0,1-1.3-.91,2.39,2.39,0,0,1-.42-1.42,2.78,2.78,0,0,1,.9-2.1,3.78,3.78,0,0,1,4.8,0,2.82,2.82,0,0,1,.91,2.12,2.33,2.33,0,0,1-.42,1.39,2.62,2.62,0,0,1-1.27.91,3.09,3.09,0,0,1,1.61,1.11,3.05,3.05,0,0,1,.55,1.83,3.28,3.28,0,0,1-1,2.47,4.23,4.23,0,0,1-5.47,0,3.34,3.34,0,0,1-1-2.5,3,3,0,0,1,.57-1.87A2.85,2.85,0,0,1,392,167.46Zm-.73,2.91a2.55,2.55,0,0,0,.29,1.16,2,2,0,0,0,.85.87,2.47,2.47,0,0,0,1.21.31,2.26,2.26,0,0,0,1.66-.65,2.22,2.22,0,0,0,.66-1.65,2.26,2.26,0,0,0-.68-1.68,2.32,2.32,0,0,0-1.69-.66,2.24,2.24,0,0,0-2.3,2.3Zm.45-5.29a1.78,1.78,0,0,0,.52,1.33,1.86,1.86,0,0,0,1.36.52,1.81,1.81,0,0,0,1.33-.51,1.69,1.69,0,0,0,.52-1.25,1.75,1.75,0,0,0-.54-1.3,1.82,1.82,0,0,0-1.33-.53,1.84,1.84,0,0,0-1.34.52A1.66,1.66,0,0,0,391.76,165.07Z" style="fill:#00fb00"/><path d="M398.78,168a10.5,10.5,0,0,1,.42-3.27,4.09,4.09,0,0,1,1.24-1.91,3.18,3.18,0,0,1,2.07-.67,3.4,3.4,0,0,1,1.62.37,3.1,3.1,0,0,1,1.15,1.07,5.75,5.75,0,0,1,.71,1.7,11.32,11.32,0,0,1,.26,2.71,10.49,10.49,0,0,1-.41,3.25,4.05,4.05,0,0,1-1.24,1.91,3.49,3.49,0,0,1-4.68-.51A7.55,7.55,0,0,1,398.78,168Zm1.45,0a7.18,7.18,0,0,0,.66,3.75,1.89,1.89,0,0,0,3.26,0,11,11,0,0,0,0-7.51,2,2,0,0,0-1.64-.93,1.8,1.8,0,0,0-1.55.82A7.27,7.27,0,0,0,400.22,168Z" style="fill:#00fb00"/><path d="M449.61,173.67h-1.41v-9a7.21,7.21,0,0,1-1.33,1,9.23,9.23,0,0,1-1.48.73V165a8.45,8.45,0,0,0,2.06-1.34,5.28,5.28,0,0,0,1.25-1.53h.91Z" style="fill:#00fb00"/><path d="M453.43,171l1.35-.12a2.34,2.34,0,0,0,.66,1.38,1.8,1.8,0,0,0,1.24.43,2.14,2.14,0,0,0,1.14-.3,2.42,2.42,0,0,0,.8-.79,4.66,4.66,0,0,0,.52-1.34,7.06,7.06,0,0,0,.21-1.72c0-.06,0-.16,0-.28a3.2,3.2,0,0,1-1.15,1.09,3.13,3.13,0,0,1-1.58.42,3.2,3.2,0,0,1-2.41-1,3.77,3.77,0,0,1-1-2.72,3.86,3.86,0,0,1,1-2.8,3.44,3.44,0,0,1,2.57-1.06,3.68,3.68,0,0,1,2,.6,3.76,3.76,0,0,1,1.41,1.71,8.45,8.45,0,0,1,.48,3.22,10.43,10.43,0,0,1-.48,3.5,4.1,4.1,0,0,1-1.42,2,3.67,3.67,0,0,1-2.21.68,3,3,0,0,1-3.22-2.84Zm5.76-5.05a2.76,2.76,0,0,0-.64-1.92,2,2,0,0,0-1.55-.71,2.14,2.14,0,0,0-1.63.77,2.84,2.84,0,0,0-.7,2,2.45,2.45,0,0,0,.66,1.78,2.17,2.17,0,0,0,1.63.68,2.08,2.08,0,0,0,1.61-.68A2.69,2.69,0,0,0,459.18,166Z" style="fill:#00fb00"/><path d="M462.11,168a10.47,10.47,0,0,1,.42-3.27,4.08,4.08,0,0,1,1.24-1.91,3.18,3.18,0,0,1,2.07-.67,3.4,3.4,0,0,1,1.62.37,3.12,3.12,0,0,1,1.15,1.07,5.77,5.77,0,0,1,.71,1.7,11.32,11.32,0,0,1,.26,2.71,10.52,10.52,0,0,1-.41,3.25,4.07,4.07,0,0,1-1.24,1.91,3.17,3.17,0,0,1-2.08.68,3.14,3.14,0,0,1-2.6-1.19A7.54,7.54,0,0,1,462.11,168Zm1.45,0a7.17,7.17,0,0,0,.66,3.75,1.89,1.89,0,0,0,3.26,0,11,11,0,0,0,0-7.51,2,2,0,0,0-1.64-.93,1.8,1.8,0,0,0-1.55.82A7.27,7.27,0,0,0,463.56,168Z" style="fill:#00fb00"/><path d="M513.71,172.31v1.35h-7.57a2.48,2.48,0,0,1,.16-1,5.15,5.15,0,0,1,.93-1.52,14.42,14.42,0,0,1,1.84-1.73,15.51,15.51,0,0,0,2.52-2.43,2.9,2.9,0,0,0,.66-1.69,1.88,1.88,0,0,0-.6-1.41,2.16,2.16,0,0,0-1.56-.57,2.2,2.2,0,0,0-1.62.61,2.3,2.3,0,0,0-.62,1.69l-1.45-.15a3.56,3.56,0,0,1,1.12-2.46,3.81,3.81,0,0,1,2.6-.85,3.63,3.63,0,0,1,2.61.91,3,3,0,0,1,1,2.27,3.43,3.43,0,0,1-.28,1.35,5.22,5.22,0,0,1-.93,1.4,22.74,22.74,0,0,1-2.17,2q-1.27,1.06-1.62,1.44a4.7,4.7,0,0,0-.59.76Z" style="fill:#00fb00"/><path d="M515.21,168a10.47,10.47,0,0,1,.42-3.27,4.08,4.08,0,0,1,1.24-1.91,3.18,3.18,0,0,1,2.07-.67,3.4,3.4,0,0,1,1.62.37,3.12,3.12,0,0,1,1.15,1.07,5.77,5.77,0,0,1,.71,1.7,11.32,11.32,0,0,1,.26,2.71,10.52,10.52,0,0,1-.41,3.25,4.07,4.07,0,0,1-1.24,1.91,3.17,3.17,0,0,1-2.08.68,3.14,3.14,0,0,1-2.6-1.19A7.54,7.54,0,0,1,515.21,168Zm1.45,0a7.17,7.17,0,0,0,.66,3.75,1.89,1.89,0,0,0,3.26,0,11,11,0,0,0,0-7.51,2,2,0,0,0-1.64-.93,1.8,1.8,0,0,0-1.55.82A7.27,7.27,0,0,0,516.66,168Z" style="fill:#00fb00"/><path d="M524.11,168a10.47,10.47,0,0,1,.42-3.27,4.08,4.08,0,0,1,1.24-1.91,3.18,3.18,0,0,1,2.07-.67,3.4,3.4,0,0,1,1.62.37,3.12,3.12,0,0,1,1.15,1.07,5.77,5.77,0,0,1,.71,1.7,11.32,11.32,0,0,1,.26,2.71,10.52,10.52,0,0,1-.41,3.25,4.07,4.07,0,0,1-1.24,1.91,3.17,3.17,0,0,1-2.08.68,3.14,3.14,0,0,1-2.6-1.19A7.54,7.54,0,0,1,524.11,168Zm1.45,0a7.17,7.17,0,0,0,.66,3.75,1.89,1.89,0,0,0,3.26,0,11,11,0,0,0,0-7.51,2,2,0,0,0-1.64-.93,1.8,1.8,0,0,0-1.55.82A7.27,7.27,0,0,0,525.56,168Z" style="fill:#00fb00"/><path d="M577,172.31v1.35h-7.57a2.48,2.48,0,0,1,.16-1,5.15,5.15,0,0,1,.93-1.52,14.55,14.55,0,0,1,1.84-1.73,15.47,15.47,0,0,0,2.52-2.43,2.9,2.9,0,0,0,.66-1.69,1.88,1.88,0,0,0-.6-1.41,2.16,2.16,0,0,0-1.56-.57,2.2,2.2,0,0,0-1.62.61,2.3,2.3,0,0,0-.62,1.69l-1.45-.15a3.56,3.56,0,0,1,1.12-2.46,3.81,3.81,0,0,1,2.6-.85,3.63,3.63,0,0,1,2.61.91,3,3,0,0,1,1,2.27,3.43,3.43,0,0,1-.28,1.35,5.22,5.22,0,0,1-.93,1.4,22.49,22.49,0,0,1-2.17,2q-1.27,1.06-1.62,1.44a4.75,4.75,0,0,0-.59.76Z" style="fill:#00fb00"/><path d="M583.84,173.67h-1.41v-9a7.18,7.18,0,0,1-1.33,1,9.23,9.23,0,0,1-1.48.73V165a8.45,8.45,0,0,0,2.06-1.34,5.26,5.26,0,0,0,1.25-1.53h.91Z" style="fill:#00fb00"/><path d="M587.45,168a10.5,10.5,0,0,1,.42-3.27,4.08,4.08,0,0,1,1.24-1.91,3.18,3.18,0,0,1,2.07-.67,3.4,3.4,0,0,1,1.62.37,3.1,3.1,0,0,1,1.15,1.07,5.77,5.77,0,0,1,.71,1.7,11.32,11.32,0,0,1,.26,2.71,10.49,10.49,0,0,1-.41,3.25,4.06,4.06,0,0,1-1.24,1.91,3.17,3.17,0,0,1-2.08.68,3.14,3.14,0,0,1-2.6-1.19A7.55,7.55,0,0,1,587.45,168Zm1.45,0a7.17,7.17,0,0,0,.66,3.75,1.89,1.89,0,0,0,3.26,0,11,11,0,0,0,0-7.51,2,2,0,0,0-1.64-.93,1.8,1.8,0,0,0-1.55.82A7.27,7.27,0,0,0,588.89,168Z" style="fill:#00fb00"/><path d="M641,172.31v1.35h-7.57a2.48,2.48,0,0,1,.16-1,5.15,5.15,0,0,1,.93-1.52,14.55,14.55,0,0,1,1.84-1.73,15.47,15.47,0,0,0,2.52-2.43,2.9,2.9,0,0,0,.66-1.69,1.88,1.88,0,0,0-.6-1.41,2.16,2.16,0,0,0-1.56-.57,2.2,2.2,0,0,0-1.62.61,2.3,2.3,0,0,0-.62,1.69l-1.45-.15a3.56,3.56,0,0,1,1.12-2.46,3.81,3.81,0,0,1,2.6-.85,3.63,3.63,0,0,1,2.61.91,3,3,0,0,1,1,2.27,3.43,3.43,0,0,1-.28,1.35,5.22,5.22,0,0,1-.93,1.4,22.49,22.49,0,0,1-2.17,2q-1.27,1.06-1.62,1.44a4.75,4.75,0,0,0-.59.76Z" style="fill:#00fb00"/><path d="M649.94,172.31v1.35h-7.57a2.48,2.48,0,0,1,.16-1,5.15,5.15,0,0,1,.93-1.52,14.55,14.55,0,0,1,1.84-1.73,15.47,15.47,0,0,0,2.52-2.43,2.9,2.9,0,0,0,.66-1.69,1.88,1.88,0,0,0-.6-1.41,2.16,2.16,0,0,0-1.56-.57,2.2,2.2,0,0,0-1.62.61,2.3,2.3,0,0,0-.62,1.69l-1.45-.15a3.56,3.56,0,0,1,1.12-2.46,3.81,3.81,0,0,1,2.6-.85,3.63,3.63,0,0,1,2.61.91,3,3,0,0,1,1,2.27,3.43,3.43,0,0,1-.28,1.35,5.22,5.22,0,0,1-.93,1.4,22.49,22.49,0,0,1-2.17,2q-1.27,1.06-1.62,1.44a4.75,4.75,0,0,0-.59.76Z" style="fill:#00fb00"/><path d="M651.45,168a10.5,10.5,0,0,1,.42-3.27,4.08,4.08,0,0,1,1.24-1.91,3.18,3.18,0,0,1,2.07-.67,3.4,3.4,0,0,1,1.62.37,3.1,3.1,0,0,1,1.15,1.07,5.77,5.77,0,0,1,.71,1.7,11.32,11.32,0,0,1,.26,2.71,10.49,10.49,0,0,1-.41,3.25,4.06,4.06,0,0,1-1.24,1.91,3.17,3.17,0,0,1-2.08.68,3.14,3.14,0,0,1-2.6-1.19A7.55,7.55,0,0,1,651.45,168Zm1.45,0a7.17,7.17,0,0,0,.66,3.75,1.89,1.89,0,0,0,3.26,0,11,11,0,0,0,0-7.51,2,2,0,0,0-1.64-.93,1.8,1.8,0,0,0-1.55.82A7.27,7.27,0,0,0,652.89,168Z" style="fill:#00fb00"/><path d="M704.37,172.31v1.35H696.8a2.51,2.51,0,0,1,.16-1,5.19,5.19,0,0,1,.93-1.52,14.55,14.55,0,0,1,1.84-1.73,15.47,15.47,0,0,0,2.52-2.43,2.9,2.9,0,0,0,.66-1.69,1.88,1.88,0,0,0-.6-1.41,2.16,2.16,0,0,0-1.56-.57,2.2,2.2,0,0,0-1.62.61,2.31,2.31,0,0,0-.62,1.69l-1.45-.15a3.56,3.56,0,0,1,1.12-2.46,3.82,3.82,0,0,1,2.6-.85,3.63,3.63,0,0,1,2.61.91,3,3,0,0,1,1,2.27,3.43,3.43,0,0,1-.28,1.35,5.2,5.2,0,0,1-.93,1.4,22.49,22.49,0,0,1-2.17,2q-1.27,1.06-1.62,1.44a4.75,4.75,0,0,0-.59.76Z" style="fill:#00fb00"/><path d="M705.89,170.64l1.41-.19a3.1,3.1,0,0,0,.82,1.72,2,2,0,0,0,1.42.53,2.27,2.27,0,0,0,1.68-.69,2.32,2.32,0,0,0,.68-1.7,2.16,2.16,0,0,0-.63-1.6,2.19,2.19,0,0,0-1.61-.63,4.07,4.07,0,0,0-1,.16l.16-1.23.23,0a2.89,2.89,0,0,0,1.62-.47,1.6,1.6,0,0,0,.72-1.45,1.71,1.71,0,0,0-.52-1.28,1.86,1.86,0,0,0-1.35-.51,1.92,1.92,0,0,0-1.37.52,2.59,2.59,0,0,0-.7,1.55l-1.41-.25a3.62,3.62,0,0,1,1.17-2.19,3.39,3.39,0,0,1,2.27-.78,3.75,3.75,0,0,1,1.73.4,2.92,2.92,0,0,1,1.21,1.1,2.82,2.82,0,0,1,.42,1.48,2.41,2.41,0,0,1-.4,1.35,2.71,2.71,0,0,1-1.18,1,2.66,2.66,0,0,1,1.58,1,3,3,0,0,1,.56,1.85,3.38,3.38,0,0,1-1.09,2.54,3.84,3.84,0,0,1-2.77,1,3.6,3.6,0,0,1-2.5-.9A3.47,3.47,0,0,1,705.89,170.64Z" style="fill:#00fb00"/><path d="M714.78,168a10.5,10.5,0,0,1,.42-3.27,4.09,4.09,0,0,1,1.24-1.91,3.18,3.18,0,0,1,2.07-.67,3.4,3.4,0,0,1,1.62.37,3.1,3.1,0,0,1,1.15,1.07,5.75,5.75,0,0,1,.71,1.7,11.32,11.32,0,0,1,.26,2.71,10.49,10.49,0,0,1-.41,3.25,4.05,4.05,0,0,1-1.24,1.91,3.49,3.49,0,0,1-4.68-.51A7.55,7.55,0,0,1,714.78,168Zm1.45,0a7.18,7.18,0,0,0,.66,3.75,1.89,1.89,0,0,0,3.26,0,11,11,0,0,0,0-7.51,2,2,0,0,0-1.64-.93,1.8,1.8,0,0,0-1.55.82A7.27,7.27,0,0,0,716.22,168Z" style="fill:#00fb00"/><path d="M768.37,172.31v1.35H760.8a2.51,2.51,0,0,1,.16-1,5.19,5.19,0,0,1,.93-1.52,14.55,14.55,0,0,1,1.84-1.73,15.47,15.47,0,0,0,2.52-2.43,2.9,2.9,0,0,0,.66-1.69,1.88,1.88,0,0,0-.6-1.41,2.16,2.16,0,0,0-1.56-.57,2.2,2.2,0,0,0-1.62.61,2.31,2.31,0,0,0-.62,1.69l-1.45-.15a3.56,3.56,0,0,1,1.12-2.46,3.82,3.82,0,0,1,2.6-.85,3.63,3.63,0,0,1,2.61.91,3,3,0,0,1,1,2.27,3.43,3.43,0,0,1-.28,1.35,5.2,5.2,0,0,1-.93,1.4,22.49,22.49,0,0,1-2.17,2q-1.27,1.06-1.62,1.44a4.75,4.75,0,0,0-.59.76Z" style="fill:#00fb00"/><path d="M774.39,173.67v-2.74h-5v-1.29l5.23-7.42h1.15v7.42h1.55v1.29h-1.55v2.74Zm0-4v-5.16l-3.59,5.16Z" style="fill:#00fb00"/><path d="M778.78,168a10.5,10.5,0,0,1,.42-3.27,4.09,4.09,0,0,1,1.24-1.91,3.18,3.18,0,0,1,2.07-.67,3.4,3.4,0,0,1,1.62.37,3.1,3.1,0,0,1,1.15,1.07,5.75,5.75,0,0,1,.71,1.7,11.32,11.32,0,0,1,.26,2.71,10.49,10.49,0,0,1-.41,3.25,4.05,4.05,0,0,1-1.24,1.91,3.49,3.49,0,0,1-4.68-.51A7.55,7.55,0,0,1,778.78,168Zm1.45,0a7.18,7.18,0,0,0,.66,3.75,1.89,1.89,0,0,0,3.26,0,11,11,0,0,0,0-7.51,2,2,0,0,0-1.64-.93,1.8,1.8,0,0,0-1.55.82A7.27,7.27,0,0,0,780.22,168Z" style="fill:#00fb00"/><path d="M28,190.17v-1.34h4.85v4.25a8.53,8.53,0,0,1-2.3,1.34,6.82,6.82,0,0,1-2.44.45,6.5,6.5,0,0,1-3.07-.72A4.77,4.77,0,0,1,23,192a6.58,6.58,0,0,1-.7-3.05,7.1,7.1,0,0,1,.7-3.12,4.66,4.66,0,0,1,2-2.15,6.3,6.3,0,0,1,3-.7,6,6,0,0,1,2.25.4,3.73,3.73,0,0,1,1.57,1.12,5,5,0,0,1,.87,1.88l-1.37.38a4.24,4.24,0,0,0-.64-1.37,2.64,2.64,0,0,0-1.09-.8,4,4,0,0,0-1.58-.3,4.65,4.65,0,0,0-1.8.32,3.36,3.36,0,0,0-1.22.83,4,4,0,0,0-.72,1.13,6,6,0,0,0-.44,2.3,5.59,5.59,0,0,0,.53,2.56A3.37,3.37,0,0,0,25.92,193a4.75,4.75,0,0,0,2.14.5,5.06,5.06,0,0,0,1.92-.38,4.92,4.92,0,0,0,1.42-.81v-2.13Z" style="fill:#00fb00"/><path d="M143.18,194.67h-1.41v-9a7.14,7.14,0,0,1-1.33,1,9.19,9.19,0,0,1-1.48.73V186A8.41,8.41,0,0,0,141,184.7a5.24,5.24,0,0,0,1.25-1.53h.91Z"/><path d="M205.18,194.67h-1.41v-9a7.14,7.14,0,0,1-1.33,1,9.19,9.19,0,0,1-1.48.73V186A8.41,8.41,0,0,0,203,184.7a5.24,5.24,0,0,0,1.25-1.53h.91Z"/><path d="M268.51,194.67h-1.41v-9a7.21,7.21,0,0,1-1.33,1,9.23,9.23,0,0,1-1.48.73V186a8.45,8.45,0,0,0,2.06-1.34,5.28,5.28,0,0,0,1.25-1.53h.91Z"/><path d="M332.51,194.67h-1.41v-9a7.21,7.21,0,0,1-1.33,1,9.23,9.23,0,0,1-1.48.73V186a8.45,8.45,0,0,0,2.06-1.34,5.28,5.28,0,0,0,1.25-1.53h.91Z"/><path d="M395.18,194.67h-1.41v-9a7.14,7.14,0,0,1-1.33,1,9.19,9.19,0,0,1-1.48.73V186A8.41,8.41,0,0,0,393,184.7a5.24,5.24,0,0,0,1.25-1.53h.91Z"/><path d="M458.51,194.67h-1.41v-9a7.21,7.21,0,0,1-1.33,1,9.23,9.23,0,0,1-1.48.73V186a8.45,8.45,0,0,0,2.06-1.34,5.28,5.28,0,0,0,1.25-1.53h.91Z"/><path d="M520.51,194.67h-1.41v-9a7.21,7.21,0,0,1-1.33,1,9.23,9.23,0,0,1-1.48.73V186a8.45,8.45,0,0,0,2.06-1.34,5.28,5.28,0,0,0,1.25-1.53h.91Z"/><path d="M583.84,194.67h-1.41v-9a7.18,7.18,0,0,1-1.33,1,9.23,9.23,0,0,1-1.48.73V186a8.45,8.45,0,0,0,2.06-1.34,5.26,5.26,0,0,0,1.25-1.53h.91Z"/><path d="M647.84,194.67h-1.41v-9a7.18,7.18,0,0,1-1.33,1,9.23,9.23,0,0,1-1.48.73V186a8.45,8.45,0,0,0,2.06-1.34,5.26,5.26,0,0,0,1.25-1.53h.91Z"/><path d="M22.19,215.67V204.21h2.28l2.71,8.11q.38,1.13.55,1.7.2-.62.61-1.84l2.74-8h2v11.45H31.66v-9.59l-3.33,9.59H27l-3.31-9.75v9.75Z" style="fill:#00fb00"/><path d="M207.27,214.31v1.35H199.7a2.51,2.51,0,0,1,.16-1,5.19,5.19,0,0,1,.93-1.52,14.55,14.55,0,0,1,1.84-1.73,15.47,15.47,0,0,0,2.52-2.43,2.9,2.9,0,0,0,.66-1.69,1.88,1.88,0,0,0-.6-1.41,2.16,2.16,0,0,0-1.56-.57,2.2,2.2,0,0,0-1.62.61,2.31,2.31,0,0,0-.62,1.69l-1.45-.15a3.56,3.56,0,0,1,1.12-2.46,3.82,3.82,0,0,1,2.6-.85,3.63,3.63,0,0,1,2.61.91,3,3,0,0,1,1,2.27,3.43,3.43,0,0,1-.28,1.35,5.2,5.2,0,0,1-.93,1.4,22.49,22.49,0,0,1-2.17,2q-1.27,1.06-1.62,1.44a4.75,4.75,0,0,0-.59.76Z"/><path d="M520.51,215.67h-1.41v-9a7.21,7.21,0,0,1-1.33,1,9.23,9.23,0,0,1-1.48.73V207a8.45,8.45,0,0,0,2.06-1.34,5.28,5.28,0,0,0,1.25-1.53h.91Z"/><path d="M585.94,214.31v1.35h-7.57a2.48,2.48,0,0,1,.16-1,5.15,5.15,0,0,1,.93-1.52,14.55,14.55,0,0,1,1.84-1.73,15.47,15.47,0,0,0,2.52-2.43,2.9,2.9,0,0,0,.66-1.69,1.88,1.88,0,0,0-.6-1.41,2.16,2.16,0,0,0-1.56-.57,2.2,2.2,0,0,0-1.62.61,2.3,2.3,0,0,0-.62,1.69l-1.45-.15a3.56,3.56,0,0,1,1.12-2.46,3.81,3.81,0,0,1,2.6-.85,3.63,3.63,0,0,1,2.61.91,3,3,0,0,1,1,2.27,3.43,3.43,0,0,1-.28,1.35,5.22,5.22,0,0,1-.93,1.4,22.49,22.49,0,0,1-2.17,2q-1.27,1.06-1.62,1.44a4.75,4.75,0,0,0-.59.76Z"/><path d="M647.84,215.67h-1.41v-9a7.18,7.18,0,0,1-1.33,1,9.23,9.23,0,0,1-1.48.73V207a8.45,8.45,0,0,0,2.06-1.34,5.26,5.26,0,0,0,1.25-1.53h.91Z"/><path d="M711.18,215.67h-1.41v-9a7.14,7.14,0,0,1-1.33,1,9.19,9.19,0,0,1-1.48.73V207A8.41,8.41,0,0,0,709,205.7a5.24,5.24,0,0,0,1.25-1.53h.91Z"/><path d="M775.18,215.67h-1.41v-9a7.14,7.14,0,0,1-1.33,1,9.19,9.19,0,0,1-1.48.73V207A8.41,8.41,0,0,0,773,205.7a5.24,5.24,0,0,0,1.25-1.53h.91Z"/><path d="M287.24,312.8v-1.59h4.86v1.59Z" style="fill:red"/><path d="M293.23,312.8v-1.59h4.86v1.59Z" style="fill:red"/><path d="M299.23,312.8v-1.59h4.86v1.59Z" style="fill:red"/><path d="M287.54,341.39a7,7,0,0,1,1.72-5,5.86,5.86,0,0,1,4.45-1.82,6.17,6.17,0,0,1,3.22.85,5.57,5.57,0,0,1,2.18,2.38,7.72,7.72,0,0,1,.75,3.46,7.59,7.59,0,0,1-.79,3.51,5.4,5.4,0,0,1-2.24,2.34,6.4,6.4,0,0,1-3.13.8,6.09,6.09,0,0,1-3.25-.88,5.66,5.66,0,0,1-2.17-2.4A7.27,7.27,0,0,1,287.54,341.39Zm1.76,0a5.16,5.16,0,0,0,1.25,3.67,4.37,4.37,0,0,0,6.31,0,5.48,5.48,0,0,0,1.24-3.84,6.6,6.6,0,0,0-.53-2.75,4.09,4.09,0,0,0-1.56-1.82,4.22,4.22,0,0,0-2.3-.65,4.36,4.36,0,0,0-3.12,1.24Q289.29,338.51,289.29,341.42Z" style="fill:red"/><path d="M302.06,347.67V334.78h4.86a11.75,11.75,0,0,1,2,.12,3.88,3.88,0,0,1,1.59.6,3.16,3.16,0,0,1,1,1.24,4.2,4.2,0,0,1-.65,4.54q-1,1.14-3.78,1.14h-3.3v5.24Zm1.71-6.76h3.33a3.54,3.54,0,0,0,2.35-.62,2.19,2.19,0,0,0,.69-1.73,2.33,2.33,0,0,0-.41-1.38,1.91,1.91,0,0,0-1.08-.76,7.31,7.31,0,0,0-1.59-.11h-3.29Z" style="fill:red"/><path d="M319.38,347.67H317.8V337.59a8.17,8.17,0,0,1-1.5,1.09,10.61,10.61,0,0,1-1.67.82V338a9.55,9.55,0,0,0,2.32-1.51,6,6,0,0,0,1.41-1.72h1Z" style="fill:red"/><path d="M323.43,341.31a11.8,11.8,0,0,1,.47-3.68,4.58,4.58,0,0,1,1.4-2.15,3.57,3.57,0,0,1,2.33-.76,3.8,3.8,0,0,1,1.82.42,3.48,3.48,0,0,1,1.29,1.2,6.46,6.46,0,0,1,.8,1.92,12.73,12.73,0,0,1,.29,3,11.82,11.82,0,0,1-.47,3.66,4.58,4.58,0,0,1-1.39,2.15,3.92,3.92,0,0,1-5.27-.58Q323.43,344.94,323.43,341.31Zm1.63,0q0,3.17.74,4.22a2.12,2.12,0,0,0,3.67,0q.74-1.05.74-4.22t-.74-4.23a2.2,2.2,0,0,0-1.85-1,2,2,0,0,0-1.74.92Q325.06,338.14,325.06,341.31Z" style="fill:red"/><path d="M333.44,341.31a11.79,11.79,0,0,1,.47-3.68,4.58,4.58,0,0,1,1.4-2.15,3.57,3.57,0,0,1,2.33-.76,3.81,3.81,0,0,1,1.82.42,3.48,3.48,0,0,1,1.29,1.2,6.46,6.46,0,0,1,.8,1.92,12.74,12.74,0,0,1,.29,3,11.82,11.82,0,0,1-.46,3.66,4.58,4.58,0,0,1-1.39,2.15,3.57,3.57,0,0,1-2.34.76,3.53,3.53,0,0,1-2.93-1.34Q333.44,344.94,333.44,341.31Zm1.63,0q0,3.17.74,4.22a2.12,2.12,0,0,0,3.67,0q.74-1.05.74-4.22t-.74-4.23a2.2,2.2,0,0,0-1.85-1,2,2,0,0,0-1.74.92Q335.07,338.14,335.07,341.31Z" style="fill:red"/><path d="M343.28,343.8v-1.59h4.86v1.59Z" style="fill:red"/><path d="M350,347.67V334.78h1.71v11.37h6.35v1.52Z" style="fill:red"/><path d="M360,347.67V334.78h4.83a6,6,0,0,1,2.37.39,3,3,0,0,1,1.4,1.2,3.18,3.18,0,0,1,.51,1.7,2.92,2.92,0,0,1-.45,1.55,3.2,3.2,0,0,1-1.35,1.18,3.37,3.37,0,0,1,1.8,1.17,3.13,3.13,0,0,1,.63,2,3.76,3.76,0,0,1-.38,1.68,3.26,3.26,0,0,1-.94,1.2,4,4,0,0,1-1.41.64,8.59,8.59,0,0,1-2.08.21Zm1.71-7.47h2.79a6.24,6.24,0,0,0,1.63-.15,1.81,1.81,0,0,0,1-.64,1.85,1.85,0,0,0,.33-1.12,2.07,2.07,0,0,0-.31-1.13,1.56,1.56,0,0,0-.88-.67,7.35,7.35,0,0,0-2-.18h-2.57Zm0,6h3.21a7.35,7.35,0,0,0,1.16-.06,2.78,2.78,0,0,0,1-.35,1.87,1.87,0,0,0,.65-.72,2.24,2.24,0,0,0,.26-1.08,2.14,2.14,0,0,0-.37-1.25,2,2,0,0,0-1-.75,6.35,6.35,0,0,0-1.89-.21h-3Z" style="fill:red"/><path d="M371.29,343.8v-1.59h4.86v1.59Z" style="fill:red"/><path d="M383.42,347.67h-1.58V337.59a8.17,8.17,0,0,1-1.5,1.09,10.61,10.61,0,0,1-1.67.82V338a9.55,9.55,0,0,0,2.32-1.51,6,6,0,0,0,1.41-1.72h1Z" style="fill:red"/><path d="M387.47,341.31a11.8,11.8,0,0,1,.47-3.68,4.58,4.58,0,0,1,1.4-2.15,3.57,3.57,0,0,1,2.33-.76,3.8,3.8,0,0,1,1.82.42,3.48,3.48,0,0,1,1.29,1.2,6.46,6.46,0,0,1,.8,1.92,12.73,12.73,0,0,1,.29,3,11.82,11.82,0,0,1-.47,3.66,4.58,4.58,0,0,1-1.39,2.15,3.92,3.92,0,0,1-5.27-.58Q387.47,344.94,387.47,341.31Zm1.63,0q0,3.17.74,4.22a2.12,2.12,0,0,0,3.67,0q.74-1.05.74-4.22t-.74-4.23a2.2,2.2,0,0,0-1.85-1,2,2,0,0,0-1.74.92Q389.09,338.14,389.09,341.31Z" style="fill:red"/><path d="M397.48,341.31a11.79,11.79,0,0,1,.47-3.68,4.58,4.58,0,0,1,1.4-2.15,3.57,3.57,0,0,1,2.33-.76,3.81,3.81,0,0,1,1.82.42,3.48,3.48,0,0,1,1.29,1.2,6.46,6.46,0,0,1,.8,1.92,12.74,12.74,0,0,1,.29,3,11.82,11.82,0,0,1-.46,3.66,4.58,4.58,0,0,1-1.39,2.15,3.57,3.57,0,0,1-2.34.76,3.53,3.53,0,0,1-2.93-1.34Q397.48,344.94,397.48,341.31Zm1.63,0q0,3.17.74,4.22a2.12,2.12,0,0,0,3.67,0q.74-1.05.74-4.22t-.74-4.23a2.2,2.2,0,0,0-1.85-1,2,2,0,0,0-1.74.92Q399.1,338.14,399.11,341.31Z" style="fill:red"/><path d="M406.47,351.24V350.1H417v1.14Z" style="fill:red"/><path d="M417.61,336.47v-1.52h8.34v1.23a17.58,17.58,0,0,0-2.44,3.48,21.2,21.2,0,0,0-1.87,4.46,16.58,16.58,0,0,0-.61,3.54h-1.62A15.79,15.79,0,0,1,420,344a19.29,19.29,0,0,1,1.64-4.15,17.81,17.81,0,0,1,2.27-3.37Z" style="fill:red"/><path d="M427.51,341.31a11.8,11.8,0,0,1,.47-3.68,4.58,4.58,0,0,1,1.4-2.15,3.57,3.57,0,0,1,2.33-.76,3.8,3.8,0,0,1,1.82.42,3.48,3.48,0,0,1,1.29,1.2,6.46,6.46,0,0,1,.8,1.92,12.73,12.73,0,0,1,.29,3,11.82,11.82,0,0,1-.47,3.66,4.58,4.58,0,0,1-1.39,2.15,3.92,3.92,0,0,1-5.27-.58Q427.51,344.94,427.51,341.31Zm1.63,0q0,3.17.74,4.22a2.12,2.12,0,0,0,3.67,0q.74-1.05.74-4.22t-.74-4.23a2.2,2.2,0,0,0-1.85-1A2,2,0,0,0,430,337Q429.14,338.14,429.14,341.31Z" style="fill:red"/><path d="M437.52,341.31a11.79,11.79,0,0,1,.47-3.68,4.58,4.58,0,0,1,1.4-2.15,3.57,3.57,0,0,1,2.33-.76,3.81,3.81,0,0,1,1.82.42,3.48,3.48,0,0,1,1.29,1.2,6.46,6.46,0,0,1,.8,1.92,12.74,12.74,0,0,1,.29,3,11.82,11.82,0,0,1-.46,3.66,4.58,4.58,0,0,1-1.39,2.15,3.57,3.57,0,0,1-2.34.76,3.53,3.53,0,0,1-2.93-1.34Q437.52,344.94,437.52,341.31Zm1.63,0q0,3.17.74,4.22a2.12,2.12,0,0,0,3.67,0q.74-1.05.74-4.22t-.74-4.23a2.2,2.2,0,0,0-1.85-1A2,2,0,0,0,440,337Q439.15,338.14,439.15,341.31Z" style="fill:red"/><path d="M446.51,351.24V350.1H457v1.14Z" style="fill:red"/><path d="M465.86,346.15v1.52h-8.52a2.79,2.79,0,0,1,.18-1.1,5.82,5.82,0,0,1,1-1.71,16.31,16.31,0,0,1,2.07-2,17.57,17.57,0,0,0,2.84-2.73,3.27,3.27,0,0,0,.74-1.9,2.12,2.12,0,0,0-.67-1.59,2.42,2.42,0,0,0-1.75-.65,2.47,2.47,0,0,0-1.83.69,2.59,2.59,0,0,0-.7,1.9l-1.62-.17a4,4,0,0,1,1.26-2.77,4.29,4.29,0,0,1,2.93-1,4.08,4.08,0,0,1,2.94,1,3.38,3.38,0,0,1,1.08,2.55,3.86,3.86,0,0,1-.32,1.52,5.9,5.9,0,0,1-1,1.57,25.57,25.57,0,0,1-2.44,2.27q-1.42,1.2-1.83,1.62a5.2,5.2,0,0,0-.67.86Z" style="fill:red"/><path d="M475.87,346.15v1.52h-8.52a2.79,2.79,0,0,1,.19-1.1,5.81,5.81,0,0,1,1-1.71,16.33,16.33,0,0,1,2.07-2,17.53,17.53,0,0,0,2.84-2.73,3.27,3.27,0,0,0,.74-1.9,2.11,2.11,0,0,0-.67-1.59,2.43,2.43,0,0,0-1.75-.65,2.47,2.47,0,0,0-1.83.69,2.59,2.59,0,0,0-.69,1.9l-1.63-.17a4,4,0,0,1,1.26-2.77,4.28,4.28,0,0,1,2.93-1,4.08,4.08,0,0,1,2.94,1,3.38,3.38,0,0,1,1.08,2.55,3.86,3.86,0,0,1-.32,1.52,5.91,5.91,0,0,1-1.05,1.57,25.61,25.61,0,0,1-2.44,2.27q-1.42,1.2-1.83,1.62a5.2,5.2,0,0,0-.67.86Z" style="fill:red"/><path d="M477.67,336.47v-1.52H486v1.23a17.58,17.58,0,0,0-2.44,3.48,21.2,21.2,0,0,0-1.87,4.46,16.58,16.58,0,0,0-.61,3.54h-1.62a15.79,15.79,0,0,1,.6-3.67,19.29,19.29,0,0,1,1.64-4.15,17.81,17.81,0,0,1,2.27-3.37Z" style="fill:red"/><path d="M486.56,351.24V350.1H497v1.14Z" style="fill:red"/><path d="M498.21,347.67V334.78H500l6.77,10.12V334.78h1.63v12.88h-1.75l-6.77-10.12v10.13Z" style="fill:red"/><path d="M520.42,343.15l1.71.43a5.74,5.74,0,0,1-1.93,3.2,5.31,5.31,0,0,1-3.41,1.1,6.12,6.12,0,0,1-3.39-.85,5.29,5.29,0,0,1-2-2.46,8.77,8.77,0,0,1-.68-3.46,7.59,7.59,0,0,1,.77-3.51,5.27,5.27,0,0,1,2.19-2.28,6.39,6.39,0,0,1,3.12-.78,5.28,5.28,0,0,1,3.25,1,5.11,5.11,0,0,1,1.84,2.77l-1.68.4a4,4,0,0,0-1.3-2,3.47,3.47,0,0,0-2.14-.64,4.16,4.16,0,0,0-2.48.71,3.76,3.76,0,0,0-1.4,1.91,7.7,7.7,0,0,0-.4,2.47A7.86,7.86,0,0,0,513,344a3.57,3.57,0,0,0,1.49,1.83,4.18,4.18,0,0,0,2.19.61,3.67,3.67,0,0,0,2.43-.83A4.23,4.23,0,0,0,520.42,343.15Z" style="fill:red"/><path d="M524.16,347.67V334.78h1.71v6.39l6.4-6.39h2.31l-5.4,5.22,5.64,7.66h-2.25L528,341.14l-2.11,2.06v4.46Z" style="fill:red"/><path d="M538.82,347.67l4.95-12.88h1.84l5.27,12.88h-1.94l-1.5-3.9h-5.39l-1.42,3.9Zm3.72-5.29h4.37l-1.34-3.57q-.62-1.63-.91-2.67a16.43,16.43,0,0,1-.7,2.46Z" style="fill:red"/><path d="M552,347.67V334.78h1.58v12.88Z" style="fill:red"/><path d="M562.13,346.52a5.89,5.89,0,0,1-1.69,1.05,4.89,4.89,0,0,1-1.74.31,3.4,3.4,0,0,1-2.37-.75,2.48,2.48,0,0,1-.83-1.92,2.55,2.55,0,0,1,.31-1.25,2.58,2.58,0,0,1,.82-.91,3.84,3.84,0,0,1,1.14-.52,11.27,11.27,0,0,1,1.41-.24,14.47,14.47,0,0,0,2.82-.54c0-.22,0-.35,0-.41a1.75,1.75,0,0,0-.45-1.36,2.65,2.65,0,0,0-1.8-.54,2.79,2.79,0,0,0-1.65.39,2.39,2.39,0,0,0-.79,1.38l-1.55-.21a3.83,3.83,0,0,1,.69-1.6,3,3,0,0,1,1.4-.94,6.23,6.23,0,0,1,2.12-.33,5.61,5.61,0,0,1,1.94.28,2.56,2.56,0,0,1,1.1.71,2.49,2.49,0,0,1,.49,1.08,8.88,8.88,0,0,1,.08,1.46v2.11a22.42,22.42,0,0,0,.1,2.79,3.52,3.52,0,0,0,.4,1.12h-1.65A3.35,3.35,0,0,1,562.13,346.52ZM562,343a11.61,11.61,0,0,1-2.58.6,6,6,0,0,0-1.38.32,1.37,1.37,0,0,0-.62.51,1.4,1.4,0,0,0,.26,1.81,2.06,2.06,0,0,0,1.4.42,3.27,3.27,0,0,0,1.63-.4,2.46,2.46,0,0,0,1-1.09,3.82,3.82,0,0,0,.26-1.58Z" style="fill:red"/><path d="M566,347.67v-9.33h1.42v1.42a3.87,3.87,0,0,1,1-1.31,1.76,1.76,0,0,1,1-.32,3.09,3.09,0,0,1,1.63.51l-.54,1.47a2.27,2.27,0,0,0-1.16-.34,1.51,1.51,0,0,0-.93.31,1.69,1.69,0,0,0-.59.87,6.16,6.16,0,0,0-.26,1.85v4.89Z" style="fill:red"/><path d="M572,347.67v-9.33h1.42v1.31a3.33,3.33,0,0,1,1.17-1.1,3.29,3.29,0,0,1,1.66-.42,3.07,3.07,0,0,1,1.7.43,2.3,2.3,0,0,1,.94,1.2,3.35,3.35,0,0,1,2.88-1.63,2.84,2.84,0,0,1,2.13.77,3.29,3.29,0,0,1,.75,2.37v6.41h-1.57v-5.88a4.34,4.34,0,0,0-.15-1.37,1.32,1.32,0,0,0-.56-.67,1.74,1.74,0,0,0-.95-.26,2.21,2.21,0,0,0-1.63.66,2.89,2.89,0,0,0-.65,2.1v5.42h-1.58V341.6a2.67,2.67,0,0,0-.39-1.58,1.46,1.46,0,0,0-1.27-.53,2.3,2.3,0,0,0-1.24.35,2,2,0,0,0-.82,1,5.78,5.78,0,0,0-.26,2v4.84Z" style="fill:red"/><path d="M592,351.24V338.33h1.44v1.21a3.55,3.55,0,0,1,1.15-1.07,3.17,3.17,0,0,1,1.56-.36,3.69,3.69,0,0,1,2.11.62,3.78,3.78,0,0,1,1.38,1.74,6.34,6.34,0,0,1,.47,2.46,6.24,6.24,0,0,1-.51,2.58,3.91,3.91,0,0,1-3.56,2.37,3,3,0,0,1-1.42-.33,3.23,3.23,0,0,1-1-.84v4.54Zm1.43-8.19a4.06,4.06,0,0,0,.73,2.66,2.24,2.24,0,0,0,1.77.86,2.29,2.29,0,0,0,1.81-.89,4.23,4.23,0,0,0,.75-2.76,4.12,4.12,0,0,0-.73-2.67,2.21,2.21,0,0,0-1.75-.89,2.28,2.28,0,0,0-1.79.94A4.23,4.23,0,0,0,593.47,343.05Z" style="fill:red"/><path d="M602,347.67v-9.33h1.42v1.42a3.87,3.87,0,0,1,1-1.31,1.76,1.76,0,0,1,1-.32,3.09,3.09,0,0,1,1.63.51l-.54,1.47a2.27,2.27,0,0,0-1.16-.34,1.51,1.51,0,0,0-.93.31,1.69,1.69,0,0,0-.59.87,6.16,6.16,0,0,0-.26,1.85v4.89Z" style="fill:red"/><path d="M614.44,344.66l1.63.2a4,4,0,0,1-1.43,2.22,4.85,4.85,0,0,1-5.92-.47,4.93,4.93,0,0,1-1.2-3.54,5.16,5.16,0,0,1,1.21-3.66,4.11,4.11,0,0,1,3.15-1.3,4,4,0,0,1,3.06,1.28,5.06,5.06,0,0,1,1.19,3.59c0,.09,0,.23,0,.42h-7a3.59,3.59,0,0,0,.87,2.36,2.59,2.59,0,0,0,2,.82,2.42,2.42,0,0,0,1.48-.46A3,3,0,0,0,614.44,344.66Zm-5.2-2.56h5.21a3.17,3.17,0,0,0-.6-1.77,2.43,2.43,0,0,0-2-.91,2.51,2.51,0,0,0-1.83.73A2.89,2.89,0,0,0,609.24,342.1Z" style="fill:red"/><path d="M617.43,344.88l1.56-.25a2.19,2.19,0,0,0,.73,1.44,2.56,2.56,0,0,0,1.68.5,2.47,2.47,0,0,0,1.62-.44,1.33,1.33,0,0,0,.53-1,1,1,0,0,0-.46-.84,6.85,6.85,0,0,0-1.62-.54,14.78,14.78,0,0,1-2.41-.76,2.3,2.3,0,0,1-1.37-2.14,2.4,2.4,0,0,1,.29-1.16,2.56,2.56,0,0,1,.78-.88,3.26,3.26,0,0,1,1-.46,4.78,4.78,0,0,1,1.37-.19,5.41,5.41,0,0,1,1.93.32,2.63,2.63,0,0,1,1.23.86,3.35,3.35,0,0,1,.54,1.45l-1.55.21a1.69,1.69,0,0,0-.61-1.12,2.23,2.23,0,0,0-1.43-.4,2.59,2.59,0,0,0-1.56.36,1,1,0,0,0-.46.84.87.87,0,0,0,.19.55,1.39,1.39,0,0,0,.61.42q.24.09,1.4.4a19.42,19.42,0,0,1,2.34.73,2.37,2.37,0,0,1,1,.83,2.32,2.32,0,0,1,.38,1.35,2.66,2.66,0,0,1-.46,1.49,3,3,0,0,1-1.33,1.08,4.85,4.85,0,0,1-2,.38,4.39,4.39,0,0,1-2.77-.76A3.51,3.51,0,0,1,617.43,344.88Z" style="fill:red"/><path d="M633.45,344.66l1.63.2a4,4,0,0,1-1.43,2.22,4.85,4.85,0,0,1-5.92-.47,4.93,4.93,0,0,1-1.2-3.54,5.16,5.16,0,0,1,1.21-3.66,4.11,4.11,0,0,1,3.15-1.3,4,4,0,0,1,3.06,1.28,5.06,5.06,0,0,1,1.19,3.59c0,.09,0,.23,0,.42h-7a3.59,3.59,0,0,0,.87,2.36,2.59,2.59,0,0,0,2,.82,2.42,2.42,0,0,0,1.49-.46A3,3,0,0,0,633.45,344.66Zm-5.19-2.56h5.21a3.17,3.17,0,0,0-.6-1.77,2.42,2.42,0,0,0-2-.91,2.52,2.52,0,0,0-1.83.73A2.89,2.89,0,0,0,628.25,342.1Z" style="fill:red"/><path d="M637.07,347.67v-9.33h1.42v1.33a3.36,3.36,0,0,1,3-1.54,3.9,3.9,0,0,1,1.55.3,2.44,2.44,0,0,1,1.06.8,3,3,0,0,1,.49,1.17,9.07,9.07,0,0,1,.09,1.54v5.74h-1.58V342a4.25,4.25,0,0,0-.19-1.45,1.52,1.52,0,0,0-.65-.76,2.08,2.08,0,0,0-1.1-.29,2.56,2.56,0,0,0-1.74.64,3.16,3.16,0,0,0-.73,2.43v5.1Z" style="fill:red"/><path d="M650.53,346.25l.23,1.4a5.87,5.87,0,0,1-1.2.14,2.71,2.71,0,0,1-1.34-.27,1.53,1.53,0,0,1-.67-.72,5.66,5.66,0,0,1-.19-1.87v-5.37h-1.16v-1.23h1.16V336l1.57-.95v3.26h1.59v1.23h-1.59V345a2.75,2.75,0,0,0,.08.87.66.66,0,0,0,.27.31,1.06,1.06,0,0,0,.54.11A5.11,5.11,0,0,0,650.53,346.25Z" style="fill:red"/><path d="M652.53,347.67v-1.8h1.8v1.8Z" style="fill:red"/><path d="M661.77,341.39a7,7,0,0,1,1.72-5,5.86,5.86,0,0,1,4.45-1.82,6.17,6.17,0,0,1,3.22.85,5.57,5.57,0,0,1,2.18,2.38,7.72,7.72,0,0,1,.75,3.46,7.59,7.59,0,0,1-.79,3.51,5.4,5.4,0,0,1-2.24,2.34,6.4,6.4,0,0,1-3.13.8,6.09,6.09,0,0,1-3.25-.88,5.66,5.66,0,0,1-2.17-2.4A7.27,7.27,0,0,1,661.77,341.39Zm1.76,0a5.16,5.16,0,0,0,1.25,3.67,4.37,4.37,0,0,0,6.31,0,5.48,5.48,0,0,0,1.24-3.84,6.6,6.6,0,0,0-.53-2.75,4.09,4.09,0,0,0-1.56-1.82,4.22,4.22,0,0,0-2.3-.65,4.36,4.36,0,0,0-3.12,1.24Q663.52,338.51,663.52,341.42Z" style="fill:red"/><path d="M676.29,347.67V334.78h4.86a11.72,11.72,0,0,1,2,.12,3.89,3.89,0,0,1,1.59.6,3.16,3.16,0,0,1,1,1.24,4.19,4.19,0,0,1-.66,4.54q-1,1.14-3.78,1.14H678v5.24Zm1.71-6.76h3.33a3.53,3.53,0,0,0,2.35-.62,2.19,2.19,0,0,0,.7-1.73,2.33,2.33,0,0,0-.41-1.38,1.91,1.91,0,0,0-1.08-.76,7.29,7.29,0,0,0-1.59-.11H678Z" style="fill:red"/><path d="M693.61,347.67H692V337.59a8.18,8.18,0,0,1-1.5,1.09,10.61,10.61,0,0,1-1.67.82V338a9.55,9.55,0,0,0,2.32-1.51,6,6,0,0,0,1.41-1.72h1Z" style="fill:red"/><path d="M702.28,347.67H700.7V337.59a8.17,8.17,0,0,1-1.5,1.09,10.61,10.61,0,0,1-1.67.82V338a9.55,9.55,0,0,0,2.32-1.51,6,6,0,0,0,1.41-1.72h1Z" style="fill:red"/><path d="M706.34,341.31a11.8,11.8,0,0,1,.47-3.68,4.58,4.58,0,0,1,1.4-2.15,3.57,3.57,0,0,1,2.33-.76,3.8,3.8,0,0,1,1.82.42,3.48,3.48,0,0,1,1.29,1.2,6.46,6.46,0,0,1,.8,1.92,12.73,12.73,0,0,1,.29,3,11.82,11.82,0,0,1-.47,3.66,4.58,4.58,0,0,1-1.39,2.15,3.92,3.92,0,0,1-5.27-.58Q706.33,344.94,706.34,341.31Zm1.63,0q0,3.17.74,4.22a2.12,2.12,0,0,0,3.67,0q.74-1.05.74-4.22t-.74-4.23a2.2,2.2,0,0,0-1.85-1,2,2,0,0,0-1.74.92Q708,338.14,708,341.31Z" style="fill:red"/><path d="M716.17,343.8v-1.59H721v1.59Z" style="fill:red"/><path d="M722.91,347.67V334.78h1.71v11.37H731v1.52Z" style="fill:red"/><path d="M732.18,343.8v-1.59H737v1.59Z" style="fill:red"/><path d="M744.3,347.67h-1.58V337.59a8.18,8.18,0,0,1-1.5,1.09,10.61,10.61,0,0,1-1.67.82V338a9.55,9.55,0,0,0,2.32-1.51,6,6,0,0,0,1.41-1.72h1Z" style="fill:red"/><path d="M748.36,341.31a11.79,11.79,0,0,1,.47-3.68,4.58,4.58,0,0,1,1.4-2.15,3.57,3.57,0,0,1,2.33-.76,3.81,3.81,0,0,1,1.82.42,3.48,3.48,0,0,1,1.29,1.2,6.46,6.46,0,0,1,.8,1.92,12.74,12.74,0,0,1,.29,3,11.82,11.82,0,0,1-.46,3.66,4.58,4.58,0,0,1-1.39,2.15,3.57,3.57,0,0,1-2.34.76,3.53,3.53,0,0,1-2.93-1.34Q748.36,344.94,748.36,341.31Zm1.63,0q0,3.17.74,4.22a2.12,2.12,0,0,0,3.67,0q.74-1.05.74-4.22t-.74-4.23a2.2,2.2,0,0,0-1.85-1,2,2,0,0,0-1.74.92Q750,338.14,750,341.31Z" style="fill:red"/><path d="M758.37,341.31a11.8,11.8,0,0,1,.47-3.68,4.58,4.58,0,0,1,1.4-2.15,3.57,3.57,0,0,1,2.33-.76,3.8,3.8,0,0,1,1.82.42,3.48,3.48,0,0,1,1.29,1.2,6.46,6.46,0,0,1,.8,1.92,12.73,12.73,0,0,1,.29,3,11.82,11.82,0,0,1-.47,3.66,4.58,4.58,0,0,1-1.39,2.15,3.92,3.92,0,0,1-5.27-.58Q758.37,344.94,758.37,341.31Zm1.63,0q0,3.17.74,4.22a2.12,2.12,0,0,0,3.67,0q.74-1.05.74-4.22t-.74-4.23a2.2,2.2,0,0,0-1.85-1,2,2,0,0,0-1.74.92Q760,338.14,760,341.31Z" style="fill:red"/><path d="M767.36,351.24V350.1h10.49v1.14Z" style="fill:red"/><path d="M778.49,336.47v-1.52h8.34v1.23a17.58,17.58,0,0,0-2.44,3.48,21.2,21.2,0,0,0-1.87,4.46,16.59,16.59,0,0,0-.61,3.54h-1.63a15.79,15.79,0,0,1,.6-3.67,19.29,19.29,0,0,1,1.64-4.15,17.81,17.81,0,0,1,2.27-3.37Z" style="fill:red"/><path d="M788.4,341.31a11.79,11.79,0,0,1,.47-3.68,4.58,4.58,0,0,1,1.4-2.15,3.57,3.57,0,0,1,2.33-.76,3.81,3.81,0,0,1,1.82.42,3.48,3.48,0,0,1,1.29,1.2,6.46,6.46,0,0,1,.8,1.92,12.74,12.74,0,0,1,.29,3,11.82,11.82,0,0,1-.46,3.66,4.58,4.58,0,0,1-1.39,2.15,3.57,3.57,0,0,1-2.34.76,3.53,3.53,0,0,1-2.93-1.34Q788.4,344.94,788.4,341.31Zm1.63,0q0,3.17.74,4.22a2.12,2.12,0,0,0,3.67,0q.74-1.05.74-4.22t-.74-4.23a2.2,2.2,0,0,0-1.85-1,2,2,0,0,0-1.74.92Q790,338.14,790,341.31Z" style="fill:red"/><path d="M798.41,341.31a11.8,11.8,0,0,1,.47-3.68,4.58,4.58,0,0,1,1.4-2.15,3.57,3.57,0,0,1,2.33-.76,3.8,3.8,0,0,1,1.82.42,3.48,3.48,0,0,1,1.29,1.2,6.46,6.46,0,0,1,.8,1.92,12.73,12.73,0,0,1,.29,3,11.82,11.82,0,0,1-.47,3.66,4.58,4.58,0,0,1-1.39,2.15,3.92,3.92,0,0,1-5.27-.58Q798.41,344.94,798.41,341.31Zm1.63,0q0,3.17.74,4.22a2.12,2.12,0,0,0,3.67,0q.74-1.05.74-4.22t-.74-4.23a2.2,2.2,0,0,0-1.85-1,2,2,0,0,0-1.74.92Q800,338.14,800,341.31Z" style="fill:red"/><path d="M287.24,374.8v-1.59h4.86v1.59Z" style="fill:red"/><path d="M293.23,374.8v-1.59h4.86v1.59Z" style="fill:red"/><path d="M299.23,374.8v-1.59h4.86v1.59Z" style="fill:red"/><path d="M366.3,31.4l1.23.31A4.14,4.14,0,0,1,366.14,34a3.84,3.84,0,0,1-2.46.8,4.42,4.42,0,0,1-2.45-.61,3.82,3.82,0,0,1-1.43-1.77,6.33,6.33,0,0,1-.49-2.5,5.48,5.48,0,0,1,.56-2.54,3.81,3.81,0,0,1,1.58-1.64,4.62,4.62,0,0,1,2.26-.56,3.82,3.82,0,0,1,2.35.71,3.69,3.69,0,0,1,1.33,2l-1.21.29a2.88,2.88,0,0,0-.94-1.48,2.5,2.5,0,0,0-1.55-.46,3,3,0,0,0-1.79.51,2.72,2.72,0,0,0-1,1.38,5.57,5.57,0,0,0-.29,1.79,5.68,5.68,0,0,0,.35,2.07A2.59,2.59,0,0,0,362,33.33a3,3,0,0,0,1.58.44,2.65,2.65,0,0,0,1.75-.6A3.05,3.05,0,0,0,366.3,31.4Z" style="fill:red"/><path d="M369.07,34.67v-9.3h4.13a5.5,5.5,0,0,1,1.89.25,2.07,2.07,0,0,1,1,.89,2.64,2.64,0,0,1,.39,1.4,2.34,2.34,0,0,1-.64,1.67,3.24,3.24,0,0,1-2,.86,3.21,3.21,0,0,1,.74.46,6.4,6.4,0,0,1,1,1.24l1.62,2.53h-1.55l-1.23-1.94q-.54-.84-.89-1.28a2.82,2.82,0,0,0-.62-.62,1.83,1.83,0,0,0-.56-.25,3.73,3.73,0,0,0-.69,0H370.3v4.13Zm1.23-5.2h2.65a3.94,3.94,0,0,0,1.32-.17,1.41,1.41,0,0,0,.72-.56,1.52,1.52,0,0,0,.25-.83,1.38,1.38,0,0,0-.48-1.09,2.24,2.24,0,0,0-1.51-.43H370.3Z" style="fill:red"/><path d="M377.41,34.67l3.57-9.3h1.33l3.81,9.3h-1.4l-1.09-2.82h-3.89l-1,2.82Zm2.69-3.82h3.15l-1-2.58q-.45-1.17-.66-1.93a11.78,11.78,0,0,1-.5,1.78Z" style="fill:red"/><path d="M387.09,34.67v-9.3h1.26l4.89,7.31V25.36h1.18v9.3h-1.26l-4.89-7.31v7.31Z" style="fill:red"/><path d="M396.45,34.67v-9.3h1.23V30l4.62-4.61H404l-3.9,3.77,4.08,5.54h-1.62L399.2,30l-1.52,1.48v3.22Z" style="fill:red"/><path d="M408.73,34.67v-9.3H410v8.21h4.58v1.1Z" style="fill:red"/><path d="M416.22,34.67v-9.3h1.23v9.3Z" style="fill:red"/><path d="M419.61,34.67v-9.3h1.26l4.89,7.31V25.36h1.18v9.3h-1.26l-4.89-7.31v7.31Z" style="fill:red"/><path d="M429,34.67v-9.3h6.73v1.1h-5.5v2.85h5.15V30.4h-5.15v3.17H436v1.1Z" style="fill:red"/><path d="M359.91,54.67V46.46h-3.07v-1.1h7.38v1.1h-3.08v8.21Z" style="fill:red"/><path d="M364.86,46.67V45.36H366v1.31Zm0,8V47.93H366v6.74Z" style="fill:red"/><path d="M367.74,54.67V47.93h1v.95a2.4,2.4,0,0,1,.84-.8,2.37,2.37,0,0,1,1.2-.3,2.22,2.22,0,0,1,1.23.31,1.66,1.66,0,0,1,.68.87,2.42,2.42,0,0,1,2.08-1.18,2.05,2.05,0,0,1,1.54.55,2.38,2.38,0,0,1,.54,1.71v4.63h-1.14V50.42a3.15,3.15,0,0,0-.11-1,1,1,0,0,0-.4-.49,1.25,1.25,0,0,0-.69-.18,1.59,1.59,0,0,0-1.18.47,2.08,2.08,0,0,0-.47,1.51v3.92h-1.14V50.29a1.92,1.92,0,0,0-.28-1.14,1.06,1.06,0,0,0-.91-.38,1.65,1.65,0,0,0-.89.25,1.43,1.43,0,0,0-.59.74,4.17,4.17,0,0,0-.18,1.41v3.5Z" style="fill:red"/><path d="M383.19,52.5l1.18.15a2.88,2.88,0,0,1-1,1.61,3.51,3.51,0,0,1-4.27-.34,3.56,3.56,0,0,1-.87-2.55,3.72,3.72,0,0,1,.88-2.64,3,3,0,0,1,2.27-.94,2.88,2.88,0,0,1,2.21.92,3.66,3.66,0,0,1,.86,2.59c0,.07,0,.17,0,.3h-5a2.59,2.59,0,0,0,.63,1.7,1.87,1.87,0,0,0,1.41.59,1.75,1.75,0,0,0,1.07-.33A2.18,2.18,0,0,0,383.19,52.5Zm-3.75-1.85h3.76a2.28,2.28,0,0,0-.43-1.28,1.75,1.75,0,0,0-1.42-.66,1.82,1.82,0,0,0-1.32.53A2.09,2.09,0,0,0,379.44,50.65Z" style="fill:red"/><path d="M386.12,49.23v-1.3h1.3v1.3Zm0,5.44v-1.3h1.3v1.3Z" style="fill:red"/><path d="M397,54.67h-1.14V47.39a5.85,5.85,0,0,1-1.08.79,7.7,7.7,0,0,1-1.2.59V47.66a6.85,6.85,0,0,0,1.68-1.09,4.27,4.27,0,0,0,1-1.24H397Z" style="fill:red"/><path d="M403.6,54.67V52.44h-4v-1l4.25-6h.93v6H406v1h-1.26v2.23Zm0-3.28V47.2l-2.91,4.2Z" style="fill:red"/><path d="M407.8,49.23v-1.3h1.3v1.3Zm0,5.44v-1.3h1.3v1.3Z" style="fill:red"/><path d="M414.44,54.67V52.44h-4v-1l4.25-6h.93v6h1.26v1h-1.26v2.23Zm0-3.28V47.2l-2.91,4.2Z" style="fill:red"/><path d="M419.77,49.62a2.14,2.14,0,0,1-1.05-.74,1.94,1.94,0,0,1-.34-1.15A2.26,2.26,0,0,1,419.1,46a3.07,3.07,0,0,1,3.9,0,2.29,2.29,0,0,1,.74,1.72,1.91,1.91,0,0,1-.34,1.13,2.14,2.14,0,0,1-1,.74,2.5,2.5,0,0,1,1.3.9,2.47,2.47,0,0,1,.45,1.49,2.67,2.67,0,0,1-.84,2,3.44,3.44,0,0,1-4.44,0,2.72,2.72,0,0,1-.84-2,2.45,2.45,0,0,1,.46-1.52A2.3,2.3,0,0,1,419.77,49.62Zm-.6,2.36a2.07,2.07,0,0,0,.23.95,1.64,1.64,0,0,0,.69.71,2,2,0,0,0,1,.25,1.84,1.84,0,0,0,1.35-.53A1.81,1.81,0,0,0,423,52a1.83,1.83,0,0,0-.55-1.37,1.88,1.88,0,0,0-1.37-.54A1.82,1.82,0,0,0,419.17,52Zm.37-4.3a1.45,1.45,0,0,0,.42,1.08,1.51,1.51,0,0,0,1.11.42,1.48,1.48,0,0,0,1.08-.42,1.37,1.37,0,0,0,.42-1,1.42,1.42,0,0,0-.43-1.06,1.48,1.48,0,0,0-1.08-.43,1.5,1.5,0,0,0-1.08.42A1.35,1.35,0,0,0,419.54,47.68Z" style="fill:red"/><path d="M425.88,49.23v-1.3h1.3v1.3Zm0,5.44v-1.3h1.3v1.3Z" style="fill:red"/><path d="M428.86,52.21l1.14-.15a2.52,2.52,0,0,0,.67,1.4,1.66,1.66,0,0,0,1.15.43,1.85,1.85,0,0,0,1.36-.56,1.88,1.88,0,0,0,.56-1.38,1.76,1.76,0,0,0-.51-1.3,1.78,1.78,0,0,0-1.31-.51,3.27,3.27,0,0,0-.81.13l.13-1h.18a2.35,2.35,0,0,0,1.31-.38,1.3,1.3,0,0,0,.58-1.17,1.39,1.39,0,0,0-.42-1,1.52,1.52,0,0,0-1.1-.41,1.56,1.56,0,0,0-1.11.42,2.1,2.1,0,0,0-.57,1.26l-1.14-.2a2.93,2.93,0,0,1,1-1.78,2.75,2.75,0,0,1,1.85-.63,3,3,0,0,1,1.4.33,2.36,2.36,0,0,1,1,.89,2.29,2.29,0,0,1,.34,1.2,2,2,0,0,1-.32,1.1,2.22,2.22,0,0,1-1,.79,2.16,2.16,0,0,1,1.28.79,2.41,2.41,0,0,1,.46,1.5,2.75,2.75,0,0,1-.89,2.07,3.13,3.13,0,0,1-2.25.85,2.92,2.92,0,0,1-2-.73A2.82,2.82,0,0,1,428.86,52.21Z" style="fill:red"/><path d="M436.25,52.51l1.1-.1a1.92,1.92,0,0,0,.53,1.12,1.46,1.46,0,0,0,1,.35,1.75,1.75,0,0,0,.92-.24,2,2,0,0,0,.65-.64,3.79,3.79,0,0,0,.42-1.09,5.74,5.74,0,0,0,.17-1.4q0-.08,0-.23a2.63,2.63,0,0,1-.94.88,2.55,2.55,0,0,1-1.29.34,2.6,2.6,0,0,1-2-.84,3.07,3.07,0,0,1-.8-2.21,3.15,3.15,0,0,1,.83-2.28,2.79,2.79,0,0,1,2.09-.86,3,3,0,0,1,1.66.49,3,3,0,0,1,1.14,1.39,6.87,6.87,0,0,1,.39,2.62,8.49,8.49,0,0,1-.39,2.84,3.34,3.34,0,0,1-1.15,1.61,3,3,0,0,1-1.79.55,2.46,2.46,0,0,1-2.62-2.31Zm4.68-4.11a2.24,2.24,0,0,0-.52-1.56,1.64,1.64,0,0,0-1.26-.58,1.74,1.74,0,0,0-1.33.62,2.31,2.31,0,0,0-.57,1.61,2,2,0,0,0,.54,1.44,1.77,1.77,0,0,0,1.32.55,1.69,1.69,0,0,0,1.3-.55A2.18,2.18,0,0,0,440.93,48.41Z" style="fill:red"/><rect y="289" width="812" height="168"/><path d="M287.24,382.8v-1.59h4.86v1.59Z" style="fill:red"/><path d="M293.23,382.8v-1.59h4.86v1.59Z" style="fill:red"/><path d="M299.23,382.8v-1.59h4.86v1.59Z" style="fill:red"/><path d="M287.54,411.39a7,7,0,0,1,1.72-5,5.86,5.86,0,0,1,4.45-1.82,6.17,6.17,0,0,1,3.22.85,5.57,5.57,0,0,1,2.18,2.38,7.72,7.72,0,0,1,.75,3.46,7.59,7.59,0,0,1-.79,3.51,5.4,5.4,0,0,1-2.24,2.34,6.4,6.4,0,0,1-3.13.8,6.09,6.09,0,0,1-3.25-.88,5.66,5.66,0,0,1-2.17-2.4A7.27,7.27,0,0,1,287.54,411.39Zm1.76,0a5.16,5.16,0,0,0,1.25,3.67,4.37,4.37,0,0,0,6.31,0,5.48,5.48,0,0,0,1.24-3.84,6.6,6.6,0,0,0-.53-2.75,4.09,4.09,0,0,0-1.56-1.82,4.22,4.22,0,0,0-2.3-.65,4.36,4.36,0,0,0-3.12,1.24Q289.29,408.51,289.29,411.42Z" style="fill:red"/><path d="M302.06,417.67V404.78h4.86a11.75,11.75,0,0,1,2,.12,3.88,3.88,0,0,1,1.59.6,3.16,3.16,0,0,1,1,1.24,4.2,4.2,0,0,1-.65,4.54q-1,1.14-3.78,1.14h-3.3v5.24Zm1.71-6.76h3.33a3.54,3.54,0,0,0,2.35-.62,2.19,2.19,0,0,0,.69-1.73,2.33,2.33,0,0,0-.41-1.38,1.91,1.91,0,0,0-1.08-.76,7.31,7.31,0,0,0-1.59-.11h-3.29Z" style="fill:red"/><path d="M319.38,417.67H317.8V407.59a8.17,8.17,0,0,1-1.5,1.09,10.61,10.61,0,0,1-1.67.82V408a9.55,9.55,0,0,0,2.32-1.51,6,6,0,0,0,1.41-1.72h1Z" style="fill:red"/><path d="M323.43,411.31a11.8,11.8,0,0,1,.47-3.68,4.58,4.58,0,0,1,1.4-2.15,3.57,3.57,0,0,1,2.33-.76,3.8,3.8,0,0,1,1.82.42,3.48,3.48,0,0,1,1.29,1.2,6.46,6.46,0,0,1,.8,1.92,12.73,12.73,0,0,1,.29,3,11.82,11.82,0,0,1-.47,3.66,4.58,4.58,0,0,1-1.39,2.15,3.92,3.92,0,0,1-5.27-.58Q323.43,414.94,323.43,411.31Zm1.63,0q0,3.17.74,4.22a2.12,2.12,0,0,0,3.67,0q.74-1.05.74-4.22t-.74-4.23a2.2,2.2,0,0,0-1.85-1,2,2,0,0,0-1.74.92Q325.06,408.14,325.06,411.31Z" style="fill:red"/><path d="M333.44,411.31a11.79,11.79,0,0,1,.47-3.68,4.58,4.58,0,0,1,1.4-2.15,3.57,3.57,0,0,1,2.33-.76,3.81,3.81,0,0,1,1.82.42,3.48,3.48,0,0,1,1.29,1.2,6.46,6.46,0,0,1,.8,1.92,12.74,12.74,0,0,1,.29,3,11.82,11.82,0,0,1-.46,3.66,4.58,4.58,0,0,1-1.39,2.15,3.57,3.57,0,0,1-2.34.76,3.53,3.53,0,0,1-2.93-1.34Q333.44,414.94,333.44,411.31Zm1.63,0q0,3.17.74,4.22a2.12,2.12,0,0,0,3.67,0q.74-1.05.74-4.22t-.74-4.23a2.2,2.2,0,0,0-1.85-1,2,2,0,0,0-1.74.92Q335.07,408.14,335.07,411.31Z" style="fill:red"/><path d="M343.28,413.8v-1.59h4.86v1.59Z" style="fill:red"/><path d="M350,417.67V404.78h1.71v11.37h6.35v1.52Z" style="fill:red"/><path d="M360,417.67V404.78h4.83a6,6,0,0,1,2.37.39,3,3,0,0,1,1.4,1.2,3.18,3.18,0,0,1,.51,1.7,2.92,2.92,0,0,1-.45,1.55,3.2,3.2,0,0,1-1.35,1.18,3.37,3.37,0,0,1,1.8,1.17,3.13,3.13,0,0,1,.63,2,3.76,3.76,0,0,1-.38,1.68,3.26,3.26,0,0,1-.94,1.2,4,4,0,0,1-1.41.64,8.59,8.59,0,0,1-2.08.21Zm1.71-7.47h2.79a6.24,6.24,0,0,0,1.63-.15,1.81,1.81,0,0,0,1-.64,1.85,1.85,0,0,0,.33-1.12,2.07,2.07,0,0,0-.31-1.13,1.56,1.56,0,0,0-.88-.67,7.35,7.35,0,0,0-2-.18h-2.57Zm0,6h3.21a7.35,7.35,0,0,0,1.16-.06,2.78,2.78,0,0,0,1-.35,1.87,1.87,0,0,0,.65-.72,2.24,2.24,0,0,0,.26-1.08,2.14,2.14,0,0,0-.37-1.25,2,2,0,0,0-1-.75,6.35,6.35,0,0,0-1.89-.21h-3Z" style="fill:red"/><path d="M371.29,413.8v-1.59h4.86v1.59Z" style="fill:red"/><path d="M383.42,417.67h-1.58V407.59a8.17,8.17,0,0,1-1.5,1.09,10.61,10.61,0,0,1-1.67.82V408a9.55,9.55,0,0,0,2.32-1.51,6,6,0,0,0,1.41-1.72h1Z" style="fill:red"/><path d="M387.47,411.31a11.8,11.8,0,0,1,.47-3.68,4.58,4.58,0,0,1,1.4-2.15,3.57,3.57,0,0,1,2.33-.76,3.8,3.8,0,0,1,1.82.42,3.48,3.48,0,0,1,1.29,1.2,6.46,6.46,0,0,1,.8,1.92,12.73,12.73,0,0,1,.29,3,11.82,11.82,0,0,1-.47,3.66,4.58,4.58,0,0,1-1.39,2.15,3.92,3.92,0,0,1-5.27-.58Q387.47,414.94,387.47,411.31Zm1.63,0q0,3.17.74,4.22a2.12,2.12,0,0,0,3.67,0q.74-1.05.74-4.22t-.74-4.23a2.2,2.2,0,0,0-1.85-1,2,2,0,0,0-1.74.92Q389.09,408.14,389.09,411.31Z" style="fill:red"/><path d="M397.48,411.31a11.79,11.79,0,0,1,.47-3.68,4.58,4.58,0,0,1,1.4-2.15,3.57,3.57,0,0,1,2.33-.76,3.81,3.81,0,0,1,1.82.42,3.48,3.48,0,0,1,1.29,1.2,6.46,6.46,0,0,1,.8,1.92,12.74,12.74,0,0,1,.29,3,11.82,11.82,0,0,1-.46,3.66,4.58,4.58,0,0,1-1.39,2.15,3.57,3.57,0,0,1-2.34.76,3.53,3.53,0,0,1-2.93-1.34Q397.48,414.94,397.48,411.31Zm1.63,0q0,3.17.74,4.22a2.12,2.12,0,0,0,3.67,0q.74-1.05.74-4.22t-.74-4.23a2.2,2.2,0,0,0-1.85-1,2,2,0,0,0-1.74.92Q399.1,408.14,399.11,411.31Z" style="fill:red"/><path d="M406.47,421.24V420.1H417v1.14Z" style="fill:red"/><path d="M417.61,406.47v-1.52h8.34v1.23a17.58,17.58,0,0,0-2.44,3.48,21.2,21.2,0,0,0-1.87,4.46,16.58,16.58,0,0,0-.61,3.54h-1.62A15.79,15.79,0,0,1,420,414a19.29,19.29,0,0,1,1.64-4.15,17.81,17.81,0,0,1,2.27-3.37Z" style="fill:red"/><path d="M427.51,411.31a11.8,11.8,0,0,1,.47-3.68,4.58,4.58,0,0,1,1.4-2.15,3.57,3.57,0,0,1,2.33-.76,3.8,3.8,0,0,1,1.82.42,3.48,3.48,0,0,1,1.29,1.2,6.46,6.46,0,0,1,.8,1.92,12.73,12.73,0,0,1,.29,3,11.82,11.82,0,0,1-.47,3.66,4.58,4.58,0,0,1-1.39,2.15,3.92,3.92,0,0,1-5.27-.58Q427.51,414.94,427.51,411.31Zm1.63,0q0,3.17.74,4.22a2.12,2.12,0,0,0,3.67,0q.74-1.05.74-4.22t-.74-4.23a2.2,2.2,0,0,0-1.85-1A2,2,0,0,0,430,407Q429.14,408.14,429.14,411.31Z" style="fill:red"/><path d="M437.52,411.31a11.79,11.79,0,0,1,.47-3.68,4.58,4.58,0,0,1,1.4-2.15,3.57,3.57,0,0,1,2.33-.76,3.81,3.81,0,0,1,1.82.42,3.48,3.48,0,0,1,1.29,1.2,6.46,6.46,0,0,1,.8,1.92,12.74,12.74,0,0,1,.29,3,11.82,11.82,0,0,1-.46,3.66,4.58,4.58,0,0,1-1.39,2.15,3.57,3.57,0,0,1-2.34.76,3.53,3.53,0,0,1-2.93-1.34Q437.52,414.94,437.52,411.31Zm1.63,0q0,3.17.74,4.22a2.12,2.12,0,0,0,3.67,0q.74-1.05.74-4.22t-.74-4.23a2.2,2.2,0,0,0-1.85-1A2,2,0,0,0,440,407Q439.15,408.14,439.15,411.31Z" style="fill:red"/><path d="M446.51,421.24V420.1H457v1.14Z" style="fill:red"/><path d="M465.86,416.15v1.52h-8.52a2.79,2.79,0,0,1,.18-1.1,5.82,5.82,0,0,1,1-1.71,16.31,16.31,0,0,1,2.07-2,17.57,17.57,0,0,0,2.84-2.73,3.27,3.27,0,0,0,.74-1.9,2.12,2.12,0,0,0-.67-1.59,2.42,2.42,0,0,0-1.75-.65,2.47,2.47,0,0,0-1.83.69,2.59,2.59,0,0,0-.7,1.9l-1.62-.17a4,4,0,0,1,1.26-2.77,4.29,4.29,0,0,1,2.93-1,4.08,4.08,0,0,1,2.94,1,3.38,3.38,0,0,1,1.08,2.55,3.86,3.86,0,0,1-.32,1.52,5.9,5.9,0,0,1-1,1.57,25.57,25.57,0,0,1-2.44,2.27q-1.42,1.2-1.83,1.62a5.2,5.2,0,0,0-.67.86Z" style="fill:red"/><path d="M475.87,416.15v1.52h-8.52a2.79,2.79,0,0,1,.19-1.1,5.81,5.81,0,0,1,1-1.71,16.33,16.33,0,0,1,2.07-2,17.53,17.53,0,0,0,2.84-2.73,3.27,3.27,0,0,0,.74-1.9,2.11,2.11,0,0,0-.67-1.59,2.43,2.43,0,0,0-1.75-.65,2.47,2.47,0,0,0-1.83.69,2.59,2.59,0,0,0-.69,1.9l-1.63-.17a4,4,0,0,1,1.26-2.77,4.28,4.28,0,0,1,2.93-1,4.08,4.08,0,0,1,2.94,1,3.38,3.38,0,0,1,1.08,2.55,3.86,3.86,0,0,1-.32,1.52,5.91,5.91,0,0,1-1.05,1.57,25.61,25.61,0,0,1-2.44,2.27q-1.42,1.2-1.83,1.62a5.2,5.2,0,0,0-.67.86Z" style="fill:red"/><path d="M477.67,406.47v-1.52H486v1.23a17.58,17.58,0,0,0-2.44,3.48,21.2,21.2,0,0,0-1.87,4.46,16.58,16.58,0,0,0-.61,3.54h-1.62a15.79,15.79,0,0,1,.6-3.67,19.29,19.29,0,0,1,1.64-4.15,17.81,17.81,0,0,1,2.27-3.37Z" style="fill:red"/><path d="M486.56,421.24V420.1H497v1.14Z" style="fill:red"/><path d="M498.21,417.67V404.78H500l6.77,10.12V404.78h1.63v12.88h-1.75l-6.77-10.12v10.13Z" style="fill:red"/><path d="M520.42,413.15l1.71.43a5.74,5.74,0,0,1-1.93,3.2,5.31,5.31,0,0,1-3.41,1.1,6.12,6.12,0,0,1-3.39-.85,5.29,5.29,0,0,1-2-2.46,8.77,8.77,0,0,1-.68-3.46,7.59,7.59,0,0,1,.77-3.51,5.27,5.27,0,0,1,2.19-2.28,6.39,6.39,0,0,1,3.12-.78,5.28,5.28,0,0,1,3.25,1,5.11,5.11,0,0,1,1.84,2.77l-1.68.4a4,4,0,0,0-1.3-2,3.47,3.47,0,0,0-2.14-.64,4.16,4.16,0,0,0-2.48.71,3.76,3.76,0,0,0-1.4,1.91,7.7,7.7,0,0,0-.4,2.47A7.86,7.86,0,0,0,513,414a3.57,3.57,0,0,0,1.49,1.83,4.18,4.18,0,0,0,2.19.61,3.67,3.67,0,0,0,2.43-.83A4.23,4.23,0,0,0,520.42,413.15Z" style="fill:red"/><path d="M524.16,417.67V404.78h1.71v6.39l6.4-6.39h2.31l-5.4,5.22,5.64,7.66h-2.25L528,411.14l-2.11,2.06v4.46Z" style="fill:red"/><path d="M538.82,417.67l4.95-12.88h1.84l5.27,12.88h-1.94l-1.5-3.9h-5.39l-1.42,3.9Zm3.72-5.29h4.37l-1.34-3.57q-.62-1.63-.91-2.67a16.43,16.43,0,0,1-.7,2.46Z" style="fill:red"/><path d="M552,417.67V404.78h1.58v12.88Z" style="fill:red"/><path d="M562.13,416.52a5.89,5.89,0,0,1-1.69,1.05,4.89,4.89,0,0,1-1.74.31,3.4,3.4,0,0,1-2.37-.75,2.48,2.48,0,0,1-.83-1.92,2.55,2.55,0,0,1,.31-1.25,2.58,2.58,0,0,1,.82-.91,3.84,3.84,0,0,1,1.14-.52,11.27,11.27,0,0,1,1.41-.24,14.47,14.47,0,0,0,2.82-.54c0-.22,0-.35,0-.41a1.75,1.75,0,0,0-.45-1.36,2.65,2.65,0,0,0-1.8-.54,2.79,2.79,0,0,0-1.65.39,2.39,2.39,0,0,0-.79,1.38l-1.55-.21a3.83,3.83,0,0,1,.69-1.6,3,3,0,0,1,1.4-.94,6.23,6.23,0,0,1,2.12-.33,5.61,5.61,0,0,1,1.94.28,2.56,2.56,0,0,1,1.1.71,2.49,2.49,0,0,1,.49,1.08,8.88,8.88,0,0,1,.08,1.46v2.11a22.42,22.42,0,0,0,.1,2.79,3.52,3.52,0,0,0,.4,1.12h-1.65A3.35,3.35,0,0,1,562.13,416.52ZM562,413a11.61,11.61,0,0,1-2.58.6,6,6,0,0,0-1.38.32,1.37,1.37,0,0,0-.62.51,1.4,1.4,0,0,0,.26,1.81,2.06,2.06,0,0,0,1.4.42,3.27,3.27,0,0,0,1.63-.4,2.46,2.46,0,0,0,1-1.09,3.82,3.82,0,0,0,.26-1.58Z" style="fill:red"/><path d="M566,417.67v-9.33h1.42v1.42a3.87,3.87,0,0,1,1-1.31,1.76,1.76,0,0,1,1-.32,3.09,3.09,0,0,1,1.63.51l-.54,1.47a2.27,2.27,0,0,0-1.16-.34,1.51,1.51,0,0,0-.93.31,1.69,1.69,0,0,0-.59.87,6.16,6.16,0,0,0-.26,1.85v4.89Z" style="fill:red"/><path d="M572,417.67v-9.33h1.42v1.31a3.33,3.33,0,0,1,1.17-1.1,3.29,3.29,0,0,1,1.66-.42,3.07,3.07,0,0,1,1.7.43,2.3,2.3,0,0,1,.94,1.2,3.35,3.35,0,0,1,2.88-1.63,2.84,2.84,0,0,1,2.13.77,3.29,3.29,0,0,1,.75,2.37v6.41h-1.57v-5.88a4.34,4.34,0,0,0-.15-1.37,1.32,1.32,0,0,0-.56-.67,1.74,1.74,0,0,0-.95-.26,2.21,2.21,0,0,0-1.63.66,2.89,2.89,0,0,0-.65,2.1v5.42h-1.58V411.6a2.67,2.67,0,0,0-.39-1.58,1.46,1.46,0,0,0-1.27-.53,2.3,2.3,0,0,0-1.24.35,2,2,0,0,0-.82,1,5.78,5.78,0,0,0-.26,2v4.84Z" style="fill:red"/><path d="M592,421.24V408.33h1.44v1.21a3.55,3.55,0,0,1,1.15-1.07,3.17,3.17,0,0,1,1.56-.36,3.69,3.69,0,0,1,2.11.62,3.78,3.78,0,0,1,1.38,1.74,6.34,6.34,0,0,1,.47,2.46,6.24,6.24,0,0,1-.51,2.58,3.91,3.91,0,0,1-3.56,2.37,3,3,0,0,1-1.42-.33,3.23,3.23,0,0,1-1-.84v4.54Zm1.43-8.19a4.06,4.06,0,0,0,.73,2.66,2.24,2.24,0,0,0,1.77.86,2.29,2.29,0,0,0,1.81-.89,4.23,4.23,0,0,0,.75-2.76,4.12,4.12,0,0,0-.73-2.67,2.21,2.21,0,0,0-1.75-.89,2.28,2.28,0,0,0-1.79.94A4.23,4.23,0,0,0,593.47,413.05Z" style="fill:red"/><path d="M602,417.67v-9.33h1.42v1.42a3.87,3.87,0,0,1,1-1.31,1.76,1.76,0,0,1,1-.32,3.09,3.09,0,0,1,1.63.51l-.54,1.47a2.27,2.27,0,0,0-1.16-.34,1.51,1.51,0,0,0-.93.31,1.69,1.69,0,0,0-.59.87,6.16,6.16,0,0,0-.26,1.85v4.89Z" style="fill:red"/><path d="M614.44,414.66l1.63.2a4,4,0,0,1-1.43,2.22,4.85,4.85,0,0,1-5.92-.47,4.93,4.93,0,0,1-1.2-3.54,5.16,5.16,0,0,1,1.21-3.66,4.11,4.11,0,0,1,3.15-1.3,4,4,0,0,1,3.06,1.28,5.06,5.06,0,0,1,1.19,3.59c0,.09,0,.23,0,.42h-7a3.59,3.59,0,0,0,.87,2.36,2.59,2.59,0,0,0,2,.82,2.42,2.42,0,0,0,1.48-.46A3,3,0,0,0,614.44,414.66Zm-5.2-2.56h5.21a3.17,3.17,0,0,0-.6-1.77,2.43,2.43,0,0,0-2-.91,2.51,2.51,0,0,0-1.83.73A2.89,2.89,0,0,0,609.24,412.1Z" style="fill:red"/><path d="M617.43,414.88l1.56-.25a2.19,2.19,0,0,0,.73,1.44,2.56,2.56,0,0,0,1.68.5,2.47,2.47,0,0,0,1.62-.44,1.33,1.33,0,0,0,.53-1,1,1,0,0,0-.46-.84,6.85,6.85,0,0,0-1.62-.54,14.78,14.78,0,0,1-2.41-.76,2.3,2.3,0,0,1-1.37-2.14,2.4,2.4,0,0,1,.29-1.16,2.56,2.56,0,0,1,.78-.88,3.26,3.26,0,0,1,1-.46,4.78,4.78,0,0,1,1.37-.19,5.41,5.41,0,0,1,1.93.32,2.63,2.63,0,0,1,1.23.86,3.35,3.35,0,0,1,.54,1.45l-1.55.21a1.69,1.69,0,0,0-.61-1.12,2.23,2.23,0,0,0-1.43-.4,2.59,2.59,0,0,0-1.56.36,1,1,0,0,0-.46.84.87.87,0,0,0,.19.55,1.39,1.39,0,0,0,.61.42q.24.09,1.4.4a19.42,19.42,0,0,1,2.34.73,2.37,2.37,0,0,1,1,.83,2.32,2.32,0,0,1,.38,1.35,2.66,2.66,0,0,1-.46,1.49,3,3,0,0,1-1.33,1.08,4.85,4.85,0,0,1-2,.38,4.39,4.39,0,0,1-2.77-.76A3.51,3.51,0,0,1,617.43,414.88Z" style="fill:red"/><path d="M633.45,414.66l1.63.2a4,4,0,0,1-1.43,2.22,4.85,4.85,0,0,1-5.92-.47,4.93,4.93,0,0,1-1.2-3.54,5.16,5.16,0,0,1,1.21-3.66,4.11,4.11,0,0,1,3.15-1.3,4,4,0,0,1,3.06,1.28,5.06,5.06,0,0,1,1.19,3.59c0,.09,0,.23,0,.42h-7a3.59,3.59,0,0,0,.87,2.36,2.59,2.59,0,0,0,2,.82,2.42,2.42,0,0,0,1.49-.46A3,3,0,0,0,633.45,414.66Zm-5.19-2.56h5.21a3.17,3.17,0,0,0-.6-1.77,2.42,2.42,0,0,0-2-.91,2.52,2.52,0,0,0-1.83.73A2.89,2.89,0,0,0,628.25,412.1Z" style="fill:red"/><path d="M637.07,417.67v-9.33h1.42v1.33a3.36,3.36,0,0,1,3-1.54,3.9,3.9,0,0,1,1.55.3,2.44,2.44,0,0,1,1.06.8,3,3,0,0,1,.49,1.17,9.07,9.07,0,0,1,.09,1.54v5.74h-1.58V412a4.25,4.25,0,0,0-.19-1.45,1.52,1.52,0,0,0-.65-.76,2.08,2.08,0,0,0-1.1-.29,2.56,2.56,0,0,0-1.74.64,3.16,3.16,0,0,0-.73,2.43v5.1Z" style="fill:red"/><path d="M650.53,416.25l.23,1.4a5.87,5.87,0,0,1-1.2.14,2.71,2.71,0,0,1-1.34-.27,1.53,1.53,0,0,1-.67-.72,5.66,5.66,0,0,1-.19-1.87v-5.37h-1.16v-1.23h1.16V406l1.57-.95v3.26h1.59v1.23h-1.59V415a2.75,2.75,0,0,0,.08.87.66.66,0,0,0,.27.31,1.06,1.06,0,0,0,.54.11A5.11,5.11,0,0,0,650.53,416.25Z" style="fill:red"/><path d="M652.53,417.67v-1.8h1.8v1.8Z" style="fill:red"/><path d="M661.77,411.39a7,7,0,0,1,1.72-5,5.86,5.86,0,0,1,4.45-1.82,6.17,6.17,0,0,1,3.22.85,5.57,5.57,0,0,1,2.18,2.38,7.72,7.72,0,0,1,.75,3.46,7.59,7.59,0,0,1-.79,3.51,5.4,5.4,0,0,1-2.24,2.34,6.4,6.4,0,0,1-3.13.8,6.09,6.09,0,0,1-3.25-.88,5.66,5.66,0,0,1-2.17-2.4A7.27,7.27,0,0,1,661.77,411.39Zm1.76,0a5.16,5.16,0,0,0,1.25,3.67,4.37,4.37,0,0,0,6.31,0,5.48,5.48,0,0,0,1.24-3.84,6.6,6.6,0,0,0-.53-2.75,4.09,4.09,0,0,0-1.56-1.82,4.22,4.22,0,0,0-2.3-.65,4.36,4.36,0,0,0-3.12,1.24Q663.52,408.51,663.52,411.42Z" style="fill:red"/><path d="M676.29,417.67V404.78h4.86a11.72,11.72,0,0,1,2,.12,3.89,3.89,0,0,1,1.59.6,3.16,3.16,0,0,1,1,1.24,4.19,4.19,0,0,1-.66,4.54q-1,1.14-3.78,1.14H678v5.24Zm1.71-6.76h3.33a3.53,3.53,0,0,0,2.35-.62,2.19,2.19,0,0,0,.7-1.73,2.33,2.33,0,0,0-.41-1.38,1.91,1.91,0,0,0-1.08-.76,7.29,7.29,0,0,0-1.59-.11H678Z" style="fill:red"/><path d="M693.61,417.67H692V407.59a8.18,8.18,0,0,1-1.5,1.09,10.61,10.61,0,0,1-1.67.82V408a9.55,9.55,0,0,0,2.32-1.51,6,6,0,0,0,1.41-1.72h1Z" style="fill:red"/><path d="M702.28,417.67H700.7V407.59a8.17,8.17,0,0,1-1.5,1.09,10.61,10.61,0,0,1-1.67.82V408a9.55,9.55,0,0,0,2.32-1.51,6,6,0,0,0,1.41-1.72h1Z" style="fill:red"/><path d="M706.34,411.31a11.8,11.8,0,0,1,.47-3.68,4.58,4.58,0,0,1,1.4-2.15,3.57,3.57,0,0,1,2.33-.76,3.8,3.8,0,0,1,1.82.42,3.48,3.48,0,0,1,1.29,1.2,6.46,6.46,0,0,1,.8,1.92,12.73,12.73,0,0,1,.29,3,11.82,11.82,0,0,1-.47,3.66,4.58,4.58,0,0,1-1.39,2.15,3.92,3.92,0,0,1-5.27-.58Q706.33,414.94,706.34,411.31Zm1.63,0q0,3.17.74,4.22a2.12,2.12,0,0,0,3.67,0q.74-1.05.74-4.22t-.74-4.23a2.2,2.2,0,0,0-1.85-1,2,2,0,0,0-1.74.92Q708,408.14,708,411.31Z" style="fill:red"/><path d="M716.17,413.8v-1.59H721v1.59Z" style="fill:red"/><path d="M722.91,417.67V404.78h1.71v11.37H731v1.52Z" style="fill:red"/><path d="M732.18,413.8v-1.59H737v1.59Z" style="fill:red"/><path d="M744.3,417.67h-1.58V407.59a8.18,8.18,0,0,1-1.5,1.09,10.61,10.61,0,0,1-1.67.82V408a9.55,9.55,0,0,0,2.32-1.51,6,6,0,0,0,1.41-1.72h1Z" style="fill:red"/><path d="M748.36,411.31a11.79,11.79,0,0,1,.47-3.68,4.58,4.58,0,0,1,1.4-2.15,3.57,3.57,0,0,1,2.33-.76,3.81,3.81,0,0,1,1.82.42,3.48,3.48,0,0,1,1.29,1.2,6.46,6.46,0,0,1,.8,1.92,12.74,12.74,0,0,1,.29,3,11.82,11.82,0,0,1-.46,3.66,4.58,4.58,0,0,1-1.39,2.15,3.57,3.57,0,0,1-2.34.76,3.53,3.53,0,0,1-2.93-1.34Q748.36,414.94,748.36,411.31Zm1.63,0q0,3.17.74,4.22a2.12,2.12,0,0,0,3.67,0q.74-1.05.74-4.22t-.74-4.23a2.2,2.2,0,0,0-1.85-1,2,2,0,0,0-1.74.92Q750,408.14,750,411.31Z" style="fill:red"/><path d="M758.37,411.31a11.8,11.8,0,0,1,.47-3.68,4.58,4.58,0,0,1,1.4-2.15,3.57,3.57,0,0,1,2.33-.76,3.8,3.8,0,0,1,1.82.42,3.48,3.48,0,0,1,1.29,1.2,6.46,6.46,0,0,1,.8,1.92,12.73,12.73,0,0,1,.29,3,11.82,11.82,0,0,1-.47,3.66,4.58,4.58,0,0,1-1.39,2.15,3.92,3.92,0,0,1-5.27-.58Q758.37,414.94,758.37,411.31Zm1.63,0q0,3.17.74,4.22a2.12,2.12,0,0,0,3.67,0q.74-1.05.74-4.22t-.74-4.23a2.2,2.2,0,0,0-1.85-1,2,2,0,0,0-1.74.92Q760,408.14,760,411.31Z" style="fill:red"/><path d="M767.36,421.24V420.1h10.49v1.14Z" style="fill:red"/><path d="M778.49,406.47v-1.52h8.34v1.23a17.58,17.58,0,0,0-2.44,3.48,21.2,21.2,0,0,0-1.87,4.46,16.59,16.59,0,0,0-.61,3.54h-1.63a15.79,15.79,0,0,1,.6-3.67,19.29,19.29,0,0,1,1.64-4.15,17.81,17.81,0,0,1,2.27-3.37Z" style="fill:red"/><path d="M788.4,411.31a11.79,11.79,0,0,1,.47-3.68,4.58,4.58,0,0,1,1.4-2.15,3.57,3.57,0,0,1,2.33-.76,3.81,3.81,0,0,1,1.82.42,3.48,3.48,0,0,1,1.29,1.2,6.46,6.46,0,0,1,.8,1.92,12.74,12.74,0,0,1,.29,3,11.82,11.82,0,0,1-.46,3.66,4.58,4.58,0,0,1-1.39,2.15,3.57,3.57,0,0,1-2.34.76,3.53,3.53,0,0,1-2.93-1.34Q788.4,414.94,788.4,411.31Zm1.63,0q0,3.17.74,4.22a2.12,2.12,0,0,0,3.67,0q.74-1.05.74-4.22t-.74-4.23a2.2,2.2,0,0,0-1.85-1,2,2,0,0,0-1.74.92Q790,408.14,790,411.31Z" style="fill:red"/><path d="M798.41,411.31a11.8,11.8,0,0,1,.47-3.68,4.58,4.58,0,0,1,1.4-2.15,3.57,3.57,0,0,1,2.33-.76,3.8,3.8,0,0,1,1.82.42,3.48,3.48,0,0,1,1.29,1.2,6.46,6.46,0,0,1,.8,1.92,12.73,12.73,0,0,1,.29,3,11.82,11.82,0,0,1-.47,3.66,4.58,4.58,0,0,1-1.39,2.15,3.92,3.92,0,0,1-5.27-.58Q798.41,414.94,798.41,411.31Zm1.63,0q0,3.17.74,4.22a2.12,2.12,0,0,0,3.67,0q.74-1.05.74-4.22t-.74-4.23a2.2,2.2,0,0,0-1.85-1,2,2,0,0,0-1.74.92Q800,408.14,800,411.31Z" style="fill:red"/><path d="M287.24,444.8v-1.59h4.86v1.59Z" style="fill:red"/><path d="M293.23,444.8v-1.59h4.86v1.59Z" style="fill:red"/><path d="M299.23,444.8v-1.59h4.86v1.59Z" style="fill:red"/></svg>