<?xml version="1.0" encoding="utf-8"?>
<!-- Generator: Adobe Illustrator 21.1.0, SVG Export Plug-In . SVG Version: 6.00 Build 0)  -->
<svg version="1.1" xmlns="http://www.w3.org/2000/svg" xmlns:xlink="http://www.w3.org/1999/xlink" x="0px" y="0px"
	 viewBox="0 0 160 160" style="enable-background:new 0 0 160 160;" xml:space="preserve">
<style type="text/css">
	.st0{display:none;}
	.st1{display:inline;fill:#1E1E1E;}
	.st2{fill:#FFFFFF;}
</style>
<g id="Color" class="st0">
	<rect x="0" class="st1" width="160" height="160"/>
</g>
<g id="circle">
	<path class="st2" d="M80,2c43,0,78,35,78,78s-35,78-78,78S2,123,2,80S37,2,80,2 M80,0C35.8,0,0,35.8,0,80s35.8,80,80,80
		s80-35.8,80-80S124.2,0,80,0L80,0z"/>
</g>
<g id="Cost">
	<g>
		<path class="st2" d="M42,49c-17.1,0-31,13.9-31,31c0,17.1,13.9,31,31,31s31-13.9,31-31C73,62.9,59.1,49,42,49z M42,109
			c-16,0-29-13-29-29c0-16,13-29,29-29s29,13,29,29C71,96,58,109,42,109z"/>
		<path class="st2" d="M56.8,65.2c-8.2-8.2-21.5-8.2-29.7,0c-8.2,8.2-8.2,21.5,0,29.7c4.1,4.1,9.5,6.1,14.8,6.1s10.8-2,14.8-6.1
			C65,86.7,65,73.3,56.8,65.2z M60.4,84.5L52.9,80l7.5-4.5C61.1,78.5,61.1,81.5,60.4,84.5z M23.6,75.5l7.5,4.5l-7.5,4.5
			C22.9,81.5,22.9,78.5,23.6,75.5z M36,79.4c0,0.2,0,0.4,0,0.6s0,0.4,0,0.6l0,0L34.9,80L36,79.4L36,79.4z M38,80c0-2.2,1.8-4,4-4
			s4,1.8,4,4c0,2.2-1.8,4-4,4S38,82.2,38,80z M48,80.6c0-0.2,0-0.4,0-0.6s0-0.4,0-0.6l0,0l1.1,0.7L48,80.6L48,80.6z M48.5,77.3
			l0.7-2.9l10-2.5c0.2,0.5,0.5,1,0.6,1.6L51,78.8L48.5,77.3z M46.7,76.2L46.7,76.2c-0.3-0.3-0.6-0.6-0.9-0.9l0,0L47,75L46.7,76.2z
			 M44.7,73.5L43.2,71l5.3-8.8c0.5,0.2,1.1,0.4,1.6,0.6l-2.5,10L44.7,73.5z M42.7,74L42.7,74c-0.2,0-0.4,0-0.7,0s-0.4,0-0.6,0l0,0
			l0.7-1.1L42.7,74z M39.3,73.5l-2.9-0.7l-2.5-10c0.5-0.2,1-0.5,1.6-0.6l5.3,8.8L39.3,73.5z M38.2,75.3L38.2,75.3
			c-0.3,0.3-0.6,0.6-0.9,0.9l0,0L37,75L38.2,75.3z M35.5,77.3L33,78.8l-8.8-5.3c0.2-0.5,0.4-1.1,0.6-1.6l10,2.5L35.5,77.3z M33,81.2
			l2.5,1.5l-0.7,2.9l-10,2.5c-0.2-0.5-0.5-1-0.6-1.6L33,81.2z M37.3,83.8L37.3,83.8c0.3,0.3,0.6,0.6,0.9,0.9l0,0L37,85L37.3,83.8z
			 M39.3,86.5l1.5,2.5l-5.3,8.8c-0.5-0.2-1.1-0.4-1.6-0.6l2.5-10L39.3,86.5z M41.3,86L41.3,86c0.2,0,0.4,0,0.7,0s0.4,0,0.6,0l0,0
			L42,87.1L41.3,86z M44.7,86.5l2.9,0.7l2.5,10c-0.5,0.2-1,0.5-1.6,0.6L43.2,89L44.7,86.5z M45.8,84.7L45.8,84.7
			c0.3-0.3,0.6-0.6,0.9-0.9l0,0L47,85L45.8,84.7z M48.5,82.7l2.5-1.5l8.8,5.3c-0.2,0.5-0.4,1.1-0.6,1.6l-10-2.5L48.5,82.7z
			 M58.2,70.1l-8.5,2.1l2.1-8.5c1.3,0.8,2.5,1.7,3.6,2.8S57.4,68.9,58.2,70.1z M46.5,61.6L42,69.1l-4.5-7.5c1.5-0.4,3-0.6,4.5-0.6
			S45,61.2,46.5,61.6z M28.6,66.6c1.1-1.1,2.3-2,3.6-2.8l2.1,8.5l-8.5-2.1C26.6,68.9,27.5,67.7,28.6,66.6z M25.8,89.9l8.5-2.1
			l-2.1,8.5c-1.3-0.8-2.5-1.7-3.6-2.8C27.5,92.3,26.6,91.1,25.8,89.9z M37.5,98.4l4.5-7.5l4.5,7.5C43.5,99.1,40.5,99.1,37.5,98.4z
			 M55.4,93.4c-1.1,1.1-2.3,2-3.6,2.8l-2.1-8.5l8.5,2.1C57.4,91.1,56.5,92.3,55.4,93.4z"/>
	</g>
	<g>
		<g>
			<path class="st2" d="M120,84.2L120,84.2L120,84.2 M133.9,84.6c0.1,0.1,0.1,0.3,0.3,0.7l0.1,0.4c0.8,2.8,1.4,4.9,1.4,11.4
				c0,6.6-0.7,9.2-1.4,11.8c-0.1,0.2-0.1,0.4-1,0.8c-1.4,0.6-3.3,0.9-5.8,0.9c-4,0-6-0.5-7-0.9c-0.4-0.2-1.3-0.5-1.5-0.8
				c-0.3-1.1-0.1-2.3,0.2-4.2c0.3-1.9,0.7-4.3,0.7-7.6c0-2-0.1-3.9-0.2-5.6c-0.2-2.8-0.4-5.3,0.2-6.8H133.9 M134.1,82.6h-14.4
				c-1.2,0-1.4,0.4-1.6,1.1c-1.2,2.9-0.2,7.6-0.2,13.4c0,6.6-1.7,9.3-0.9,12.3c0.3,1.1,1.6,1.7,2.7,2.1c2,0.8,4.9,1,7.8,1
				c2.8,0,5-0.4,6.6-1c1.1-0.5,1.8-1,2.1-2.1c0.8-3,1.5-5.8,1.5-12.3c0-7.1-0.7-9.2-1.6-12.3C135.7,83.6,135.2,82.6,134.1,82.6
				L134.1,82.6z"/>
			<path class="st2" d="M134.1,82.6h-14.4c-1.2,0-1.4,0.4-1.6,1.1c2-0.1,4.6-0.2,7.1-0.2c4.8,0,9.6,0.3,10.9,1.3
				C135.7,83.6,135.2,82.6,134.1,82.6L134.1,82.6z"/>
			<path class="st2" d="M119.5,86.5c2.2,1.8,4.1,6,4.1,11c0,1.8-0.7,3.6-1.3,5.3c-0.8,2.1-1.8,4.7-0.9,7.1c-0.4-0.1-0.7-0.2-1-0.3
				c-0.4-0.2-1.3-0.5-1.5-0.8c-0.3-1.1-0.1-2.3,0.2-4.2c0.3-1.9,0.7-4.3,0.7-7.6c0-2-0.1-3.9-0.2-5.6
				C119.5,89.6,119.4,87.9,119.5,86.5 M118,83.6c-1.2,2.9-0.2,7.6-0.2,13.4c0,6.6-1.7,9.3-0.9,12.3c0.3,1.1,1.6,1.7,2.7,2.1
				c2,0.8,4.9,1,7.8,1c-8.8-3.6-1.9-8.4-1.9-15C125.6,90.5,122.1,84.5,118,83.6L118,83.6z"/>
		</g>
		<path class="st2" d="M129.3,71.4v9.2h-4.8v-9.2H129.3 M131.3,69.4h-8.8v13.2h8.8V69.4L131.3,69.4z"/>
		<path class="st2" d="M113.2,53.5v3.9h-0.1L113.2,53.5L113.2,53.5 M115.2,51.5h-4.1v7.9h4.1V51.5L115.2,51.5z"/>
		<path class="st2" d="M139,50.1v10.8h-0.1L139,50.1L139,50.1 M140,48.1h-3v14.8h3c0.6,0,1-0.5,1-1v-0.3v0V49.5v-0.3
			C141,48.6,140.5,48.1,140,48.1L140,48.1z"/>
		<path class="st2" d="M134.9,43.7C134.9,43.7,134.9,43.7,134.9,43.7l0.1,23.6c0,0,0,0.1-0.1,0.1h-16c0,0-0.1,0-0.1-0.1V43.7
			c0,0,0-0.1,0.1-0.1H134.9 M134.9,41.7h-16c-1.1,0-2.1,0.9-2.1,2.1v23.6c0,1.1,0.9,2.1,2.1,2.1h16c1.1,0,2.1-0.9,2.1-2.1V43.7
			C136.9,42.6,136,41.7,134.9,41.7L134.9,41.7z"/>
		<path class="st2" d="M118.9,41.7c-1.1,0-2.1,0.9-2.1,2.1v23.6c0,1.1,0.9,2.1,2.1,2.1V41.7L118.9,41.7z"/>
		<path class="st2" d="M134.9,41.7v27.7c1.1,0,2.1-0.9,2.1-2.1V43.7C136.9,42.6,136,41.7,134.9,41.7L134.9,41.7z"/>
		<path class="st2" d="M117.3,45.6L117.3,45.6L117.3,45.6 M116.8,43.7c-0.9,0-1.6,1.3-1.6,2.2v19.2c0,0.9,0.8,2.2,1.6,2.2V43.7
			L116.8,43.7z"/>
		<path class="st2" d="M109.1,49.1v12.8h-1.7V49.1H109.1 M105.4,45.6v19.8c0-1.2,0.5-1.5,1-1.5h3.6c0.6,0,1-0.5,1-1V48.1
			c0-0.6-0.5-1-1-1h-3.6C105.9,47.1,105.4,46.7,105.4,45.6L105.4,45.6z"/>
		<path class="st2" d="M110.1,47.1v16.8c0.6,0,1-0.5,1-1V48.1C111.1,47.6,110.6,47.1,110.1,47.1L110.1,47.1z"/>
		<path class="st2" d="M103.4,46.6v17.9H87.9c-0.4-0.3-0.8-0.5-1.3-0.5h-0.8c-0.5,0-1,0.2-1.3,0.5H83V46.6h1.4
			c0.4,0.3,0.8,0.5,1.3,0.5h0.8c0.5,0,1-0.2,1.3-0.5H103.4 M104.4,44.6H87.2l-0.6,0.5h-0.8l-0.6-0.5H82c-0.6,0-1,0.5-1,1v19.8
			c0,0.6,0.5,1,1,1h3.2l0.6-0.5h0.8l0.6,0.5h17.2c0.6,0,1-0.5,1-1V45.6C105.4,45,104.9,44.6,104.4,44.6L104.4,44.6z"/>
		<path class="st2" d="M104.4,44.6v21.9c0.6,0,1-0.5,1-1V45.6C105.4,45,104.9,44.6,104.4,44.6L104.4,44.6z"/>
		<path class="st2" d="M82,44.6c-0.6,0-1,0.5-1,1v19.8c0,0.6,0.5,1,1,1V44.6L82,44.6z"/>
		<polygon class="st2" points="85.2,44.6 85.2,66.5 85.8,66 85.8,45.1 85.2,44.6 		"/>
		<polygon class="st2" points="87.2,44.6 86.6,45.1 86.6,66 87.2,66.5 87.2,44.6 		"/>
		<polygon class="st2" points="86.6,45.1 85.8,45.1 85.8,66 86.6,66 86.6,45.1 		"/>
	</g>
</g>
</svg>
