<?xml version="1.0" encoding="utf-8"?>
<!-- Generator: Adobe Illustrator 21.1.0, SVG Export Plug-In . SVG Version: 6.00 Build 0)  -->
<svg version="1.1" xmlns="http://www.w3.org/2000/svg" xmlns:xlink="http://www.w3.org/1999/xlink" x="0px" y="0px"
	 viewBox="0 0 160 160" style="enable-background:new 0 0 160 160;" xml:space="preserve">
<style type="text/css">
	.st0{display:none;}
	.st1{display:inline;fill:#1E1E1E;}
	.st2{fill:#FFFFFF;}
</style>
<g id="Color" class="st0">
	<rect x="0" class="st1" width="160" height="160"/>
</g>
<g id="circle">
	<path class="st2" d="M80,2c43,0,78,35,78,78s-35,78-78,78S2,123,2,80S37,2,80,2 M80,0C35.8,0,0,35.8,0,80s35.8,80,80,80
		s80-35.8,80-80S124.2,0,80,0L80,0z"/>
</g>
<g id="Delivery">
	<g>
		<g>
			<path class="st2" d="M88,93H27V46h61V93z M29,91h57V48H29V91z"/>
		</g>
		<g>
			<path class="st2" d="M41,114c-5,0-9-4-9-9s4-9,9-9s9,4,9,9S46,114,41,114z M41,98c-3.9,0-7,3.1-7,7s3.1,7,7,7s7-3.1,7-7
				S44.9,98,41,98z"/>
		</g>
		<g>
			<path class="st2" d="M133,103h-10.2l-0.2-0.8c-1.3-5.4-6.1-9.2-11.7-9.2H91V50.8l31.7,5.3L133,78.8V103z M124.4,101h6.6V79.2
				l-9.7-21.3L93,53.2V91h18C117.2,91,122.6,95.1,124.4,101z"/>
		</g>
		<g>
			<path class="st2" d="M111,114c-5,0-9-4-9-9s4-9,9-9s9,4,9,9S116,114,111,114z M111,98c-3.9,0-7,3.1-7,7s3.1,7,7,7s7-3.1,7-7
				S114.9,98,111,98z"/>
		</g>
		<g>
			<rect x="53" y="104" class="st2" width="46" height="2"/>
		</g>
	</g>
</g>
</svg>
