<?xml version="1.0" encoding="utf-8"?>
<!-- Generator: Adobe Illustrator 21.1.0, SVG Export Plug-In . SVG Version: 6.00 Build 0)  -->
<svg version="1.1" xmlns="http://www.w3.org/2000/svg" xmlns:xlink="http://www.w3.org/1999/xlink" x="0px" y="0px"
	 viewBox="0 0 160 160" style="enable-background:new 0 0 160 160;" xml:space="preserve">
<style type="text/css">
	.st0{display:none;}
	.st1{display:inline;fill:#1E1E1E;}
	.st2{fill:#FFFFFF;}
</style>
<g id="Color" class="st0">
	<rect x="0" class="st1" width="160" height="160"/>
</g>
<g id="circle">
	<path class="st2" d="M80,2c43,0,78,35,78,78s-35,78-78,78S2,123,2,80S37,2,80,2 M80,0C35.8,0,0,35.8,0,80s35.8,80,80,80
		s80-35.8,80-80S124.2,0,80,0L80,0z"/>
</g>
<g id="Environment">
	<g>
		<path class="st2" d="M121.6,76c6-3.8,12.2-7.8,12.6-8.1l-1.1-1.7c-0.2,0.1-19.3,12.5-23.5,14.8c-2.1,1.1-5.5,3.6-9.1,6.3
			c-4,2.9-8.1,6-10.1,6.8c-6.2,2.7-15.2,3.6-18.9,1.8c-0.6-0.3-1-0.6-1.2-0.7c0.5-0.2,1.7-0.6,4.9-1c5.4-0.5,7.9-1.3,8.7-2.5
			c0.3-0.5,0.4-1,0.3-1.6c-0.2-0.5-0.6-1.3-2-1.8c-3.6-1.5-11.4-0.8-22.6,5.5c-0.7,0.4-1.1,0.5-1.3,0.5c0-0.2,0.2-0.6,0.4-0.8
			l-1.2-1.6c0,0,0,0,0,0h0c-1.4,1-1.6,1-1.9,0.7c-1.1-1,0.5-2.9,0.5-2.9l0.7-0.8l-0.7-0.5c0.2-0.6,1.2-1.9,2.4-2.9l2.9-2.5l-3.3,0.7
			c1-1.4,4.1-4.5,9.8-8.3c11.1-7.5,15.4-9.2,26.5-7.9c18.1,2.1,28.9-11.2,29.3-11.7l-1.6-1.2c-0.1,0.1-10.5,12.9-27.5,11
			c-5.2-0.6-9.1-0.5-12.7,0.4c-5.2-0.4-11.3,2.5-19.4,6.3l-1.2,0.5c-2.3,1.1-4.5,2.3-6.5,3.4H1v2h50.4c-1.5,1-3,1.9-4.4,2.8
			c-4.7,3.1-8.5,5.6-11.7,6c-0.8,0.1-3.3,0.5-3.4,2.3c-0.2,2.8,7.1,6.1,21.5,9.9c8.3,2.2,13,3.8,16.4,4.9c4.6,1.6,7.2,2.4,13.2,3
			c0.3,0,0.7,0,1.1,0c8,0,22.9-6.9,35-12.5c4.9-2.3,9.5-4.4,12.8-5.7c1.7-0.7,2.5-1.5,2.5-2.7c-0.1-2.5-5.3-4.8-15.9-8.1H159v-2
			H121.6z M132.5,86.2c0,0-0.1,0.3-1.2,0.7c-3.4,1.3-8,3.5-12.9,5.7c-12.4,5.8-27.9,13-35.1,12.3c-5.8-0.5-8.1-1.3-12.8-2.9
			c-3.5-1.2-8.2-2.8-16.5-5c-15.2-4-19.4-6.9-20-7.8c0.2-0.1,0.6-0.3,1.6-0.5c3.6-0.5,7.5-3.1,12.5-6.3c4-2.6,8.6-5.6,14-8.2
			l1.2-0.5c3.9-1.8,7.2-3.3,10.1-4.4c-2,1.2-4.2,2.6-6.7,4.2c-2,1.4-12.1,8.4-10.9,11.2c0,0.1,0.1,0.2,0.1,0.2
			c-0.9,1-1.9,2.3-1.9,3.4c0,0.2,0,0.3,0.1,0.5c-0.8,1.3-1.5,3.5,0.1,5.1c0.7,0.7,1.5,0.8,2.2,0.7c0,0.3,0.1,0.5,0.3,0.7
			c0.4,0.6,1.5,1.5,4,0.1c13.3-7.5,19.5-5.8,20.7-5.4c0.7,0.3,1,0.5,1,0.5c-0.1,0.2-0.9,1-7.3,1.7c-4.7,0.5-6.6,1.2-6.9,2.6
			c-0.2,1.3,1.2,2.2,2.5,2.9c1.5,0.8,3.8,1.1,6.5,1.1c4.4,0,9.8-1,14.1-2.9c2.1-0.9,6.2-3.9,10.5-7.1c3.4-2.5,6.9-5.1,8.9-6.2
			c1.1-0.6,3.2-1.9,5.7-3.4C124.3,81.8,132.3,84.6,132.5,86.2z"/>
		<rect x="10" y="116" class="st2" width="140" height="2"/>
		<path class="st2" d="M22,99c-5.5,0-10-4.5-10-10c0,5.5-4.5,10-10,10c5.5,0,10,4.5,10,10C12,103.5,16.5,99,22,99z"/>
		<path class="st2" d="M25,94c0-2.8,2.2-5,5-5c-2.8,0-5-2.2-5-5c0,2.8-2.2,5-5,5C22.8,89,25,91.2,25,94z"/>
		<polygon class="st2" points="133.7,97.3 133.7,104 139.3,101 137.3,97.3 		"/>
		<polygon class="st2" points="148.5,93.2 144.3,91 142.7,95.3 147.3,97.3 		"/>
		<polygon class="st2" points="145.6,106 148.5,104.7 145.6,101.3 142.7,104 		"/>
	</g>
</g>
</svg>
