<?xml version="1.0" encoding="utf-8"?>
<!-- Generator: Adobe Illustrator 18.1.1, SVG Export Plug-In . SVG Version: 6.00 Build 0)  -->
<svg version="1.1" id="Layer_1" xmlns="http://www.w3.org/2000/svg" xmlns:xlink="http://www.w3.org/1999/xlink" x="0px" y="0px"
	 viewBox="47.4 0 51.2 45.1" enable-background="new 47.4 0 51.2 45.1" xml:space="preserve">
<g id="Layer_2">
	<g>
		<path fill="#FFFFFF" d="M50.1,43.3C50.1,43.4,50.1,43.4,50.1,43.3c-0.1,0.1-0.1,0.1-0.2,0.1c-0.1,0-0.1,0-0.2,0
			c-0.1,0-0.1,0-0.2,0c-0.3,0-0.5-0.1-0.6-0.2c-0.1-0.1-0.2-0.3-0.2-0.6v-1.9c0-0.1,0-0.1-0.1-0.1h-0.4c-0.1,0-0.1,0-0.1-0.1v-0.1
			c0-0.1,0-0.1,0.1-0.1h0.4c0,0,0.1,0,0.1-0.1v-0.7c0-0.1,0-0.1,0.1-0.1H49c0.1,0,0.1,0,0.1,0.1v0.7c0,0,0,0.1,0.1,0.1H50
			c0.1,0,0.1,0,0.1,0.1v0.1c0,0.1,0,0.1-0.1,0.1h-0.8c0,0-0.1,0-0.1,0.1v1.9c0,0.2,0,0.3,0.1,0.4c0.1,0.1,0.2,0.1,0.3,0.1
			s0.1,0,0.2,0c0.1,0,0.1,0,0.1,0h0.1c0,0,0,0,0.1,0c0,0,0,0,0,0.1v0.1"/>
	</g>
	<path fill="#FFFFFF" d="M52.2,40.7C52.2,40.8,52.2,40.8,52.2,40.7C52.1,40.8,52.1,40.8,52.2,40.7c-0.1,0.1-0.1,0.1-0.2,0.1h-0.1
		c-0.1,0-0.1,0-0.2,0c-0.1,0-0.1,0-0.2,0c-0.1,0-0.1,0-0.2,0.1L51.2,41c0,0.1,0,0.1,0,0.2v2.2c0,0.1,0,0.1-0.1,0.1h-0.2
		c-0.1,0-0.1,0-0.1-0.1v-2.9c0-0.1,0-0.1,0.1-0.1h0.2c0.1,0,0.1,0,0.1,0.1v0.1l0,0h0.1c0.1,0,0.1-0.1,0.2-0.1c0.1,0,0.1-0.1,0.2-0.1
		c0.1,0,0.2,0,0.3,0s0.2,0,0.2,0s0,0,0,0.1L52.2,40.7"/>
	<g>
		<path fill="#FFFFFF" d="M55.1,43.4C55.1,43.5,55.1,43.5,55.1,43.4l-0.3,0.1c-0.1,0-0.1,0-0.1-0.1c0,0,0-0.1-0.1-0.1h-0.1
			c0,0-0.1,0-0.2,0.1c-0.1,0-0.1,0-0.2,0.1c-0.1,0-0.2,0-0.3,0c-0.2,0-0.3,0-0.5-0.1c-0.2,0-0.3-0.1-0.4-0.2c0-0.1-0.1-0.1-0.1-0.2
			c0-0.1-0.1-0.1-0.1-0.2c0-0.1,0-0.2,0-0.3s0-0.2,0-0.3v-1.7c0-0.1,0-0.1,0.1-0.1H53c0.1,0,0.1,0,0.1,0.1v1.9c0,0.1,0,0.2,0,0.3
			s0.1,0.2,0.1,0.2c0.1,0.1,0.1,0.1,0.3,0.1c0.1,0,0.2,0,0.4,0c0.1,0,0.1,0,0.2,0c0.1,0,0.2,0,0.2-0.1c0.1,0,0.2-0.1,0.2-0.1
			s0.1-0.1,0.1-0.2v-2.3c0-0.1,0-0.1,0.1-0.1H55c0.1,0,0.1,0,0.1,0.1V43.4"/>
		<path fill="#FFFFFF" d="M57.6,42.7c0,0.3-0.1,0.5-0.3,0.7c-0.2,0.1-0.4,0.2-0.8,0.2c-0.1,0-0.2,0-0.3,0s-0.2,0-0.3-0.1
			c-0.1,0-0.1-0.1-0.2-0.1v-0.1V43c0,0,0-0.1,0.1-0.1h0.1L56,43c0.1,0,0.1,0.1,0.2,0.1c0.1,0,0.2,0,0.3,0c0.2,0,0.4,0,0.5-0.1
			s0.1-0.2,0.1-0.4c0-0.1,0-0.2-0.1-0.3c0-0.1-0.1-0.2-0.3-0.3l-0.5-0.3c-0.2-0.1-0.3-0.2-0.3-0.3c-0.1-0.1-0.1-0.2-0.1-0.4
			s0.1-0.4,0.2-0.6c0.2-0.1,0.4-0.2,0.7-0.2c0.1,0,0.2,0,0.3,0s0.2,0,0.3,0.1c0.1,0,0.1,0,0.1,0.1v0.1v0.2c0,0,0,0.1-0.1,0.1h-0.1
			l-0.1-0.1c-0.1,0-0.1-0.1-0.2-0.1c-0.1,0-0.2,0-0.3,0c-0.2,0-0.3,0-0.4,0.1c-0.1,0.1-0.1,0.2-0.1,0.3s0,0.2,0.1,0.2
			c0,0.1,0.1,0.1,0.3,0.2l0.5,0.4c0.2,0.1,0.3,0.2,0.3,0.3C57.6,42.4,57.6,42.5,57.6,42.7"/>
		<path fill="#FFFFFF" d="M59.9,43.3C59.9,43.4,59.8,43.4,59.9,43.3c-0.1,0.1-0.1,0.1-0.2,0.1c-0.1,0-0.1,0-0.2,0
			c-0.1,0-0.1,0-0.2,0c-0.3,0-0.5-0.1-0.6-0.2c-0.1-0.1-0.2-0.3-0.2-0.6v-1.9c0-0.1,0-0.1-0.1-0.1H58c-0.1,0-0.1,0-0.1-0.1v-0.1
			c0-0.1,0-0.1,0.1-0.1h0.4c0,0,0.1,0,0.1-0.1v-0.7c0-0.1,0-0.1,0.1-0.1h0.2c0.1,0,0.1,0,0.1,0.1v0.7c0,0,0,0.1,0.1,0.1h0.8
			c0.1,0,0.1,0,0.1,0.1v0.1c0,0.1,0,0.1-0.1,0.1H59c0,0-0.1,0-0.1,0.1v1.9c0,0.2,0,0.3,0.1,0.4c0.1,0.1,0.2,0.1,0.3,0.1s0.1,0,0.2,0
			c0.1,0,0.1,0,0.1,0h0.1c0,0,0,0,0.1,0c0,0,0,0,0,0.1v0.1"/>
		<path fill="#FFFFFF" d="M62.9,41.9C62.9,42,62.9,42,62.9,41.9L60.8,42c-0.1,0-0.1,0-0.1,0.1c0,0.4,0.1,0.6,0.3,0.8
			s0.4,0.3,0.8,0.3c0.2,0,0.3,0,0.4,0c0.1,0,0.2,0,0.3-0.1c0.1,0,0.1-0.1,0.2-0.1h0.1c0,0,0.1,0,0.1,0.1v0.2v0.1c0,0,0,0-0.1,0.1
			c-0.3,0.1-0.6,0.2-0.9,0.2c-0.5,0-0.9-0.1-1.1-0.4c-0.2-0.3-0.3-0.7-0.3-1.2c0-0.3,0-0.5,0.1-0.7s0.2-0.4,0.3-0.5s0.3-0.2,0.4-0.3
			c0.2-0.1,0.4-0.1,0.6-0.1c0.2,0,0.3,0,0.5,0.1c0.1,0.1,0.3,0.1,0.4,0.3c0.1,0.1,0.2,0.3,0.3,0.4c0.1,0.2,0.1,0.4,0.1,0.6v0
			 M62.5,41.6c0-0.3-0.1-0.5-0.2-0.6c-0.2-0.1-0.4-0.2-0.6-0.2c-0.1,0-0.3,0-0.4,0.1C61.2,41,61.1,41,61,41.1
			c-0.1,0.1-0.1,0.2-0.2,0.3c0,0.1-0.1,0.2-0.1,0.3l0,0c0,0,0,0,0.1,0L62.5,41.6L62.5,41.6L62.5,41.6z"/>
		<path fill="#FFFFFF" d="M66.2,43.4C66.2,43.5,66.2,43.5,66.2,43.4l-0.3,0.1c-0.1,0-0.1,0-0.1-0.1c0,0,0,0-0.1,0h-0.1
			c0,0-0.1,0-0.2,0.1c-0.1,0-0.1,0-0.2,0.1c-0.1,0-0.2,0-0.3,0c-0.4,0-0.8-0.1-1-0.4c-0.2-0.3-0.4-0.6-0.4-1.1c0-0.3,0-0.5,0.1-0.7
			s0.2-0.4,0.3-0.5s0.3-0.2,0.5-0.3s0.4-0.1,0.6-0.1c0.1,0,0.2,0,0.3,0c0.1,0,0.2,0,0.2,0.1c0.1,0,0.1,0,0.1,0.1h0.1c0,0,0,0,0-0.1
			v-1.2c0-0.1,0-0.1,0.1-0.1H66c0.1,0,0.1,0,0.1,0.1v4 M65.8,41.1c0-0.1-0.1-0.2-0.2-0.3s-0.3-0.1-0.5-0.1c-0.4,0-0.6,0.1-0.8,0.3
			c-0.2,0.2-0.3,0.5-0.3,1c0,0.2,0,0.4,0.1,0.5c0,0.2,0.1,0.3,0.2,0.4c0.1,0.1,0.2,0.2,0.3,0.3c0.1,0.1,0.3,0.1,0.5,0.1
			s0.4,0,0.5-0.1s0.2-0.2,0.2-0.3C65.8,42.9,65.8,41.1,65.8,41.1z"/>
		<path fill="#FFFFFF" d="M70.3,43.3C70.3,43.4,70.2,43.4,70.3,43.3c-0.1,0.1-0.1,0.1-0.2,0.1s-0.1,0-0.2,0s-0.1,0-0.2,0
			c-0.3,0-0.5-0.1-0.6-0.2c-0.1-0.1-0.2-0.3-0.2-0.6v-1.9c0-0.1,0-0.1-0.1-0.1h-0.4c-0.1,0-0.1,0-0.1-0.1v-0.1c0-0.1,0-0.1,0.1-0.1
			h0.4c0,0,0.1,0,0.1-0.1v-0.7c0-0.1,0-0.1,0.1-0.1h0.2c0.1,0,0.1,0,0.1,0.1v0.7c0,0,0,0.1,0.1,0.1h0.8c0.1,0,0.1,0,0.1,0.1v0.1
			c0,0.1,0,0.1-0.1,0.1h-0.8c0,0-0.1,0-0.1,0.1v1.9c0,0.2,0,0.3,0.1,0.4c0.1,0.1,0.2,0.1,0.3,0.1c0.1,0,0.1,0,0.2,0s0.1,0,0.1,0h0.1
			c0,0,0,0,0.1,0c0,0,0,0,0,0.1L70.3,43.3"/>
		<path fill="#FFFFFF" d="M73.6,41.9c0,0.2,0,0.5-0.1,0.6c-0.1,0.2-0.1,0.4-0.3,0.5c-0.1,0.1-0.3,0.2-0.4,0.3
			c-0.2,0.1-0.4,0.1-0.6,0.1c-0.5,0-0.8-0.1-1-0.4c-0.2-0.3-0.4-0.7-0.4-1.2c0-0.2,0-0.4,0.1-0.6c0.1-0.2,0.1-0.4,0.3-0.5
			c0.1-0.1,0.3-0.2,0.4-0.3c0.2-0.1,0.4-0.1,0.6-0.1c0.5,0,0.8,0.1,1.1,0.4C73.4,41.1,73.6,41.5,73.6,41.9 M73.1,41.9
			c0-0.2,0-0.4-0.1-0.6c-0.1-0.2-0.1-0.3-0.2-0.4c-0.1-0.1-0.2-0.2-0.3-0.2c-0.1,0-0.3-0.1-0.4-0.1s-0.3,0-0.4,0.1
			c-0.1,0-0.2,0.1-0.3,0.2c-0.1,0.1-0.2,0.2-0.2,0.4s-0.1,0.4-0.1,0.6c0,0.4,0.1,0.7,0.3,0.9c0.2,0.2,0.4,0.3,0.7,0.3
			c0.1,0,0.3,0,0.4-0.1c0.1,0,0.2-0.1,0.3-0.2c0.1-0.1,0.2-0.2,0.2-0.4C73.1,42.3,73.1,42.2,73.1,41.9z"/>
		<path fill="#FFFFFF" d="M78.4,43.4C78.4,43.5,78.4,43.5,78.4,43.4l-0.3,0.1c-0.1,0-0.1,0-0.1-0.1c0,0,0,0-0.1,0h-0.1
			c0,0-0.1,0-0.2,0.1c-0.1,0-0.1,0-0.2,0.1c-0.1,0-0.2,0-0.3,0c-0.4,0-0.8-0.1-1-0.4s-0.4-0.6-0.4-1.1c0-0.3,0-0.5,0.1-0.7
			s0.2-0.4,0.3-0.5c0.1-0.1,0.3-0.2,0.5-0.3s0.4-0.1,0.6-0.1c0.1,0,0.2,0,0.3,0c0.1,0,0.2,0,0.2,0.1c0.1,0,0.1,0,0.1,0.1h0.1
			c0,0,0,0,0-0.1v-1.2c0-0.1,0-0.1,0.1-0.1h0.2c0.1,0,0.1,0,0.1,0.1v4 M78,41.1c0-0.1-0.1-0.2-0.2-0.3s-0.3-0.1-0.5-0.1
			c-0.4,0-0.6,0.1-0.8,0.3c-0.2,0.2-0.3,0.5-0.3,1c0,0.2,0,0.4,0.1,0.5s0.1,0.3,0.2,0.4c0.1,0.1,0.2,0.2,0.3,0.3
			c0.1,0.1,0.3,0.1,0.5,0.1s0.4,0,0.5-0.1S78,43,78,42.9C78,42.9,78,41.1,78,41.1z"/>
		<path fill="#FFFFFF" d="M81.8,41.9C81.8,42,81.8,42,81.8,41.9L79.7,42c-0.1,0-0.1,0-0.1,0.1c0,0.4,0.1,0.6,0.3,0.8
			c0.2,0.2,0.4,0.3,0.8,0.3c0.2,0,0.3,0,0.4,0s0.2,0,0.3-0.1c0.1,0,0.1-0.1,0.2-0.1h0.1c0,0,0.1,0,0.1,0.1v0.2v0.1c0,0,0,0-0.1,0.1
			c-0.3,0.1-0.6,0.2-0.9,0.2c-0.5,0-0.9-0.1-1.1-0.4c-0.2-0.3-0.3-0.7-0.3-1.2c0-0.3,0-0.5,0.1-0.7s0.2-0.4,0.3-0.5
			c0.1-0.1,0.3-0.2,0.4-0.3c0.2-0.1,0.4-0.1,0.6-0.1s0.3,0,0.5,0.1c0.1,0.1,0.3,0.1,0.4,0.3c0.1,0.1,0.2,0.3,0.3,0.4
			c0.1,0.2,0.1,0.4,0.1,0.6v0 M81.4,41.6c0-0.3-0.1-0.5-0.2-0.6c-0.2-0.1-0.4-0.2-0.6-0.2c-0.1,0-0.3,0-0.4,0.1S80,41,79.9,41.1
			c-0.1,0.1-0.1,0.2-0.2,0.3c0,0.1-0.1,0.2-0.1,0.3l0,0c0,0,0,0,0.1,0L81.4,41.6C81.3,41.6,81.3,41.6,81.4,41.6L81.4,41.6z"/>
	</g>
	<path fill="#FFFFFF" d="M83,43.4C83,43.5,83,43.5,83,43.4l-0.3,0.1c-0.1,0-0.1,0-0.1-0.1v-4.1c0-0.1,0-0.1,0.1-0.1H83
		c0.1,0,0.1,0,0.1,0.1L83,43.4"/>
	<path fill="#FFFFFF" d="M84.6,39.4c0,0.1,0,0.2-0.1,0.2s-0.1,0.1-0.2,0.1s-0.2,0-0.2-0.1S84,39.5,84,39.4s0-0.2,0.1-0.2
		s0.1-0.1,0.2-0.1s0.2,0,0.2,0.1C84.5,39.3,84.6,39.3,84.6,39.4 M84.5,43.4C84.5,43.5,84.4,43.5,84.5,43.4l-0.3,0.1
		c-0.1,0-0.1,0-0.1-0.1v-2.9c0-0.1,0-0.1,0.1-0.1h0.2c0.1,0,0.1,0,0.1,0.1C84.5,40.5,84.5,43.4,84.5,43.4z"/>
	<g>
		<path fill="#FFFFFF" d="M87.8,40.5L87.8,40.5l-1,2.9c0,0.1-0.1,0.1-0.1,0.1h-0.1h-0.3h-0.1c0,0,0-0.1-0.1-0.2l-1-2.8
			c0-0.1,0-0.1,0-0.1s0-0.1,0.1-0.1h0.3c0.1,0,0.1,0,0.1,0.1l0.9,2.5c0,0.1,0,0.1,0.1,0.1c0,0,0,0,0.1-0.1l0.9-2.5
			c0,0,0-0.1,0.1-0.1L87.8,40.5C87.8,40.4,87.8,40.4,87.8,40.5"/>
		<path fill="#FFFFFF" d="M90.7,41.9C90.7,42,90.7,42,90.7,41.9L88.6,42c-0.1,0-0.1,0-0.1,0.1c0,0.4,0.1,0.6,0.3,0.8
			c0.2,0.2,0.4,0.3,0.8,0.3c0.2,0,0.3,0,0.4,0s0.2,0,0.3-0.1c0.1,0,0.1-0.1,0.2-0.1h0.1c0,0,0.1,0,0.1,0.1v0.2v0.1c0,0,0,0-0.1,0.1
			c-0.3,0.1-0.6,0.2-0.9,0.2c-0.5,0-0.9-0.1-1.1-0.4c-0.2-0.3-0.3-0.7-0.3-1.2c0-0.3,0-0.5,0.1-0.7s0.2-0.4,0.3-0.5
			c0.1-0.1,0.3-0.2,0.4-0.3c0.2-0.1,0.4-0.1,0.6-0.1s0.3,0,0.5,0.1c0.1,0.1,0.3,0.1,0.4,0.3c0.1,0.1,0.2,0.3,0.3,0.4
			c0.1,0.2,0.1,0.4,0.1,0.6v0 M90.3,41.6c0-0.3-0.1-0.5-0.2-0.6c-0.2-0.1-0.4-0.2-0.6-0.2c-0.1,0-0.3,0-0.4,0.1s-0.2,0.1-0.3,0.2
			c-0.1,0.1-0.1,0.2-0.2,0.3c0,0.1-0.1,0.2-0.1,0.3l0,0c0,0,0,0,0.1,0L90.3,41.6L90.3,41.6L90.3,41.6z"/>
	</g>
	<path fill="#FFFFFF" d="M93,40.7C93,40.8,93,40.8,93,40.7C92.9,40.8,92.9,40.8,93,40.7c-0.1,0.1-0.1,0.1-0.2,0.1h-0.1
		c-0.1,0-0.1,0-0.2,0s-0.1,0-0.2,0s-0.1,0-0.2,0.1L92,41c0,0.1,0,0.1,0,0.2v2.2c0,0.1,0,0.1-0.1,0.1h-0.2c-0.1,0-0.1,0-0.1-0.1v-2.9
		c0-0.1,0-0.1,0.1-0.1h0.2c0.1,0,0.1,0,0.1,0.1v0.1l0,0h0.1c0.1,0,0.1-0.1,0.2-0.1s0.1-0.1,0.2-0.1s0.2,0,0.3,0c0.1,0,0.2,0,0.2,0
		s0,0,0,0.1L93,40.7"/>
	<path fill="#FFFFFF" d="M94.3,38.9C94.3,38.9,94.2,39,94.3,38.9h-0.5l0,0v1.4l0,0h-0.1l0,0V39l0,0h-0.4l0,0l0,0l0,0L94.3,38.9
		C94.2,38.8,94.3,38.8,94.3,38.9L94.3,38.9"/>
	<g>
		<path fill="#FFFFFF" d="M96,40.4C96,40.5,96,40.5,96,40.4L96,40.4L96,40.4l-0.1-1.3l0,0l0,0l-0.5,1.2c0,0,0,0,0,0.1l0,0h-0.1l0,0
			c0,0,0,0,0-0.1l-0.5-1.2l0,0l0,0l0,0v1.3l0,0h-0.1l0,0v-1.6l0,0h0.1l0,0l0,0l0.5,1.4l0,0l0,0l0.5-1.4l0,0l0,0H96l0,0V40.4"/>
	</g>
</g>
<g id="Layer_1_1_">
	<g>
		<path fill="#FFFFFF" d="M60.6,0c0,0,19.7,7.3,24.7,25.9c0-0.2-14,16.4-24.3,5.2C61.1,31.1,53.5,24.5,60.6,0"/>
		<g display="none">
			<g display="inline">
				<g>
					<path fill="#FFFFFF" d="M49.5,44.8C49.5,44.8,49.4,44.8,49.5,44.8c-0.1,0.1-0.2,0.1-0.2,0.2s-0.1,0-0.2,0c-0.1,0-0.2,0-0.2,0
						c-0.3,0-0.6-0.1-0.7-0.2C48,44.7,48,44.4,48,44.2v-2c0-0.1,0-0.1-0.1-0.1h-0.4c-0.1,0-0.1,0-0.1-0.1v-0.2c0-0.1,0-0.1,0.1-0.1
						h0.4c0,0,0.1,0,0.1-0.1v-0.7c0-0.1,0-0.1,0.1-0.1h0.2c0.1,0,0.1,0,0.1,0.1v0.7c0,0,0,0.1,0.1,0.1h0.9c0.1,0,0.1,0,0.1,0.1V42
						c0,0.1,0,0.1-0.1,0.1h-0.9c0,0-0.1,0-0.1,0.1v2c0,0.2,0,0.3,0.1,0.4s0.2,0.1,0.4,0.1c0.1,0,0.2,0,0.2,0c0.1,0,0.1,0,0.2,0h0.1
						C49.4,44.7,49.4,44.7,49.5,44.8C49.5,44.7,49.5,44.7,49.5,44.8L49.5,44.8"/>
				</g>
			</g>
			<path display="inline" fill="#FFFFFF" d="M51.8,42C51.8,42.1,51.7,42.1,51.8,42C51.7,42.1,51.7,42.1,51.8,42
				c-0.1,0.1-0.1,0.1-0.2,0.1h-0.1c-0.1,0-0.1,0-0.2,0S51,42,51,42c-0.1,0-0.1,0-0.2,0.1c0,0-0.1,0.1-0.1,0.2c0,0.1,0,0.2,0,0.2v2.3
				c0,0.1,0,0.1-0.1,0.1h-0.2c-0.1,0-0.1,0-0.1-0.1v-3.1c0-0.1,0-0.1,0.1-0.1h0.2c0.1,0,0.1,0,0.1,0.1v0.1l0,0c0,0,0.1,0,0.2,0
				c0.1,0,0.1-0.1,0.2-0.1c0.1,0,0.2-0.1,0.2-0.1c0.1,0,0.2,0,0.3,0s0.2,0,0.2,0s0,0,0,0.1L51.8,42"/>
			<g display="inline">
				<g>
					<path fill="#FFFFFF" d="M54.8,44.9C54.8,45,54.8,45,54.8,44.9L54.5,45c-0.1,0-0.1,0-0.1-0.1c0,0,0-0.1-0.1-0.1s-0.1,0-0.2,0
						c0,0-0.1,0-0.2,0.1c-0.1,0-0.2,0-0.3,0.1c-0.1,0-0.2,0-0.3,0c-0.2,0-0.4,0-0.5-0.1c-0.2,0-0.3-0.1-0.4-0.3
						c0-0.1-0.1-0.1-0.1-0.2c0-0.1-0.1-0.2-0.1-0.2c0-0.1,0-0.2,0-0.3s0-0.2,0-0.4v-1.8c0-0.1,0-0.1,0.1-0.1h0.2
						c0.1,0,0.1,0,0.1,0.1v2.1c0,0.2,0,0.3,0,0.4c0,0.1,0.1,0.2,0.2,0.3c0.1,0.1,0.2,0.1,0.3,0.2c0.1,0,0.3,0,0.4,0
						c0.1,0,0.2,0,0.2,0c0.1,0,0.2,0,0.2-0.1c0.1,0,0.2-0.1,0.2-0.1s0.1-0.1,0.1-0.2v-2.5c0-0.1,0-0.1,0.1-0.1h0.3
						c0.1,0,0.1,0,0.1,0.1L54.8,44.9"/>
				</g>
				<g>
					<path fill="#FFFFFF" d="M57.5,44.1c0,0.3-0.1,0.5-0.3,0.7S56.7,45,56.4,45c-0.1,0-0.3,0-0.3,0c-0.1,0-0.2,0-0.3-0.1
						c-0.1,0-0.2-0.1-0.2-0.1v-0.1v-0.3c0,0,0-0.1,0.1-0.1h0.1l0.1,0.1c0.1,0,0.1,0.1,0.2,0.1c0.1,0,0.2,0,0.3,0
						c0.2,0,0.4,0,0.5-0.1s0.2-0.2,0.2-0.4c0-0.1,0-0.2-0.1-0.3s-0.2-0.2-0.3-0.3L56.1,43c-0.2-0.1-0.3-0.2-0.4-0.4
						c-0.1-0.1-0.1-0.2-0.1-0.4c0-0.3,0.1-0.5,0.3-0.6c0.2-0.2,0.4-0.2,0.8-0.2c0.1,0,0.3,0,0.3,0c0.1,0,0.2,0,0.3,0.1
						c0.1,0,0.1,0,0.1,0.1v0.1v0.2c0,0,0,0.1-0.1,0.1h-0.1c0,0-0.1-0.1-0.2-0.1s0,0.2,0,0.2c-0.1,0-0.2,0-0.3,0
						c-0.2,0-0.3,0-0.5,0.1c-0.1,0.1-0.1,0.2-0.1,0.3s0,0.2,0.1,0.3c0,0.1,0.2,0.2,0.3,0.3l0.6,0.4c0.2,0.1,0.3,0.2,0.4,0.4
						C57.5,43.8,57.5,43.9,57.5,44.1"/>
				</g>
				<g>
					<path fill="#FFFFFF" d="M59.9,44.8L59.9,44.8c-0.1,0.1-0.2,0.1-0.2,0.2s-0.1,0-0.2,0c-0.1,0-0.2,0-0.2,0
						c-0.3,0-0.6-0.1-0.7-0.2c-0.1-0.2-0.2-0.4-0.2-0.6v-2c0-0.1,0-0.1-0.1-0.1H58c-0.1,0-0.1,0-0.1-0.1v-0.2c0-0.1,0-0.1,0.1-0.1
						h0.4c0,0,0.1,0,0.1-0.1v-0.7c0-0.1,0-0.1,0.1-0.1h0.2c0.1,0,0.1,0,0.1,0.1v0.7c0,0,0,0.1,0.1,0.1h0.9c0.1,0,0.1,0,0.1,0.1V42
						c0,0.1,0,0.1-0.1,0.1H59c0,0-0.1,0-0.1,0.1v2c0,0.2,0,0.3,0.1,0.4c0.1,0.1,0.2,0.1,0.4,0.1c0.1,0,0.2,0,0.2,0
						c0.1,0,0.1,0,0.2,0L59.9,44.8C59.9,44.7,59.9,44.7,59.9,44.8C60,44.7,60,44.7,59.9,44.8L59.9,44.8"/>
				</g>
				<g>
					<path fill="#FFFFFF" d="M63.2,43.2C63.2,43.3,63.2,43.3,63.2,43.2L61,43.3c-0.1,0-0.1,0-0.1,0.1c0,0.4,0.1,0.7,0.3,0.9
						s0.5,0.3,0.8,0.3c0.2,0,0.3,0,0.4,0c0.1,0,0.2,0,0.3-0.1c0.1,0,0.1-0.1,0.2-0.1H63c0,0,0.1,0,0.1,0.1v0.2v0.1c0,0,0,0-0.1,0.1
						c-0.3,0.1-0.6,0.2-1,0.2c-0.5,0-0.9-0.2-1.2-0.4c-0.3-0.3-0.4-0.7-0.4-1.2c0-0.3,0-0.5,0.1-0.8c0.1-0.2,0.2-0.4,0.3-0.5
						c0.1-0.2,0.3-0.2,0.5-0.3s0.4-0.1,0.6-0.1c0.2,0,0.3,0,0.5,0.1s0.3,0.2,0.4,0.3s0.2,0.3,0.3,0.5S63.2,43.1,63.2,43.2L63.2,43.2
						 M62.8,42.9c0-0.3-0.1-0.5-0.3-0.7S62.1,42,61.8,42c-0.2,0-0.3,0-0.4,0.1s-0.2,0.1-0.3,0.2c-0.1,0.1-0.1,0.2-0.2,0.3
						s-0.1,0.2-0.1,0.3l0,0c0,0,0,0,0.1,0L62.8,42.9C62.7,43,62.7,43,62.8,42.9C62.8,43,62.8,43,62.8,42.9z"/>
				</g>
				<g>
					<path fill="#FFFFFF" d="M66.7,44.9C66.7,45,66.7,45,66.7,44.9L66.4,45c-0.1,0-0.1,0-0.1-0.1c0,0,0,0-0.1,0s-0.1,0-0.1,0
						s-0.1,0-0.2,0.1c-0.1,0-0.2,0-0.2,0.1c-0.1,0-0.2,0-0.4,0c-0.5,0-0.8-0.2-1.1-0.4c-0.3-0.3-0.4-0.7-0.4-1.2
						c0-0.3,0-0.5,0.1-0.8c0.1-0.2,0.2-0.4,0.3-0.5c0.1-0.2,0.3-0.3,0.5-0.3c0.2-0.1,0.4-0.1,0.6-0.1c0.1,0,0.2,0,0.3,0
						c0.1,0,0.2,0,0.2,0.1c0.1,0,0.1,0,0.2,0.1h0.1c0,0,0,0,0-0.1v-1.3c0-0.1,0-0.1,0.1-0.1h0.2c0.1,0,0.1,0,0.1,0.1L66.7,44.9
						 M66.3,42.4c0-0.1-0.1-0.2-0.2-0.3S65.7,42,65.5,42c-0.4,0-0.7,0.1-0.9,0.3c-0.2,0.2-0.3,0.6-0.3,1c0,0.2,0,0.4,0.1,0.5
						c0,0.2,0.1,0.3,0.2,0.4c0.1,0.1,0.2,0.2,0.4,0.3c0.2,0.1,0.3,0.1,0.5,0.1s0.4,0,0.6-0.1c0.1-0.1,0.2-0.2,0.2-0.3L66.3,42.4
						L66.3,42.4L66.3,42.4z"/>
				</g>
				<g>
					<path fill="#FFFFFF" d="M71,44.8L71,44.8c-0.1,0.1-0.2,0.1-0.2,0.2s-0.1,0-0.2,0s-0.2,0-0.2,0c-0.3,0-0.6-0.1-0.7-0.2
						c-0.1-0.2-0.2-0.4-0.2-0.6v-2c0-0.1,0-0.1-0.1-0.1H69c-0.1,0-0.1,0-0.1-0.1v-0.2c0-0.1,0-0.1,0.1-0.1h0.4c0,0,0.1,0,0.1-0.1
						v-0.7c0-0.1,0-0.1,0.1-0.1h0.2c0.1,0,0.1,0,0.1,0.1v0.7c0,0,0,0.1,0.1,0.1h0.9c0.1,0,0.1,0,0.1,0.1V42c0,0.1,0,0.1-0.1,0.1H70
						c0,0-0.1,0-0.1,0.1v2c0,0.2,0,0.3,0.1,0.4s0.2,0.1,0.4,0.1c0.1,0,0.2,0,0.2,0c0.1,0,0.1,0,0.2,0h0.1
						C70.9,44.7,70.9,44.7,71,44.8C71,44.7,71,44.7,71,44.8L71,44.8"/>
				</g>
				<g>
					<path fill="#FFFFFF" d="M74.6,43.3c0,0.3,0,0.5-0.1,0.7s-0.2,0.4-0.3,0.5c-0.1,0.2-0.3,0.3-0.5,0.3S73.3,45,73.1,45
						c-0.5,0-0.9-0.2-1.1-0.5c-0.3-0.3-0.4-0.7-0.4-1.2c0-0.3,0-0.5,0.1-0.7s0.2-0.4,0.3-0.5c0.1-0.2,0.3-0.3,0.5-0.3
						s0.4-0.1,0.7-0.1c0.5,0,0.9,0.2,1.1,0.5C74.5,42.4,74.6,42.8,74.6,43.3 M74.1,43.3c0-0.2,0-0.4-0.1-0.6
						c-0.1-0.2-0.1-0.3-0.2-0.4c-0.1-0.1-0.2-0.2-0.3-0.2c-0.1,0-0.3-0.1-0.4-0.1c-0.2,0-0.3,0-0.4,0.1c-0.1,0-0.2,0.1-0.3,0.2
						s-0.2,0.3-0.2,0.4c0,0.2-0.1,0.4-0.1,0.6c0,0.5,0.1,0.8,0.3,1c0.2,0.2,0.5,0.3,0.8,0.3c0.2,0,0.3,0,0.4-0.1
						c0.1,0,0.2-0.1,0.3-0.2c0.1-0.1,0.2-0.3,0.2-0.4C74.1,43.8,74.1,43.5,74.1,43.3z"/>
				</g>
				<g>
					<path fill="#FFFFFF" d="M79.8,44.9C79.8,45,79.8,45,79.8,44.9L79.5,45c-0.1,0-0.1,0-0.1-0.1c0,0,0,0-0.1,0s-0.1,0-0.1,0
						s-0.1,0-0.2,0.1c-0.1,0-0.2,0-0.2,0.1c-0.1,0-0.2,0-0.4,0c-0.5,0-0.8-0.2-1.1-0.4c-0.3-0.3-0.4-0.7-0.4-1.2
						c0-0.3,0-0.5,0.1-0.8c0.1-0.2,0.2-0.4,0.3-0.5c0.1-0.2,0.3-0.3,0.5-0.3s0.4-0.1,0.6-0.1c0.1,0,0.2,0,0.3,0c0.1,0,0.2,0,0.2,0.1
						c0.1,0,0.1,0,0.2,0.1h0.1c0,0,0,0,0-0.1v-1.3c0-0.1,0-0.1,0.1-0.1h0.2c0.1,0,0.1,0,0.1,0.1L79.8,44.9 M79.3,42.4
						c0-0.1-0.1-0.2-0.2-0.3S78.8,42,78.6,42c-0.4,0-0.7,0.1-0.9,0.3c-0.2,0.2-0.3,0.6-0.3,1c0,0.2,0,0.4,0.1,0.5s0.1,0.3,0.2,0.4
						c0.1,0.1,0.2,0.2,0.4,0.3c0.2,0.1,0.3,0.1,0.5,0.1s0.4,0,0.6-0.1c0.1-0.1,0.2-0.2,0.2-0.3L79.3,42.4L79.3,42.4L79.3,42.4z"/>
				</g>
				<g>
					<path fill="#FFFFFF" d="M83.4,43.2C83.4,43.3,83.4,43.3,83.4,43.2l-2.2,0.1c-0.1,0-0.1,0-0.1,0.1c0,0.4,0.1,0.7,0.3,0.9
						c0.2,0.2,0.5,0.3,0.8,0.3c0.2,0,0.3,0,0.4,0s0.2,0,0.3-0.1c0.1,0,0.1-0.1,0.2-0.1h0.1c0,0,0.1,0,0.1,0.1v0.2v0.1
						c0,0,0,0-0.1,0.1c-0.3,0.1-0.6,0.2-1,0.2c-0.5,0-0.9-0.2-1.2-0.4c-0.3-0.3-0.4-0.7-0.4-1.2c0-0.3,0-0.5,0.1-0.8
						c0.1-0.2,0.2-0.4,0.3-0.5c0.1-0.2,0.3-0.2,0.5-0.3s0.4-0.1,0.6-0.1s0.3,0,0.5,0.1s0.3,0.2,0.4,0.3s0.2,0.3,0.3,0.5
						C83.4,42.9,83.4,43.1,83.4,43.2L83.4,43.2 M82.9,42.9c0-0.3-0.1-0.5-0.3-0.7C82.5,42.1,82.3,42,82,42c-0.2,0-0.3,0-0.4,0.1
						s-0.2,0.1-0.3,0.2c-0.1,0.1-0.1,0.2-0.2,0.3S81,42.8,81,42.9l0,0c0,0,0,0,0.1,0L82.9,42.9C82.9,43,82.9,43,82.9,42.9
						C82.9,43,82.9,43,82.9,42.9z"/>
				</g>
			</g>
			<path display="inline" fill="#FFFFFF" d="M84.7,44.9C84.7,45,84.7,45,84.7,44.9L84.4,45c-0.1,0-0.1,0-0.1-0.1v-4.4
				c0-0.1,0-0.1,0.1-0.1h0.2c0.1,0,0.1,0,0.1,0.1V44.9"/>
			<path display="inline" fill="#FFFFFF" d="M86.4,40.6c0,0.1,0,0.2-0.1,0.3c-0.1,0-0.1,0.1-0.2,0.1s-0.2,0-0.2-0.1
				s-0.1-0.1-0.1-0.3c0-0.1,0-0.2,0.1-0.2s0.1-0.1,0.2-0.1s0.2,0,0.2,0.1C86.3,40.4,86.4,40.5,86.4,40.6 M86.3,44.9
				C86.3,45,86.3,45,86.3,44.9L86,45c-0.1,0-0.1,0-0.1-0.1v-3.1c0-0.1,0-0.1,0.1-0.1h0.2c0.1,0,0.1,0,0.1,0.1V44.9z"/>
			<g display="inline">
				<g>
					<path fill="#FFFFFF" d="M89.8,41.7c0,0,0,0.1,0,0.2l-1.1,2.9c0,0.1-0.1,0.1-0.1,0.2h-0.1h-0.3h-0.1c0,0,0-0.1-0.1-0.2l-1.1-2.9
						c0-0.1,0-0.1,0-0.1s0-0.1,0.1-0.1h0.3c0.1,0,0.1,0,0.1,0.1l0.9,2.7c0,0.1,0,0.1,0.1,0.1c0,0,0,0,0.1-0.1l0.9-2.7
						c0,0,0-0.1,0.1-0.1L89.8,41.7L89.8,41.7"/>
				</g>
				<g>
					<path fill="#FFFFFF" d="M93,43.2C93,43.3,93,43.3,93,43.2l-2.2,0.1c-0.1,0-0.1,0-0.1,0.1c0,0.4,0.1,0.7,0.3,0.9
						c0.2,0.2,0.5,0.3,0.8,0.3c0.2,0,0.3,0,0.4,0s0.2,0,0.3-0.1c0.1,0,0.1-0.1,0.2-0.1h0.1c0,0,0.1,0,0.1,0.1v0.2v0.1
						c0,0,0,0-0.1,0.1c-0.3,0.1-0.6,0.2-1,0.2c-0.5,0-0.9-0.2-1.2-0.4c-0.3-0.3-0.4-0.7-0.4-1.2c0-0.3,0-0.5,0.1-0.8
						c0.1-0.2,0.2-0.4,0.3-0.5c0.1-0.2,0.3-0.2,0.5-0.3s0.4-0.1,0.6-0.1s0.3,0,0.5,0.1s0.3,0.2,0.4,0.3s0.2,0.3,0.3,0.5
						C93,42.9,93,43.1,93,43.2L93,43.2 M92.5,42.9c0-0.3-0.1-0.5-0.3-0.7C92,42,91.8,42,91.5,42c-0.2,0-0.3,0-0.4,0.1
						s-0.2,0.1-0.3,0.2c-0.1,0.1-0.1,0.2-0.2,0.3s-0.1,0.2-0.1,0.3l0,0c0,0,0,0,0.1,0L92.5,42.9C92.5,43,92.5,43,92.5,42.9
						C92.5,43,92.5,43,92.5,42.9z"/>
				</g>
			</g>
			<path display="inline" fill="#FFFFFF" d="M95.4,42C95.4,42.1,95.4,42.1,95.4,42C95.3,42.1,95.3,42.1,95.4,42
				c-0.1,0.1-0.1,0.1-0.2,0.1h-0.1c-0.1,0-0.1,0-0.2,0s-0.2,0-0.2,0c-0.1,0-0.1,0-0.2,0.1c0,0-0.1,0.1-0.1,0.2c0,0.1,0,0.2,0,0.2
				v2.3c0,0.1,0,0.1-0.1,0.1H94c-0.1,0-0.1,0-0.1-0.1v-3.1c0-0.1,0-0.1,0.1-0.1h0.2c0.1,0,0.1,0,0.1,0.1v0.1l0,0c0,0,0.1,0,0.2,0
				s0.1-0.1,0.2-0.1s0.2-0.1,0.2-0.1c0.1,0,0.2,0,0.3,0c0.1,0,0.2,0,0.2,0s0,0,0,0.1L95.4,42"/>
			<path display="inline" fill="#FFFFFF" d="M96.7,40.1L96.7,40.1h-0.5l0,0v1.5l0,0h-0.1l0,0v-1.5l0,0h-0.5l0,0l0,0l0,0H96.7
				C96.7,40,96.7,40,96.7,40.1L96.7,40.1"/>
			<g display="inline">
				<g>
					<path fill="#FFFFFF" d="M98.6,41.7L98.6,41.7L98.6,41.7L98.6,41.7l-0.1-1.4l0,0l0,0L98,41.6c0,0,0,0,0,0.1l0,0h-0.1l0,0
						c0,0,0,0,0-0.1l-0.5-1.3l0,0l0,0l0,0v1.4l0,0h-0.1l0,0V40l0,0h0.1l0,0l0,0l0.6,1.5l0,0l0,0l0.5-1.5l0,0l0,0h0.1l0,0V41.7"/>
				</g>
			</g>
		</g>
		<path fill="#0C499B" d="M60.9,24.3c-0.2,0-0.4,0-0.6-0.1c-0.1,0-0.2-0.1-0.3-0.1c0,0.1,0,0.2-0.1,0.2h-0.6c0,0-0.1,0-0.1-0.1v-4.7
			c0,0,0-0.1,0.1-0.1H60c0,0,0.1,0,0.1,0.1V21c0.1,0,0.2,0,0.3-0.1c0.2-0.1,0.4-0.2,0.7-0.2c1,0,1.5,0.8,1.5,1.8
			C62.6,23.5,62,24.3,60.9,24.3 M60.7,21.3c-0.2,0-0.3,0-0.5,0.1S60,21.6,60,21.8v1.4c0,0.4,0.3,0.5,0.7,0.5c0.3,0,0.5-0.1,0.7-0.3
			c0.2-0.2,0.3-0.6,0.3-0.9C61.7,21.8,61.5,21.3,60.7,21.3z"/>
		<path fill="#0C499B" d="M65.6,24.2H65c-0.1,0-0.1-0.1-0.1-0.2h-0.1c-0.1,0-0.2,0.1-0.3,0.1c-0.2,0.1-0.4,0.1-0.6,0.1
			c-0.6,0-1.1-0.3-1.1-1s0.5-0.9,1.1-1.1l0.7-0.2c0.2,0,0.3-0.1,0.3-0.3c0-0.3-0.3-0.4-0.6-0.4c-0.4,0-0.8,0.1-1.1,0.3h-0.1
			c-0.1,0-0.1-0.1-0.1-0.1V21c0-0.1,0-0.1,0.1-0.2c0.4-0.2,0.9-0.2,1.3-0.2c0.6,0,1.3,0.2,1.3,1L65.6,24.2
			C65.7,24.2,65.7,24.2,65.6,24.2 M64.9,22.4l-0.5,0.2c-0.3,0.1-0.7,0.2-0.7,0.6s0.3,0.5,0.6,0.5c0.2,0,0.3,0,0.5-0.1
			s0.2-0.2,0.2-0.4L64.9,22.4L64.9,22.4L64.9,22.4z"/>
		<path fill="#0C499B" d="M67.7,24.3c-0.2,0-0.4,0-0.6-0.1c-0.1,0-0.2-0.1-0.3-0.1c0,0.1,0,0.2-0.1,0.2h-0.6c0,0-0.1,0-0.1-0.1v-4.7
			c0,0,0-0.1,0.1-0.1h0.6c0,0,0.1,0,0.1,0.1V21c0.1,0,0.2,0,0.3-0.1c0.2-0.1,0.4-0.2,0.7-0.2c1,0,1.5,0.8,1.5,1.8
			C69.4,23.5,68.7,24.3,67.7,24.3 M67.5,21.3c-0.2,0-0.3,0-0.5,0.1s-0.2,0.2-0.2,0.4v1.4c0,0.4,0.3,0.5,0.7,0.5
			c0.3,0,0.5-0.1,0.7-0.3c0.2-0.2,0.3-0.6,0.3-0.9C68.5,21.8,68.3,21.3,67.5,21.3z"/>
		<path fill="#0C499B" d="M72.4,24.1c-0.3,0.1-0.7,0.2-1,0.2c-1.1,0-1.7-0.7-1.7-1.8c0-1.1,0.7-1.8,1.7-1.8c0.3,0,0.5,0,0.8,0.1
			c0.1,0,0.3,0.1,0.3,0.2v0.4c0,0,0,0.1-0.1,0.1s-0.1,0-0.1,0c-0.2-0.1-0.5-0.2-0.8-0.2c-0.8,0-1.1,0.5-1.1,1.2s0.3,1.2,1,1.2
			c0.3,0,0.6-0.1,0.8-0.2h0.1C72.4,23.5,72.4,23.9,72.4,24.1C72.5,24,72.5,24,72.4,24.1"/>
		<path fill="#0C499B" d="M75.5,23.9c-0.3,0.3-0.7,0.4-1.2,0.4s-0.8-0.1-1.2-0.4c-0.4-0.4-0.5-0.9-0.5-1.5s0.1-1.1,0.6-1.5
			c0.4-0.3,0.7-0.4,1.2-0.4c1.1,0,1.7,0.7,1.7,1.8C76.1,23.1,76,23.6,75.5,23.9 M74.4,21.3c-0.7,0-0.9,0.7-0.9,1.2s0.2,1.3,0.9,1.3
			c0.7,0,0.9-0.7,0.9-1.2C75.3,22,75.1,21.3,74.4,21.3z"/>
		<path fill="#0C499B" d="M79.1,24.1c-0.3,0.1-0.7,0.2-1,0.2c-1.1,0-1.7-0.7-1.7-1.8c0-1.1,0.7-1.8,1.7-1.8c0.3,0,0.5,0,0.8,0.1
			c0.1,0,0.3,0.1,0.3,0.2v0.4c0,0,0,0.1-0.1,0.1s-0.1,0-0.1,0c-0.2-0.1-0.5-0.2-0.8-0.2c-0.8,0-1.1,0.5-1.1,1.2s0.3,1.2,1,1.2
			c0.3,0,0.6-0.1,0.8-0.2H79C79.1,23.5,79.1,23.9,79.1,24.1C79.2,24,79.2,24,79.1,24.1"/>
		<path fill="#0C499B" d="M82.5,24.2h-0.8c-0.1,0-0.1,0-0.2-0.1l-1-1.5c0-0.1-0.1,0-0.2,0v1.5c0,0,0,0.1-0.1,0.1h-0.6
			c0,0-0.1,0-0.1-0.1v-4.7c0,0,0-0.1,0.1-0.1h0.6c0,0,0.1,0,0.1,0.1V22h0.1h0.1l1.1-1.2c0.1-0.1,0.1-0.1,0.2-0.1h0.6
			c0,0,0.1,0,0.1,0.1c0,0,0,0.1-0.1,0.1l-1.2,1.3l1.3,1.8C82.5,24,82.6,24.1,82.5,24.2C82.6,24.2,82.6,24.2,82.5,24.2"/>
	</g>
</g>
</svg>
