<?xml version="1.0" encoding="utf-8"?>
<!-- Generator: Adobe Illustrator 18.1.1, SVG Export Plug-In . SVG Version: 6.00 Build 0)  -->
<svg version="1.1" id="Layer_1" xmlns="http://www.w3.org/2000/svg" xmlns:xlink="http://www.w3.org/1999/xlink" x="0px" y="0px"
	 viewBox="0 0 1024 768" enable-background="new 0 0 1024 768" xml:space="preserve">
<g>
	<path fill="#FFFFFF" d="M300.7,0c0,0,336.3,124.5,421.4,442.4c-0.4-2.6-238.3,280.5-414.1,88.1C308.1,530.5,179.6,418.1,300.7,0"/>
	<g display="none">
		<g display="inline">
			<g>
				<path fill="#FFFFFF" d="M110.2,764.7c0,0.4-0.4,0.7-1.1,1.5c-0.7,0.4-1.5,0.7-2.6,1.1c-1.1,0.4-2.2,0.7-3.3,0.7
					c-1.1,0.4-2.6,0.4-3.7,0.4c-5.5,0-9.5-1.1-11.7-3.7c-2.2-2.6-3.3-6.2-3.3-11v-34.5c0-1.1-0.4-1.5-1.1-1.5h-6.6
					c-1.1,0-1.8-0.7-1.8-1.8v-2.6c0-1.1,0.7-1.8,1.8-1.8h6.6c0.7,0,1.1-0.4,1.1-1.5v-12.1c0-1.1,0.7-1.8,1.8-1.8H90
					c1.1,0,1.8,0.7,1.8,1.8V710c0,0.7,0.4,1.5,1.1,1.5h15.4c1.1,0,1.8,0.7,1.8,1.8v2.6c0,1.1-0.7,1.8-1.8,1.8H92.9
					c-0.7,0-1.1,0.4-1.1,1.5v34.1c0,2.9,0.7,5.5,1.8,7c1.1,1.5,3.3,2.2,6.2,2.2c1.5,0,2.6,0,3.7-0.4c1.1-0.4,1.8-0.4,2.6-0.7
					c0.7-0.4,1.5-0.7,1.8-0.7c0.4-0.4,0.7-0.4,1.1-0.4c0.7,0,0.7,0.4,0.7,1.1v3.3"/>
			</g>
		</g>
		<path display="inline" fill="#FFFFFF" d="M149.5,717.3c0,0.7-0.4,1.5-1.1,1.5c-0.4,0-0.7,0-1.1-0.4c-0.4,0-0.7-0.4-1.5-0.4
			c-0.7,0-1.5-0.4-2.2-0.4c-1.1,0-2.2-0.4-3.7-0.4s-2.6,0-3.7,0.4s-2.2,0.7-2.9,1.5s-1.5,1.5-2.2,2.6c-0.4,1.1-0.7,2.6-0.7,4v40
			c0,1.1-0.7,1.8-1.8,1.8h-3.7c-1.1,0-1.8-0.7-1.8-1.8v-52.5c0-1.1,0.4-1.8,1.8-1.8h3.7c1.1,0,1.5,0.4,1.5,1.5v1.1
			c0,0.7,0.4,0.7,0.7,0.7c0.7,0,1.5-0.4,2.6-0.7c1.1-0.4,2.2-1.1,3.3-1.5c1.1-0.7,2.6-1.1,4-1.5c1.5-0.4,2.9-0.7,4.8-0.7
			c1.8,0,2.9,0,3.3,0.4s0.7,0.7,0.7,1.5V717.3"/>
		<g display="inline">
			<g>
				<path fill="#FFFFFF" d="M202,765.8c0,1.1-0.4,1.8-1.5,1.8h-3.7c-1.1,0-1.5-0.7-1.5-1.8c0-0.7-0.4-1.1-1.1-1.1
					c-0.7,0-1.5,0-2.6,0.4c-0.7,0.4-1.8,0.7-3.3,1.1c-1.1,0.4-2.6,0.7-4.4,1.1c-1.5,0.4-3.7,0.7-5.9,0.7c-3.3,0-6.2-0.4-9.2-1.1
					c-2.9-0.7-5.1-2.2-6.6-4.4c-0.7-1.1-1.5-2.2-2.2-3.3c-0.4-1.1-1.1-2.6-1.1-4c-0.4-1.5-0.4-2.9-0.7-4.8c0-1.8,0-4,0-6.2v-31.2
					c0-1.1,0.7-1.8,1.8-1.8h4c1.1,0,1.8,0.7,1.8,1.8v35.2c0,2.6,0.4,4.4,0.7,6.2c0.4,1.8,1.5,3.3,2.6,4.4c1.1,1.1,2.6,1.8,4.8,2.6
					c1.8,0.7,4.4,0.7,7,0.7c1.1,0,2.6,0,4-0.4c1.5-0.4,2.9-0.7,4-1.1c1.8-0.7,2.9-1.5,3.7-2.2c0.7-0.7,1.1-2.2,1.1-4v-41.9
					c0-1.1,0.4-1.8,1.5-1.8h4.4c1.1,0,1.8,0.7,1.8,1.8v53.2"/>
			</g>
			<g>
				<path fill="#FFFFFF" d="M248.2,752.2c0,5.1-1.5,9.2-4.8,12.1c-3.3,2.6-7.7,4-13.6,4c-2.2,0-4.4,0-5.9-0.4
					c-1.5-0.4-2.9-0.7-4.4-1.1s-2.6-1.1-2.9-1.5c-0.4-0.4-0.7-1.1-0.7-1.8v-4.4c0-0.7,0.4-1.1,1.1-1.1c0.4,0,1.1,0.4,1.5,0.7
					s1.5,1.1,2.2,1.5c1.1,0.7,2.2,1.1,3.3,1.5c1.5,0.4,2.9,0.7,4.8,0.7c4,0,6.6-0.7,8.4-2.2c1.8-1.5,2.6-3.7,2.6-6.6
					c0-1.8-0.4-3.3-1.1-4.8c-0.7-1.5-2.6-2.9-5.1-4.8l-9.5-6.2c-3.3-2.2-5.1-4-6.2-6.2c-1.1-1.8-1.5-4-1.5-6.6
					c0-4.4,1.5-7.7,4.4-10.3c2.9-2.6,7-3.7,12.8-3.7c2.2,0,4.4,0,5.9,0.4c1.5,0.4,2.9,0.7,4.8,1.5c1.1,0.4,1.8,0.7,2.2,1.5
					c0.4,0.4,0.4,1.1,0.4,1.8v4c0,0.7-0.4,1.5-1.1,1.5c-0.4,0-1.1-0.4-1.5-0.7c-0.7-0.4-1.5-1.1-2.6-1.5c-1.1-0.4-2.2-1.1-3.3-1.5
					c-1.5-0.4-2.9-0.7-4.8-0.7c-3.3,0-5.9,0.7-7.7,2.2c-1.5,1.5-2.2,2.9-2.2,5.1c0,1.5,0.4,2.9,1.5,4.4c0.7,1.1,2.6,2.6,4.8,4.4
					l9.9,6.6c2.9,1.8,5.1,4,6.2,6.2C247.5,747.1,248.2,749.6,248.2,752.2"/>
			</g>
			<g>
				<path fill="#FFFFFF" d="M289,764.7c0,0.4-0.4,0.7-1.1,1.5c-0.7,0.4-1.5,0.7-2.6,1.1c-1.1,0.4-2.2,0.7-3.3,0.7
					c-1.1,0.4-2.6,0.4-3.7,0.4c-5.5,0-9.5-1.1-11.7-3.7c-2.2-2.6-3.3-6.2-3.3-11v-34.5c0-1.1-0.4-1.5-1.1-1.5h-6.6
					c-1.1,0-1.8-0.7-1.8-1.8v-2.6c0-1.1,0.7-1.8,1.8-1.8h6.6c0.7,0,1.1-0.4,1.1-1.5v-12.1c0-1.1,0.7-1.8,1.8-1.8h3.7
					c1.1,0,1.8,0.7,1.8,1.8V710c0,0.7,0.4,1.5,1.1,1.5h15.4c1.1,0,1.8,0.7,1.8,1.8v2.6c0,1.1-0.7,1.8-1.8,1.8h-15.4
					c-0.7,0-1.1,0.4-1.1,1.5v34.1c0,2.9,0.7,5.5,1.8,7c1.1,1.5,3.3,2.2,6.2,2.2c1.5,0,2.6,0,3.7-0.4c1.1-0.4,1.8-0.4,2.6-0.7
					c0.7-0.4,1.5-0.7,1.8-0.7c0.4-0.4,0.7-0.4,1.1-0.4c0.7,0,0.7,0.4,0.7,1.1v3.3"/>
			</g>
			<g>
				<path fill="#FFFFFF" d="M345.1,737.9c0,1.5-0.7,1.8-1.8,1.8h-35.6c-1.1,0-1.8,0.4-1.8,1.5c0,6.2,1.5,11.4,4.8,15.1
					c3.3,3.7,8.1,5.5,14,5.5c2.9,0,5.1-0.4,7-0.7c1.8-0.4,3.7-0.7,4.8-1.5c1.1-0.4,2.2-1.1,2.9-1.5c0.7-0.4,1.5-0.7,1.8-0.7
					c0.7,0,1.1,0.4,1.1,1.5v3.3c0,0.7,0,1.1-0.4,1.5c-0.4,0.4-0.7,0.7-1.5,1.1c-4.8,1.8-10.6,2.9-16.9,2.9c-9.2,0-15.8-2.6-20.2-7.3
					c-4.4-5.1-6.2-12.1-6.2-20.9c0-5.1,0.7-9.2,1.8-12.8c1.1-3.7,2.9-6.6,5.1-9.2c2.2-2.6,4.8-4,8.1-5.5c2.9-1.1,6.6-1.8,10.3-1.8
					c2.9,0,5.9,0.4,8.8,1.5c2.6,1.1,5.1,2.6,7.3,4.8s3.7,4.8,4.8,7.7c1.1,3.3,1.8,7,1.8,11L345.1,737.9 M337.1,732.4
					c0-4.8-1.5-8.8-4.4-11.4c-2.9-2.6-6.6-4-11.4-4c-2.6,0-4.8,0.4-6.6,1.5c-1.8,1.1-3.7,2.2-4.8,3.7c-1.5,1.5-2.2,3.3-2.9,5.1
					c-0.7,1.8-1.1,3.7-1.1,5.5c0,0.4,0,0.7,0.4,0.7c0,0.4,0.4,0.4,1.1,0.4h28.3c0.4,0,0.7,0,1.1-0.4
					C337.1,733.5,337.1,733.1,337.1,732.4z"/>
			</g>
			<g>
				<path fill="#FFFFFF" d="M404.6,765.8c0,1.1-0.4,1.8-1.5,1.8h-3.7c-1.1,0-1.5-0.4-1.5-1.5c0-0.4-0.4-0.7-1.1-0.7s-1.1,0-1.8,0.4
					s-1.5,0.7-2.6,1.1s-2.6,0.7-4,1.1c-1.5,0.4-3.7,0.4-6.2,0.4c-8.1,0-14.3-2.6-18.7-7.3c-4.4-4.8-6.6-11.7-6.6-20.6
					c0-4.8,0.7-9.2,1.8-12.8s2.9-6.6,5.5-9.2c2.2-2.6,5.1-4.4,8.4-5.5c3.3-1.1,6.6-1.8,10.6-1.8c2.2,0,4,0,5.5,0.4
					c1.5,0.4,2.9,0.7,4,1.1c1.1,0.4,1.8,0.7,2.6,1.1c0.7,0.4,1.1,0.4,1.5,0.4c0.4,0,0.7-0.4,0.7-1.5v-22.4c0-1.1,0.7-1.8,1.8-1.8h4
					c1.1,0,1.8,0.7,1.8,1.8v75.6 M396.9,723.9c0-2.2-1.1-4-3.7-5.5c-2.6-1.5-5.5-2.2-9.5-2.2c-6.6,0-11.4,1.8-14.7,5.9
					s-5.1,9.9-5.1,17.6c0,3.3,0.4,6.6,1.1,9.2c0.7,2.9,1.8,5.1,3.7,7c1.5,1.8,3.7,3.7,6.2,4.4c2.6,1.1,5.5,1.5,9.2,1.5
					c4,0,7-0.7,9.5-2.2c2.2-1.5,3.7-3.3,3.7-5.5v-30.1H396.9z"/>
			</g>
			<g>
				<path fill="#FFFFFF" d="M478.4,764.7c0,0.4-0.4,0.7-1.1,1.5c-0.7,0.4-1.5,0.7-2.6,1.1c-1.1,0.4-2.2,0.7-3.3,0.7
					c-1.1,0.4-2.6,0.4-3.7,0.4c-5.5,0-9.5-1.1-11.7-3.7c-2.2-2.6-3.3-6.2-3.3-11v-34.5c0-1.1-0.4-1.5-1.1-1.5H445
					c-1.1,0-1.8-0.7-1.8-1.8v-2.6c0-1.1,0.7-1.8,1.8-1.8h6.6c0.7,0,1.1-0.4,1.1-1.5v-12.1c0-1.1,0.7-1.8,1.8-1.8h3.7
					c1.1,0,1.8,0.7,1.8,1.8V710c0,0.7,0.4,1.5,1.1,1.5h15.4c1.1,0,1.8,0.7,1.8,1.8v2.6c0,1.1-0.7,1.8-1.8,1.8h-15.4
					c-0.7,0-1.1,0.4-1.1,1.5v34.1c0,2.9,0.7,5.5,1.8,7c1.1,1.5,3.3,2.2,6.2,2.2c1.5,0,2.6,0,3.7-0.4c1.1-0.4,1.8-0.4,2.6-0.7
					c0.7-0.4,1.5-0.7,1.8-0.7c0.4-0.4,0.7-0.4,1.1-0.4c0.7,0,0.7,0.4,0.7,1.1v3.3"/>
			</g>
			<g>
				<path fill="#FFFFFF" d="M539,739.4c0,4.4-0.4,8.4-1.5,11.7c-1.1,3.7-2.6,6.6-4.8,9.2c-2.2,2.6-4.8,4.4-8.1,5.9
					c-3.3,1.5-7,2.2-11.4,2.2c-8.4,0-14.7-2.6-19.1-7.7s-6.6-12.1-6.6-20.9c0-4.4,0.4-8.1,1.5-11.7s2.6-6.6,4.8-9.2
					c2.2-2.6,4.8-4.4,8.1-5.9c3.3-1.5,7-2.2,11.4-2.2c8.4,0,15.1,2.6,19.1,7.7C536.8,723.2,539,730.6,539,739.4 M531.3,739
					c0-4-0.4-7.3-1.5-9.9c-1.1-2.9-2.2-5.1-3.7-7s-3.3-3.3-5.5-4c-2.2-0.7-4.8-1.5-7.3-1.5c-2.6,0-5.1,0.4-7.3,1.1
					c-2.2,0.7-4,2.2-5.5,4c-1.5,1.8-2.9,4.4-3.7,7.3c-0.7,2.9-1.5,6.6-1.5,10.6c0,7.7,1.8,13.6,5.1,17.3s7.7,5.5,12.8,5.5
					c2.6,0,5.1-0.4,7.3-1.5c2.2-0.7,4-2.2,5.5-4s2.9-4.4,3.7-7C530.5,746.7,531.3,743,531.3,739z"/>
			</g>
			<g>
				<path fill="#FFFFFF" d="M627.5,765.8c0,1.1-0.4,1.8-1.5,1.8h-3.7c-1.1,0-1.5-0.4-1.5-1.5c0-0.4-0.4-0.7-1.1-0.7
					c-0.7,0-1.1,0-1.8,0.4c-0.7,0.4-1.5,0.7-2.6,1.1c-1.1,0.4-2.6,0.7-4,1.1c-1.5,0.4-3.7,0.4-6.2,0.4c-8.1,0-14.3-2.6-18.7-7.3
					s-6.6-11.7-6.6-20.6c0-4.8,0.7-9.2,1.8-12.8c1.1-3.7,2.9-6.6,5.5-9.2c2.2-2.6,5.1-4.4,8.4-5.5c3.3-1.1,6.6-1.8,10.6-1.8
					c2.2,0,4,0,5.5,0.4c1.5,0.4,2.9,0.7,4,1.1c1.1,0.4,1.8,0.7,2.6,1.1c0.7,0.4,1.1,0.4,1.5,0.4s0.7-0.4,0.7-1.5v-22.4
					c0-1.1,0.7-1.8,1.8-1.8h4c1.1,0,1.8,0.7,1.8,1.8v75.6 M620.1,723.9c0-2.2-1.1-4-3.7-5.5c-2.6-1.5-5.5-2.2-9.5-2.2
					c-6.6,0-11.4,1.8-14.7,5.9c-3.3,4-5.1,9.9-5.1,17.6c0,3.3,0.4,6.6,1.1,9.2c0.7,2.6,1.8,5.1,3.7,7c1.5,1.8,3.7,3.7,6.2,4.4
					c2.6,1.1,5.5,1.5,9.2,1.5c4,0,7-0.7,9.5-2.2c2.2-1.5,3.7-3.3,3.7-5.5v-30.1H620.1z"/>
			</g>
			<g>
				<path fill="#FFFFFF" d="M689.9,737.9c0,1.5-0.7,1.8-1.8,1.8h-35.6c-1.1,0-1.8,0.4-1.8,1.5c0,6.2,1.5,11.4,4.8,15.1
					c3.3,3.7,8.1,5.5,14,5.5c2.9,0,5.1-0.4,7.3-0.7c1.8-0.4,3.3-0.7,4.8-1.5c1.1-0.4,2.2-1.1,2.9-1.5c0.7-0.4,1.5-0.7,1.8-0.7
					c0.7,0,1.1,0.4,1.1,1.5v3.3c0,0.7,0,1.1-0.4,1.5c-0.4,0.4-0.7,0.7-1.5,1.1c-4.8,1.8-10.3,2.9-16.9,2.9c-9.2,0-15.8-2.6-20.2-7.3
					c-4.4-5.1-6.2-12.1-6.2-20.9c0-5.1,0.7-9.2,1.8-12.8c1.1-3.7,2.9-6.6,5.1-9.2s4.8-4,8.1-5.5c2.9-1.1,6.6-1.8,10.3-1.8
					c2.9,0,5.9,0.4,8.8,1.5c2.6,1.1,5.1,2.6,7,4.8c2.2,2.2,3.7,4.8,4.8,7.7c1.1,3.3,1.8,7,1.8,11V737.9 M681.8,732.4
					c0-4.8-1.5-8.8-4.4-11.4c-2.9-2.6-6.6-4-11.4-4c-2.6,0-4.8,0.4-6.6,1.5c-1.8,1.1-3.7,2.2-4.8,3.7c-1.5,1.5-2.2,3.3-2.9,5.1
					s-1.1,3.7-1.1,5.5c0,0.4,0,0.7,0.4,0.7c0,0.4,0.4,0.4,1.1,0.4h28.6c0.4,0,0.7,0,1.1-0.4C681.8,733.5,681.8,733.1,681.8,732.4z"
					/>
			</g>
		</g>
		<path display="inline" fill="#FFFFFF" d="M712.3,765.8c0,1.1-0.7,1.8-1.8,1.8h-3.7c-1.1,0-1.8-0.7-1.8-1.8v-75.6
			c0-1.1,0.7-1.8,1.5-1.8h4c1.1,0,1.5,0.7,1.5,1.8v75.6"/>
		<path display="inline" fill="#FFFFFF" d="M740.2,693.5c0,2.2-0.4,3.7-1.5,4.4c-1.1,0.7-2.2,1.1-3.7,1.1s-2.9-0.4-3.7-1.5
			c-0.7-1.1-1.5-2.2-1.5-4.4c0-1.8,0.4-3.3,1.5-4c1.1-0.7,2.2-1.5,3.7-1.5s2.9,0.4,3.7,1.5C739.4,690.2,740.2,691.6,740.2,693.5
			 M738.3,765.8c0,1.1-0.7,1.8-1.8,1.8h-3.7c-1.1,0-1.8-0.7-1.8-1.8v-52.5c0-1.1,0.7-1.8,1.8-1.8h3.7c1.1,0,1.8,0.7,1.8,1.8V765.8z"
			/>
		<g display="inline">
			<g>
				<path fill="#FFFFFF" d="M798.9,712.2c0,0.4-0.4,1.1-0.7,2.6l-18.4,50.3c-0.4,1.5-1.1,2.2-1.5,2.6c-0.4,0.4-1.1,0.7-1.8,0.7h-4.8
					c-0.7,0-1.5-0.4-1.8-0.7c-0.4-0.4-0.7-1.1-1.5-2.9l-18.4-50.3c-0.4-1.1-0.7-1.8-0.7-1.8c0-0.7,0.4-1.1,1.5-1.1h5.1
					c1.1,0,1.5,0.4,1.8,1.5l15.8,45.9c0.4,1.1,0.7,1.5,1.1,1.5s0.7-0.4,1.1-1.5l15.8-46.3c0.4-0.7,0.7-1.1,1.5-1.1h4.8
					C798.5,711.5,798.9,711.8,798.9,712.2"/>
			</g>
			<g>
				<path fill="#FFFFFF" d="M852.9,737.9c0,1.5-0.7,1.8-1.8,1.8h-35.6c-1.1,0-1.5,0.4-1.5,1.5c0,6.2,1.5,11.4,4.8,15.1
					c3.3,3.7,8.1,5.5,14,5.5c2.9,0,5.1-0.4,7-0.7s3.3-0.7,4.8-1.5c1.1-0.4,2.2-1.1,2.9-1.5c0.7-0.4,1.5-0.7,1.8-0.7
					c0.7,0,1.1,0.4,1.1,1.5v3.3c0,0.7,0,1.1-0.4,1.5c-0.4,0.4-0.7,0.7-1.5,1.1c-4.8,1.8-10.6,2.9-16.9,2.9c-9.2,0-15.8-2.6-20.2-7.3
					c-4.4-5.1-6.2-12.1-6.2-20.9c0-5.1,0.7-9.2,1.8-12.8c1.1-3.7,2.9-6.6,5.1-9.2c2.2-2.6,4.8-4,8.1-5.5c2.9-1.1,6.6-1.8,10.3-1.8
					c2.9,0,5.9,0.4,8.8,1.5c2.6,1.1,5.1,2.6,7.3,4.8s3.7,4.8,4.8,7.7c1.1,3.3,1.8,7,1.8,11v2.9 M845.2,732.4c0-4.8-1.5-8.8-4.4-11.4
					c-2.9-2.6-6.6-4-11.4-4c-2.6,0-4.8,0.4-6.6,1.5s-3.7,2.2-4.8,3.7c-1.5,1.5-2.2,3.3-2.9,5.1c-0.7,1.8-1.1,3.7-1.1,5.5
					c0,0.4,0,0.7,0.4,0.7c0,0.4,0.4,0.4,1.1,0.4h28.6c0.4,0,0.7,0,1.1-0.4C844.8,733.5,845.2,733.1,845.2,732.4z"/>
			</g>
		</g>
		<path display="inline" fill="#FFFFFF" d="M894.3,717.3c0,0.7-0.4,1.5-1.1,1.5c-0.4,0-0.7,0-1.1-0.4c-0.4,0-0.7-0.4-1.5-0.4
			c-0.7,0-1.5-0.4-2.2-0.4c-1.1,0-2.2-0.4-3.7-0.4s-2.6,0-3.7,0.4c-1.1,0.4-2.2,0.7-2.9,1.5s-1.5,1.5-2.2,2.6
			c-0.4,1.1-0.7,2.6-0.7,4v40c0,1.1-0.7,1.8-1.8,1.8h-3.7c-1.1,0-1.8-0.7-1.8-1.8v-52.5c0-1.1,0.7-1.8,1.8-1.8h3.7
			c1.1,0,1.5,0.4,1.5,1.5v1.1c0,0.7,0.4,0.7,0.7,0.7c0.7,0,1.5-0.4,2.6-0.7c1.1-0.4,2.2-1.1,3.3-1.5c1.1-0.7,2.6-1.1,4-1.5
			c1.5-0.4,2.9-0.7,4.8-0.7s2.9,0,3.3,0.4c0.7,0.4,0.7,0.7,0.7,1.5L894.3,717.3"/>
		<path display="inline" fill="#FFFFFF" d="M917.1,683.9c0,0.4-0.4,0.7-0.7,0.7h-8.1c-0.4,0-0.4,0-0.4,0.4v26.4
			c0,0.4-0.4,0.7-0.7,0.7h-1.5c-0.4,0-0.7-0.4-0.7-0.7V685c0-0.4,0-0.4-0.4-0.4h-8.1c-0.4,0-0.7-0.4-0.7-0.7v-0.7
			c0-0.4,0.4-0.7,0.7-0.7h19.8c0.4,0,0.7,0.4,0.7,0.7V683.9"/>
		<g display="inline">
			<g>
				<path fill="#FFFFFF" d="M949,711.5c0,0.4-0.4,0.7-0.7,0.7h-1.8c-0.4,0-0.7-0.4-0.7-0.7V688c0-0.4,0-0.4,0-0.4s-0.4,0-0.4,0.4
					l-8.4,22.8c0,0.4-0.4,0.7-0.4,1.1c0,0-0.4,0.4-0.7,0.4h-1.5c-0.4,0-0.7,0-0.7-0.4s-0.4-0.4-0.7-1.1l-8.4-22.8v-0.4l0,0
					c0,0,0,0,0,0.4v23.5c0,0.4-0.4,0.7-0.7,0.7h-1.1c-0.4,0-0.7-0.4-0.7-0.7v-28.3c0-0.4,0.4-0.7,0.7-0.7h2.2c0.4,0,0.7,0,0.7,0
					s0.4,0.4,0.4,0.7l9.5,25.3c0,0.4,0.4,0.4,0.4,0.4s0.4,0,0.4-0.4l9.2-25.3c0-0.4,0.4-0.7,0.4-0.7s0.4,0,0.7,0h2.2
					c0.4,0,0.7,0.4,0.7,0.7v28.3"/>
			</g>
		</g>
	</g>
	<path fill="#0C499B" d="M305.5,414.1c-3.3,0-7-0.4-9.9-2.2c-1.8-0.7-3.3-1.8-5.1-1.8c0,1.5,0.4,2.9-1.8,2.9h-9.9
		c-0.7,0-1.5-0.7-1.5-1.5v-79.7c0-0.7,0.7-1.5,1.5-1.5h11c0.7,0,1.5,0.7,1.5,1.5v25c2.2,0,2.9-0.4,4.8-1.1c3.7-1.8,7.3-2.6,11.4-2.6
		c17.3,0,26.4,14.3,26.4,30.1C334.1,400.5,323.5,414.1,305.5,414.1 M302.9,362.7c-2.9,0-5.9,0.7-8.1,1.8c-2.6,1.5-3.7,3.3-3.7,6.2
		V395c0,7,5.9,8.8,12.1,8.8c4.4,0,8.8-1.8,11.7-4.8c4-4,4.8-10.6,4.8-16.2C319.8,372.6,315.4,362.7,302.9,362.7z"/>
	<path fill="#0C499B" d="M385.5,413.4h-9.9c-1.8,0-1.8-1.8-1.5-2.9H373c-2.2,0-3.7,1.1-5.9,1.8c-4,1.8-6.6,2.2-11,2.2
		c-11,0-19.1-5.9-19.1-17.3c0-12.1,8.4-16.2,18.7-19.5l12.1-4c2.6-0.7,4.8-1.1,4.8-4.4c0-5.5-5.9-6.6-10.3-6.6
		c-6.6,0-12.8,1.8-18.7,4.8c-0.7,0.4-1.1,0.7-1.8,0.7c-1.1,0-1.5-1.1-1.5-1.8v-6.6c0-1.8,0.7-2.2,2.2-2.9c6.6-2.6,14.7-3.7,21.7-3.7
		c11,0,22.4,3.3,22.4,16.5v42.2C387.4,412.6,386.6,413.4,385.5,413.4 M373,382.2l-9.2,2.9c-5.1,1.8-12.5,4-12.5,10.6
		c0,6.2,5.5,8.4,10.6,8.4c2.9,0,5.9-0.4,8.1-2.2c2.2-1.8,2.6-3.7,2.6-6.6v-13.2H373z"/>
	<path fill="#0C499B" d="M421.1,414.1c-3.3,0-7-0.4-9.9-2.2c-1.8-0.7-3.3-1.8-5.1-1.8c0,1.5,0.4,2.9-1.8,2.9h-9.9
		c-0.7,0-1.5-0.7-1.5-1.5v-79.7c0-0.7,0.7-1.5,1.5-1.5h11c0.7,0,1.5,0.7,1.5,1.5v25c2.2,0,2.9-0.4,4.8-1.1c3.7-1.8,7.3-2.6,11.4-2.6
		c17.3,0,26.4,14.3,26.4,30.1C449.8,400.5,439.1,414.1,421.1,414.1 M418.9,362.7c-2.9,0-5.9,0.7-8.1,1.8c-2.6,1.5-3.7,3.3-3.7,6.2
		V395c0,7,5.9,8.8,12.1,8.8c4.4,0,8.8-1.8,11.7-4.8c4-4,4.8-10.6,4.8-16.2C435.5,372.6,431.4,362.7,418.9,362.7z"/>
	<path fill="#0C499B" d="M501.9,410.8c-4.8,2.2-12.1,3.3-17.3,3.3c-18.7,0-29.4-11.7-29.4-30.1c0-18,11.4-31.2,29.7-31.2
		c4.4,0,8.8,0.7,13.2,1.8c2.2,0.7,5.9,1.1,5.9,4v6.2c0,0.7-0.4,1.5-1.1,1.5s-1.8-0.4-2.2-0.7c-4-2.2-8.4-3.3-13.2-3.3
		c-13.2,0-18,8.8-18,20.9c0,11.7,4.4,20.6,17.3,20.6c4.8,0,9.9-1.5,14-3.7c0.7-0.4,1.5-0.7,2.2-0.7c1.8,0,1.1,6.6,1.1,7.7
		C503.7,409.7,503.7,410.1,501.9,410.8"/>
	<path fill="#0C499B" d="M555.5,408.6c-5.9,5.1-12.5,6.2-19.8,6.2c-7.7,0-14-1.1-19.8-6.2c-7-6.2-9.2-15.4-9.2-25
		c0-9.5,2.2-18.4,9.5-25c6.2-5.5,12.5-6.2,20.6-6.2c19.5,0,28.3,12.8,28.3,31.2C564.7,393.5,562.5,402.4,555.5,408.6 M535.7,362.7
		c-11.7,0-15.1,11.4-15.1,20.9s3.3,21.7,15.1,21.7c11.4,0,14.7-11.4,14.7-20.9C550.4,374.8,547.1,362.7,535.7,362.7z"/>
	<path fill="#0C499B" d="M616.1,410.8c-4.8,2.2-12.1,3.3-17.3,3.3c-18.7,0-29.4-11.7-29.4-30.1c0-18,11.4-31.2,29.7-31.2
		c4.4,0,8.8,0.7,13.2,1.8c2.2,0.7,5.9,1.1,5.9,4v6.2c0,0.7-0.4,1.5-1.1,1.5c-0.7,0-1.8-0.4-2.2-0.7c-4-2.2-8.4-3.3-13.2-3.3
		c-13.2,0-18,8.8-18,20.9c0,11.7,4.4,20.6,17.3,20.6c4.8,0,9.9-1.5,14.3-3.7c0.7-0.4,1.5-0.7,2.2-0.7c1.8,0,1.1,6.6,1.1,7.7
		C618.3,409.7,617.9,410.1,616.1,410.8"/>
	<path fill="#0C499B" d="M674.4,413.4h-12.8c-1.8,0-2.2-0.4-3.3-1.8l-17.3-25c-0.7-1.1-1.8-0.7-2.9-0.7v26.4c0,0.7-0.7,1.5-1.5,1.5
		h-11c-0.7,0-1.5-0.7-1.5-1.5v-80.4c0-0.7,0.7-1.5,1.5-1.5h11c0.7,0,1.5,0.7,1.5,1.5V377h1.5c0.7,0,1.1-0.4,1.8-0.7l18-20.2
		c1.1-1.1,1.5-1.8,2.9-1.8h11c0.7,0,1.8,0.4,1.8,1.5c0,0.7-0.7,1.8-1.5,2.2l-20.6,22l22.4,30.1c0.7,0.7,1.1,1.5,1.1,2.6
		C676.3,413,675.2,413.4,674.4,413.4"/>
	<g>
		<g>
			<path fill="#FFFFFF" d="M110.2,764.7c0,0.4-0.4,0.7-1.1,1.5c-0.7,0.4-1.5,0.7-2.6,1.1c-1.1,0.4-2.2,0.7-3.3,0.7
				c-1.1,0.4-2.6,0.4-3.7,0.4c-5.5,0-9.5-1.1-11.7-3.7c-2.2-2.6-3.3-6.2-3.3-11v-34.5c0-1.1-0.4-1.5-1.1-1.5h-6.6
				c-1.1,0-1.8-0.7-1.8-1.8v-2.6c0-1.1,0.7-1.8,1.8-1.8h6.6c0.7,0,1.1-0.4,1.1-1.5v-12.1c0-1.1,0.7-1.8,1.8-1.8H90
				c1.1,0,1.8,0.7,1.8,1.8V710c0,0.7,0.4,1.5,1.1,1.5h15.4c1.1,0,1.8,0.7,1.8,1.8v2.6c0,1.1-0.7,1.8-1.8,1.8H92.9
				c-0.7,0-1.1,0.4-1.1,1.5v34.1c0,2.9,0.7,5.5,1.8,7c1.1,1.5,3.3,2.2,6.2,2.2c1.5,0,2.6,0,3.7-0.4c1.1-0.4,1.8-0.4,2.6-0.7
				c0.7-0.4,1.5-0.7,1.8-0.7c0.4-0.4,0.7-0.4,1.1-0.4c0.7,0,0.7,0.4,0.7,1.1v3.3"/>
		</g>
	</g>
	<path fill="#FFFFFF" d="M149.5,717.3c0,0.7-0.4,1.5-1.1,1.5c-0.4,0-0.7,0-1.1-0.4c-0.4,0-0.7-0.4-1.5-0.4c-0.7,0-1.5-0.4-2.2-0.4
		c-1.1,0-2.2-0.4-3.7-0.4s-2.6,0-3.7,0.4s-2.2,0.7-2.9,1.5s-1.5,1.5-2.2,2.6c-0.4,1.1-0.7,2.6-0.7,4v40c0,1.1-0.7,1.8-1.8,1.8h-3.7
		c-1.1,0-1.8-0.7-1.8-1.8v-52.5c0-1.1,0.4-1.8,1.8-1.8h3.7c1.1,0,1.5,0.4,1.5,1.5v1.1c0,0.7,0.4,0.7,0.7,0.7c0.7,0,1.5-0.4,2.6-0.7
		c1.1-0.4,2.2-1.1,3.3-1.5c1.1-0.7,2.6-1.1,4-1.5c1.5-0.4,2.9-0.7,4.8-0.7c1.8,0,2.9,0,3.3,0.4s0.7,0.7,0.7,1.5V717.3"/>
	<g>
		<g>
			<path fill="#FFFFFF" d="M202,765.8c0,1.1-0.4,1.8-1.5,1.8h-3.7c-1.1,0-1.5-0.7-1.5-1.8c0-0.7-0.4-1.1-1.1-1.1
				c-0.7,0-1.5,0-2.6,0.4c-0.7,0.4-1.8,0.7-3.3,1.1c-1.1,0.4-2.6,0.7-4.4,1.1c-1.5,0.4-3.7,0.7-5.9,0.7c-3.3,0-6.2-0.4-9.2-1.1
				c-2.9-0.7-5.1-2.2-6.6-4.4c-0.7-1.1-1.5-2.2-2.2-3.3c-0.4-1.1-1.1-2.6-1.1-4c-0.4-1.5-0.4-2.9-0.7-4.8c0-1.8,0-4,0-6.2v-31.2
				c0-1.1,0.7-1.8,1.8-1.8h4c1.1,0,1.8,0.7,1.8,1.8v35.2c0,2.6,0.4,4.4,0.7,6.2c0.4,1.8,1.5,3.3,2.6,4.4c1.1,1.1,2.6,1.8,4.8,2.6
				c1.8,0.7,4.4,0.7,7,0.7c1.1,0,2.6,0,4-0.4c1.5-0.4,2.9-0.7,4-1.1c1.8-0.7,2.9-1.5,3.7-2.2c0.7-0.7,1.1-2.2,1.1-4v-41.9
				c0-1.1,0.4-1.8,1.5-1.8h4.4c1.1,0,1.8,0.7,1.8,1.8v53.2"/>
		</g>
		<g>
			<path fill="#FFFFFF" d="M248.2,752.2c0,5.1-1.5,9.2-4.8,12.1c-3.3,2.6-7.7,4-13.6,4c-2.2,0-4.4,0-5.9-0.4
				c-1.5-0.4-2.9-0.7-4.4-1.1s-2.6-1.1-2.9-1.5c-0.4-0.4-0.7-1.1-0.7-1.8v-4.4c0-0.7,0.4-1.1,1.1-1.1c0.4,0,1.1,0.4,1.5,0.7
				s1.5,1.1,2.2,1.5c1.1,0.7,2.2,1.1,3.3,1.5c1.5,0.4,2.9,0.7,4.8,0.7c4,0,6.6-0.7,8.4-2.2c1.8-1.5,2.6-3.7,2.6-6.6
				c0-1.8-0.4-3.3-1.1-4.8c-0.7-1.5-2.6-2.9-5.1-4.8l-9.5-6.2c-3.3-2.2-5.1-4-6.2-6.2c-1.1-1.8-1.5-4-1.5-6.6
				c0-4.4,1.5-7.7,4.4-10.3c2.9-2.6,7-3.7,12.8-3.7c2.2,0,4.4,0,5.9,0.4c1.5,0.4,2.9,0.7,4.8,1.5c1.1,0.4,1.8,0.7,2.2,1.5
				c0.4,0.4,0.4,1.1,0.4,1.8v4c0,0.7-0.4,1.5-1.1,1.5c-0.4,0-1.1-0.4-1.5-0.7c-0.7-0.4-1.5-1.1-2.6-1.5c-1.1-0.4-2.2-1.1-3.3-1.5
				c-1.5-0.4-2.9-0.7-4.8-0.7c-3.3,0-5.9,0.7-7.7,2.2c-1.5,1.5-2.2,2.9-2.2,5.1c0,1.5,0.4,2.9,1.5,4.4c0.7,1.1,2.6,2.6,4.8,4.4
				l9.9,6.6c2.9,1.8,5.1,4,6.2,6.2C247.5,747.1,248.2,749.6,248.2,752.2"/>
		</g>
		<g>
			<path fill="#FFFFFF" d="M289,764.7c0,0.4-0.4,0.7-1.1,1.5c-0.7,0.4-1.5,0.7-2.6,1.1c-1.1,0.4-2.2,0.7-3.3,0.7
				c-1.1,0.4-2.6,0.4-3.7,0.4c-5.5,0-9.5-1.1-11.7-3.7c-2.2-2.6-3.3-6.2-3.3-11v-34.5c0-1.1-0.4-1.5-1.1-1.5h-6.6
				c-1.1,0-1.8-0.7-1.8-1.8v-2.6c0-1.1,0.7-1.8,1.8-1.8h6.6c0.7,0,1.1-0.4,1.1-1.5v-12.1c0-1.1,0.7-1.8,1.8-1.8h3.7
				c1.1,0,1.8,0.7,1.8,1.8V710c0,0.7,0.4,1.5,1.1,1.5h15.4c1.1,0,1.8,0.7,1.8,1.8v2.6c0,1.1-0.7,1.8-1.8,1.8h-15.4
				c-0.7,0-1.1,0.4-1.1,1.5v34.1c0,2.9,0.7,5.5,1.8,7c1.1,1.5,3.3,2.2,6.2,2.2c1.5,0,2.6,0,3.7-0.4c1.1-0.4,1.8-0.4,2.6-0.7
				c0.7-0.4,1.5-0.7,1.8-0.7c0.4-0.4,0.7-0.4,1.1-0.4c0.7,0,0.7,0.4,0.7,1.1v3.3"/>
		</g>
		<g>
			<path fill="#FFFFFF" d="M345.1,737.9c0,1.5-0.7,1.8-1.8,1.8h-35.6c-1.1,0-1.8,0.4-1.8,1.5c0,6.2,1.5,11.4,4.8,15.1
				c3.3,3.7,8.1,5.5,14,5.5c2.9,0,5.1-0.4,7-0.7c1.8-0.4,3.7-0.7,4.8-1.5c1.1-0.4,2.2-1.1,2.9-1.5c0.7-0.4,1.5-0.7,1.8-0.7
				c0.7,0,1.1,0.4,1.1,1.5v3.3c0,0.7,0,1.1-0.4,1.5c-0.4,0.4-0.7,0.7-1.5,1.1c-4.8,1.8-10.6,2.9-16.9,2.9c-9.2,0-15.8-2.6-20.2-7.3
				c-4.4-5.1-6.2-12.1-6.2-20.9c0-5.1,0.7-9.2,1.8-12.8c1.1-3.7,2.9-6.6,5.1-9.2c2.2-2.6,4.8-4,8.1-5.5c2.9-1.1,6.6-1.8,10.3-1.8
				c2.9,0,5.9,0.4,8.8,1.5c2.6,1.1,5.1,2.6,7.3,4.8s3.7,4.8,4.8,7.7c1.1,3.3,1.8,7,1.8,11L345.1,737.9 M337.1,732.4
				c0-4.8-1.5-8.8-4.4-11.4c-2.9-2.6-6.6-4-11.4-4c-2.6,0-4.8,0.4-6.6,1.5c-1.8,1.1-3.7,2.2-4.8,3.7c-1.5,1.5-2.2,3.3-2.9,5.1
				c-0.7,1.8-1.1,3.7-1.1,5.5c0,0.4,0,0.7,0.4,0.7c0,0.4,0.4,0.4,1.1,0.4h28.3c0.4,0,0.7,0,1.1-0.4
				C337.1,733.5,337.1,733.1,337.1,732.4z"/>
		</g>
		<g>
			<path fill="#FFFFFF" d="M404.6,765.8c0,1.1-0.4,1.8-1.5,1.8h-3.7c-1.1,0-1.5-0.4-1.5-1.5c0-0.4-0.4-0.7-1.1-0.7s-1.1,0-1.8,0.4
				s-1.5,0.7-2.6,1.1s-2.6,0.7-4,1.1c-1.5,0.4-3.7,0.4-6.2,0.4c-8.1,0-14.3-2.6-18.7-7.3c-4.4-4.8-6.6-11.7-6.6-20.6
				c0-4.8,0.7-9.2,1.8-12.8s2.9-6.6,5.5-9.2c2.2-2.6,5.1-4.4,8.4-5.5c3.3-1.1,6.6-1.8,10.6-1.8c2.2,0,4,0,5.5,0.4
				c1.5,0.4,2.9,0.7,4,1.1c1.1,0.4,1.8,0.7,2.6,1.1c0.7,0.4,1.1,0.4,1.5,0.4c0.4,0,0.7-0.4,0.7-1.5v-22.4c0-1.1,0.7-1.8,1.8-1.8h4
				c1.1,0,1.8,0.7,1.8,1.8v75.6 M396.9,723.9c0-2.2-1.1-4-3.7-5.5c-2.6-1.5-5.5-2.2-9.5-2.2c-6.6,0-11.4,1.8-14.7,5.9
				s-5.1,9.9-5.1,17.6c0,3.3,0.4,6.6,1.1,9.2c0.7,2.9,1.8,5.1,3.7,7c1.5,1.8,3.7,3.7,6.2,4.4c2.6,1.1,5.5,1.5,9.2,1.5
				c4,0,7-0.7,9.5-2.2c2.2-1.5,3.7-3.3,3.7-5.5v-30.1H396.9z"/>
		</g>
		<g>
			<path fill="#FFFFFF" d="M478.4,764.7c0,0.4-0.4,0.7-1.1,1.5c-0.7,0.4-1.5,0.7-2.6,1.1c-1.1,0.4-2.2,0.7-3.3,0.7
				c-1.1,0.4-2.6,0.4-3.7,0.4c-5.5,0-9.5-1.1-11.7-3.7c-2.2-2.6-3.3-6.2-3.3-11v-34.5c0-1.1-0.4-1.5-1.1-1.5H445
				c-1.1,0-1.8-0.7-1.8-1.8v-2.6c0-1.1,0.7-1.8,1.8-1.8h6.6c0.7,0,1.1-0.4,1.1-1.5v-12.1c0-1.1,0.7-1.8,1.8-1.8h3.7
				c1.1,0,1.8,0.7,1.8,1.8V710c0,0.7,0.4,1.5,1.1,1.5h15.4c1.1,0,1.8,0.7,1.8,1.8v2.6c0,1.1-0.7,1.8-1.8,1.8h-15.4
				c-0.7,0-1.1,0.4-1.1,1.5v34.1c0,2.9,0.7,5.5,1.8,7c1.1,1.5,3.3,2.2,6.2,2.2c1.5,0,2.6,0,3.7-0.4c1.1-0.4,1.8-0.4,2.6-0.7
				c0.7-0.4,1.5-0.7,1.8-0.7c0.4-0.4,0.7-0.4,1.1-0.4c0.7,0,0.7,0.4,0.7,1.1v3.3"/>
		</g>
		<g>
			<path fill="#FFFFFF" d="M539,739.4c0,4.4-0.4,8.4-1.5,11.7c-1.1,3.7-2.6,6.6-4.8,9.2c-2.2,2.6-4.8,4.4-8.1,5.9
				c-3.3,1.5-7,2.2-11.4,2.2c-8.4,0-14.7-2.6-19.1-7.7s-6.6-12.1-6.6-20.9c0-4.4,0.4-8.1,1.5-11.7s2.6-6.6,4.8-9.2
				c2.2-2.6,4.8-4.4,8.1-5.9c3.3-1.5,7-2.2,11.4-2.2c8.4,0,15.1,2.6,19.1,7.7C536.8,723.2,539,730.6,539,739.4 M531.3,739
				c0-4-0.4-7.3-1.5-9.9c-1.1-2.9-2.2-5.1-3.7-7s-3.3-3.3-5.5-4c-2.2-0.7-4.8-1.5-7.3-1.5c-2.6,0-5.1,0.4-7.3,1.1
				c-2.2,0.7-4,2.2-5.5,4c-1.5,1.8-2.9,4.4-3.7,7.3c-0.7,2.9-1.5,6.6-1.5,10.6c0,7.7,1.8,13.6,5.1,17.3s7.7,5.5,12.8,5.5
				c2.6,0,5.1-0.4,7.3-1.5c2.2-0.7,4-2.2,5.5-4s2.9-4.4,3.7-7C530.5,746.7,531.3,743,531.3,739z"/>
		</g>
		<g>
			<path fill="#FFFFFF" d="M627.5,765.8c0,1.1-0.4,1.8-1.5,1.8h-3.7c-1.1,0-1.5-0.4-1.5-1.5c0-0.4-0.4-0.7-1.1-0.7
				c-0.7,0-1.1,0-1.8,0.4c-0.7,0.4-1.5,0.7-2.6,1.1c-1.1,0.4-2.6,0.7-4,1.1c-1.5,0.4-3.7,0.4-6.2,0.4c-8.1,0-14.3-2.6-18.7-7.3
				s-6.6-11.7-6.6-20.6c0-4.8,0.7-9.2,1.8-12.8c1.1-3.7,2.9-6.6,5.5-9.2c2.2-2.6,5.1-4.4,8.4-5.5c3.3-1.1,6.6-1.8,10.6-1.8
				c2.2,0,4,0,5.5,0.4c1.5,0.4,2.9,0.7,4,1.1c1.1,0.4,1.8,0.7,2.6,1.1c0.7,0.4,1.1,0.4,1.5,0.4s0.7-0.4,0.7-1.5v-22.4
				c0-1.1,0.7-1.8,1.8-1.8h4c1.1,0,1.8,0.7,1.8,1.8v75.6 M620.1,723.9c0-2.2-1.1-4-3.7-5.5c-2.6-1.5-5.5-2.2-9.5-2.2
				c-6.6,0-11.4,1.8-14.7,5.9c-3.3,4-5.1,9.9-5.1,17.6c0,3.3,0.4,6.6,1.1,9.2c0.7,2.6,1.8,5.1,3.7,7c1.5,1.8,3.7,3.7,6.2,4.4
				c2.6,1.1,5.5,1.5,9.2,1.5c4,0,7-0.7,9.5-2.2c2.2-1.5,3.7-3.3,3.7-5.5v-30.1H620.1z"/>
		</g>
		<g>
			<path fill="#FFFFFF" d="M689.9,737.9c0,1.5-0.7,1.8-1.8,1.8h-35.6c-1.1,0-1.8,0.4-1.8,1.5c0,6.2,1.5,11.4,4.8,15.1
				c3.3,3.7,8.1,5.5,14,5.5c2.9,0,5.1-0.4,7.3-0.7c1.8-0.4,3.3-0.7,4.8-1.5c1.1-0.4,2.2-1.1,2.9-1.5c0.7-0.4,1.5-0.7,1.8-0.7
				c0.7,0,1.1,0.4,1.1,1.5v3.3c0,0.7,0,1.1-0.4,1.5c-0.4,0.4-0.7,0.7-1.5,1.1c-4.8,1.8-10.3,2.9-16.9,2.9c-9.2,0-15.8-2.6-20.2-7.3
				c-4.4-5.1-6.2-12.1-6.2-20.9c0-5.1,0.7-9.2,1.8-12.8c1.1-3.7,2.9-6.6,5.1-9.2s4.8-4,8.1-5.5c2.9-1.1,6.6-1.8,10.3-1.8
				c2.9,0,5.9,0.4,8.8,1.5c2.6,1.1,5.1,2.6,7,4.8c2.2,2.2,3.7,4.8,4.8,7.7c1.1,3.3,1.8,7,1.8,11V737.9 M681.8,732.4
				c0-4.8-1.5-8.8-4.4-11.4c-2.9-2.6-6.6-4-11.4-4c-2.6,0-4.8,0.4-6.6,1.5c-1.8,1.1-3.7,2.2-4.8,3.7c-1.5,1.5-2.2,3.3-2.9,5.1
				s-1.1,3.7-1.1,5.5c0,0.4,0,0.7,0.4,0.7c0,0.4,0.4,0.4,1.1,0.4h28.6c0.4,0,0.7,0,1.1-0.4C681.8,733.5,681.8,733.1,681.8,732.4z"/>
		</g>
	</g>
	<path fill="#FFFFFF" d="M712.3,765.8c0,1.1-0.7,1.8-1.8,1.8h-3.7c-1.1,0-1.8-0.7-1.8-1.8v-75.6c0-1.1,0.7-1.8,1.5-1.8h4
		c1.1,0,1.5,0.7,1.5,1.8v75.6"/>
	<path fill="#FFFFFF" d="M740.2,693.5c0,2.2-0.4,3.7-1.5,4.4c-1.1,0.7-2.2,1.1-3.7,1.1s-2.9-0.4-3.7-1.5c-0.7-1.1-1.5-2.2-1.5-4.4
		c0-1.8,0.4-3.3,1.5-4c1.1-0.7,2.2-1.5,3.7-1.5s2.9,0.4,3.7,1.5C739.4,690.2,740.2,691.6,740.2,693.5 M738.3,765.8
		c0,1.1-0.7,1.8-1.8,1.8h-3.7c-1.1,0-1.8-0.7-1.8-1.8v-52.5c0-1.1,0.7-1.8,1.8-1.8h3.7c1.1,0,1.8,0.7,1.8,1.8V765.8z"/>
	<g>
		<g>
			<path fill="#FFFFFF" d="M798.9,712.2c0,0.4-0.4,1.1-0.7,2.6l-18.4,50.3c-0.4,1.5-1.1,2.2-1.5,2.6c-0.4,0.4-1.1,0.7-1.8,0.7h-4.8
				c-0.7,0-1.5-0.4-1.8-0.7c-0.4-0.4-0.7-1.1-1.5-2.9l-18.4-50.3c-0.4-1.1-0.7-1.8-0.7-1.8c0-0.7,0.4-1.1,1.5-1.1h5.1
				c1.1,0,1.5,0.4,1.8,1.5l15.8,45.9c0.4,1.1,0.7,1.5,1.1,1.5s0.7-0.4,1.1-1.5l15.8-46.3c0.4-0.7,0.7-1.1,1.5-1.1h4.8
				C798.5,711.5,798.9,711.8,798.9,712.2"/>
		</g>
		<g>
			<path fill="#FFFFFF" d="M852.9,737.9c0,1.5-0.7,1.8-1.8,1.8h-35.6c-1.1,0-1.5,0.4-1.5,1.5c0,6.2,1.5,11.4,4.8,15.1
				c3.3,3.7,8.1,5.5,14,5.5c2.9,0,5.1-0.4,7-0.7s3.3-0.7,4.8-1.5c1.1-0.4,2.2-1.1,2.9-1.5c0.7-0.4,1.5-0.7,1.8-0.7
				c0.7,0,1.1,0.4,1.1,1.5v3.3c0,0.7,0,1.1-0.4,1.5c-0.4,0.4-0.7,0.7-1.5,1.1c-4.8,1.8-10.6,2.9-16.9,2.9c-9.2,0-15.8-2.6-20.2-7.3
				c-4.4-5.1-6.2-12.1-6.2-20.9c0-5.1,0.7-9.2,1.8-12.8c1.1-3.7,2.9-6.6,5.1-9.2c2.2-2.6,4.8-4,8.1-5.5c2.9-1.1,6.6-1.8,10.3-1.8
				c2.9,0,5.9,0.4,8.8,1.5c2.6,1.1,5.1,2.6,7.3,4.8s3.7,4.8,4.8,7.7c1.1,3.3,1.8,7,1.8,11v2.9 M845.2,732.4c0-4.8-1.5-8.8-4.4-11.4
				c-2.9-2.6-6.6-4-11.4-4c-2.6,0-4.8,0.4-6.6,1.5s-3.7,2.2-4.8,3.7c-1.5,1.5-2.2,3.3-2.9,5.1c-0.7,1.8-1.1,3.7-1.1,5.5
				c0,0.4,0,0.7,0.4,0.7c0,0.4,0.4,0.4,1.1,0.4h28.6c0.4,0,0.7,0,1.1-0.4C844.8,733.5,845.2,733.1,845.2,732.4z"/>
		</g>
	</g>
	<path fill="#FFFFFF" d="M894.3,717.3c0,0.7-0.4,1.5-1.1,1.5c-0.4,0-0.7,0-1.1-0.4c-0.4,0-0.7-0.4-1.5-0.4c-0.7,0-1.5-0.4-2.2-0.4
		c-1.1,0-2.2-0.4-3.7-0.4s-2.6,0-3.7,0.4c-1.1,0.4-2.2,0.7-2.9,1.5s-1.5,1.5-2.2,2.6c-0.4,1.1-0.7,2.6-0.7,4v40
		c0,1.1-0.7,1.8-1.8,1.8h-3.7c-1.1,0-1.8-0.7-1.8-1.8v-52.5c0-1.1,0.7-1.8,1.8-1.8h3.7c1.1,0,1.5,0.4,1.5,1.5v1.1
		c0,0.7,0.4,0.7,0.7,0.7c0.7,0,1.5-0.4,2.6-0.7c1.1-0.4,2.2-1.1,3.3-1.5c1.1-0.7,2.6-1.1,4-1.5c1.5-0.4,2.9-0.7,4.8-0.7
		s2.9,0,3.3,0.4c0.7,0.4,0.7,0.7,0.7,1.5L894.3,717.3"/>
	<path fill="#FFFFFF" d="M917.1,683.9c0,0.4-0.4,0.7-0.7,0.7h-8.1c-0.4,0-0.4,0-0.4,0.4v26.4c0,0.4-0.4,0.7-0.7,0.7h-1.5
		c-0.4,0-0.7-0.4-0.7-0.7V685c0-0.4,0-0.4-0.4-0.4h-8.1c-0.4,0-0.7-0.4-0.7-0.7v-0.7c0-0.4,0.4-0.7,0.7-0.7h19.8
		c0.4,0,0.7,0.4,0.7,0.7V683.9"/>
	<g>
		<g>
			<path fill="#FFFFFF" d="M949,711.5c0,0.4-0.4,0.7-0.7,0.7h-1.8c-0.4,0-0.7-0.4-0.7-0.7V688c0-0.4,0-0.4,0-0.4s-0.4,0-0.4,0.4
				l-8.4,22.8c0,0.4-0.4,0.7-0.4,1.1c0,0-0.4,0.4-0.7,0.4h-1.5c-0.4,0-0.7,0-0.7-0.4s-0.4-0.4-0.7-1.1l-8.4-22.8v-0.4l0,0
				c0,0,0,0,0,0.4v23.5c0,0.4-0.4,0.7-0.7,0.7h-1.1c-0.4,0-0.7-0.4-0.7-0.7v-28.3c0-0.4,0.4-0.7,0.7-0.7h2.2c0.4,0,0.7,0,0.7,0
				s0.4,0.4,0.4,0.7l9.5,25.3c0,0.4,0.4,0.4,0.4,0.4s0.4,0,0.4-0.4l9.2-25.3c0-0.4,0.4-0.7,0.4-0.7s0.4,0,0.7,0h2.2
				c0.4,0,0.7,0.4,0.7,0.7v28.3"/>
		</g>
	</g>
</g>
</svg>
