<?xml version="1.0" encoding="utf-8"?>
<!-- Generator: Adobe Illustrator 21.1.0, SVG Export Plug-In . SVG Version: 6.00 Build 0)  -->
<svg version="1.1" xmlns="http://www.w3.org/2000/svg" xmlns:xlink="http://www.w3.org/1999/xlink" x="0px" y="0px"
	 viewBox="0 0 160 160" style="enable-background:new 0 0 160 160;" xml:space="preserve">
<style type="text/css">
	.st0{fill:#FFFFFF;}
</style>
<g id="circle">
	<path class="st0" d="M80,2c43,0,78,35,78,78s-35,78-78,78S2,123,2,80S37,2,80,2 M80,0C35.8,0,0,35.8,0,80s35.8,80,80,80
		s80-35.8,80-80S124.2,0,80,0L80,0z"/>
</g>
<g id="completer_finisher">
	<g>
		<g>
			<path class="st0" d="M72.9,37.5L66.6,29l4.2-9.6l10.5-1.2l6.3,8.5l-4.2,9.7L72.9,37.5z M68.9,28.7l4.9,6.7l8.2-1l3.3-7.5
				l-4.9-6.7l-8.2,1L68.9,28.7z"/>
		</g>
		<g>
			<path class="st0" d="M74.1,143l-23.7-19.8l0.7-0.8c4.4-4.8,16.1-17.9,17.2-21.3l0.1-0.2c0,0,1.6-3,0-5.4l-0.1-0.2l0-0.2
				c0,0-0.1-1.1-0.1-3.1c0-0.8,0.1-2,0.2-3.4c0.2-2.5,0.4-5.7,0.3-8c-0.2-4,1.6-8,1.7-8.1c0.8-2,3.1-7.7,3.2-9.5
				c0.2-2.5,1.9-4.7,2-4.8l0.2-0.2c1.5-1.1,4-3.1,4.5-4.2c0.5-1,1.2-1.6,2-1.8c0.7-0.1,1.5,0.2,2.2,0.8c0.1,0.1,0.2,0.3,0.4,0.5
				l-0.1-1.2c0-0.1-0.4-3-4.4-3.7l-0.5-0.1c-5-0.9-8-1.5-11.4-6l-3.6-4.9c-2.2-3-0.1-4.9,2.7-7l0.8-0.6l6.4,8.7l9.9-1l3.9-9.1
				l-6.4-8.7l0.8-0.6c1.9-1.4,3.1-2,4.1-2.1c1.7-0.2,2.7,0.9,3.3,1.7l3.6,4.9c3.3,4.5,4.7,6.9,2.4,14.8c-0.5,1.9-0.4,4-0.4,4
				l0.8,10.2c0.4-0.2,0.5-0.2,0.7-0.2c1.2,0,4.2,0.3,6.4,3l0.1,0.2l0.1,0.2c0,0.1,0.5,2.2-0.5,4c-0.4,0.7-1.2,1.7-1.9,2.7
				c-0.9,1.1-1.9,2.5-2.3,3.2c0.3,0.2,1,0.3,1.6,0.4l0.2,0l0.2,0.1c0.6,0.3,3.6,1.8,4.1,3.7c0.3,1.1,0.3,2.4,0.3,3.4
				c0,0.3,0,0.6,0,0.8c0.1,0.1,0.1,0.3,0.2,0.4c0.1,0.4,0.3,1,0.9,1.6c0.9,0.8,1.3,2.9,1.3,6.2c0,0.3,0.4,1.8,1.3,3.2
				c1.2,2,0.8,7.3-1.2,9.9c-1.7,2.2-4.4,6.3-5,7.8c-0.6,1.5-2.4,3-4,4.5c-0.5,0.4-0.9,0.8-1.3,1.2c-1.8,1.7-14.1,15.9-18.2,24.4
				L74.1,143z M53.3,123l20.2,16.9l4-7.4c4.2-8.6,16.8-23.1,18.6-24.9c0.4-0.4,0.8-0.8,1.3-1.2c1.4-1.2,3.1-2.7,3.5-3.8
				c0.8-1.9,3.7-6.1,5.3-8.3c1.5-2,1.8-6.5,1.1-7.7c-1-1.7-1.5-3.7-1.5-4.2c0-3-0.4-4.5-0.6-4.8c-1-0.9-1.3-1.9-1.5-2.4
				c0-0.1,0-0.1-0.1-0.2c-0.2-0.3-0.2-0.7-0.2-1.6c0-0.9,0-2.1-0.2-2.9c-0.2-0.7-1.8-1.8-2.9-2.4c-0.7-0.1-2.4-0.4-3.1-1.4
				c-0.3-0.5-0.3-1-0.1-1.5c0.3-0.8,1.3-2.1,2.6-3.9c0.7-1,1.5-2,1.8-2.5c0.5-0.9,0.4-1.9,0.4-2.3c-1.5-1.8-3.6-2-4.5-2.1
				c-0.1,0.1-0.5,0.2-1.2,0.6l-1.4,0.8l-1.1-13.3c0-0.1-0.1-2.5,0.5-4.7c2.1-7.3,0.9-9-2.1-13.1l-3.6-4.9C87.8,19,87.4,19,87.1,19
				c-0.6,0.1-1.5,0.6-2.4,1.2l5.9,8l-4.9,11.2l-12.2,1.2l-5.9-8c-2.6,2-2.1,2.6-1.4,3.6l3.6,4.9c2.9,3.9,5.2,4.3,10.1,5.3l0.5,0.1
				c5.5,1,6,5.3,6,5.5l1.3,13l-0.2,0.3c-1,1.4-1.4,1.9-1.7,2.1c-1,0.8-2.5,2.8-3,3.5l-2.4,3.5l0.6-4.2c0.2-1.6,0.2-5.6,0.2-5.6
				l0-0.5l0.3-0.3c0,0,1.4-1.3,2.1-3.6c0.7-2.3-0.5-5.5-0.9-5.9c-0.2-0.2-0.4-0.3-0.4-0.2c-0.1,0-0.3,0.2-0.5,0.7
				c-0.8,1.7-4.2,4.3-5,4.8c-0.3,0.4-1.3,2-1.5,3.6c-0.2,2.4-3.1,9.3-3.4,10.1c0,0.1-1.7,3.8-1.5,7.3c0.1,2.5-0.1,5.7-0.3,8.2
				c-0.1,1.4-0.2,2.6-0.2,3.3c0,1.4,0.1,2.3,0.1,2.6c1.9,3.1,0.3,6.6,0,7.2C68.7,106,56.6,119.3,53.3,123z M83.3,64.9
				c0,0.5,0,1.3,0,2.2c0.4-0.5,0.9-1,1.3-1.3c0.1-0.1,0.3-0.3,1.1-1.4l-0.3-3.1C84.8,63.2,83.8,64.4,83.3,64.9z"/>
		</g>
	</g>
</g>
</svg>
