<?xml version="1.0" encoding="utf-8"?>
<!-- Generator: Adobe Illustrator 21.1.0, SVG Export Plug-In . SVG Version: 6.00 Build 0)  -->
<svg version="1.1" xmlns="http://www.w3.org/2000/svg" xmlns:xlink="http://www.w3.org/1999/xlink" x="0px" y="0px"
	 viewBox="0 0 160 160" style="enable-background:new 0 0 160 160;" xml:space="preserve">
<style type="text/css">
	.st0{fill:#FFFFFF;}
</style>
<g id="circle">
	<path class="st0" d="M80,2c43,0,78,35,78,78s-35,78-78,78S2,123,2,80S37,2,80,2 M80,0C35.8,0,0,35.8,0,80s35.8,80,80,80
		s80-35.8,80-80S124.2,0,80,0L80,0z"/>
</g>
<g id="co_ordinator">
	<g>
		<path class="st0" d="M110.2,48.6c-0.4,0-0.8-0.2-0.9-0.6l-9.7-21.8c-0.2-0.5,0-1.1,0.5-1.3c0.5-0.2,1.1,0,1.3,0.5l9.7,21.8
			c0.2,0.5,0,1.1-0.5,1.3C110.4,48.6,110.3,48.6,110.2,48.6z"/>
	</g>
	<g>
		<path class="st0" d="M74.6,50.6c-5.7,0-10.4-4.7-10.4-10.4c0-5.7,4.7-10.4,10.4-10.4c5.7,0,10.4,4.7,10.4,10.4
			C85,46,80.4,50.6,74.6,50.6z M74.6,31.8c-4.6,0-8.4,3.8-8.4,8.4c0,4.6,3.8,8.4,8.4,8.4c4.6,0,8.4-3.8,8.4-8.4
			C83,35.6,79.3,31.8,74.6,31.8z"/>
	</g>
	<g>
		<path class="st0" d="M80.2,135.2c-2.8,0-5.1-1.9-5.7-4.5c-0.6,2.6-3,4.5-5.7,4.5c-3.3,0-5.9-2.6-5.9-5.9V93.6c0-0.1,0-0.2,0-0.4
			c0-0.1,0-0.2,0-0.2V77.3l-3,7.6c-1.2,2.9-4.5,4.4-7.4,3.2c-1.4-0.6-2.5-1.6-3.1-3c-0.6-1.4-0.6-2.9-0.1-4.4l10.2-25.6
			c0.9-2.2,3-3.6,5.4-3.6l0.1,0H84c0.2,0,0.4,0,0.6,0.1c0.2,0,0.5,0.1,0.7,0.2l7.9,2.6l5.2-7.4c0.9-1.2,2.2-2.1,3.7-2.3
			c1.5-0.3,3,0.1,4.3,0.9l0,0c2.6,1.8,3.2,5.4,1.4,7.9l-7,10c-0.4,0.6-1,1.1-1.6,1.5c-1.5,1.5-3.7,2-5.7,1.3L86.1,64v29
			c0,0.1,0,0.2,0,0.2c0,0.1,0,0.2,0,0.4v35.6C86.1,132.5,83.5,135.2,80.2,135.2z M72.7,93.1h3.7v36.2c0,2.1,1.7,3.9,3.9,3.9
			c2.1,0,3.9-1.7,3.9-3.9V93.6c0-0.1,0-0.2,0-0.3l0-0.1l0-0.1l0-31.8l10,3.2c1.3,0.4,2.8,0.1,3.8-0.9l0.2-0.1c0.4-0.3,0.8-0.6,1.1-1
			l7-10c1.2-1.7,0.8-4-0.9-5.1c-0.8-0.6-1.8-0.8-2.8-0.6c-1,0.2-1.8,0.7-2.4,1.5l-6,8.6l-9.3-3c-0.2-0.1-0.3-0.1-0.5-0.1l-0.2,0
			l-19.1,0l-0.1,0c-1.6,0-3,0.9-3.6,2.3L51.1,81.5c-0.4,0.9-0.3,1.9,0,2.8c0.4,0.9,1.1,1.6,2,2c1.9,0.8,4-0.2,4.8-2.1l6.9-17.4
			l0,26.5c0,0.1,0,0.2,0,0.3v35.6c0,2.1,1.7,3.9,3.9,3.9s3.9-1.7,3.9-3.9V93.1z"/>
	</g>
</g>
</svg>
