<?xml version="1.0" encoding="utf-8"?>
<!-- Generator: Adobe Illustrator 21.1.0, SVG Export Plug-In . SVG Version: 6.00 Build 0)  -->
<svg version="1.1" xmlns="http://www.w3.org/2000/svg" xmlns:xlink="http://www.w3.org/1999/xlink" x="0px" y="0px"
	 viewBox="0 0 160 160" style="enable-background:new 0 0 160 160;" xml:space="preserve">
<style type="text/css">
	.st0{fill:#FFFFFF;}
</style>
<g id="circle">
	<path class="st0" d="M80,2c43,0,78,35,78,78s-35,78-78,78S2,123,2,80S37,2,80,2 M80,0C35.8,0,0,35.8,0,80s35.8,80,80,80
		s80-35.8,80-80S124.2,0,80,0L80,0z"/>
</g>
<g id="implementer">
	<g>
		<path class="st0" d="M60.4,110.3l-0.3-0.6c-0.9-2-2-4.5-3.1-7.6c-1.6-0.1-3.2-0.3-4.8-0.5c-1.8,2.8-3.3,5-4.7,6.7l-0.4,0.5
			l-0.7-0.2c-2.5-0.7-4.9-1.7-7.2-2.8l-0.6-0.3l0.1-0.7c0.2-2.2,0.6-4.9,1.2-8.1c-1.4-0.9-2.6-1.8-3.9-2.8c-2.9,1.5-5.4,2.7-7.4,3.5
			l-0.6,0.3l-0.5-0.5c-1.8-1.9-3.4-3.9-4.8-6l-0.4-0.6l0.4-0.6c1.3-1.8,3-4,5-6.4c-0.7-1.4-1.4-2.9-1.9-4.4c-3.2-0.1-6-0.4-8.1-0.7
			l-0.7-0.1l-0.2-0.9c0-0.1-0.1-0.2-0.1-0.3c-0.5-2.3-0.9-4.6-1-7l0-0.7l0.6-0.3c2-0.9,4.6-2,7.6-3c0.1-1.6,0.3-3.2,0.5-4.8
			c-2.7-1.7-5-3.3-6.7-4.7l-0.5-0.4l0.2-0.7c0.7-2.5,1.7-4.9,2.8-7.2l0.3-0.6l0.7,0.1c2.2,0.2,4.9,0.6,8.1,1.2
			c0.9-1.3,1.8-2.6,2.8-3.9c-1.5-2.9-2.7-5.4-3.5-7.4l-0.3-0.6l0.5-0.5c1.9-1.8,3.9-3.4,6-4.8l0.6-0.4l0.6,0.4c1.8,1.3,4,3,6.4,5.1
			c1.4-0.7,2.9-1.4,4.4-1.9c0.1-3.2,0.4-6,0.7-8.1l0.1-0.7l1.3-0.3c2.3-0.5,4.7-0.9,7-1l0.7,0l0.3,0.6c0.9,2,2,4.5,3,7.6
			c1.6,0.1,3.2,0.2,4.8,0.5c1.7-2.7,3.3-5,4.7-6.7l0.4-0.5l0.7,0.2c2.5,0.7,4.9,1.7,7.2,2.8l0.6,0.3l-0.1,0.7
			c-0.2,2.2-0.6,5-1.2,8.1c1.3,0.9,2.6,1.8,3.9,2.8c2.8-1.5,5.3-2.6,7.4-3.5l0.6-0.3l0.5,0.5c1.8,1.9,3.4,3.9,4.8,6l0.4,0.6
			l-0.4,0.6c-1.3,1.8-3,4-5.1,6.4c0.7,1.4,1.4,2.9,1.9,4.4c3.2,0.1,5.9,0.4,8.1,0.7l0.7,0.1l0.3,1.3c0.5,2.3,0.9,4.7,1,7l0,0.7
			l-0.6,0.3c-2,0.9-4.5,2-7.6,3c-0.1,1.6-0.2,3.2-0.5,4.8c2.7,1.7,4.9,3.3,6.7,4.7l0.5,0.4l-0.2,0.7c-0.7,2.5-1.7,4.9-2.8,7.2
			l-0.3,0.6l-0.7-0.1c-2.2-0.2-4.9-0.6-8.1-1.2c-0.9,1.4-1.8,2.6-2.8,3.9c1.5,2.8,2.6,5.3,3.5,7.4l0.3,0.6l-0.5,0.5
			c-1.9,1.8-3.9,3.4-6,4.8l-0.6,0.4l-0.6-0.4c-1.8-1.3-4-3-6.4-5c-1.4,0.7-2.9,1.4-4.4,1.9c-0.1,3.2-0.4,5.9-0.7,8.1l-0.1,0.7
			l-0.6,0.2c-0.2,0.1-0.4,0.1-0.6,0.2c-2.3,0.5-4.7,0.9-7,1L60.4,110.3z M51.4,99.3l0.7,0.1c1.9,0.4,3.8,0.6,5.8,0.7l0.7,0l0.2,0.6
			c1,3,2,5.4,2.9,7.4c2-0.2,4-0.5,5.9-0.9c0.3-2.2,0.5-4.9,0.6-8l0-0.7l0.7-0.2c1.8-0.6,3.6-1.4,5.3-2.3l0.6-0.3l0.5,0.4
			c2.4,2,4.5,3.7,6.2,5c1.6-1.1,3.2-2.4,4.7-3.7c-0.9-2-2-4.5-3.5-7.2l-0.3-0.6l0.5-0.5c1.3-1.4,2.4-3,3.5-4.7l0.4-0.6l0.7,0.1
			c3.1,0.6,5.7,1,7.9,1.2c0.9-1.8,1.6-3.7,2.2-5.6c-1.8-1.3-4-2.9-6.6-4.5l-0.6-0.4l0.1-0.7c0.4-1.9,0.6-3.9,0.6-5.8l0-0.7l0.6-0.2
			c2.9-1,5.4-2,7.4-2.9c-0.2-2-0.5-4-0.9-5.9c-2.2-0.3-4.9-0.5-8-0.6l-0.7,0l-0.2-0.7c-0.6-1.8-1.4-3.6-2.3-5.3l-0.3-0.6l0.4-0.5
			c2-2.4,3.7-4.5,5-6.2c-1.1-1.6-2.4-3.2-3.7-4.7c-2,0.9-4.5,2-7.2,3.5l-0.6,0.3l-0.5-0.5c-1.4-1.3-3-2.4-4.7-3.4l-0.6-0.4l0.1-0.7
			c0.6-3,1-5.7,1.2-7.9c-1.8-0.9-3.7-1.6-5.6-2.2c-1.3,1.7-2.8,4-4.5,6.6l-0.4,0.6l-0.7-0.1c-1.9-0.4-3.8-0.6-5.8-0.7l-0.7,0
			l-0.2-0.7c-1-2.9-2-5.4-2.9-7.4c-2,0.2-4,0.5-5.9,0.9c-0.3,2.2-0.5,4.8-0.6,8l0,0.7l-0.7,0.2c-1.8,0.6-3.6,1.4-5.3,2.3l-0.6,0.3
			l-0.5-0.4c-2.4-2-4.5-3.7-6.3-5c-1.6,1.1-3.2,2.4-4.7,3.7c0.8,2,2,4.4,3.5,7.2l0.3,0.6l-0.5,0.5c-1.3,1.5-2.4,3-3.4,4.7l-0.4,0.6
			l-0.7-0.1c-3.1-0.6-5.7-1-7.9-1.2c-0.9,1.8-1.6,3.7-2.2,5.6c1.7,1.3,4,2.8,6.6,4.5l0.6,0.4L26.6,61c-0.4,1.9-0.6,3.8-0.7,5.8
			l0,0.7l-0.6,0.2c-2.9,1-5.4,2-7.4,2.9c0.2,2,0.5,4,0.9,5.9c2.2,0.3,4.8,0.5,8,0.6l0.7,0l0.2,0.7c0.6,1.8,1.4,3.6,2.3,5.3l0.3,0.6
			l-0.4,0.5c-2,2.4-3.7,4.5-5,6.2c1.1,1.6,2.4,3.2,3.7,4.7c2-0.8,4.4-2,7.2-3.5l0.6-0.3l0.5,0.5c1.4,1.3,3,2.4,4.7,3.5l0.6,0.4
			l-0.1,0.7c-0.6,3.1-1,5.7-1.2,7.9c1.8,0.9,3.7,1.6,5.6,2.2c1.3-1.7,2.8-3.9,4.5-6.6L51.4,99.3z"/>
	</g>
	<g>
		<path class="st0" d="M114.7,135.2H114c-0.1,0-0.3,0-0.4,0c-1.5,0-3.1-0.2-4.6-0.5l-0.7-0.1l-0.1-0.7c-0.3-1.4-0.5-3-0.7-5
			c-0.8-0.3-1.7-0.6-2.5-0.9c-1.5,1.3-2.7,2.5-3.8,3.3l-0.5,0.4l-0.6-0.3c-1.4-0.9-2.8-1.8-4.1-2.9l-0.5-0.4l0.2-0.6
			c0.5-1.3,1.1-2.9,1.9-4.7c-0.6-0.6-1.2-1.3-1.7-2c-2,0.4-3.6,0.8-5,0.9l-0.7,0.1l-0.3-0.6c-0.8-1.4-1.5-3-2.1-4.6l-0.2-0.6
			l0.5-0.4c1-0.9,2.4-1.9,4-3.1c-0.2-0.9-0.3-1.7-0.4-2.6c-1.9-0.6-3.5-1.1-4.8-1.7l-0.6-0.3l0-1.1c0-1.6,0.2-3.1,0.5-4.6l0.1-0.7
			l0.7-0.1c1.4-0.3,3-0.5,5-0.7c0.3-0.8,0.6-1.7,0.9-2.5c-1.3-1.4-2.4-2.7-3.3-3.8l-0.4-0.5l0.3-0.6c0.8-1.4,1.8-2.8,2.9-4.1
			l0.4-0.5l0.6,0.2c1.3,0.5,2.8,1.1,4.7,1.9c0.7-0.6,1.3-1.2,2-1.7c-0.4-1.9-0.8-3.6-0.9-5l-0.1-0.7l0.6-0.3c1.5-0.8,3-1.5,4.6-2.1
			l0.6-0.2l0.4,0.5c0.9,1.1,1.9,2.4,3.1,4c0.9-0.2,1.7-0.3,2.6-0.4c0.6-1.9,1.1-3.5,1.7-4.8l0.3-0.6l1.1,0c1.5,0,3.1,0.2,4.6,0.5
			l0.7,0.1l0.1,0.7c0.3,1.4,0.5,3,0.7,5c0.8,0.3,1.7,0.6,2.5,0.9c1.5-1.3,2.7-2.5,3.8-3.3l0.5-0.4l0.6,0.3c1.4,0.9,2.8,1.8,4.1,2.9
			l0.5,0.4l-0.2,0.6c-0.5,1.3-1.1,2.9-1.9,4.7c0.6,0.7,1.2,1.3,1.7,2c1.9-0.4,3.6-0.8,4.9-0.9l0.7-0.1l0.3,0.6
			c0.8,1.5,1.5,3,2.1,4.6l0.2,0.6l-0.5,0.4c-1.1,0.9-2.4,1.9-4,3.1c0.2,0.9,0.3,1.7,0.4,2.6c1.9,0.6,3.5,1.1,4.8,1.7l0.6,0.3l0,1.1
			c0,1.5-0.2,3.1-0.5,4.6l-0.1,0.7l-0.7,0.1c-1.4,0.3-3,0.5-5,0.7c-0.3,0.8-0.6,1.7-0.9,2.5c1.3,1.4,2.4,2.7,3.3,3.8l0.4,0.5
			l-0.3,0.6c-0.9,1.4-1.8,2.8-2.9,4.1l-0.4,0.5l-0.6-0.2c-1.3-0.5-2.9-1.1-4.7-1.9c-0.7,0.6-1.3,1.2-2,1.7c0.4,1.9,0.8,3.6,0.9,4.9
			l0.1,0.7l-0.6,0.3c-1.5,0.8-3,1.5-4.6,2.1l-0.6,0.2l-0.4-0.5c-0.9-1-1.9-2.4-3.1-4c-0.9,0.2-1.7,0.3-2.6,0.4
			c-0.6,1.9-1.1,3.5-1.7,4.8L114.7,135.2z M110.1,132.9c1.1,0.2,2.2,0.3,3.3,0.3c0.5-1.2,1-2.8,1.5-4.6l0.2-0.7l0.7,0
			c1.2-0.1,2.4-0.3,3.6-0.6l0.7-0.2l0.4,0.6c1.1,1.5,2.1,2.8,2.9,3.9c1-0.4,2-0.8,3-1.3c-0.2-1.3-0.5-2.9-1-4.7l-0.2-0.7l0.6-0.4
			c1-0.7,2-1.5,2.8-2.3l0.5-0.5l0.6,0.3c1.7,0.8,3.2,1.4,4.5,1.9c0.7-0.8,1.3-1.7,1.9-2.7c-0.9-1.1-1.9-2.3-3.2-3.6l-0.5-0.5
			l0.3-0.6c0.5-1.1,1-2.2,1.3-3.4l0.2-0.7l0.7-0.1c1.8-0.2,3.5-0.4,4.8-0.6c0.2-1.1,0.3-2.2,0.3-3.3c-1.3-0.5-2.8-1-4.6-1.5
			l-0.7-0.2l0-0.7c-0.1-1.2-0.3-2.4-0.6-3.6l-0.2-0.7l0.6-0.4c1.5-1.1,2.8-2,3.9-2.9c-0.4-1-0.8-2-1.3-3c-1.3,0.2-2.9,0.5-4.7,1
			l-0.7,0.2l-0.4-0.6c-0.7-1-1.5-2-2.3-2.8l-0.5-0.5l0.3-0.6c0.8-1.7,1.4-3.2,1.9-4.5c-0.8-0.7-1.7-1.3-2.7-1.9
			c-1,0.8-2.3,1.9-3.6,3.2l-0.5,0.5l-0.6-0.3c-1.1-0.5-2.2-1-3.4-1.3l-0.7-0.2l-0.1-0.7c-0.2-1.9-0.4-3.5-0.6-4.8
			c-1.1-0.2-2.2-0.3-3.3-0.3c-0.5,1.2-1,2.8-1.5,4.6l-0.2,0.7l-0.7,0c-1.2,0.1-2.4,0.3-3.6,0.6l-0.7,0.2l-0.4-0.6
			c-1.1-1.5-2-2.8-2.9-3.9c-1,0.4-2,0.8-3,1.4c0.2,1.3,0.5,2.9,1,4.7l0.2,0.7l-0.6,0.4c-1,0.7-1.9,1.4-2.8,2.3l-0.5,0.5l-0.6-0.3
			c-1.7-0.8-3.2-1.4-4.5-1.9c-0.7,0.9-1.3,1.7-1.9,2.7c0.8,1.1,1.9,2.3,3.2,3.6l0.5,0.5l-0.3,0.6c-0.5,1.1-1,2.3-1.3,3.4l-0.2,0.7
			l-0.7,0.1c-1.9,0.2-3.5,0.4-4.8,0.6c-0.2,1.1-0.3,2.2-0.3,3.3c1.3,0.5,2.8,1,4.6,1.5l0.7,0.2l0,0.7c0.1,1.2,0.3,2.4,0.6,3.6
			l0.2,0.7l-0.6,0.4c-1.5,1.1-2.8,2.1-3.9,2.9c0.4,1,0.8,2,1.3,3c1.3-0.2,2.9-0.5,4.7-1l0.7-0.2l0.4,0.6c0.7,1,1.5,2,2.3,2.8
			l0.5,0.5l-0.3,0.6c-0.8,1.7-1.4,3.2-1.9,4.5c0.8,0.7,1.7,1.3,2.7,1.9c1-0.8,2.3-1.9,3.6-3.2l0.5-0.5l0.6,0.3
			c1.1,0.5,2.2,1,3.4,1.3l0.7,0.2l0.1,0.7C109.7,129.9,109.9,131.5,110.1,132.9z"/>
	</g>
	<g>
		<path class="st0" d="M114.3,117.6c-0.1,0-0.2,0-0.3,0c-2.7-0.1-5.3-1.2-7.1-3.2c-1.9-2-2.9-4.6-2.8-7.3c0.1-2.7,1.2-5.3,3.2-7.1
			c2-1.9,4.6-2.8,7.3-2.8l0,0c5.6,0.1,10.1,4.8,9.9,10.5c-0.1,2.7-1.2,5.3-3.2,7.1C119.4,116.7,117,117.6,114.3,117.6z M114.3,99.2
			c-2.1,0-4.1,0.8-5.6,2.3c-1.6,1.5-2.5,3.5-2.5,5.7c-0.1,2.2,0.7,4.3,2.3,5.9c1.5,1.6,3.5,2.5,5.7,2.6c2.2,0.1,4.3-0.7,5.9-2.3
			c1.6-1.5,2.5-3.5,2.6-5.7c0.1-4.5-3.5-8.3-8-8.4h0C114.5,99.2,114.4,99.2,114.3,99.2z"/>
	</g>
	<g>
		<path class="st0" d="M58.5,92.7c-4.7,0-9.3-1.3-13.3-3.9c-5.7-3.6-9.6-9.1-11.1-15.7h0c-1.5-6.5-0.4-13.3,3.2-19
			c3.6-5.7,9.1-9.6,15.7-11.1c13.5-3.1,27,5.4,30.1,18.9c3.1,13.5-5.4,27-18.9,30.1C62.3,92.5,60.4,92.7,58.5,92.7z M58.6,44.4
			c-1.7,0-3.4,0.2-5.2,0.6c-6,1.4-11.2,5-14.4,10.3c-3.3,5.2-4.3,11.4-3,17.5h0c1.4,6,5,11.2,10.3,14.4c5.2,3.3,11.4,4.3,17.5,3
			C76.2,87.3,84,74.8,81.1,62.4C78.7,51.7,69.1,44.4,58.6,44.4z"/>
	</g>
	<g>
		<path class="st0" d="M123.6,79l-1,0c-1.2,0-2.4-0.2-3.5-0.4l-0.7-0.1l-0.1-0.7c-0.2-1-0.3-2.2-0.5-3.6c-0.5-0.2-1.1-0.4-1.6-0.6
			c-1.1,1-2,1.8-2.8,2.4l-0.5,0.4l-0.6-0.3c-1.1-0.6-2.1-1.4-3.1-2.2l-0.5-0.4l0.2-0.6c0.3-1,0.8-2.1,1.4-3.4
			c-0.4-0.4-0.7-0.8-1.1-1.3c-1.4,0.3-2.6,0.5-3.6,0.7l-0.7,0.1l-0.3-0.6c-0.6-1.1-1.2-2.3-1.6-3.5l-0.2-0.6l0.5-0.4
			c0.8-0.6,1.7-1.4,2.9-2.2c-0.1-0.5-0.2-1.1-0.3-1.7c-1.3-0.4-2.5-0.8-3.4-1.2l-0.6-0.3l0-1c0-1.2,0.2-2.4,0.4-3.5l0.1-0.7l0.7-0.1
			c1-0.2,2.2-0.3,3.6-0.5c0.2-0.5,0.4-1.1,0.6-1.6c-1-1.1-1.8-2-2.4-2.8l-0.4-0.5l0.3-0.6c0.7-1.1,1.4-2.1,2.2-3.1l0.4-0.5l0.6,0.2
			c0.9,0.3,2,0.8,3.4,1.4c0.4-0.4,0.8-0.7,1.3-1.1c-0.3-1.4-0.5-2.6-0.7-3.6l-0.1-0.7l0.6-0.3c1.1-0.6,2.3-1.1,3.5-1.6l0.6-0.2
			l0.4,0.5c0.7,0.8,1.4,1.7,2.2,2.9c0.5-0.1,1.1-0.2,1.7-0.3c0.4-1.3,0.8-2.5,1.2-3.4l0.3-0.6l1,0c1.2,0,2.3,0.2,3.5,0.4l0.7,0.1
			l0.1,0.7c0.2,1,0.3,2.2,0.5,3.6c0.5,0.2,1.1,0.4,1.6,0.6c1-1,2-1.7,2.7-2.4l0.5-0.4l0.6,0.3c1.1,0.6,2.1,1.4,3.1,2.2l0.5,0.4
			l-0.2,0.6c-0.3,1-0.8,2.1-1.4,3.4c0.4,0.4,0.7,0.8,1.1,1.3c1.4-0.3,2.6-0.5,3.6-0.7l0.7-0.1l0.3,0.6c0.6,1.1,1.2,2.3,1.6,3.5
			l0.2,0.6l-0.5,0.4c-0.8,0.7-1.7,1.4-2.9,2.2c0.1,0.5,0.2,1.1,0.3,1.7c1.4,0.4,2.5,0.8,3.4,1.2l0.6,0.3l0,1c0,1.1-0.2,2.3-0.4,3.5
			l-0.1,0.7l-0.7,0.1c-1,0.2-2.2,0.3-3.6,0.5c-0.2,0.5-0.4,1.1-0.6,1.6c1,1,1.8,2,2.4,2.8l0.4,0.5l-0.3,0.6
			c-0.6,1.1-1.4,2.1-2.2,3.1l-0.4,0.5l-0.6-0.2c-1-0.3-2.1-0.8-3.4-1.4c-0.4,0.4-0.9,0.7-1.3,1.1c0.3,1.3,0.5,2.5,0.7,3.6l0.1,0.7
			l-0.6,0.3c-1.1,0.6-2.3,1.1-3.5,1.6l-0.6,0.2l-0.4-0.5c-0.7-0.8-1.4-1.7-2.2-2.9c-0.5,0.1-1.1,0.2-1.7,0.3
			c-0.4,1.3-0.8,2.5-1.2,3.4L123.6,79z M120.2,76.8c0.7,0.1,1.4,0.2,2.1,0.2c0.3-0.9,0.7-2,1.1-3.2l0.2-0.7l0.7,0
			c0.9-0.1,1.8-0.2,2.7-0.4l0.7-0.2l0.4,0.6c0.8,1.1,1.4,2,2.1,2.7c0.6-0.2,1.3-0.5,1.9-0.9c-0.2-1-0.4-2.1-0.7-3.4l-0.2-0.7
			l0.6-0.4c0.7-0.5,1.4-1.1,2.1-1.7l0.5-0.5l0.6,0.3c1.2,0.5,2.2,1,3.1,1.3c0.4-0.5,0.8-1.1,1.2-1.7c-0.6-0.7-1.4-1.6-2.3-2.6
			l-0.5-0.5l0.3-0.6c0.4-0.8,0.7-1.6,1-2.5l0.2-0.7l0.7-0.1c1.3-0.1,2.4-0.3,3.4-0.4c0.1-0.7,0.2-1.4,0.2-2.1
			c-0.9-0.3-2-0.7-3.2-1.1l-0.7-0.2l-0.1-0.7c-0.1-0.9-0.2-1.8-0.4-2.7l-0.2-0.7l0.6-0.4c1.1-0.8,2-1.4,2.7-2.1
			c-0.2-0.6-0.5-1.3-0.8-1.9c-1,0.2-2.1,0.4-3.4,0.7l-0.7,0.2l-0.4-0.6c-0.5-0.7-1.1-1.4-1.7-2.1l-0.5-0.5l0.3-0.6
			c0.6-1.2,1-2.2,1.4-3.1c-0.5-0.4-1.1-0.8-1.7-1.2c-0.7,0.6-1.6,1.4-2.6,2.3l-0.5,0.5l-0.6-0.3c-0.8-0.4-1.7-0.7-2.5-1l-0.7-0.2
			l-0.1-0.7c-0.1-1.3-0.3-2.5-0.4-3.4c-0.7-0.1-1.4-0.2-2.1-0.2c-0.3,0.9-0.7,2-1.1,3.2l-0.2,0.7l-0.7,0.1c-0.9,0.1-1.8,0.2-2.7,0.4
			l-0.7,0.2l-0.4-0.6c-0.8-1.1-1.4-2-2.1-2.7c-0.6,0.2-1.3,0.5-1.9,0.9c0.2,0.9,0.4,2,0.7,3.4l0.2,0.7l-0.6,0.4
			c-0.7,0.5-1.4,1.1-2.1,1.7l-0.5,0.5l-0.6-0.3c-1.2-0.6-2.3-1-3.1-1.3c-0.4,0.5-0.8,1.1-1.2,1.7c0.6,0.7,1.3,1.6,2.3,2.6l0.5,0.5
			l-0.3,0.6c-0.4,0.8-0.7,1.7-1,2.5l-0.2,0.7l-0.7,0.1c-1.3,0.1-2.4,0.3-3.4,0.4c-0.1,0.7-0.2,1.4-0.2,2.1c0.9,0.3,2,0.7,3.2,1.1
			l0.7,0.2l0,0.7c0.1,0.9,0.2,1.8,0.4,2.7l0.2,0.7l-0.6,0.4c-1.1,0.8-2,1.5-2.7,2.1c0.2,0.6,0.5,1.3,0.9,1.9c1-0.2,2.1-0.4,3.4-0.7
			l0.7-0.2l0.4,0.6c0.5,0.7,1.1,1.4,1.7,2.1l0.5,0.5l-0.3,0.6c-0.6,1.2-1,2.3-1.3,3.2c0.5,0.4,1.1,0.8,1.7,1.2
			c0.7-0.6,1.6-1.3,2.6-2.3l0.5-0.5l0.6,0.3c0.8,0.4,1.7,0.7,2.5,1l0.7,0.2l0.1,0.7C119.9,74.8,120,75.9,120.2,76.8z"/>
	</g>
	<g>
		<path class="st0" d="M123.1,65.9c-4.4,0-7.9-3.5-7.9-7.9c0-4.4,3.5-7.9,7.9-7.9c4.4,0,7.9,3.5,7.9,7.9
			C131,62.3,127.5,65.9,123.1,65.9z M123.1,52.1c-3.3,0-5.9,2.7-5.9,5.9c0,3.3,2.6,5.9,5.9,5.9c3.3,0,5.9-2.6,5.9-5.9
			C129,54.7,126.4,52.1,123.1,52.1z"/>
	</g>
</g>
</svg>
