<?xml version="1.0" encoding="utf-8"?>
<!-- Generator: Adobe Illustrator 21.1.0, SVG Export Plug-In . SVG Version: 6.00 Build 0)  -->
<svg version="1.1" xmlns="http://www.w3.org/2000/svg" xmlns:xlink="http://www.w3.org/1999/xlink" x="0px" y="0px"
	 viewBox="0 0 160 160" style="enable-background:new 0 0 160 160;" xml:space="preserve">
<style type="text/css">
	.st0{fill:#FFFFFF;}
</style>
<g id="circle">
	<path class="st0" d="M80,2c43,0,78,35,78,78s-35,78-78,78S2,123,2,80S37,2,80,2 M80,0C35.8,0,0,35.8,0,80s35.8,80,80,80
		s80-35.8,80-80S124.2,0,80,0L80,0z"/>
</g>
<g id="plant">
	<g>
		<g>
			<path class="st0" d="M89,125.9H70.6c-3.4,0-4.6-2.5-5.8-5.5c-0.5-1.3-0.9-3-1.4-4.7c-0.6-2.4-1.3-4.9-2.2-7
				c-5.9-5.3-9.2-12.8-9.2-20.7c0-15.4,12.5-28,28-28c15.4,0,28,12.5,28,28c0,8.2-3.5,15.9-9.7,21.2c-1,2.9-1.7,5.3-2.3,7.5
				c-0.4,1.4-0.7,2.7-1.1,3.8C93.8,123.3,92.5,125.9,89,125.9z M80,62c-14.3,0-26,11.6-26,26c0,7.4,3.2,14.5,8.7,19.4l0.2,0.1
				l0.1,0.2c1,2.3,1.8,5.1,2.4,7.5c0.4,1.7,0.9,3.3,1.3,4.5c1.2,3.3,2,4.2,3.9,4.2H89c1.9,0,2.8-1,3.9-4.2c0.4-1.1,0.7-2.3,1.1-3.7
				c0.6-2.3,1.3-4.8,2.4-7.9l0.1-0.3l0.2-0.2c5.9-5,9.2-12.2,9.2-19.8C106,73.6,94.3,62,80,62z"/>
		</g>
		<g>
			<path class="st0" d="M90.6,130.1H69.4c-0.6,0-1-0.4-1-1s0.4-1,1-1h21.1c0.6,0,1,0.4,1,1S91.1,130.1,90.6,130.1z"/>
		</g>
		<g>
			<path class="st0" d="M87,134H73c-0.6,0-1-0.4-1-1s0.4-1,1-1H87c0.6,0,1,0.4,1,1S87.6,134,87,134z"/>
		</g>
		<g>
			<path class="st0" d="M84,137.9h-8c-0.6,0-1-0.4-1-1s0.4-1,1-1h8c0.6,0,1,0.4,1,1S84.6,137.9,84,137.9z"/>
		</g>
		<g>
			<path class="st0" d="M83.6,43.9c-0.6,0-1-0.4-1-1V23.1c0-0.6,0.4-1,1-1s1,0.4,1,1v19.8C84.6,43.4,84.2,43.9,83.6,43.9z"/>
		</g>
		<g>
			<path class="st0" d="M104.5,51.4c-0.2,0-0.3,0-0.5-0.1c-0.5-0.3-0.6-0.9-0.4-1.4l9.9-17.1c0.3-0.5,0.9-0.6,1.4-0.4
				c0.5,0.3,0.6,0.9,0.4,1.4l-9.9,17.1C105.2,51.2,104.8,51.4,104.5,51.4z"/>
		</g>
		<g>
			<path class="st0" d="M118.8,68.4c-0.3,0-0.7-0.2-0.9-0.5c-0.3-0.5-0.1-1.1,0.4-1.4l17.1-9.9c0.5-0.3,1.1-0.1,1.4,0.4
				c0.3,0.5,0.1,1.1-0.4,1.4l-17.1,9.9C119.1,68.3,119,68.4,118.8,68.4z"/>
		</g>
		<g>
			<path class="st0" d="M142.5,90.2h-19.8c-0.6,0-1-0.4-1-1s0.4-1,1-1h19.8c0.6,0,1,0.4,1,1S143,90.2,142.5,90.2z"/>
		</g>
		<g>
			<path class="st0" d="M60.1,51.4c-0.3,0-0.7-0.2-0.9-0.5l-9.9-17.1c-0.3-0.5-0.1-1.1,0.4-1.4c0.5-0.3,1.1-0.1,1.4,0.4L61,49.9
				c0.3,0.5,0.1,1.1-0.4,1.4C60.5,51.3,60.3,51.4,60.1,51.4z"/>
		</g>
		<g>
			<path class="st0" d="M44.9,68.4c-0.2,0-0.3,0-0.5-0.1l-17.1-9.9c-0.5-0.3-0.6-0.9-0.4-1.4c0.3-0.5,0.9-0.6,1.4-0.4l17.1,9.9
				c0.5,0.3,0.6,0.9,0.4,1.4C45.5,68.2,45.2,68.4,44.9,68.4z"/>
		</g>
		<g>
			<path class="st0" d="M37.3,90.2H17.5c-0.6,0-1-0.4-1-1s0.4-1,1-1h19.8c0.6,0,1,0.4,1,1S37.9,90.2,37.3,90.2z"/>
		</g>
	</g>
</g>
</svg>
