<?xml version="1.0" encoding="utf-8"?>
<!-- Generator: Adobe Illustrator 21.1.0, SVG Export Plug-In . SVG Version: 6.00 Build 0)  -->
<svg version="1.1" xmlns="http://www.w3.org/2000/svg" xmlns:xlink="http://www.w3.org/1999/xlink" x="0px" y="0px"
	 viewBox="0 0 160 160" style="enable-background:new 0 0 160 160;" xml:space="preserve">
<style type="text/css">
	.st0{fill:#FFFFFF;}
</style>
<g id="circle">
	<path class="st0" d="M80,2c43,0,78,35,78,78s-35,78-78,78S2,123,2,80S37,2,80,2 M80,0C35.8,0,0,35.8,0,80s35.8,80,80,80
		s80-35.8,80-80S124.2,0,80,0L80,0z"/>
</g>
<g id="resource_investigator">
	<g>
		<g>
			<path class="st0" d="M105,129.2c-0.1,0-0.3,0-0.4,0l-26-4.2l-0.2-0.2C47.1,91.2,51.8,52.6,51.8,52.3c0.1-0.7,0.5-1.6,1-2.1v0
				l17.6-18.5c0.5-0.5,1.4-0.9,2.2-0.9h1.1c1,0,1.8,0.7,2,1.7l4,25.3c0.1,0.9-0.4,1.9-1.2,2.3l-11.2,5.3l15.4,40.2l10.5-1.9
				c0.9-0.2,1.9,0.3,2.3,1l12.7,20.6c0.5,0.8,0.3,2-0.4,2.6l-0.8,0.7C106.5,129,105.7,129.2,105,129.2z M79.7,123.1l25.3,4.1
				c0.2,0,0.6-0.1,0.7-0.2l0.8-0.7l-12.7-20.6c0-0.1-0.2-0.1-0.3-0.1l-10.5,1.9c-0.9,0.2-1.9-0.4-2.3-1.3L65.4,66
				c-0.4-0.9,0.1-2,1-2.4l11.2-5.3c0,0,0.1-0.1,0.1-0.2l-4-25.3l-1.1,0c-0.2,0-0.6,0.2-0.7,0.3L54.2,51.6v0
				c-0.2,0.2-0.4,0.7-0.4,0.9C53.7,52.9,49.3,90.4,79.7,123.1z"/>
		</g>
	</g>
</g>
</svg>
