<?xml version="1.0" encoding="utf-8"?>
<!-- Generator: Adobe Illustrator 21.1.0, SVG Export Plug-In . SVG Version: 6.00 Build 0)  -->
<svg version="1.1" xmlns="http://www.w3.org/2000/svg" xmlns:xlink="http://www.w3.org/1999/xlink" x="0px" y="0px"
	 viewBox="0 0 160 160" style="enable-background:new 0 0 160 160;" xml:space="preserve">
<style type="text/css">
	.st0{fill:#FFFFFF;}
</style>
<g id="circle">
	<path class="st0" d="M80,2c43,0,78,35,78,78s-35,78-78,78S2,123,2,80S37,2,80,2 M80,0C35.8,0,0,35.8,0,80s35.8,80,80,80
		s80-35.8,80-80S124.2,0,80,0L80,0z"/>
</g>
<g id="shaper">
	<path class="st0" d="M116.5,58.9c-0.6-1.8-1.5-3.7-2.9-5.1c-1.3-1.5-2.8-2.8-4.5-3.7c-1.8-0.9-3.8-1.3-5.7-1.5
		c-1.9-0.1-3.9,0.1-5.7,0.4c-3.8,0.6-7.4,1.9-10.8,3.4c-3.4,1.5-6.7,3.3-10,5c-3.3,1.7-6.6,3.4-10,4.8c-3.4,1.4-7,2.4-10.6,2.8
		c-1.8,0.2-3.7,0.2-5.4-0.2c-1.7-0.4-3.4-1.3-4.2-2.9c-0.9-1.5-1.1-3.4-0.9-5.2c0.1-1.8,0.6-3.6,1.1-5.4l2.9-10.8l1.5-5.4l0.7-2.7
		c0.2-0.9,0.5-1.8,0.6-2.8c0.1-0.9-0.2-2-0.7-2.7c-0.5-0.8-1.3-1.4-2.2-1.8c-1.7-0.7-3.8-0.8-5.5-0.1c-1.8,0.6-3.3,1.7-4.7,2.9
		c-1.4,1.2-2.6,2.7-3.5,4.3c0.9-1.6,2.2-3,3.6-4.2c1.4-1.2,3-2.2,4.7-2.8c1.7-0.7,3.7-0.5,5.4,0.2c0.8,0.4,1.6,1,2.1,1.7
		c0.5,0.7,0.7,1.7,0.6,2.6c-0.1,0.9-0.3,1.8-0.6,2.7l-0.8,2.7l-1.5,5.4L46.1,51c-0.5,1.8-1,3.6-1.2,5.5c-0.2,1.9,0,3.9,1,5.6
		c0.5,0.9,1.2,1.6,2,2.1c0.8,0.5,1.7,0.9,2.7,1.1c1.9,0.5,3.8,0.5,5.7,0.3c3.8-0.3,7.4-1.3,10.9-2.7c3.5-1.4,6.9-3,10.2-4.7
		c3.3-1.7,6.6-3.4,10-4.8c3.4-1.4,6.9-2.6,10.5-3.1c3.6-0.5,7.3-0.5,10.4,1.1c1.5,0.8,2.8,2,4,3.4c1.2,1.3,1.9,2.9,2.5,4.6
		c1.1,3.4,1.4,7.1,1.3,10.7c-0.1,3.6-0.7,7.3-1.5,10.9c-1.6,6.9-4.1,13.5-7,20c-1.9-0.5-3.9,0.3-5,2l-20.4,35.3
		c-1.2,2.1-0.5,4.8,1.6,6c0.7,0.4,1.4,0.6,2.2,0.6c1.5,0,3-0.8,3.8-2.2l20.4-35.3c0.6-1,0.7-2.2,0.4-3.3c-0.2-0.8-0.7-1.6-1.3-2.1
		c3-6.6,5.5-13.4,7.1-20.5c0.8-3.7,1.4-7.4,1.5-11.2C118.1,66.4,117.8,62.5,116.5,58.9z M108.6,106.4l-20.4,35.3
		c-0.7,1.1-2.1,1.5-3.2,0.9c-1.1-0.7-1.5-2.1-0.9-3.2l20.4-35.3c0.7-1.1,2.1-1.5,3.2-0.9C108.8,103.8,109.2,105.2,108.6,106.4z"/>
</g>
</svg>
