<?xml version="1.0" encoding="utf-8"?>
<!-- Generator: Adobe Illustrator 21.1.0, SVG Export Plug-In . SVG Version: 6.00 Build 0)  -->
<svg version="1.1" xmlns="http://www.w3.org/2000/svg" xmlns:xlink="http://www.w3.org/1999/xlink" x="0px" y="0px"
	 viewBox="0 0 160 160" style="enable-background:new 0 0 160 160;" xml:space="preserve">
<style type="text/css">
	.st0{fill:#FFFFFF;}
</style>
<g id="circle">
	<path class="st0" d="M80,2c43,0,78,35,78,78s-35,78-78,78S2,123,2,80S37,2,80,2 M80,0C35.8,0,0,35.8,0,80s35.8,80,80,80
		s80-35.8,80-80S124.2,0,80,0L80,0z"/>
</g>
<g id="specialist">
	<g>
		<path class="st0" d="M80.1,134.1c-1.7,0-3.5-0.2-5.3-0.6c-5.4-1.2-9.8-4.4-12.1-8.6c-2-3.7-2.3-8.1-0.9-12.3
			c0.6-1.7,1.6-4.6,5.1-4c0.9,0.2,1.6,0.5,2.1,0.9c0-2.3,0.8-4.4,1.6-6.6c0.3-0.7,0.5-1.4,0.7-2c-6.1-4.8-9.2-11.4-8.4-17.7
			c0.7-5.6,4.6-10.2,10.6-12.6l1.7-0.7l-0.3,1.8c-0.2,1.1-0.4,2.2-0.5,3.2c-0.4,2.5-0.8,5-1.6,7.5c-1.2,3.7-0.3,7.4,2.2,9.4
			c2.8,2.3,6.9,2.4,9.8,0.2c2.6-1.9,3.7-5.7,2.6-9.3c-0.8-2.5-1.3-5-1.8-7.7c-0.2-1.2-0.5-2.4-0.7-3.6L84.6,70l1.5,0.3
			c5.7,1,10.7,7.2,11.3,13.7c0.5,5.5-1,10.1-4.5,13.5c-1.8,1.7-1.4,2.5,0.2,4.7c0.4,0.5,0.7,1,1.1,1.6c1.8,2.5,3.6,5.1,4.4,8
			c1.5,6.3,0,12.3-4.3,16.7C90.6,132.1,85.5,134.1,80.1,134.1z M66.1,110.5c-1.1,0-1.6,0.8-2.3,2.7c-1.3,3.6-1,7.4,0.7,10.6
			c2.1,3.8,5.9,6.5,10.8,7.6c6.7,1.5,13.2-0.1,17.5-4.5c3.8-3.9,5.2-9.3,3.8-14.8c-0.6-2.6-2.4-5-4-7.4c-0.4-0.5-0.8-1.1-1.1-1.6
			c-1.4-2-2.9-4.3,0.1-7.3c3-2.9,4.4-6.9,3.9-11.8c-0.4-5-4-9.9-8.2-11.5c0.1,0.7,0.3,1.4,0.4,2.1c0.5,2.6,1,5.1,1.7,7.5
			c1.3,4.4,0,9-3.4,11.5c-3.7,2.7-8.7,2.6-12.2-0.3c-3.1-2.5-4.3-7.1-2.9-11.6c0.7-2.3,1.1-4.8,1.5-7.2c0.1-0.5,0.2-1,0.2-1.4
			c-4.4,2.2-7.1,5.8-7.7,10.2c-0.8,5.8,2.3,11.9,8.2,16.3l0.6,0.4l-0.2,0.7c-0.3,0.9-0.6,1.9-1,2.8c-1.1,2.8-2.1,5.5-0.9,8.4l0,0
			l4.6-8.1l2.8,2.3c1.5,1.2,3,2.5,4.5,3.7c1.8,1.5,3,3.8,2.9,6c0,1.6-0.7,3-1.8,3.9c-3.2,2.5-7,3-11,1.7c-3.4-1.2-5.3-3.9-5.3-7.9
			c0-2.3-0.4-3-1.7-3.2C66.4,110.5,66.2,110.5,66.1,110.5z M70.3,113.7C70.3,113.7,70.3,113.8,70.3,113.7c0,3.2,1.3,5.1,3.9,6
			c3.3,1.1,6.5,0.7,9.1-1.4c0.8-0.7,1-1.7,1-2.4c0-1.6-0.8-3.4-2.2-4.5c-1.5-1.3-3.1-2.5-4.5-3.8l-0.9-0.8l-4.3,7.6L70.3,113.7z"/>
	</g>
	<g>
		<path class="st0" d="M80.3,86.9c-0.3,0-0.7,0-1.1-0.1c-2-0.4-4.5-1.8-4.4-5.9c0-4.1,0-8.3,0-12.5l0-4.4l-3.5-0.4V35.2l3.6-0.4
			v-8.9h10.4v8.9l3.6,0.3v28.5l-3.5,0.4l0,4.3c0,4.2,0,8.4,0,12.6c0,2.1-0.8,3.9-2.1,4.9C82.3,86.6,81.3,86.9,80.3,86.9z M73.3,61.9
			l3.5,0.4l0,6.2c0,4.2,0,8.4,0,12.5c0,2.3,0.9,3.5,2.9,3.9c0.9,0.2,1.7,0,2.3-0.5c0.8-0.7,1.3-1.9,1.3-3.4c0-4.2,0-8.4,0-12.6
			l0-6.1l3.5-0.4V37l-3.6-0.3v-8.7h-6.4v8.6L73.3,37V61.9z"/>
	</g>
</g>
</svg>
