<?xml version="1.0" encoding="utf-8"?>
<!-- Generator: Adobe Illustrator 21.1.0, SVG Export Plug-In . SVG Version: 6.00 Build 0)  -->
<svg version="1.1" xmlns="http://www.w3.org/2000/svg" xmlns:xlink="http://www.w3.org/1999/xlink" x="0px" y="0px"
	 viewBox="0 0 160 160" style="enable-background:new 0 0 160 160;" xml:space="preserve">
<style type="text/css">
	.st0{fill:#FFFFFF;}
</style>
<g id="circle">
	<path class="st0" d="M80,2c43,0,78,35,78,78s-35,78-78,78S2,123,2,80S37,2,80,2 M80,0C35.8,0,0,35.8,0,80s35.8,80,80,80
		s80-35.8,80-80S124.2,0,80,0L80,0z"/>
</g>
<g id="team_worker">
	<g>
		<g>
			<path class="st0" d="M107.8,131.9H95.2V73.5l-7.2,14l-1-0.8c-5-4.4-9.6-4.3-14.1,0.1l-1,1l-7-13.8v57.9l-25.5,0V73.7l-6.7,13.3
				L23,82.1l3.3-6.6c4.4-8.7,8.5-16.9,12.8-25.3c0.5-1,2-1.6,3.1-1.7c6-0.1,12.9-0.1,19.8,0c1.4,0,3,1.4,3.6,2.7
				c3.3,6.4,6.6,12.9,9.8,19.3c1.2,2.4,2.4,4.8,3.6,7.2c0.3,0.5,0.6,1.1,0.9,1.6c0.3-0.6,0.6-1.1,0.9-1.6l2.4-4.8
				c3.6-7.1,7.3-14.4,10.9-21.7c1-2,2.3-2.8,4.4-2.8c2.9,0.1,5.9,0.1,8.7,0c3.2,0,6.6,0,9.8,0.1c1.3,0,3.3,0.9,3.9,2.2
				c4.1,7.8,8,15.5,12.1,23.7L137,82l-9.7,4.9l-6.8-13.3v58.3L107.8,131.9z M97.2,129.9h8.6l0-9.5c0-8.4,0-16.8,0-25.2
				c0-0.8,0.2-1.6,0.4-2.3c0.1-0.3,0.1-0.6,0.2-0.9l0.2-0.9l3,0.3v38.5h8.9v-60l2.1-0.5l7.5,14.8l6.1-3.1l-2.9-5.8
				c-4.1-8.2-8-15.9-12.1-23.7c-0.2-0.5-1.4-1.1-2.2-1.1c-3.3-0.1-6.6-0.1-9.8-0.1c-2.9,0-5.8,0-8.8,0c-1.4,0-1.9,0.3-2.6,1.7
				c-3.6,7.2-7.3,14.6-10.9,21.7l-2.4,4.8c-0.3,0.7-0.7,1.3-1.1,2c-0.2,0.3-0.3,0.6-0.5,0.9c2.1,0.3,4.2,1.2,6.4,2.8l7.7-14.9
				l2.1,0.6V129.9z M41.5,129.9h8.6c0.1-5.5,0.1-11,0-16.3c0-7-0.1-14.2,0.2-21.3l0-1l3.6,0v38.6h9V69.8l2-0.2l7.5,14.8
				c2-1.7,4.2-2.7,6.3-2.9c-0.2-0.3-0.3-0.6-0.5-0.8c-0.4-0.7-0.8-1.4-1.1-2c-1.2-2.4-2.4-4.8-3.6-7.2c-3.2-6.3-6.5-12.9-9.8-19.3
				c-0.4-0.8-1.5-1.6-1.9-1.6c-6.8-0.2-13.8-0.1-19.7,0c-0.5,0-1.2,0.4-1.3,0.6c-4.3,8.4-8.4,16.6-12.8,25.3l-2.4,4.8l6.1,3.1
				l7.5-14.8l2.1,0.5V129.9z"/>
		</g>
		<g>
			<path class="st0" d="M52.2,48c-2.4,0-4.9-1.1-6.8-2.9c-2-2-3.1-4.6-3.1-7.1c0-5.2,4.7-9.8,9.9-9.8c5.2,0,9.9,4.6,9.9,9.8l0,0
				c0,5.1-4.6,9.9-9.7,10.1C52.3,48,52.2,48,52.2,48z M52.2,30.1c-4.2,0-7.9,3.7-7.9,7.8c0,2,0.9,4.1,2.5,5.7
				c1.6,1.5,3.6,2.4,5.5,2.3c4.1-0.1,7.8-3.9,7.8-8C60.1,33.7,56.4,30.1,52.2,30.1z"/>
		</g>
		<g>
			<path class="st0" d="M107.8,48c-2.4,0-4.9-1.1-6.8-2.9c-2-2-3.1-4.6-3.1-7.1c0-5.2,4.7-9.8,9.9-9.8c0,0,0,0,0,0
				c5.2,0,9.9,4.6,9.9,9.8l0,0c0,5.2-4.6,9.9-9.8,10.1C107.9,48,107.9,48,107.8,48z M107.8,30.1c-4.2,0-7.9,3.7-7.9,7.8
				c0,2,0.9,4.1,2.5,5.7c1.6,1.5,3.6,2.4,5.5,2.4c4.1-0.1,7.8-3.9,7.8-8l0,0C115.7,33.8,112,30.1,107.8,30.1
				C107.8,30.1,107.8,30.1,107.8,30.1z"/>
		</g>
	</g>
</g>
</svg>
