<svg xmlns="http://www.w3.org/2000/svg" viewBox="0 0 159.6 159.85"><defs><style>.cls-1{fill:#fff;}</style></defs><g id="Layer_4" data-name="Layer 4"><path class="cls-1" d="M17.13,126.1c-9-13-15.13-29-15.13-46.39a77.79,77.79,0,0,1,155.57,0,75.23,75.23,0,0,1-15.44,46.39v3.19A78.54,78.54,0,0,0,159.6,79.71,79.75,79.75,0,0,0,79.94,0C36,0,0,35.76,0,79.71a78.25,78.25,0,0,0,17.13,49.58Z"/><path class="cls-1" d="M142.47,33.76c9,13,15.13,29,15.13,46.39A77.79,77.79,0,0,1,2,80.14,75.23,75.23,0,0,1,17.47,33.76V30.57A78.54,78.54,0,0,0,0,80.14a79.75,79.75,0,0,0,79.65,79.71c44,0,79.94-35.76,79.94-79.71a78.25,78.25,0,0,0-17.13-49.58Z"/></g><g id="Layer_5" data-name="Layer 5"><path class="cls-1" d="M138.56,55c1.49,3.71,3.86,9.91,4.28,12.37a23.82,23.82,0,0,1,0,3.12l-1.17.76-1.36.89.59,1.51a4.88,4.88,0,0,1,.34,1.78v.86l.62.59c.23.22.94.89.94,1.23v5.41l.77-.25a4,4,0,0,0-.3.42c-.93,1.51-.81,3.81.36,7.05l.38,1.06.24,0a20.51,20.51,0,0,1,.82,5.76,16.32,16.32,0,0,1-.83,4.44l-.4-.09-.62,1.6c-.59,1.52-1.49,2.47-2.36,2.47a1.55,1.55,0,0,1-.54-.1c-.26-.1-1-.39-.35-2.25,1.47-4,1.85-7.44,1.14-10.28-.2-.81-.39-1.73-.59-2.71a31.61,31.61,0,0,0-1.59-5.91l.27-.09,1.38-.45V78.44l-2.72,1a4.32,4.32,0,0,1-3.18,0l-2.74-1.09V84.2l1.38.45.27.09a31.53,31.53,0,0,0-1.6,5.92c-.2,1-.39,1.89-.59,2.7-.71,2.84-.33,6.3,1.14,10.28.68,1.86-.1,2.15-.35,2.25a1.55,1.55,0,0,1-.54.1c-.86,0-1.77-.95-2.36-2.47l-.62-1.6-.4.09a16.34,16.34,0,0,1-.83-4.44,20.54,20.54,0,0,1,.82-5.76l.24,0,.38-1.06c1.17-3.24,1.29-5.54.36-7a4,4,0,0,0-.3-.42l.77.25V78.07c0-.22.29-.61.86-1.16l.58-.44.71-.54.07-.89a4.44,4.44,0,0,1,.22-1.14l.53-1.49-1.32-.86-1.7-1.11a24.26,24.26,0,0,1,0-3.12c.42-2.46,2.79-8.65,4.28-12.37V71.12l2.11-.11h.4l2.08.08V55m.39-3.1h-2.4v13.6h0V69h-.25L136,69V51.86h-2.4a.71.71,0,0,0-.68.45S128.37,63.17,127.72,67a33.15,33.15,0,0,0,0,4.35.49.49,0,0,0,.2.35l2.37,1.55a6.44,6.44,0,0,0-.33,1.65l-.67.51a4.05,4.05,0,0,0-1.56,2.68v2.66l-1.88-.61a2.17,2.17,0,0,0-.59-.1c-.42,0-.91.19-1.22,1-.57,1.54.15,1.88.59,2,1.1.36,2.36.73,2.91,1.64.66,1.07.19,3.29-.54,5.32-.63.12-1.65,4.73-1.55,7.62s1.25,6.61,1.94,6.61h0c.92,2.37,2.49,3.74,4.22,3.74a3.53,3.53,0,0,0,1.24-.23c1.86-.69,2.37-2.53,1.53-4.81-.76-2.06-1.9-5.82-1.08-9.11.7-2.8,1.23-6.73,2.26-8.69A1.37,1.37,0,0,0,135,83.1l-1.09-.35V81.32a6.32,6.32,0,0,0,4.64,0v1.4l-1.09.35a1.37,1.37,0,0,0-.58,2.05c1,2,1.57,5.9,2.26,8.69.82,3.28-.32,7.05-1.08,9.11-.84,2.28-.33,4.12,1.53,4.81a3.53,3.53,0,0,0,1.24.23c1.73,0,3.3-1.37,4.22-3.74h0c.7,0,1.84-3.6,1.94-6.61s-.92-7.5-1.55-7.62c-.73-2-1.2-4.25-.54-5.32.56-.91,1.81-1.27,2.91-1.64.44-.15,1.17-.48.59-2-.31-.82-.79-1-1.22-1a2.18,2.18,0,0,0-.59.1l-1.88.61V78.07a4.05,4.05,0,0,0-1.56-2.68,6.88,6.88,0,0,0-.47-2.5l1.84-1.2a.49.49,0,0,0,.2-.35,33.08,33.08,0,0,0,0-4.35c-.65-3.82-5.17-14.68-5.17-14.68a.71.71,0,0,0-.68-.45Z"/><rect class="cls-1" x="39.83" y="78.93" width="6" height="2"/><path class="cls-1" d="M98.63,80.93H85.43v-2h13.2Zm-26.4,0H59v-2h13.2Z"/><rect class="cls-1" x="111.83" y="78.93" width="6" height="2"/><rect class="cls-1" x="38.83" y="73.43" width="2" height="13"/><rect class="cls-1" x="116.83" y="73.43" width="2" height="13"/><path class="cls-1" d="M24.86,52.57l2.54,2.84V77.81H30v.39l0,2h.84a4.52,4.52,0,0,0,.45.46c.17.15.33.27.5.38v22.2a3.61,3.61,0,0,1-1.72,3.2,9.67,9.67,0,0,1-5.34,1.31c-2.53,0-4.64-.66-5.79-1.8a3.63,3.63,0,0,1-1-2.7V81l.38-.29a4.24,4.24,0,0,0,.6-.57h.85V77.81H22.3V55.42l2.56-2.84m-.35-2.46a.27.27,0,0,0-.12,0,.39.39,0,0,0-.13.11l-3.84,4.27,0,0h0a.33.33,0,0,0-.09.22v21H18.24c-.25,0-.47.37-.47.78V78.2h0a1.72,1.72,0,0,1-.67,1c-.12.1-.26.19-.39.28-.46.32-.74.54-.74.93v22.82a5.61,5.61,0,0,0,1.63,4.11c1.54,1.54,4.1,2.39,7.2,2.39h0a11.62,11.62,0,0,0,6.45-1.65,5.62,5.62,0,0,0,2.6-4.86V80.42c0-.37-.32-.63-.74-.93-.16-.11-.32-.22-.46-.35a1.77,1.77,0,0,1-.6-.94h0V76.59a.93.93,0,0,0-.12-.45.56.56,0,0,0-.42-.33H29.4v-21a.33.33,0,0,0-.09-.22h0l-.08-.09-3.79-4.23h0a.43.43,0,0,0-.14-.1.29.29,0,0,0-.12,0Z"/></g></svg>
