<svg xmlns="http://www.w3.org/2000/svg" viewBox="0 0 159.6 159.85"><defs><style>.cls-1{fill:#fff;}</style></defs><g id="Layer_3" data-name="Layer 3"><path class="cls-1" d="M17.13,126.1c-9-13-15.13-29-15.13-46.39a77.79,77.79,0,0,1,155.57,0,75.23,75.23,0,0,1-15.44,46.39v3.19A78.54,78.54,0,0,0,159.6,79.71,79.75,79.75,0,0,0,79.94,0C36,0,0,35.76,0,79.71a78.25,78.25,0,0,0,17.13,49.58Z"/><path class="cls-1" d="M142.47,33.76c9,13,15.13,29,15.13,46.39A77.79,77.79,0,0,1,2,80.14,75.23,75.23,0,0,1,17.47,33.76V30.57A78.54,78.54,0,0,0,0,80.14a79.75,79.75,0,0,0,79.65,79.71c44,0,79.94-35.76,79.94-79.71a78.25,78.25,0,0,0-17.13-49.58Z"/><path class="cls-1" d="M137.8,123.43H21.8v-87h116Zm-114-2h112v-83H23.8Z"/><path class="cls-1" d="M47.09,91.67a16.41,16.41,0,0,0,6.47,6.47,16.41,16.41,0,0,0-6.47,6.47,16.41,16.41,0,0,0-6.47-6.47,16.41,16.41,0,0,0,6.47-6.47m0-7.81A14.29,14.29,0,0,1,32.8,98.14a14.29,14.29,0,0,1,14.29,14.29A14.29,14.29,0,0,1,61.37,98.14,14.29,14.29,0,0,1,47.09,83.86Z"/><path class="cls-1" d="M65.66,82.41a9.22,9.22,0,0,0,1.44,1.44,9.22,9.22,0,0,0-1.44,1.44,9.22,9.22,0,0,0-1.44-1.44,9.22,9.22,0,0,0,1.44-1.44m0-5.7a7.14,7.14,0,0,1-7.14,7.14A7.14,7.14,0,0,1,65.66,91a7.14,7.14,0,0,1,7.14-7.14,7.14,7.14,0,0,1-7.14-7.14Z"/></g></svg>
