<svg xmlns="http://www.w3.org/2000/svg" viewBox="0 0 159.6 159.85"><defs><style>.cls-1{fill:#fff;}</style></defs><g id="Layer_1" data-name="Layer 1"><path class="cls-1" d="M17.13,126.1c-9-13-15.13-29-15.13-46.39a77.79,77.79,0,0,1,155.57,0,75.23,75.23,0,0,1-15.44,46.39v3.19A78.54,78.54,0,0,0,159.6,79.71,79.75,79.75,0,0,0,79.94,0C36,0,0,35.76,0,79.71a78.25,78.25,0,0,0,17.13,49.58Z"/><path class="cls-1" d="M142.47,33.76c9,13,15.13,29,15.13,46.39A77.79,77.79,0,0,1,2,80.14,75.23,75.23,0,0,1,17.47,33.76V30.57A78.54,78.54,0,0,0,0,80.14a79.75,79.75,0,0,0,79.65,79.71c44,0,79.94-35.76,79.94-79.71a78.25,78.25,0,0,0-17.13-49.58Z"/><polygon class="cls-1" points="110.65 127.65 99.45 114.21 100.98 112.93 110.62 124.49 126.2 105.01 127.76 106.26 110.65 127.65"/><path class="cls-1" d="M113.6,134.85a21,21,0,1,1,21-21A21,21,0,0,1,113.6,134.85Zm0-40a19,19,0,1,0,19,19A19,19,0,0,0,113.6,94.85Z"/><path class="cls-1" d="M90.83,103.56q.42-.93.91-1.81l-4.3-3.18-.57.33a32.93,32.93,0,0,1-5.35,2.5l-.66.24L81,115l-9.25,1.47L67.56,103.3l-.66-.07a33.24,33.24,0,0,1-5.8-1.11l-.68-.19-7.76,10.86-8.34-4.25,4.37-13.1L48.2,95l-.64-.59L61.84,80.13A12.88,12.88,0,0,0,80,62L94.29,47.69c.67.72,1.32,1.48,2,2.31l.44.56,12.67-4.23,4.25,8.34-11.24,8,.14.64a33.28,33.28,0,0,1,.73,5.85l0,.71,12.74,4-1.46,9.25-13.81-.11-.27.6a32.87,32.87,0,0,1-2.85,5.17l-.4.59L99.86,93q.84-.55,1.72-1l-1.91-2.58A35,35,0,0,0,102,85.07l14.22.12,2-12.65-13-4.12a35.38,35.38,0,0,0-.61-4.85l11.58-8.27-5.82-11.41-13,4.33c-.56-.69-1.12-1.32-1.7-1.93L108,33.95l-.71-.71a52.48,52.48,0,0,0-74.21,74.21l.71.71L46.15,95.83l.23.22-4.5,13.49,11.41,5.82,7.94-11.12a35.28,35.28,0,0,0,4.81.92l4.28,13.56,12.65-2L82.87,103A34.89,34.89,0,0,0,87.3,101ZM77.91,78a10.88,10.88,0,1,1,0-15.39A10.81,10.81,0,0,1,77.91,78ZM44.72,94.43l-10.9,10.9A50.48,50.48,0,0,1,105.2,34L94.3,44.85,78.59,60.56A12.88,12.88,0,0,0,60.43,78.72Z"/></g></svg>
