<?xml version="1.0" encoding="utf-8"?>
<!-- Generator: Adobe Illustrator 21.1.0, SVG Export Plug-In . SVG Version: 6.00 Build 0)  -->
<svg version="1.1" xmlns="http://www.w3.org/2000/svg" xmlns:xlink="http://www.w3.org/1999/xlink" x="0px" y="0px"
	 viewBox="0 0 160 160" style="enable-background:new 0 0 160 160;" xml:space="preserve">
<style type="text/css">
	.st0{fill:#FFFFFF;}
</style>
<g id="circle">
	<path class="st0" d="M80,2c43,0,78,35,78,78s-35,78-78,78S2,123,2,80S37,2,80,2 M80,0C35.8,0,0,35.8,0,80s35.8,80,80,80
		s80-35.8,80-80S124.2,0,80,0L80,0z"/>
</g>
<g id="_x31__1_">
	<g>
		<g>
			<g>
				<path class="st0" d="M119.1,58.4L119.1,58.4c0-1-0.1-1.9-0.3-3l-2.3,2.2l-1.4-1.4l4.8-4.8l0.4,1.7c0.5,1.9,0.7,3.5,0.7,5.1
					L119.1,58.4z"/>
			</g>
			<g>
				<polygon class="st0" points="109.6,64.6 104.2,63.5 104.6,61.5 109,62.5 112.2,59.3 113.6,60.7 				"/>
			</g>
			<g>
				<polygon class="st0" points="102.8,63.2 97.3,62 96.1,56.4 98.1,56 99,60.3 103.2,61.2 				"/>
			</g>
			<g>
				<polygon class="st0" points="95.8,55 94.7,49.6 98.6,45.7 100,47.1 96.8,50.2 97.8,54.6 				"/>
			</g>
			<g>
				<path class="st0" d="M103.1,44l-1.4-1.4l2.3-2.3c-1-0.2-2-0.3-3-0.3l0-2c1.6,0,3.3,0.3,5.2,0.8l1.7,0.5L103.1,44z"/>
			</g>
			<g>
				<path class="st0" d="M83.8,52l-1.9-0.7c1.4-3.9,4-7.3,7.4-9.7l1.1,1.6C87.4,45.5,85,48.5,83.8,52z"/>
			</g>
			<g>
				<path class="st0" d="M81.5,72.1l-1.4-1.4l3-3c-0.7-1.3-1.3-2.7-1.7-4.1l1.9-0.5c0.4,1.5,1,3,1.9,4.4l0.4,0.7L81.5,72.1z"/>
			</g>
			<g>
				<path class="st0" d="M68.1,85.4L67.4,85c-1.4-0.8-2.9-1.5-4.3-1.9l0.6-1.9c1.4,0.4,2.8,1,4.1,1.7l3-3l1.4,1.4L68.1,85.4z"/>
			</g>
			<g>
				<path class="st0" d="M43.4,90.1L41.7,89c2.4-3.4,5.8-6,9.7-7.4l0.7,1.9C48.6,84.8,45.6,87.1,43.4,90.1z"/>
			</g>
			<g>
				<path class="st0" d="M39.2,107.5l-0.4-1.7c-0.5-1.9-0.7-3.6-0.7-5.1l2,0v0.1c0,0.9,0.1,1.9,0.3,2.9l2.3-2.2l1.4,1.4L39.2,107.5z
					"/>
			</g>
			<g>
				<polygon class="st0" points="47,99.7 45.6,98.3 49.5,94.4 54.9,95.5 54.5,97.5 50.1,96.5 				"/>
			</g>
			<g>
				<polygon class="st0" points="61.1,103 60.2,98.7 55.9,97.8 56.4,95.8 61.9,97 63,102.6 				"/>
			</g>
			<g>
				<polygon class="st0" points="60.5,113.3 59.1,111.9 62.3,108.8 61.4,104.4 63.3,104 64.5,109.4 				"/>
			</g>
			<g>
				<path class="st0" d="M58.2,120.9c-1.6,0-3.3-0.3-5.2-0.8l-1.7-0.5l4.8-4.7l1.4,1.4l-2.3,2.3c1,0.2,2,0.3,3,0.3L58.2,120.9z"/>
			</g>
			<g>
				<path class="st0" d="M69.5,117.5l-1.1-1.7c3-2,5.4-4.9,6.8-8.3l1.9,0.8C75.5,112.1,72.9,115.2,69.5,117.5z"/>
			</g>
			<g>
				<path class="st0" d="M76.1,96.9c-0.3-1.5-0.9-3-1.6-4.4l-0.3-0.7l4.1-4l1.4,1.4l-3,3c0.7,1.4,1.2,2.8,1.5,4.3L76.1,96.9z"/>
			</g>
			<g>
				<path class="st0" d="M89.2,79.6l-1.4-1.4l4.1-4l0.6,0.3c1.4,0.8,2.9,1.3,4.4,1.7L96.5,78c-1.4-0.3-2.9-0.8-4.2-1.5L89.2,79.6z"
					/>
			</g>
			<g>
				<path class="st0" d="M108.4,77.1l-0.7-1.9c3.4-1.3,6.3-3.6,8.3-6.7l1.7,1.1C115.3,73.1,112.1,75.6,108.4,77.1z"/>
			</g>
		</g>
		<g>
			<g>
				<g>
					<polygon class="st0" points="40.7,46.9 37.9,41.9 42.2,37.6 47.3,40.4 46.3,42.2 42.6,40.1 40.4,42.2 42.5,46 					"/>
				</g>
				<g>
					<path class="st0" d="M86.1,82.3l-6.7-6.8l1.4-1.4l6.7,6.8L86.1,82.3z M72.6,68.8L65.9,62l1.4-1.4l6.7,6.8L72.6,68.8z
						 M59.4,54.8l-2.8-4.7l-2.7-2.7l1.4-1.4l3,3l2.8,4.8L59.4,54.8z"/>
				</g>
				<g>
					<polygon class="st0" points="97,93.3 92.8,89.1 94.2,87.7 97,90.5 99.9,87.7 101.3,89.1 					"/>
				</g>
				<g>
					<path class="st0" d="M107.5,98.8l-3.9-3.9l0.1-0.5c0.4-1.6,0.6-3.7,0.3-4.2l1.7-1c0.7,1.2,0.4,3.8,0.1,5.1l3.1,3.2L107.5,98.8z
						"/>
				</g>
				<g>
					<path class="st0" d="M112.5,122.1c-0.7,0-2.3-0.1-3.3-1.1c-0.4-0.4-2.4-2.4-4.7-4.7l1.4-1.4c2.3,2.3,4.3,4.3,4.7,4.7
						c0.2,0.2,0.9,0.5,1.8,0.5c0.3,0,0.6,0,0.9-0.1l0.4,2C113.4,122.1,113,122.1,112.5,122.1z M121.9,114l-2-0.4
						c0.1-0.3,0.1-0.6,0.1-1c0-0.9-0.2-1.6-0.4-1.8c-0.4-0.4-2.4-2.4-4.7-4.7l1.4-1.4c2.3,2.3,4.3,4.3,4.7,4.7c0.9,0.9,1,2.5,1,3.2
						C122,113.1,122,113.6,121.9,114z"/>
				</g>
				<g>
					<path class="st0" d="M97.2,108.9l-3.1-3.2c-1.3,0.3-3.9,0.6-5.1-0.1l1-1.7c0.5,0.3,2.6,0.1,4.2-0.2l0.5-0.1l3.9,3.9L97.2,108.9
						z"/>
				</g>
				<g>
					<polygon class="st0" points="89.1,101.3 87.6,99.8 90.5,97 87.7,94.2 89.1,92.8 93.3,97 					"/>
				</g>
				<g>
					<path class="st0" d="M80.9,87.4l-6.7-6.8l1.4-1.4l6.7,6.8L80.9,87.4z M67.5,73.9l-6.7-6.8l1.4-1.4l6.7,6.8L67.5,73.9z
						 M53.9,60.8l-5-3L46.2,55l1.4-1.4l2.7,2.7l4.7,2.8L53.9,60.8z"/>
				</g>
			</g>
		</g>
	</g>
</g>
</svg>
