<?xml version="1.0" encoding="utf-8"?>
<!-- Generator: Adobe Illustrator 21.1.0, SVG Export Plug-In . SVG Version: 6.00 Build 0)  -->
<svg version="1.1" id="Layer_1" xmlns="http://www.w3.org/2000/svg" xmlns:xlink="http://www.w3.org/1999/xlink" x="0px" y="0px"
	 viewBox="0 0 160 160" style="enable-background:new 0 0 160 160;" xml:space="preserve">
<style type="text/css">
	.st0{fill:#FFFFFF;}
</style>
<g id="circle">
	<path class="st0" d="M80,2c43,0,78,35,78,78s-35,78-78,78S2,123,2,80S37,2,80,2 M80,0C35.8,0,0,35.8,0,80s35.8,80,80,80
		s80-35.8,80-80S124.2,0,80,0L80,0z"/>
</g>
<g id="_x32_">
	<path class="st0" d="M66.4,96.3c3.3,0,5.9-1,7.8-2.9S77,89,77,86c0-2.9-0.9-5.1-2.8-6.8c-1.9-1.7-4.3-2.5-7.1-2.5
		c-2.7,0-5.3,0.6-7.9,1.7c0.1-1.2,0.2-3,0.2-5.3v-7.1h15.2v-2.1H57.2V79c0,0.3,0.1,0.6,0.3,0.7l0.8,0.4c0.3,0.1,0.6,0.2,0.8,0.1
		c2.8-1.1,5.3-1.6,7.7-1.6c2.4,0,4.3,0.6,5.7,1.8s2.1,3,2.1,5.3c0,2.7-0.7,4.7-2.2,6.1s-3.5,2.1-6.2,2.1c-2,0-4.3-0.4-6.9-1.4
		l-3-1.1l-0.8,1.3c1.6,1,3.3,1.9,5.3,2.6C62.8,96,64.6,96.3,66.4,96.3z"/>
	<path class="st0" d="M93.7,96.3c3.2,0,5.8-0.9,7.9-2.5s3.1-3.8,3.1-6.6c0-1.2-0.2-2.3-0.6-3.2c-0.4-0.9-1-1.7-1.8-2.4
		c-0.8-0.7-1.7-1.3-2.7-1.8s-2.2-1-3.6-1.5l-3.4-1.2c-2.4-0.9-4.2-1.7-5.2-2.6s-1.5-2-1.5-3.5c0-3.4,2.6-5.1,7.9-5.1
		c1.7,0,3.9,0.2,6.6,0.6l2.3,0.4l0.5-1.5c-1.5-0.3-3.1-0.7-4.8-1.1c-1.8-0.4-3.3-0.6-4.7-0.6c-3.1,0-5.5,0.6-7.4,1.9
		s-2.8,3.1-2.8,5.4c0,1.9,0.6,3.5,1.9,4.7s3.4,2.4,6.4,3.5l3.5,1.3c2.5,0.9,4.3,1.9,5.3,2.8c1,1,1.5,2.3,1.5,3.9
		c0,2.1-0.7,3.8-2.2,5.1c-1.5,1.3-3.6,1.9-6.4,1.9c-2.2,0-4.6-0.4-7.1-1.2l-2.9-0.9l-0.7,1.4c1.5,0.5,3.4,1.1,5.4,1.8
		S92,96.3,93.7,96.3z"/>
	<path class="st0" d="M34,28.3v103.5h72.9c10.5,0,19.1-8.6,19.1-19.1V28.3H34z M107.2,129.7v-17H124
		C123.9,122,116.4,129.6,107.2,129.7z M124,110.8h-18.8v19H36V30.3h88V110.8z"/>
</g>
</svg>
