<?xml version="1.0" encoding="utf-8"?>
<!-- Generator: Adobe Illustrator 21.1.0, SVG Export Plug-In . SVG Version: 6.00 Build 0)  -->
<svg version="1.1" xmlns="http://www.w3.org/2000/svg" xmlns:xlink="http://www.w3.org/1999/xlink" x="0px" y="0px"
	 viewBox="0 0 160 160" style="enable-background:new 0 0 160 160;" xml:space="preserve">
<style type="text/css">
	.st0{fill:#FFFFFF;}
	.st1{fill:#C8D2D4;}
</style>
<g id="circle">
	<path class="st0" d="M80,2c43,0,78,35,78,78s-35,78-78,78S2,123,2,80S37,2,80,2 M80,0C35.8,0,0,35.8,0,80s35.8,80,80,80
		s80-35.8,80-80S124.2,0,80,0L80,0z"/>
</g>
<g id="_x33__1_">
	<g>
		<path class="st0" d="M67.9,86.4l0.4-0.7l1.5,0.5c1.3,0.5,2.4,0.7,3.4,0.7c1.3,0,2.3-0.3,3.1-1s1.1-1.7,1.1-3c0-1.1-0.3-2-1-2.6
			c-0.7-0.6-1.6-0.9-2.8-0.9c-1.2,0-2.4,0.3-3.8,0.8c-0.1,0-0.3,0-0.4-0.1L68.9,80c-0.1-0.1-0.2-0.2-0.2-0.3v-7.5h8.6v1h-7.5v3.5
			c0,1.2,0,2-0.1,2.6c1.3-0.6,2.6-0.8,3.9-0.8c1.4,0,2.6,0.4,3.5,1.2c0.9,0.8,1.4,1.9,1.4,3.3c0,1.5-0.5,2.7-1.4,3.7
			c-0.9,1-2.2,1.4-3.9,1.4c-0.9,0-1.8-0.2-2.7-0.5S68.7,86.9,67.9,86.4z"/>
		<path class="st0" d="M81.4,86.7l0.3-0.7l1.4,0.4c1.3,0.4,2.4,0.6,3.5,0.6c1.4,0,2.4-0.3,3.2-1c0.7-0.6,1.1-1.5,1.1-2.5
			c0-0.8-0.3-1.4-0.8-1.9c-0.5-0.5-1.4-0.9-2.6-1.4l-1.7-0.6c-1.5-0.5-2.5-1.1-3.1-1.7c-0.6-0.6-0.9-1.4-0.9-2.3
			c0-1.1,0.5-2,1.4-2.7c0.9-0.6,2.1-1,3.7-1c0.7,0,1.5,0.1,2.3,0.3c0.9,0.2,1.6,0.4,2.4,0.6l-0.2,0.7L90,73.3
			c-1.3-0.2-2.4-0.3-3.3-0.3c-2.6,0-3.9,0.8-3.9,2.5c0,0.7,0.3,1.3,0.8,1.7c0.5,0.4,1.4,0.9,2.6,1.3l1.7,0.6
			c0.7,0.3,1.3,0.5,1.8,0.8s0.9,0.6,1.3,0.9s0.7,0.7,0.9,1.2c0.2,0.5,0.3,1,0.3,1.6c0,1.4-0.5,2.5-1.5,3.3s-2.3,1.2-3.9,1.2
			c-0.8,0-1.7-0.2-2.7-0.5C83,87.2,82.1,87,81.4,86.7z"/>
	</g>
	<g>
		<path class="st1" d="M80,103.2c-12.8,0-23.2-10.4-23.2-23.2c0-12.8,10.4-23.2,23.2-23.2c12.8,0,23.2,10.4,23.2,23.2
			C103.2,92.8,92.8,103.2,80,103.2z M80,58.8c-11.7,0-21.2,9.5-21.2,21.2c0,11.7,9.5,21.2,21.2,21.2s21.2-9.5,21.2-21.2
			C101.2,68.3,91.7,58.8,80,58.8z"/>
	</g>
	<g>
		<path class="st0" d="M96.6,110.2l-34.3-0.1L45,80.1l17.5-30l34.4,0.1l17.4,30.1L96.6,110.2z M63.4,108.1l32,0.1l16.5-28L95.7,52.2
			l-32.1-0.1l-16.3,28L63.4,108.1z"/>
	</g>
	<g>
		<path class="st0" d="M113.7,118.9c-3.7,0-8.3-2.2-14.4-5.8l-0.9-0.5l18.8-32L98.8,47.3l-38.2-0.1L41.7,79.2l-0.9-0.5
			c-6.8-4-10.2-6.8-11.9-9.6c-1.8-3.1-1.5-6.3,1-10.5l10.9-18.5c10-16.9,15.1-23.9,43.2-27.3c7.2-0.9,14.4-4.3,14.5-4.4l0.9,1.8
			c-0.3,0.1-7.5,3.6-15.1,4.6C57.5,18,52.6,24.1,42.6,41.1L31.7,59.6c-2.1,3.6-2.4,6-1,8.5c1.4,2.4,4.5,4.9,10.3,8.4l18.5-31.4
			l40.5,0.2l19.6,35.4l-18.4,31.3c11.4,6.6,15.5,6.6,19.4,0l10.9-18.5c9.3-15.8,7.3-24.7,3.3-42.3l-0.4-1.6
			c-1.5-6.6-0.9-12.5,1.6-17.4l1.8,0.9c-2.4,4.5-2.8,9.8-1.5,16l0.4,1.6c4,17.6,6.2,27.3-3.6,43.8L122.2,113
			C119.8,117.1,117.1,118.9,113.7,118.9z"/>
	</g>
</g>
</svg>
