<?xml version="1.0" encoding="utf-8"?>
<!-- Generator: Adobe Illustrator 21.1.0, SVG Export Plug-In . SVG Version: 6.00 Build 0)  -->
<svg version="1.1" id="Layer_1" xmlns="http://www.w3.org/2000/svg" xmlns:xlink="http://www.w3.org/1999/xlink" x="0px" y="0px"
	 viewBox="0 0 160 160" style="enable-background:new 0 0 160 160;" xml:space="preserve">
<style type="text/css">
	.st0{fill:#FFFFFF;}
</style>
<g>
	<path class="st0" d="M80,2c43,0,78,35,78,78s-35,78-78,78S2,123,2,80S37,2,80,2 M80,0C35.8,0,0,35.8,0,80s35.8,80,80,80
		s80-35.8,80-80S124.2,0,80,0L80,0z"/>
</g>
<g>
	<g>
		<g>
			<path class="st0" d="M49,68c0-0.6,0.4-1,1-1l0,0c0.5,0,1,0.4,1,1l0,0c0,0.5-0.5,1-1,1l0,0C49.4,69,49,68.5,49,68z M44,68
				c0-0.6,0.4-1,1-1l0,0c0.5,0,1,0.4,1,1l0,0c0,0.5-0.5,1-1,1l0,0C44.4,69,44,68.5,44,68z M39,68c0-0.6,0.4-1,1-1l0,0
				c0.5,0,1,0.4,1,1l0,0c0,0.5-0.5,1-1,1l0,0C39.4,69,39,68.5,39,68z M34,68c0-0.6,0.4-1,1-1l0,0c0.5,0,1,0.4,1,1l0,0
				c0,0.5-0.5,1-1,1l0,0C34.4,69,34,68.5,34,68z M29,68c0-0.6,0.4-1,1-1l0,0c0.5,0,1,0.4,1,1l0,0c0,0.5-0.5,1-1,1l0,0
				C29.4,69,29,68.5,29,68z M49,63c0-0.6,0.4-1,1-1l0,0c0.5,0,1,0.4,1,1l0,0c0,0.5-0.5,1-1,1l0,0C49.4,64,49,63.5,49,63z M29,63
				c0-0.6,0.4-1,1-1l0,0c0.5,0,1,0.4,1,1l0,0c0,0.5-0.5,1-1,1l0,0C29.4,64,29,63.5,29,63z M49,58c0-0.6,0.4-1,1-1l0,0
				c0.5,0,1,0.4,1,1l0,0c0,0.5-0.5,1-1,1l0,0C49.4,59,49,58.5,49,58z M29,58c0-0.6,0.4-1,1-1l0,0c0.5,0,1,0.4,1,1l0,0
				c0,0.5-0.5,1-1,1l0,0C29.4,59,29,58.5,29,58z M49,53c0-0.6,0.4-1,1-1l0,0c0.5,0,1,0.4,1,1l0,0c0,0.5-0.5,1-1,1l0,0
				C49.4,54,49,53.5,49,53z M29,53c0-0.6,0.4-1,1-1l0,0c0.5,0,1,0.4,1,1l0,0c0,0.5-0.5,1-1,1l0,0C29.4,54,29,53.5,29,53z M49,48
				c0-0.6,0.4-1,1-1l0,0c0.5,0,1,0.4,1,1l0,0c0,0.5-0.5,1-1,1l0,0C49.4,49,49,48.5,49,48z M44,48c0-0.6,0.4-1,1-1l0,0
				c0.5,0,1,0.4,1,1l0,0c0,0.5-0.5,1-1,1l0,0C44.4,49,44,48.5,44,48z M39,48c0-0.6,0.4-1,1-1l0,0c0.5,0,1,0.4,1,1l0,0
				c0,0.5-0.5,1-1,1l0,0C39.4,49,39,48.5,39,48z M34,48c0-0.6,0.4-1,1-1l0,0c0.5,0,1,0.4,1,1l0,0c0,0.5-0.5,1-1,1l0,0
				C34.4,49,34,48.5,34,48z M29,48c0-0.6,0.4-1,1-1l0,0c0.5,0,1,0.4,1,1l0,0c0,0.5-0.5,1-1,1l0,0C29.4,49,29,48.5,29,48z"/>
		</g>
		<g>
			<path class="st0" d="M69,68c0-0.6,0.4-1,1-1l0,0c0.5,0,1,0.4,1,1l0,0c0,0.5-0.5,1-1,1l0,0C69.4,69,69,68.5,69,68z M64,68
				c0-0.6,0.4-1,1-1l0,0c0.5,0,1,0.4,1,1l0,0c0,0.5-0.5,1-1,1l0,0C64.4,69,64,68.5,64,68z M59,68c0-0.6,0.4-1,1-1l0,0
				c0.5,0,1,0.4,1,1l0,0c0,0.5-0.5,1-1,1l0,0C59.4,69,59,68.5,59,68z M54,68c0-0.6,0.4-1,1-1l0,0c0.5,0,1,0.4,1,1l0,0
				c0,0.5-0.5,1-1,1l0,0C54.4,69,54,68.5,54,68z M49,68c0-0.6,0.4-1,1-1l0,0c0.5,0,1,0.4,1,1l0,0c0,0.5-0.5,1-1,1l0,0
				C49.4,69,49,68.5,49,68z M69,63c0-0.6,0.4-1,1-1l0,0c0.5,0,1,0.4,1,1l0,0c0,0.5-0.5,1-1,1l0,0C69.4,64,69,63.5,69,63z M49,63
				c0-0.6,0.4-1,1-1l0,0c0.5,0,1,0.4,1,1l0,0c0,0.5-0.5,1-1,1l0,0C49.4,64,49,63.5,49,63z M69,58c0-0.6,0.4-1,1-1l0,0
				c0.5,0,1,0.4,1,1l0,0c0,0.5-0.5,1-1,1l0,0C69.4,59,69,58.5,69,58z M49,58c0-0.6,0.4-1,1-1l0,0c0.5,0,1,0.4,1,1l0,0
				c0,0.5-0.5,1-1,1l0,0C49.4,59,49,58.5,49,58z M69,53c0-0.6,0.4-1,1-1l0,0c0.5,0,1,0.4,1,1l0,0c0,0.5-0.5,1-1,1l0,0
				C69.4,54,69,53.5,69,53z M49,53c0-0.6,0.4-1,1-1l0,0c0.5,0,1,0.4,1,1l0,0c0,0.5-0.5,1-1,1l0,0C49.4,54,49,53.5,49,53z M69,48
				c0-0.6,0.4-1,1-1l0,0c0.5,0,1,0.4,1,1l0,0c0,0.5-0.5,1-1,1l0,0C69.4,49,69,48.5,69,48z M64,48c0-0.6,0.4-1,1-1l0,0
				c0.5,0,1,0.4,1,1l0,0c0,0.5-0.5,1-1,1l0,0C64.4,49,64,48.5,64,48z M59,48c0-0.6,0.4-1,1-1l0,0c0.5,0,1,0.4,1,1l0,0
				c0,0.5-0.5,1-1,1l0,0C59.4,49,59,48.5,59,48z M54,48c0-0.6,0.4-1,1-1l0,0c0.5,0,1,0.4,1,1l0,0c0,0.5-0.5,1-1,1l0,0
				C54.4,49,54,48.5,54,48z M49,48c0-0.6,0.4-1,1-1l0,0c0.5,0,1,0.4,1,1l0,0c0,0.5-0.5,1-1,1l0,0C49.4,49,49,48.5,49,48z"/>
		</g>
		<g>
			<path class="st0" d="M89,68c0-0.6,0.5-1,1-1l0,0c0.5,0,1,0.4,1,1l0,0c0,0.5-0.5,1-1,1l0,0C89.5,69,89,68.5,89,68z M84,68
				c0-0.6,0.5-1,1-1l0,0c0.5,0,1,0.4,1,1l0,0c0,0.5-0.5,1-1,1l0,0C84.5,69,84,68.5,84,68z M79,68c0-0.6,0.4-1,1-1l0,0
				c0.5,0,1,0.4,1,1l0,0c0,0.5-0.5,1-1,1l0,0C79.4,69,79,68.5,79,68z M74,68c0-0.6,0.4-1,1-1l0,0c0.5,0,1,0.4,1,1l0,0
				c0,0.5-0.5,1-1,1l0,0C74.4,69,74,68.5,74,68z M69,68c0-0.6,0.4-1,1-1l0,0c0.5,0,1,0.4,1,1l0,0c0,0.5-0.5,1-1,1l0,0
				C69.4,69,69,68.5,69,68z M89,63c0-0.6,0.5-1,1-1l0,0c0.5,0,1,0.4,1,1l0,0c0,0.5-0.5,1-1,1l0,0C89.5,64,89,63.5,89,63z M69,63
				c0-0.6,0.4-1,1-1l0,0c0.5,0,1,0.4,1,1l0,0c0,0.5-0.5,1-1,1l0,0C69.4,64,69,63.5,69,63z M89,58c0-0.6,0.5-1,1-1l0,0
				c0.5,0,1,0.4,1,1l0,0c0,0.5-0.5,1-1,1l0,0C89.5,59,89,58.5,89,58z M69,58c0-0.6,0.4-1,1-1l0,0c0.5,0,1,0.4,1,1l0,0
				c0,0.5-0.5,1-1,1l0,0C69.4,59,69,58.5,69,58z M89,53c0-0.6,0.5-1,1-1l0,0c0.5,0,1,0.4,1,1l0,0c0,0.5-0.5,1-1,1l0,0
				C89.5,54,89,53.5,89,53z M69,53c0-0.6,0.4-1,1-1l0,0c0.5,0,1,0.4,1,1l0,0c0,0.5-0.5,1-1,1l0,0C69.4,54,69,53.5,69,53z M89,48
				c0-0.6,0.5-1,1-1l0,0c0.5,0,1,0.4,1,1l0,0c0,0.5-0.5,1-1,1l0,0C89.5,49,89,48.5,89,48z M84,48c0-0.6,0.5-1,1-1l0,0
				c0.5,0,1,0.4,1,1l0,0c0,0.5-0.5,1-1,1l0,0C84.5,49,84,48.5,84,48z M79,48c0-0.6,0.4-1,1-1l0,0c0.5,0,1,0.4,1,1l0,0
				c0,0.5-0.5,1-1,1l0,0C79.4,49,79,48.5,79,48z M74,48c0-0.6,0.4-1,1-1l0,0c0.5,0,1,0.4,1,1l0,0c0,0.5-0.5,1-1,1l0,0
				C74.4,49,74,48.5,74,48z M69,48c0-0.6,0.4-1,1-1l0,0c0.5,0,1,0.4,1,1l0,0c0,0.5-0.5,1-1,1l0,0C69.4,49,69,48.5,69,48z"/>
		</g>
		<g>
			<path class="st0" d="M109,68c0-0.6,0.5-1,1-1l0,0c0.5,0,1,0.4,1,1l0,0c0,0.5-0.5,1-1,1l0,0C109.5,69,109,68.5,109,68z M104,68
				c0-0.6,0.5-1,1-1l0,0c0.5,0,1,0.4,1,1l0,0c0,0.5-0.5,1-1,1l0,0C104.5,69,104,68.5,104,68z M99,68c0-0.6,0.5-1,1-1l0,0
				c0.5,0,1,0.4,1,1l0,0c0,0.5-0.5,1-1,1l0,0C99.5,69,99,68.5,99,68z M94,68c0-0.6,0.5-1,1-1l0,0c0.5,0,1,0.4,1,1l0,0
				c0,0.5-0.5,1-1,1l0,0C94.5,69,94,68.5,94,68z M89,68c0-0.6,0.5-1,1-1l0,0c0.5,0,1,0.4,1,1l0,0c0,0.5-0.5,1-1,1l0,0
				C89.5,69,89,68.5,89,68z M109,63c0-0.6,0.5-1,1-1l0,0c0.5,0,1,0.4,1,1l0,0c0,0.5-0.5,1-1,1l0,0C109.5,64,109,63.5,109,63z M89,63
				c0-0.6,0.5-1,1-1l0,0c0.5,0,1,0.4,1,1l0,0c0,0.5-0.5,1-1,1l0,0C89.5,64,89,63.5,89,63z M109,58c0-0.6,0.5-1,1-1l0,0
				c0.5,0,1,0.4,1,1l0,0c0,0.5-0.5,1-1,1l0,0C109.5,59,109,58.5,109,58z M89,58c0-0.6,0.5-1,1-1l0,0c0.5,0,1,0.4,1,1l0,0
				c0,0.5-0.5,1-1,1l0,0C89.5,59,89,58.5,89,58z M109,53c0-0.6,0.5-1,1-1l0,0c0.5,0,1,0.4,1,1l0,0c0,0.5-0.5,1-1,1l0,0
				C109.5,54,109,53.5,109,53z M89,53c0-0.6,0.5-1,1-1l0,0c0.5,0,1,0.4,1,1l0,0c0,0.5-0.5,1-1,1l0,0C89.5,54,89,53.5,89,53z M109,48
				c0-0.6,0.5-1,1-1l0,0c0.5,0,1,0.4,1,1l0,0c0,0.5-0.5,1-1,1l0,0C109.5,49,109,48.5,109,48z M104,48c0-0.6,0.5-1,1-1l0,0
				c0.5,0,1,0.4,1,1l0,0c0,0.5-0.5,1-1,1l0,0C104.5,49,104,48.5,104,48z M99,48c0-0.6,0.5-1,1-1l0,0c0.5,0,1,0.4,1,1l0,0
				c0,0.5-0.5,1-1,1l0,0C99.5,49,99,48.5,99,48z M94,48c0-0.6,0.5-1,1-1l0,0c0.5,0,1,0.4,1,1l0,0c0,0.5-0.5,1-1,1l0,0
				C94.5,49,94,48.5,94,48z M89,48c0-0.6,0.5-1,1-1l0,0c0.5,0,1,0.4,1,1l0,0c0,0.5-0.5,1-1,1l0,0C89.5,49,89,48.5,89,48z"/>
		</g>
		<g>
			<path class="st0" d="M129,68c0-0.6,0.5-1,1-1l0,0c0.5,0,1,0.4,1,1l0,0c0,0.5-0.5,1-1,1l0,0C129.5,69,129,68.5,129,68z M124,68
				c0-0.6,0.5-1,1-1l0,0c0.5,0,1,0.4,1,1l0,0c0,0.5-0.5,1-1,1l0,0C124.5,69,124,68.5,124,68z M119,68c0-0.6,0.5-1,1-1l0,0
				c0.5,0,1,0.4,1,1l0,0c0,0.5-0.5,1-1,1l0,0C119.5,69,119,68.5,119,68z M114,68c0-0.6,0.5-1,1-1l0,0c0.5,0,1,0.4,1,1l0,0
				c0,0.5-0.5,1-1,1l0,0C114.5,69,114,68.5,114,68z M109,68c0-0.6,0.5-1,1-1l0,0c0.5,0,1,0.4,1,1l0,0c0,0.5-0.5,1-1,1l0,0
				C109.5,69,109,68.5,109,68z M129,63c0-0.6,0.5-1,1-1l0,0c0.5,0,1,0.4,1,1l0,0c0,0.5-0.5,1-1,1l0,0C129.5,64,129,63.5,129,63z
				 M109,63c0-0.6,0.5-1,1-1l0,0c0.5,0,1,0.4,1,1l0,0c0,0.5-0.5,1-1,1l0,0C109.5,64,109,63.5,109,63z M129,58c0-0.6,0.5-1,1-1l0,0
				c0.5,0,1,0.4,1,1l0,0c0,0.5-0.5,1-1,1l0,0C129.5,59,129,58.5,129,58z M109,58c0-0.6,0.5-1,1-1l0,0c0.5,0,1,0.4,1,1l0,0
				c0,0.5-0.5,1-1,1l0,0C109.5,59,109,58.5,109,58z M129,53c0-0.6,0.5-1,1-1l0,0c0.5,0,1,0.4,1,1l0,0c0,0.5-0.5,1-1,1l0,0
				C129.5,54,129,53.5,129,53z M109,53c0-0.6,0.5-1,1-1l0,0c0.5,0,1,0.4,1,1l0,0c0,0.5-0.5,1-1,1l0,0C109.5,54,109,53.5,109,53z
				 M129,48c0-0.6,0.5-1,1-1l0,0c0.5,0,1,0.4,1,1l0,0c0,0.5-0.5,1-1,1l0,0C129.5,49,129,48.5,129,48z M124,48c0-0.6,0.5-1,1-1l0,0
				c0.5,0,1,0.4,1,1l0,0c0,0.5-0.5,1-1,1l0,0C124.5,49,124,48.5,124,48z M119,48c0-0.6,0.5-1,1-1l0,0c0.5,0,1,0.4,1,1l0,0
				c0,0.5-0.5,1-1,1l0,0C119.5,49,119,48.5,119,48z M114,48c0-0.6,0.5-1,1-1l0,0c0.5,0,1,0.4,1,1l0,0c0,0.5-0.5,1-1,1l0,0
				C114.5,49,114,48.5,114,48z M109,48c0-0.6,0.5-1,1-1l0,0c0.5,0,1,0.4,1,1l0,0c0,0.5-0.5,1-1,1l0,0C109.5,49,109,48.5,109,48z"/>
		</g>
	</g>
	<g>
		<g>
			<path class="st0" d="M49,88c0-0.5,0.4-1,1-1l0,0c0.5,0,1,0.5,1,1l0,0c0,0.5-0.5,1-1,1l0,0C49.4,89,49,88.5,49,88z M44,88
				c0-0.5,0.4-1,1-1l0,0c0.5,0,1,0.5,1,1l0,0c0,0.5-0.5,1-1,1l0,0C44.4,89,44,88.5,44,88z M39,88c0-0.5,0.4-1,1-1l0,0
				c0.5,0,1,0.5,1,1l0,0c0,0.5-0.5,1-1,1l0,0C39.4,89,39,88.5,39,88z M34,88c0-0.5,0.4-1,1-1l0,0c0.5,0,1,0.5,1,1l0,0
				c0,0.5-0.5,1-1,1l0,0C34.4,89,34,88.5,34,88z M29,88c0-0.5,0.4-1,1-1l0,0c0.5,0,1,0.5,1,1l0,0c0,0.5-0.5,1-1,1l0,0
				C29.4,89,29,88.5,29,88z M49,83c0-0.5,0.4-1,1-1l0,0c0.5,0,1,0.5,1,1l0,0c0,0.5-0.5,1-1,1l0,0C49.4,84,49,83.5,49,83z M29,83
				c0-0.5,0.4-1,1-1l0,0c0.5,0,1,0.5,1,1l0,0c0,0.5-0.5,1-1,1l0,0C29.4,84,29,83.5,29,83z M49,78c0-0.6,0.4-1,1-1l0,0
				c0.5,0,1,0.4,1,1l0,0c0,0.5-0.5,1-1,1l0,0C49.4,79,49,78.5,49,78z M29,78c0-0.6,0.4-1,1-1l0,0c0.5,0,1,0.4,1,1l0,0
				c0,0.5-0.5,1-1,1l0,0C29.4,79,29,78.5,29,78z M49,73c0-0.6,0.4-1,1-1l0,0c0.5,0,1,0.4,1,1l0,0c0,0.5-0.5,1-1,1l0,0
				C49.4,74,49,73.5,49,73z M29,73c0-0.6,0.4-1,1-1l0,0c0.5,0,1,0.4,1,1l0,0c0,0.5-0.5,1-1,1l0,0C29.4,74,29,73.5,29,73z M49,68
				c0-0.6,0.4-1,1-1l0,0c0.5,0,1,0.4,1,1l0,0c0,0.5-0.5,1-1,1l0,0C49.4,69,49,68.5,49,68z M44,68c0-0.6,0.4-1,1-1l0,0
				c0.5,0,1,0.4,1,1l0,0c0,0.5-0.5,1-1,1l0,0C44.4,69,44,68.5,44,68z M39,68c0-0.6,0.4-1,1-1l0,0c0.5,0,1,0.4,1,1l0,0
				c0,0.5-0.5,1-1,1l0,0C39.4,69,39,68.5,39,68z M34,68c0-0.6,0.4-1,1-1l0,0c0.5,0,1,0.4,1,1l0,0c0,0.5-0.5,1-1,1l0,0
				C34.4,69,34,68.5,34,68z M29,68c0-0.6,0.4-1,1-1l0,0c0.5,0,1,0.4,1,1l0,0c0,0.5-0.5,1-1,1l0,0C29.4,69,29,68.5,29,68z"/>
		</g>
		<g>
			<path class="st0" d="M69,88c0-0.5,0.4-1,1-1l0,0c0.5,0,1,0.5,1,1l0,0c0,0.5-0.5,1-1,1l0,0C69.4,89,69,88.5,69,88z M64,88
				c0-0.5,0.4-1,1-1l0,0c0.5,0,1,0.5,1,1l0,0c0,0.5-0.5,1-1,1l0,0C64.4,89,64,88.5,64,88z M59,88c0-0.5,0.4-1,1-1l0,0
				c0.5,0,1,0.5,1,1l0,0c0,0.5-0.5,1-1,1l0,0C59.4,89,59,88.5,59,88z M54,88c0-0.5,0.4-1,1-1l0,0c0.5,0,1,0.5,1,1l0,0
				c0,0.5-0.5,1-1,1l0,0C54.4,89,54,88.5,54,88z M49,88c0-0.5,0.4-1,1-1l0,0c0.5,0,1,0.5,1,1l0,0c0,0.5-0.5,1-1,1l0,0
				C49.4,89,49,88.5,49,88z M69,83c0-0.5,0.4-1,1-1l0,0c0.5,0,1,0.5,1,1l0,0c0,0.5-0.5,1-1,1l0,0C69.4,84,69,83.5,69,83z M49,83
				c0-0.5,0.4-1,1-1l0,0c0.5,0,1,0.5,1,1l0,0c0,0.5-0.5,1-1,1l0,0C49.4,84,49,83.5,49,83z M69,78c0-0.6,0.4-1,1-1l0,0
				c0.5,0,1,0.4,1,1l0,0c0,0.5-0.5,1-1,1l0,0C69.4,79,69,78.5,69,78z M49,78c0-0.6,0.4-1,1-1l0,0c0.5,0,1,0.4,1,1l0,0
				c0,0.5-0.5,1-1,1l0,0C49.4,79,49,78.5,49,78z M69,73c0-0.6,0.4-1,1-1l0,0c0.5,0,1,0.4,1,1l0,0c0,0.5-0.5,1-1,1l0,0
				C69.4,74,69,73.5,69,73z M49,73c0-0.6,0.4-1,1-1l0,0c0.5,0,1,0.4,1,1l0,0c0,0.5-0.5,1-1,1l0,0C49.4,74,49,73.5,49,73z M69,68
				c0-0.6,0.4-1,1-1l0,0c0.5,0,1,0.4,1,1l0,0c0,0.5-0.5,1-1,1l0,0C69.4,69,69,68.5,69,68z M64,68c0-0.6,0.4-1,1-1l0,0
				c0.5,0,1,0.4,1,1l0,0c0,0.5-0.5,1-1,1l0,0C64.4,69,64,68.5,64,68z M59,68c0-0.6,0.4-1,1-1l0,0c0.5,0,1,0.4,1,1l0,0
				c0,0.5-0.5,1-1,1l0,0C59.4,69,59,68.5,59,68z M54,68c0-0.6,0.4-1,1-1l0,0c0.5,0,1,0.4,1,1l0,0c0,0.5-0.5,1-1,1l0,0
				C54.4,69,54,68.5,54,68z M49,68c0-0.6,0.4-1,1-1l0,0c0.5,0,1,0.4,1,1l0,0c0,0.5-0.5,1-1,1l0,0C49.4,69,49,68.5,49,68z"/>
		</g>
		<g>
			<path class="st0" d="M89,88c0-0.5,0.5-1,1-1l0,0c0.5,0,1,0.5,1,1l0,0c0,0.5-0.5,1-1,1l0,0C89.5,89,89,88.5,89,88z M84,88
				c0-0.5,0.5-1,1-1l0,0c0.5,0,1,0.5,1,1l0,0c0,0.5-0.5,1-1,1l0,0C84.5,89,84,88.5,84,88z M79,88c0-0.5,0.4-1,1-1l0,0
				c0.5,0,1,0.5,1,1l0,0c0,0.5-0.5,1-1,1l0,0C79.4,89,79,88.5,79,88z M74,88c0-0.5,0.4-1,1-1l0,0c0.5,0,1,0.5,1,1l0,0
				c0,0.5-0.5,1-1,1l0,0C74.4,89,74,88.5,74,88z M69,88c0-0.5,0.4-1,1-1l0,0c0.5,0,1,0.5,1,1l0,0c0,0.5-0.5,1-1,1l0,0
				C69.4,89,69,88.5,69,88z M89,83c0-0.5,0.5-1,1-1l0,0c0.5,0,1,0.5,1,1l0,0c0,0.5-0.5,1-1,1l0,0C89.5,84,89,83.5,89,83z M69,83
				c0-0.5,0.4-1,1-1l0,0c0.5,0,1,0.5,1,1l0,0c0,0.5-0.5,1-1,1l0,0C69.4,84,69,83.5,69,83z M89,78c0-0.6,0.5-1,1-1l0,0
				c0.5,0,1,0.4,1,1l0,0c0,0.5-0.5,1-1,1l0,0C89.5,79,89,78.5,89,78z M69,78c0-0.6,0.4-1,1-1l0,0c0.5,0,1,0.4,1,1l0,0
				c0,0.5-0.5,1-1,1l0,0C69.4,79,69,78.5,69,78z M89,73c0-0.6,0.5-1,1-1l0,0c0.5,0,1,0.4,1,1l0,0c0,0.5-0.5,1-1,1l0,0
				C89.5,74,89,73.5,89,73z M69,73c0-0.6,0.4-1,1-1l0,0c0.5,0,1,0.4,1,1l0,0c0,0.5-0.5,1-1,1l0,0C69.4,74,69,73.5,69,73z M89,68
				c0-0.6,0.5-1,1-1l0,0c0.5,0,1,0.4,1,1l0,0c0,0.5-0.5,1-1,1l0,0C89.5,69,89,68.5,89,68z M84,68c0-0.6,0.5-1,1-1l0,0
				c0.5,0,1,0.4,1,1l0,0c0,0.5-0.5,1-1,1l0,0C84.5,69,84,68.5,84,68z M79,68c0-0.6,0.4-1,1-1l0,0c0.5,0,1,0.4,1,1l0,0
				c0,0.5-0.5,1-1,1l0,0C79.4,69,79,68.5,79,68z M74,68c0-0.6,0.4-1,1-1l0,0c0.5,0,1,0.4,1,1l0,0c0,0.5-0.5,1-1,1l0,0
				C74.4,69,74,68.5,74,68z M69,68c0-0.6,0.4-1,1-1l0,0c0.5,0,1,0.4,1,1l0,0c0,0.5-0.5,1-1,1l0,0C69.4,69,69,68.5,69,68z"/>
		</g>
		<g>
			<path class="st0" d="M109,88c0-0.5,0.5-1,1-1l0,0c0.5,0,1,0.5,1,1l0,0c0,0.5-0.5,1-1,1l0,0C109.5,89,109,88.5,109,88z M104,88
				c0-0.5,0.5-1,1-1l0,0c0.5,0,1,0.5,1,1l0,0c0,0.5-0.5,1-1,1l0,0C104.5,89,104,88.5,104,88z M99,88c0-0.5,0.5-1,1-1l0,0
				c0.5,0,1,0.5,1,1l0,0c0,0.5-0.5,1-1,1l0,0C99.5,89,99,88.5,99,88z M94,88c0-0.5,0.5-1,1-1l0,0c0.5,0,1,0.5,1,1l0,0
				c0,0.5-0.5,1-1,1l0,0C94.5,89,94,88.5,94,88z M89,88c0-0.5,0.5-1,1-1l0,0c0.5,0,1,0.5,1,1l0,0c0,0.5-0.5,1-1,1l0,0
				C89.5,89,89,88.5,89,88z M109,83c0-0.5,0.5-1,1-1l0,0c0.5,0,1,0.5,1,1l0,0c0,0.5-0.5,1-1,1l0,0C109.5,84,109,83.5,109,83z M89,83
				c0-0.5,0.5-1,1-1l0,0c0.5,0,1,0.5,1,1l0,0c0,0.5-0.5,1-1,1l0,0C89.5,84,89,83.5,89,83z M109,78c0-0.6,0.5-1,1-1l0,0
				c0.5,0,1,0.4,1,1l0,0c0,0.5-0.5,1-1,1l0,0C109.5,79,109,78.5,109,78z M89,78c0-0.6,0.5-1,1-1l0,0c0.5,0,1,0.4,1,1l0,0
				c0,0.5-0.5,1-1,1l0,0C89.5,79,89,78.5,89,78z M109,73c0-0.6,0.5-1,1-1l0,0c0.5,0,1,0.4,1,1l0,0c0,0.5-0.5,1-1,1l0,0
				C109.5,74,109,73.5,109,73z M89,73c0-0.6,0.5-1,1-1l0,0c0.5,0,1,0.4,1,1l0,0c0,0.5-0.5,1-1,1l0,0C89.5,74,89,73.5,89,73z M109,68
				c0-0.6,0.5-1,1-1l0,0c0.5,0,1,0.4,1,1l0,0c0,0.5-0.5,1-1,1l0,0C109.5,69,109,68.5,109,68z M104,68c0-0.6,0.5-1,1-1l0,0
				c0.5,0,1,0.4,1,1l0,0c0,0.5-0.5,1-1,1l0,0C104.5,69,104,68.5,104,68z M99,68c0-0.6,0.5-1,1-1l0,0c0.5,0,1,0.4,1,1l0,0
				c0,0.5-0.5,1-1,1l0,0C99.5,69,99,68.5,99,68z M94,68c0-0.6,0.5-1,1-1l0,0c0.5,0,1,0.4,1,1l0,0c0,0.5-0.5,1-1,1l0,0
				C94.5,69,94,68.5,94,68z M89,68c0-0.6,0.5-1,1-1l0,0c0.5,0,1,0.4,1,1l0,0c0,0.5-0.5,1-1,1l0,0C89.5,69,89,68.5,89,68z"/>
		</g>
		<g>
			<path class="st0" d="M129,88c0-0.5,0.5-1,1-1l0,0c0.5,0,1,0.5,1,1l0,0c0,0.5-0.5,1-1,1l0,0C129.5,89,129,88.5,129,88z M124,88
				c0-0.5,0.5-1,1-1l0,0c0.5,0,1,0.5,1,1l0,0c0,0.5-0.5,1-1,1l0,0C124.5,89,124,88.5,124,88z M119,88c0-0.5,0.5-1,1-1l0,0
				c0.5,0,1,0.5,1,1l0,0c0,0.5-0.5,1-1,1l0,0C119.5,89,119,88.5,119,88z M114,88c0-0.5,0.5-1,1-1l0,0c0.5,0,1,0.5,1,1l0,0
				c0,0.5-0.5,1-1,1l0,0C114.5,89,114,88.5,114,88z M109,88c0-0.5,0.5-1,1-1l0,0c0.5,0,1,0.5,1,1l0,0c0,0.5-0.5,1-1,1l0,0
				C109.5,89,109,88.5,109,88z M129,83c0-0.5,0.5-1,1-1l0,0c0.5,0,1,0.5,1,1l0,0c0,0.5-0.5,1-1,1l0,0C129.5,84,129,83.5,129,83z
				 M109,83c0-0.5,0.5-1,1-1l0,0c0.5,0,1,0.5,1,1l0,0c0,0.5-0.5,1-1,1l0,0C109.5,84,109,83.5,109,83z M129,78c0-0.6,0.5-1,1-1l0,0
				c0.5,0,1,0.4,1,1l0,0c0,0.5-0.5,1-1,1l0,0C129.5,79,129,78.5,129,78z M109,78c0-0.6,0.5-1,1-1l0,0c0.5,0,1,0.4,1,1l0,0
				c0,0.5-0.5,1-1,1l0,0C109.5,79,109,78.5,109,78z M129,73c0-0.6,0.5-1,1-1l0,0c0.5,0,1,0.4,1,1l0,0c0,0.5-0.5,1-1,1l0,0
				C129.5,74,129,73.5,129,73z M109,73c0-0.6,0.5-1,1-1l0,0c0.5,0,1,0.4,1,1l0,0c0,0.5-0.5,1-1,1l0,0C109.5,74,109,73.5,109,73z
				 M129,68c0-0.6,0.5-1,1-1l0,0c0.5,0,1,0.4,1,1l0,0c0,0.5-0.5,1-1,1l0,0C129.5,69,129,68.5,129,68z M124,68c0-0.6,0.5-1,1-1l0,0
				c0.5,0,1,0.4,1,1l0,0c0,0.5-0.5,1-1,1l0,0C124.5,69,124,68.5,124,68z M119,68c0-0.6,0.5-1,1-1l0,0c0.5,0,1,0.4,1,1l0,0
				c0,0.5-0.5,1-1,1l0,0C119.5,69,119,68.5,119,68z M114,68c0-0.6,0.5-1,1-1l0,0c0.5,0,1,0.4,1,1l0,0c0,0.5-0.5,1-1,1l0,0
				C114.5,69,114,68.5,114,68z M109,68c0-0.6,0.5-1,1-1l0,0c0.5,0,1,0.4,1,1l0,0c0,0.5-0.5,1-1,1l0,0C109.5,69,109,68.5,109,68z"/>
		</g>
	</g>
	<g>
		<g>
			<path class="st0" d="M49,108c0-0.5,0.4-1,1-1l0,0c0.5,0,1,0.5,1,1l0,0c0,0.5-0.5,1-1,1l0,0C49.4,109,49,108.5,49,108z M44,108
				c0-0.5,0.4-1,1-1l0,0c0.5,0,1,0.5,1,1l0,0c0,0.5-0.5,1-1,1l0,0C44.4,109,44,108.5,44,108z M39,108c0-0.5,0.4-1,1-1l0,0
				c0.5,0,1,0.5,1,1l0,0c0,0.5-0.5,1-1,1l0,0C39.4,109,39,108.5,39,108z M34,108c0-0.5,0.4-1,1-1l0,0c0.5,0,1,0.5,1,1l0,0
				c0,0.5-0.5,1-1,1l0,0C34.4,109,34,108.5,34,108z M29,108c0-0.5,0.4-1,1-1l0,0c0.5,0,1,0.5,1,1l0,0c0,0.5-0.5,1-1,1l0,0
				C29.4,109,29,108.5,29,108z M49,103c0-0.5,0.4-1,1-1l0,0c0.5,0,1,0.5,1,1l0,0c0,0.5-0.5,1-1,1l0,0C49.4,104,49,103.5,49,103z
				 M29,103c0-0.5,0.4-1,1-1l0,0c0.5,0,1,0.5,1,1l0,0c0,0.5-0.5,1-1,1l0,0C29.4,104,29,103.5,29,103z M49,98c0-0.5,0.4-1,1-1l0,0
				c0.5,0,1,0.5,1,1l0,0c0,0.5-0.5,1-1,1l0,0C49.4,99,49,98.5,49,98z M29,98c0-0.5,0.4-1,1-1l0,0c0.5,0,1,0.5,1,1l0,0
				c0,0.5-0.5,1-1,1l0,0C29.4,99,29,98.5,29,98z M49,93c0-0.5,0.4-1,1-1l0,0c0.5,0,1,0.5,1,1l0,0c0,0.5-0.5,1-1,1l0,0
				C49.4,94,49,93.5,49,93z M29,93c0-0.5,0.4-1,1-1l0,0c0.5,0,1,0.5,1,1l0,0c0,0.5-0.5,1-1,1l0,0C29.4,94,29,93.5,29,93z M49,88
				c0-0.5,0.4-1,1-1l0,0c0.5,0,1,0.5,1,1l0,0c0,0.5-0.5,1-1,1l0,0C49.4,89,49,88.5,49,88z M44,88c0-0.5,0.4-1,1-1l0,0
				c0.5,0,1,0.5,1,1l0,0c0,0.5-0.5,1-1,1l0,0C44.4,89,44,88.5,44,88z M39,88c0-0.5,0.4-1,1-1l0,0c0.5,0,1,0.5,1,1l0,0
				c0,0.5-0.5,1-1,1l0,0C39.4,89,39,88.5,39,88z M34,88c0-0.5,0.4-1,1-1l0,0c0.5,0,1,0.5,1,1l0,0c0,0.5-0.5,1-1,1l0,0
				C34.4,89,34,88.5,34,88z M29,88c0-0.5,0.4-1,1-1l0,0c0.5,0,1,0.5,1,1l0,0c0,0.5-0.5,1-1,1l0,0C29.4,89,29,88.5,29,88z"/>
		</g>
		<g>
			<path class="st0" d="M69,108c0-0.5,0.4-1,1-1l0,0c0.5,0,1,0.5,1,1l0,0c0,0.5-0.5,1-1,1l0,0C69.4,109,69,108.5,69,108z M64,108
				c0-0.5,0.4-1,1-1l0,0c0.5,0,1,0.5,1,1l0,0c0,0.5-0.5,1-1,1l0,0C64.4,109,64,108.5,64,108z M59,108c0-0.5,0.4-1,1-1l0,0
				c0.5,0,1,0.5,1,1l0,0c0,0.5-0.5,1-1,1l0,0C59.4,109,59,108.5,59,108z M54,108c0-0.5,0.4-1,1-1l0,0c0.5,0,1,0.5,1,1l0,0
				c0,0.5-0.5,1-1,1l0,0C54.4,109,54,108.5,54,108z M49,108c0-0.5,0.4-1,1-1l0,0c0.5,0,1,0.5,1,1l0,0c0,0.5-0.5,1-1,1l0,0
				C49.4,109,49,108.5,49,108z M69,103c0-0.5,0.4-1,1-1l0,0c0.5,0,1,0.5,1,1l0,0c0,0.5-0.5,1-1,1l0,0C69.4,104,69,103.5,69,103z
				 M49,103c0-0.5,0.4-1,1-1l0,0c0.5,0,1,0.5,1,1l0,0c0,0.5-0.5,1-1,1l0,0C49.4,104,49,103.5,49,103z M69,98c0-0.5,0.4-1,1-1l0,0
				c0.5,0,1,0.5,1,1l0,0c0,0.5-0.5,1-1,1l0,0C69.4,99,69,98.5,69,98z M49,98c0-0.5,0.4-1,1-1l0,0c0.5,0,1,0.5,1,1l0,0
				c0,0.5-0.5,1-1,1l0,0C49.4,99,49,98.5,49,98z M69,93c0-0.5,0.4-1,1-1l0,0c0.5,0,1,0.5,1,1l0,0c0,0.5-0.5,1-1,1l0,0
				C69.4,94,69,93.5,69,93z M49,93c0-0.5,0.4-1,1-1l0,0c0.5,0,1,0.5,1,1l0,0c0,0.5-0.5,1-1,1l0,0C49.4,94,49,93.5,49,93z M69,88
				c0-0.5,0.4-1,1-1l0,0c0.5,0,1,0.5,1,1l0,0c0,0.5-0.5,1-1,1l0,0C69.4,89,69,88.5,69,88z M64,88c0-0.5,0.4-1,1-1l0,0
				c0.5,0,1,0.5,1,1l0,0c0,0.5-0.5,1-1,1l0,0C64.4,89,64,88.5,64,88z M59,88c0-0.5,0.4-1,1-1l0,0c0.5,0,1,0.5,1,1l0,0
				c0,0.5-0.5,1-1,1l0,0C59.4,89,59,88.5,59,88z M54,88c0-0.5,0.4-1,1-1l0,0c0.5,0,1,0.5,1,1l0,0c0,0.5-0.5,1-1,1l0,0
				C54.4,89,54,88.5,54,88z M49,88c0-0.5,0.4-1,1-1l0,0c0.5,0,1,0.5,1,1l0,0c0,0.5-0.5,1-1,1l0,0C49.4,89,49,88.5,49,88z"/>
		</g>
		<g>
			<path class="st0" d="M89,108c0-0.5,0.5-1,1-1l0,0c0.5,0,1,0.5,1,1l0,0c0,0.5-0.5,1-1,1l0,0C89.5,109,89,108.5,89,108z M84,108
				c0-0.5,0.5-1,1-1l0,0c0.5,0,1,0.5,1,1l0,0c0,0.5-0.5,1-1,1l0,0C84.5,109,84,108.5,84,108z M79,108c0-0.5,0.4-1,1-1l0,0
				c0.5,0,1,0.5,1,1l0,0c0,0.5-0.5,1-1,1l0,0C79.4,109,79,108.5,79,108z M74,108c0-0.5,0.4-1,1-1l0,0c0.5,0,1,0.5,1,1l0,0
				c0,0.5-0.5,1-1,1l0,0C74.4,109,74,108.5,74,108z M69,108c0-0.5,0.4-1,1-1l0,0c0.5,0,1,0.5,1,1l0,0c0,0.5-0.5,1-1,1l0,0
				C69.4,109,69,108.5,69,108z M89,103c0-0.5,0.5-1,1-1l0,0c0.5,0,1,0.5,1,1l0,0c0,0.5-0.5,1-1,1l0,0C89.5,104,89,103.5,89,103z
				 M69,103c0-0.5,0.4-1,1-1l0,0c0.5,0,1,0.5,1,1l0,0c0,0.5-0.5,1-1,1l0,0C69.4,104,69,103.5,69,103z M89,98c0-0.5,0.5-1,1-1l0,0
				c0.5,0,1,0.5,1,1l0,0c0,0.5-0.5,1-1,1l0,0C89.5,99,89,98.5,89,98z M69,98c0-0.5,0.4-1,1-1l0,0c0.5,0,1,0.5,1,1l0,0
				c0,0.5-0.5,1-1,1l0,0C69.4,99,69,98.5,69,98z M89,93c0-0.5,0.5-1,1-1l0,0c0.5,0,1,0.5,1,1l0,0c0,0.5-0.5,1-1,1l0,0
				C89.5,94,89,93.5,89,93z M69,93c0-0.5,0.4-1,1-1l0,0c0.5,0,1,0.5,1,1l0,0c0,0.5-0.5,1-1,1l0,0C69.4,94,69,93.5,69,93z M89,88
				c0-0.5,0.5-1,1-1l0,0c0.5,0,1,0.5,1,1l0,0c0,0.5-0.5,1-1,1l0,0C89.5,89,89,88.5,89,88z M84,88c0-0.5,0.5-1,1-1l0,0
				c0.5,0,1,0.5,1,1l0,0c0,0.5-0.5,1-1,1l0,0C84.5,89,84,88.5,84,88z M79,88c0-0.5,0.4-1,1-1l0,0c0.5,0,1,0.5,1,1l0,0
				c0,0.5-0.5,1-1,1l0,0C79.4,89,79,88.5,79,88z M74,88c0-0.5,0.4-1,1-1l0,0c0.5,0,1,0.5,1,1l0,0c0,0.5-0.5,1-1,1l0,0
				C74.4,89,74,88.5,74,88z M69,88c0-0.5,0.4-1,1-1l0,0c0.5,0,1,0.5,1,1l0,0c0,0.5-0.5,1-1,1l0,0C69.4,89,69,88.5,69,88z"/>
		</g>
		<g>
			<path class="st0" d="M109,108c0-0.5,0.5-1,1-1l0,0c0.5,0,1,0.5,1,1l0,0c0,0.5-0.5,1-1,1l0,0C109.5,109,109,108.5,109,108z
				 M104,108c0-0.5,0.5-1,1-1l0,0c0.5,0,1,0.5,1,1l0,0c0,0.5-0.5,1-1,1l0,0C104.5,109,104,108.5,104,108z M99,108c0-0.5,0.5-1,1-1
				l0,0c0.5,0,1,0.5,1,1l0,0c0,0.5-0.5,1-1,1l0,0C99.5,109,99,108.5,99,108z M94,108c0-0.5,0.5-1,1-1l0,0c0.5,0,1,0.5,1,1l0,0
				c0,0.5-0.5,1-1,1l0,0C94.5,109,94,108.5,94,108z M89,108c0-0.5,0.5-1,1-1l0,0c0.5,0,1,0.5,1,1l0,0c0,0.5-0.5,1-1,1l0,0
				C89.5,109,89,108.5,89,108z M109,103c0-0.5,0.5-1,1-1l0,0c0.5,0,1,0.5,1,1l0,0c0,0.5-0.5,1-1,1l0,0C109.5,104,109,103.5,109,103z
				 M89,103c0-0.5,0.5-1,1-1l0,0c0.5,0,1,0.5,1,1l0,0c0,0.5-0.5,1-1,1l0,0C89.5,104,89,103.5,89,103z M109,98c0-0.5,0.5-1,1-1l0,0
				c0.5,0,1,0.5,1,1l0,0c0,0.5-0.5,1-1,1l0,0C109.5,99,109,98.5,109,98z M89,98c0-0.5,0.5-1,1-1l0,0c0.5,0,1,0.5,1,1l0,0
				c0,0.5-0.5,1-1,1l0,0C89.5,99,89,98.5,89,98z M109,93c0-0.5,0.5-1,1-1l0,0c0.5,0,1,0.5,1,1l0,0c0,0.5-0.5,1-1,1l0,0
				C109.5,94,109,93.5,109,93z M89,93c0-0.5,0.5-1,1-1l0,0c0.5,0,1,0.5,1,1l0,0c0,0.5-0.5,1-1,1l0,0C89.5,94,89,93.5,89,93z M109,88
				c0-0.5,0.5-1,1-1l0,0c0.5,0,1,0.5,1,1l0,0c0,0.5-0.5,1-1,1l0,0C109.5,89,109,88.5,109,88z M104,88c0-0.5,0.5-1,1-1l0,0
				c0.5,0,1,0.5,1,1l0,0c0,0.5-0.5,1-1,1l0,0C104.5,89,104,88.5,104,88z M99,88c0-0.5,0.5-1,1-1l0,0c0.5,0,1,0.5,1,1l0,0
				c0,0.5-0.5,1-1,1l0,0C99.5,89,99,88.5,99,88z M94,88c0-0.5,0.5-1,1-1l0,0c0.5,0,1,0.5,1,1l0,0c0,0.5-0.5,1-1,1l0,0
				C94.5,89,94,88.5,94,88z M89,88c0-0.5,0.5-1,1-1l0,0c0.5,0,1,0.5,1,1l0,0c0,0.5-0.5,1-1,1l0,0C89.5,89,89,88.5,89,88z"/>
		</g>
		<g>
			<path class="st0" d="M129,108c0-0.5,0.5-1,1-1l0,0c0.5,0,1,0.5,1,1l0,0c0,0.5-0.5,1-1,1l0,0C129.5,109,129,108.5,129,108z
				 M124,108c0-0.5,0.5-1,1-1l0,0c0.5,0,1,0.5,1,1l0,0c0,0.5-0.5,1-1,1l0,0C124.5,109,124,108.5,124,108z M119,108c0-0.5,0.5-1,1-1
				l0,0c0.5,0,1,0.5,1,1l0,0c0,0.5-0.5,1-1,1l0,0C119.5,109,119,108.5,119,108z M114,108c0-0.5,0.5-1,1-1l0,0c0.5,0,1,0.5,1,1l0,0
				c0,0.5-0.5,1-1,1l0,0C114.5,109,114,108.5,114,108z M109,108c0-0.5,0.5-1,1-1l0,0c0.5,0,1,0.5,1,1l0,0c0,0.5-0.5,1-1,1l0,0
				C109.5,109,109,108.5,109,108z M129,103c0-0.5,0.5-1,1-1l0,0c0.5,0,1,0.5,1,1l0,0c0,0.5-0.5,1-1,1l0,0
				C129.5,104,129,103.5,129,103z M109,103c0-0.5,0.5-1,1-1l0,0c0.5,0,1,0.5,1,1l0,0c0,0.5-0.5,1-1,1l0,0
				C109.5,104,109,103.5,109,103z M129,98c0-0.5,0.5-1,1-1l0,0c0.5,0,1,0.5,1,1l0,0c0,0.5-0.5,1-1,1l0,0C129.5,99,129,98.5,129,98z
				 M109,98c0-0.5,0.5-1,1-1l0,0c0.5,0,1,0.5,1,1l0,0c0,0.5-0.5,1-1,1l0,0C109.5,99,109,98.5,109,98z M129,93c0-0.5,0.5-1,1-1l0,0
				c0.5,0,1,0.5,1,1l0,0c0,0.5-0.5,1-1,1l0,0C129.5,94,129,93.5,129,93z M109,93c0-0.5,0.5-1,1-1l0,0c0.5,0,1,0.5,1,1l0,0
				c0,0.5-0.5,1-1,1l0,0C109.5,94,109,93.5,109,93z M129,88c0-0.5,0.5-1,1-1l0,0c0.5,0,1,0.5,1,1l0,0c0,0.5-0.5,1-1,1l0,0
				C129.5,89,129,88.5,129,88z M124,88c0-0.5,0.5-1,1-1l0,0c0.5,0,1,0.5,1,1l0,0c0,0.5-0.5,1-1,1l0,0C124.5,89,124,88.5,124,88z
				 M119,88c0-0.5,0.5-1,1-1l0,0c0.5,0,1,0.5,1,1l0,0c0,0.5-0.5,1-1,1l0,0C119.5,89,119,88.5,119,88z M114,88c0-0.5,0.5-1,1-1l0,0
				c0.5,0,1,0.5,1,1l0,0c0,0.5-0.5,1-1,1l0,0C114.5,89,114,88.5,114,88z M109,88c0-0.5,0.5-1,1-1l0,0c0.5,0,1,0.5,1,1l0,0
				c0,0.5-0.5,1-1,1l0,0C109.5,89,109,88.5,109,88z"/>
		</g>
	</g>
	<g>
		<g>
			<path class="st0" d="M49,128c0-0.5,0.4-1,1-1l0,0c0.5,0,1,0.5,1,1l0,0c0,0.5-0.5,1-1,1l0,0C49.4,129,49,128.5,49,128z M44,128
				c0-0.5,0.4-1,1-1l0,0c0.5,0,1,0.5,1,1l0,0c0,0.5-0.5,1-1,1l0,0C44.4,129,44,128.5,44,128z M39,128c0-0.5,0.4-1,1-1l0,0
				c0.5,0,1,0.5,1,1l0,0c0,0.5-0.5,1-1,1l0,0C39.4,129,39,128.5,39,128z M34,128c0-0.5,0.4-1,1-1l0,0c0.5,0,1,0.5,1,1l0,0
				c0,0.5-0.5,1-1,1l0,0C34.4,129,34,128.5,34,128z M29,128c0-0.5,0.4-1,1-1l0,0c0.5,0,1,0.5,1,1l0,0c0,0.5-0.5,1-1,1l0,0
				C29.4,129,29,128.5,29,128z M49,123c0-0.5,0.4-1,1-1l0,0c0.5,0,1,0.5,1,1l0,0c0,0.5-0.5,1-1,1l0,0C49.4,124,49,123.5,49,123z
				 M29,123c0-0.5,0.4-1,1-1l0,0c0.5,0,1,0.5,1,1l0,0c0,0.5-0.5,1-1,1l0,0C29.4,124,29,123.5,29,123z M49,118c0-0.5,0.4-1,1-1l0,0
				c0.5,0,1,0.5,1,1l0,0c0,0.5-0.5,1-1,1l0,0C49.4,119,49,118.5,49,118z M29,118c0-0.5,0.4-1,1-1l0,0c0.5,0,1,0.5,1,1l0,0
				c0,0.5-0.5,1-1,1l0,0C29.4,119,29,118.5,29,118z M49,113c0-0.5,0.4-1,1-1l0,0c0.5,0,1,0.5,1,1l0,0c0,0.5-0.5,1-1,1l0,0
				C49.4,114,49,113.5,49,113z M29,113c0-0.5,0.4-1,1-1l0,0c0.5,0,1,0.5,1,1l0,0c0,0.5-0.5,1-1,1l0,0C29.4,114,29,113.5,29,113z
				 M49,108c0-0.5,0.4-1,1-1l0,0c0.5,0,1,0.5,1,1l0,0c0,0.5-0.5,1-1,1l0,0C49.4,109,49,108.5,49,108z M44,108c0-0.5,0.4-1,1-1l0,0
				c0.5,0,1,0.5,1,1l0,0c0,0.5-0.5,1-1,1l0,0C44.4,109,44,108.5,44,108z M39,108c0-0.5,0.4-1,1-1l0,0c0.5,0,1,0.5,1,1l0,0
				c0,0.5-0.5,1-1,1l0,0C39.4,109,39,108.5,39,108z M34,108c0-0.5,0.4-1,1-1l0,0c0.5,0,1,0.5,1,1l0,0c0,0.5-0.5,1-1,1l0,0
				C34.4,109,34,108.5,34,108z M29,108c0-0.5,0.4-1,1-1l0,0c0.5,0,1,0.5,1,1l0,0c0,0.5-0.5,1-1,1l0,0C29.4,109,29,108.5,29,108z"/>
		</g>
		<g>
			<path class="st0" d="M69,128c0-0.5,0.4-1,1-1l0,0c0.5,0,1,0.5,1,1l0,0c0,0.5-0.5,1-1,1l0,0C69.4,129,69,128.5,69,128z M64,128
				c0-0.5,0.4-1,1-1l0,0c0.5,0,1,0.5,1,1l0,0c0,0.5-0.5,1-1,1l0,0C64.4,129,64,128.5,64,128z M59,128c0-0.5,0.4-1,1-1l0,0
				c0.5,0,1,0.5,1,1l0,0c0,0.5-0.5,1-1,1l0,0C59.4,129,59,128.5,59,128z M54,128c0-0.5,0.4-1,1-1l0,0c0.5,0,1,0.5,1,1l0,0
				c0,0.5-0.5,1-1,1l0,0C54.4,129,54,128.5,54,128z M49,128c0-0.5,0.4-1,1-1l0,0c0.5,0,1,0.5,1,1l0,0c0,0.5-0.5,1-1,1l0,0
				C49.4,129,49,128.5,49,128z M69,123c0-0.5,0.4-1,1-1l0,0c0.5,0,1,0.5,1,1l0,0c0,0.5-0.5,1-1,1l0,0C69.4,124,69,123.5,69,123z
				 M49,123c0-0.5,0.4-1,1-1l0,0c0.5,0,1,0.5,1,1l0,0c0,0.5-0.5,1-1,1l0,0C49.4,124,49,123.5,49,123z M69,118c0-0.5,0.4-1,1-1l0,0
				c0.5,0,1,0.5,1,1l0,0c0,0.5-0.5,1-1,1l0,0C69.4,119,69,118.5,69,118z M49,118c0-0.5,0.4-1,1-1l0,0c0.5,0,1,0.5,1,1l0,0
				c0,0.5-0.5,1-1,1l0,0C49.4,119,49,118.5,49,118z M69,113c0-0.5,0.4-1,1-1l0,0c0.5,0,1,0.5,1,1l0,0c0,0.5-0.5,1-1,1l0,0
				C69.4,114,69,113.5,69,113z M49,113c0-0.5,0.4-1,1-1l0,0c0.5,0,1,0.5,1,1l0,0c0,0.5-0.5,1-1,1l0,0C49.4,114,49,113.5,49,113z
				 M69,108c0-0.5,0.4-1,1-1l0,0c0.5,0,1,0.5,1,1l0,0c0,0.5-0.5,1-1,1l0,0C69.4,109,69,108.5,69,108z M64,108c0-0.5,0.4-1,1-1l0,0
				c0.5,0,1,0.5,1,1l0,0c0,0.5-0.5,1-1,1l0,0C64.4,109,64,108.5,64,108z M59,108c0-0.5,0.4-1,1-1l0,0c0.5,0,1,0.5,1,1l0,0
				c0,0.5-0.5,1-1,1l0,0C59.4,109,59,108.5,59,108z M54,108c0-0.5,0.4-1,1-1l0,0c0.5,0,1,0.5,1,1l0,0c0,0.5-0.5,1-1,1l0,0
				C54.4,109,54,108.5,54,108z M49,108c0-0.5,0.4-1,1-1l0,0c0.5,0,1,0.5,1,1l0,0c0,0.5-0.5,1-1,1l0,0C49.4,109,49,108.5,49,108z"/>
		</g>
		<g>
			<path class="st0" d="M89,128c0-0.5,0.5-1,1-1l0,0c0.5,0,1,0.5,1,1l0,0c0,0.5-0.5,1-1,1l0,0C89.5,129,89,128.5,89,128z M84,128
				c0-0.5,0.5-1,1-1l0,0c0.5,0,1,0.5,1,1l0,0c0,0.5-0.5,1-1,1l0,0C84.5,129,84,128.5,84,128z M79,128c0-0.5,0.4-1,1-1l0,0
				c0.5,0,1,0.5,1,1l0,0c0,0.5-0.5,1-1,1l0,0C79.4,129,79,128.5,79,128z M74,128c0-0.5,0.4-1,1-1l0,0c0.5,0,1,0.5,1,1l0,0
				c0,0.5-0.5,1-1,1l0,0C74.4,129,74,128.5,74,128z M69,128c0-0.5,0.4-1,1-1l0,0c0.5,0,1,0.5,1,1l0,0c0,0.5-0.5,1-1,1l0,0
				C69.4,129,69,128.5,69,128z M89,123c0-0.5,0.5-1,1-1l0,0c0.5,0,1,0.5,1,1l0,0c0,0.5-0.5,1-1,1l0,0C89.5,124,89,123.5,89,123z
				 M69,123c0-0.5,0.4-1,1-1l0,0c0.5,0,1,0.5,1,1l0,0c0,0.5-0.5,1-1,1l0,0C69.4,124,69,123.5,69,123z M89,118c0-0.5,0.5-1,1-1l0,0
				c0.5,0,1,0.5,1,1l0,0c0,0.5-0.5,1-1,1l0,0C89.5,119,89,118.5,89,118z M69,118c0-0.5,0.4-1,1-1l0,0c0.5,0,1,0.5,1,1l0,0
				c0,0.5-0.5,1-1,1l0,0C69.4,119,69,118.5,69,118z M89,113c0-0.5,0.5-1,1-1l0,0c0.5,0,1,0.5,1,1l0,0c0,0.5-0.5,1-1,1l0,0
				C89.5,114,89,113.5,89,113z M69,113c0-0.5,0.4-1,1-1l0,0c0.5,0,1,0.5,1,1l0,0c0,0.5-0.5,1-1,1l0,0C69.4,114,69,113.5,69,113z
				 M89,108c0-0.5,0.5-1,1-1l0,0c0.5,0,1,0.5,1,1l0,0c0,0.5-0.5,1-1,1l0,0C89.5,109,89,108.5,89,108z M84,108c0-0.5,0.5-1,1-1l0,0
				c0.5,0,1,0.5,1,1l0,0c0,0.5-0.5,1-1,1l0,0C84.5,109,84,108.5,84,108z M79,108c0-0.5,0.4-1,1-1l0,0c0.5,0,1,0.5,1,1l0,0
				c0,0.5-0.5,1-1,1l0,0C79.4,109,79,108.5,79,108z M74,108c0-0.5,0.4-1,1-1l0,0c0.5,0,1,0.5,1,1l0,0c0,0.5-0.5,1-1,1l0,0
				C74.4,109,74,108.5,74,108z M69,108c0-0.5,0.4-1,1-1l0,0c0.5,0,1,0.5,1,1l0,0c0,0.5-0.5,1-1,1l0,0C69.4,109,69,108.5,69,108z"/>
		</g>
		<g>
			<path class="st0" d="M109,128c0-0.5,0.5-1,1-1l0,0c0.5,0,1,0.5,1,1l0,0c0,0.5-0.5,1-1,1l0,0C109.5,129,109,128.5,109,128z
				 M104,128c0-0.5,0.5-1,1-1l0,0c0.5,0,1,0.5,1,1l0,0c0,0.5-0.5,1-1,1l0,0C104.5,129,104,128.5,104,128z M99,128c0-0.5,0.5-1,1-1
				l0,0c0.5,0,1,0.5,1,1l0,0c0,0.5-0.5,1-1,1l0,0C99.5,129,99,128.5,99,128z M94,128c0-0.5,0.5-1,1-1l0,0c0.5,0,1,0.5,1,1l0,0
				c0,0.5-0.5,1-1,1l0,0C94.5,129,94,128.5,94,128z M89,128c0-0.5,0.5-1,1-1l0,0c0.5,0,1,0.5,1,1l0,0c0,0.5-0.5,1-1,1l0,0
				C89.5,129,89,128.5,89,128z M109,123c0-0.5,0.5-1,1-1l0,0c0.5,0,1,0.5,1,1l0,0c0,0.5-0.5,1-1,1l0,0C109.5,124,109,123.5,109,123z
				 M89,123c0-0.5,0.5-1,1-1l0,0c0.5,0,1,0.5,1,1l0,0c0,0.5-0.5,1-1,1l0,0C89.5,124,89,123.5,89,123z M109,118c0-0.5,0.5-1,1-1l0,0
				c0.5,0,1,0.5,1,1l0,0c0,0.5-0.5,1-1,1l0,0C109.5,119,109,118.5,109,118z M89,118c0-0.5,0.5-1,1-1l0,0c0.5,0,1,0.5,1,1l0,0
				c0,0.5-0.5,1-1,1l0,0C89.5,119,89,118.5,89,118z M109,113c0-0.5,0.5-1,1-1l0,0c0.5,0,1,0.5,1,1l0,0c0,0.5-0.5,1-1,1l0,0
				C109.5,114,109,113.5,109,113z M89,113c0-0.5,0.5-1,1-1l0,0c0.5,0,1,0.5,1,1l0,0c0,0.5-0.5,1-1,1l0,0C89.5,114,89,113.5,89,113z
				 M109,108c0-0.5,0.5-1,1-1l0,0c0.5,0,1,0.5,1,1l0,0c0,0.5-0.5,1-1,1l0,0C109.5,109,109,108.5,109,108z M104,108c0-0.5,0.5-1,1-1
				l0,0c0.5,0,1,0.5,1,1l0,0c0,0.5-0.5,1-1,1l0,0C104.5,109,104,108.5,104,108z M99,108c0-0.5,0.5-1,1-1l0,0c0.5,0,1,0.5,1,1l0,0
				c0,0.5-0.5,1-1,1l0,0C99.5,109,99,108.5,99,108z M94,108c0-0.5,0.5-1,1-1l0,0c0.5,0,1,0.5,1,1l0,0c0,0.5-0.5,1-1,1l0,0
				C94.5,109,94,108.5,94,108z M89,108c0-0.5,0.5-1,1-1l0,0c0.5,0,1,0.5,1,1l0,0c0,0.5-0.5,1-1,1l0,0C89.5,109,89,108.5,89,108z"/>
		</g>
		<g>
			<path class="st0" d="M129,128c0-0.5,0.5-1,1-1l0,0c0.5,0,1,0.5,1,1l0,0c0,0.5-0.5,1-1,1l0,0C129.5,129,129,128.5,129,128z
				 M124,128c0-0.5,0.5-1,1-1l0,0c0.5,0,1,0.5,1,1l0,0c0,0.5-0.5,1-1,1l0,0C124.5,129,124,128.5,124,128z M119,128c0-0.5,0.5-1,1-1
				l0,0c0.5,0,1,0.5,1,1l0,0c0,0.5-0.5,1-1,1l0,0C119.5,129,119,128.5,119,128z M114,128c0-0.5,0.5-1,1-1l0,0c0.5,0,1,0.5,1,1l0,0
				c0,0.5-0.5,1-1,1l0,0C114.5,129,114,128.5,114,128z M109,128c0-0.5,0.5-1,1-1l0,0c0.5,0,1,0.5,1,1l0,0c0,0.5-0.5,1-1,1l0,0
				C109.5,129,109,128.5,109,128z M129,123c0-0.5,0.5-1,1-1l0,0c0.5,0,1,0.5,1,1l0,0c0,0.5-0.5,1-1,1l0,0
				C129.5,124,129,123.5,129,123z M109,123c0-0.5,0.5-1,1-1l0,0c0.5,0,1,0.5,1,1l0,0c0,0.5-0.5,1-1,1l0,0
				C109.5,124,109,123.5,109,123z M129,118c0-0.5,0.5-1,1-1l0,0c0.5,0,1,0.5,1,1l0,0c0,0.5-0.5,1-1,1l0,0
				C129.5,119,129,118.5,129,118z M109,118c0-0.5,0.5-1,1-1l0,0c0.5,0,1,0.5,1,1l0,0c0,0.5-0.5,1-1,1l0,0
				C109.5,119,109,118.5,109,118z M129,113c0-0.5,0.5-1,1-1l0,0c0.5,0,1,0.5,1,1l0,0c0,0.5-0.5,1-1,1l0,0
				C129.5,114,129,113.5,129,113z M109,113c0-0.5,0.5-1,1-1l0,0c0.5,0,1,0.5,1,1l0,0c0,0.5-0.5,1-1,1l0,0
				C109.5,114,109,113.5,109,113z M129,108c0-0.5,0.5-1,1-1l0,0c0.5,0,1,0.5,1,1l0,0c0,0.5-0.5,1-1,1l0,0
				C129.5,109,129,108.5,129,108z M124,108c0-0.5,0.5-1,1-1l0,0c0.5,0,1,0.5,1,1l0,0c0,0.5-0.5,1-1,1l0,0
				C124.5,109,124,108.5,124,108z M119,108c0-0.5,0.5-1,1-1l0,0c0.5,0,1,0.5,1,1l0,0c0,0.5-0.5,1-1,1l0,0
				C119.5,109,119,108.5,119,108z M114,108c0-0.5,0.5-1,1-1l0,0c0.5,0,1,0.5,1,1l0,0c0,0.5-0.5,1-1,1l0,0
				C114.5,109,114,108.5,114,108z M109,108c0-0.5,0.5-1,1-1l0,0c0.5,0,1,0.5,1,1l0,0c0,0.5-0.5,1-1,1l0,0
				C109.5,109,109,108.5,109,108z"/>
		</g>
	</g>
</g>
<g>
	<path class="st0" d="M35,42.7v-8h1.3c0.1,0,0.1,0,0.2,0s0.1,0.1,0.1,0.1l2.6,3.3h0.1l2.6-3.3c0.1-0.1,0.1-0.1,0.1-0.1
		c0,0,0.1,0,0.2,0h1.3v8H42v-5.4h0l-2.1,2.7h-1c-0.1,0-0.2,0-0.3-0.1l-2-2.5h0v5.4H35z"/>
</g>
<g>
	<path class="st0" d="M55.9,36.1v-1.4h7v1.4h-2.7v6.6h-1.7v-6.6H55.9z"/>
</g>
<g>
	<path class="st0" d="M73.3,34.7h1.5c0.1,0,0.2,0.1,0.2,0.2l1,3.4c0.2,0.7,0.5,1.6,0.8,2.7c0.2-1,0.5-2.1,0.9-3.5l0.8-2.8h1.4
		c0.1,0,0.1,0,0.1,0s0,0.1,0.1,0.1l1.1,3.5c0.3,0.9,0.5,1.8,0.7,2.6c0.3-1.2,0.6-2.2,0.8-3l1-3.1c0-0.1,0-0.1,0.1-0.1s0.1,0,0.1,0
		h1.5l-2.5,8h-1.7c-0.1,0-0.2-0.1-0.3-0.2l-0.6-2c-0.2-0.5-0.3-1.1-0.5-1.9c-0.2-0.7-0.3-1.3-0.4-1.6c-0.1,0.5-0.4,1.7-0.9,3.5
		l-0.6,2.1h-1.7c-0.1,0-0.2-0.1-0.3-0.2L73.3,34.7z"/>
</g>
<g>
	<path class="st0" d="M95.8,36.1v-1.4h7v1.4h-2.7v6.6h-1.7v-6.6H95.8z"/>
</g>
<g>
	<path class="st0" d="M116.7,42.7v-8h5.6v1.4h-4V38h3.6v1.4h-3.6v3.2H116.7z"/>
</g>
<g>
	<path class="st0" d="M130,69H30c-0.6,0-1-0.4-1-1V48c0-0.6,0.4-1,1-1h100c0.6,0,1,0.4,1,1s-0.4,1-1,1H31v18h99c0.6,0,1,0.4,1,1
		S130.6,69,130,69z"/>
</g>
<g>
	<path class="st0" d="M90,109H30c-0.6,0-1-0.4-1-1V93c0-0.6,0.4-1,1-1s1,0.4,1,1v14h58V93c0-0.6,0.4-1,1-1s1,0.4,1,1v15
		C91,108.6,90.6,109,90,109z"/>
</g>
<g>
	<path class="st0" d="M130,129H70c-0.6,0-1-0.4-1-1v-15c0-0.6,0.4-1,1-1s1,0.4,1,1v14h58v-18H94.8c-0.6,0-1-0.4-1-1s0.4-1,1-1H130
		c0.6,0,1,0.4,1,1v20C131,128.6,130.6,129,130,129z"/>
</g>
<g>
	<path class="st0" d="M110,89H30c-0.6,0-1-0.4-1-1s0.4-1,1-1h79V73c0-0.6,0.4-1,1-1s1,0.4,1,1v15C111,88.6,110.6,89,110,89z"/>
</g>
<g>
	<path class="st0" d="M30,69c-0.3,0-0.5-0.1-0.7-0.3c-0.4-0.4-0.4-1,0-1.4l20-20c0.4-0.4,1-0.4,1.4,0s0.4,1,0,1.4l-20,20
		C30.5,68.9,30.3,69,30,69z"/>
</g>
<g>
	<path class="st0" d="M30,59c-0.3,0-0.5-0.1-0.7-0.3c-0.4-0.4-0.4-1,0-1.4l10-10c0.4-0.4,1-0.4,1.4,0s0.4,1,0,1.4l-10,10
		C30.5,58.9,30.3,59,30,59z"/>
</g>
<g>
	<path class="st0" d="M40,69c-0.3,0-0.5-0.1-0.7-0.3c-0.4-0.4-0.4-1,0-1.4l20-20c0.4-0.4,1-0.4,1.4,0s0.4,1,0,1.4l-20,20
		C40.5,68.9,40.3,69,40,69z"/>
</g>
<g>
	<path class="st0" d="M60,69c-0.3,0-0.5-0.1-0.7-0.3c-0.4-0.4-0.4-1,0-1.4l20-20c0.4-0.4,1-0.4,1.4,0s0.4,1,0,1.4l-20,20
		C60.5,68.9,60.3,69,60,69z"/>
</g>
<g>
	<path class="st0" d="M80,69c-0.3,0-0.5-0.1-0.7-0.3c-0.4-0.4-0.4-1,0-1.4l20-20c0.4-0.4,1-0.4,1.4,0s0.4,1,0,1.4l-20,20
		C80.5,68.9,80.3,69,80,69z"/>
</g>
<g>
	<path class="st0" d="M100,69c-0.3,0-0.5-0.1-0.7-0.3c-0.4-0.4-0.4-1,0-1.4l20-20c0.4-0.4,1-0.4,1.4,0s0.4,1,0,1.4l-20,20
		C100.5,68.9,100.3,69,100,69z"/>
</g>
<g>
	<path class="st0" d="M120,69c-0.3,0-0.5-0.1-0.7-0.3c-0.4-0.4-0.4-1,0-1.4l10-10c0.4-0.4,1-0.4,1.4,0s0.4,1,0,1.4l-10,10
		C120.5,68.9,120.3,69,120,69z"/>
</g>
<g>
	<path class="st0" d="M50,69c-0.3,0-0.5-0.1-0.7-0.3c-0.4-0.4-0.4-1,0-1.4l20-20c0.4-0.4,1-0.4,1.4,0s0.4,1,0,1.4l-20,20
		C50.5,68.9,50.3,69,50,69z"/>
</g>
<g>
	<path class="st0" d="M70,69c-0.3,0-0.5-0.1-0.7-0.3c-0.4-0.4-0.4-1,0-1.4l20-20c0.4-0.4,1-0.4,1.4,0s0.4,1,0,1.4l-20,20
		C70.5,68.9,70.3,69,70,69z"/>
</g>
<g>
	<path class="st0" d="M90,69c-0.3,0-0.5-0.1-0.7-0.3c-0.4-0.4-0.4-1,0-1.4l20-20c0.4-0.4,1-0.4,1.4,0s0.4,1,0,1.4l-20,20
		C90.5,68.9,90.3,69,90,69z"/>
</g>
<g>
	<path class="st0" d="M30,89c-0.3,0-0.5-0.1-0.7-0.3c-0.4-0.4-0.4-1,0-1.4l15-15c0.4-0.4,1-0.4,1.4,0s0.4,1,0,1.4l-15,15
		C30.5,88.9,30.3,89,30,89z"/>
</g>
<g>
	<path class="st0" d="M30,79c-0.3,0-0.5-0.1-0.7-0.3c-0.4-0.4-0.4-1,0-1.4l5-5c0.4-0.4,1-0.4,1.4,0s0.4,1,0,1.4l-5,5
		C30.5,78.9,30.3,79,30,79z"/>
</g>
<g>
	<path class="st0" d="M40,89c-0.3,0-0.5-0.1-0.7-0.3c-0.4-0.4-0.4-1,0-1.4l15-15c0.4-0.4,1-0.4,1.4,0s0.4,1,0,1.4l-15,15
		C40.5,88.9,40.3,89,40,89z"/>
</g>
<g>
	<path class="st0" d="M60,89c-0.3,0-0.5-0.1-0.7-0.3c-0.4-0.4-0.4-1,0-1.4l15-15c0.4-0.4,1-0.4,1.4,0s0.4,1,0,1.4l-15,15
		C60.5,88.9,60.3,89,60,89z"/>
</g>
<g>
	<path class="st0" d="M80,89c-0.3,0-0.5-0.1-0.7-0.3c-0.4-0.4-0.4-1,0-1.4l15-15c0.4-0.4,1-0.4,1.4,0s0.4,1,0,1.4l-15,15
		C80.5,88.9,80.3,89,80,89z"/>
</g>
<g>
	<path class="st0" d="M100,89c-0.3,0-0.5-0.1-0.7-0.3c-0.4-0.4-0.4-1,0-1.4l10-10c0.4-0.4,1-0.4,1.4,0s0.4,1,0,1.4l-10,10
		C100.5,88.9,100.3,89,100,89z"/>
</g>
<g>
	<path class="st0" d="M50,89c-0.3,0-0.5-0.1-0.7-0.3c-0.4-0.4-0.4-1,0-1.4l15-15c0.4-0.4,1-0.4,1.4,0s0.4,1,0,1.4l-15,15
		C50.5,88.9,50.3,89,50,89z"/>
</g>
<g>
	<path class="st0" d="M70,89c-0.3,0-0.5-0.1-0.7-0.3c-0.4-0.4-0.4-1,0-1.4l15-15c0.4-0.4,1-0.4,1.4,0s0.4,1,0,1.4l-15,15
		C70.5,88.9,70.3,89,70,89z"/>
</g>
<g>
	<path class="st0" d="M30,109c-0.3,0-0.5-0.1-0.7-0.3c-0.4-0.4-0.4-1,0-1.4l15-15c0.4-0.4,1-0.4,1.4,0s0.4,1,0,1.4l-15,15
		C30.5,108.9,30.3,109,30,109z"/>
</g>
<g>
	<path class="st0" d="M30,99c-0.3,0-0.5-0.1-0.7-0.3c-0.4-0.4-0.4-1,0-1.4l5-5c0.4-0.4,1-0.4,1.4,0s0.4,1,0,1.4l-5,5
		C30.5,98.9,30.3,99,30,99z"/>
</g>
<g>
	<path class="st0" d="M40,109c-0.3,0-0.5-0.1-0.7-0.3c-0.4-0.4-0.4-1,0-1.4l15-15c0.4-0.4,1-0.4,1.4,0s0.4,1,0,1.4l-15,15
		C40.5,108.9,40.3,109,40,109z"/>
</g>
<g>
	<path class="st0" d="M60,109c-0.3,0-0.5-0.1-0.7-0.3c-0.4-0.4-0.4-1,0-1.4l15-15c0.4-0.4,1-0.4,1.4,0s0.4,1,0,1.4l-15,15
		C60.5,108.9,60.3,109,60,109z"/>
</g>
<g>
	<path class="st0" d="M80,109c-0.3,0-0.5-0.1-0.7-0.3c-0.4-0.4-0.4-1,0-1.4l10-10c0.4-0.4,1-0.4,1.4,0s0.4,1,0,1.4l-10,10
		C80.5,108.9,80.3,109,80,109z"/>
</g>
<g>
	<path class="st0" d="M50,109c-0.3,0-0.5-0.1-0.7-0.3c-0.4-0.4-0.4-1,0-1.4l15-15c0.4-0.4,1-0.4,1.4,0s0.4,1,0,1.4l-15,15
		C50.5,108.9,50.3,109,50,109z"/>
</g>
<g>
	<path class="st0" d="M70,109c-0.3,0-0.5-0.1-0.7-0.3c-0.4-0.4-0.4-1,0-1.4l15-15c0.4-0.4,1-0.4,1.4,0s0.4,1,0,1.4l-15,15
		C70.5,108.9,70.3,109,70,109z"/>
</g>
<g>
	<path class="st0" d="M70,129c-0.3,0-0.5-0.1-0.7-0.3c-0.4-0.4-0.4-1,0-1.4l15-15c0.4-0.4,1-0.4,1.4,0s0.4,1,0,1.4l-15,15
		C70.5,128.9,70.3,129,70,129z"/>
</g>
<g>
	<path class="st0" d="M70,119c-0.3,0-0.5-0.1-0.7-0.3c-0.4-0.4-0.4-1,0-1.4l5-5c0.4-0.4,1-0.4,1.4,0s0.4,1,0,1.4l-5,5
		C70.5,118.9,70.3,119,70,119z"/>
</g>
<g>
	<path class="st0" d="M90,129c-0.3,0-0.5-0.1-0.7-0.3c-0.4-0.4-0.4-1,0-1.4l20-20c0.4-0.4,1-0.4,1.4,0s0.4,1,0,1.4l-20,20
		C90.5,128.9,90.3,129,90,129z"/>
</g>
<g>
	<path class="st0" d="M100,129c-0.3,0-0.5-0.1-0.7-0.3c-0.4-0.4-0.4-1,0-1.4l20-20c0.4-0.4,1-0.4,1.4,0s0.4,1,0,1.4l-20,20
		C100.5,128.9,100.3,129,100,129z"/>
</g>
<g>
	<path class="st0" d="M120,129c-0.3,0-0.5-0.1-0.7-0.3c-0.4-0.4-0.4-1,0-1.4l10-10c0.4-0.4,1-0.4,1.4,0s0.4,1,0,1.4l-10,10
		C120.5,128.9,120.3,129,120,129z"/>
</g>
<g>
	<path class="st0" d="M80,129c-0.3,0-0.5-0.1-0.7-0.3c-0.4-0.4-0.4-1,0-1.4l20-20c0.4-0.4,1-0.4,1.4,0s0.4,1,0,1.4l-20,20
		C80.5,128.9,80.3,129,80,129z"/>
</g>
<g>
	<path class="st0" d="M110,129c-0.3,0-0.5-0.1-0.7-0.3c-0.4-0.4-0.4-1,0-1.4l20-20c0.4-0.4,1-0.4,1.4,0s0.4,1,0,1.4l-20,20
		C110.5,128.9,110.3,129,110,129z"/>
</g>
<g>
	<path class="st0" d="M90,89c-0.3,0-0.5-0.1-0.7-0.3c-0.4-0.4-0.4-1,0-1.4l15-15c0.4-0.4,1-0.4,1.4,0s0.4,1,0,1.4l-15,15
		C90.5,88.9,90.3,89,90,89z"/>
</g>
<g>
	<path class="st0" d="M110,69c-0.3,0-0.5-0.1-0.7-0.3c-0.4-0.4-0.4-1,0-1.4l20-20c0.4-0.4,1-0.4,1.4,0s0.4,1,0,1.4l-20,20
		C110.5,68.9,110.3,69,110,69z"/>
</g>
</svg>
