<?xml version="1.0" encoding="utf-8"?>
<!-- Generator: Adobe Illustrator 21.1.0, SVG Export Plug-In . SVG Version: 6.00 Build 0)  -->
<svg version="1.1" id="Layer_1" xmlns="http://www.w3.org/2000/svg" xmlns:xlink="http://www.w3.org/1999/xlink" x="0px" y="0px"
	 viewBox="0 0 160 160" style="enable-background:new 0 0 160 160;" xml:space="preserve">
<style type="text/css">
	.st0{fill:#FFFFFF;}
</style>
<g>
	<path class="st0" d="M80,2c43,0,78,35,78,78s-35,78-78,78S2,123,2,80S37,2,80,2 M80,0C35.8,0,0,35.8,0,80s35.8,80,80,80
		s80-35.8,80-80S124.2,0,80,0L80,0z"/>
</g>
<g>
	<path class="st0" d="M80,116H50c-0.6,0-1-0.4-1-1V85c0-0.6,0.4-1,1-1h30c0.6,0,1,0.4,1,1v30C81,115.6,80.6,116,80,116z M51,114h28
		V86H51V114z"/>
</g>
<g>
	<path class="st0" d="M50,116H20c-0.6,0-1-0.4-1-1V85c0-0.6,0.4-1,1-1h30c0.6,0,1,0.4,1,1v30C51,115.6,50.6,116,50,116z M21,114h28
		V86H21V114z"/>
</g>
<g>
	<path class="st0" d="M110,116H80c-0.6,0-1-0.4-1-1V85c0-0.6,0.4-1,1-1h30c0.6,0,1,0.4,1,1v30C111,115.6,110.6,116,110,116z M81,114
		h28V86H81V114z"/>
</g>
<g>
	<path class="st0" d="M140,116h-30c-0.6,0-1-0.4-1-1V85c0-0.6,0.4-1,1-1h30c0.6,0,1,0.4,1,1v30C141,115.6,140.6,116,140,116z
		 M111,114h28V86h-28V114z"/>
</g>
<g>
	<path class="st0" d="M139,75c0-0.6,0.5-1,1-1l0,0c0.5,0,1,0.4,1,1l0,0c0,0.5-0.5,1-1,1l0,0C139.5,76,139,75.5,139,75z M109,75
		c0-0.6,0.5-1,1-1l0,0c0.5,0,1,0.4,1,1l0,0c0,0.5-0.5,1-1,1l0,0C109.5,76,109,75.5,109,75z M139,70c0-0.6,0.5-1,1-1l0,0
		c0.5,0,1,0.4,1,1l0,0c0,0.5-0.5,1-1,1l0,0C139.5,71,139,70.5,139,70z M109,70c0-0.6,0.5-1,1-1l0,0c0.5,0,1,0.4,1,1l0,0
		c0,0.5-0.5,1-1,1l0,0C109.5,71,109,70.5,109,70z M139,65c0-0.6,0.5-1,1-1l0,0c0.5,0,1,0.4,1,1l0,0c0,0.5-0.5,1-1,1l0,0
		C139.5,66,139,65.5,139,65z M134,65c0-0.6,0.5-1,1-1l0,0c0.5,0,1,0.4,1,1l0,0c0,0.5-0.5,1-1,1l0,0C134.5,66,134,65.5,134,65z
		 M129,65c0-0.6,0.5-1,1-1l0,0c0.5,0,1,0.4,1,1l0,0c0,0.5-0.5,1-1,1l0,0C129.5,66,129,65.5,129,65z M124,65c0-0.6,0.5-1,1-1l0,0
		c0.5,0,1,0.4,1,1l0,0c0,0.5-0.5,1-1,1l0,0C124.5,66,124,65.5,124,65z M119,65c0-0.6,0.5-1,1-1l0,0c0.5,0,1,0.4,1,1l0,0
		c0,0.5-0.5,1-1,1l0,0C119.5,66,119,65.5,119,65z M114,65c0-0.6,0.5-1,1-1l0,0c0.5,0,1,0.4,1,1l0,0c0,0.5-0.5,1-1,1l0,0
		C114.5,66,114,65.5,114,65z M109,65c0-0.6,0.5-1,1-1l0,0c0.5,0,1,0.4,1,1l0,0c0,0.5-0.5,1-1,1l0,0C109.5,66,109,65.5,109,65z"/>
</g>
<g>
	<path class="st0" d="M109,75c0-0.6,0.5-1,1-1l0,0c0.5,0,1,0.4,1,1l0,0c0,0.5-0.5,1-1,1l0,0C109.5,76,109,75.5,109,75z M79,75
		c0-0.6,0.4-1,1-1l0,0c0.5,0,1,0.4,1,1l0,0c0,0.5-0.5,1-1,1l0,0C79.4,76,79,75.5,79,75z M109,70c0-0.6,0.5-1,1-1l0,0
		c0.5,0,1,0.4,1,1l0,0c0,0.5-0.5,1-1,1l0,0C109.5,71,109,70.5,109,70z M79,70c0-0.6,0.4-1,1-1l0,0c0.5,0,1,0.4,1,1l0,0
		c0,0.5-0.5,1-1,1l0,0C79.4,71,79,70.5,79,70z M109,65c0-0.6,0.5-1,1-1l0,0c0.5,0,1,0.4,1,1l0,0c0,0.5-0.5,1-1,1l0,0
		C109.5,66,109,65.5,109,65z M104,65c0-0.6,0.5-1,1-1l0,0c0.5,0,1,0.4,1,1l0,0c0,0.5-0.5,1-1,1l0,0C104.5,66,104,65.5,104,65z
		 M99,65c0-0.6,0.5-1,1-1l0,0c0.5,0,1,0.4,1,1l0,0c0,0.5-0.5,1-1,1l0,0C99.5,66,99,65.5,99,65z M94,65c0-0.6,0.5-1,1-1l0,0
		c0.5,0,1,0.4,1,1l0,0c0,0.5-0.5,1-1,1l0,0C94.5,66,94,65.5,94,65z M89,65c0-0.6,0.5-1,1-1l0,0c0.5,0,1,0.4,1,1l0,0c0,0.5-0.5,1-1,1
		l0,0C89.5,66,89,65.5,89,65z M84,65c0-0.6,0.5-1,1-1l0,0c0.5,0,1,0.4,1,1l0,0c0,0.5-0.5,1-1,1l0,0C84.5,66,84,65.5,84,65z M79,65
		c0-0.6,0.4-1,1-1l0,0c0.5,0,1,0.4,1,1l0,0c0,0.5-0.5,1-1,1l0,0C79.4,66,79,65.5,79,65z"/>
</g>
<g>
	<path class="st0" d="M79,75c0-0.6,0.4-1,1-1l0,0c0.5,0,1,0.4,1,1l0,0c0,0.5-0.5,1-1,1l0,0C79.4,76,79,75.5,79,75z M49,75
		c0-0.6,0.4-1,1-1l0,0c0.5,0,1,0.4,1,1l0,0c0,0.5-0.5,1-1,1l0,0C49.4,76,49,75.5,49,75z M79,70c0-0.6,0.4-1,1-1l0,0c0.5,0,1,0.4,1,1
		l0,0c0,0.5-0.5,1-1,1l0,0C79.4,71,79,70.5,79,70z M49,70c0-0.6,0.4-1,1-1l0,0c0.5,0,1,0.4,1,1l0,0c0,0.5-0.5,1-1,1l0,0
		C49.4,71,49,70.5,49,70z M79,65c0-0.6,0.4-1,1-1l0,0c0.5,0,1,0.4,1,1l0,0c0,0.5-0.5,1-1,1l0,0C79.4,66,79,65.5,79,65z M74,65
		c0-0.6,0.4-1,1-1l0,0c0.5,0,1,0.4,1,1l0,0c0,0.5-0.5,1-1,1l0,0C74.4,66,74,65.5,74,65z M69,65c0-0.6,0.4-1,1-1l0,0c0.5,0,1,0.4,1,1
		l0,0c0,0.5-0.5,1-1,1l0,0C69.4,66,69,65.5,69,65z M64,65c0-0.6,0.4-1,1-1l0,0c0.5,0,1,0.4,1,1l0,0c0,0.5-0.5,1-1,1l0,0
		C64.4,66,64,65.5,64,65z M59,65c0-0.6,0.4-1,1-1l0,0c0.5,0,1,0.4,1,1l0,0c0,0.5-0.5,1-1,1l0,0C59.4,66,59,65.5,59,65z M54,65
		c0-0.6,0.4-1,1-1l0,0c0.5,0,1,0.4,1,1l0,0c0,0.5-0.5,1-1,1l0,0C54.4,66,54,65.5,54,65z M49,65c0-0.6,0.4-1,1-1l0,0c0.5,0,1,0.4,1,1
		l0,0c0,0.5-0.5,1-1,1l0,0C49.4,66,49,65.5,49,65z"/>
</g>
<g>
	<path class="st0" d="M49,75c0-0.6,0.4-1,1-1l0,0c0.5,0,1,0.4,1,1l0,0c0,0.5-0.5,1-1,1l0,0C49.4,76,49,75.5,49,75z M19,75
		c0-0.6,0.4-1,1-1l0,0c0.5,0,1,0.4,1,1l0,0c0,0.5-0.5,1-1,1l0,0C19.4,76,19,75.5,19,75z M49,70c0-0.6,0.4-1,1-1l0,0c0.5,0,1,0.4,1,1
		l0,0c0,0.5-0.5,1-1,1l0,0C49.4,71,49,70.5,49,70z M19,70c0-0.6,0.4-1,1-1l0,0c0.5,0,1,0.4,1,1l0,0c0,0.5-0.5,1-1,1l0,0
		C19.4,71,19,70.5,19,70z M49,65c0-0.6,0.4-1,1-1l0,0c0.5,0,1,0.4,1,1l0,0c0,0.5-0.5,1-1,1l0,0C49.4,66,49,65.5,49,65z M44,65
		c0-0.6,0.4-1,1-1l0,0c0.5,0,1,0.4,1,1l0,0c0,0.5-0.5,1-1,1l0,0C44.4,66,44,65.5,44,65z M39,65c0-0.6,0.4-1,1-1l0,0c0.5,0,1,0.4,1,1
		l0,0c0,0.5-0.5,1-1,1l0,0C39.4,66,39,65.5,39,65z M34,65c0-0.6,0.4-1,1-1l0,0c0.5,0,1,0.4,1,1l0,0c0,0.5-0.5,1-1,1l0,0
		C34.4,66,34,65.5,34,65z M29,65c0-0.6,0.4-1,1-1l0,0c0.5,0,1,0.4,1,1l0,0c0,0.5-0.5,1-1,1l0,0C29.4,66,29,65.5,29,65z M24,65
		c0-0.6,0.4-1,1-1l0,0c0.5,0,1,0.4,1,1l0,0c0,0.5-0.5,1-1,1l0,0C24.4,66,24,65.5,24,65z M19,65c0-0.6,0.4-1,1-1l0,0c0.5,0,1,0.4,1,1
		l0,0c0,0.5-0.5,1-1,1l0,0C19.4,66,19,65.5,19,65z"/>
</g>
<g>
	<path class="st0" d="M10,96H8c-0.6,0-1-0.4-1-1s0.4-1,1-1h2c0.6,0,1,0.4,1,1S10.6,96,10,96z"/>
</g>
<g>
	<path class="st0" d="M20,76c-0.6,0-1-0.4-1-1v-9H8c-0.6,0-1-0.4-1-1s0.4-1,1-1h12c0.6,0,1,0.4,1,1v10C21,75.6,20.6,76,20,76z"/>
</g>
<g>
	<path class="st0" d="M152,96h-2c-0.6,0-1-0.4-1-1s0.4-1,1-1h2c0.6,0,1,0.4,1,1S152.6,96,152,96z"/>
</g>
<g>
	<path class="st0" d="M140,76c-0.6,0-1-0.4-1-1V65c0-0.6,0.4-1,1-1h12c0.6,0,1,0.4,1,1s-0.4,1-1,1h-11v9C141,75.6,140.6,76,140,76z"
		/>
</g>
<g>
	<path class="st0" d="M31.5,46.9v-1.4h7v1.4h-2.7v6.6h-1.7v-6.6H31.5z"/>
</g>
<g>
	<path class="st0" d="M59,45.5h1.5c0.1,0,0.2,0.1,0.2,0.2l1,3.4c0.2,0.7,0.5,1.6,0.8,2.7c0.2-1,0.5-2.1,0.9-3.5l0.8-2.8h1.4
		c0.1,0,0.1,0,0.1,0s0,0.1,0.1,0.1l1.1,3.5c0.3,0.9,0.5,1.8,0.7,2.6c0.3-1.2,0.6-2.2,0.8-3l1-3.1c0-0.1,0-0.1,0.1-0.1s0.1,0,0.1,0
		H71l-2.5,8h-1.7c-0.1,0-0.2-0.1-0.3-0.2l-0.6-2c-0.2-0.5-0.3-1.1-0.5-1.9c-0.2-0.7-0.3-1.3-0.4-1.6c-0.1,0.5-0.4,1.7-0.9,3.5
		l-0.6,2.1h-1.7c-0.1,0-0.2-0.1-0.3-0.2L59,45.5z"/>
</g>
<g>
	<path class="st0" d="M91.5,46.9v-1.4h7v1.4h-2.7v6.6h-1.7v-6.6H91.5z"/>
</g>
<g>
	<path class="st0" d="M122.4,53.5v-8h5.6v1.4h-4v1.9h3.6v1.4H124v3.2H122.4z"/>
</g>
</svg>
