<?xml version="1.0" encoding="utf-8"?>
<!-- Generator: Adobe Illustrator 21.1.0, SVG Export Plug-In . SVG Version: 6.00 Build 0)  -->
<svg version="1.1" id="Layer_1" xmlns="http://www.w3.org/2000/svg" xmlns:xlink="http://www.w3.org/1999/xlink" x="0px" y="0px"
	 viewBox="0 0 160 160" style="enable-background:new 0 0 160 160;" xml:space="preserve">
<style type="text/css">
	.st0{fill:#FFFFFF;}
</style>
<g>
	<path class="st0" d="M80,2c43,0,78,35,78,78s-35,78-78,78S2,123,2,80S37,2,80,2 M80,0C35.8,0,0,35.8,0,80s35.8,80,80,80
		s80-35.8,80-80S124.2,0,80,0L80,0z"/>
</g>
<g>
	<g>
		<path class="st0" d="M107.9,76.2H54.7c-0.5,0-1-0.4-1-1c-0.1-2.4-0.4-14.3,1.2-16.7c1.4-2.2,5.1-3.6,9.3-5.3
			c1.1-0.4,2.3-0.9,3.5-1.4c3.5-1.5,5.2-2.3,6-2.7l0-4.1c-0.7-0.7-1.9-2.4-2.5-5.8c-0.2-0.1-0.5-0.2-0.8-0.4c-1.1-0.8-1.9-2.5-2-3.5
			c0,0-0.2-3.3,1.2-4.5c0.1-0.1,0.2-0.2,0.3-0.2c-0.3-2.5-0.4-4-0.3-4.9c0.4-4.6,4.9-9.3,11.6-9.3c6.7,0,11.2,4.7,11.6,9.3
			c0.1,0.9,0,2.4-0.3,4.9c0.1,0.1,0.2,0.1,0.3,0.2c1.4,1.2,1.2,4.5,1.2,4.5c-0.1,1.1-0.8,2.7-2,3.5c-0.3,0.2-0.5,0.3-0.8,0.4
			c-0.6,3.4-1.8,5.1-2.5,5.8l0,4.1c0.7,0.4,2.5,1.2,6,2.7c1.2,0.5,2.4,0.9,3.5,1.4c4.2,1.6,7.8,3,9.3,5.3l0,0
			c1.5,2.4,1.2,14.3,1.2,16.7C108.9,75.8,108.4,76.2,107.9,76.2z M55.7,74.2h51.3c0.1-5.6,0-13.3-0.9-14.6c0,0,0,0,0,0
			c-1.1-1.7-4.6-3-8.3-4.5c-1.2-0.4-2.3-0.9-3.5-1.4c-5.3-2.2-6.7-3-6.7-3.1c-0.3-0.2-0.5-0.5-0.5-0.8L87,44.7
			c0-0.3,0.1-0.6,0.4-0.8c0,0,1.7-1.4,2.2-5.7c0-0.3,0.2-0.5,0.4-0.7c0.2-0.2,0.5-0.2,0.8-0.1c0,0,0,0,0,0c0.4,0,1.3-1.3,1.3-2.1
			c0.1-1.2-0.3-2.7-0.6-2.9c-0.3,0.1-0.6,0-0.8-0.2c-0.2-0.2-0.3-0.5-0.3-0.9c0.3-1.9,0.5-4.3,0.4-5.4c-0.4-3.7-4.1-7.5-9.6-7.5
			c-5.6,0-9.3,3.8-9.6,7.5c-0.1,1.1,0.2,3.6,0.4,5.4c0,0.3-0.1,0.6-0.3,0.9c-0.2,0.2-0.6,0.3-0.9,0.2c-0.2,0.2-0.6,1.7-0.5,2.9
			c0.1,0.9,1,2.2,1.4,2.1c0.3-0.1,0.6,0,0.8,0.1c0.2,0.2,0.4,0.4,0.4,0.7c0.5,4.2,2.2,5.7,2.2,5.7c0.2,0.2,0.4,0.5,0.4,0.8l0,5.1
			c0,0.3-0.2,0.7-0.5,0.8c-0.1,0-1.4,0.8-6.7,3.1c-1.2,0.5-2.4,1-3.5,1.4c-3.7,1.4-7.2,2.8-8.3,4.5C55.7,60.9,55.5,68.6,55.7,74.2z"
			/>
	</g>
</g>
<g>
	<g>
		<g>
			<path class="st0" d="M80.6,143.6C80.6,143.6,80.6,143.6,80.6,143.6c-1.1,0-2.1-0.1-3.1-0.3c-0.5-0.1-0.9-0.6-0.8-1.1
				c0.1-0.5,0.6-0.9,1.1-0.8c0.9,0.1,1.9,0.2,2.9,0.3c0.6,0,1,0.5,1,1C81.6,143.2,81.1,143.6,80.6,143.6z M85.6,143.2
				c-0.5,0-0.9-0.3-1-0.8c-0.1-0.5,0.3-1.1,0.8-1.2c0.9-0.2,1.9-0.4,2.8-0.7c0.5-0.2,1.1,0.1,1.2,0.7c0.2,0.5-0.1,1.1-0.7,1.2
				c-1,0.3-2,0.5-3,0.7C85.7,143.2,85.6,143.2,85.6,143.2z M72.8,142.1c-0.1,0-0.2,0-0.3-0.1c-1-0.4-1.9-0.8-2.9-1.2
				c-0.5-0.2-0.7-0.9-0.4-1.3s0.9-0.7,1.3-0.4c0.9,0.4,1.7,0.8,2.6,1.1c0.5,0.2,0.8,0.8,0.6,1.3C73.5,141.8,73.2,142.1,72.8,142.1z
				 M93.1,140.6c-0.4,0-0.7-0.2-0.9-0.5c-0.3-0.5-0.1-1.1,0.4-1.4c0.8-0.4,1.7-1,2.5-1.5c0.5-0.3,1.1-0.2,1.4,0.2
				c0.3,0.5,0.2,1.1-0.2,1.4c-0.9,0.6-1.7,1.1-2.7,1.6C93.4,140.6,93.2,140.6,93.1,140.6z M65.8,138.2c-0.2,0-0.4-0.1-0.6-0.2
				c-0.8-0.6-1.6-1.3-2.3-2.1c-0.4-0.4-0.4-1,0-1.4c0.4-0.4,1-0.4,1.4,0c0.7,0.7,1.4,1.3,2.1,1.9c0.4,0.3,0.5,1,0.2,1.4
				C66.4,138.1,66.1,138.2,65.8,138.2z M99.4,135.8c-0.2,0-0.5-0.1-0.7-0.3c-0.4-0.4-0.4-1,0-1.4c0.7-0.7,1.3-1.4,1.9-2.2
				c0.3-0.4,1-0.5,1.4-0.2c0.4,0.3,0.5,1,0.2,1.4c-0.6,0.8-1.3,1.6-2,2.4C99.9,135.7,99.7,135.8,99.4,135.8z M60.4,132.3
				c-0.3,0-0.6-0.2-0.8-0.4c-0.6-0.9-1.1-1.8-1.6-2.7c-0.2-0.5,0-1.1,0.4-1.3c0.5-0.2,1.1,0,1.3,0.4c0.4,0.9,0.9,1.7,1.4,2.5
				c0.3,0.5,0.2,1.1-0.3,1.4C60.8,132.3,60.6,132.3,60.4,132.3z M103.9,129.2c-0.1,0-0.3,0-0.4-0.1c-0.5-0.2-0.7-0.8-0.5-1.3
				c0.4-0.9,0.8-1.8,1.1-2.7c0.2-0.5,0.7-0.8,1.3-0.6c0.5,0.2,0.8,0.7,0.6,1.3c-0.3,1-0.7,2-1.2,2.9
				C104.7,129,104.3,129.2,103.9,129.2z M57.1,125.1c-0.4,0-0.8-0.3-1-0.7c-0.3-1-0.5-2-0.6-3.1c-0.1-0.5,0.3-1.1,0.8-1.1
				c0.5-0.1,1.1,0.3,1.1,0.8c0.1,0.9,0.3,1.9,0.6,2.8c0.1,0.5-0.2,1.1-0.7,1.2C57.3,125.1,57.2,125.1,57.1,125.1z M106.1,121.6
				c0,0-0.1,0-0.1,0c-0.5-0.1-0.9-0.6-0.9-1.1c0.1-0.9,0.2-1.9,0.2-2.9c0-0.6,0.4-1,1-1s1,0.4,1,1c0,1-0.1,2.1-0.2,3.1
				C107,121.2,106.6,121.6,106.1,121.6z M56.3,117.2C56.3,117.2,56.3,117.2,56.3,117.2c-0.6,0-1-0.5-1-1.1c0.1-1,0.2-2.1,0.4-3.1
				c0.1-0.5,0.6-0.9,1.2-0.8c0.5,0.1,0.9,0.6,0.8,1.2c-0.2,0.9-0.3,1.9-0.3,2.9C57.3,116.8,56.9,117.2,56.3,117.2z M106.2,116.5
				c-0.5,0-1-0.4-1-0.9c-0.1-1-0.2-1.9-0.4-2.8c-0.1-0.5,0.2-1.1,0.8-1.2c0.5-0.1,1.1,0.2,1.2,0.8c0.2,1,0.4,2.1,0.4,3.1
				C107.2,115.9,106.8,116.4,106.2,116.5C106.3,116.5,106.2,116.5,106.2,116.5z M58,109.4c-0.1,0-0.2,0-0.4-0.1
				c-0.5-0.2-0.8-0.8-0.6-1.3c0.4-1,0.8-1.9,1.3-2.8c0.3-0.5,0.9-0.7,1.4-0.4c0.5,0.3,0.7,0.9,0.4,1.4c-0.5,0.8-0.9,1.7-1.2,2.6
				C58.8,109.1,58.4,109.4,58,109.4z M104.3,108.7c-0.4,0-0.8-0.2-0.9-0.6c-0.4-0.9-0.8-1.7-1.3-2.6c-0.3-0.5-0.1-1.1,0.4-1.4
				c0.5-0.3,1.1-0.1,1.4,0.4c0.5,0.9,1,1.8,1.4,2.8c0.2,0.5,0,1.1-0.5,1.3C104.5,108.7,104.4,108.7,104.3,108.7z M62.1,102.5
				c-0.2,0-0.5-0.1-0.6-0.2c-0.4-0.4-0.5-1-0.1-1.4c0.7-0.8,1.4-1.6,2.1-2.3c0.4-0.4,1-0.4,1.4,0c0.4,0.4,0.4,1,0,1.4
				c-0.7,0.7-1.4,1.4-2,2.1C62.7,102.4,62.4,102.5,62.1,102.5z M100,102c-0.3,0-0.5-0.1-0.7-0.3c-0.6-0.7-1.3-1.4-2-2
				c-0.4-0.4-0.5-1-0.1-1.4c0.4-0.4,1-0.5,1.4-0.1c0.8,0.7,1.5,1.4,2.2,2.2c0.4,0.4,0.3,1-0.1,1.4C100.5,101.9,100.2,102,100,102z
				 M68.1,97.3c-0.3,0-0.7-0.2-0.9-0.5c-0.3-0.5-0.1-1.1,0.3-1.4c0.9-0.5,1.8-1,2.7-1.5c0.5-0.2,1.1,0,1.3,0.5s0,1.1-0.5,1.3
				c-0.9,0.4-1.7,0.9-2.5,1.4C68.5,97.3,68.3,97.3,68.1,97.3z M93.8,97c-0.2,0-0.3,0-0.5-0.1c-0.8-0.5-1.7-0.9-2.6-1.3
				c-0.5-0.2-0.7-0.8-0.5-1.3c0.2-0.5,0.8-0.7,1.3-0.5c1,0.4,1.9,0.9,2.8,1.4c0.5,0.3,0.6,0.9,0.4,1.4C94.5,96.8,94.2,97,93.8,97z
				 M75.5,94.3c-0.5,0-0.9-0.3-1-0.8c-0.1-0.5,0.2-1.1,0.7-1.2c1-0.2,2-0.4,3.1-0.5c0.5-0.1,1,0.3,1.1,0.9c0.1,0.5-0.3,1-0.9,1.1
				c-1,0.1-1.9,0.3-2.8,0.5C75.6,94.3,75.6,94.3,75.5,94.3z M86.4,94.1c-0.1,0-0.1,0-0.2,0c-0.9-0.2-1.9-0.3-2.8-0.4
				c-0.6,0-1-0.5-0.9-1.1s0.5-1,1.1-0.9c1,0.1,2.1,0.2,3.1,0.4c0.5,0.1,0.9,0.6,0.8,1.2C87.3,93.8,86.9,94.1,86.4,94.1z"/>
		</g>
		<g>
			<path class="st0" d="M106.3,118.6h-2c-0.6,0-1-0.4-1-1s0.4-1,1-1h2c0.6,0,1,0.4,1,1S106.8,118.6,106.3,118.6z M99.3,118.6h-3
				c-0.6,0-1-0.4-1-1s0.4-1,1-1h3c0.6,0,1,0.4,1,1S99.8,118.6,99.3,118.6z M91.3,118.6h-3c-0.6,0-1-0.4-1-1s0.4-1,1-1h3
				c0.6,0,1,0.4,1,1S91.8,118.6,91.3,118.6z M83.3,118.6h-3c-0.6,0-1-0.4-1-1s0.4-1,1-1h3c0.6,0,1,0.4,1,1S83.8,118.6,83.3,118.6z
				 M75.3,118.6h-3c-0.6,0-1-0.4-1-1s0.4-1,1-1h3c0.6,0,1,0.4,1,1S75.8,118.6,75.3,118.6z M67.3,118.6h-3c-0.6,0-1-0.4-1-1
				s0.4-1,1-1h3c0.6,0,1,0.4,1,1S67.8,118.6,67.3,118.6z M59.3,118.6h-3c-0.6,0-1-0.4-1-1s0.4-1,1-1h3c0.6,0,1,0.4,1,1
				S59.8,118.6,59.3,118.6z"/>
		</g>
		<g>
			<path class="st0" d="M81.3,143.6c-0.6,0-1-0.4-1-1v-2c0-0.6,0.4-1,1-1c0.6,0,1,0.4,1,1v2C82.3,143.1,81.8,143.6,81.3,143.6z
				 M81.3,136.6c-0.6,0-1-0.4-1-1v-3c0-0.6,0.4-1,1-1c0.6,0,1,0.4,1,1v3C82.3,136.1,81.8,136.6,81.3,136.6z M81.3,128.6
				c-0.6,0-1-0.4-1-1v-3c0-0.6,0.4-1,1-1c0.6,0,1,0.4,1,1v3C82.3,128.1,81.8,128.6,81.3,128.6z M81.3,120.6c-0.6,0-1-0.4-1-1v-3
				c0-0.6,0.4-1,1-1c0.6,0,1,0.4,1,1v3C82.3,120.1,81.8,120.6,81.3,120.6z M81.3,112.6c-0.6,0-1-0.4-1-1v-3c0-0.6,0.4-1,1-1
				c0.6,0,1,0.4,1,1v3C82.3,112.1,81.8,112.6,81.3,112.6z M81.3,104.6c-0.6,0-1-0.4-1-1v-3c0-0.6,0.4-1,1-1c0.6,0,1,0.4,1,1v3
				C82.3,104.1,81.8,104.6,81.3,104.6z M81.3,96.6c-0.6,0-1-0.4-1-1v-3c0-0.6,0.4-1,1-1c0.6,0,1,0.4,1,1v3
				C82.3,96.1,81.8,96.6,81.3,96.6z"/>
		</g>
	</g>
	<g>
		<path class="st0" d="M81.3,92.6v25h25C106.3,103.8,95.1,92.6,81.3,92.6z"/>
	</g>
</g>
</svg>
