<?xml version="1.0" encoding="utf-8"?>
<!-- Generator: Adobe Illustrator 21.1.0, SVG Export Plug-In . SVG Version: 6.00 Build 0)  -->
<svg version="1.1" id="Layer_1" xmlns="http://www.w3.org/2000/svg" xmlns:xlink="http://www.w3.org/1999/xlink" x="0px" y="0px"
	 viewBox="0 0 160 160" style="enable-background:new 0 0 160 160;" xml:space="preserve">
<style type="text/css">
	.st0{fill:#FFFFFF;}
</style>
<g>
	<path class="st0" d="M80,2c43,0,78,35,78,78s-35,78-78,78S2,123,2,80S37,2,80,2 M80,0C35.8,0,0,35.8,0,80s35.8,80,80,80
		s80-35.8,80-80S124.2,0,80,0L80,0z"/>
</g>
<g>
	<g>
		<path class="st0" d="M95.1,66H67.5c-0.5,0-1-0.4-1-1c-0.1-2.3-0.1-7.6,0.7-8.9c0.8-1.3,2.8-2,5-2.9c0.6-0.2,1.2-0.5,1.8-0.7
			c1.5-0.6,2.3-1,2.8-1.2l0-1.6c-0.4-0.5-0.9-1.3-1.2-2.8c-0.1,0-0.2-0.1-0.3-0.2c-0.7-0.5-1.2-1.5-1.2-2.2c0-0.2-0.1-1.9,0.8-2.7
			c-0.1-1.2-0.2-1.9-0.1-2.4c0.3-2.6,2.8-5.3,6.5-5.3c3.8,0,6.3,2.7,6.5,5.3c0,0.5,0,1.2-0.1,2.4c0.9,0.8,0.8,2.5,0.8,2.7
			c0,0.7-0.5,1.7-1.2,2.2c-0.1,0.1-0.2,0.1-0.3,0.2c-0.3,1.5-0.9,2.4-1.2,2.8l0,1.6c0.5,0.2,1.3,0.6,2.8,1.2
			c0.6,0.3,1.2,0.5,1.8,0.7c2.3,0.9,4.2,1.6,5,2.9c0.8,1.3,0.8,6.7,0.7,8.9C96.1,65.6,95.6,66,95.1,66z M68.5,64h25.7
			c0-3-0.1-6.2-0.4-6.8c-0.5-0.7-2.3-1.4-4.1-2.1c-0.6-0.2-1.2-0.5-1.8-0.7c-2.8-1.1-3.5-1.6-3.6-1.6c-0.3-0.2-0.5-0.5-0.5-0.8
			l0-2.6c0-0.3,0.1-0.6,0.4-0.8v0c0,0,0.7-0.7,1-2.6c0-0.3,0.2-0.5,0.4-0.7c0.2-0.1,0.4-0.2,0.6-0.2c0.1-0.1,0.3-0.5,0.3-0.6
			c0-0.3,0-0.8-0.1-1c-0.2,0-0.3-0.1-0.5-0.2c-0.2-0.2-0.4-0.5-0.3-0.9c0.1-0.6,0.3-2.1,0.2-2.7c-0.2-1.7-1.9-3.5-4.5-3.5
			c-2.6,0-4.4,1.8-4.5,3.5c-0.1,0.6,0.2,2.2,0.2,2.7c0,0.3-0.1,0.6-0.3,0.9c-0.1,0.1-0.3,0.2-0.5,0.2c-0.1,0.3-0.1,0.7-0.1,1
			c0,0.2,0.2,0.5,0.3,0.6c0.2,0,0.4,0,0.6,0.2c0.2,0.2,0.4,0.4,0.4,0.7c0.3,2,1,2.6,1,2.6c0.2,0.2,0.4,0.5,0.4,0.8l0,2.6
			c0,0.3-0.2,0.7-0.5,0.8c-0.1,0-0.8,0.5-3.6,1.6c-0.6,0.3-1.2,0.5-1.8,0.7c-1.8,0.7-3.6,1.4-4.1,2.1C68.5,57.8,68.4,61,68.5,64z"/>
	</g>
</g>
<g>
	<g>
		<path class="st0" d="M45.1,66H17.5c-0.5,0-1-0.4-1-1c-0.1-2.3-0.1-7.6,0.7-8.9c0.8-1.3,2.8-2,5-2.9c0.6-0.2,1.2-0.5,1.8-0.7
			c1.5-0.6,2.3-1,2.8-1.2l0-1.6c-0.4-0.5-0.9-1.3-1.2-2.8c-0.1,0-0.2-0.1-0.3-0.2c-0.7-0.5-1.2-1.5-1.2-2.2c0-0.2-0.1-1.9,0.8-2.7
			c-0.1-1.2-0.2-1.9-0.1-2.4c0.3-2.6,2.8-5.3,6.5-5.3c3.8,0,6.3,2.7,6.5,5.3c0,0.5,0,1.2-0.1,2.4c0.9,0.8,0.8,2.5,0.8,2.7
			c0,0.7-0.5,1.7-1.2,2.2c-0.1,0.1-0.2,0.1-0.3,0.2c-0.3,1.5-0.9,2.4-1.2,2.8l0,1.6c0.5,0.2,1.3,0.6,2.8,1.2
			c0.6,0.3,1.2,0.5,1.8,0.7c2.3,0.9,4.2,1.6,5,2.9c0.8,1.3,0.7,6.7,0.7,8.9C46.1,65.6,45.6,66,45.1,66z M18.5,64h25.7
			c0-3-0.1-6.2-0.4-6.8c-0.5-0.7-2.3-1.4-4.1-2.1c-0.6-0.2-1.2-0.5-1.8-0.7c-2.8-1.1-3.5-1.6-3.6-1.6c-0.3-0.2-0.5-0.5-0.5-0.8
			l0-2.6c0-0.3,0.1-0.6,0.4-0.8c0,0,0,0,0,0c0,0,0.7-0.7,1-2.6c0-0.3,0.2-0.5,0.4-0.7c0.2-0.1,0.4-0.2,0.6-0.2
			c0.1-0.1,0.3-0.5,0.3-0.6c0-0.3,0-0.8-0.1-1c-0.2,0-0.3-0.1-0.5-0.2c-0.2-0.2-0.4-0.5-0.3-0.9c0.1-0.6,0.3-2.1,0.2-2.7
			c-0.2-1.7-1.9-3.5-4.5-3.5c-2.6,0-4.4,1.8-4.5,3.5c-0.1,0.6,0.2,2.2,0.2,2.7c0,0.3-0.1,0.6-0.3,0.9c-0.1,0.1-0.3,0.2-0.5,0.2
			c-0.1,0.3-0.1,0.7-0.1,1c0,0.2,0.2,0.5,0.3,0.6c0.2,0,0.4,0,0.6,0.2c0.2,0.2,0.4,0.4,0.4,0.7c0.3,2,1,2.6,1,2.6
			c0.2,0.2,0.4,0.5,0.4,0.8l0,2.6c0,0.3-0.2,0.7-0.5,0.8c-0.1,0-0.8,0.5-3.6,1.6c-0.6,0.3-1.2,0.5-1.8,0.7c-1.8,0.7-3.6,1.4-4.1,2.1
			C18.5,57.8,18.4,61,18.5,64z"/>
	</g>
</g>
<g>
	<g>
		<path class="st0" d="M145.1,66h-27.6c-0.5,0-1-0.4-1-1c-0.1-2.3-0.1-7.6,0.7-8.9c0.8-1.3,2.8-2,5-2.9c0.6-0.2,1.2-0.5,1.8-0.7
			c1.5-0.6,2.3-1,2.8-1.2l0-1.6c-0.4-0.5-0.9-1.3-1.2-2.8c-0.1,0-0.2-0.1-0.3-0.2c-0.7-0.5-1.2-1.5-1.2-2.2c0-0.2-0.1-1.9,0.8-2.7
			c-0.1-1.2-0.2-1.9-0.1-2.4c0.3-2.6,2.8-5.3,6.5-5.3c3.8,0,6.3,2.7,6.5,5.3c0,0.5,0,1.2-0.1,2.4c0.9,0.8,0.8,2.5,0.8,2.7
			c0,0.7-0.5,1.7-1.2,2.2c-0.1,0.1-0.2,0.1-0.3,0.2c-0.3,1.5-0.9,2.4-1.2,2.8l0,1.6c0.5,0.2,1.3,0.6,2.8,1.2
			c0.6,0.3,1.2,0.5,1.8,0.7c2.3,0.9,4.2,1.6,5,2.9c0.8,1.3,0.8,6.7,0.7,8.9C146.1,65.6,145.6,66,145.1,66z M118.5,64h25.7
			c0-3-0.1-6.2-0.4-6.8c-0.5-0.7-2.3-1.4-4.1-2.1c-0.6-0.2-1.2-0.5-1.8-0.7c-2.8-1.1-3.5-1.6-3.6-1.6c-0.3-0.2-0.5-0.5-0.5-0.8
			l0-2.6c0-0.3,0.1-0.6,0.4-0.8v0c0,0,0.7-0.7,1-2.6c0-0.3,0.2-0.5,0.4-0.7c0.2-0.1,0.4-0.2,0.6-0.2c0.1-0.1,0.3-0.5,0.3-0.6
			c0-0.3,0-0.8-0.1-1c-0.2,0-0.3-0.1-0.5-0.2c-0.2-0.2-0.4-0.5-0.3-0.9c0.1-0.6,0.3-2.1,0.2-2.7c-0.2-1.7-1.9-3.5-4.5-3.5
			c-2.6,0-4.4,1.8-4.5,3.5c-0.1,0.6,0.2,2.2,0.2,2.7c0,0.3-0.1,0.6-0.3,0.9c-0.1,0.1-0.3,0.2-0.5,0.2c-0.1,0.3-0.1,0.7-0.1,1
			c0,0.2,0.2,0.5,0.3,0.6c0.2,0,0.4,0,0.6,0.2c0.2,0.2,0.4,0.4,0.4,0.7c0.3,2,1,2.6,1,2.6c0.2,0.2,0.4,0.5,0.4,0.8l0,2.6
			c0,0.3-0.2,0.7-0.5,0.8c-0.1,0-0.8,0.5-3.6,1.6c-0.6,0.3-1.2,0.5-1.8,0.7c-1.8,0.7-3.6,1.4-4.1,2.1C118.5,57.8,118.4,61,118.5,64z
			"/>
	</g>
</g>
<g>
	<g>
		<path class="st0" d="M81,96C81,96,81,96,81,96c-1.1,0-2.2-0.2-3.3-0.6c-0.5-0.2-0.8-0.7-0.6-1.3c0.2-0.5,0.7-0.8,1.3-0.6
			c0.9,0.3,1.7,0.4,2.6,0.5c0.6,0,1,0.5,1,1C82,95.6,81.5,96,81,96z M85.8,94.9c-0.4,0-0.7-0.2-0.9-0.5c-0.3-0.5-0.1-1.1,0.4-1.3
			c0.8-0.4,1.5-0.9,2.2-1.6c0.4-0.4,1-0.4,1.4,0c0.4,0.4,0.4,1,0,1.4c-0.8,0.8-1.7,1.4-2.7,1.9C86.1,94.9,86,94.9,85.8,94.9z
			 M73.9,92.8c-0.3,0-0.5-0.1-0.7-0.3c-0.7-0.8-1.4-1.7-1.8-2.7c-0.2-0.5,0-1.1,0.5-1.3c0.5-0.2,1.1,0,1.3,0.5
			c0.4,0.8,0.9,1.6,1.5,2.2c0.4,0.4,0.3,1-0.1,1.4C74.4,92.7,74.2,92.8,73.9,92.8z M90.9,89c-0.1,0-0.2,0-0.3,0
			c-0.5-0.2-0.8-0.7-0.7-1.3c0.3-0.9,0.4-1.8,0.4-2.7c0-0.6,0.4-1,1-1s1,0.4,1,1c0,1.1-0.2,2.2-0.5,3.2C91.7,88.7,91.3,89,90.9,89z
			 M71.3,85.4C71.3,85.4,71.3,85.4,71.3,85.4c-0.6,0-1-0.5-1-1.1c0.1-1.1,0.3-2.2,0.7-3.2c0.2-0.5,0.8-0.8,1.3-0.6
			c0.5,0.2,0.8,0.8,0.6,1.3c-0.3,0.8-0.5,1.7-0.6,2.6C72.3,85,71.8,85.4,71.3,85.4z M90.6,82.2c-0.4,0-0.8-0.2-0.9-0.6
			c-0.3-0.8-0.8-1.6-1.4-2.3c-0.4-0.4-0.3-1.1,0.1-1.4c0.4-0.4,1.1-0.3,1.4,0.1c0.7,0.9,1.3,1.8,1.7,2.8c0.2,0.5,0,1.1-0.6,1.3
			C90.8,82.2,90.7,82.2,90.6,82.2z M74.7,78.4c-0.3,0-0.6-0.1-0.8-0.3c-0.4-0.4-0.3-1,0.1-1.4c0.8-0.7,1.8-1.3,2.8-1.8
			c0.5-0.2,1.1,0,1.3,0.5c0.2,0.5,0,1.1-0.5,1.3c-0.8,0.4-1.6,0.8-2.3,1.4C75.2,78.4,75,78.4,74.7,78.4z M85.1,76.7
			c-0.1,0-0.3,0-0.4-0.1c-0.8-0.3-1.7-0.5-2.6-0.6c-0.6,0-1-0.5-0.9-1.1s0.5-1,1.1-0.9c1.1,0.1,2.2,0.4,3.2,0.8
			c0.5,0.2,0.8,0.8,0.5,1.3C85.8,76.5,85.5,76.7,85.1,76.7z"/>
	</g>
	<g>
		<path class="st0" d="M90.3,86h-3c-0.6,0-1-0.4-1-1s0.4-1,1-1h3c0.6,0,1,0.4,1,1S90.8,86,90.3,86z M82.3,86h-3c-0.6,0-1-0.4-1-1
			s0.4-1,1-1h3c0.6,0,1,0.4,1,1S82.8,86,82.3,86z M74.3,86h-3c-0.6,0-1-0.4-1-1s0.4-1,1-1h3c0.6,0,1,0.4,1,1S74.8,86,74.3,86z"/>
	</g>
	<g>
		<path class="st0" d="M81.3,95c-0.6,0-1-0.4-1-1v-3c0-0.6,0.4-1,1-1c0.6,0,1,0.4,1,1v3C82.3,94.6,81.8,95,81.3,95z M81.3,87
			c-0.6,0-1-0.4-1-1v-3c0-0.6,0.4-1,1-1c0.6,0,1,0.4,1,1v3C82.3,86.6,81.8,87,81.3,87z M81.3,79c-0.6,0-1-0.4-1-1v-3
			c0-0.6,0.4-1,1-1c0.6,0,1,0.4,1,1v3C82.3,78.6,81.8,79,81.3,79z"/>
	</g>
</g>
<g>
	<path class="st0" d="M81.3,75v10h10C91.3,79.5,86.8,75,81.3,75z"/>
</g>
<g>
	<g>
		<path class="st0" d="M81,126C81,126,81,126,81,126c-1.1,0-2.2-0.2-3.3-0.6c-0.5-0.2-0.8-0.7-0.6-1.3s0.7-0.8,1.3-0.6
			c0.9,0.3,1.7,0.4,2.6,0.5c0.6,0,1,0.5,1,1C82,125.6,81.5,126,81,126z M85.8,124.9c-0.4,0-0.7-0.2-0.9-0.5
			c-0.3-0.5-0.1-1.1,0.4-1.3c0.8-0.4,1.5-0.9,2.2-1.6c0.4-0.4,1-0.4,1.4,0c0.4,0.4,0.4,1,0,1.4c-0.8,0.8-1.7,1.4-2.7,1.9
			C86.1,124.9,86,124.9,85.8,124.9z M73.9,122.8c-0.3,0-0.5-0.1-0.7-0.3c-0.7-0.8-1.4-1.7-1.8-2.7c-0.2-0.5,0-1.1,0.5-1.3
			c0.5-0.2,1.1,0,1.3,0.5c0.4,0.8,0.9,1.6,1.5,2.2c0.4,0.4,0.3,1-0.1,1.4C74.4,122.7,74.2,122.8,73.9,122.8z M90.9,119
			c-0.1,0-0.2,0-0.3,0c-0.5-0.2-0.8-0.7-0.7-1.3c0.3-0.9,0.4-1.8,0.4-2.7c0-0.6,0.4-1,1-1s1,0.4,1,1c0,1.1-0.2,2.2-0.5,3.2
			C91.7,118.7,91.3,119,90.9,119z M71.3,115.4C71.3,115.4,71.3,115.4,71.3,115.4c-0.6,0-1-0.5-1-1.1c0.1-1.1,0.3-2.2,0.7-3.2
			c0.2-0.5,0.8-0.8,1.3-0.6c0.5,0.2,0.8,0.8,0.6,1.3c-0.3,0.8-0.5,1.7-0.6,2.6C72.3,115,71.8,115.4,71.3,115.4z M90.6,112.2
			c-0.4,0-0.8-0.2-0.9-0.6c-0.3-0.8-0.8-1.6-1.4-2.3c-0.3-0.4-0.3-1.1,0.1-1.4c0.4-0.4,1.1-0.3,1.4,0.1c0.7,0.9,1.3,1.8,1.7,2.8
			c0.2,0.5,0,1.1-0.6,1.3C90.8,112.2,90.7,112.2,90.6,112.2z M74.7,108.4c-0.3,0-0.6-0.1-0.8-0.3c-0.4-0.4-0.3-1,0.1-1.4
			c0.8-0.7,1.8-1.3,2.8-1.8c0.5-0.2,1.1,0,1.3,0.5s0,1.1-0.5,1.3c-0.8,0.4-1.6,0.8-2.3,1.4C75.2,108.4,75,108.4,74.7,108.4z
			 M85.1,106.7c-0.1,0-0.3,0-0.4-0.1c-0.8-0.3-1.7-0.5-2.6-0.6c-0.6,0-1-0.5-0.9-1.1c0-0.5,0.5-1,1.1-0.9c1.1,0.1,2.2,0.3,3.2,0.8
			c0.5,0.2,0.8,0.8,0.6,1.3C85.8,106.5,85.5,106.7,85.1,106.7z"/>
	</g>
	<g>
		<path class="st0" d="M90.3,116h-3c-0.6,0-1-0.4-1-1s0.4-1,1-1h3c0.6,0,1,0.4,1,1S90.8,116,90.3,116z M82.3,116h-3
			c-0.6,0-1-0.4-1-1s0.4-1,1-1h3c0.6,0,1,0.4,1,1S82.8,116,82.3,116z M74.3,116h-3c-0.6,0-1-0.4-1-1s0.4-1,1-1h3c0.6,0,1,0.4,1,1
			S74.8,116,74.3,116z"/>
	</g>
	<g>
		<path class="st0" d="M81.3,125c-0.6,0-1-0.4-1-1v-3c0-0.6,0.4-1,1-1c0.6,0,1,0.4,1,1v3C82.3,124.6,81.8,125,81.3,125z M81.3,117
			c-0.6,0-1-0.4-1-1v-3c0-0.6,0.4-1,1-1c0.6,0,1,0.4,1,1v3C82.3,116.6,81.8,117,81.3,117z M81.3,109c-0.6,0-1-0.4-1-1v-3
			c0-0.6,0.4-1,1-1c0.6,0,1,0.4,1,1v3C82.3,108.6,81.8,109,81.3,109z"/>
	</g>
</g>
<g>
	<path class="st0" d="M91.3,115h-10v10C86.8,125,91.3,120.5,91.3,115z"/>
</g>
<g>
	<path class="st0" d="M81.3,105v10h10C91.3,109.5,86.8,105,81.3,105z"/>
</g>
<g>
	<path class="st0" d="M81.3,125v-10h-10C71.3,120.5,75.8,125,81.3,125z"/>
</g>
<g>
	<g>
		<path class="st0" d="M31,96C31,96,31,96,31,96c-1.1,0-2.2-0.2-3.3-0.6c-0.5-0.2-0.8-0.7-0.6-1.3c0.2-0.5,0.7-0.8,1.3-0.6
			c0.9,0.3,1.7,0.4,2.6,0.5c0.6,0,1,0.5,1,1C32,95.6,31.5,96,31,96z M35.8,94.9c-0.4,0-0.7-0.2-0.9-0.5c-0.3-0.5-0.1-1.1,0.4-1.3
			c0.8-0.4,1.5-0.9,2.2-1.6c0.4-0.4,1-0.4,1.4,0c0.4,0.4,0.4,1,0,1.4c-0.8,0.8-1.7,1.4-2.7,1.9C36.1,94.9,36,94.9,35.8,94.9z
			 M23.9,92.8c-0.3,0-0.5-0.1-0.7-0.3c-0.7-0.8-1.4-1.7-1.8-2.7c-0.2-0.5,0-1.1,0.5-1.3c0.5-0.2,1.1,0,1.3,0.5
			c0.4,0.8,0.9,1.6,1.5,2.2c0.4,0.4,0.3,1-0.1,1.4C24.4,92.7,24.2,92.8,23.9,92.8z M40.9,89c-0.1,0-0.2,0-0.3,0
			c-0.5-0.2-0.8-0.7-0.7-1.3c0.3-0.9,0.4-1.8,0.4-2.7c0-0.6,0.4-1,1-1s1,0.4,1,1c0,1.1-0.2,2.2-0.5,3.2C41.7,88.7,41.3,89,40.9,89z
			 M21.3,85.4C21.3,85.4,21.3,85.4,21.3,85.4c-0.6,0-1-0.5-1-1.1c0.1-1.1,0.3-2.2,0.7-3.2c0.2-0.5,0.8-0.8,1.3-0.6
			c0.5,0.2,0.8,0.8,0.6,1.3c-0.3,0.8-0.5,1.7-0.6,2.6C22.3,85,21.8,85.4,21.3,85.4z M40.6,82.2c-0.4,0-0.8-0.2-0.9-0.6
			c-0.3-0.8-0.8-1.6-1.4-2.3c-0.3-0.4-0.3-1.1,0.1-1.4c0.4-0.3,1.1-0.3,1.4,0.1c0.7,0.9,1.3,1.8,1.7,2.8c0.2,0.5,0,1.1-0.5,1.3
			C40.8,82.2,40.7,82.2,40.6,82.2z M24.7,78.4c-0.3,0-0.6-0.1-0.8-0.3c-0.4-0.4-0.3-1,0.1-1.4c0.8-0.7,1.8-1.3,2.8-1.8
			c0.5-0.2,1.1,0,1.3,0.5c0.2,0.5,0,1.1-0.5,1.3c-0.8,0.4-1.6,0.8-2.3,1.4C25.2,78.4,25,78.4,24.7,78.4z M35.1,76.7
			c-0.1,0-0.3,0-0.4-0.1c-0.8-0.3-1.7-0.5-2.6-0.6c-0.6,0-1-0.5-0.9-1.1c0-0.5,0.5-1,1.1-0.9c1.1,0.1,2.2,0.4,3.2,0.8
			c0.5,0.2,0.8,0.8,0.5,1.3C35.8,76.5,35.5,76.7,35.1,76.7z"/>
	</g>
	<g>
		<path class="st0" d="M40.3,86h-3c-0.6,0-1-0.4-1-1s0.4-1,1-1h3c0.6,0,1,0.4,1,1S40.8,86,40.3,86z M32.3,86h-3c-0.6,0-1-0.4-1-1
			s0.4-1,1-1h3c0.6,0,1,0.4,1,1S32.8,86,32.3,86z M24.3,86h-3c-0.6,0-1-0.4-1-1s0.4-1,1-1h3c0.6,0,1,0.4,1,1S24.8,86,24.3,86z"/>
	</g>
	<g>
		<path class="st0" d="M31.3,95c-0.6,0-1-0.4-1-1v-3c0-0.6,0.4-1,1-1s1,0.4,1,1v3C32.3,94.6,31.8,95,31.3,95z M31.3,87
			c-0.6,0-1-0.4-1-1v-3c0-0.6,0.4-1,1-1s1,0.4,1,1v3C32.3,86.6,31.8,87,31.3,87z M31.3,79c-0.6,0-1-0.4-1-1v-3c0-0.6,0.4-1,1-1
			s1,0.4,1,1v3C32.3,78.6,31.8,79,31.3,79z"/>
	</g>
</g>
<g>
	<path class="st0" d="M41.3,85h-10v10C36.8,95,41.3,90.5,41.3,85z"/>
</g>
<g>
	<path class="st0" d="M31.3,75v10h10C41.3,79.5,36.8,75,31.3,75z"/>
</g>
<g>
	<path class="st0" d="M31.3,95V85h-10C21.3,90.5,25.8,95,31.3,95z"/>
</g>
<g>
	<g>
		<path class="st0" d="M31,126C31,126,31,126,31,126c-1.1,0-2.2-0.2-3.3-0.6c-0.5-0.2-0.8-0.7-0.6-1.3c0.2-0.5,0.7-0.8,1.3-0.6
			c0.9,0.3,1.7,0.4,2.6,0.5c0.6,0,1,0.5,1,1C32,125.6,31.5,126,31,126z M35.8,124.9c-0.4,0-0.7-0.2-0.9-0.5
			c-0.3-0.5-0.1-1.1,0.4-1.3c0.8-0.4,1.5-0.9,2.2-1.6c0.4-0.4,1-0.4,1.4,0c0.4,0.4,0.4,1,0,1.4c-0.8,0.8-1.7,1.4-2.7,1.9
			C36.1,124.9,36,124.9,35.8,124.9z M23.9,122.8c-0.3,0-0.5-0.1-0.7-0.3c-0.7-0.8-1.4-1.7-1.8-2.7c-0.2-0.5,0-1.1,0.5-1.3
			c0.5-0.2,1.1,0,1.3,0.5c0.4,0.8,0.9,1.6,1.5,2.2c0.4,0.4,0.3,1-0.1,1.4C24.4,122.7,24.2,122.8,23.9,122.8z M40.9,119
			c-0.1,0-0.2,0-0.3,0c-0.5-0.2-0.8-0.7-0.7-1.3c0.3-0.9,0.4-1.8,0.4-2.7c0-0.6,0.4-1,1-1s1,0.4,1,1c0,1.1-0.2,2.2-0.5,3.2
			C41.7,118.7,41.3,119,40.9,119z M21.3,115.4C21.3,115.4,21.3,115.4,21.3,115.4c-0.6,0-1-0.5-1-1.1c0.1-1.1,0.3-2.2,0.7-3.2
			c0.2-0.5,0.8-0.8,1.3-0.6c0.5,0.2,0.8,0.8,0.6,1.3c-0.3,0.8-0.5,1.7-0.6,2.6C22.3,115,21.8,115.4,21.3,115.4z M40.6,112.2
			c-0.4,0-0.8-0.2-0.9-0.6c-0.3-0.8-0.8-1.6-1.4-2.3c-0.4-0.4-0.3-1.1,0.1-1.4c0.4-0.3,1.1-0.3,1.4,0.1c0.7,0.9,1.3,1.8,1.7,2.8
			c0.2,0.5,0,1.1-0.5,1.3C40.8,112.2,40.7,112.2,40.6,112.2z M24.7,108.4c-0.3,0-0.6-0.1-0.8-0.3c-0.4-0.4-0.3-1,0.1-1.4
			c0.8-0.7,1.8-1.3,2.8-1.8c0.5-0.2,1.1,0,1.3,0.5c0.2,0.5,0,1.1-0.5,1.3c-0.8,0.4-1.6,0.8-2.3,1.4C25.2,108.4,25,108.4,24.7,108.4z
			 M35.1,106.7c-0.1,0-0.3,0-0.4-0.1c-0.8-0.3-1.7-0.5-2.6-0.6c-0.6,0-1-0.5-0.9-1.1c0-0.5,0.5-1,1.1-0.9c1.1,0.1,2.2,0.3,3.2,0.8
			c0.5,0.2,0.8,0.8,0.6,1.3C35.8,106.5,35.5,106.7,35.1,106.7z"/>
	</g>
	<g>
		<path class="st0" d="M40.3,116h-3c-0.6,0-1-0.4-1-1s0.4-1,1-1h3c0.6,0,1,0.4,1,1S40.8,116,40.3,116z M32.3,116h-3
			c-0.6,0-1-0.4-1-1s0.4-1,1-1h3c0.6,0,1,0.4,1,1S32.8,116,32.3,116z M24.3,116h-3c-0.6,0-1-0.4-1-1s0.4-1,1-1h3c0.6,0,1,0.4,1,1
			S24.8,116,24.3,116z"/>
	</g>
	<g>
		<path class="st0" d="M31.3,125c-0.6,0-1-0.4-1-1v-3c0-0.6,0.4-1,1-1s1,0.4,1,1v3C32.3,124.6,31.8,125,31.3,125z M31.3,117
			c-0.6,0-1-0.4-1-1v-3c0-0.6,0.4-1,1-1s1,0.4,1,1v3C32.3,116.6,31.8,117,31.3,117z M31.3,109c-0.6,0-1-0.4-1-1v-3c0-0.6,0.4-1,1-1
			s1,0.4,1,1v3C32.3,108.6,31.8,109,31.3,109z"/>
	</g>
</g>
<g>
	<path class="st0" d="M31.3,105v10h10C41.3,109.5,36.8,105,31.3,105z"/>
</g>
<g>
	<g>
		<path class="st0" d="M131,126C131,126,131,126,131,126c-1.1,0-2.2-0.2-3.3-0.6c-0.5-0.2-0.8-0.7-0.6-1.3c0.2-0.5,0.7-0.8,1.3-0.6
			c0.9,0.3,1.7,0.4,2.6,0.5c0.6,0,1,0.5,1,1C132,125.6,131.5,126,131,126z M135.8,124.9c-0.4,0-0.7-0.2-0.9-0.5
			c-0.3-0.5-0.1-1.1,0.4-1.3c0.8-0.4,1.5-0.9,2.2-1.6c0.4-0.4,1-0.4,1.4,0c0.4,0.4,0.4,1,0,1.4c-0.8,0.8-1.7,1.4-2.7,1.9
			C136.1,124.9,136,124.9,135.8,124.9z M123.9,122.8c-0.3,0-0.5-0.1-0.7-0.3c-0.7-0.8-1.4-1.7-1.8-2.7c-0.2-0.5,0-1.1,0.5-1.3
			c0.5-0.2,1.1,0,1.3,0.5c0.4,0.8,0.9,1.6,1.5,2.2c0.4,0.4,0.3,1-0.1,1.4C124.4,122.7,124.2,122.8,123.9,122.8z M140.9,119
			c-0.1,0-0.2,0-0.3,0c-0.5-0.2-0.8-0.7-0.7-1.3c0.3-0.9,0.4-1.8,0.4-2.7c0-0.6,0.4-1,1-1s1,0.4,1,1c0,1.1-0.2,2.2-0.5,3.2
			C141.7,118.7,141.3,119,140.9,119z M121.3,115.4C121.3,115.4,121.3,115.4,121.3,115.4c-0.6,0-1-0.5-1-1.1c0.1-1.1,0.3-2.2,0.7-3.2
			c0.2-0.5,0.8-0.8,1.3-0.6c0.5,0.2,0.8,0.8,0.6,1.3c-0.3,0.8-0.5,1.7-0.6,2.6C122.3,115,121.8,115.4,121.3,115.4z M140.6,112.2
			c-0.4,0-0.8-0.2-0.9-0.6c-0.3-0.8-0.8-1.6-1.4-2.3c-0.3-0.4-0.3-1.1,0.1-1.4c0.4-0.4,1.1-0.3,1.4,0.1c0.7,0.9,1.3,1.8,1.7,2.8
			c0.2,0.5,0,1.1-0.6,1.3C140.8,112.2,140.7,112.2,140.6,112.2z M124.7,108.4c-0.3,0-0.6-0.1-0.8-0.3c-0.4-0.4-0.3-1,0.1-1.4
			c0.8-0.7,1.8-1.3,2.8-1.8c0.5-0.2,1.1,0,1.3,0.5c0.2,0.5,0,1.1-0.5,1.3c-0.8,0.4-1.6,0.8-2.3,1.4
			C125.2,108.4,125,108.4,124.7,108.4z M135.1,106.7c-0.1,0-0.3,0-0.4-0.1c-0.8-0.3-1.7-0.5-2.6-0.6c-0.6,0-1-0.5-0.9-1.1
			c0-0.5,0.5-1,1.1-0.9c1.1,0.1,2.2,0.3,3.2,0.8c0.5,0.2,0.8,0.8,0.6,1.3C135.8,106.5,135.5,106.7,135.1,106.7z"/>
	</g>
	<g>
		<path class="st0" d="M140.3,116h-3c-0.6,0-1-0.4-1-1s0.4-1,1-1h3c0.6,0,1,0.4,1,1S140.8,116,140.3,116z M132.3,116h-3
			c-0.6,0-1-0.4-1-1s0.4-1,1-1h3c0.6,0,1,0.4,1,1S132.8,116,132.3,116z M124.3,116h-3c-0.6,0-1-0.4-1-1s0.4-1,1-1h3c0.6,0,1,0.4,1,1
			S124.8,116,124.3,116z"/>
	</g>
	<g>
		<path class="st0" d="M131.3,125c-0.6,0-1-0.4-1-1v-3c0-0.6,0.4-1,1-1s1,0.4,1,1v3C132.3,124.6,131.8,125,131.3,125z M131.3,117
			c-0.6,0-1-0.4-1-1v-3c0-0.6,0.4-1,1-1s1,0.4,1,1v3C132.3,116.6,131.8,117,131.3,117z M131.3,109c-0.6,0-1-0.4-1-1v-3
			c0-0.6,0.4-1,1-1s1,0.4,1,1v3C132.3,108.6,131.8,109,131.3,109z"/>
	</g>
</g>
<g>
	<g>
		<path class="st0" d="M131,96C131,96,131,96,131,96c-1.1,0-2.2-0.2-3.3-0.6c-0.5-0.2-0.8-0.7-0.6-1.3c0.2-0.5,0.7-0.8,1.3-0.6
			c0.9,0.3,1.7,0.4,2.6,0.5c0.6,0,1,0.5,1,1C132,95.6,131.5,96,131,96z M135.8,94.9c-0.4,0-0.7-0.2-0.9-0.5
			c-0.3-0.5-0.1-1.1,0.4-1.3c0.8-0.4,1.5-0.9,2.2-1.6c0.4-0.4,1-0.4,1.4,0c0.4,0.4,0.4,1,0,1.4c-0.8,0.8-1.7,1.4-2.7,1.9
			C136.1,94.9,136,94.9,135.8,94.9z M123.9,92.8c-0.3,0-0.5-0.1-0.7-0.3c-0.7-0.8-1.4-1.7-1.8-2.7c-0.2-0.5,0-1.1,0.5-1.3
			c0.5-0.2,1.1,0,1.3,0.5c0.4,0.8,0.9,1.6,1.5,2.2c0.4,0.4,0.3,1-0.1,1.4C124.4,92.7,124.2,92.8,123.9,92.8z M140.9,89
			c-0.1,0-0.2,0-0.3,0c-0.5-0.2-0.8-0.7-0.7-1.3c0.3-0.9,0.4-1.8,0.4-2.7c0-0.6,0.4-1,1-1s1,0.4,1,1c0,1.1-0.2,2.2-0.5,3.2
			C141.7,88.7,141.3,89,140.9,89z M121.3,85.4C121.3,85.4,121.3,85.4,121.3,85.4c-0.6,0-1-0.5-1-1.1c0.1-1.1,0.3-2.2,0.7-3.2
			c0.2-0.5,0.8-0.8,1.3-0.6c0.5,0.2,0.8,0.8,0.6,1.3c-0.3,0.8-0.5,1.7-0.6,2.6C122.3,85,121.8,85.4,121.3,85.4z M140.6,82.2
			c-0.4,0-0.8-0.2-0.9-0.6c-0.3-0.8-0.8-1.6-1.4-2.3c-0.4-0.4-0.3-1.1,0.1-1.4c0.4-0.4,1.1-0.3,1.4,0.1c0.7,0.9,1.3,1.8,1.7,2.8
			c0.2,0.5,0,1.1-0.6,1.3C140.8,82.2,140.7,82.2,140.6,82.2z M124.7,78.4c-0.3,0-0.6-0.1-0.8-0.3c-0.4-0.4-0.3-1,0.1-1.4
			c0.8-0.7,1.8-1.3,2.8-1.8c0.5-0.2,1.1,0,1.3,0.5c0.2,0.5,0,1.1-0.5,1.3c-0.8,0.4-1.6,0.8-2.3,1.4C125.2,78.4,125,78.4,124.7,78.4z
			 M135.1,76.7c-0.1,0-0.3,0-0.4-0.1c-0.8-0.3-1.7-0.5-2.6-0.6c-0.6,0-1-0.5-0.9-1.1s0.5-1,1.1-0.9c1.1,0.1,2.2,0.4,3.2,0.8
			c0.5,0.2,0.8,0.8,0.5,1.3C135.8,76.5,135.5,76.7,135.1,76.7z"/>
	</g>
	<g>
		<path class="st0" d="M140.3,86h-3c-0.6,0-1-0.4-1-1s0.4-1,1-1h3c0.6,0,1,0.4,1,1S140.8,86,140.3,86z M132.3,86h-3
			c-0.6,0-1-0.4-1-1s0.4-1,1-1h3c0.6,0,1,0.4,1,1S132.8,86,132.3,86z M124.3,86h-3c-0.6,0-1-0.4-1-1s0.4-1,1-1h3c0.6,0,1,0.4,1,1
			S124.8,86,124.3,86z"/>
	</g>
	<g>
		<path class="st0" d="M131.3,95c-0.6,0-1-0.4-1-1v-3c0-0.6,0.4-1,1-1s1,0.4,1,1v3C132.3,94.6,131.8,95,131.3,95z M131.3,87
			c-0.6,0-1-0.4-1-1v-3c0-0.6,0.4-1,1-1s1,0.4,1,1v3C132.3,86.6,131.8,87,131.3,87z M131.3,79c-0.6,0-1-0.4-1-1v-3c0-0.6,0.4-1,1-1
			s1,0.4,1,1v3C132.3,78.6,131.8,79,131.3,79z"/>
	</g>
</g>
<g>
	<path class="st0" d="M131.3,75v10h10C141.3,79.5,136.8,75,131.3,75z"/>
</g>
<g>
	<path class="st0" d="M141.3,115h-10v10C136.8,125,141.3,120.5,141.3,115z"/>
</g>
<g>
	<path class="st0" d="M131.3,105v10h10C141.3,109.5,136.8,105,131.3,105z"/>
</g>
</svg>
