<?xml version="1.0" encoding="utf-8"?>
<!-- Generator: Adobe Illustrator 21.1.0, SVG Export Plug-In . SVG Version: 6.00 Build 0)  -->
<svg version="1.1" id="Layer_1" xmlns="http://www.w3.org/2000/svg" xmlns:xlink="http://www.w3.org/1999/xlink" x="0px" y="0px"
	 viewBox="0 0 160 160" style="enable-background:new 0 0 160 160;" xml:space="preserve">
<style type="text/css">
	.st0{fill:#FFFFFF;}
</style>
<g>
	<path class="st0" d="M80,2c43,0,78,35,78,78s-35,78-78,78S2,123,2,80S37,2,80,2 M80,0C35.8,0,0,35.8,0,80s35.8,80,80,80
		s80-35.8,80-80S124.2,0,80,0L80,0z"/>
</g>
<g>
	<g>
		<path class="st0" d="M98.4,101H61.6c-0.5,0-1-0.4-1-1c-0.1-2.3-0.2-10,0.9-11.7c1-1.6,3.6-2.6,6.6-3.8c0.8-0.3,1.6-0.6,2.4-1
			c2.2-0.9,3.4-1.5,3.9-1.8l0-2.5c-0.5-0.6-1.3-1.7-1.7-3.9c-0.2-0.1-0.3-0.1-0.4-0.2c-0.9-0.6-1.5-1.9-1.5-2.7c0-0.1-0.1-2.4,1-3.4
			c0,0,0.1-0.1,0.1-0.1c-0.2-1.6-0.3-2.6-0.2-3.3C72,62.4,75.2,59,80,59c4.8,0,8,3.4,8.4,6.7c0.1,0.6,0,1.6-0.2,3.3
			c0,0,0.1,0.1,0.1,0.1c1.1,1,1,3.3,1,3.4c0,0.8-0.6,2.1-1.5,2.7c-0.1,0.1-0.3,0.2-0.4,0.2c-0.4,2.2-1.2,3.4-1.7,3.9l0,2.5
			c0.6,0.3,1.7,0.8,3.9,1.8c0.8,0.3,1.6,0.7,2.4,1c3,1.1,5.5,2.1,6.6,3.8l0,0c1.1,1.7,0.9,9.4,0.9,11.7C99.4,100.6,99,101,98.4,101z
			 M62.6,99h34.9c0.1-4.2-0.1-8.8-0.6-9.6l0.8-0.5l-0.8,0.5c-0.7-1.1-3.1-2-5.6-3c-0.8-0.3-1.6-0.6-2.5-1c-3.6-1.5-4.6-2.1-4.7-2.1
			c-0.3-0.2-0.5-0.5-0.5-0.8l0-3.5c0-0.3,0.1-0.6,0.4-0.8l0,0c0,0,1.1-0.9,1.4-3.7c0-0.3,0.2-0.5,0.4-0.7c0.2-0.1,0.5-0.2,0.7-0.1
			c0.2-0.2,0.6-0.8,0.7-1.2c0-0.6-0.1-1.4-0.2-1.7c-0.2,0-0.5-0.1-0.6-0.3c-0.2-0.2-0.4-0.5-0.3-0.9c0.1-0.8,0.4-2.8,0.3-3.6
			C86.1,63.5,83.7,61,80,61c-3.7,0-6.1,2.5-6.4,4.9c-0.1,0.8,0.1,2.4,0.3,3.6c0,0.3-0.1,0.6-0.3,0.9c-0.2,0.2-0.4,0.3-0.6,0.3
			c-0.1,0.3-0.3,1.1-0.2,1.7c0,0.4,0.4,1,0.7,1.2c0.2,0,0.5,0,0.7,0.1c0.2,0.2,0.4,0.4,0.4,0.7c0.4,2.8,1.4,3.7,1.4,3.7
			c0.2,0.2,0.4,0.5,0.4,0.8l0,3.5c0,0.3-0.2,0.7-0.5,0.8c-0.1,0.1-1,0.6-4.7,2.1c-0.8,0.3-1.7,0.7-2.5,1c-2.5,1-4.9,1.9-5.6,3
			C62.6,90.2,62.5,94.8,62.6,99z"/>
	</g>
</g>
<g>
	<g>
		<g>
			<path class="st0" d="M81,141C81,141,81,141,81,141c-1.1,0-2.2-0.2-3.3-0.6c-0.5-0.2-0.8-0.7-0.6-1.3c0.2-0.5,0.7-0.8,1.3-0.6
				c0.9,0.3,1.7,0.4,2.6,0.5c0.6,0,1,0.5,1,1C82,140.6,81.5,141,81,141z M85.8,139.9c-0.4,0-0.7-0.2-0.9-0.5
				c-0.3-0.5-0.1-1.1,0.4-1.3c0.8-0.4,1.5-0.9,2.2-1.6c0.4-0.4,1-0.4,1.4,0c0.4,0.4,0.4,1,0,1.4c-0.8,0.8-1.7,1.4-2.7,1.9
				C86.1,139.9,86,139.9,85.8,139.9z M73.9,137.8c-0.3,0-0.5-0.1-0.7-0.3c-0.7-0.8-1.4-1.7-1.8-2.7c-0.2-0.5,0-1.1,0.5-1.3
				c0.5-0.2,1.1,0,1.3,0.5c0.4,0.8,0.9,1.6,1.5,2.2c0.4,0.4,0.3,1-0.1,1.4C74.4,137.7,74.2,137.8,73.9,137.8z M90.9,134
				c-0.1,0-0.2,0-0.3,0c-0.5-0.2-0.8-0.7-0.7-1.3c0.3-0.9,0.4-1.8,0.4-2.7c0-0.6,0.4-1,1-1s1,0.4,1,1c0,1.1-0.2,2.2-0.5,3.2
				C91.7,133.7,91.3,134,90.9,134z M71.3,130.4C71.3,130.4,71.3,130.4,71.3,130.4c-0.6,0-1-0.5-1-1.1c0.1-1.1,0.3-2.2,0.7-3.2
				c0.2-0.5,0.8-0.8,1.3-0.6c0.5,0.2,0.8,0.8,0.6,1.3c-0.3,0.8-0.5,1.7-0.6,2.6C72.3,130,71.8,130.4,71.3,130.4z M90.6,127.2
				c-0.4,0-0.8-0.2-0.9-0.6c-0.3-0.8-0.8-1.6-1.4-2.3c-0.3-0.4-0.3-1.1,0.1-1.4c0.4-0.4,1.1-0.3,1.4,0.1c0.7,0.9,1.3,1.8,1.7,2.8
				c0.2,0.5,0,1.1-0.6,1.3C90.8,127.2,90.7,127.2,90.6,127.2z M74.7,123.4c-0.3,0-0.6-0.1-0.8-0.3c-0.4-0.4-0.3-1,0.1-1.4
				c0.8-0.7,1.8-1.3,2.8-1.8c0.5-0.2,1.1,0,1.3,0.5s0,1.1-0.5,1.3c-0.8,0.4-1.6,0.8-2.3,1.4C75.2,123.4,75,123.4,74.7,123.4z
				 M85.1,121.7c-0.1,0-0.3,0-0.4-0.1c-0.8-0.3-1.7-0.5-2.6-0.6c-0.6,0-1-0.5-0.9-1.1c0-0.5,0.5-1,1.1-0.9c1.1,0.1,2.2,0.3,3.2,0.8
				c0.5,0.2,0.8,0.8,0.6,1.3C85.8,121.5,85.5,121.7,85.1,121.7z"/>
		</g>
		<g>
			<path class="st0" d="M90.3,131h-3c-0.6,0-1-0.4-1-1s0.4-1,1-1h3c0.6,0,1,0.4,1,1S90.8,131,90.3,131z M82.3,131h-3
				c-0.6,0-1-0.4-1-1s0.4-1,1-1h3c0.6,0,1,0.4,1,1S82.8,131,82.3,131z M74.3,131h-3c-0.6,0-1-0.4-1-1s0.4-1,1-1h3c0.6,0,1,0.4,1,1
				S74.8,131,74.3,131z"/>
		</g>
		<g>
			<path class="st0" d="M81.3,140c-0.6,0-1-0.4-1-1v-3c0-0.6,0.4-1,1-1c0.6,0,1,0.4,1,1v3C82.3,139.6,81.8,140,81.3,140z M81.3,132
				c-0.6,0-1-0.4-1-1v-3c0-0.6,0.4-1,1-1c0.6,0,1,0.4,1,1v3C82.3,131.6,81.8,132,81.3,132z M81.3,124c-0.6,0-1-0.4-1-1v-3
				c0-0.6,0.4-1,1-1c0.6,0,1,0.4,1,1v3C82.3,123.6,81.8,124,81.3,124z"/>
		</g>
	</g>
	<g>
		<path class="st0" d="M91.3,130h-10v10C86.8,140,91.3,135.5,91.3,130z"/>
	</g>
	<g>
		<path class="st0" d="M81.3,120v10h10C91.3,124.5,86.8,120,81.3,120z"/>
	</g>
	<g>
		<path class="st0" d="M81.3,140v-10h-10C71.3,135.5,75.8,140,81.3,140z"/>
	</g>
</g>
<g>
	<g>
		<g>
			<path class="st0" d="M78.4,41C78.4,41,78.4,41,78.4,41c-1.1,0-2.2-0.2-3.3-0.6c-0.5-0.2-0.8-0.7-0.6-1.3s0.7-0.8,1.3-0.6
				c0.9,0.3,1.7,0.4,2.6,0.5c0.6,0,1,0.5,1,1C79.4,40.6,79,41,78.4,41z M83.2,39.9c-0.4,0-0.7-0.2-0.9-0.5c-0.3-0.5-0.1-1.1,0.4-1.3
				c0.8-0.4,1.5-0.9,2.2-1.6c0.4-0.4,1-0.4,1.4,0c0.4,0.4,0.4,1,0,1.4c-0.8,0.8-1.7,1.4-2.7,1.9C83.6,39.9,83.4,39.9,83.2,39.9z
				 M71.3,37.8c-0.3,0-0.5-0.1-0.7-0.3c-0.7-0.8-1.4-1.7-1.8-2.7c-0.2-0.5,0-1.1,0.5-1.3s1.1,0,1.3,0.5c0.4,0.8,0.9,1.6,1.5,2.2
				c0.4,0.4,0.3,1-0.1,1.4C71.8,37.7,71.6,37.8,71.3,37.8z M88.3,34c-0.1,0-0.2,0-0.3,0c-0.5-0.2-0.8-0.7-0.7-1.3
				c0.3-0.9,0.4-1.8,0.4-2.7c0-0.6,0.4-1,1-1s1,0.4,1,1c0,1.1-0.2,2.2-0.5,3.2C89.1,33.7,88.7,34,88.3,34z M68.7,30.4
				C68.7,30.4,68.7,30.4,68.7,30.4c-0.6,0-1-0.5-1-1.1c0.1-1.1,0.3-2.2,0.7-3.2c0.2-0.5,0.8-0.8,1.3-0.6c0.5,0.2,0.8,0.8,0.6,1.3
				c-0.3,0.8-0.5,1.7-0.6,2.6C69.7,30,69.2,30.4,68.7,30.4z M88,27.2c-0.4,0-0.8-0.2-0.9-0.6c-0.3-0.8-0.8-1.6-1.4-2.3
				c-0.4-0.4-0.3-1.1,0.1-1.4c0.4-0.4,1.1-0.3,1.4,0.1c0.7,0.9,1.3,1.8,1.7,2.8c0.2,0.5,0,1.1-0.6,1.3C88.2,27.2,88.1,27.2,88,27.2z
				 M72.2,23.4c-0.3,0-0.6-0.1-0.8-0.3c-0.4-0.4-0.3-1,0.1-1.4c0.8-0.7,1.8-1.3,2.8-1.8c0.5-0.2,1.1,0,1.3,0.5
				c0.2,0.5,0,1.1-0.5,1.3c-0.8,0.4-1.6,0.8-2.3,1.4C72.6,23.4,72.4,23.4,72.2,23.4z M82.5,21.7c-0.1,0-0.3,0-0.4-0.1
				c-0.8-0.3-1.7-0.5-2.6-0.6c-0.6,0-1-0.5-0.9-1.1c0-0.6,0.5-1,1.1-0.9c1.1,0.1,2.2,0.4,3.2,0.8c0.5,0.2,0.8,0.8,0.5,1.3
				C83.2,21.5,82.9,21.7,82.5,21.7z"/>
		</g>
		<g>
			<path class="st0" d="M87.7,31h-3c-0.6,0-1-0.4-1-1s0.4-1,1-1h3c0.6,0,1,0.4,1,1S88.3,31,87.7,31z M79.7,31h-3c-0.6,0-1-0.4-1-1
				s0.4-1,1-1h3c0.6,0,1,0.4,1,1S80.3,31,79.7,31z M71.7,31h-3c-0.6,0-1-0.4-1-1s0.4-1,1-1h3c0.6,0,1,0.4,1,1S72.3,31,71.7,31z"/>
		</g>
		<g>
			<path class="st0" d="M78.7,40c-0.6,0-1-0.4-1-1v-3c0-0.6,0.4-1,1-1s1,0.4,1,1v3C79.7,39.6,79.3,40,78.7,40z M78.7,32
				c-0.6,0-1-0.4-1-1v-3c0-0.6,0.4-1,1-1s1,0.4,1,1v3C79.7,31.6,79.3,32,78.7,32z M78.7,24c-0.6,0-1-0.4-1-1v-3c0-0.6,0.4-1,1-1
				s1,0.4,1,1v3C79.7,23.6,79.3,24,78.7,24z"/>
		</g>
	</g>
	<g>
		<path class="st0" d="M88.7,30h-10v10C84.2,40,88.7,35.5,88.7,30z"/>
	</g>
	<g>
		<path class="st0" d="M78.7,20v10h10C88.7,24.5,84.2,20,78.7,20z"/>
	</g>
</g>
<g>
	<g>
		<g>
			<path class="st0" d="M29.7,92.3C29.7,92.3,29.7,92.3,29.7,92.3c-1.1,0-2.2-0.2-3.3-0.6c-0.5-0.2-0.8-0.7-0.6-1.3
				c0.2-0.5,0.7-0.8,1.3-0.6c0.9,0.3,1.7,0.4,2.6,0.5c0.6,0,1,0.5,1,1C30.7,91.9,30.3,92.3,29.7,92.3z M34.5,91.2
				c-0.4,0-0.7-0.2-0.9-0.5c-0.3-0.5-0.1-1.1,0.4-1.3c0.8-0.4,1.5-0.9,2.2-1.6c0.4-0.4,1-0.4,1.4,0c0.4,0.4,0.4,1,0,1.4
				C36.9,90,36,90.6,35,91.1C34.8,91.2,34.7,91.2,34.5,91.2z M22.6,89.1c-0.3,0-0.5-0.1-0.7-0.3c-0.7-0.8-1.4-1.7-1.8-2.7
				c-0.2-0.5,0-1.1,0.5-1.3c0.5-0.2,1.1,0,1.3,0.5c0.4,0.8,0.9,1.6,1.5,2.2c0.4,0.4,0.3,1-0.1,1.4C23.1,89,22.9,89.1,22.6,89.1z
				 M39.6,85.2c-0.1,0-0.2,0-0.3,0c-0.5-0.2-0.8-0.7-0.7-1.3c0.3-0.9,0.4-1.8,0.4-2.7c0-0.6,0.4-1,1-1s1,0.4,1,1
				c0,1.1-0.2,2.2-0.5,3.2C40.4,85,40,85.2,39.6,85.2z M20,81.7C20,81.7,20,81.7,20,81.7c-0.6,0-1-0.5-1-1.1
				c0.1-1.1,0.3-2.2,0.7-3.2c0.2-0.5,0.8-0.8,1.3-0.6s0.8,0.8,0.6,1.3c-0.3,0.8-0.5,1.7-0.5,2.6C21,81.3,20.5,81.7,20,81.7z
				 M39.3,78.5c-0.4,0-0.8-0.2-0.9-0.6c-0.3-0.8-0.8-1.6-1.4-2.3c-0.3-0.4-0.3-1.1,0.1-1.4c0.4-0.3,1.1-0.3,1.4,0.1
				c0.7,0.9,1.3,1.8,1.7,2.8c0.2,0.5,0,1.1-0.5,1.3C39.5,78.5,39.4,78.5,39.3,78.5z M23.5,74.7c-0.3,0-0.6-0.1-0.8-0.3
				c-0.4-0.4-0.3-1,0.1-1.4c0.8-0.7,1.8-1.3,2.8-1.8c0.5-0.2,1.1,0,1.3,0.5c0.2,0.5,0,1.1-0.5,1.3c-0.8,0.4-1.6,0.8-2.3,1.4
				C23.9,74.7,23.7,74.7,23.5,74.7z M33.8,73c-0.1,0-0.3,0-0.4-0.1c-0.8-0.3-1.7-0.5-2.6-0.6c-0.6,0-1-0.5-0.9-1.1
				c0-0.6,0.5-1,1.1-0.9c1.1,0.1,2.2,0.4,3.2,0.8c0.5,0.2,0.8,0.8,0.6,1.3C34.5,72.8,34.2,73,33.8,73z"/>
		</g>
		<g>
			<path class="st0" d="M39,82.3h-3c-0.6,0-1-0.4-1-1c0-0.6,0.4-1,1-1h3c0.6,0,1,0.4,1,1C40,81.8,39.6,82.3,39,82.3z M31,82.3h-3
				c-0.6,0-1-0.4-1-1c0-0.6,0.4-1,1-1h3c0.6,0,1,0.4,1,1C32,81.8,31.6,82.3,31,82.3z M23,82.3h-3c-0.6,0-1-0.4-1-1c0-0.6,0.4-1,1-1
				h3c0.6,0,1,0.4,1,1C24,81.8,23.6,82.3,23,82.3z"/>
		</g>
		<g>
			<path class="st0" d="M30,91.3c-0.6,0-1-0.4-1-1v-3c0-0.6,0.4-1,1-1s1,0.4,1,1v3C31,90.8,30.6,91.3,30,91.3z M30,83.3
				c-0.6,0-1-0.4-1-1v-3c0-0.6,0.4-1,1-1s1,0.4,1,1v3C31,82.8,30.6,83.3,30,83.3z M30,75.3c-0.6,0-1-0.4-1-1v-3c0-0.6,0.4-1,1-1
				s1,0.4,1,1v3C31,74.8,30.6,75.3,30,75.3z"/>
		</g>
	</g>
	<g>
		<path class="st0" d="M40,81.3H30v10C35.5,91.3,40,86.8,40,81.3z"/>
	</g>
	<g>
		<path class="st0" d="M30,71.3v10h10C40,75.8,35.5,71.3,30,71.3z"/>
	</g>
	<g>
		<path class="st0" d="M30,91.3v-10H20C20,86.8,24.5,91.3,30,91.3z"/>
	</g>
</g>
<g>
	<g>
		<g>
			<path class="st0" d="M129.7,89.7C129.7,89.7,129.7,89.7,129.7,89.7c-1.1,0-2.2-0.2-3.3-0.6c-0.5-0.2-0.8-0.7-0.6-1.3
				c0.2-0.5,0.7-0.8,1.3-0.6c0.9,0.3,1.7,0.4,2.6,0.5c0.6,0,1,0.5,1,1C130.7,89.3,130.3,89.7,129.7,89.7z M134.5,88.6
				c-0.4,0-0.7-0.2-0.9-0.5c-0.3-0.5-0.1-1.1,0.4-1.3c0.8-0.4,1.5-0.9,2.2-1.6c0.4-0.4,1-0.4,1.4,0c0.4,0.4,0.4,1,0,1.4
				c-0.8,0.8-1.7,1.4-2.7,1.9C134.8,88.6,134.7,88.6,134.5,88.6z M122.6,86.5c-0.3,0-0.5-0.1-0.7-0.3c-0.7-0.8-1.4-1.7-1.8-2.7
				c-0.2-0.5,0-1.1,0.5-1.3c0.5-0.2,1.1,0,1.3,0.5c0.4,0.8,0.9,1.6,1.5,2.2c0.4,0.4,0.3,1-0.1,1.4C123.1,86.4,122.9,86.5,122.6,86.5
				z M139.6,82.7c-0.1,0-0.2,0-0.3,0c-0.5-0.2-0.8-0.7-0.7-1.3c0.3-0.9,0.4-1.8,0.4-2.7c0-0.6,0.4-1,1-1s1,0.4,1,1
				c0,1.1-0.2,2.2-0.5,3.2C140.4,82.4,140,82.7,139.6,82.7z M120,79.1C120,79.1,120,79.1,120,79.1c-0.6,0-1-0.5-1-1.1
				c0.1-1.1,0.3-2.2,0.7-3.2c0.2-0.5,0.8-0.8,1.3-0.6c0.5,0.2,0.8,0.8,0.6,1.3c-0.3,0.8-0.5,1.7-0.6,2.6
				C121,78.7,120.5,79.1,120,79.1z M139.3,75.9c-0.4,0-0.8-0.2-0.9-0.6c-0.3-0.8-0.8-1.6-1.4-2.3c-0.4-0.4-0.3-1.1,0.1-1.4
				c0.4-0.4,1.1-0.3,1.4,0.1c0.7,0.9,1.3,1.8,1.7,2.8c0.2,0.5,0,1.1-0.6,1.3C139.5,75.9,139.4,75.9,139.3,75.9z M123.5,72.1
				c-0.3,0-0.6-0.1-0.8-0.3c-0.4-0.4-0.3-1,0.1-1.4c0.8-0.7,1.8-1.3,2.8-1.8c0.5-0.2,1.1,0,1.3,0.5c0.2,0.5,0,1.1-0.5,1.3
				c-0.8,0.4-1.6,0.8-2.3,1.4C123.9,72.1,123.7,72.1,123.5,72.1z M133.8,70.4c-0.1,0-0.3,0-0.4-0.1c-0.8-0.3-1.7-0.5-2.6-0.6
				c-0.6,0-1-0.5-0.9-1.1c0-0.5,0.5-1,1.1-0.9c1.1,0.1,2.2,0.4,3.2,0.8c0.5,0.2,0.8,0.8,0.5,1.3C134.5,70.2,134.2,70.4,133.8,70.4z"
				/>
		</g>
		<g>
			<path class="st0" d="M139,79.7h-3c-0.6,0-1-0.4-1-1s0.4-1,1-1h3c0.6,0,1,0.4,1,1S139.6,79.7,139,79.7z M131,79.7h-3
				c-0.6,0-1-0.4-1-1s0.4-1,1-1h3c0.6,0,1,0.4,1,1S131.6,79.7,131,79.7z M123,79.7h-3c-0.6,0-1-0.4-1-1s0.4-1,1-1h3c0.6,0,1,0.4,1,1
				S123.6,79.7,123,79.7z"/>
		</g>
		<g>
			<path class="st0" d="M130,88.7c-0.6,0-1-0.4-1-1v-3c0-0.6,0.4-1,1-1s1,0.4,1,1v3C131,88.3,130.6,88.7,130,88.7z M130,80.7
				c-0.6,0-1-0.4-1-1v-3c0-0.6,0.4-1,1-1s1,0.4,1,1v3C131,80.3,130.6,80.7,130,80.7z M130,72.7c-0.6,0-1-0.4-1-1v-3c0-0.6,0.4-1,1-1
				s1,0.4,1,1v3C131,72.3,130.6,72.7,130,72.7z"/>
		</g>
	</g>
	<g>
		<path class="st0" d="M140,78.7h-10v10C135.5,88.7,140,84.2,140,78.7z"/>
	</g>
	<g>
		<path class="st0" d="M130,68.7v10h10C140,73.2,135.5,68.7,130,68.7z"/>
	</g>
</g>
<g>
	<g>
		<g>
			<path class="st0" d="M116,125.4C116,125.4,116,125.4,116,125.4c-1.1,0-2.2-0.2-3.3-0.6c-0.5-0.2-0.8-0.7-0.6-1.3
				c0.2-0.5,0.7-0.8,1.3-0.6c0.9,0.3,1.7,0.4,2.6,0.5c0.6,0,1,0.5,1,1C117,125,116.5,125.4,116,125.4z M120.8,124.4
				c-0.4,0-0.7-0.2-0.9-0.5c-0.3-0.5-0.1-1.1,0.4-1.3c0.8-0.4,1.5-0.9,2.2-1.6c0.4-0.4,1-0.4,1.4,0c0.4,0.4,0.4,1,0,1.4
				c-0.8,0.8-1.7,1.4-2.7,1.9C121.1,124.3,121,124.4,120.8,124.4z M108.9,122.2c-0.3,0-0.5-0.1-0.7-0.3c-0.7-0.8-1.4-1.7-1.8-2.7
				c-0.2-0.5,0-1.1,0.5-1.3c0.5-0.2,1.1,0,1.3,0.5c0.4,0.8,0.9,1.6,1.5,2.2c0.4,0.4,0.3,1-0.1,1.4
				C109.4,122.1,109.1,122.2,108.9,122.2z M125.8,118.4c-0.1,0-0.2,0-0.3,0c-0.5-0.2-0.8-0.7-0.7-1.3c0.3-0.9,0.4-1.8,0.4-2.7
				c0-0.6,0.4-1,1-1s1,0.4,1,1c0,1.1-0.2,2.2-0.5,3.2C126.7,118.1,126.3,118.4,125.8,118.4z M106.3,114.9
				C106.3,114.9,106.3,114.9,106.3,114.9c-0.6,0-1-0.5-1-1.1c0.1-1.1,0.3-2.2,0.7-3.2c0.2-0.5,0.8-0.8,1.3-0.6
				c0.5,0.2,0.8,0.8,0.6,1.3c-0.3,0.8-0.5,1.7-0.6,2.6C107.3,114.5,106.8,114.9,106.3,114.9z M125.5,111.7c-0.4,0-0.8-0.2-0.9-0.6
				c-0.3-0.8-0.8-1.6-1.4-2.3c-0.3-0.4-0.3-1.1,0.1-1.4c0.4-0.4,1.1-0.3,1.4,0.1c0.7,0.9,1.3,1.8,1.7,2.8c0.2,0.5,0,1.1-0.6,1.3
				C125.8,111.7,125.7,111.7,125.5,111.7z M109.7,107.9c-0.3,0-0.6-0.1-0.8-0.3c-0.4-0.4-0.3-1,0.1-1.4c0.8-0.7,1.8-1.3,2.8-1.8
				c0.5-0.2,1.1,0,1.3,0.5c0.2,0.5,0,1.1-0.5,1.3c-0.8,0.4-1.6,0.8-2.3,1.4C110.2,107.8,110,107.9,109.7,107.9z M120,106.2
				c-0.1,0-0.3,0-0.4-0.1c-0.8-0.3-1.7-0.5-2.6-0.6c-0.6,0-1-0.5-0.9-1.1c0-0.5,0.5-1,1.1-0.9c1.1,0.1,2.2,0.3,3.2,0.8
				c0.5,0.2,0.8,0.8,0.6,1.3C120.8,105.9,120.4,106.2,120,106.2z"/>
		</g>
		<g>
			<path class="st0" d="M125.3,115.4h-3c-0.6,0-1-0.4-1-1s0.4-1,1-1h3c0.6,0,1,0.4,1,1S125.8,115.4,125.3,115.4z M117.3,115.4h-3
				c-0.6,0-1-0.4-1-1s0.4-1,1-1h3c0.6,0,1,0.4,1,1S117.8,115.4,117.3,115.4z M109.3,115.4h-3c-0.6,0-1-0.4-1-1s0.4-1,1-1h3
				c0.6,0,1,0.4,1,1S109.8,115.4,109.3,115.4z"/>
		</g>
		<g>
			<path class="st0" d="M116.3,124.4c-0.6,0-1-0.4-1-1v-3c0-0.6,0.4-1,1-1s1,0.4,1,1v3C117.3,124,116.8,124.4,116.3,124.4z
				 M116.3,116.4c-0.6,0-1-0.4-1-1v-3c0-0.6,0.4-1,1-1s1,0.4,1,1v3C117.3,116,116.8,116.4,116.3,116.4z M116.3,108.4
				c-0.6,0-1-0.4-1-1v-3c0-0.6,0.4-1,1-1s1,0.4,1,1v3C117.3,108,116.8,108.4,116.3,108.4z"/>
		</g>
	</g>
	<g>
		<path class="st0" d="M126.3,114.4h-10v10C121.8,124.4,126.3,120,126.3,114.4z"/>
	</g>
	<g>
		<path class="st0" d="M116.3,104.4v10h10C126.3,108.9,121.8,104.4,116.3,104.4z"/>
	</g>
	<g>
		<path class="st0" d="M106.3,114.4h10v-10C110.7,104.4,106.3,108.9,106.3,114.4z"/>
	</g>
	<g>
		<path class="st0" d="M116.3,124.4v-10h-10C106.3,120,110.7,124.4,116.3,124.4z"/>
	</g>
</g>
<g>
	<g>
		<g>
			<path class="st0" d="M43.4,56.6C43.4,56.6,43.4,56.6,43.4,56.6c-1.1,0-2.2-0.2-3.3-0.6c-0.5-0.2-0.8-0.7-0.6-1.3
				c0.2-0.5,0.7-0.8,1.3-0.6c0.9,0.3,1.7,0.4,2.6,0.5c0.6,0,1,0.5,1,1C44.4,56.1,44,56.6,43.4,56.6z M48.3,55.5
				c-0.4,0-0.7-0.2-0.9-0.5c-0.3-0.5-0.1-1.1,0.4-1.3c0.8-0.4,1.5-0.9,2.2-1.6c0.4-0.4,1-0.4,1.4,0c0.4,0.4,0.4,1,0,1.4
				c-0.8,0.8-1.7,1.4-2.7,1.9C48.6,55.4,48.4,55.5,48.3,55.5z M36.4,53.3c-0.3,0-0.5-0.1-0.7-0.3c-0.7-0.8-1.4-1.7-1.8-2.7
				c-0.2-0.5,0-1.1,0.5-1.3c0.5-0.2,1.1,0,1.3,0.5c0.4,0.8,0.9,1.6,1.5,2.2c0.4,0.4,0.3,1-0.1,1.4C36.8,53.2,36.6,53.3,36.4,53.3z
				 M53.3,49.5c-0.1,0-0.2,0-0.3,0c-0.5-0.2-0.8-0.7-0.7-1.3c0.3-0.9,0.4-1.8,0.4-2.7c0-0.6,0.4-1,1-1s1,0.4,1,1
				c0,1.1-0.2,2.2-0.5,3.3C54.1,49.2,53.7,49.5,53.3,49.5z M33.7,46C33.7,46,33.7,46,33.7,46c-0.6,0-1-0.5-1-1.1
				c0.1-1.1,0.3-2.2,0.7-3.2c0.2-0.5,0.8-0.8,1.3-0.6c0.5,0.2,0.8,0.8,0.6,1.3c-0.3,0.8-0.5,1.7-0.6,2.6C34.7,45.6,34.3,46,33.7,46z
				 M53,42.8c-0.4,0-0.8-0.2-0.9-0.6c-0.3-0.8-0.8-1.6-1.4-2.3c-0.3-0.4-0.3-1.1,0.1-1.4c0.4-0.3,1.1-0.3,1.4,0.1
				c0.7,0.9,1.3,1.8,1.7,2.8c0.2,0.5,0,1.1-0.5,1.3C53.3,42.8,53.1,42.8,53,42.8z M37.2,39c-0.3,0-0.6-0.1-0.8-0.3
				c-0.4-0.4-0.3-1,0.1-1.4c0.8-0.7,1.8-1.3,2.8-1.8c0.5-0.2,1.1,0,1.3,0.5c0.2,0.5,0,1.1-0.5,1.3c-0.8,0.4-1.6,0.8-2.3,1.4
				C37.6,38.9,37.4,39,37.2,39z M47.5,37.3c-0.1,0-0.3,0-0.4-0.1c-0.8-0.3-1.7-0.5-2.6-0.6c-0.6,0-1-0.5-0.9-1.1
				c0-0.6,0.5-1,1.1-0.9c1.1,0.1,2.2,0.4,3.2,0.8c0.5,0.2,0.8,0.8,0.5,1.3C48.3,37.1,47.9,37.3,47.5,37.3z"/>
		</g>
		<g>
			<path class="st0" d="M52.7,46.6h-3c-0.6,0-1-0.4-1-1s0.4-1,1-1h3c0.6,0,1,0.4,1,1S53.3,46.6,52.7,46.6z M44.7,46.6h-3
				c-0.6,0-1-0.4-1-1s0.4-1,1-1h3c0.6,0,1,0.4,1,1S45.3,46.6,44.7,46.6z M36.7,46.6h-3c-0.6,0-1-0.4-1-1s0.4-1,1-1h3
				c0.6,0,1,0.4,1,1S37.3,46.6,36.7,46.6z"/>
		</g>
		<g>
			<path class="st0" d="M43.7,55.6c-0.6,0-1-0.4-1-1v-3c0-0.6,0.4-1,1-1s1,0.4,1,1v3C44.7,55.1,44.3,55.6,43.7,55.6z M43.7,47.6
				c-0.6,0-1-0.4-1-1v-3c0-0.6,0.4-1,1-1s1,0.4,1,1v3C44.7,47.1,44.3,47.6,43.7,47.6z M43.7,39.6c-0.6,0-1-0.4-1-1v-3
				c0-0.6,0.4-1,1-1s1,0.4,1,1v3C44.7,39.1,44.3,39.6,43.7,39.6z"/>
		</g>
	</g>
	<g>
		<path class="st0" d="M53.7,45.6h-10v10C49.3,55.6,53.7,51.1,53.7,45.6z"/>
	</g>
	<g>
		<path class="st0" d="M43.7,35.6v10h10C53.7,40,49.3,35.6,43.7,35.6z"/>
	</g>
	<g>
		<path class="st0" d="M43.7,55.6v-10h-10C33.7,51.1,38.2,55.6,43.7,55.6z"/>
	</g>
	<g>
		<path class="st0" d="M33.7,45.6h10v-10C38.2,35.6,33.7,40,33.7,45.6z"/>
	</g>
</g>
<g>
	<g>
		<g>
			<path class="st0" d="M45.3,127.3C45.3,127.3,45.3,127.3,45.3,127.3c-1.1,0-2.2-0.2-3.3-0.6c-0.5-0.2-0.8-0.7-0.6-1.3
				s0.7-0.8,1.3-0.6c0.9,0.3,1.7,0.4,2.6,0.5c0.6,0,1,0.5,1,1C46.3,126.8,45.8,127.3,45.3,127.3z M50.1,126.2
				c-0.4,0-0.7-0.2-0.9-0.5c-0.3-0.5-0.1-1.1,0.4-1.3c0.8-0.4,1.5-0.9,2.2-1.6c0.4-0.4,1-0.4,1.4,0c0.4,0.4,0.4,1,0,1.4
				c-0.8,0.8-1.7,1.4-2.7,1.9C50.4,126.1,50.3,126.2,50.1,126.2z M38.2,124c-0.3,0-0.5-0.1-0.7-0.3c-0.7-0.8-1.4-1.7-1.8-2.7
				c-0.2-0.5,0-1.1,0.5-1.3c0.5-0.2,1.1,0,1.3,0.5c0.4,0.8,0.9,1.6,1.5,2.2c0.4,0.4,0.3,1-0.1,1.4C38.7,123.9,38.4,124,38.2,124z
				 M55.1,120.2c-0.1,0-0.2,0-0.3,0c-0.5-0.2-0.8-0.7-0.7-1.3c0.3-0.9,0.4-1.8,0.4-2.7c0-0.6,0.4-1,1-1s1,0.4,1,1
				c0,1.1-0.2,2.2-0.5,3.2C55.9,120,55.5,120.2,55.1,120.2z M35.6,116.7C35.6,116.7,35.5,116.7,35.6,116.7c-0.6,0-1-0.5-1-1.1
				c0.1-1.1,0.3-2.2,0.7-3.2c0.2-0.5,0.8-0.8,1.3-0.6c0.5,0.2,0.8,0.8,0.6,1.3c-0.3,0.8-0.5,1.7-0.6,2.6
				C36.5,116.3,36.1,116.7,35.6,116.7z M54.8,113.5c-0.4,0-0.8-0.2-0.9-0.6c-0.3-0.8-0.8-1.6-1.4-2.3c-0.4-0.4-0.3-1.1,0.1-1.4
				c0.4-0.3,1.1-0.3,1.4,0.1c0.7,0.9,1.3,1.8,1.7,2.8c0.2,0.5,0,1.1-0.5,1.3C55.1,113.5,55,113.5,54.8,113.5z M39,109.7
				c-0.3,0-0.6-0.1-0.8-0.3c-0.4-0.4-0.3-1,0.1-1.4c0.8-0.7,1.8-1.3,2.8-1.8c0.5-0.2,1.1,0,1.3,0.5c0.2,0.5,0,1.1-0.5,1.3
				c-0.8,0.4-1.6,0.8-2.3,1.4C39.5,109.6,39.2,109.7,39,109.7z M49.3,108c-0.1,0-0.3,0-0.4-0.1c-0.8-0.3-1.7-0.5-2.6-0.6
				c-0.6,0-1-0.5-0.9-1.1c0-0.5,0.5-1,1.1-0.9c1.1,0.1,2.2,0.3,3.2,0.8c0.5,0.2,0.8,0.8,0.6,1.3C50.1,107.8,49.7,108,49.3,108z"/>
		</g>
		<g>
			<path class="st0" d="M54.6,117.3h-3c-0.6,0-1-0.4-1-1s0.4-1,1-1h3c0.6,0,1,0.4,1,1S55.1,117.3,54.6,117.3z M46.6,117.3h-3
				c-0.6,0-1-0.4-1-1s0.4-1,1-1h3c0.6,0,1,0.4,1,1S47.1,117.3,46.6,117.3z M38.6,117.3h-3c-0.6,0-1-0.4-1-1s0.4-1,1-1h3
				c0.6,0,1,0.4,1,1S39.1,117.3,38.6,117.3z"/>
		</g>
		<g>
			<path class="st0" d="M45.6,126.3c-0.6,0-1-0.4-1-1v-3c0-0.6,0.4-1,1-1s1,0.4,1,1v3C46.6,125.8,46.1,126.3,45.6,126.3z
				 M45.6,118.3c-0.6,0-1-0.4-1-1v-3c0-0.6,0.4-1,1-1s1,0.4,1,1v3C46.6,117.8,46.1,118.3,45.6,118.3z M45.6,110.3c-0.6,0-1-0.4-1-1
				v-3c0-0.6,0.4-1,1-1s1,0.4,1,1v3C46.6,109.8,46.1,110.3,45.6,110.3z"/>
		</g>
	</g>
	<g>
		<path class="st0" d="M45.6,106.3v10h10C55.6,110.7,51.1,106.3,45.6,106.3z"/>
	</g>
</g>
<g>
	<g>
		<g>
			<path class="st0" d="M114.2,54.7C114.1,54.7,114.1,54.7,114.2,54.7c-1.1,0-2.2-0.2-3.3-0.6c-0.5-0.2-0.8-0.7-0.6-1.3
				c0.2-0.5,0.7-0.8,1.3-0.6c0.9,0.3,1.7,0.4,2.6,0.5c0.6,0,1,0.5,1,1C115.1,54.3,114.7,54.7,114.2,54.7z M119,53.6
				c-0.4,0-0.7-0.2-0.9-0.5c-0.3-0.5-0.1-1.1,0.4-1.3c0.8-0.4,1.5-0.9,2.2-1.6c0.4-0.4,1-0.4,1.4,0c0.4,0.4,0.4,1,0,1.4
				c-0.8,0.8-1.7,1.4-2.7,1.9C119.3,53.6,119.1,53.6,119,53.6z M107.1,51.5c-0.3,0-0.5-0.1-0.7-0.3c-0.7-0.8-1.4-1.7-1.8-2.7
				c-0.2-0.5,0-1.1,0.5-1.3c0.5-0.2,1.1,0,1.3,0.5c0.4,0.8,0.9,1.6,1.5,2.2c0.4,0.4,0.3,1-0.1,1.4C107.6,51.4,107.3,51.5,107.1,51.5
				z M124,47.7c-0.1,0-0.2,0-0.3,0c-0.5-0.2-0.8-0.7-0.7-1.3c0.3-0.9,0.4-1.8,0.4-2.7c0-0.6,0.4-1,1-1s1,0.4,1,1
				c0,1.1-0.2,2.2-0.5,3.2C124.8,47.4,124.4,47.7,124,47.7z M104.5,44.2C104.4,44.2,104.4,44.2,104.5,44.2c-0.6,0-1-0.5-1-1.1
				c0.1-1.1,0.3-2.2,0.7-3.2c0.2-0.5,0.8-0.8,1.3-0.6c0.5,0.2,0.8,0.8,0.6,1.3c-0.3,0.8-0.5,1.7-0.6,2.6
				C105.4,43.7,105,44.2,104.5,44.2z M123.7,41c-0.4,0-0.8-0.2-0.9-0.6c-0.3-0.8-0.8-1.6-1.4-2.3c-0.4-0.4-0.3-1.1,0.1-1.4
				c0.4-0.4,1.1-0.3,1.4,0.1c0.7,0.9,1.3,1.8,1.7,2.8c0.2,0.5,0,1.1-0.6,1.3C124,40.9,123.8,41,123.7,41z M107.9,37.2
				c-0.3,0-0.6-0.1-0.8-0.3c-0.4-0.4-0.3-1,0.1-1.4c0.8-0.7,1.8-1.3,2.8-1.8c0.5-0.2,1.1,0,1.3,0.5c0.2,0.5,0,1.1-0.5,1.3
				c-0.8,0.4-1.6,0.8-2.3,1.4C108.4,37.1,108.1,37.2,107.9,37.2z M118.2,35.5c-0.1,0-0.3,0-0.4-0.1c-0.8-0.3-1.7-0.5-2.6-0.6
				c-0.6,0-1-0.5-0.9-1.1c0-0.5,0.5-1,1.1-0.9c1.1,0.1,2.2,0.4,3.2,0.8c0.5,0.2,0.8,0.8,0.5,1.3C119,35.2,118.6,35.5,118.2,35.5z"/>
		</g>
		<g>
			<path class="st0" d="M123.4,44.7h-3c-0.6,0-1-0.4-1-1s0.4-1,1-1h3c0.6,0,1,0.4,1,1S124,44.7,123.4,44.7z M115.4,44.7h-3
				c-0.6,0-1-0.4-1-1s0.4-1,1-1h3c0.6,0,1,0.4,1,1S116,44.7,115.4,44.7z M107.4,44.7h-3c-0.6,0-1-0.4-1-1s0.4-1,1-1h3
				c0.6,0,1,0.4,1,1S108,44.7,107.4,44.7z"/>
		</g>
		<g>
			<path class="st0" d="M114.4,53.7c-0.6,0-1-0.4-1-1v-3c0-0.6,0.4-1,1-1s1,0.4,1,1v3C115.4,53.3,115,53.7,114.4,53.7z M114.4,45.7
				c-0.6,0-1-0.4-1-1v-3c0-0.6,0.4-1,1-1s1,0.4,1,1v3C115.4,45.3,115,45.7,114.4,45.7z M114.4,37.7c-0.6,0-1-0.4-1-1v-3
				c0-0.6,0.4-1,1-1s1,0.4,1,1v3C115.4,37.3,115,37.7,114.4,37.7z"/>
		</g>
	</g>
	<g>
		<path class="st0" d="M124.4,43.7h-10v10C120,53.7,124.4,49.3,124.4,43.7z"/>
	</g>
	<g>
		<path class="st0" d="M114.4,33.7v10h10C124.4,38.2,120,33.7,114.4,33.7z"/>
	</g>
	<g>
		<path class="st0" d="M114.4,53.7v-10h-10C104.4,49.3,108.9,53.7,114.4,53.7z"/>
	</g>
	<g>
		<path class="st0" d="M104.4,43.7h10v-10C108.9,33.7,104.4,38.2,104.4,43.7z"/>
	</g>
</g>
</svg>
