<?xml version="1.0" encoding="utf-8"?>
<!-- Generator: Adobe Illustrator 21.1.0, SVG Export Plug-In . SVG Version: 6.00 Build 0)  -->
<svg version="1.1" id="Layer_1" xmlns="http://www.w3.org/2000/svg" xmlns:xlink="http://www.w3.org/1999/xlink" x="0px" y="0px"
	 viewBox="0 0 160 160" style="enable-background:new 0 0 160 160;" xml:space="preserve">
<style type="text/css">
	.st0{fill:#FFFFFF;}
</style>
<g>
	<path class="st0" d="M80,2c43,0,78,35,78,78s-35,78-78,78S2,123,2,80S37,2,80,2 M80,0C35.8,0,0,35.8,0,80s35.8,80,80,80
		s80-35.8,80-80S124.2,0,80,0L80,0z"/>
</g>
<g>
	<g>
		<path class="st0" d="M42.4,126c-0.6,0-1-0.4-1-1V35c0-0.6,0.4-1,1-1s1,0.4,1,1v90C43.4,125.6,43,126,42.4,126z"/>
	</g>
</g>
<g>
	<g>
		<path class="st0" d="M129.7,115.1H31.5c-0.6,0-1-0.4-1-1s0.4-1,1-1h98.2c0.6,0,1,0.4,1,1S130.3,115.1,129.7,115.1z"/>
	</g>
</g>
<g>
	<path class="st0" d="M99.4,115h-12c-0.6,0-1-0.4-1-1V84c0-0.6,0.4-1,1-1h12c0.6,0,1,0.4,1,1v30C100.4,114.6,100,115,99.4,115z
		 M88.4,113h10V85h-10V113z"/>
</g>
<g>
	<path class="st0" d="M80.4,115h-12c-0.6,0-1-0.4-1-1V84c0-0.6,0.4-1,1-1h12c0.6,0,1,0.4,1,1v30C81.4,114.6,81,115,80.4,115z
		 M69.4,113h10V85h-10V113z"/>
</g>
<g>
	<path class="st0" d="M61.4,115h-12c-0.6,0-1-0.4-1-1V99c0-0.6,0.4-1,1-1h12c0.6,0,1,0.4,1,1v15C62.4,114.6,62,115,61.4,115z
		 M50.4,113h10v-13h-10V113z"/>
</g>
<g>
	<path class="st0" d="M118.4,115h-12c-0.6,0-1-0.4-1-1V99c0-0.6,0.4-1,1-1h12c0.6,0,1,0.4,1,1v15C119.4,114.6,119,115,118.4,115z
		 M107.4,113h10v-13h-10V113z"/>
</g>
<g>
	<g>
		<g>
			<path class="st0" d="M106.4,95c-0.6,0-1-0.4-1-1v-3c0-0.6,0.4-1,1-1s1,0.4,1,1v3C107.4,94.6,107,95,106.4,95z"/>
		</g>
		<g>
			<path class="st0" d="M106.4,85.7c-0.6,0-1-0.4-1-1v-6.3c0-0.6,0.4-1,1-1s1,0.4,1,1v6.3C107.4,85.2,107,85.7,106.4,85.7z"/>
		</g>
		<g>
			<path class="st0" d="M106.4,73c-0.6,0-1-0.4-1-1v-3c0-0.6,0.4-1,1-1h3c0.6,0,1,0.4,1,1s-0.4,1-1,1h-2v2
				C107.4,72.6,107,73,106.4,73z"/>
		</g>
		<g>
			<path class="st0" d="M118.4,73c-0.6,0-1-0.4-1-1v-2h-2c-0.6,0-1-0.4-1-1s0.4-1,1-1h3c0.6,0,1,0.4,1,1v3
				C119.4,72.6,119,73,118.4,73z"/>
		</g>
		<g>
			<path class="st0" d="M118.4,85.7c-0.6,0-1-0.4-1-1v-6.3c0-0.6,0.4-1,1-1s1,0.4,1,1v6.3C119.4,85.2,119,85.7,118.4,85.7z"/>
		</g>
		<g>
			<path class="st0" d="M118.4,95c-0.6,0-1-0.4-1-1v-3c0-0.6,0.4-1,1-1s1,0.4,1,1v3C119.4,94.6,119,95,118.4,95z"/>
		</g>
	</g>
</g>
<g>
	<g>
		<path class="st0" d="M87.4,80c-0.6,0-1-0.4-1-1v-3c0-0.6,0.4-1,1-1s1,0.4,1,1v3C88.4,79.6,88,80,87.4,80z"/>
	</g>
	<g>
		<path class="st0" d="M87.4,70.7c-0.6,0-1-0.4-1-1v-6.3c0-0.6,0.4-1,1-1s1,0.4,1,1v6.3C88.4,70.2,88,70.7,87.4,70.7z"/>
	</g>
	<g>
		<path class="st0" d="M87.4,58c-0.6,0-1-0.4-1-1v-3c0-0.6,0.4-1,1-1h3c0.6,0,1,0.4,1,1s-0.4,1-1,1h-2v2C88.4,57.6,88,58,87.4,58z"
			/>
	</g>
	<g>
		<path class="st0" d="M99.4,58c-0.6,0-1-0.4-1-1v-2h-2c-0.6,0-1-0.4-1-1s0.4-1,1-1h3c0.6,0,1,0.4,1,1v3C100.4,57.6,100,58,99.4,58z
			"/>
	</g>
	<g>
		<path class="st0" d="M99.4,70.7c-0.6,0-1-0.4-1-1v-6.3c0-0.6,0.4-1,1-1s1,0.4,1,1v6.3C100.4,70.2,100,70.7,99.4,70.7z"/>
	</g>
	<g>
		<path class="st0" d="M99.4,80c-0.6,0-1-0.4-1-1v-3c0-0.6,0.4-1,1-1s1,0.4,1,1v3C100.4,79.6,100,80,99.4,80z"/>
	</g>
</g>
<g>
	<g>
		<path class="st0" d="M68.4,80c-0.6,0-1-0.4-1-1v-3c0-0.6,0.4-1,1-1s1,0.4,1,1v3C69.4,79.6,69,80,68.4,80z"/>
	</g>
	<g>
		<path class="st0" d="M68.4,73c-0.6,0-1-0.4-1-1v-3c0-0.6,0.4-1,1-1h3c0.6,0,1,0.4,1,1s-0.4,1-1,1h-2v2C69.4,72.6,69,73,68.4,73z"
			/>
	</g>
	<g>
		<path class="st0" d="M80.4,73c-0.6,0-1-0.4-1-1v-2h-2c-0.6,0-1-0.4-1-1s0.4-1,1-1h3c0.6,0,1,0.4,1,1v3C81.4,72.6,81,73,80.4,73z"
			/>
	</g>
	<g>
		<path class="st0" d="M80.4,80c-0.6,0-1-0.4-1-1v-3c0-0.6,0.4-1,1-1s1,0.4,1,1v3C81.4,79.6,81,80,80.4,80z"/>
	</g>
</g>
<g>
	<g>
		<path class="st0" d="M49.4,95c-0.6,0-1-0.4-1-1v-3c0-0.6,0.4-1,1-1s1,0.4,1,1v3C50.4,94.6,50,95,49.4,95z"/>
	</g>
	<g>
		<path class="st0" d="M49.4,85.2c-0.6,0-1-0.4-1-1v-6.8c0-0.6,0.4-1,1-1s1,0.4,1,1v6.8C50.4,84.8,50,85.2,49.4,85.2z M49.4,71.6
			c-0.6,0-1-0.4-1-1v-6.8c0-0.6,0.4-1,1-1s1,0.4,1,1v6.8C50.4,71.2,50,71.6,49.4,71.6z"/>
	</g>
	<g>
		<path class="st0" d="M49.4,58c-0.6,0-1-0.4-1-1v-3c0-0.6,0.4-1,1-1h3c0.6,0,1,0.4,1,1s-0.4,1-1,1h-2v2C50.4,57.6,50,58,49.4,58z"
			/>
	</g>
	<g>
		<path class="st0" d="M61.4,58c-0.6,0-1-0.4-1-1v-2h-2c-0.6,0-1-0.4-1-1s0.4-1,1-1h3c0.6,0,1,0.4,1,1v3C62.4,57.6,62,58,61.4,58z"
			/>
	</g>
	<g>
		<path class="st0" d="M61.4,85.2c-0.6,0-1-0.4-1-1v-6.8c0-0.6,0.4-1,1-1s1,0.4,1,1v6.8C62.4,84.8,62,85.2,61.4,85.2z M61.4,71.6
			c-0.6,0-1-0.4-1-1v-6.8c0-0.6,0.4-1,1-1s1,0.4,1,1v6.8C62.4,71.2,62,71.6,61.4,71.6z"/>
	</g>
	<g>
		<path class="st0" d="M61.4,95c-0.6,0-1-0.4-1-1v-3c0-0.6,0.4-1,1-1s1,0.4,1,1v3C62.4,94.6,62,95,61.4,95z"/>
	</g>
</g>
</svg>
