<?xml version="1.0" encoding="utf-8"?>
<!-- Generator: Adobe Illustrator 21.1.0, SVG Export Plug-In . SVG Version: 6.00 Build 0)  -->
<svg version="1.1" id="Layer_1" xmlns="http://www.w3.org/2000/svg" xmlns:xlink="http://www.w3.org/1999/xlink" x="0px" y="0px"
	 viewBox="0 0 160 160" style="enable-background:new 0 0 160 160;" xml:space="preserve">
<style type="text/css">
	.st0{fill:#FFFFFF;}
</style>
<g>
	<path class="st0" d="M80,2c43,0,78,35,78,78s-35,78-78,78S2,123,2,80S37,2,80,2 M80,0C35.8,0,0,35.8,0,80s35.8,80,80,80
		s80-35.8,80-80S124.2,0,80,0L80,0z"/>
</g>
<g>
	<g>
		<path class="st0" d="M80,104.2c-13.4,0-24.2-10.9-24.2-24.2c0-13.4,10.9-24.2,24.2-24.2c13.4,0,24.2,10.9,24.2,24.2
			C104.2,93.4,93.4,104.2,80,104.2z M80,57.8c-12.2,0-22.2,10-22.2,22.2s10,22.2,22.2,22.2s22.2-10,22.2-22.2S92.2,57.8,80,57.8z"/>
	</g>
	<g>
		<path class="st0" d="M80,88.1c-4.5,0-8.1-3.7-8.1-8.1s3.7-8.1,8.1-8.1s8.1,3.7,8.1,8.1S84.5,88.1,80,88.1z M80,73.9
			c-3.4,0-6.1,2.8-6.1,6.1c0,3.4,2.8,6.1,6.1,6.1c3.4,0,6.1-2.8,6.1-6.1C86.1,76.6,83.4,73.9,80,73.9z"/>
	</g>
	<g>
		<path class="st0" d="M105.6,100.4c-0.4,0-0.8-0.3-1-0.7c-0.2-0.5,0.1-1.1,0.6-1.3C120.1,93.7,129,85.3,129,80
			c0-7.6-19.1-22.2-49-22.2S31,72.4,31,80c0,5.3,8.9,13.7,23.7,18.5c0.5,0.2,0.8,0.7,0.6,1.3c-0.2,0.5-0.7,0.8-1.3,0.6
			C37.8,95.1,29,85.9,29,80c0-4.8,5.4-10.9,13.9-15.6C53,58.9,66.1,55.8,80,55.8c13.9,0,27,3.1,37.1,8.7C125.5,69.1,131,75.2,131,80
			c0,5.9-8.8,15.1-25.1,20.4C105.8,100.4,105.7,100.4,105.6,100.4z"/>
	</g>
</g>
</svg>
