<?xml version="1.0" encoding="utf-8"?>
<!-- Generator: Adobe Illustrator 21.1.0, SVG Export Plug-In . SVG Version: 6.00 Build 0)  -->
<svg version="1.1" xmlns="http://www.w3.org/2000/svg" xmlns:xlink="http://www.w3.org/1999/xlink" x="0px" y="0px"
	 viewBox="0 0 160 160" style="enable-background:new 0 0 160 160;" xml:space="preserve">
<style type="text/css">
	.st0{fill:#FFFFFF;}
	.st1{fill:none;}
</style>
<g id="circle">
	<path class="st0" d="M80,2c43,0,78,35,78,78s-35,78-78,78S2,123,2,80S37,2,80,2 M80,0C35.8,0,0,35.8,0,80s35.8,80,80,80
		s80-35.8,80-80S124.2,0,80,0L80,0z"/>
</g>
<g id="_x31_">
	<g>
		<path class="st0" d="M53.7,139.6c0-1,0.3-1.9,1-2.8c0.6-0.9,1.5-1.7,2.5-2.4c-1.6-0.9-2.4-2.1-2.4-3.6c0-0.8,0.3-1.6,0.8-2.3
			c0.5-0.7,1.2-1.2,2.1-1.5c0.9-0.3,1.8-0.5,2.7-0.5c1,0,1.9,0.2,2.7,0.5s1.5,0.8,2.1,1.5s0.8,1.4,0.8,2.3c0,1.5-1,3.1-3,4.7
			c1.2,0.5,2.2,1.1,2.8,1.8c0.7,0.7,1,1.5,1,2.5c0,1.4-0.6,2.6-1.9,3.6c-1.3,1-2.8,1.5-4.7,1.5c-1.2,0-2.3-0.2-3.3-0.7
			s-1.8-1.1-2.4-1.9C54,141.5,53.7,140.6,53.7,139.6z M55,139.5c0,1.2,0.5,2.2,1.5,3s2.3,1.2,3.8,1.2c1.5,0,2.7-0.4,3.7-1.1
			c1-0.7,1.5-1.6,1.5-2.7c0-0.3-0.1-0.6-0.2-0.9s-0.3-0.6-0.5-0.8c-0.2-0.3-0.5-0.5-0.7-0.7c-0.2-0.2-0.6-0.4-1-0.6
			c-0.4-0.2-0.8-0.4-1.1-0.5c-0.3-0.1-0.7-0.3-1.3-0.5l-2.2-0.9c-0.2-0.1-0.4-0.1-0.6,0.1C55.9,136.4,55,137.9,55,139.5z M56,130.7
			c0,0.4,0.1,0.7,0.3,1.1s0.4,0.6,0.8,0.9s0.7,0.5,1,0.7c0.3,0.2,0.7,0.4,1.2,0.6l2.4,1c0.2,0.1,0.4,0.1,0.6-0.1
			c1.7-1.4,2.5-2.7,2.5-4c0-1-0.4-1.8-1.2-2.3c-0.8-0.6-1.9-0.8-3.1-0.8c-0.8,0-1.5,0.1-2.2,0.3c-0.7,0.2-1.2,0.6-1.6,1
			C56.2,129.5,56,130.1,56,130.7z"/>
		<path class="st0" d="M70.6,140.3c-0.5-1.4-0.8-2.9-0.8-4.6c0-1.7,0.3-3.2,0.8-4.6s1.3-2.5,2.3-3.4s2.2-1.3,3.5-1.3
			c0.8,0,1.6,0.2,2.3,0.5c0.7,0.3,1.3,0.8,1.8,1.3s1,1.2,1.3,2c0.4,0.8,0.6,1.6,0.8,2.5c0.2,0.9,0.3,1.9,0.3,2.9
			c0,1.7-0.3,3.2-0.8,4.6c-0.5,1.4-1.3,2.5-2.3,3.4c-1,0.9-2.2,1.3-3.5,1.3c-1.3,0-2.5-0.4-3.5-1.3S71.1,141.7,70.6,140.3z
			 M71.8,131.6c-0.4,1.2-0.6,2.6-0.6,4.1s0.2,2.9,0.6,4.1s1,2.1,1.7,2.8c0.8,0.7,1.7,1,2.8,1c1.1,0,2-0.3,2.8-1
			c0.8-0.7,1.4-1.6,1.7-2.8c0.4-1.2,0.6-2.6,0.6-4.1s-0.2-2.9-0.6-4.1c-0.4-1.2-1-2.1-1.7-2.8c-0.8-0.7-1.7-1-2.8-1
			c-1.1,0-2,0.3-2.8,1S72.2,130.4,71.8,131.6z"/>
		<path class="st0" d="M85.6,131.1c0-1.3,0.4-2.4,1.3-3.3c0.9-0.9,1.9-1.3,3.2-1.3s2.3,0.4,3.2,1.3c0.9,0.9,1.3,2,1.3,3.3
			c0,1.3-0.4,2.4-1.3,3.3c-0.9,0.9-2,1.3-3.2,1.3s-2.3-0.4-3.2-1.3S85.6,132.4,85.6,131.1z M87.9,128.5c-0.6,0.6-0.9,1.5-0.9,2.6
			s0.3,2,0.9,2.6s1.4,0.9,2.3,0.9c0.9,0,1.7-0.3,2.3-0.9c0.6-0.6,0.9-1.5,0.9-2.6s-0.3-2-0.9-2.6c-0.6-0.6-1.4-0.9-2.3-0.9
			C89.2,127.6,88.5,127.9,87.9,128.5z M91,144.6l8.9-17.9h1.3l-8.9,17.9H91z M97.5,140.3c0-1.3,0.4-2.4,1.3-3.3
			c0.9-0.9,1.9-1.3,3.2-1.3c1.3,0,2.3,0.4,3.2,1.3c0.9,0.9,1.3,2,1.3,3.3c0,1.3-0.4,2.4-1.3,3.3c-0.9,0.9-2,1.3-3.2,1.3
			c-1.3,0-2.3-0.4-3.2-1.3C98,142.7,97.5,141.6,97.5,140.3z M99.8,137.7c-0.6,0.6-0.9,1.5-0.9,2.6s0.3,2,0.9,2.6
			c0.6,0.6,1.4,0.9,2.3,0.9c0.9,0,1.7-0.3,2.3-0.9c0.6-0.6,0.9-1.5,0.9-2.6s-0.3-2-0.9-2.6c-0.6-0.6-1.4-0.9-2.3-0.9
			C101.1,136.8,100.4,137.1,99.8,137.7z"/>
	</g>
	<g>
		<circle class="st1" cx="41.7" cy="78.4" r="3"/>
		<circle class="st1" cx="30.4" cy="78.4" r="3"/>
		<circle class="st1" cx="55.5" cy="78.4" r="3"/>
		<path class="st1" d="M75.8,78.4c0-0.4,0-0.7,0.1-1.1L56.4,57.8c-15.3-0.1-28-0.2-29.7-0.2c-0.4,0.1-2.7,0.6-3.7,4l-0.3,0.9
			c-1.2,3.9-2,6.6-3.6,7.5l0.3,23.4h1l0.3,0.4c0,0,0.7,1,1.8,1c0.7,0.1,1.5-0.3,2.3-1.2l0.2-0.2l0.2-0.1c0.2-0.1,1.5-0.5,2.6,0.3
			c0.6,0.4,0.9,1.1,1,2l34.2,0.1L77,81.6C76.2,80.7,75.8,79.6,75.8,78.4z M30.4,83.3c-2.7,0-5-2.2-5-5c0-2.7,2.2-5,5-5s5,2.2,5,5
			C35.3,81.1,33.1,83.3,30.4,83.3z M41.7,83.3c-2.7,0-5-2.2-5-5c0-2.7,2.2-5,5-5s5,2.2,5,5C46.6,81.1,44.4,83.3,41.7,83.3z
			 M55.5,83.3c-2.7,0-5-2.2-5-5c0-2.7,2.2-5,5-5s5,2.2,5,5C60.5,81.1,58.3,83.3,55.5,83.3z M66.9,83.3c-2.7,0-5-2.2-5-5
			c0-2.7,2.2-5,5-5s5,2.2,5,5C71.8,81.1,69.6,83.3,66.9,83.3z"/>
		<circle class="st1" cx="66.9" cy="78.4" r="3"/>
		<path class="st1" d="M82.3,80.9c0.8-0.5,1.4-1.4,1.4-2.5c0-0.2,0-0.4-0.1-0.6L81.4,80L82.3,80.9z"/>
		<path class="st1" d="M139.3,72.6v-2c-0.3,0.1-0.6,0.1-0.6,0.1l-0.2,0l-0.2,0c-0.9-0.1-1.9-0.1-2.3,0c-0.1,0.1-0.3,0.4-0.4,0.6
			l-0.3,0.5h-4.7l-0.1-0.9c-0.1-0.9-0.3-1.2-0.4-1.4h-2c0.6,1.1,1.1,2.1,1.5,2.9H139.3z"/>
		<path class="st1" d="M80.7,75.4c-1,0-2,0.6-2.5,1.4l1.8,1.8l2.5-2.5C82,75.7,81.4,75.4,80.7,75.4z"/>
		<path class="st1" d="M78.6,80l-0.6-0.6c0.1,0.3,0.3,0.6,0.5,0.8L78.6,80z"/>
		<path class="st1" d="M80.7,73.4c1.2,0,2.3,0.5,3.2,1.2L100.6,58c-11.2,0-27.1-0.1-41.4-0.2l17.6,17.6
			C77.7,74.2,79.1,73.4,80.7,73.4z"/>
		<path class="st1" d="M80.7,83.3c-0.8,0-1.5-0.2-2.1-0.5L65.7,95.7l5,0l8.6,0l15.1,0.1L81.8,83.2C81.5,83.3,81.1,83.3,80.7,83.3z"
			/>
		<circle class="st1" cx="92" cy="78.4" r="3"/>
		<path class="st1" d="M140.4,81.9h-10.2c-1.1,3.4-2.7,8.7-3.7,11.6l1.2,0.8l3.3-0.2c1.5-0.1,2.5,0.3,3.2,1.1
			c0.5,0.6,0.6,1.3,0.7,1.8l0.6,0.3c1.2,0.1,2.7,0.2,3,0.1c0.2-0.1,0.6-0.4,0.9-0.8l0.1-9.6l0.1-0.2c1.5-3.4,1-4.8,1-4.8L140.4,81.9
			z"/>
		<circle class="st1" cx="117.2" cy="78.4" r="3"/>
		<path class="st1" d="M128.7,75.1c-1.2-2.2-7.1-13.9-7.4-14.4l0-0.1c0-0.1-1.2-3-6.6-2.7c-1.2,0.1-5.4,0.1-11.2,0.1L85.2,76.2
			c0.3,0.7,0.5,1.4,0.5,2.1c0,1.6-0.8,3-2,3.9l13.5,13.5l16.9,0.1l0.2,0.1c0.6,0.4,1.5,0.7,1.8,0.7c0,0,0-0.2,0-0.4
			c0-0.5,0.1-1.1,0.5-1.7c0.5-0.7,1.5-1.1,2.4-1.1c0.8,0,1.5,0.3,2,0.8c0.9,1,1.4,1.2,1.5,1.2c0.2-0.1,0.4-0.1,0.6-0.1
			c0.3,0,0.4-0.1,0.8-0.9c0.6-1.4,4-12.1,5.2-16.1C129.2,78.2,129.6,76.9,128.7,75.1z M92,83.3c-2.7,0-5-2.2-5-5c0-2.7,2.2-5,5-5
			s5,2.2,5,5C97,81.1,94.8,83.3,92,83.3z M105.9,83.3c-2.7,0-5-2.2-5-5c0-2.7,2.2-5,5-5c2.7,0,5,2.2,5,5
			C110.9,81.1,108.6,83.3,105.9,83.3z M117.2,83.3c-2.7,0-5-2.2-5-5c0-2.7,2.2-5,5-5c2.7,0,5,2.2,5,5
			C122.2,81.1,119.9,83.3,117.2,83.3z"/>
		<path class="st1" d="M139.3,74.6h-8.7c1.1,2.3,0.5,4.2,0.5,4.3c-0.1,0.2-0.2,0.5-0.3,1h9.4l0.1-0.9l0.7-1.7v-2.8L139.3,74.6
			L139.3,74.6z"/>
		<circle class="st1" cx="105.9" cy="78.4" r="3"/>
		<path class="st0" d="M30.4,73.4c-2.7,0-5,2.2-5,5c0,2.7,2.2,5,5,5s5-2.2,5-5C35.3,75.7,33.1,73.4,30.4,73.4z M30.4,81.3
			c-1.6,0-3-1.3-3-3c0-1.6,1.3-3,3-3s3,1.3,3,3C33.3,80,32,81.3,30.4,81.3z"/>
		<path class="st0" d="M41.7,73.4c-2.7,0-5,2.2-5,5c0,2.7,2.2,5,5,5s5-2.2,5-5C46.6,75.7,44.4,73.4,41.7,73.4z M41.7,81.3
			c-1.6,0-3-1.3-3-3c0-1.6,1.3-3,3-3s3,1.3,3,3C44.6,80,43.3,81.3,41.7,81.3z"/>
		<path class="st0" d="M55.5,73.4c-2.7,0-5,2.2-5,5c0,2.7,2.2,5,5,5s5-2.2,5-5C60.5,75.7,58.3,73.4,55.5,73.4z M55.5,81.3
			c-1.6,0-3-1.3-3-3c0-1.6,1.3-3,3-3s3,1.3,3,3C58.5,80,57.2,81.3,55.5,81.3z"/>
		<path class="st0" d="M66.9,73.4c-2.7,0-5,2.2-5,5c0,2.7,2.2,5,5,5s5-2.2,5-5C71.8,75.7,69.6,73.4,66.9,73.4z M66.9,81.3
			c-1.6,0-3-1.3-3-3c0-1.6,1.3-3,3-3c1.6,0,3,1.3,3,3C69.8,80,68.5,81.3,66.9,81.3z"/>
		<path class="st0" d="M92,73.4c-2.7,0-5,2.2-5,5c0,2.7,2.2,5,5,5s5-2.2,5-5C97,75.7,94.8,73.4,92,73.4z M92,81.3c-1.6,0-3-1.3-3-3
			c0-1.6,1.3-3,3-3s3,1.3,3,3C95,80,93.7,81.3,92,81.3z"/>
		<path class="st0" d="M105.9,73.4c-2.7,0-5,2.2-5,5c0,2.7,2.2,5,5,5c2.7,0,5-2.2,5-5C110.9,75.7,108.6,73.4,105.9,73.4z
			 M105.9,81.3c-1.6,0-3-1.3-3-3c0-1.6,1.3-3,3-3s3,1.3,3,3C108.9,80,107.5,81.3,105.9,81.3z"/>
		<path class="st0" d="M117.2,73.4c-2.7,0-5,2.2-5,5c0,2.7,2.2,5,5,5c2.7,0,5-2.2,5-5C122.2,75.7,119.9,73.4,117.2,73.4z
			 M117.2,81.3c-1.6,0-3-1.3-3-3c0-1.6,1.3-3,3-3s3,1.3,3,3C120.2,80,118.8,81.3,117.2,81.3z"/>
		<path class="st0" d="M142.9,77.8v-5.1h-1.6v-2.7l-0.1-0.2c-0.3-0.6-0.9-1.3-1.7-1.2c-0.4,0.1-0.9,0.2-1.1,0.2
			c-1.6-0.1-2.6-0.1-3,0.1c-0.5,0.2-0.9,0.6-1.2,1.1h-1.8c-0.2-0.9-0.6-1.5-1.1-1.9c-0.4-0.3-0.8-0.4-1-0.3h-3.2
			c-1.8-3.6-3.8-7.4-4-7.8c-0.2-0.6-2.1-4.3-8.6-3.9c-1.1,0.1-4.4,0.1-9.1,0.1l31-31l-1.4-1.4L102.6,56c-11.7,0-29.8-0.1-45.4-0.2
			L25,23.6L23.6,25l30.8,30.8c-15.2-0.1-27.5-0.2-27.8-0.2l-0.1,0l-0.1,0c-0.2,0-3.9,0.5-5.5,5.4l-0.3,0.9c-0.8,2.5-1.9,6.3-2.7,6.4
			l-0.9,0.1l0.4,27h2c0.5,0.5,1.5,1.3,2.9,1.5c1.3,0.1,2.5-0.4,3.7-1.6c0.2,0,0.4,0,0.5,0c0.1,0.1,0.3,0.5,0.2,1.3l-0.1,1.1
			l34.2,0.1L23.6,135l1.4,1.4l38.7-38.7l6.8,0l9.3,0l16.6,0.1l38.6,38.6l1.4-1.4L99.2,97.8l14.4,0c0.6,0.3,1.6,0.8,2.5,0.8
			c0.4,0,0.8-0.1,1.1-0.3c0.9-0.6,0.9-1.4,1-2c0-0.3,0-0.5,0.1-0.6c0.1-0.2,0.5-0.4,0.9-0.4c0.1,0,0.3,0,0.4,0.1
			c1.3,1.5,2.5,2.1,3.6,1.8c0.1,0,0.2,0,0.3-0.1c0.9-0.1,1.6-0.5,2.3-1.9l1.4,1l3.9-0.2c0.8,0,1.3,0.1,1.5,0.4
			c0.3,0.3,0.2,0.9,0.2,0.9l-0.2,0.8l2.2,0.9l0.3,0.1c1,0.1,1.8,0.1,2.4,0.1c0.9,0,1.5-0.1,1.8-0.2c0.7-0.4,1.6-1.3,1.8-1.5l0.3-0.3
			l0.1-10c1.5-3.6,1.1-5.5,0.9-6.1l-0.2-1.1l0.1-0.7L142.9,77.8z M130.1,69.7c0.1,0.1,0.3,0.5,0.4,1.4l0.1,0.9h4.7l0.3-0.5
			c0.1-0.2,0.3-0.5,0.4-0.6c0.4,0,1.5,0,2.3,0l0.2,0l0.2,0c0,0,0.3-0.1,0.6-0.1v2h-9.7c-0.4-0.8-0.9-1.8-1.5-2.9H130.1z M100.6,58
			L83.9,74.7c-0.9-0.7-2-1.2-3.2-1.2c-1.6,0-3,0.8-3.9,2L59.2,57.8C73.4,57.9,89.4,58,100.6,58z M83.7,78.4c0,1-0.6,2-1.4,2.5
			L81.4,80l2.2-2.2C83.7,78,83.7,78.2,83.7,78.4z M78.6,80l-0.2,0.2c-0.2-0.2-0.3-0.5-0.5-0.8L78.6,80z M78.2,76.8
			c0.5-0.8,1.4-1.4,2.5-1.4c0.7,0,1.3,0.2,1.8,0.6L80,78.6L78.2,76.8z M28.7,95.6c-0.1-0.9-0.4-1.5-1-2c-1.1-0.8-2.5-0.3-2.6-0.3
			l-0.2,0.1l-0.2,0.2c-0.8,0.8-1.6,1.2-2.3,1.2c-1-0.1-1.8-1-1.8-1l-0.3-0.4h-1l-0.3-23.4c1.5-0.9,2.4-3.6,3.6-7.5l0.3-0.9
			c1-3.4,3.4-3.9,3.7-4c1.7,0,14.4,0.1,29.7,0.2l19.5,19.5c-0.1,0.3-0.1,0.7-0.1,1.1c0,1.2,0.5,2.3,1.2,3.2L62.9,95.7L28.7,95.6z
			 M79.3,95.8l-8.6,0l-5,0l12.9-12.9c0.7,0.3,1.4,0.5,2.1,0.5c0.4,0,0.7,0,1.1-0.1l12.6,12.6L79.3,95.8z M124,94.4
			c-0.4,0.9-0.5,0.9-0.8,0.9c-0.2,0-0.4,0.1-0.6,0.1c-0.1,0-0.7-0.2-1.5-1.2c-0.5-0.5-1.2-0.8-2-0.8c-0.9,0-1.8,0.5-2.4,1.1
			c-0.5,0.6-0.5,1.2-0.5,1.7c0,0.1,0,0.4,0,0.4c-0.3,0.1-1.1-0.3-1.8-0.7l-0.2-0.1l-16.9-0.1L83.7,82.3c1.2-0.9,2-2.3,2-3.9
			c0-0.8-0.2-1.5-0.5-2.1L103.4,58c5.8,0,10,0,11.2-0.1c5.4-0.3,6.6,2.6,6.6,2.7l0,0.1c0.3,0.5,6.2,12.3,7.4,14.4
			c0.9,1.7,0.5,3.1,0.5,3.2C128,82.3,124.6,93.1,124,94.4z M139.5,86.9l-0.1,0.2l-0.1,9.6c-0.3,0.3-0.7,0.7-0.9,0.8
			c-0.3,0.1-1.8,0-3-0.1l-0.6-0.3c0-0.5-0.2-1.2-0.7-1.8c-0.7-0.8-1.7-1.2-3.2-1.1l-3.3,0.2l-1.2-0.8c1-2.9,2.7-8.2,3.7-11.6h10.2
			l0,0.1C140.4,82.1,140.9,83.5,139.5,86.9z M140.9,77.4l-0.7,1.7l-0.1,0.9h-9.4c0.1-0.5,0.3-0.8,0.3-1c0-0.1,0.6-2-0.5-4.3h8.7v0
			h1.6V77.4z"/>
	</g>
</g>
</svg>
