<?xml version="1.0" encoding="utf-8"?>
<!-- Generator: Adobe Illustrator 21.1.0, SVG Export Plug-In . SVG Version: 6.00 Build 0)  -->
<svg version="1.1" xmlns="http://www.w3.org/2000/svg" xmlns:xlink="http://www.w3.org/1999/xlink" x="0px" y="0px"
	 viewBox="0 0 160 160" style="enable-background:new 0 0 160 160;" xml:space="preserve">
<style type="text/css">
	.st0{fill:#FFFFFF;}
	.st1{fill:none;}
</style>
<g id="circle">
	<path class="st0" d="M80,2c43,0,78,35,78,78s-35,78-78,78S2,123,2,80S37,2,80,2 M80,0C35.8,0,0,35.8,0,80s35.8,80,80,80
		s80-35.8,80-80S124.2,0,80,0L80,0z"/>
</g>
<g id="_x32__1_">
	<g>
		<path class="st1" d="M75.3,73.5c1,1.4,1.6,3.9,2.1,5.7c0.2,0.7,0.3,1.3,0.5,1.6c0.2,0.5,1.1,1.2,2.2,1.3l0.1,0l0.1,0l0.1,0
			c1.2-0.1,1.7-0.9,1.9-1.3c0.1-0.3,0.3-0.9,0.5-1.6c0.5-1.8,1.1-4.3,2.1-5.7c1.5-2.1,3.7-3.5,5.3-4.3c0.5-0.2,1.1-0.6,1.6-0.9
			c-6.1,1.2-9.8,1.3-11.3,1.3l-0.4,0l-0.1,0c-1.2,0-5.3-0.1-11.6-1.3c0.6,0.3,1.1,0.7,1.7,0.9C71.6,70,73.8,71.3,75.3,73.5z"/>
		<circle class="st1" cx="80" cy="92.9" r="0.7"/>
		<path class="st1" d="M80,99.9c-1.5,0-6.8,1.8-11.9,3.6h23.7C86.9,101.7,81.5,99.9,80,99.9z"/>
		<path class="st1" d="M67.6,85.3c-1.1,0.8-2.1,1.3-3.1,1.9c-2.1,1.1-4,2.2-6.5,4.8c-2.8,3-3.1,11.3-3,15.2H105
			c0.1-4-0.3-12.4-3-15.2c-2.3-2.4-4.4-3.4-6.3-4.5c-1.2-0.6-2.5-1.3-3.8-2.2c-2.3-1.7-3.6-3.1-3.6-5.3c0-2.2,1.3-3.6,3.6-5.3
			c1.2-0.9,2.5-1.6,3.7-2.2c2-1.1,4.2-2.2,6.4-4.5c2.6-2.8,3.1-11.2,3-15.2H55c0,4,0.5,12.3,3,15.3c2.2,2.6,4.4,3.6,6.4,4.6
			c1.2,0.6,2.5,1.2,3.6,2c2.3,1.7,3.6,3.1,3.6,5.3C71.7,82.3,69.8,83.8,67.6,85.3z M69.1,71c-2.6-1.2-5.9-3.8-6-4l-3.4-2.8l4.3,1
			c7.5,1.8,12.6,2.2,14.9,2.3v-0.1l1.3,0.1l1.2-0.1v0.1c2.2-0.1,7.1-0.5,14.6-2.3l4.3-1l-3.4,2.8c-0.1,0.1-3.4,2.7-6,4
			c-1.4,0.7-3.3,1.8-4.5,3.6c-0.8,1.1-1.4,3.5-1.8,5.1c-0.2,0.8-0.4,1.5-0.5,1.8c-0.5,1.1-1.4,2-2.6,2.3v0.2l-1,0
			c-0.1,0-0.2,0-0.2,0c-0.1,0-0.2,0-0.3,0h-1v-0.2c-1.3-0.4-2.5-1.3-2.9-2.4c-0.2-0.4-0.3-1-0.5-1.8c-0.4-1.6-1-4-1.8-5.1
			C72.4,72.8,70.5,71.7,69.1,71z M82.7,92.9c0,1.5-1.2,2.7-2.7,2.7c-1.5,0-2.7-1.2-2.7-2.7c0-1.5,1.2-2.7,2.7-2.7
			c-1.5,0-2.7-1.2-2.7-2.7c0-1.5,1.2-2.7,2.7-2.7c1.5,0,2.7,1.2,2.7,2.7c0,1.5-1.2,2.7-2.7,2.7C81.5,90.2,82.7,91.4,82.7,92.9z
			 M80,97.9c3,0,16.2,5.1,17.7,5.7l4.9,1.9H57.4l5-1.9C63.8,103,77,97.9,80,97.9z"/>
		<circle class="st1" cx="80" cy="87.5" r="0.7"/>
		<path class="st0" d="M66.5,83.7L66.5,83.7c-1,0.7-2,1.2-3,1.8c-2.1,1.2-4.3,2.3-7,5.2c-4.2,4.6-3.6,17.1-3.5,17.6l0.1,0.9h53.9
			l0.1-0.9c0-0.5,0.7-13.3-3.6-17.7c-2.5-2.6-4.7-3.7-6.9-4.9c-1.2-0.6-2.4-1.2-3.5-2.1c-2.4-1.7-2.8-2.6-2.8-3.7
			c0-1.1,0.4-2,2.8-3.7c1.1-0.8,2.3-1.4,3.5-2c2.1-1.1,4.5-2.3,6.9-4.9c4-4.3,3.6-17.1,3.5-17.6l0-1H53l0,1c0,0.5-0.3,13.1,3.5,17.6
			c2.5,2.9,4.9,4.1,7.1,5.1c1.2,0.6,2.3,1.1,3.3,1.8c2.4,1.8,2.8,2.6,2.8,3.7C69.7,81.1,68.9,82,66.5,83.7z M68.1,74.7
			c-1.2-0.9-2.4-1.5-3.6-2c-2.1-1-4.2-2-6.4-4.6c-2.5-3-3-11.3-3-15.3h50c0.1,4-0.4,12.4-3,15.2c-2.2,2.3-4.3,3.4-6.4,4.5
			c-1.2,0.6-2.5,1.3-3.7,2.2c-2.3,1.7-3.6,3.1-3.6,5.3c0,2.3,1.3,3.7,3.6,5.3c1.3,0.9,2.6,1.6,3.8,2.2c2,1,4,2.1,6.3,4.5
			c2.8,2.8,3.1,11.2,3,15.2H55c-0.1-4,0.3-12.2,3-15.2c2.4-2.6,4.4-3.7,6.5-4.8c1-0.5,2.1-1.1,3.1-1.9c2.2-1.5,4.1-3,4.1-5.3
			C71.7,77.8,70.5,76.4,68.1,74.7z"/>
		<path class="st0" d="M73.6,74.6c0.8,1.2,1.4,3.5,1.8,5.1c0.2,0.8,0.4,1.5,0.5,1.8c0.5,1.1,1.6,2,2.9,2.4v0.2h1c0.1,0,0.2,0,0.3,0
			c0.1,0,0.2,0,0.2,0l1,0v-0.2c1.2-0.4,2.1-1.2,2.6-2.3c0.2-0.4,0.3-1,0.5-1.8c0.4-1.6,1-4,1.8-5.1c1.2-1.8,3.1-2.9,4.5-3.6
			c2.6-1.2,5.9-3.8,6-4l3.4-2.8l-4.3,1c-7.5,1.8-12.4,2.2-14.6,2.3v-0.1l-1.2,0.1l-1.3-0.1v0.1c-2.3-0.1-7.4-0.4-14.9-2.3l-4.3-1
			l3.4,2.8c0.1,0.1,3.4,2.7,6,4C70.5,71.7,72.4,72.8,73.6,74.6z M68.3,68.3c6.4,1.2,10.4,1.3,11.6,1.3l0.1,0l0.4,0
			c1.5,0,5.2-0.1,11.3-1.3c-0.6,0.3-1.1,0.7-1.6,0.9c-1.6,0.8-3.9,2.1-5.3,4.3c-1,1.4-1.6,3.9-2.1,5.7c-0.2,0.7-0.3,1.3-0.5,1.6
			c-0.2,0.4-0.7,1.2-1.9,1.3l-0.1,0l-0.1,0l-0.1,0c-1.1-0.1-2-0.8-2.2-1.3c-0.1-0.3-0.3-0.9-0.5-1.6c-0.5-1.8-1.1-4.3-2.1-5.7
			c-1.5-2.1-3.7-3.5-5.3-4.3C69.4,69,68.8,68.7,68.3,68.3z"/>
		<path class="st0" d="M57.4,105.5h45.3l-4.9-1.9C96.2,103,83,97.9,80,97.9c-3,0-16.2,5.1-17.7,5.7L57.4,105.5z M80,99.9
			c1.5,0,6.8,1.8,11.8,3.6H68.2C73.2,101.7,78.6,99.9,80,99.9z"/>
		<path class="st0" d="M82.7,87.5c0-1.5-1.2-2.7-2.7-2.7c-1.5,0-2.7,1.2-2.7,2.7c0,1.5,1.2,2.7,2.7,2.7c-1.5,0-2.7,1.2-2.7,2.7
			c0,1.5,1.2,2.7,2.7,2.7c1.5,0,2.7-1.2,2.7-2.7c0-1.5-1.2-2.7-2.7-2.7C81.5,90.2,82.7,89,82.7,87.5z M80.7,92.9
			c0,0.4-0.3,0.7-0.7,0.7c-0.4,0-0.7-0.3-0.7-0.7s0.3-0.7,0.7-0.7C80.4,92.2,80.7,92.5,80.7,92.9z M80,88.2c-0.4,0-0.7-0.3-0.7-0.7
			s0.3-0.7,0.7-0.7c0.4,0,0.7,0.3,0.7,0.7S80.4,88.2,80,88.2z"/>
		<path class="st0" d="M109,111.8H51c-0.6,0-1,0.4-1,1s0.4,1,1,1h58c0.6,0,1-0.4,1-1S109.6,111.8,109,111.8z"/>
		<path class="st0" d="M51,48.2h58c0.6,0,1-0.4,1-1s-0.4-1-1-1H51c-0.6,0-1,0.4-1,1S50.4,48.2,51,48.2z"/>
	</g>
</g>
</svg>
