<?xml version="1.0" encoding="utf-8"?>
<!-- Generator: Adobe Illustrator 21.1.0, SVG Export Plug-In . SVG Version: 6.00 Build 0)  -->
<svg version="1.1" id="Layer_1" xmlns="http://www.w3.org/2000/svg" xmlns:xlink="http://www.w3.org/1999/xlink" x="0px" y="0px"
	 viewBox="0 0 160 160" style="enable-background:new 0 0 160 160;" xml:space="preserve">
<style type="text/css">
	.st0{fill:#FFFFFF;}
</style>
<path class="st0" d="M66.1,31.1c20.5,0,37.2,16.7,37.2,37.2s-16.7,37.2-37.2,37.2S28.9,88.9,28.9,68.4S45.6,31.1,66.1,31.1
	 M66.1,29.1c-21.7,0-39.2,17.6-39.2,39.2s17.6,39.2,39.2,39.2c21.7,0,39.2-17.6,39.2-39.2S87.7,29.1,66.1,29.1L66.1,29.1z"/>
<g>
	<g>
		<g>
			<path class="st0" d="M17,126.2c-9-13-15.1-29-15.1-46.4c0-42.9,35-77.7,77.9-77.7c42.9,0,77.7,34.9,77.7,77.7
				c0,17.4-5.4,33.4-15.4,46.4v3.2c11-13.6,17.5-30.8,17.5-49.6c0-44-35.7-79.7-79.7-79.7c-44,0-79.9,35.8-79.9,79.7
				c0,18.7,6.1,36,17.1,49.6V126.2z"/>
		</g>
		<g>
			<path class="st0" d="M142.3,33.9c9,13,15.1,29,15.1,46.4c0,42.9-35,77.7-77.9,77.7c-42.9,0-77.7-34.9-77.7-77.7
				c0-17.4,5.4-33.4,15.4-46.4v-3.2C6.3,44.3-0.1,61.6-0.1,80.3c0,44,35.7,79.7,79.7,79.7c44,0,79.9-35.8,79.9-79.7
				c0-18.7-6.1-36-17.1-49.6V33.9z"/>
		</g>
	</g>
</g>
<polygon class="st0" points="132.5,138 92.7,98.1 94.8,96 134.7,136 136.6,135 94.8,93.2 89.8,98.1 130.7,139 "/>
</svg>
