<?xml version="1.0" encoding="utf-8"?>
<!-- Generator: Adobe Illustrator 21.1.0, SVG Export Plug-In . SVG Version: 6.00 Build 0)  -->
<svg version="1.1" id="Layer_1" xmlns="http://www.w3.org/2000/svg" xmlns:xlink="http://www.w3.org/1999/xlink" x="0px" y="0px"
	 viewBox="0 0 160 160" style="enable-background:new 0 0 160 160;" xml:space="preserve">
<style type="text/css">
	.st0{fill:#FFFFFF;}
</style>
<path class="st0" d="M50.8,42.9l0,2c9.4,0,19.1,1.9,28.5,3.8c9.6,1.9,19.4,3.9,29.3,3.9c6.9,0,13.2-1,19.1-3V112
	c-5.9,2.2-12.1,3.2-19.1,3.2c-9.4,0-19.1-1.9-28.5-3.8c-9.6-1.9-19.4-3.9-29.3-3.9c-6.9,0-13.2,1-19.1,3V48.1
	c5.9-2.2,12.1-3.2,19.1-3.2V42.9 M84,104.8c5.5,0,10.6-2.2,14.3-6.1c3.7-3.9,5.7-9.2,5.7-15c0-12.9-10.2-24.8-23.8-27.7
	c-1.6-0.3-3.2-0.5-4.7-0.5c-11.4,0-19.9,9.1-19.9,21.1c0,12.9,10.2,24.8,23.8,27.7C80.8,104.6,82.4,104.8,84,104.8 M50.8,42.9
	c-7,0-14.1,1-21.1,3.8c0,22.2,0,44.4,0,66.7c7-2.8,14.1-3.8,21.1-3.8c19.2,0,38.5,7.7,57.7,7.7c7,0,14.1-1,21.1-3.8
	c0-22.2,0-44.4,0-66.7c-7,2.8-14.1,3.8-21.1,3.8C89.3,50.6,70,42.9,50.8,42.9L50.8,42.9z M84,102.8c-1.4,0-2.8-0.2-4.3-0.5
	c-12.3-2.7-22.2-13.6-22.2-25.8c0-10.9,7.7-19.1,17.9-19.1c1.4,0,2.8,0.2,4.3,0.5c12.3,2.7,22.2,13.6,22.2,25.8
	C101.9,94.5,94.2,102.8,84,102.8L84,102.8z"/>
<g>
	<g>
		<g>
			<path class="st0" d="M17,126.2c-9-13-15.1-29-15.1-46.4c0-42.9,35-77.7,77.9-77.7c42.9,0,77.7,34.9,77.7,77.7
				c0,17.4-5.4,33.4-15.4,46.4v3.2c11-13.6,17.5-30.8,17.5-49.6c0-44-35.7-79.7-79.7-79.7c-44,0-79.9,35.8-79.9,79.7
				c0,18.7,6.1,36,17.1,49.6V126.2z"/>
		</g>
		<path class="st0" d="M112.3,151c-9.8,4.5-20.8,7-32.3,7c-11.5,0-22.4-2.5-32.3-7h-4.5c11,5.7,23.5,9,36.8,9s25.8-3.3,36.8-9H112.3
			z"/>
	</g>
</g>
<g>
	<g>
		<g>
			<path class="st0" d="M142.3,33.9c9,13,15.1,29,15.1,46.4c0,42.9-35,77.7-77.9,77.7c-42.9,0-77.7-34.9-77.7-77.7
				c0-17.4,5.4-33.4,15.4-46.4v-3.2C6.3,44.3-0.1,61.6-0.1,80.3c0,44,35.7,79.7,79.7,79.7c44,0,79.9-35.8,79.9-79.7
				c0-18.7-6.1-36-17.1-49.6V33.9z"/>
		</g>
		<path class="st0" d="M47.1,9.1c9.8-4.5,20.8-7,32.3-7c11.5,0,22.4,2.5,32.3,7h4.5c-11-5.7-23.5-9-36.8-9s-25.8,3.3-36.8,9H47.1z"
			/>
	</g>
</g>
</svg>
