<?xml version="1.0" encoding="utf-8"?>
<!-- Generator: Adobe Illustrator 21.1.0, SVG Export Plug-In . SVG Version: 6.00 Build 0)  -->
<svg version="1.1" id="Layer_1" xmlns="http://www.w3.org/2000/svg" xmlns:xlink="http://www.w3.org/1999/xlink" x="0px" y="0px"
	 viewBox="0 0 160 160" style="enable-background:new 0 0 160 160;" xml:space="preserve">
<style type="text/css">
	.st0{fill:#FFFFFF;}
</style>
<g>
	<g>
		<g>
			<g>
				<path class="st0" d="M17,126.2c-9-13-15.1-29-15.1-46.4c0-42.9,35-77.7,77.9-77.7c42.9,0,77.7,34.9,77.7,77.7
					c0,17.4-5.4,33.4-15.4,46.4v3.2c11-13.6,17.5-30.8,17.5-49.6c0-44-35.7-79.7-79.7-79.7c-44,0-79.9,35.8-79.9,79.7
					c0,18.7,6.1,36,17.1,49.6V126.2z"/>
			</g>
			<g>
				<path class="st0" d="M142.3,33.9c9,13,15.1,29,15.1,46.4c0,42.9-35,77.7-77.9,77.7c-42.9,0-77.7-34.9-77.7-77.7
					c0-17.4,5.4-33.4,15.4-46.4v-3.2C6.3,44.3-0.1,61.6-0.1,80.3c0,44,35.7,79.7,79.7,79.7c44,0,79.9-35.8,79.9-79.7
					c0-18.7-6.1-36-17.1-49.6V33.9z"/>
			</g>
		</g>
	</g>
</g>
<g>
	<path class="st0" d="M87.2,52.9c2.5,0.1,4.7,0.5,6.5,1.2c3.6,1.4,5.4,4,5.3,8c0,1.9-0.4,3.7-1.1,5.4c-1.1,2.6-2.2,5.2-3.2,7.8
		c-0.5,1.2-1,2.3-1.4,3.5l-0.4,1c-0.9,2.2-1.8,4.4-2.7,6.5c-2.1,5.1-2.4,10.7-1,16.6c0.4,1.4,0.8,2.9,1.1,4.3
		c0.4,1.6,0.9,3.2,1.2,4.7c0.4,1.8,1,4.2,1.4,6.5c0.4,2.7,0.1,5.4-0.9,8.2c-1.1,2.9-2.9,4.8-5.5,5.9c-1.1,0.4-2.1,0.7-3.1,0.7
		c-1.5,0-3.1-0.4-4.7-1.4c-2.1-1.1-3.7-2.9-5.1-5.5c-1.2-2.2-1.9-4.8-2.4-8.3C69.9,107,67,96.2,62.6,85.6c-0.8-1.9-1.6-4-2-6.1
		c-1.2-6.4,0.5-12.2,5.1-17.3c4.3-4.7,9.8-7.5,16.8-8.8c1.1-0.2,2.1-0.3,3.3-0.4C86.3,53,86.7,52.9,87.2,52.9 M87.1,50.9
		c-1.6,0.2-3.3,0.3-4.9,0.6c-7,1.2-13.1,4.1-17.9,9.4c-4.9,5.4-7,11.8-5.6,19c0.4,2.2,1.2,4.4,2.1,6.5c4.2,10.2,7.1,20.8,8.6,31.8
		c0.4,3.1,1.1,6.1,2.6,8.9c1.4,2.6,3.2,4.8,5.9,6.3c1.8,1,3.7,1.6,5.7,1.6c1.3,0,2.6-0.3,3.9-0.8c3.3-1.4,5.4-3.8,6.6-7.1
		c1.1-3,1.5-6.1,1-9.2c-0.4-2.3-0.9-4.5-1.4-6.7c-0.7-3-1.6-6-2.4-9C89.9,97,90,91.9,92.1,86.9c1-2.5,2.1-5,3.1-7.5
		c1.6-3.7,3.1-7.5,4.7-11.2c0.8-1.9,1.2-4,1.2-6.1c0.1-4.8-2.1-8.2-6.6-9.9C92.1,51.3,89.7,50.9,87.1,50.9L87.1,50.9z"/>
	<path class="st0" d="M92.5,27.1L92.5,27.1c0.8,0,1.6,0.3,2.4,0.9c0.8,0.6,1.5,1.4,2.3,2.5c1.2,1.8,1.8,4,1.8,6.8c0,1.6-0.3,3-1,4.1
		c-0.7,1.2-1.8,1.9-2.9,1.9c-0.7,0-1.4-0.2-2.1-0.6c-1-0.6-1.8-1.5-2.6-2.7c-1.6-2.6-2.2-5.4-1.7-8.5c0.1-0.6,0.3-1.4,0.7-2.1
		C90.2,27.9,91.3,27.1,92.5,27.1 M92.5,25.1c-2,0-3.8,1.2-4.9,3.5c-0.4,0.8-0.7,1.8-0.8,2.7c-0.5,3.5,0.1,6.8,2,9.9
		c0.8,1.3,1.9,2.5,3.2,3.3c1,0.6,2.1,0.9,3.1,0.9c1.8,0,3.5-1,4.7-2.9c1-1.7,1.3-3.5,1.3-5.2c0-3-0.7-5.7-2.2-7.9
		c-0.8-1.1-1.7-2.2-2.7-3C95,25.5,93.7,25.1,92.5,25.1L92.5,25.1z"/>
	<path class="st0" d="M79.5,34.5L79.5,34.5c0.5,0,1,0.2,1.5,0.7c1.3,1.2,1.9,2.8,2,5.4c0,0.1-0.1,0.3-0.1,0.4
		c-0.1,0.6-0.3,1.3-0.6,1.9c-0.3,0.6-0.7,0.7-1,0.7c-0.3,0-0.6-0.1-0.9-0.2c-0.4-0.2-0.6-0.4-0.7-0.5c-2-2.1-2.5-4.4-1.6-7
		C78.3,35,78.9,34.5,79.5,34.5 M79.5,32.5c-1.5,0-2.8,0.9-3.4,2.7c-1.1,3.4-0.3,6.4,2.1,8.9c0.3,0.4,0.8,0.7,1.3,0.9
		c0.6,0.3,1.2,0.5,1.8,0.5c1.1,0,2.1-0.6,2.7-1.7c0.6-1.1,0.8-2.3,1-3c-0.1-3.1-0.8-5.3-2.6-7.1C81.5,32.9,80.5,32.5,79.5,32.5
		L79.5,32.5z"/>
	<path class="st0" d="M71.5,40.2c0.1,0,0.3,0.1,0.5,0.2c0.7,0.6,1.4,1.4,1.4,3.7c0,0,0,0.1,0,0.1c-0.1,0.3-0.1,0.8-0.3,1.1
		c-0.2,0.4-0.4,0.4-0.5,0.4c-0.1,0-0.3-0.1-0.5-0.2c-1.3-0.9-1.9-3.4-1.2-4.8C71,40.6,71.2,40.2,71.5,40.2 M71.5,38.2
		c-1,0-1.9,0.6-2.4,1.7c-1.1,2.3-0.2,5.8,1.9,7.3c0.5,0.4,1.1,0.5,1.6,0.5c0.9,0,1.8-0.5,2.3-1.5c0.3-0.7,0.4-1.6,0.5-1.8
		c0-2.5-0.6-4.2-2.2-5.5C72.6,38.4,72,38.2,71.5,38.2L71.5,38.2z"/>
	<path class="st0" d="M65.7,46C65.7,46,65.7,46,65.7,46c0.6,0.5,0.9,1.1,0.9,2.5c0,0,0,0.1,0,0.1c0,0.2-0.1,0.4-0.1,0.6
		C65.6,48.5,65.2,47,65.7,46 M65.6,44c-0.7,0-1.4,0.4-1.8,1.2c-0.9,1.8-0.2,4.4,1.4,5.6c0.4,0.3,0.8,0.4,1.3,0.4
		c0.8,0,1.5-0.5,1.8-1.3c0.2-0.5,0.2-1,0.3-1.3c0-1.8-0.4-3.2-1.6-4.2C66.6,44.1,66.1,44,65.6,44L65.6,44z"/>
	<path class="st0" d="M60.8,51.2c0.3,0.3,0.5,0.9,0.5,1.5c0,0.1,0,0.2-0.1,0.3C60.8,52.6,60.7,51.8,60.8,51.2 M60.6,49
		c-0.6,0-1.1,0.3-1.5,0.9c-0.9,1.6-0.3,4,1.1,5c0.3,0.2,0.7,0.3,1.1,0.3c0.7,0,1.3-0.4,1.6-1c0.2-0.5,0.3-1,0.4-1.2
		c0-1.5-0.6-2.8-1.5-3.6C61.4,49.1,61,49,60.6,49L60.6,49z"/>
</g>
</svg>
