<?xml version="1.0" encoding="utf-8"?>
<!-- Generator: Adobe Illustrator 21.1.0, SVG Export Plug-In . SVG Version: 6.00 Build 0)  -->
<svg version="1.1" id="Layer_1" xmlns="http://www.w3.org/2000/svg" xmlns:xlink="http://www.w3.org/1999/xlink" x="0px" y="0px"
	 viewBox="0 0 160 160" style="enable-background:new 0 0 160 160;" xml:space="preserve">
<style type="text/css">
	.st0{fill:#FFFFFF;}
</style>
<g>
	<g>
		<g>
			<g>
				<path class="st0" d="M17,126.2c-9-13-15.1-29-15.1-46.4c0-42.9,35-77.7,77.9-77.7c42.9,0,77.7,34.9,77.7,77.7
					c0,17.4-5.4,33.4-15.4,46.4v3.2c11-13.6,17.5-30.8,17.5-49.6c0-44-35.7-79.7-79.7-79.7c-44,0-79.9,35.8-79.9,79.7
					c0,18.7,6.1,36,17.1,49.6V126.2z"/>
			</g>
			<g>
				<path class="st0" d="M142.3,33.9c9,13,15.1,29,15.1,46.4c0,42.9-35,77.7-77.9,77.7c-42.9,0-77.7-34.9-77.7-77.7
					c0-17.4,5.4-33.4,15.4-46.4v-3.2C6.3,44.3-0.1,61.6-0.1,80.3c0,44,35.7,79.7,79.7,79.7c44,0,79.9-35.8,79.9-79.7
					c0-18.7-6.1-36-17.1-49.6V33.9z"/>
			</g>
		</g>
	</g>
	<path class="st0" d="M79.7,57.1c12.7,0,23,10.3,23,23s-10.3,23-23,23s-23-10.3-23-23S67,57.1,79.7,57.1 M79.7,55.1
		c-13.8,0-25,11.2-25,25s11.2,25,25,25c13.8,0,25-11.2,25-25S93.5,55.1,79.7,55.1L79.7,55.1z"/>
	<path class="st0" d="M79.7,47.1c26.9,0,51.9,12,68.7,33c-16.8,21-41.8,33-68.7,33c-26.9,0-51.9-12-68.7-33
		C27.8,59.1,52.7,47.1,79.7,47.1 M79.7,45.1c-29,0-54.8,13.7-71.2,35c16.5,21.3,42.2,35,71.2,35c29,0,54.8-13.7,71.2-35
		C134.4,58.8,108.7,45.1,79.7,45.1L79.7,45.1z"/>
</g>
</svg>
