<?xml version="1.0" encoding="utf-8"?>
<!-- Generator: Adobe Illustrator 21.1.0, SVG Export Plug-In . SVG Version: 6.00 Build 0)  -->
<svg version="1.1" id="Layer_1" xmlns="http://www.w3.org/2000/svg" xmlns:xlink="http://www.w3.org/1999/xlink" x="0px" y="0px"
	 viewBox="0 0 160 160" style="enable-background:new 0 0 160 160;" xml:space="preserve">
<style type="text/css">
	.st0{fill:#FFFFFF;}
</style>
<g>
	<path class="st0" d="M68.7,32.1v16h-28v-16H68.7 M70.7,30.1h-32v20h32V30.1L70.7,30.1z"/>
	<path class="st0" d="M68.7,72.1v16h-28v-16H68.7 M70.7,70.1h-32v20h32V70.1L70.7,70.1z"/>
	<path class="st0" d="M68.7,112.1v16h-28v-16H68.7 M70.7,110.1h-32v20h32V110.1L70.7,110.1z"/>
	<path class="st0" d="M118.7,32.1v16h-28v-16H118.7 M120.7,30.1h-32v20h32V30.1L120.7,30.1z"/>
	<path class="st0" d="M118.7,72.1v16h-28v-16H118.7 M120.7,70.1h-32v20h32V70.1L120.7,70.1z"/>
	<path class="st0" d="M118.7,112.1v16h-28v-16H118.7 M120.7,110.1h-32v20h32V110.1L120.7,110.1z"/>
</g>
<g>
	<g>
		<g>
			<g>
				<path class="st0" d="M17,126.2c-9-13-15.1-29-15.1-46.4c0-42.9,35-77.7,77.9-77.7c42.9,0,77.7,34.9,77.7,77.7
					c0,17.4-5.4,33.4-15.4,46.4v3.2c11-13.6,17.5-30.8,17.5-49.6c0-44-35.7-79.7-79.7-79.7c-44,0-79.9,35.8-79.9,79.7
					c0,18.7,6.1,36,17.1,49.6V126.2z"/>
			</g>
			<path class="st0" d="M112.3,151c-9.8,4.5-20.8,7-32.3,7c-11.5,0-22.4-2.5-32.3-7h-4.5c11,5.7,23.5,9,36.8,9s25.8-3.3,36.8-9
				H112.3z"/>
		</g>
	</g>
	<g>
		<g>
			<g>
				<path class="st0" d="M142.3,33.9c9,13,15.1,29,15.1,46.4c0,42.9-35,77.7-77.9,77.7c-42.9,0-77.7-34.9-77.7-77.7
					c0-17.4,5.4-33.4,15.4-46.4v-3.2C6.3,44.3-0.1,61.6-0.1,80.3c0,44,35.7,79.7,79.7,79.7c44,0,79.9-35.8,79.9-79.7
					c0-18.7-6.1-36-17.1-49.6V33.9z"/>
			</g>
			<path class="st0" d="M47.1,9.1c9.8-4.5,20.8-7,32.3-7c11.5,0,22.4,2.5,32.3,7h4.5c-11-5.7-23.5-9-36.8-9s-25.8,3.3-36.8,9H47.1z"
				/>
		</g>
	</g>
</g>
</svg>
