<svg xmlns="http://www.w3.org/2000/svg" viewBox="0 0 160 160"><defs><style>.cls-1{fill:#fff;}</style></defs><title>a</title><g id="circle"><path class="cls-1" d="M80,2A78,78,0,1,1,2,80,78.09,78.09,0,0,1,80,2m0-2a80,80,0,1,0,80,80A80,80,0,0,0,80,0Z"/></g><g id="A"><path class="cls-1" d="M81.47,43.5a1.62,1.62,0,0,1,1.62,1.06l32.17,74.53h-5.18a1.59,1.59,0,0,1-1.56-.89l-8.13-19h-41l-7.85,19a1.36,1.36,0,0,1-.53.72,2.14,2.14,0,0,1-1,.17H44.9L76.47,43.5h5m-20,50.77H98.23L87.1,67.77q-6.51-15.64-7.52-18.54-2.45,7-7.18,18.31l-11,26.72m20-52.77H75.13l-.51,1.23L43.06,118.32l-1.16,2.77H50a3.93,3.93,0,0,0,1.93-.41,3.27,3.27,0,0,0,1.43-1.74l7.33-17.78H99.08L106.69,119l0,.05,0,.05a3.6,3.6,0,0,0,3.35,2h8.22l-1.21-2.79L84.93,43.77a3.6,3.6,0,0,0-3.45-2.26ZM64.42,92.27l9.83-24c2.13-5.12,3.93-9.61,5.38-13.42,1.28,3.18,3.14,7.71,5.62,13.65l10,23.73Z"/></g></svg>