<svg xmlns="http://www.w3.org/2000/svg" viewBox="0 0 160 160"><defs><style>.cls-1{fill:#fff;}</style></defs><title>m</title><g id="circle"><path class="cls-1" d="M80,2A78,78,0,1,1,2,80,78.09,78.09,0,0,1,80,2m0-2a80,80,0,1,0,80,80A80,80,0,0,0,80,0Z"/></g><g id="M"><path class="cls-1" d="M117.43,43.5v75.59h-5.79V66.32q0-9.13.11-12.91-3.17,4.73-7.62,10.74L82.59,93.43H79a2.32,2.32,0,0,1-1.89-.89L55.93,63.71Q50.47,56.36,48.35,53q.11,3.79.11,12.91v53.21H42.68V43.5h4a3.18,3.18,0,0,1,1.11.14,2.48,2.48,0,0,1,.83.81L80.31,87.75l31.77-43.31a2.14,2.14,0,0,1,1.84-.95h3.52m2-2h-5.52a4.15,4.15,0,0,0-3.47,1.79L80.31,84.37,50.25,43.27a4.16,4.16,0,0,0-1.68-1.47,4.89,4.89,0,0,0-1.89-.29h-6v79.59h9.79V65.88q0-3.53,0-6.28,1.66,2.32,3.87,5.3l21.2,28.83,0,0,0,0A4.3,4.3,0,0,0,79,95.43H83.6l.6-.81,21.54-29.28q2.09-2.82,3.92-5.39,0,2.78,0,6.38v54.77h9.79V41.5Z"/></g></svg>