<svg xmlns="http://www.w3.org/2000/svg" viewBox="0 0 160 160"><defs><style>.cls-1{fill:#fff;}</style></defs><title>r</title><g id="circle"><path class="cls-1" d="M80,2A78,78,0,1,1,2,80,78.09,78.09,0,0,1,80,2m0-2a80,80,0,1,0,80,80A80,80,0,0,0,80,0Z"/></g><g id="R"><path class="cls-1" d="M80.61,43.5q14.1,0,20.45,6.18,5.68,5.51,5.68,16.42a29.11,29.11,0,0,1-3.41,14.4,17.58,17.58,0,0,1-9.73,8.36l17.46,30.24h-5.12a2.08,2.08,0,0,1-1.84-.89L88.32,90.59a3,3,0,0,0-.75-1,2.33,2.33,0,0,0-1.14-.19H60.32v29.67H54.26V43.5H80.61m-20.29,41H87.77q6.57,0,9.35-4.18,3.56-5.4,3.56-14,0-9.3-4.34-13.47a14.52,14.52,0,0,0-6.43-3.4A41.37,41.37,0,0,0,79.58,48.4H60.32V84.53m20.29-43H52.26v79.59H62.32V91.42H86.49l.1.16,15.78,27.61,0,.07,0,.07a4.09,4.09,0,0,0,3.48,1.75h8.58l-1.73-3L96.47,89.82a19.73,19.73,0,0,0,8.61-8.35,31.21,31.21,0,0,0,3.66-15.37c0-7.8-2.12-13.81-6.29-17.86-4.6-4.47-11.95-6.74-21.84-6.74ZM62.32,50.4H79.58a39.65,39.65,0,0,1,9.81,1A12.63,12.63,0,0,1,95,54.3c2.47,2.37,3.72,6.42,3.72,12,0,5.33-1.09,9.67-3.23,12.93-1.47,2.2-4,3.28-7.68,3.28H62.32V50.4Z"/></g></svg>