<svg xmlns="http://www.w3.org/2000/svg" viewBox="0 0 160 160"><defs><style>.cls-1{fill:#fff;}</style></defs><title>s</title><g id="circle"><path class="cls-1" d="M80,2A78,78,0,1,1,2,80,78.09,78.09,0,0,1,80,2m0-2a80,80,0,1,0,80,80A80,80,0,0,0,80,0Z"/></g><g id="S"><path class="cls-1" d="M80.08,41.09a48.6,48.6,0,0,1,11.08,1.45l11.49,2.72-1.17,3.56-5.57-.89a105.52,105.52,0,0,0-15.75-1.5q-18.82,0-18.81,12.08A10.24,10.24,0,0,0,65,66.78Q68.71,69.87,77.35,73l8.08,3a67.43,67.43,0,0,1,8.46,3.67,33.36,33.36,0,0,1,6.3,4.34,15.87,15.87,0,0,1,4.25,5.79,19.17,19.17,0,0,1,1.39,7.52q0,9.91-7.37,15.78t-18.82,5.87a40.45,40.45,0,0,1-13.09-2.43l-12.37-4.25,1.61-3.34,7,2.06a56.19,56.19,0,0,0,16.78,2.84q9.87,0,15.19-4.59A15.28,15.28,0,0,0,100,97q0-5.84-3.62-9.16T83.76,81.23L75.4,78.11q-10.59-3.9-15.1-8.38a15,15,0,0,1-4.51-11.1,14.84,14.84,0,0,1,6.66-12.91q6.66-4.62,17.64-4.62m0-2c-7.7,0-14,1.67-18.78,5a16.8,16.8,0,0,0-7.52,14.56,17,17,0,0,0,5.1,12.52c3.24,3.22,8.42,6.11,15.82,8.84l8.35,3.11c5.75,2.13,9.79,4.23,12,6.25,2,1.83,3,4.34,3,7.68a13.26,13.26,0,0,1-4.63,10.65c-3.16,2.73-7.83,4.11-13.88,4.11A54.47,54.47,0,0,1,63.34,109l-7-2.07-1.63-.48L54,108l-1.61,3.34-1,2,2.13.73,12.37,4.25a42.62,42.62,0,0,0,13.74,2.53c8.07,0,14.82-2.12,20.07-6.31a21.13,21.13,0,0,0,8.12-17.34A21.24,21.24,0,0,0,106.28,89a17.92,17.92,0,0,0-4.77-6.52,35.51,35.51,0,0,0-6.68-4.6,69.71,69.71,0,0,0-8.71-3.79l-8.09-3c-5.52-2-9.46-4-11.72-5.86a8.27,8.27,0,0,1-3-6.73c0-2.49,0-10.08,16.81-10.08a104.12,104.12,0,0,1,15.44,1.48l5.56.89,1.68.27.53-1.62,1.17-3.56.68-2.07-2.12-.5L95.43,41.5l-3.8-.9a50.82,50.82,0,0,0-11.54-1.51Z"/></g></svg>