<?xml version="1.0" encoding="utf-8"?>
<!-- Generator: Adobe Illustrator 21.1.0, SVG Export Plug-In . SVG Version: 6.00 Build 0)  -->
<svg version="1.1" id="Layer_1" xmlns="http://www.w3.org/2000/svg" xmlns:xlink="http://www.w3.org/1999/xlink" x="0px" y="0px"
	 viewBox="0 0 160 160" style="enable-background:new 0 0 160 160;" xml:space="preserve">
<style type="text/css">
	.st0{fill:#FFFFFF;}
</style>
<g>
	<path class="st0" d="M80,2c43,0,78,35,78,78s-35,78-78,78S2,123,2,80S37,2,80,2 M80,0C35.8,0,0,35.8,0,80s35.8,80,80,80
		s80-35.8,80-80S124.2,0,80,0L80,0z"/>
</g>
<g>
	<g>
		<g>
			<g>
				<path class="st0" d="M42.4,126c-0.6,0-1-0.4-1-1V35c0-0.6,0.4-1,1-1s1,0.4,1,1v90C43.4,125.6,43,126,42.4,126z"/>
			</g>
		</g>
		<g>
			<g>
				<path class="st0" d="M129.7,115.1H31.5c-0.6,0-1-0.4-1-1s0.4-1,1-1h98.2c0.6,0,1,0.4,1,1S130.3,115.1,129.7,115.1z"/>
			</g>
		</g>
	</g>
	<g>
		<g>
			<g>
				<path class="st0" d="M60.1,107.7c0,0-0.1,0-0.1,0c-0.3,0-0.5-0.2-0.7-0.4l-11-14.2c-0.3-0.4-0.3-1.1,0.2-1.4l33.3-25.8l-9-11.7
					c-0.2-0.3-0.3-0.7-0.1-1s0.4-0.6,0.8-0.6l49-6.6c0.4,0,0.7,0.1,0.9,0.4c0.2,0.3,0.3,0.7,0.1,1l-18.8,45.8
					c-0.1,0.3-0.4,0.6-0.8,0.6c-0.4,0-0.7-0.1-0.9-0.4l-9-11.7l-33.3,25.8C60.6,107.6,60.3,107.7,60.1,107.7z M50.6,92.7l9.7,12.6
					l33.3-25.8c0.2-0.2,0.5-0.2,0.7-0.2c0.3,0,0.5,0.2,0.7,0.4l8.6,11.1l17.5-42.6l-45.6,6.2l8.6,11.1c0.2,0.2,0.2,0.5,0.2,0.7
					c0,0.3-0.2,0.5-0.4,0.7L50.6,92.7z"/>
			</g>
		</g>
	</g>
</g>
</svg>
