<?xml version="1.0" encoding="utf-8"?>
<!-- Generator: Adobe Illustrator 21.1.0, SVG Export Plug-In . SVG Version: 6.00 Build 0)  -->
<svg version="1.1" id="Layer_1" xmlns="http://www.w3.org/2000/svg" xmlns:xlink="http://www.w3.org/1999/xlink" x="0px" y="0px"
	 viewBox="0 0 160 160" style="enable-background:new 0 0 160 160;" xml:space="preserve">
<style type="text/css">
	.st0{fill:#FFFFFF;}
</style>
<g>
	<path class="st0" d="M80,2c43,0,78,35,78,78s-35,78-78,78S2,123,2,80S37,2,80,2 M80,0C35.8,0,0,35.8,0,80s35.8,80,80,80
		s80-35.8,80-80S124.2,0,80,0L80,0z"/>
</g>
<g>
	<g>
		<path class="st0" d="M99.7,101H62.9c-0.5,0-1-0.4-1-1c-0.1-2.3-0.2-10,0.9-11.7c1-1.6,3.6-2.6,6.6-3.8c0.8-0.3,1.6-0.6,2.4-1
			c2.2-0.9,3.4-1.5,3.9-1.8l0-2.5c-0.5-0.6-1.3-1.7-1.7-3.9c-0.2-0.1-0.3-0.1-0.4-0.2c-0.9-0.6-1.5-1.9-1.5-2.7c0-0.1-0.1-2.4,1-3.4
			c0,0,0.1-0.1,0.1-0.1c-0.2-1.6-0.3-2.6-0.2-3.3c0.3-3.3,3.5-6.7,8.4-6.7c4.8,0,8,3.4,8.4,6.7c0.1,0.6,0,1.6-0.2,3.3
			c0,0,0.1,0.1,0.1,0.1c1.1,1,1,3.3,1,3.4c0,0.8-0.6,2.1-1.5,2.7c-0.1,0.1-0.3,0.2-0.4,0.2c-0.4,2.2-1.2,3.4-1.7,3.9l0,2.5
			c0.6,0.3,1.7,0.8,3.9,1.8c0.8,0.3,1.6,0.7,2.4,1c3,1.1,5.5,2.1,6.6,3.8l0,0c1.1,1.7,0.9,9.4,0.9,11.7
			C100.7,100.6,100.3,101,99.7,101z M63.9,99h34.9c0.1-4.2-0.1-8.8-0.6-9.6l0.8-0.5l-0.8,0.5c-0.7-1.1-3.1-2-5.6-3
			c-0.8-0.3-1.6-0.6-2.5-1c-3.7-1.5-4.6-2.1-4.7-2.1c-0.3-0.2-0.5-0.5-0.5-0.8l0-3.5c0-0.3,0.1-0.6,0.4-0.8l0,0c0,0,1.1-0.9,1.4-3.7
			c0-0.3,0.2-0.5,0.4-0.7c0.2-0.1,0.5-0.2,0.7-0.1c0.2-0.2,0.6-0.8,0.7-1.2c0-0.6-0.1-1.4-0.2-1.7c-0.2,0-0.5-0.1-0.6-0.3
			c-0.2-0.2-0.4-0.5-0.3-0.9c0.2-1.2,0.4-2.9,0.3-3.6C87.4,63.5,85,61,81.3,61c-3.7,0-6.1,2.5-6.4,4.9c-0.1,0.8,0.2,2.9,0.3,3.6
			c0,0.3-0.1,0.6-0.3,0.9c-0.2,0.2-0.4,0.3-0.6,0.3C74.1,71,74,71.8,74,72.4c0,0.4,0.4,1,0.7,1.2c0.2,0,0.5,0,0.7,0.1
			c0.2,0.2,0.4,0.4,0.4,0.7c0.4,2.8,1.4,3.7,1.4,3.7c0.2,0.2,0.4,0.5,0.4,0.8l0,3.5c0,0.3-0.2,0.7-0.5,0.8c-0.1,0.1-1,0.6-4.7,2.1
			c-0.8,0.3-1.7,0.7-2.5,1c-2.5,1-4.9,1.9-5.6,3C63.9,90.2,63.8,94.8,63.9,99z"/>
	</g>
</g>
<g>
	<g>
		<path class="st0" d="M149.7,101h-36.8c-0.5,0-1-0.4-1-1c-0.1-2.3-0.2-10,0.9-11.7c1-1.6,3.6-2.6,6.6-3.8c0.8-0.3,1.6-0.6,2.4-1
			c2.2-0.9,3.4-1.5,3.9-1.8l0-2.5c-0.5-0.6-1.3-1.7-1.7-3.9c-0.2-0.1-0.3-0.1-0.4-0.2c-0.9-0.6-1.5-1.9-1.5-2.7c0-0.1-0.1-2.4,1-3.4
			c0,0,0.1-0.1,0.1-0.1c-0.2-1.6-0.3-2.6-0.2-3.3c0.3-3.3,3.5-6.7,8.4-6.7c4.8,0,8,3.4,8.4,6.7c0.1,0.6,0,1.6-0.2,3.3
			c0,0,0.1,0.1,0.1,0.1c1.1,1,1,3.3,1,3.4c0,0.8-0.6,2.1-1.5,2.7c-0.1,0.1-0.3,0.2-0.4,0.2c-0.4,2.2-1.2,3.4-1.7,3.9l0,2.5
			c0.6,0.3,1.7,0.8,3.9,1.8c0.8,0.3,1.6,0.7,2.4,1c3,1.1,5.5,2.1,6.6,3.8l0,0c1.1,1.7,0.9,9.4,0.9,11.7
			C150.7,100.6,150.3,101,149.7,101z M113.9,99h34.9c0.1-4.2-0.1-8.8-0.6-9.6l0.8-0.5l-0.8,0.5c-0.7-1.1-3.1-2-5.6-3
			c-0.8-0.3-1.6-0.6-2.5-1c-3.7-1.5-4.6-2.1-4.7-2.1c-0.3-0.2-0.5-0.5-0.5-0.8l0-3.5c0-0.3,0.1-0.6,0.4-0.8l0,0c0,0,1.1-0.9,1.4-3.7
			c0-0.3,0.2-0.5,0.4-0.7c0.2-0.1,0.5-0.2,0.7-0.1c0.2-0.2,0.6-0.8,0.7-1.2c0-0.6-0.1-1.4-0.2-1.7c-0.2,0-0.5-0.1-0.6-0.3
			c-0.2-0.2-0.4-0.5-0.3-0.9c0.2-1.2,0.4-2.9,0.3-3.6c-0.2-2.4-2.7-4.9-6.4-4.9c-3.7,0-6.1,2.5-6.4,4.9c-0.1,0.7,0.1,2.4,0.3,3.6
			c0,0.3-0.1,0.6-0.3,0.9c-0.2,0.2-0.4,0.3-0.6,0.3c-0.1,0.3-0.3,1.1-0.2,1.7c0,0.4,0.4,1,0.7,1.2c0.2,0,0.5,0,0.7,0.1
			c0.2,0.2,0.4,0.4,0.4,0.7c0.4,2.8,1.4,3.7,1.4,3.7c0.2,0.2,0.4,0.5,0.4,0.8l0,3.5c0,0.3-0.2,0.7-0.5,0.8c-0.1,0.1-1,0.6-4.7,2.1
			c-0.8,0.3-1.7,0.7-2.5,1c-2.5,1-4.9,1.9-5.6,3C113.9,90.2,113.8,94.8,113.9,99z"/>
	</g>
</g>
<g>
	<g>
		<path class="st0" d="M49.7,101H12.9c-0.5,0-1-0.4-1-1c-0.1-2.3-0.2-10,0.9-11.7c1-1.6,3.6-2.6,6.6-3.8c0.8-0.3,1.6-0.6,2.4-1
			c2.2-0.9,3.4-1.5,3.9-1.8l0-2.5c-0.5-0.6-1.3-1.7-1.7-3.9c-0.2-0.1-0.3-0.1-0.4-0.2c-0.9-0.6-1.5-1.9-1.5-2.7c0-0.1-0.1-2.4,1-3.4
			c0,0,0.1-0.1,0.1-0.1c-0.2-1.6-0.3-2.6-0.2-3.3c0.3-3.3,3.5-6.7,8.4-6.7c4.8,0,8,3.4,8.4,6.7c0.1,0.6,0,1.6-0.2,3.3
			c0,0,0.1,0.1,0.1,0.1c1.1,1,1,3.3,1,3.4c0,0.8-0.6,2.1-1.5,2.7c-0.1,0.1-0.3,0.2-0.4,0.2c-0.4,2.2-1.2,3.4-1.7,3.9l0,2.5
			c0.6,0.3,1.7,0.8,3.9,1.8c0.8,0.3,1.6,0.7,2.4,1c3,1.1,5.5,2.1,6.6,3.8l0,0c1.1,1.7,0.9,9.4,0.9,11.7
			C50.7,100.6,50.3,101,49.7,101z M13.9,99h34.9c0.1-4.2-0.1-8.8-0.6-9.6l0.8-0.5l-0.8,0.5c-0.7-1.1-3.1-2-5.6-3
			c-0.8-0.3-1.6-0.6-2.5-1c-3.6-1.5-4.6-2.1-4.7-2.1c-0.3-0.2-0.5-0.5-0.5-0.8l0-3.5c0-0.3,0.1-0.6,0.4-0.8l0,0c0,0,1.1-0.9,1.4-3.7
			c0-0.3,0.2-0.5,0.4-0.7c0.2-0.1,0.5-0.2,0.7-0.1c0.2-0.2,0.6-0.8,0.7-1.2c0-0.6-0.1-1.4-0.2-1.7c-0.2,0-0.5-0.1-0.6-0.3
			c-0.2-0.2-0.4-0.5-0.3-0.9c0.1-0.8,0.4-2.8,0.3-3.6C37.4,63.5,35,61,31.3,61c-3.7,0-6.1,2.5-6.4,4.9c-0.1,0.8,0.2,2.9,0.3,3.6
			c0,0.3-0.1,0.6-0.3,0.9c-0.2,0.2-0.4,0.3-0.6,0.3C24.1,71,24,71.8,24,72.4c0,0.4,0.4,1,0.7,1.2c0.2,0,0.5,0,0.7,0.1
			c0.2,0.2,0.4,0.4,0.4,0.7c0.4,2.8,1.4,3.7,1.4,3.7c0.2,0.2,0.4,0.5,0.4,0.8l0,3.5c0,0.3-0.2,0.7-0.5,0.8c-0.1,0.1-1,0.6-4.7,2.1
			c-0.8,0.3-1.7,0.7-2.5,1c-2.5,1-4.9,1.9-5.6,3C13.9,90.2,13.8,94.8,13.9,99z"/>
	</g>
</g>
<g>
	<g>
		<rect x="3" y="99" class="st0" width="1" height="2"/>
	</g>
	<g>
		<path class="st0" d="M154,101h-2v-2h2V101z M150.1,101h-2v-2h2V101z M146.1,101h-2v-2h2V101z M142.2,101h-2v-2h2V101z M138.2,101
			h-2v-2h2V101z M134.3,101h-2v-2h2V101z M130.3,101h-2v-2h2V101z M126.4,101h-2v-2h2V101z M122.4,101h-2v-2h2V101z M118.5,101h-2
			v-2h2V101z M114.5,101h-2v-2h2V101z M110.6,101h-2v-2h2V101z M106.6,101h-2v-2h2V101z M102.7,101h-2v-2h2V101z M98.8,101h-2v-2h2
			V101z M94.8,101h-2v-2h2V101z M90.9,101h-2v-2h2V101z M86.9,101h-2v-2h2V101z M83,101h-2v-2h2V101z M79,101h-2v-2h2V101z
			 M75.1,101h-2v-2h2V101z M71.1,101h-2v-2h2V101z M67.2,101h-2v-2h2V101z M63.2,101h-2v-2h2V101z M59.3,101h-2v-2h2V101z M55.3,101
			h-2v-2h2V101z M51.4,101h-2v-2h2V101z M47.4,101h-2v-2h2V101z M43.5,101h-2v-2h2V101z M39.5,101h-2v-2h2V101z M35.6,101h-2v-2h2
			V101z M31.6,101h-2v-2h2V101z M27.7,101h-2v-2h2V101z M23.7,101h-2v-2h2V101z M19.8,101h-2v-2h2V101z M15.8,101h-2v-2h2V101z
			 M11.9,101h-2v-2h2V101z M7.9,101H6v-2h2V101z"/>
	</g>
	<g>
		<rect x="156" y="99" class="st0" width="1" height="2"/>
	</g>
</g>
<g>
	<g>
		<rect x="3" y="59" class="st0" width="1" height="2"/>
	</g>
	<g>
		<path class="st0" d="M154,61h-2v-2h2V61z M150.1,61h-2v-2h2V61z M146.1,61h-2v-2h2V61z M142.2,61h-2v-2h2V61z M138.2,61h-2v-2h2
			V61z M134.3,61h-2v-2h2V61z M130.3,61h-2v-2h2V61z M126.4,61h-2v-2h2V61z M122.4,61h-2v-2h2V61z M118.5,61h-2v-2h2V61z M114.5,61
			h-2v-2h2V61z M110.6,61h-2v-2h2V61z M106.6,61h-2v-2h2V61z M102.7,61h-2v-2h2V61z M98.8,61h-2v-2h2V61z M94.8,61h-2v-2h2V61z
			 M90.9,61h-2v-2h2V61z M86.9,61h-2v-2h2V61z M83,61h-2v-2h2V61z M79,61h-2v-2h2V61z M75.1,61h-2v-2h2V61z M71.1,61h-2v-2h2V61z
			 M67.2,61h-2v-2h2V61z M63.2,61h-2v-2h2V61z M59.3,61h-2v-2h2V61z M55.3,61h-2v-2h2V61z M51.4,61h-2v-2h2V61z M47.4,61h-2v-2h2V61
			z M43.5,61h-2v-2h2V61z M39.5,61h-2v-2h2V61z M35.6,61h-2v-2h2V61z M31.6,61h-2v-2h2V61z M27.7,61h-2v-2h2V61z M23.7,61h-2v-2h2
			V61z M19.8,61h-2v-2h2V61z M15.8,61h-2v-2h2V61z M11.9,61h-2v-2h2V61z M7.9,61H6v-2h2V61z"/>
	</g>
	<g>
		<rect x="156" y="59" class="st0" width="1" height="2"/>
	</g>
</g>
</svg>
