<?xml version="1.0" encoding="utf-8"?>
<!-- Generator: Adobe Illustrator 21.1.0, SVG Export Plug-In . SVG Version: 6.00 Build 0)  -->
<svg version="1.1" id="Layer_1" xmlns="http://www.w3.org/2000/svg" xmlns:xlink="http://www.w3.org/1999/xlink" x="0px" y="0px"
	 viewBox="0 0 160 160" style="enable-background:new 0 0 160 160;" xml:space="preserve">
<style type="text/css">
	.st0{fill:#FFFFFF;}
</style>
<g>
	<path class="st0" d="M80,2c43,0,78,35,78,78s-35,78-78,78S2,123,2,80S37,2,80,2 M80,0C35.8,0,0,35.8,0,80s35.8,80,80,80
		s80-35.8,80-80S124.2,0,80,0L80,0z"/>
</g>
<g>
	<g>
		<path class="st0" d="M80,129.4c-13.6,0-24.7-11.1-24.7-24.7C55.3,91.1,66.4,80,80,80c13.6,0,24.7,11.1,24.7,24.7
			C104.7,118.3,93.6,129.4,80,129.4z M80,82c-12.5,0-22.7,10.2-22.7,22.7c0,12.5,10.2,22.7,22.7,22.7c12.5,0,22.7-10.2,22.7-22.7
			C102.7,92.2,92.5,82,80,82z"/>
	</g>
	<g>
		<path class="st0" d="M35.1,145.9c-0.1,0-0.2,0-0.3-0.1c-0.5-0.2-0.8-0.7-0.6-1.3c3.7-11.2,11.5-20.6,21.7-26.6
			c0.5-0.3,1.1-0.1,1.4,0.3c4.9,8.1,13.4,12.9,22.8,12.9s17.9-4.8,22.8-12.9c0.3-0.5,0.9-0.6,1.4-0.3c10.3,5.9,18,15.4,21.7,26.5
			c0.2,0.5-0.1,1.1-0.6,1.3c-0.5,0.2-1.1-0.1-1.3-0.6c-3.5-10.4-10.6-19.2-20-25c-5.3,8.2-14.2,13-24,13c-9.8,0-18.7-4.9-24-13
			c-9.4,5.7-16.5,14.5-20,25C35.9,145.7,35.5,145.9,35.1,145.9z"/>
	</g>
</g>
<g>
	<path class="st0" d="M108,92.5c-2.8,0-5-2.2-5-5s2.2-5,5-5s5,2.2,5,5S110.8,92.5,108,92.5z M108,84.5c-1.7,0-3,1.3-3,3s1.3,3,3,3
		s3-1.3,3-3S109.7,84.5,108,84.5z"/>
</g>
<g>
	<path class="st0" d="M113.8,80.8c-3.9,0-7-3.1-7-7s3.1-7,7-7s7,3.1,7,7S117.6,80.8,113.8,80.8z M113.8,68.8c-2.8,0-5,2.2-5,5
		s2.2,5,5,5s5-2.2,5-5S116.5,68.8,113.8,68.8z"/>
</g>
<g>
	<path class="st0" d="M80,54.3c-7.7,0-14-6.3-14-14s6.3-14,14-14s14,6.3,14,14S87.7,54.3,80,54.3z M80,28.3c-6.6,0-12,5.4-12,12
		s5.4,12,12,12c6.6,0,12-5.4,12-12S86.6,28.3,80,28.3z"/>
</g>
<g>
	<path class="st0" d="M80,45.3c-2.8,0-5-2.2-5-5s2.2-5,5-5s5,2.2,5,5S82.8,45.3,80,45.3z M80,37.3c-1.7,0-3,1.3-3,3s1.3,3,3,3
		s3-1.3,3-3S81.7,37.3,80,37.3z"/>
</g>
<g>
	<path class="st0" d="M80,71.3c-25.4,0-46-13.9-46-31s20.6-31,46-31s46,13.9,46,31S105.4,71.3,80,71.3z M80,11.3
		c-24.3,0-44,13-44,29s19.7,29,44,29s44-13,44-29S104.3,11.3,80,11.3z"/>
</g>
<g>
	<path class="st0" d="M65.7,52.2c-0.1,0-0.2,0-0.3,0C56,49.1,51,43.8,51,40.3c0-5.6,11.6-14,29-14s29,8.4,29,14
		c0,3.5-5,8.8-14.4,11.8c-0.5,0.2-1.1-0.1-1.3-0.6c-0.2-0.5,0.1-1.1,0.6-1.3c8.9-2.9,13-7.6,13-9.9c0-3.5-9.5-12-27-12
		c-17.5,0-27,8.5-27,12c0,2.3,4.1,7.1,13,9.9c0.5,0.2,0.8,0.7,0.6,1.3C66.5,51.9,66.1,52.2,65.7,52.2z"/>
</g>
</svg>
