<?xml version="1.0" encoding="utf-8"?>
<!-- Generator: Adobe Illustrator 21.1.0, SVG Export Plug-In . SVG Version: 6.00 Build 0)  -->
<svg version="1.1" id="Layer_1" xmlns="http://www.w3.org/2000/svg" xmlns:xlink="http://www.w3.org/1999/xlink" x="0px" y="0px"
	 viewBox="0 0 160 160" style="enable-background:new 0 0 160 160;" xml:space="preserve">
<style type="text/css">
	.st0{fill:#FFFFFF;}
</style>
<g>
	<path class="st0" d="M80,2c43,0,78,35,78,78s-35,78-78,78S2,123,2,80S37,2,80,2 M80,0C35.8,0,0,35.8,0,80s35.8,80,80,80
		s80-35.8,80-80S124.2,0,80,0L80,0z"/>
</g>
<g>
	<path class="st0" d="M116.4,74.5c0.2-0.1,0.4-0.1,0.5-0.2c0,0,0.1,0,0.1-0.1c0.2-0.1,0.4-0.2,0.5-0.3c0.2-0.1,0.4-0.3,0.5-0.5
		c1.3-1.5,1.3-3.8-0.2-5.1l-2.7-2.5c0,0,0,0,0,0l0,0c-0.6-0.5-1-1.6-1-2.3v-7.2v0c0,0,0,0,0,0c0.1-4.5-2.4-10.7-5.4-14.2
		c-0.2-0.2-0.4-0.4-0.6-0.7c-0.4-0.4-0.8-0.9-1.2-1.3c0,0-0.1-0.1-0.1-0.1c-4.7-4.7-12.2-8.4-19.4-9.7c0,0-0.1,0-0.1,0
		c-0.6-0.1-1.2-0.2-1.8-0.3c-0.2,0-0.3,0-0.5,0c-0.5-0.1-0.9-0.1-1.4-0.1c-0.2,0-0.5,0-0.7,0c-0.4,0-0.8,0-1.1,0c-0.3,0-0.6,0-0.8,0
		c-0.3,0-0.6,0-0.9,0c-0.3,0-0.5,0-0.8,0c-0.3,0-0.7,0-1,0c-0.2,0-0.4,0-0.6,0c-0.4,0-0.8,0-1.2,0c-0.2,0-0.3,0-0.5,0
		c-0.5,0-1,0.1-1.4,0.1c-0.1,0-0.3,0-0.4,0.1c-0.5,0.1-1,0.1-1.5,0.2c-0.1,0-0.3,0.1-0.4,0.1c-0.5,0.1-1,0.2-1.5,0.3
		C70.3,30.9,70,31,69.7,31c-0.3,0.1-0.7,0.2-1,0.3c-6.5,2-12.9,5.7-16.7,10.1c-0.2,0.2-0.4,0.4-0.6,0.7c-3.1,3.6-5.5,9.7-5.4,14.2
		v7.2c0,0,0,0,0,0v0c0,0.7-0.5,1.8-1,2.3l-2.7,2.5c0,0,0,0,0,0l0,0c0,0,0,0,0,0c0,0-0.1,0.1-0.1,0.1c0,0-0.1,0.1-0.1,0.1
		c-0.1,0.1-0.1,0.1-0.2,0.2c0,0.1-0.1,0.1-0.1,0.2c0,0.1-0.1,0.2-0.1,0.2c0,0.1-0.1,0.1-0.1,0.2c0,0.1-0.1,0.2-0.1,0.3
		c0,0.1-0.1,0.1-0.1,0.2c0,0.1-0.1,0.2-0.1,0.3c0,0.1,0,0.1-0.1,0.2c0,0.1,0,0.2,0,0.3c0,0.1,0,0.1,0,0.2c0,0.1,0,0.2,0,0.3
		c0,0.1,0,0.1,0,0.2c0,0.1,0,0.3,0.1,0.4c0.3,1.7,1.8,3,3.6,3c0,0,0,0,0.1,0c0,0,0,0,0,0c0,0,0.1,0,0.1,0c0.1,0,0.2,0,0.4,0
		c4.4-0.5,11.7,0.2,15.7,1.5c4,1.6,11,2.8,15.7,2.8c0.3,0,0.6,0,0.9,0c0.1,0,0.1,0,0.2,0H80h2.3c0.3,0,0.6,0,0.9,0c0,0,0.1,0,0.1,0
		c0.2,0,0.5,0,0.8,0c0,0,0,0,0,0c1.3,0,2.8-0.2,4.3-0.3c0.1,0,0.1,0,0.2,0c0.3,0,0.6-0.1,0.9-0.1c0.1,0,0.2,0,0.3,0
		c0.3,0,0.5-0.1,0.8-0.1c0.2,0,0.3-0.1,0.5-0.1c0.2,0,0.4-0.1,0.6-0.1c0.2,0,0.4-0.1,0.6-0.1c0.2,0,0.3-0.1,0.5-0.1
		c0.2,0,0.4-0.1,0.7-0.1c0.1,0,0.3-0.1,0.4-0.1c0.2-0.1,0.5-0.1,0.7-0.2c0.1,0,0.2,0,0.3-0.1c0.3-0.1,0.5-0.1,0.8-0.2
		c0.1,0,0.1,0,0.2-0.1c0.3-0.1,0.5-0.1,0.8-0.2c0.1,0,0.1,0,0.2-0.1c0.2-0.1,0.5-0.1,0.7-0.2c0.1,0,0.2-0.1,0.3-0.1
		c0.2-0.1,0.4-0.1,0.6-0.2c0.3-0.1,0.5-0.2,0.8-0.3c4-1.3,11.4-2,15.7-1.5c0.1,0,0.2,0,0.3,0c0,0,0.1,0,0.1,0c0,0,0.1,0,0.1,0
		c0.1,0,0.2,0,0.4,0c0.1,0,0.3,0,0.4,0C116.2,74.6,116.3,74.5,116.4,74.5z M43.5,69.9C43.5,69.9,43.5,69.9,43.5,69.9l2.7-2.5
		c0,0,0,0,0,0c1-0.9,1.8-2.6,1.7-3.8v-7.2v0c0-0.3,0-0.6,0-0.9c0.2-3.9,2.3-9,4.9-12c0.2-0.2,0.3-0.4,0.5-0.6c0,0,0,0,0,0
		c0,0,0,0,0.1-0.1c5.7-6.6,17.8-11.6,26.5-10.9c0.1,0,0.1,0,0.2,0c8.2-0.7,19.3,3.7,25.4,9.7c0.4,0.4,0.7,0.8,1.1,1.2c0,0,0,0,0,0
		c0,0,0,0,0.1,0.1c0.2,0.2,0.4,0.4,0.6,0.6c2.8,3.2,5,8.8,4.9,12.8v7.2c0,0,0,0,0,0c0,1.3,0.7,3,1.7,3.8l2.7,2.5c0,0,0,0,0,0l0,0
		c0.7,0.6,0.7,1.6,0.1,2.3c-0.1,0.1-0.1,0.1-0.2,0.2c-0.1,0-0.1,0.1-0.2,0.1c0,0-0.1,0-0.1,0c-0.1,0-0.1,0-0.2,0.1c0,0-0.1,0-0.1,0
		c0,0-0.1,0-0.1,0c-0.1,0-0.1,0-0.2,0c-0.1,0-0.2,0-0.4,0c-4.7-0.6-12.3,0.2-16.6,1.6c0,0,0,0,0,0c0,0,0,0,0,0
		c-2.8,1.1-7.2,2-11.2,2.4c0,0,0,0-0.1,0c-0.1,0-0.2,0-0.3,0c-1.3,0.1-2.6,0.2-3.7,0.2c-0.3,0-0.6,0-0.8,0c0,0,0,0,0,0c0,0,0,0,0,0
		H80h-2.3c0,0,0,0,0,0h0c-2.4,0.1-5.8-0.2-9.1-0.8c-2.3-0.4-4.5-0.9-6.2-1.5c-0.3-0.1-0.5-0.2-0.8-0.3c0,0,0,0,0,0c0,0,0,0,0,0
		c-0.4-0.1-0.8-0.2-1.2-0.4c-0.1,0-0.2-0.1-0.3-0.1c-0.4-0.1-0.9-0.2-1.3-0.3c0,0-0.1,0-0.1,0c-0.4-0.1-0.9-0.2-1.3-0.3
		c-0.1,0-0.2,0-0.3-0.1c-0.5-0.1-1-0.2-1.5-0.2c-0.1,0-0.1,0-0.2,0c-0.5-0.1-1-0.1-1.5-0.2c-0.1,0-0.2,0-0.2,0
		c-0.5-0.1-1.1-0.1-1.6-0.1c-0.1,0-0.1,0-0.2,0c-0.5,0-1-0.1-1.5-0.1c0,0-0.1,0-0.1,0c-0.5,0-1,0-1.5,0c0,0-0.1,0-0.1,0
		c0,0-0.1,0-0.1,0c-0.6,0-1.2,0-1.7,0c0,0-0.1,0-0.1,0c-0.6,0-1.1,0.1-1.6,0.1c-0.1,0-0.3,0-0.4,0c-0.1,0-0.2,0-0.3-0.1
		c-0.1,0-0.2,0-0.2,0c-0.1,0-0.2-0.1-0.3-0.2c-0.1,0-0.1-0.1-0.2-0.1c-0.1-0.1-0.2-0.2-0.2-0.3c0-0.1-0.1-0.1-0.1-0.2
		c-0.1-0.2-0.2-0.4-0.2-0.6C42.9,70.8,43.1,70.2,43.5,69.9z"/>
	<g>
		<path class="st0" d="M87,130.2H73c-6.6,0-13.9-8.5-16.9-14.6c-2.5-5.1-3.7-12.8-4-15.4H50c-0.6,0-1.6,0-3.8-7.3
			c-0.5-1.6-2.2-7.3-2.2-10.7c0-3.5,1.8-4.8,2.8-5.2c1.4-0.6,3-0.4,3.9,0.5c0.4,0.4,0.4,1,0,1.4s-1,0.4-1.4,0
			c-0.2-0.2-0.9-0.4-1.7-0.1c-1,0.4-1.6,1.6-1.6,3.4c0,4.6,3.3,14.3,4.4,16H53c0.5,0,0.9,0.4,1,0.9c0,0.1,1,9.9,3.9,15.7
			c2.8,5.6,9.6,13.4,15.1,13.4h14c5.5,0,12.3-7.8,15.1-13.4c2.9-5.8,3.9-15.6,3.9-15.7c0.1-0.5,0.5-0.9,1-0.9h2.6
			c1.1-1.7,4.4-11.4,4.4-16c0-1.8-0.5-2.9-1.6-3.4c-0.8-0.3-1.6-0.1-1.7,0.1c-0.4,0.4-1,0.4-1.4,0s-0.4-1,0-1.4
			c0.8-0.9,2.5-1.1,3.9-0.5c1.1,0.4,2.8,1.7,2.8,5.2c0,3.4-1.7,9-2.2,10.7c-2.3,7.3-3.2,7.3-3.8,7.3h-2.1c-0.3,2.6-1.4,10.3-4,15.4
			C100.8,121.7,93.6,130.2,87,130.2z"/>
	</g>
</g>
</svg>
