<?xml version="1.0" encoding="utf-8"?>
<!-- Generator: Adobe Illustrator 21.1.0, SVG Export Plug-In . SVG Version: 6.00 Build 0)  -->
<svg version="1.1" id="Layer_1" xmlns="http://www.w3.org/2000/svg" xmlns:xlink="http://www.w3.org/1999/xlink" x="0px" y="0px"
	 viewBox="0 0 160 160" style="enable-background:new 0 0 160 160;" xml:space="preserve">
<style type="text/css">
	.st0{fill:#FFFFFF;}
</style>
<path class="st0" d="M80,2c43,0,78,35,78,78s-35,78-78,78S2,123,2,80S37,2,80,2 M80,0C35.8,0,0,35.8,0,80s35.8,80,80,80
	s80-35.8,80-80S124.2,0,80,0L80,0z"/>
<g>
	<path class="st0" d="M103,128H61c-0.6,0-1-0.4-1-1V67c0-0.6,0.4-1,1-1h42c0.6,0,1,0.4,1,1v60C104,127.6,103.6,128,103,128z M62,126
		h40V68H62V126z"/>
</g>
<g>
	<path class="st0" d="M49,122H21c-0.6,0-1-0.4-1-1V81c0-0.6,0.4-1,1-1h28c0.6,0,1,0.4,1,1v40C50,121.6,49.6,122,49,122z M22,120h26
		V82H22V120z"/>
</g>
<g>
	<path class="st0" d="M41,78H29c-0.6,0-1-0.4-1-1v-5c0-0.6,0.4-1,1-1h12c0.6,0,1,0.4,1,1v5C42,77.6,41.6,78,41,78z M30,76h10v-3H30
		V76z"/>
</g>
<g>
	<path class="st0" d="M49,122c-0.1,0-0.2,0-0.3-0.1l-17-6c-0.4-0.1-0.7-0.5-0.7-0.9V87c0-0.4,0.3-0.8,0.7-0.9l17-6
		c0.3-0.1,0.6-0.1,0.9,0.1c0.3,0.2,0.4,0.5,0.4,0.8v40c0,0.3-0.2,0.6-0.4,0.8C49.4,121.9,49.2,122,49,122z M33,114.3l15,5.3V82.4
		l-15,5.3V114.3z"/>
</g>
<g>
	<path class="st0" d="M82,128c-0.6,0-1-0.4-1-1V67c0-0.6,0.4-1,1-1s1,0.4,1,1v60C83,127.6,82.6,128,82,128z"/>
</g>
<g>
	<path class="st0" d="M82,62c-0.4,0-0.7-0.2-0.9-0.5l-4.2-7.3C70.4,52,66,45.9,66,39c0-8.8,7.2-16,16-16s16,7.2,16,16
		c0,6.9-4.4,13-10.9,15.2l-4.2,7.3C82.7,61.8,82.4,62,82,62z M82,25c-7.7,0-14,6.3-14,14c0,6.2,4,11.6,9.9,13.4
		c0.2,0.1,0.4,0.2,0.6,0.5L82,59l3.6-6.2c0.1-0.2,0.3-0.4,0.6-0.5C92,50.6,96,45.2,96,39C96,31.3,89.7,25,82,25z"/>
</g>
<g>
	<path class="st0" d="M35,67c-0.4,0-0.7-0.2-0.9-0.5l-4.2-7.3C23.4,57,19,50.9,19,44c0-8.8,7.2-16,16-16s16,7.2,16,16
		c0,6.9-4.4,13-10.9,15.2l-4.2,7.3C35.7,66.8,35.4,67,35,67z M35,30c-7.7,0-14,6.3-14,14c0,6.2,4,11.6,9.9,13.4
		c0.2,0.1,0.4,0.2,0.6,0.5L35,64l3.6-6.2c0.1-0.2,0.3-0.4,0.6-0.5C45,55.6,49,50.2,49,44C49,36.3,42.7,30,35,30z"/>
</g>
<g>
	<path class="st0" d="M128,86c-0.4,0-0.7-0.2-0.9-0.5l-4.2-7.3C116.4,76,112,69.9,112,63c0-8.8,7.2-16,16-16s16,7.2,16,16
		c0,6.9-4.4,13-10.9,15.2l-4.2,7.3C128.7,85.8,128.4,86,128,86z M128,49c-7.7,0-14,6.3-14,14c0,6.2,4,11.6,9.9,13.4
		c0.2,0.1,0.4,0.2,0.6,0.5L128,83l3.6-6.2c0.1-0.2,0.3-0.4,0.6-0.5c5.9-1.8,9.9-7.2,9.9-13.4C142,55.3,135.7,49,128,49z"/>
</g>
<circle class="st0" cx="78" cy="93.5" r="1.5"/>
<circle class="st0" cx="86" cy="93.5" r="1.5"/>
<g>
	<path class="st0" d="M80.8,37.9C81,38,81.2,38,81.4,38c0,0,0.1,0,0.1,0c0,0,0,0.1,0,0.1c0,0.2,0,0.4,0.1,0.6
		c-0.1,0.2-0.1,0.4-0.1,0.6L76.8,44c-0.2-0.1-0.5-0.2-0.8-0.6c-0.3-0.3-0.5-0.6-0.5-0.7l4.7-4.7C80.4,38,80.6,38,80.8,37.9 M88.2,31
		C88.2,31,88.2,31,88.2,31l-1.9,0.1l0,0v0l0,0l0,0c0,0-0.1,0-0.1,0L81.4,36l-0.5-0.5c0,0,0,0-0.1,0c-0.1,0-0.1,0-0.2,0.1L80.3,36
		l0,0C80.2,36,80.1,36,80,36c0,0-0.1,0-0.1,0c-0.1,0-0.1,0-0.2,0c-0.1,0-0.1,0-0.2,0c-0.1,0-0.1,0-0.2,0.1l-5.3,5.3
		c-0.4,0.4-0.6,0.8-0.6,1.3c0,0.7,0.4,1.5,1.1,2.2c0.6,0.6,1.2,1,1.9,1.1c0.1,0,0.3,0,0.4,0c0.5,0,0.9-0.2,1.3-0.6l5.3-5.3
		c0.1-0.1,0.1-0.2,0-0.4c0-0.1,0-0.1,0-0.2c0-0.1,0-0.3,0.1-0.4l0,0l0.4-0.4c0,0,0.1-0.1,0.1-0.1c0-0.1,0-0.1,0-0.2l-0.5-0.5
		l4.9-4.9c0,0,0,0,0-0.1l0,0v0c0,0,0,0,0,0l0,0l0.1-1.8l0,0c0,0,0,0,0-0.1c0,0,0,0,0,0L88.2,31C88.3,31,88.3,31,88.2,31
		C88.3,31,88.3,31,88.2,31L88.2,31z"/>
</g>
<g>
	<g>
		<path class="st0" d="M138,122h-20c-0.5,0-0.9-0.4-1-0.8l-5-30c0-0.3,0-0.6,0.2-0.8c0.2-0.2,0.5-0.4,0.8-0.4h30
			c0.3,0,0.6,0.1,0.8,0.4c0.2,0.2,0.3,0.5,0.2,0.8l-5,30C138.9,121.6,138.5,122,138,122z M118.8,120h18.3l4.7-28h-27.6L118.8,120z"
			/>
	</g>
	<g>
		<path class="st0" d="M138,122c-0.3,0-0.6-0.1-0.8-0.4l-25-30c-0.4-0.4-0.3-1.1,0.1-1.4c0.4-0.4,1.1-0.3,1.4,0.1l25,30
			c0.4,0.4,0.3,1.1-0.1,1.4C138.5,121.9,138.2,122,138,122z"/>
	</g>
	<g>
		<path class="st0" d="M128,122c-0.3,0-0.6-0.1-0.8-0.4l-12-14.4c-0.4-0.4-0.3-1.1,0.1-1.4c0.4-0.4,1.1-0.3,1.4,0.1l12,14.4
			c0.4,0.4,0.3,1.1-0.1,1.4C128.5,121.9,128.2,122,128,122z"/>
	</g>
	<g>
		<path class="st0" d="M139.7,112c-0.3,0-0.6-0.1-0.8-0.4l-16.7-20c-0.4-0.4-0.3-1.1,0.1-1.4c0.4-0.4,1.1-0.3,1.4,0.1l16.7,20
			c0.4,0.4,0.3,1.1-0.1,1.4C140.1,111.9,139.9,112,139.7,112z"/>
	</g>
	<g>
		<path class="st0" d="M141,101.6c-0.3,0-0.6-0.1-0.8-0.4l-8-9.6c-0.4-0.4-0.3-1.1,0.1-1.4c0.4-0.4,1.1-0.3,1.4,0.1l8,9.6
			c0.4,0.4,0.3,1.1-0.1,1.4C141.5,101.5,141.2,101.6,141,101.6z"/>
	</g>
	<g>
		<path class="st0" d="M118,122c-0.2,0-0.5-0.1-0.6-0.2c-0.4-0.4-0.5-1-0.1-1.4l25-30c0.4-0.4,1-0.5,1.4-0.1c0.4,0.4,0.5,1,0.1,1.4
			l-25,30C118.6,121.9,118.3,122,118,122z"/>
	</g>
	<g>
		<path class="st0" d="M128,122c-0.2,0-0.5-0.1-0.6-0.2c-0.4-0.4-0.5-1-0.1-1.4l12.5-15c0.4-0.4,1-0.5,1.4-0.1
			c0.4,0.4,0.5,1,0.1,1.4l-12.5,15C128.6,121.9,128.3,122,128,122z"/>
	</g>
	<g>
		<path class="st0" d="M116.3,112c-0.2,0-0.5-0.1-0.6-0.2c-0.4-0.4-0.5-1-0.1-1.4l16.7-20c0.4-0.4,1-0.5,1.4-0.1
			c0.4,0.4,0.5,1,0.1,1.4l-16.7,20C116.9,111.9,116.6,112,116.3,112z"/>
	</g>
	<g>
		<path class="st0" d="M114.7,102c-0.2,0-0.5-0.1-0.6-0.2c-0.4-0.4-0.5-1-0.1-1.4l8.3-10c0.4-0.4,1-0.5,1.4-0.1
			c0.4,0.4,0.5,1,0.1,1.4l-8.3,10C115.2,101.9,115,102,114.7,102z"/>
	</g>
</g>
<g>
	<path class="st0" d="M40.1,37.7c1.1,0,2-0.9,2-2c0-1.1-0.9-2-2-2c-1.1,0-2,0.9-2,2C38.1,36.8,39,37.7,40.1,37.7z M44.9,37.8
		c-0.3,0-0.5,0.1-0.7,0.2l-2.6,2.6l-3.1-3.1c-0.2-0.2-0.6-0.4-0.9-0.4h-4.9c-0.3,0-0.6,0.1-0.8,0.4l-3.4,3.9
		c-0.2,0.2-0.3,0.5-0.3,0.8c0,0.6,0.5,1,1,1c0.3,0,0.6-0.1,0.8-0.4l3.1-3.6l1.8,0l-6.9,8l-4.7,0c-0.1,0-0.2,0-0.3,0
		c-0.7,0.2-1.1,0.8-1,1.6c0.1,0.6,0.7,1,1.3,1l5.4,0c1.2,0,1.6-0.5,1.6-0.5l2.7-3l3.1,3L34.9,55c0,0.1,0,0.2,0,0.3
		c0,0.7,0.6,1.3,1.3,1.3c0.6,0,1.2-0.4,1.3-1l1.5-6.9c0.3-1.1-0.3-1.6-0.3-1.6L36,44.4l3-3.5l1.9,1.9c0,0,0.8,0.8,1.7-0.1l3.1-3.2
		c0.1-0.2,0.2-0.4,0.2-0.7C46,38.3,45.5,37.8,44.9,37.8z"/>
</g>
<g>
	<path class="st0" d="M133,71.5h-10c-0.5,0-0.9-0.4-1-0.8l-2.5-15c-0.1-0.5,0.3-1.1,0.8-1.2c0.5-0.1,1.1,0.3,1.2,0.8l2.4,14.2h8.3
		l2.4-14.2c0.1-0.5,0.6-0.9,1.2-0.8c0.5,0.1,0.9,0.6,0.8,1.2l-2.5,15C133.9,71.1,133.5,71.5,133,71.5z"/>
</g>
</svg>
