<?xml version="1.0" encoding="utf-8"?>
<!-- Generator: Adobe Illustrator 21.1.0, SVG Export Plug-In . SVG Version: 6.00 Build 0)  -->
<svg version="1.1" id="Layer_1" xmlns="http://www.w3.org/2000/svg" xmlns:xlink="http://www.w3.org/1999/xlink" x="0px" y="0px"
	 viewBox="0 0 160 160" style="enable-background:new 0 0 160 160;" xml:space="preserve">
<style type="text/css">
	.st0{fill:#FFFFFF;}
</style>
<g>
	<path class="st0" d="M80,2c43,0,78,35,78,78s-35,78-78,78S2,123,2,80S37,2,80,2 M80,0C35.8,0,0,35.8,0,80s35.8,80,80,80
		s80-35.8,80-80S124.2,0,80,0L80,0z"/>
</g>
<g>
	<g>
		<path class="st0" d="M144.9,126.4h-19l0-1c0.8-27.5-2.1-32.2-3.1-33.7c-0.8-1.3-4.3-1.7-7.3-2.1c-2.7-0.3-5.3-0.6-6.9-1.5
			l-1.3-0.7l6.6-5.2c-0.9-1.2-2.4-3.6-3.1-7.8c-0.4-0.1-0.8-0.2-1.2-0.6c-1.5-1-2.5-3.3-2.6-4.7c0,0-0.2-4.5,1.6-6.1
			c0.2-0.2,0.4-0.3,0.7-0.4c-0.5-3.7-0.6-5.8-0.5-7.1c0.6-6.3,6.8-12.8,16-12.8c9.3,0,15.4,6.5,16,12.8c0.1,1.6-0.1,4.3-0.5,7.1
			c0.2,0.1,0.5,0.2,0.7,0.4c1.5,1.3,1.7,4.9,1.6,6.1c-0.1,1.4-1.2,3.6-2.6,4.7c-0.4,0.3-0.9,0.5-1.2,0.5c-0.8,5.1-2.7,7.5-3.6,8.4
			l0.1,6.2c0.9,0.5,3.4,1.7,8.7,3.9c6.5,2.7,7.7,4.8,9.2,7.5c0.3,0.5,0.6,1.1,1,1.7c0.5,0.7,0.8,2,1.1,4l0,0.2l-0.1,0.2
			c-2.4,6.9-5.8,13.4-10.1,19.4L144.9,126.4z M128,124.4h15.9c4-5.7,7.1-11.8,9.4-18.3c-0.3-2-0.6-2.7-0.7-2.9l0,0
			c-0.4-0.6-0.8-1.3-1.1-1.8c-1.4-2.4-2.4-4.2-8.2-6.7c-7.5-3.1-9.4-4.2-9.4-4.3l-0.5-0.3l-0.1-8.3l0.4-0.3c0,0,2.5-2.1,3.3-8.3
			l0.1-1.2l1.1,0.3c0.2,0.1,0.5-0.1,0.7-0.2c0.9-0.7,1.7-2.3,1.8-3.2c0.1-1.4-0.2-3.9-0.9-4.5c-0.1-0.1-0.1-0.1-0.3-0.1l-1.4,0.3
			l0.2-1.4c0.4-2.7,0.7-6.1,0.6-7.7c-0.5-5.4-5.9-11-14.1-11c-8.1,0-13.5,5.6-14.1,11c-0.2,1.6,0.2,5,0.6,7.7l0.2,1.4l-1.4-0.3
			c-0.1,0-0.2,0-0.3,0.1c-0.7,0.6-1,3-0.9,4.5c0.1,0.9,0.9,2.5,1.8,3.2c0.2,0.1,0.4,0.3,0.7,0.2l1.1-0.3l0.1,1.2
			c0.8,6.2,3.3,8.3,3.3,8.3l1,0.8l-1,0.8l-4.9,3.8c1.3,0.3,3,0.5,4.6,0.7c3.8,0.4,7.4,0.8,8.7,3C125.8,92.6,128.8,97.2,128,124.4z"
			/>
	</g>
	<g>
		<path class="st0" d="M122.8,126.4H37.2l0-1c-0.1-2.3-0.6-22.2,1.7-25.9c2.1-3.3,7.8-5.5,14.3-8.1c1.8-0.7,3.7-1.4,5.5-2.2
			c6.1-2.5,8.8-3.9,9.7-4.4l0.1-7c-0.9-0.9-3.1-3.6-4-9.4c-0.4-0.1-0.9-0.2-1.4-0.6c-1.6-1.1-2.8-3.6-2.9-5.1
			c-0.1-1.4,0.1-5.2,1.7-6.7c0.2-0.2,0.5-0.4,0.8-0.5c-0.5-4.1-0.7-6.5-0.5-8c0.7-7,7.5-14.2,17.7-14.2c10.3,0,17.1,7.2,17.7,14.2
			c0.2,1.8-0.2,4.9-0.5,8c0.3,0.1,0.5,0.3,0.8,0.5c1.7,1.5,1.8,5.3,1.8,6.7c-0.1,1.6-1.3,4-2.9,5.1c-0.5,0.4-1,0.5-1.4,0.6
			c-0.9,5.8-3.1,8.5-4,9.4l0.1,7c1,0.5,3.7,1.9,9.7,4.4l0,0c1.9,0.8,3.7,1.5,5.5,2.2c6.5,2.5,12.2,4.7,14.3,8
			c2.4,3.7,1.8,23.6,1.7,25.9L122.8,126.4z M39.1,124.4h81.8c0.2-8.4,0-21.5-1.5-23.8c-1.8-2.8-7.4-5-13.3-7.3
			c-1.8-0.7-3.7-1.4-5.6-2.2l0,0c-8.3-3.5-10.4-4.7-10.5-4.8l-0.5-0.3L89.5,77l0.4-0.3c0,0,2.8-2.3,3.7-9.3l0.2-1.2l1.1,0.3
			c0.2,0.1,0.5,0,0.8-0.2c1.1-0.7,2-2.6,2-3.6c0.1-1.6-0.3-4.4-1.1-5.1c-0.1-0.1-0.2-0.1-0.4-0.1l-1.4,0.3l0.2-1.4
			c0.4-3.1,0.8-6.8,0.7-8.6c-0.6-6.1-6.6-12.4-15.8-12.4c-9.1,0-15.2,6.3-15.8,12.4c-0.2,1.8,0.3,5.8,0.7,8.6l0.2,1.4l-1.4-0.3
			c-0.2,0-0.3,0-0.4,0.1c-0.8,0.7-1.2,3.4-1.1,5.1c0.1,1,1,2.9,2,3.6c0.3,0.2,0.6,0.3,0.8,0.2l1.1-0.3l0.1,1.2
			c0.9,7,3.7,9.3,3.7,9.3l0.4,0.3l0,0.5l-0.1,8.6l-0.5,0.3c-0.1,0.1-2.2,1.3-10.5,4.8c-1.9,0.8-3.7,1.5-5.5,2.2
			c-6,2.3-11.6,4.5-13.4,7.3C39.1,102.9,38.9,116,39.1,124.4z"/>
	</g>
	<g>
		<path class="st0" d="M34.1,126.5H15.1l-0.3-0.4c-4.3-6-7.7-12.6-10.1-19.5l-0.1-0.2l0-0.2c0.3-2,0.6-3.2,1.1-3.9
			c0.4-0.6,0.7-1.2,1-1.7c1.5-2.7,2.7-4.8,9.2-7.5c5.3-2.2,7.8-3.4,8.7-3.9l0.1-6.2c-0.8-0.9-2.7-3.3-3.6-8.4
			c-0.4-0.1-0.8-0.2-1.2-0.5c-1.5-1-2.5-3.3-2.6-4.7c-0.1-1.2,0.1-4.8,1.6-6.1c0.2-0.2,0.4-0.3,0.7-0.4c-0.4-2.8-0.6-5.6-0.5-7.1
			c0.6-6.3,6.8-12.8,16-12.8c9.3,0,15.4,6.5,16,12.8c0.1,1.3,0,3.5-0.5,7.1c0.2,0.1,0.5,0.2,0.7,0.4c1.8,1.6,1.6,6.1,1.6,6.1
			c-0.1,1.4-1.2,3.6-2.6,4.7c-0.4,0.3-0.9,0.5-1.2,0.5c-0.7,4.3-2.1,6.7-3.1,7.8l6.6,5.2l-1.3,0.7c-1.7,0.9-4.2,1.2-6.9,1.5
			c-3,0.3-6.4,0.7-7.3,2.1c-1,1.5-3.9,6.1-3.1,33.7L34.1,126.5z M16.2,124.5H32c-0.8-27.3,2.2-31.8,3.4-33.8l0,0
			c1.4-2.1,4.9-2.5,8.7-3c1.6-0.2,3.3-0.4,4.6-0.7l-5.9-4.6l1-0.8c0,0,2.5-2.1,3.3-8.3l0.1-1.2l1.1,0.3c0.2,0.1,0.5-0.1,0.7-0.2
			c0.9-0.7,1.7-2.3,1.8-3.2c0.1-1.4-0.2-3.9-0.9-4.5c-0.1-0.1-0.2-0.1-0.3-0.1l-1.4,0.3l0.2-1.4c0.4-2.7,0.8-6.1,0.6-7.7
			c-0.5-5.4-5.9-11-14.1-11c-8.1,0-13.5,5.6-14.1,11c-0.1,1.6,0.2,4.8,0.6,7.7l0.2,1.4l-1.4-0.3c-0.1,0-0.2,0-0.3,0.1
			c-0.7,0.6-1,3-0.9,4.5c0.1,0.9,0.9,2.5,1.8,3.2c0.2,0.1,0.4,0.3,0.7,0.2l1.1-0.3l0.1,1.2c0.8,6.2,3.3,8.3,3.3,8.3l0.4,0.3l0,0.5
			l-0.1,7.8l-0.5,0.3c-0.1,0-1.9,1.2-9.4,4.3c-5.9,2.5-6.8,4.2-8.2,6.7c-0.3,0.6-0.7,1.2-1.1,1.8c-0.2,0.2-0.5,0.9-0.7,2.9
			C9,112.7,12.2,118.8,16.2,124.5z"/>
	</g>
</g>
</svg>
