<?xml version="1.0" encoding="utf-8"?>
<!-- Generator: Adobe Illustrator 21.1.0, SVG Export Plug-In . SVG Version: 6.00 Build 0)  -->
<svg version="1.1" id="Layer_1" xmlns="http://www.w3.org/2000/svg" xmlns:xlink="http://www.w3.org/1999/xlink" x="0px" y="0px"
	 viewBox="0 0 160 160" style="enable-background:new 0 0 160 160;" xml:space="preserve">
<style type="text/css">
	.st0{fill:#FFFFFF;}
</style>
<g>
	<path class="st0" d="M80,2c43,0,78,35,78,78s-35,78-78,78S2,123,2,80S37,2,80,2 M80,0C35.8,0,0,35.8,0,80s35.8,80,80,80
		s80-35.8,80-80S124.2,0,80,0L80,0z"/>
</g>
<g>
	<g>
		<path class="st0" d="M70,88.5H15c-0.3,0-0.7-0.2-0.9-0.5s-0.2-0.7,0-1l5-10c0.2-0.3,0.5-0.6,0.9-0.6h45c0.4,0,0.7,0.2,0.9,0.6
			l5,10c0.2,0.3,0.1,0.7,0,1S70.3,88.5,70,88.5z M16.6,86.5h51.8l-4-8H20.6L16.6,86.5z"/>
	</g>
	<g>
		<path class="st0" d="M70,103.5H15c-0.6,0-1-0.4-1-1v-15c0-0.6,0.4-1,1-1h55c0.6,0,1,0.4,1,1v15C71,103.1,70.6,103.5,70,103.5z
			 M16,101.5h53v-13H16V101.5z"/>
	</g>
	<g>
		<path class="st0" d="M145,103.5H90c-0.6,0-1-0.4-1-1v-15c0-0.6,0.4-1,1-1h55c0.6,0,1,0.4,1,1v15C146,103.1,145.6,103.5,145,103.5z
			 M91,101.5h53v-13H91V101.5z"/>
	</g>
	<g>
		<path class="st0" d="M137,68.5H98c-0.3,0-0.7-0.2-0.9-0.5c-0.2-0.3-0.2-0.7,0-1l5-10c0.2-0.3,0.5-0.6,0.9-0.6h29
			c0.4,0,0.7,0.2,0.9,0.6l5,10c0.2,0.3,0.1,0.7,0,1C137.7,68.3,137.3,68.5,137,68.5z M99.6,66.5h35.8l-4-8h-27.8L99.6,66.5z"/>
	</g>
	<g>
		<path class="st0" d="M137,73.5H98c-0.6,0-1-0.4-1-1s0.4-1,1-1h39c0.6,0,1,0.4,1,1S137.6,73.5,137,73.5z"/>
	</g>
	<g>
		<path class="st0" d="M137,78.5H98c-0.6,0-1-0.4-1-1s0.4-1,1-1h39c0.6,0,1,0.4,1,1S137.6,78.5,137,78.5z"/>
	</g>
	<g>
		<path class="st0" d="M37.7,98.2v-7.3h1.5v7.3H37.7z"/>
		<path class="st0" d="M40.7,98.2v-7.3h1.1c0.1,0,0.1,0,0.2,0s0.1,0.1,0.1,0.1l2.6,3.3c0.6,0.7,1,1.3,1.2,1.6v-5h1.5v7.3h-1.1
			c-0.1,0-0.1,0-0.2,0c0,0-0.1-0.1-0.1-0.1l-2.8-3.6c-0.2-0.2-0.5-0.7-1-1.3v5H40.7z"/>
	</g>
	<g>
		<path class="st0" d="M106.6,94.5c0-0.6,0.1-1.1,0.3-1.6c0.2-0.5,0.5-0.9,0.8-1.2c0.3-0.3,0.7-0.6,1.2-0.7c0.4-0.2,0.9-0.3,1.4-0.3
			h0c0.5,0,0.9,0.1,1.4,0.3c0.4,0.2,0.8,0.4,1.2,0.7c0.3,0.3,0.6,0.7,0.8,1.2c0.2,0.5,0.3,1,0.3,1.6c0,0.4-0.1,0.9-0.2,1.3
			s-0.3,0.7-0.5,1c-0.2,0.3-0.5,0.6-0.8,0.8c-0.3,0.2-0.6,0.4-1,0.5s-0.7,0.2-1.1,0.2h0c-0.4,0-0.8-0.1-1.1-0.2s-0.7-0.3-1-0.5
			c-0.3-0.2-0.6-0.5-0.8-0.8c-0.2-0.3-0.4-0.6-0.5-1S106.6,95,106.6,94.5z M108.1,94.5c0,0.7,0.2,1.3,0.6,1.7
			c0.4,0.4,0.9,0.6,1.5,0.6h0c0.6,0,1.2-0.2,1.5-0.6s0.6-1,0.6-1.7c0-0.7-0.2-1.3-0.5-1.7s-0.9-0.6-1.5-0.6h0
			c-0.7,0-1.2,0.2-1.5,0.6S108.1,93.8,108.1,94.5z"/>
		<path class="st0" d="M115,95.2v-4.3h1.5v4.2c0,0.3,0,0.6,0.1,0.8c0.1,0.2,0.1,0.4,0.3,0.5c0.1,0.1,0.3,0.2,0.6,0.3
			c0.2,0.1,0.5,0.1,0.8,0.1c0.3,0,0.5,0,0.8-0.1c0.2-0.1,0.4-0.2,0.6-0.3c0.1-0.1,0.2-0.3,0.3-0.5c0.1-0.2,0.1-0.5,0.1-0.8v-4.2h1.5
			v4.3c0,0.5-0.1,1-0.2,1.3s-0.3,0.7-0.6,0.9c-0.3,0.3-0.6,0.5-1,0.6c-0.4,0.1-0.9,0.2-1.4,0.2c-0.5,0-1-0.1-1.4-0.2
			s-0.8-0.4-1.1-0.6c-0.3-0.3-0.5-0.6-0.6-0.9S115,95.7,115,95.2z"/>
		<path class="st0" d="M122.3,92.2v-1.3h6.4v1.3h-2.4v6h-1.5v-6H122.3z"/>
	</g>
	<g>
		<path class="st0" d="M137,68.5H98c-0.6,0-1-0.4-1-1s0.4-1,1-1h39c0.6,0,1,0.4,1,1S137.6,68.5,137,68.5z"/>
	</g>
	<g>
		<path class="st0" d="M137,83.5H98c-0.6,0-1-0.4-1-1s0.4-1,1-1h39c0.6,0,1,0.4,1,1S137.6,83.5,137,83.5z"/>
	</g>
	<g>
		<path class="st0" d="M90,88.5c-0.2,0-0.3,0-0.4-0.1c-0.5-0.2-0.7-0.8-0.4-1.3l3.5-7c0.2-0.5,0.8-0.7,1.3-0.4
			c0.5,0.2,0.7,0.8,0.4,1.3l-3.5,7C90.7,88.3,90.4,88.5,90,88.5z"/>
	</g>
	<g>
		<path class="st0" d="M145,88.5c-0.4,0-0.7-0.2-0.9-0.6l-3.5-7c-0.2-0.5,0-1.1,0.4-1.3s1.1,0,1.3,0.4l3.5,7c0.2,0.5,0,1.1-0.4,1.3
			C145.3,88.5,145.2,88.5,145,88.5z"/>
	</g>
</g>
</svg>
