<?xml version="1.0" encoding="utf-8"?>
<!-- Generator: Adobe Illustrator 21.1.0, SVG Export Plug-In . SVG Version: 6.00 Build 0)  -->
<svg version="1.1" xmlns="http://www.w3.org/2000/svg" xmlns:xlink="http://www.w3.org/1999/xlink" x="0px" y="0px"
	 viewBox="0 0 160 160" style="enable-background:new 0 0 160 160;" xml:space="preserve">
<style type="text/css">
	.st0{fill:#FFFFFF;}
	.st1{fill:none;stroke:#FFFFFF;stroke-width:2;stroke-miterlimit:10;}
</style>
<g id="circle">
	<path class="st0" d="M80,2c43,0,78,35,78,78s-35,78-78,78S2,123,2,80S37,2,80,2 M80,0C35.8,0,0,35.8,0,80s35.8,80,80,80
		s80-35.8,80-80S124.2,0,80,0L80,0z"/>
</g>
<g id="_x32_">
	<path class="st1" d="M-183.5-482.7c0-8.8-7.2-15.9-16.2-15.9h-161.5c-8.9,0-16.2,7.1-16.2,15.9v190.3c0,8.8,7.2,15.9,16.2,15.9
		h161.5c8.9,0,16.2-7.1,16.2-15.9V-482.7z"/>
	<polygon points="-236.9,-632.3 -229.9,-613.2 -222.9,-594.1 -237,-594.1 -251.1,-594.2 -244,-613.2 	"/>
	<polygon points="-246.4,-463.5 -246.3,-578.7 -241.6,-578.7 -241.7,-463.5 -232.3,-463.5 -232.2,-578.7 -227.5,-578.7 
		-227.6,-463.4 -222.9,-463.4 -222.8,-591.4 -251,-591.5 -251.1,-463.5 	"/>
	<path d="M-251.5-438.6c0,5,2.1,9.2,4.7,9.2l18.8,0.1c2.6,0,4.7-4.1,4.7-9.2c0-0.4-0.1-0.8-0.1-1.2l0.1,0l0-18.4l-28.2-0.1l0,18.4
		l0.1,0C-251.4-439.4-251.5-439.1-251.5-438.6z"/>
	<path d="M-284.7-592.2l5.5,0l10.9,0c0,0,0,0,0-5.5c0-5.5,0-5.5,5.5-16.4c0-21.8-10.9-32.8-10.9-32.8l0-5.5c0,0,0-5.5-5.5-5.5
		l0,32.7l-0.1,0.5c3.2,1.1,5.5,4.1,5.5,7.7c0,4.5-3.7,8.2-8.2,8.2c-4.5,0-8.2-3.7-8.2-8.2c0-3.6,2.3-6.6,5.5-7.7l-0.1-0.5l0-32.7
		c-5.5,0-5.5,5.5-5.5,5.5l0,5.5c0,0-10.9,10.9-11,32.7c5.4,10.9,5.4,10.9,5.4,16.4c0,5.5,0,5.5,0,5.5L-284.7-592.2z"/>
	<rect x="-359.1" y="-519.2" transform="matrix(1.142422e-03 -1 1 1.142422e-03 224.9624 -787.9109)" width="154.4" height="25.2"/>
	<path d="M-335.4-585l21.8-15.2l-14.4-38.3l0-7.7c0,0,0-7.6-7.2-7.7c-7.3,0-7.3,7.6-7.3,7.6l0,7.7l-14.6,38.2L-335.4-585z
		 M-342.5-615.6c0-4.2,3.3-7.6,7.3-7.6c4,0,7.3,3.4,7.2,7.7c0,4.2-3.3,7.6-7.3,7.6C-339.3-607.9-342.5-611.4-342.5-615.6z"/>
	<path d="M-321-458.9c0,0-0.1,29.6-14.6,29.5C-350.1-429.4-350-459-350-459s0.1-29.6,0.1-44.4c0-14.8,0.1-74,0.1-74l29,0.1
		c0,0-0.1,59.2-0.1,74C-320.9-488.5-321-458.9-321-458.9z"/>
	<g>
		<g>
			<path class="st0" d="M103.4,63.7c-0.2,0-0.4-0.1-0.6-0.2l-5.5-4.3c-0.3-0.2-0.4-0.5-0.4-0.8c0-0.3,0.2-0.6,0.5-0.8l8.6-5.4
				c0.4-0.2,0.8-0.2,1.1,0.1c0.3,0.3,0.5,0.7,0.3,1.1l-3.1,9.7c-0.1,0.3-0.3,0.6-0.7,0.7C103.6,63.7,103.5,63.7,103.4,63.7z
				 M99.6,58.5l3.3,2.6l1.8-5.8L99.6,58.5z"/>
		</g>
		<g>
			<path class="st0" d="M96.3,70.9h-1.5c-0.4,0-0.7-0.2-0.9-0.6c-0.2-0.3-0.1-0.8,0.1-1.1l4.3-5.5c0.2-0.2,0.4-0.3,0.7-0.4
				c0.3,0,0.5,0,0.7,0.2l0.9,0.7c0.4,0.3,0.5,1,0.2,1.4l-3.8,4.8C96.9,70.7,96.6,70.9,96.3,70.9z"/>
		</g>
		<g>
			<path class="st0" d="M97.9,126.3H57.6c-2.8,0-5-2.2-5-5V73.8c0-2.7,2.3-5,5-5h7.8l5.1-17.1c0.1-0.3,0.2-0.5,0.5-0.6
				c0.2-0.1,0.5-0.2,0.8-0.1l6.9,2.1c0.5,0.2,0.8,0.7,0.7,1.2L75,68.9h3.1l9.8-15.2c0.1-0.2,0.4-0.4,0.6-0.4c0.3-0.1,0.5,0,0.8,0.1
				l5.3,3.4c0.5,0.3,0.6,0.9,0.3,1.4l-6.9,10.7h0.4l8.3-10.6c0.2-0.2,0.4-0.3,0.7-0.4c0.3,0,0.5,0,0.7,0.2l5.5,4.4
				c0.4,0.3,0.5,1,0.2,1.4l-4.1,5.3c1.9,0.7,3.3,2.5,3.3,4.7v47.5C103,124.1,100.7,126.3,97.9,126.3z M57.6,70.9c-1.7,0-3,1.3-3,3
				v47.5c0,1.6,1.4,3,3,3h40.3c1.7,0,3-1.3,3-3V73.8c0-1.6-1.4-3-3-3h-0.1c-0.4,0-0.7-0.2-0.9-0.6c-0.2-0.3-0.1-0.8,0.1-1.1l4.6-5.8
				l-4-3.1l-7.9,10.2c-0.2,0.2-0.5,0.4-0.8,0.4h-2.8c-0.4,0-0.7-0.2-0.9-0.5c-0.2-0.3-0.2-0.7,0-1l7.3-11.4L89,55.6l-9.5,14.8
				c-0.2,0.3-0.5,0.5-0.8,0.5h-5c-0.3,0-0.6-0.1-0.8-0.4c-0.2-0.3-0.2-0.6-0.2-0.9l4.4-14.8l-5-1.5l-5,16.8c-0.1,0.4-0.5,0.8-1,0.8
				H57.6z"/>
		</g>
		<g>
			<path class="st0" d="M91.8,70.9h-1.5c-0.4,0-0.7-0.2-0.9-0.6c-0.2-0.3-0.1-0.8,0.1-1.1l6-7.7c0.2-0.2,0.4-0.3,0.7-0.4
				c0.3,0,0.5,0,0.7,0.2l0.9,0.7c0.4,0.3,0.5,1,0.2,1.4l-5.5,7C92.4,70.7,92.1,70.9,91.8,70.9z"/>
		</g>
		<g>
			<path class="st0" d="M95.3,56.9c-0.2,0-0.4-0.1-0.5-0.2L89,53.1c-0.5-0.3-0.6-0.9-0.3-1.4l0.7-1.1c0.6-0.9,0.6-0.9,0.9-3.7
				c0-0.2,0.1-0.3,0.2-0.4c2.6-4,5.8-5.4,6.9-5.7l0.5-0.8c0.5-0.8,1.8-1.6,3.3-0.7c0.2,0.1,0.4,0.4,0.4,0.6c0.3,0,0.5,0,0.7,0.1
				c1.5,0.9,1.2,2.5,0.7,3.3l-0.5,0.8c0.1,1.2,0.2,4.7-2.3,8.7c-0.1,0.1-0.2,0.2-0.3,0.3c-2.4,1.4-2.4,1.4-3,2.4l-0.7,1.1
				c-0.1,0.2-0.4,0.4-0.6,0.4C95.5,56.9,95.4,56.9,95.3,56.9z M91,52l4,2.6l0.2-0.3c0.8-1.3,1-1.4,3.5-2.9c1.9-3.1,2-5.8,1.9-6.9
				l-2.1,3.2c0.4,0.9,0.3,2-0.2,2.9c-0.9,1.4-2.8,1.8-4.2,0.9c-1.4-0.9-1.8-2.8-0.9-4.2c0.6-0.9,1.5-1.4,2.5-1.4l2.1-3.2
				c-1,0.4-3.4,1.5-5.4,4.6c-0.3,2.9-0.3,3.1-1.2,4.4L91,52z M95.8,47.9c-0.3,0-0.7,0.2-0.9,0.5c-0.3,0.5-0.2,1.1,0.3,1.4
				c0.5,0.3,1.1,0.2,1.4-0.3c0.2-0.4,0.2-0.9-0.1-1.2c-0.1-0.1-0.1-0.2-0.2-0.3c-0.1,0-0.3,0-0.4,0C95.9,47.9,95.8,47.9,95.8,47.9z"
				/>
		</g>
		<g>
			<path class="st0" d="M77.5,46.8c-0.3,0-0.5,0-0.8-0.1C76,46.5,75.4,46,75,45.3c-0.3-0.7-0.4-1.4-0.2-2.2c0.2-0.7,0.7-1.4,1.4-1.7
				c0.7-0.4,1.4-0.5,2.2-0.3c0.7,0.2,1.3,0.7,1.7,1.4c0.3,0.7,0.4,1.4,0.2,2.2c-0.2,0.7-0.7,1.3-1.4,1.7
				C78.4,46.7,77.9,46.8,77.5,46.8z M77.6,43c-0.1,0-0.3,0-0.4,0.1c-0.2,0.1-0.4,0.3-0.4,0.6c-0.1,0.2-0.1,0.5,0.1,0.7
				c0.1,0.2,0.3,0.3,0.5,0.4c0,0,0,0,0,0c0.2,0.1,0.4,0,0.6-0.1c0.2-0.1,0.4-0.3,0.4-0.6c0.1-0.2,0.1-0.5-0.1-0.7
				c-0.1-0.2-0.3-0.3-0.5-0.4C77.7,43,77.6,43,77.6,43z"/>
		</g>
		<g>
			<path class="st0" d="M75.3,52.3c-0.3,0-0.6-0.1-0.8-0.4l-4.1-5.2c-0.3-0.4-0.3-0.9,0-1.2l6.1-8l0.5-1.7c0-0.1,0.2-0.7,0.7-1.2
				c0.7-0.8,1.7-1.1,2.8-0.8c2,0.6,2.2,2.5,1.9,3.6l-0.5,1.7l0.7,10c0,0.5-0.2,0.9-0.7,1l-6.3,2.1C75.6,52.3,75.4,52.3,75.3,52.3z
				 M72.5,46l3.2,4.1l4.9-1.6L79.9,39c0-0.1,0-0.2,0-0.4l0.5-1.8c0.1-0.4,0.1-0.9-0.5-1.1c-0.6-0.2-0.9,0.3-1,0.7l-0.5,1.8
				c0,0.1-0.1,0.2-0.2,0.3L72.5,46z"/>
		</g>
	</g>
	<g>
		<g>
			<path class="st0" d="M-905.1,111.2l-7.4-5.8l11.6-7.2L-905.1,111.2z M-911.4,105.4l6.1,4.7l3.4-10.6L-911.4,105.4z"/>
		</g>
		<g>
			<path class="st0" d="M-911.8,187h-49c-2.9,0-5.2-2.3-5.2-5.1v-57.8c0-2.8,2.3-5.1,5.2-5.1h10.1l6.4-21.7l9,2.7l-0.1,0.3
				c0,0-3.6,12.3-5.5,18.7h5.5l12.3-19.1l6.9,4.5l-9.4,14.7h2.7l10.5-13.4l7.2,5.7l-6.1,7.8c2.7,0.2,4.7,2.4,4.7,5.1v57.8
				C-906.6,184.7-909,187-911.8,187z M-960.8,119.6c-2.5,0-4.6,2-4.6,4.5v57.8c0,2.5,2.1,4.5,4.6,4.5h49c2.5,0,4.6-2,4.6-4.5v-57.8
				c0-2.5-2.1-4.5-4.6-4.5h-0.8l6.5-8.3l-6.3-4.9l-10.3,13.2h-4.1l9.7-15.1l-5.9-3.8l-12.2,18.9h-6.6l0.1-0.4
				c1.7-5.7,5-16.9,5.6-18.8l-7.9-2.3l-6.4,21.6H-960.8z M-913.6,119.6h-2.6l5.8-7.5l1.6,1.3L-913.6,119.6z M-915,119h1l4.3-5.5
				l-0.6-0.5L-915,119z M-919.1,119.6h-2.6l7.9-10.1l1.6,1.3L-919.1,119.6z M-920.4,119h1l6.4-8.1l-0.6-0.5L-920.4,119z"/>
		</g>
		<g>
			<path class="st0" d="M-914.9,102.9l-7.5-4.8l1.1-1.6c0.9-1.3,0.9-1.3,1.2-4.9l0-0.1l0-0.1c3.3-5.2,7.4-6.5,8.2-6.7l0.8-1.3
				c0,0,0.3-0.4,0.7-0.7c0.4-0.3,1.1-0.5,2,0.1l0.3,0.2l-5.5,8.6l-0.1,0.3l-0.2-0.1c-0.9-0.2-1.9,0.2-2.4,0.9
				c-0.3,0.5-0.4,1.1-0.3,1.6c0.1,0.6,0.5,1.1,1,1.4c0.5,0.3,1.1,0.4,1.6,0.3c0.6-0.1,1.1-0.5,1.4-1c0.5-0.8,0.4-1.8-0.1-2.5
				l-0.2-0.2l0.3-0.3l5.5-8.6l0.3,0.2c1.3,0.8,1,2.1,0.6,2.7l-0.8,1.3c0.1,0.8,0.7,5.1-2.7,10.2l0,0.1l-0.1,0
				c-3.1,1.9-3.1,1.9-4,3.2L-914.9,102.9z M-917.6,100.4l2.5,1.6l0.7-1.1c0.9-1.4,1-1.5,4.1-3.3c3.4-5.4,2.5-9.8,2.5-9.9l0-0.1
				l1-1.5c0.1-0.1,0.6-1-0.2-1.7l-5.2,8c0.6,0.9,0.6,2.1,0,3c-0.4,0.6-1,1.1-1.8,1.2c-0.7,0.2-1.5,0-2.1-0.4c-0.6-0.4-1.1-1-1.2-1.8
				c-0.2-0.7,0-1.5,0.4-2.1c0.6-0.9,1.7-1.4,2.8-1.2l5.2-8c-0.9-0.4-1.5,0.4-1.6,0.6l-1,1.5l-0.1,0c0,0-4.5,1-7.9,6.4
				c-0.4,3.6-0.4,3.7-1.3,5.1l-0.7,1.1L-917.6,100.4L-917.6,100.4z"/>
		</g>
		<g>
			<path class="st0" d="M-939.4,97.1l-5.3-6.7l7.6-10l0.6-2.2c0,0,0.2-0.6,0.7-1.2c0.4-0.5,1.2-1,2.5-0.7c1.9,0.6,1.9,2.4,1.7,3.2
				l-0.6,2.2l0.9,12.6L-939.4,97.1z M-943.9,90.4l4.7,6l7.2-2.4l-0.9-12.2l0.7-2.3c0-0.1,0.5-1.9-1.2-2.5c-1.8-0.5-2.4,1.3-2.4,1.4
				l-0.7,2.3L-943.9,90.4z M-936.7,90.5c-0.2,0-0.5,0-0.7-0.1c-0.6-0.2-1.2-0.6-1.5-1.2c-0.3-0.6-0.4-1.3-0.2-2v0
				c0.2-0.7,0.6-1.2,1.2-1.6c0.6-0.3,1.3-0.4,1.9-0.2c0.6,0.2,1.2,0.6,1.5,1.2c0.3,0.6,0.4,1.3,0.2,2c-0.2,0.7-0.6,1.2-1.2,1.6
				C-935.8,90.4-936.3,90.5-936.7,90.5z M-938.4,87.3c-0.2,0.5-0.1,1.1,0.1,1.5c0.2,0.5,0.6,0.8,1.1,0.9c0.5,0.1,1,0.1,1.4-0.2
				c0.5-0.3,0.8-0.7,0.9-1.2c0.2-0.5,0.1-1.1-0.1-1.5c-0.2-0.5-0.6-0.8-1.1-0.9c-0.5-0.1-1-0.1-1.4,0.2
				C-937.9,86.4-938.3,86.8-938.4,87.3L-938.4,87.3z"/>
		</g>
	</g>
</g>
</svg>
