<?xml version="1.0" encoding="utf-8"?>
<!-- Generator: Adobe Illustrator 21.1.0, SVG Export Plug-In . SVG Version: 6.00 Build 0)  -->
<svg version="1.1" xmlns="http://www.w3.org/2000/svg" xmlns:xlink="http://www.w3.org/1999/xlink" x="0px" y="0px"
	 viewBox="0 0 160 160" style="enable-background:new 0 0 160 160;" xml:space="preserve">
<style type="text/css">
	.st0{fill:#FFFFFF;}
	.st1{fill:none;}
</style>
<g id="circle">
	<path class="st0" d="M80,2c43,0,78,35,78,78s-35,78-78,78S2,123,2,80S37,2,80,2 M80,0C35.8,0,0,35.8,0,80s35.8,80,80,80
		s80-35.8,80-80S124.2,0,80,0L80,0z"/>
</g>
<g id="_x31_">
	<g>
		<rect x="33.8" y="94.4" class="st1" width="25.3" height="3.8"/>
		<path class="st1" d="M95.1,43.1H64.9v25.2h30.1V43.1z M94.6,51.5H65.4v-7.8h29.3V51.5z"/>
		<rect x="67.4" y="45.7" class="st1" width="25.3" height="3.8"/>
		<path class="st1" d="M31.4,116.9h30.1V91.8H31.4V116.9z M31.8,92.4h29.3v7.8H31.8V92.4z"/>
		<path class="st1" d="M98.5,116.9h30.1V91.8H98.5V116.9z M98.9,92.4h29.3v7.8H98.9V92.4z"/>
		<rect x="100.9" y="94.4" class="st1" width="25.3" height="3.8"/>
		<path class="st0" d="M61.1,92.4H31.8v7.8h29.3V92.4z M59.1,98.2H33.8v-3.8h25.3V98.2z"/>
		<path class="st0" d="M114.6,89.8V78.9H81v-8.7h16.1V41.1H62.9v29.2H79v8.7H45.4v10.8H29.4v29.2h34.1V89.8H47.4v-8.8h65.2v8.8H96.5
			v29.2h34.1V89.8H114.6z M64.9,43.1h30.1v25.2H64.9V43.1z M61.5,116.9H31.4V91.8h30.1V116.9z M128.6,116.9H98.5V91.8h30.1V116.9z"
			/>
		<path class="st0" d="M128.2,92.4H98.9v7.8h29.3V92.4z M126.2,98.2h-25.3v-3.8h25.3V98.2z"/>
		<path class="st0" d="M65.4,51.5h29.3v-7.8H65.4V51.5z M67.4,45.7h25.3v3.8H67.4V45.7z"/>
	</g>
</g>
</svg>
