<?xml version="1.0" encoding="utf-8"?>
<!-- Generator: Adobe Illustrator 21.1.0, SVG Export Plug-In . SVG Version: 6.00 Build 0)  -->
<svg version="1.1" xmlns="http://www.w3.org/2000/svg" xmlns:xlink="http://www.w3.org/1999/xlink" x="0px" y="0px"
	 viewBox="0 0 160 160" style="enable-background:new 0 0 160 160;" xml:space="preserve">
<style type="text/css">
	.st0{fill:#FFFFFF;}
	.st1{fill:none;}
</style>
<g id="circle">
	<path class="st0" d="M80,2c43,0,78,35,78,78s-35,78-78,78S2,123,2,80S37,2,80,2 M80,0C35.8,0,0,35.8,0,80s35.8,80,80,80
		s80-35.8,80-80S124.2,0,80,0L80,0z"/>
</g>
<g id="_x33_">
	<g>
		<path class="st1" d="M119.3,111c0.3-0.1,0.9-1.2,0.9-3.1c0-1.9-0.7-3-1-3.1c-0.3,0.1-0.9,1.2-0.9,3.1
			C118.3,109.8,119,110.9,119.3,111z"/>
		<path class="st1" d="M122.2,107.9c0,2.2-0.7,3.9-1.7,4.6h5.4v-2.3c0-3.1-2.1-5.7-4.9-6.4C121.8,104.7,122.2,106.1,122.2,107.9z"/>
		<path class="st1" d="M46.8,97.3L46.8,97.3c0,1.3,1.1,2.4,2.4,2.4h55c1.3,0,2.4-1.1,2.4-2.4l0,0c0,0,0,0,0,0c0,0,0,0,0-0.1v-0.2
			c0-1.3-1.1-2.4-2.4-2.4H84.8c-0.6,0-1-0.4-1-1v-5.9c0-0.6,0.4-1,1-1h24.7c2.1,0,3.7-1.7,3.7-3.7V40.4c0-2.1-1.7-3.7-3.7-3.7H43.9
			c-2.1,0-3.7,1.7-3.7,3.7V83c0,2.1,1.7,3.7,3.7,3.7h24.7c0.6,0,1,0.4,1,1v5.9c0,0.6-0.4,1-1,1H49.2c-1.3,0-2.4,1.1-2.4,2.4
			L46.8,97.3C46.8,97.2,46.8,97.2,46.8,97.3C46.8,97.3,46.8,97.3,46.8,97.3z"/>
		<path class="st1" d="M112.6,114.5v2.3c0,3.7,3,6.7,6.7,6.7c3.7,0,6.7-3,6.7-6.7v-2.3H112.6z"/>
		<path class="st1" d="M104.2,101.6h-55c-2,0-3.8-1.4-4.3-3.3H17.7c0.7,25.3,28.4,45.8,62.3,45.8s61.6-20.4,62.3-45.8h-33.8
			C108,100.2,106.2,101.6,104.2,101.6z M119.3,101.5c4.8,0,8.7,3.9,8.7,8.7v6.6c0,4.8-3.9,8.7-8.7,8.7c-4.8,0-8.7-3.9-8.7-8.7v-6.6
			C110.6,105.4,114.5,101.5,119.3,101.5z"/>
		<path class="st1" d="M118,112.5c-1-0.8-1.7-2.5-1.7-4.6c0-1.8,0.5-3.2,1.2-4.1c-2.8,0.8-4.9,3.4-4.9,6.4v2.3H118z"/>
		<path class="st0" d="M108.5,96.3c-0.3-2.1-2.1-3.8-4.3-3.8H85.8v-3.9h23.7c3.2,0,5.7-2.6,5.7-5.7V40.4c0-3.2-2.6-5.7-5.7-5.7H43.9
			c-3.2,0-5.7,2.6-5.7,5.7V83c0,3.2,2.6,5.7,5.7,5.7h23.7v3.9H49.2c-2.2,0-4,1.6-4.3,3.8H15.7v1c0,26.9,28.8,48.8,64.3,48.8
			c35.5,0,64.3-21.9,64.3-48.8v-1H108.5z M46.8,96.9c0-1.3,1.1-2.4,2.4-2.4h19.4c0.6,0,1-0.4,1-1v-5.9c0-0.6-0.4-1-1-1H43.9
			c-2.1,0-3.7-1.7-3.7-3.7V40.4c0-2.1,1.7-3.7,3.7-3.7h65.6c2.1,0,3.7,1.7,3.7,3.7V83c0,2.1-1.7,3.7-3.7,3.7H84.8c-0.6,0-1,0.4-1,1
			v5.9c0,0.6,0.4,1,1,1h19.4c1.3,0,2.4,1.1,2.4,2.4v0.2c0,0,0,0,0,0.1c0,0,0,0,0,0l0,0c0,1.3-1.1,2.4-2.4,2.4h-55
			c-1.3,0-2.4-1.1-2.4-2.4l0,0c0,0,0,0,0,0c0,0,0-0.1,0-0.1V96.9z M80,144.1c-33.9,0-61.6-20.4-62.3-45.8h27.2
			c0.5,1.9,2.2,3.3,4.3,3.3h55c2,0,3.8-1.4,4.3-3.3h33.8C141.6,123.6,113.9,144.1,80,144.1z"/>
		<path class="st0" d="M119.3,125.6c4.8,0,8.7-3.9,8.7-8.7v-6.6c0-4.8-3.9-8.7-8.7-8.7c-4.8,0-8.7,3.9-8.7,8.7v6.6
			C110.6,121.7,114.5,125.6,119.3,125.6z M119.3,123.6c-3.7,0-6.7-3-6.7-6.7v-2.3h13.4v2.3C125.9,120.6,122.9,123.6,119.3,123.6z
			 M119.2,104.8c0.3,0.1,1,1.2,1,3.1c0,1.9-0.7,3-0.9,3.1c-0.3-0.1-1-1.2-1-3.1C118.3,106,119,104.9,119.2,104.8z M125.9,110.2v2.3
			h-5.4c1-0.8,1.7-2.5,1.7-4.6c0-1.8-0.5-3.2-1.2-4.1C123.9,104.6,125.9,107.1,125.9,110.2z M117.5,103.8c-0.7,0.9-1.2,2.4-1.2,4.1
			c0,2.2,0.7,3.9,1.7,4.6h-5.4v-2.3C112.6,107.1,114.7,104.6,117.5,103.8z"/>
	</g>
</g>
</svg>
