<?xml version="1.0" encoding="utf-8"?>
<!-- Generator: Adobe Illustrator 21.1.0, SVG Export Plug-In . SVG Version: 6.00 Build 0)  -->
<svg version="1.1" xmlns="http://www.w3.org/2000/svg" xmlns:xlink="http://www.w3.org/1999/xlink" x="0px" y="0px"
	 viewBox="0 0 160 160" style="enable-background:new 0 0 160 160;" xml:space="preserve">
<style type="text/css">
	.st0{fill:#FFFFFF;}
</style>
<g id="circle">
	<path class="st0" d="M80,2c43,0,78,35,78,78s-35,78-78,78S2,123,2,80S37,2,80,2 M80,0C35.8,0,0,35.8,0,80s35.8,80,80,80
		s80-35.8,80-80S124.2,0,80,0L80,0z"/>
</g>
<g id="_x32_">
	<g>
		<path class="st0" d="M111.7,121c-1.3,0-2.5-0.3-3.2-1c-1-1-12.7-12.7-12.7-12.7l-2.1-2.1c-1.6,0.3-4.3,0.7-5.4-0.4
			c-0.9-0.9-1.5-1.5-1.5-1.5c-0.7-0.7-1.2-2.1,0.2-3.4l3.2-3.2l-9-9.1l-4.5,4.4c1.3,2.7,1.9,5.5,1.9,8.3c0,10.9-8.9,19.7-19.7,19.7
			c0,0,0,0,0,0c-1.6,0-3.2-0.2-5.1-0.8l-1.7-0.5L62.8,108l-2.1-9.7L51,96.1l-10.7,10.6l-0.4-1.7c-0.5-1.9-0.7-3.5-0.7-5
			c0-5.3,2.1-10.2,5.8-13.9c3.7-3.7,8.7-5.7,13.9-5.7c0,0,0,0,0.1,0c3.2,0,6.3,0.8,9.2,2.4l4.2-4.2L56.1,62.3l-6.3-3.8l-5.1-5.2
			l-5.6-10.3l4.2-4.2l10.5,5.8l5.1,5.2l3.6,6.1l16.2,16.3l4.2-4.2c-1.6-2.9-2.3-6-2.3-9.2c0-5.3,2.1-10.2,5.8-13.9
			c3.7-3.7,8.7-5.7,14-5.7c1.6,0,3.3,0.2,5.1,0.8l1.7,0.5L96.4,51l2.1,9.7l9.7,2.1l10.7-10.6l0.4,1.7c0.5,1.9,0.7,3.5,0.7,5
			c0,10.9-8.9,19.7-19.7,19.7c0,0,0,0-0.1,0c-2.8,0-5.6-0.7-8.3-2l-4.4,4.4l9.1,9.1l3.2-3.2c1.3-1.3,2.8-0.8,3.4-0.1l0,0l0,0l0,0
			c0,0,0.6,0.6,1.6,1.6c1.1,1.1,0.7,3.8,0.4,5.3l2.1,2.1l0,0c0,0,11.6,11.7,12.7,12.7l0,0c1.4,1.4,1.4,5,0,6.4
			c-0.9,0.9-2.5,2.5-2.5,2.5l-2.5,2.5C114.2,120.7,112.9,121,111.7,121z M94.3,102.9l2.9,2.9c0,0,11.7,11.7,12.7,12.7
			c0.6,0.6,3,0.5,3.6,0l2.5-2.5c0,0,1.6-1.5,2.5-2.5c0.5-0.5,0.6-2.9,0-3.6l0,0c-1-1-12.7-12.7-12.7-12.7l-2.9-2.9l0.1-0.5
			c0.4-1.7,0.5-3.7,0.3-4.1c-0.9-0.9-1.5-1.5-1.5-1.5c-0.2-0.2-0.3-0.1-0.6,0.2L96.6,93l-11.9-12l6.9-6.8l0.6,0.3
			c2.6,1.4,5.3,2,8.1,2.1c0,0,0,0,0,0c9.7,0,17.7-7.9,17.7-17.7c0-0.9-0.1-1.8-0.2-2.8l-9,8.9l-12.1-2.6l-2.5-12.1l9-8.9
			c-1-0.2-1.9-0.3-2.8-0.3c0,0,0,0-0.1,0c-4.7,0-9.1,1.8-12.5,5.1c-3.4,3.3-5.2,7.8-5.2,12.5c0,3.1,0.8,6.1,2.4,8.9l0.4,0.7
			l-6.7,6.7L60.8,57l-3.6-6.1l-4.8-4.8l-8.8-4.9l-2.1,2l4.8,8.9l4.8,4.8l6.3,3.8l17.7,17.9l-6.7,6.7l-0.7-0.4
			c-2.8-1.6-5.8-2.5-8.9-2.5c-4.7,0-9.2,1.8-12.5,5.2c-3.4,3.3-5.2,7.8-5.2,12.5c0,0.9,0.1,1.8,0.2,2.8l9-8.9l12.1,2.6l2.5,12.1
			l-9,8.9c1,0.2,1.9,0.3,2.8,0.3c0,0,0,0,0,0c9.8,0,17.7-7.9,17.7-17.7c0-2.7-0.7-5.5-2-8.1l-0.3-0.7l6.9-6.9L93,96.6l-4.6,4.6
			c-0.3,0.3-0.3,0.4-0.1,0.6c0,0,0.6,0.6,1.5,1.5c0.4,0.2,2.3,0.1,4-0.3L94.3,102.9z"/>
	</g>
</g>
</svg>
