<?xml version="1.0" encoding="utf-8"?>
<!-- Generator: Adobe Illustrator 21.1.0, SVG Export Plug-In . SVG Version: 6.00 Build 0)  -->
<svg version="1.1" xmlns="http://www.w3.org/2000/svg" xmlns:xlink="http://www.w3.org/1999/xlink" x="0px" y="0px"
	 viewBox="0 0 160 160" style="enable-background:new 0 0 160 160;" xml:space="preserve">
<style type="text/css">
	.st0{fill:#FFFFFF;}
</style>
<g id="circle">
	<path class="st0" d="M80,2c43,0,78,35,78,78s-35,78-78,78S2,123,2,80S37,2,80,2 M80,0C35.8,0,0,35.8,0,80s35.8,80,80,80
		s80-35.8,80-80S124.2,0,80,0L80,0z"/>
</g>
<g id="_x35_">
	<path class="st0" d="M86.6,22.9l2.4,16.3l0.2,1.3l1.3,0.3c2.2,0.6,4.4,1.4,6.4,2.3l1.3,0.6l1-1l11.1-11.3l8.5,6.2l-7.6,14.7
		l-0.6,1.2l0.8,1c1.4,1.8,2.7,3.7,3.8,5.7l0.7,1.2l1.4-0.2l15.6-2.6l3.3,10L121.6,76l-1.2,0.6l0.1,1.3c0,0.7,0.1,1.4,0.1,2.1
		c0,1.5-0.1,3.1-0.3,4.8l-0.2,1.4l1.3,0.6l14.2,7.1l-3.3,10l-16.3-2.7l-1.3-0.2l-0.7,1.1c-1.3,1.9-2.7,3.7-4.2,5.4l-1,1l0.6,1.2
		l7.3,14.1l-8.5,6.2l-11.6-11.8l-0.9-0.9l-1.2,0.5c-2.1,0.8-4.4,1.5-6.6,1.9l-1.4,0.3l-0.2,1.4l-2.4,15.7H73.4l-2.4-16.3l-0.2-1.3
		l-1.3-0.3c-2.2-0.6-4.4-1.4-6.4-2.3l-1.3-0.6l-1,1l-11.1,11.3l-8.5-6.2l7.6-14.7l0.6-1.2l-0.8-1c-1.4-1.8-2.7-3.7-3.8-5.7L44,98.6
		l-1.4,0.2l-15.6,2.6l-3.3-10L38.4,84l1.2-0.6l-0.1-1.3c0-0.7-0.1-1.4-0.1-2.1c0-19.3,13.7-36,32.6-39.7l1.4-0.3l0.2-1.4l2.4-15.7
		H86.6 M80,97c9.4,0,17-7.6,17-17s-7.6-17-17-17s-17,7.6-17,17S70.6,97,80,97 M88.3,20.9h-14l-2.6,17.4c-19.5,3.9-34.2,21-34.2,41.7
		c0,0.7,0,1.5,0.1,2.2l-16.3,8.1l4.3,13.3l17.3-2.9c1.2,2.1,2.5,4.1,4,6l-8.4,16.2l11.3,8.2l12.3-12.5c2.2,1,4.4,1.8,6.8,2.5l2.7,18
		h14l2.6-17.4c2.4-0.5,4.7-1.1,6.9-2l12.8,13l11.3-8.2l-8.1-15.6c1.6-1.8,3.1-3.7,4.4-5.7l18,3l4.3-13.3L122.2,85
		c0.2-1.6,0.3-3.3,0.3-5c0-0.7,0-1.5-0.1-2.2l16.3-8.1l-4.3-13.3l-17.3,2.9c-1.2-2.1-2.5-4.1-4-6l8.4-16.2l-11.3-8.2L97.8,41.4
		c-2.2-1-4.4-1.8-6.8-2.5L88.3,20.9L88.3,20.9z M80,95c-8.3,0-15-6.7-15-15c0-8.3,6.7-15,15-15c8.3,0,15,6.7,15,15
		C95,88.3,88.3,95,80,95L80,95z"/>
</g>
</svg>
