<?xml version="1.0" encoding="utf-8"?>
<!-- Generator: Adobe Illustrator 21.1.0, SVG Export Plug-In . SVG Version: 6.00 Build 0)  -->
<svg version="1.1" xmlns="http://www.w3.org/2000/svg" xmlns:xlink="http://www.w3.org/1999/xlink" x="0px" y="0px"
	 viewBox="0 0 160 160" style="enable-background:new 0 0 160 160;" xml:space="preserve">
<style type="text/css">
	.st0{fill:#FFFFFF;}
</style>
<g id="circle">
	<path class="st0" d="M80,2c43,0,78,35,78,78s-35,78-78,78S2,123,2,80S37,2,80,2 M80,0C35.8,0,0,35.8,0,80s35.8,80,80,80
		s80-35.8,80-80S124.2,0,80,0L80,0z"/>
</g>
<g id="_x34_">
	<g>
		<g>
			<path class="st0" d="M118.1,59.3l0-0.1c0-0.9-0.1-1.9-0.3-2.9l-2.3,2.2l-1.4-1.4l4.8-4.8l0.4,1.7c0.5,1.9,0.7,3.5,0.7,5
				L118.1,59.3z"/>
		</g>
		<g>
			<polygon class="st0" points="108.9,65.2 103.5,64 103.9,62.1 108.2,63 111.4,59.9 112.8,61.3 			"/>
		</g>
		<g>
			<polygon class="st0" points="102.3,63.8 96.8,62.6 95.6,57.1 97.6,56.7 98.5,60.9 102.8,61.8 			"/>
		</g>
		<g>
			<polygon class="st0" points="95.4,55.9 94.3,50.5 98.2,46.6 99.6,48 96.4,51.2 97.4,55.5 			"/>
		</g>
		<g>
			<path class="st0" d="M102.4,45.2l-1.4-1.4l2.3-2.3c-1-0.2-1.9-0.3-2.8-0.3l-0.1,0v-2l0.1,0c1.6,0,3.2,0.2,5.1,0.8l1.7,0.5
				L102.4,45.2z"/>
		</g>
		<g>
			<path class="st0" d="M83.7,52.9l-1.9-0.7c1.4-3.8,3.9-7,7.2-9.3l1.1,1.6C87.2,46.6,85,49.5,83.7,52.9z"/>
		</g>
		<g>
			<path class="st0" d="M81.4,72.6L80,71.2l3-3c-0.7-1.3-1.3-2.7-1.7-4.2l1.9-0.5c0.4,1.5,1,3,1.8,4.4l0.4,0.7L81.4,72.6z"/>
		</g>
		<g>
			<path class="st0" d="M68.5,85.4L67.8,85c-1.4-0.8-2.9-1.4-4.3-1.9l0.5-1.9c1.4,0.4,2.8,1,4.1,1.7l3-3l1.4,1.4L68.5,85.4z"/>
		</g>
		<g>
			<path class="st0" d="M44.4,90l-1.6-1.2c2.4-3.3,5.6-5.8,9.4-7.1l0.7,1.9C49.5,84.8,46.6,87,44.4,90z"/>
		</g>
		<g>
			<path class="st0" d="M40.3,106.9l-0.4-1.7c-0.5-1.9-0.7-3.5-0.7-5l0-0.2l2,0l0,0.2c0,0.9,0.1,1.8,0.2,2.8l2.3-2.2l1.4,1.4
				L40.3,106.9z"/>
		</g>
		<g>
			<polygon class="st0" points="47.8,99.4 46.4,98 50.4,94.1 55.8,95.2 55.4,97.2 51,96.2 			"/>
		</g>
		<g>
			<polygon class="st0" points="61.6,102.6 60.7,98.4 56.5,97.4 56.9,95.5 62.4,96.7 63.6,102.2 			"/>
		</g>
		<g>
			<polygon class="st0" points="61,112.7 59.6,111.2 62.8,108.1 61.9,103.7 63.8,103.3 65,108.8 			"/>
		</g>
		<g>
			<path class="st0" d="M58.9,120h-0.1c-1.6,0-3.2-0.2-5.1-0.8l-1.7-0.5l4.8-4.7l1.4,1.4l-2.3,2.3c1,0.2,1.9,0.3,2.8,0.3h0.1V120z"
				/>
		</g>
		<g>
			<path class="st0" d="M69.9,116.6l-1.1-1.7c2.9-2,5.2-4.7,6.5-8l1.9,0.8C75.7,111.3,73.2,114.4,69.9,116.6z"/>
		</g>
		<g>
			<path class="st0" d="M76.2,96.7c-0.3-1.5-0.9-3-1.6-4.4l-0.3-0.7l4.1-4l1.4,1.4l-3,3c0.7,1.4,1.1,2.8,1.5,4.3L76.2,96.7z"/>
		</g>
		<g>
			<path class="st0" d="M88.9,79.8l-1.4-1.4l4.1-4l0.6,0.3c1.4,0.8,2.9,1.3,4.4,1.6l-0.4,2c-1.4-0.3-2.9-0.8-4.3-1.5L88.9,79.8z"/>
		</g>
		<g>
			<path class="st0" d="M107.7,77.3l-0.7-1.9c3.3-1.3,6-3.5,8-6.4l1.6,1.1C114.4,73.4,111.3,75.9,107.7,77.3z"/>
		</g>
	</g>
	<g>
		<g>
			<path class="st0" d="M111.7,121.1c-1.3,0-2.5-0.3-3.2-1c-1-1-12.7-12.7-12.7-12.7l-2.1-2.1c-1.6,0.3-4.3,0.7-5.4-0.4
				c-0.9-0.9-1.5-1.5-1.5-1.5c-0.7-0.7-1.2-2.1,0.2-3.4l3.2-3.2L56.1,62.4l-6.3-3.8l-5.1-5.2L39.1,43l4.2-4.2l10.5,5.8l5.1,5.2
				l3.6,6.1l34.1,34.3l3.2-3.2c1.3-1.3,2.8-0.8,3.4-0.1l0,0l0,0l0,0c0,0,0.6,0.6,1.6,1.6c1.1,1.1,0.7,3.8,0.4,5.3l2.1,2.1l0,0
				c0,0,11.7,11.7,12.7,12.8c1.4,1.4,1.4,5,0,6.4c-0.9,0.9-2.5,2.5-2.5,2.5l-2.5,2.5C114.2,120.8,113,121.1,111.7,121.1z M94.4,103
				l2.9,2.9c0,0,11.7,11.7,12.7,12.7c0.6,0.6,3,0.5,3.6,0l2.5-2.5c0,0,1.6-1.5,2.5-2.5c0.5-0.5,0.6-2.9,0-3.6
				c-1-1-12.7-12.8-12.7-12.8l-2.9-2.9l0.1-0.5c0.4-1.7,0.5-3.7,0.3-4.1c-0.9-0.9-1.5-1.5-1.5-1.5c-0.2-0.2-0.3-0.1-0.6,0.2
				l-4.6,4.6l-35.7-36L57.2,51l-4.8-4.8l-8.8-4.9l-2.1,2l4.8,8.9l4.8,4.8l6.3,3.8L93,96.7l-4.6,4.6c-0.3,0.3-0.3,0.4-0.1,0.6
				c0,0,0.6,0.6,1.5,1.5c0.4,0.2,2.3,0.1,4-0.3L94.4,103z"/>
		</g>
	</g>
</g>
</svg>
