<?xml version="1.0" encoding="utf-8"?>
<!-- Generator: Adobe Illustrator 21.1.0, SVG Export Plug-In . SVG Version: 6.00 Build 0)  -->
<svg version="1.1" xmlns="http://www.w3.org/2000/svg" xmlns:xlink="http://www.w3.org/1999/xlink" x="0px" y="0px"
	 viewBox="0 0 160 160" style="enable-background:new 0 0 160 160;" xml:space="preserve">
<style type="text/css">
	.st0{fill:#FFFFFF;}
</style>
<g id="circle">
	<path class="st0" d="M80,2c43,0,78,35,78,78s-35,78-78,78S2,123,2,80S37,2,80,2 M80,0C35.8,0,0,35.8,0,80s35.8,80,80,80
		s80-35.8,80-80S124.2,0,80,0L80,0z"/>
</g>
<g id="_x31_">
	<g>
		<path class="st0" d="M80,130l-0.9-1.6c-1.3-2.4-3.5-6.1-6-10.4c-10.3-17.5-27.4-46.8-27.4-56.7C45.7,38.2,63.4,30,80,30
			c16.6,0,34.3,8.2,34.3,31.3c0,10-17.2,39.2-27.4,56.7c-2.5,4.3-4.7,8-6,10.4L80,130z M80,32c-5.4,0-32.3,1.4-32.3,29.3
			c0,9.4,17,38.4,27.1,55.7c2,3.5,3.8,6.5,5.2,8.9c1.3-2.3,3.1-5.4,5.2-8.9c10.1-17.3,27.1-46.3,27.1-55.7C112.3,33.4,85.4,32,80,32
			z M80,72.9c-6.4,0-11.6-5.2-11.6-11.6S73.6,49.7,80,49.7s11.6,5.2,11.6,11.6S86.4,72.9,80,72.9z M80,51.7c-5.3,0-9.6,4.3-9.6,9.6
			c0,5.3,4.3,9.6,9.6,9.6c5.3,0,9.6-4.3,9.6-9.6C89.6,56,85.3,51.7,80,51.7z"/>
	</g>
</g>
</svg>
