<svg xmlns="http://www.w3.org/2000/svg" viewBox="0 0 160 160"><defs><style>.cls-1{fill:#fff;}</style></defs><g id="circle"><path class="cls-1" d="M80,2A78,78,0,1,1,2,80,78.09,78.09,0,0,1,80,2m0-2a80,80,0,1,0,80,80A80,80,0,0,0,80,0Z"/></g><g id="_3" data-name="3"><path class="cls-1" d="M113,106.35V77.47H81.24V65.59l18.88-6.74.08,0,.1,0,0,0,0,0,0,0,.11-.11,0,0,0,0a1,1,0,0,0,.08-.14l0-.07v0a1,1,0,0,0,.05-.24l2.11-26.5h0s0,0,0,0v0s0,0,0-.07a1,1,0,0,0,0-.17v0l0-.07a1,1,0,0,0-.06-.14l0-.06,0,0-.11-.13,0-.05,0,0,0,0a1,1,0,0,0-.22-.13l-21.19-9a1,1,0,0,0-.32-.07h-.15a1,1,0,0,0-.26.05l-19.54,7-.14.07h0l0,0,0,0,0,0-.12.11,0,.05,0,0a1,1,0,0,0-.08.14l0,.08v0a1,1,0,0,0-.05.24l-2.11,26.5s0,0,0,0v0s0,0,0,.06a1,1,0,0,0,0,.17v0l0,.07a1,1,0,0,0,.07.15l0,.05,0,0,.12.13,0,.05,0,0,0,0,.09,0,.13.08,20.58,8.74V77.47H46.35V93.38l-29.73,8.5,30.82,8.8,30.82-8.8L48.35,93.33V79.47H111V106c-1.46-.24-3-.43-4.53-.54a39.37,39.37,0,0,0-17.57,2.39c-5,2.1-7.95,5.24-8.2,8.85-.52,7.29,10,13.79,23.92,14.78q1.8.13,3.53.13c12.27,0,21.77-4.7,22.24-11.37C130.8,114.12,123.52,108.58,113,106.35ZM80.41,38.65l.89.38-.77,9.63-.89-.38Zm1.9,12.93L97,57.83,81.36,63.42Zm.17-2.1.83-10.37,13.86-4.95,3.61-1.29L98.9,56.44Zm-18.56-20,15.67-5.59-.94,11.85Zm14.56,8.35-.83,10.37L60.17,54.43,62,30.85Zm3.92-.51-1.81-.77,1-12.67,17.56,7.45ZM78.56,50l1.81.77-1,12.67L61.8,56ZM47.44,108.61,23.9,101.88l23.54-6.73L71,101.88Zm80.93,11.47c-.43,6-11.25,10.26-23.64,9.39s-22.49-6.67-22.06-12.64c.2-2.81,2.68-5.35,7-7.15A35.2,35.2,0,0,1,103,107.31c1.1,0,2.21,0,3.34.12C118.69,108.31,128.79,114.1,128.37,120.07Z"/></g></svg>
