<?xml version="1.0" encoding="utf-8"?>
<!-- Generator: Adobe Illustrator 21.1.0, SVG Export Plug-In . SVG Version: 6.00 Build 0)  -->
<svg version="1.1" xmlns="http://www.w3.org/2000/svg" xmlns:xlink="http://www.w3.org/1999/xlink" x="0px" y="0px"
	 viewBox="0 0 160 160" style="enable-background:new 0 0 160 160;" xml:space="preserve">
<style type="text/css">
	.st0{fill:#FFFFFF;}
</style>
<g id="circle">
	<path class="st0" d="M80,2c43,0,78,35,78,78s-35,78-78,78S2,123,2,80S37,2,80,2 M80,0C35.8,0,0,35.8,0,80s35.8,80,80,80
		s80-35.8,80-80S124.2,0,80,0L80,0z"/>
</g>
<g id="lean_engine">
	<path class="st0" d="M78.5,30.4v2c12.3,0,24.1,3.5,35.2,10.3V44l-0.3,0.3H112l-1.4-1.2c-0.4-0.3-0.8-0.5-1.3-0.5H51.4
		c-0.8,0-1.5,0.5-1.8,1.2l-0.5,1.1h-1.6l-0.6-0.6v-4c3.4-1.9,15.6-7.9,31.6-7.9L78.5,30.4 M78.5,30.4c-19.7,0-33.6,8.7-33.6,8.7v6
		l1.8,1.7h3.8l1-2.3h57.9l1.9,1.7h3l1.4-1.4v-3.2C102.4,33.1,89.5,30.4,78.5,30.4L78.5,30.4z"/>
	<path class="st0" d="M104.8,122.8c0,0.2,0,0.3,0,0.4c-0.2,0.1-0.6,0.2-0.9,0.3l-7.9,0.8c-0.2,0-0.5,0.1-0.7,0.2l-6,3H72.9l-6.4-3.1
		c-0.2-0.1-0.5-0.2-0.8-0.2c-3.5-0.2-7.7-0.5-8.4-0.7c-0.2-0.1-0.3-0.2-0.5-0.3v-0.4H104.8 M106.7,120.8H54.8v3.1
		c0,0,0.6,1.1,1.8,1.6c1.1,0.4,9,0.9,9,0.9l6.8,3.3h17.4l6.4-3.2l8.1-0.8c0,0,2.3-0.6,2.4-1.4C106.8,123.4,106.7,120.8,106.7,120.8
		L106.7,120.8z"/>
	<g>
		<path class="st0" d="M53.8,101.9h-3.4c-0.3,0-0.5-0.1-0.7-0.3c-0.2-0.2-0.3-0.4-0.3-0.7l0-1.8c-0.3,0-0.6-0.2-0.8-0.5L48.2,98
			c-0.1-0.2-0.1-0.3-0.1-0.5l0-3.5c0-0.3,0.2-0.7,0.5-0.8l0.2-0.2l0-1.9c0-0.2,0-0.3,0.1-0.5l0.4-0.8v-3.7c0-0.3,0.1-0.6,0.3-0.7
			l0-1.1l-2.6-1c-0.4-0.2-0.6-0.5-0.6-0.9V71.2c0-0.6,0.4-1,1-1h9.5c0.6,0,1,0.4,1,1v11.3c0,0.4-0.3,0.8-0.7,0.9l-2.6,1v1.1
			c0.2,0.2,0.3,0.4,0.3,0.7l0,3.5l0.5,0.9c0.1,0.1,0.1,0.3,0.1,0.5v2l0.3,0.2c0.3,0.2,0.4,0.5,0.4,0.8l0,3.4c0,0.2-0.1,0.4-0.2,0.5
			l-0.4,0.7c-0.2,0.2-0.4,0.4-0.7,0.4v1.8C54.8,101.5,54.3,101.9,53.8,101.9z M51.3,99.9h1.4v-1.8c0-0.5,0.4-1,1-1l0.3,0l0-2.6
			l-0.3-0.2c-0.3-0.2-0.4-0.5-0.4-0.8v-2.2l-0.5-0.9c-0.1-0.1-0.1-0.3-0.1-0.5l0-3.1c-0.2-0.2-0.3-0.4-0.3-0.7v-2.6c0-0.6,0.4-1,1-1
			h0.2l2-0.8v-9.6h-7.5v9.5l2.1,0.8h0.2c0.5,0,1,0.4,1,1l0,2.6c0,0.3-0.1,0.5-0.3,0.7c0,0,0,0,0,0v3.2c0,0.2,0,0.3-0.1,0.5l-0.4,0.8
			l0,2.2c0,0.3-0.2,0.7-0.5,0.8l-0.2,0.2l0,2.6h0.3c0.3,0,0.5,0.1,0.7,0.3c0.2,0.2,0.3,0.4,0.3,0.7L51.3,99.9z"/>
	</g>
	<g>
		<path class="st0" d="M67.3,101.1h-3.4c-0.3,0-0.5-0.1-0.7-0.3c-0.2-0.2-0.3-0.4-0.3-0.7l0-1.8c-0.3,0-0.6-0.2-0.8-0.5l-0.4-0.6
			c-0.1-0.1-0.1-0.3-0.1-0.5l0-3.5c0-0.3,0.2-0.7,0.5-0.8l0.2-0.2l0-1.9c0-0.2,0-0.3,0.1-0.5l0.4-0.8v-3.7c0-0.3,0.1-0.6,0.3-0.7
			l0-1.1l-2.6-1c-0.4-0.2-0.6-0.5-0.6-0.9V70.3c0-0.6,0.4-1,1-1h9.5c0.6,0,1,0.4,1,1v11.3c0,0.4-0.3,0.8-0.7,0.9l-2.6,1v1.1
			c0.2,0.2,0.3,0.4,0.3,0.7l0,3.5l0.5,0.9c0.1,0.1,0.1,0.3,0.1,0.5v2l0.3,0.2c0.3,0.2,0.4,0.5,0.4,0.8l0,3.4c0,0.2-0.1,0.4-0.2,0.5
			L69,97.8c-0.2,0.2-0.4,0.4-0.7,0.4v1.8C68.3,100.6,67.8,101.1,67.3,101.1z M64.8,99.1h1.4v-1.8c0-0.5,0.4-1,1-1l0.3,0l0-2.6
			l-0.3-0.2c-0.3-0.2-0.4-0.5-0.4-0.8v-2.2l-0.5-0.9c-0.1-0.1-0.1-0.3-0.1-0.5l0-3.1c-0.2-0.2-0.3-0.4-0.3-0.7v-2.6c0-0.6,0.4-1,1-1
			h0.2l2-0.8v-9.6h-7.5v9.5l2.1,0.8h0.2c0.5,0,1,0.4,1,1l0,2.6c0,0.3-0.1,0.5-0.3,0.7c0,0,0,0,0,0v3.2c0,0.2,0,0.3-0.1,0.5l-0.4,0.8
			l0,2.2c0,0.3-0.2,0.7-0.5,0.8l-0.2,0.2l0,2.6h0.3c0.3,0,0.5,0.1,0.7,0.3c0.2,0.2,0.3,0.4,0.3,0.7L64.8,99.1z"/>
	</g>
	<g>
		<path class="st0" d="M80.8,97.9h-3.4c-0.3,0-0.5-0.1-0.7-0.3c-0.2-0.2-0.3-0.4-0.3-0.7l0-1.2c-0.3,0-0.5-0.2-0.7-0.4l-0.4-0.5
			c-0.1-0.2-0.2-0.4-0.2-0.6l0-2.7c0-0.4,0.2-0.7,0.6-0.9l0.1-0.1l0-1.2c0-0.2,0.1-0.4,0.2-0.6l0.4-0.6v-2.7c0-0.3,0.1-0.6,0.3-0.7
			l0-0.5l-2.5-0.8c-0.4-0.1-0.7-0.5-0.7-1V71.2c0-0.6,0.4-1,1-1h9.5c0.6,0,1,0.4,1,1v11.4c0,0.4-0.3,0.8-0.7,1l-2.6,0.7v0.5
			c0.2,0.2,0.3,0.4,0.3,0.7l0,2.6l0.4,0.6c0.1,0.2,0.2,0.4,0.2,0.6v1.3l0.2,0.1c0.3,0.2,0.5,0.5,0.5,0.9l0,2.7
			c0,0.2-0.1,0.5-0.2,0.6l-0.5,0.5c-0.2,0.2-0.4,0.3-0.6,0.3v1.2C81.8,97.4,81.4,97.9,80.8,97.9z M78.4,95.9h1.4v-1.2
			c0-0.5,0.4-1,1-1l0.3,0l0-1.6L81,92c-0.3-0.2-0.5-0.5-0.5-0.9v-1.6L80,88.9c-0.1-0.2-0.2-0.4-0.2-0.6l0-2.2
			c-0.2-0.2-0.3-0.4-0.3-0.7v-2.1c0-0.6,0.4-1,1-1h0.3l2-0.6v-9.6h-7.5v9.6l2,0.6h0.2c0.5,0,1,0.4,1,1l0,2.1c0,0.3-0.1,0.5-0.3,0.7
			c0,0,0,0,0,0v2.3c0,0.2-0.1,0.4-0.2,0.6l-0.4,0.6l0,1.6c0,0.4-0.2,0.7-0.6,0.9l-0.1,0.1l0,1.6h0.3c0.3,0,0.5,0.1,0.7,0.3
			c0.2,0.2,0.3,0.4,0.3,0.7L78.4,95.9z"/>
	</g>
	<path class="st0" d="M107.7,53c0.3,0.2,0.7,0.3,1,0.3h4.9v3h-4.9c-0.4,0-0.7,0.1-1,0.3c-0.3-0.2-0.7-0.3-1-0.3H104
		c-0.4,0-0.7,0.1-1,0.3c-0.3-0.2-0.7-0.3-1-0.3h-7.7c-0.3,0-0.5,0.1-0.8,0.1c-0.2-0.1-0.5-0.1-0.8-0.1h-3.4c-0.3,0-0.5,0.1-0.8,0.1
		c-0.2-0.1-0.5-0.1-0.8-0.1h-7.2c-0.3,0-0.5,0.1-0.8,0.1c-0.2-0.1-0.5-0.1-0.8-0.1h-3.4c-0.3,0-0.5,0.1-0.8,0.1
		c-0.2-0.1-0.5-0.1-0.8-0.1h-7c-0.3,0-0.5,0.1-0.8,0.1c-0.2-0.1-0.5-0.1-0.8-0.1h-3.2c-0.3,0-0.5,0.1-0.8,0.1
		c-0.2-0.1-0.5-0.1-0.8-0.1h-7.1c-0.4,0-0.7,0.1-1,0.3c-0.3-0.2-0.7-0.3-1-0.3h-2.9c-0.4,0-0.7,0.1-1,0.3c-0.3-0.2-0.6-0.3-0.9-0.3
		v-3c0.3,0,0.6-0.1,0.9-0.3c0.3,0.2,0.7,0.3,1,0.3h2.9c0.4,0,0.7-0.1,1-0.3c0.3,0.2,0.7,0.3,1,0.3h48.3c0.4,0,0.7-0.1,1-0.3
		c0.3,0.2,0.7,0.3,1,0.3h2.7C107,53.3,107.4,53.2,107.7,53 M104,48.4h-2.1v2.8H53.7v-2.8h-2.1v2.8h-2.9v-0.6h-2.1v0.6h-1.8v7h1.8V62
		h0.3v3.8c-0.6,0.3-1.1,0.9-1.1,1.6h3.7c0-0.7-0.5-1.4-1.1-1.7V62h0.3v-3.7h2.9v1.4h0.3v3.8c-0.6,0.3-1.1,0.9-1.1,1.6h3.7
		c0-0.7-0.5-1.4-1.1-1.7v-3.7h0.3v-1.4h7.1V62c-0.6,0.3-1.1,0.9-1.1,1.6h3.7c0-0.7-0.5-1.4-1.1-1.7v-3.6h3.2V62
		c-0.6,0.3-1.1,0.9-1.1,1.6h3.7c0-0.7-0.5-1.4-1.1-1.7v-3.6h7V62c-0.6,0.3-1.1,0.9-1.1,1.6h3.7c0-0.7-0.5-1.4-1.1-1.7v-3.6H79V62
		c-0.6,0.3-1.1,0.9-1.1,1.6h3.7c0-0.7-0.5-1.4-1.1-1.7v-3.6h7.2V62c-0.6,0.3-1.1,0.9-1.1,1.6h3.7c0-0.7-0.5-1.4-1.1-1.7v-3.6h3.4V62
		c-0.6,0.3-1.1,0.9-1.1,1.6h3.7c0-0.7-0.5-1.4-1.1-1.7v-3.6h7.7v1.4h0.3v3.8c-0.6,0.3-1.1,0.9-1.1,1.6h3.7c0-0.7-0.5-1.4-1.1-1.7
		v-3.7h0.3v-1.4h2.7v3.3h0.3v3.8c-0.6,0.3-1.1,0.9-1.1,1.6h3.7c0-0.7-0.5-1.4-1.1-1.7v-3.7h0.3v-3.3h6.9v-7h-6.9v-0.9h-2.1v0.9H104
		V48.4L104,48.4z"/>
	<g>
		<path class="st0" d="M93.9,97.8h-3.4c-0.3,0-0.5-0.1-0.7-0.3c-0.2-0.2-0.3-0.4-0.3-0.7l0-1.2c-0.3,0-0.5-0.2-0.7-0.4l-0.4-0.5
			c-0.1-0.2-0.2-0.4-0.2-0.6l0-2.7c0-0.4,0.2-0.7,0.6-0.9l0.1-0.1l0-1.2c0-0.2,0.1-0.4,0.2-0.6l0.4-0.6v-2.7c0-0.3,0.1-0.6,0.3-0.7
			l0-0.5l-2.5-0.8c-0.4-0.1-0.7-0.5-0.7-1V71.1c0-0.6,0.4-1,1-1H97c0.6,0,1,0.4,1,1v11.4c0,0.4-0.3,0.8-0.7,1l-2.6,0.7v0.5
			c0.2,0.2,0.3,0.4,0.3,0.7l0,2.6l0.4,0.6c0.1,0.2,0.2,0.4,0.2,0.6v1.3l0.2,0.1c0.3,0.2,0.5,0.5,0.5,0.9l0,2.7
			c0,0.2-0.1,0.5-0.2,0.6l-0.4,0.5c-0.2,0.2-0.4,0.3-0.6,0.3v1.2C94.9,97.3,94.5,97.8,93.9,97.8z M91.5,95.8h1.4v-1.2
			c0-0.5,0.4-1,1-1l0.3,0l0-1.6l-0.2-0.1c-0.3-0.2-0.5-0.5-0.5-0.9v-1.6l-0.4-0.6c-0.1-0.2-0.2-0.4-0.2-0.6l0-2.2
			c-0.2-0.2-0.3-0.4-0.3-0.7v-2.1c0-0.6,0.4-1,1-1H94l2-0.6v-9.6h-7.5v9.6l2,0.6h0.2c0.5,0,1,0.4,1,1l0,2.1c0,0.3-0.1,0.5-0.3,0.7
			c0,0,0,0,0,0v2.3c0,0.2-0.1,0.4-0.2,0.5l-0.4,0.6l0,1.6c0,0.4-0.2,0.7-0.6,0.9L90.2,92l0,1.6h0.3c0.3,0,0.5,0.1,0.7,0.3
			c0.2,0.2,0.3,0.4,0.3,0.7L91.5,95.8z"/>
	</g>
	<g>
		<path class="st0" d="M107.4,102.2h-3.4c-0.3,0-0.5-0.1-0.7-0.3c-0.2-0.2-0.3-0.4-0.3-0.7l0-1.8c-0.3,0-0.6-0.2-0.8-0.5l-0.4-0.6
			c-0.1-0.2-0.1-0.3-0.1-0.5l0-3.5c0-0.3,0.2-0.7,0.5-0.8l0.2-0.2l0-1.9c0-0.2,0-0.3,0.1-0.5l0.4-0.8v-3.7c0-0.3,0.1-0.6,0.3-0.7
			l0-1.1l-2.6-1c-0.4-0.2-0.6-0.5-0.6-0.9V71.4c0-0.6,0.4-1,1-1h9.5c0.6,0,1,0.4,1,1v11.3c0,0.4-0.3,0.8-0.7,0.9l-2.6,1v1.1
			c0.2,0.2,0.3,0.4,0.3,0.7l0,3.5l0.5,0.9c0.1,0.1,0.1,0.3,0.1,0.5v2l0.3,0.2c0.3,0.2,0.4,0.5,0.4,0.8l0,3.4c0,0.2-0.1,0.4-0.2,0.5
			l-0.4,0.7c-0.2,0.2-0.4,0.4-0.7,0.4v1.8C108.4,101.7,107.9,102.2,107.4,102.2z M104.9,100.2h1.4v-1.8c0-0.5,0.4-1,1-1l0.3,0l0-2.6
			l-0.3-0.2c-0.3-0.2-0.4-0.5-0.4-0.8v-2.2l-0.5-0.9c-0.1-0.1-0.1-0.3-0.1-0.5l0-3.1c-0.2-0.2-0.3-0.4-0.3-0.7v-2.6c0-0.6,0.4-1,1-1
			h0.2l2-0.8v-9.6H102V82l2.1,0.8h0.2c0.5,0,1,0.4,1,1l0,2.6c0,0.3-0.1,0.5-0.3,0.7c0,0,0,0,0,0v3.2c0,0.2,0,0.3-0.1,0.5l-0.4,0.8
			l0,2.2c0,0.3-0.2,0.7-0.5,0.8l-0.2,0.2l0,2.6h0.3c0.3,0,0.5,0.1,0.7,0.3c0.2,0.2,0.3,0.4,0.3,0.7L104.9,100.2z"/>
	</g>
	<path class="st0" d="M113.3,105.4v2.1h6.5v3.2h-6.5v2.3h-1.9h-1.8v-3.7h1.8v-3.9H113.3 M113.3,103.4h-1.9c-1.1,0-2,0.9-2,2v1.9
		c-1,0.1-1.8,1-1.8,2v3.7c0,1.1,0.9,2,2,2h1.8h1.9c1.1,0,2-0.9,2-2v-0.3h4.5c1.1,0,2-0.9,2-2v-3.2c0-1.1-0.9-2-2-2h-4.5v-0.1
		C115.3,104.3,114.4,103.4,113.3,103.4L113.3,103.4z"/>
	<path class="st0" d="M60.3,104v5.4h1.2v4.3h-1.2h-2.8h-1.1v-4.3h1.1V104H60.3 M60.3,102h-2.8c-1.1,0-2,0.9-2,2v3.6
		c-0.6,0.3-1.1,1-1.1,1.8v4.3c0,1.1,0.9,2,2,2h1.1h2.8h1.2c1.1,0,2-0.9,2-2v-4.3c0-0.8-0.5-1.5-1.2-1.8V104
		C62.3,102.9,61.4,102,60.3,102L60.3,102z"/>
	<path class="st0" d="M44.5,98.5v12.8h1.7v1.2h-1.7V124h-3.6v-11.6h-0.7v-2.7h0.7V98.5H44.5 M44.5,96.5h-3.6c-1.1,0-2,0.9-2,2v9.8
		c-0.4,0.4-0.7,0.9-0.7,1.5v2.7c0,0.6,0.3,1.2,0.7,1.5v10c0,1.1,0.9,2,2,2h3.6c1.1,0,2-0.9,2-2v-9.6c1-0.1,1.7-1,1.7-2v-1.2
		c0-1-0.8-1.8-1.7-2V98.5C46.5,97.4,45.6,96.5,44.5,96.5L44.5,96.5z"/>
	<path class="st0" d="M98.1,102.4v6.9v0.8h1.5v3.1h-1.5h-4.9v-2h-4.5v4.5h-1.8h-3.2h-2.3v-2.5h-7h-2.9h-1.1v-4h1.1V103h2.9v6.2h7
		h2.3v-3.7h3.2v2.6h8.9v-5.7H98.1 M98.1,100.4h-2.4c-1.1,0-2,0.9-2,2v3.7h-4.9v-0.6c0-1.1-0.9-2-2-2h-3.2c-1.1,0-2,0.9-2,2v1.7h-0.3
		h-5V103c0-1.1-0.9-2-2-2h-2.9c-1.1,0-2,0.9-2,2v4.4c-0.7,0.3-1.1,1-1.1,1.8v4c0,1.1,0.9,2,2,2h1.1h2.9h5v0.5c0,1.1,0.9,2,2,2h2.3
		h3.2h1.8c1.1,0,2-0.9,2-2v-2.5h0.5v0c0,1.1,0.9,2,2,2h4.9h1.5c1.1,0,2-0.9,2-2v-3.1c0-0.9-0.7-1.7-1.5-1.9v-5.8
		C100.1,101.3,99.2,100.4,98.1,100.4L98.1,100.4z"/>
</g>
</svg>
