<?xml version="1.0" encoding="utf-8"?>
<!-- Generator: Adobe Illustrator 21.1.0, SVG Export Plug-In . SVG Version: 6.00 Build 0)  -->
<svg version="1.1" xmlns="http://www.w3.org/2000/svg" xmlns:xlink="http://www.w3.org/1999/xlink" x="0px" y="0px"
	 viewBox="0 0 160 160" style="enable-background:new 0 0 160 160;" xml:space="preserve">
<style type="text/css">
	.st0{fill:#FFFFFF;}
</style>
<g id="circle">
	<path class="st0" d="M80,2c43,0,78,35,78,78s-35,78-78,78S2,123,2,80S37,2,80,2 M80,0C35.8,0,0,35.8,0,80s35.8,80,80,80
		s80-35.8,80-80S124.2,0,80,0L80,0z"/>
</g>
<g id="vision">
	<path class="st0" d="M79.7,57.1c12.7,0,23,10.3,23,23s-10.3,23-23,23s-23-10.3-23-23S67,57.1,79.7,57.1 M79.7,55.1
		c-13.8,0-25,11.2-25,25s11.2,25,25,25c13.8,0,25-11.2,25-25S93.5,55.1,79.7,55.1L79.7,55.1z"/>
	<path class="st0" d="M79.7,47.1c26.9,0,51.9,12,68.7,33c-16.8,21-41.8,33-68.7,33c-26.9,0-51.9-12-68.7-33
		C27.8,59.1,52.7,47.1,79.7,47.1 M79.7,45.1c-29,0-54.8,13.7-71.2,35c16.5,21.3,42.2,35,71.2,35c29,0,54.8-13.7,71.2-35
		C134.4,58.8,108.7,45.1,79.7,45.1L79.7,45.1z"/>
</g>
</svg>
