<?xml version="1.0" encoding="utf-8"?>
<!-- Generator: Adobe Illustrator 21.1.0, SVG Export Plug-In . SVG Version: 6.00 Build 0)  -->
<svg version="1.1" id="Layer_1" xmlns="http://www.w3.org/2000/svg" xmlns:xlink="http://www.w3.org/1999/xlink" x="0px" y="0px"
	 viewBox="0 0 160 160" style="enable-background:new 0 0 160 160;" xml:space="preserve">
<style type="text/css">
	.st0{fill:#FFFFFF;}
</style>
<g id="Color">
</g>
<g id="circle">
	<g>
		<path class="st0" d="M80,2c43,0,78,35,78,78s-35,78-78,78S2,123,2,80S37,2,80,2 M80,0C35.8,0,0,35.8,0,80s35.8,80,80,80
			s80-35.8,80-80S124.2,0,80,0L80,0z"/>
	</g>
	<g>
		<path class="st0" d="M69.5,48.8c0,0,0-10.7,0.1-10.7c0-1.1,0.1-2.7,1.4-5.6c1.4-3,2.9-5.7,2.9-5.7c0.4-0.7,0.6-1.5,0.6-2.3
			c0.1-3.3-5.2-7.5-5.2-7.5c-0.4-0.3-0.7-0.4-0.9-0.3c0,0-0.8,0.3-0.6,1.2c0.1,0.5,0.2,0.9,0.8,3.3c0.2,0.7,0.8,2.5,0.1,3.5
			c-0.5,0.5-1.2,0.8-2.1,1.1c-1.8,0.4-3.3-0.1-3.7-1.5c-0.8-2.4-1.4-4.9-1.5-5.2c0-0.2-0.2-0.3-0.5-0.3c-0.6,0-1.1,0.8-1.4,1.3
			c-1.2,2.5-1.3,5.7-1,7.5c0.2,1.5,1.6,2.8,2.8,5c1.6,3,1.8,5.5,1.8,6v10.3c0,2.1,1.7,2.7,3.3,2.7C67.3,51.5,69.5,50.9,69.5,48.8z"
			/>
	</g>
	<g>
		<path class="st0" d="M66.2,57.5c-2.7,0-5.1-0.9-6.8-2.6c-1.6-1.6-2.4-3.7-2.4-6.1v-0.4c0-0.6,0.4-1,1-1l0,0c0.6,0,1,0.5,1,1v0.4
			c0,1.8,0.7,3.5,1.9,4.7c1.3,1.3,3.2,2,5.4,2h0.1h0.1c3.4-0.1,7-2.4,7.1-6.7v-0.7c0-0.6,0.4-1,1-1l0,0c0.6,0,1,0.5,1,1v0.7
			c0,5.3-4.6,8.6-9,8.7h-0.1C66.3,57.5,66.2,57.5,66.2,57.5z M57.2,36.5c-0.4,0-0.7-0.2-0.9-0.6c-0.1-0.2-0.2-0.4-0.3-0.6
			c-0.3-0.6-0.7-1.1-1.1-1.7c-0.9-1.3-2-3-2.3-5.2c-0.1-0.9-0.2-1.8-0.2-2.8c0-0.7,0-1.5,0.1-2.2c0.1-0.5,0.6-0.9,1.1-0.9
			c0.5,0.1,0.9,0.6,0.9,1.1c-0.1,0.7-0.1,1.4-0.1,2c0,0.9,0.1,1.8,0.2,2.5c0.3,1.8,1.2,3.1,2,4.4c0.4,0.6,0.8,1.2,1.2,1.9
			c0.1,0.2,0.3,0.5,0.4,0.7c0.2,0.5,0,1.1-0.5,1.3C57.4,36.5,57.3,36.5,57.2,36.5z M75.2,36.2c-0.1,0-0.3,0-0.4-0.1
			c-0.5-0.2-0.8-0.8-0.5-1.3c0.1-0.2,0.2-0.5,0.3-0.8c1.3-2.8,2.7-5.4,2.8-5.4c0.7-1.4,1.1-2.7,1.1-4.1v-0.2c0-0.3,0-0.7-0.1-1
			c-0.1-0.5,0.3-1.1,0.8-1.1c0.6-0.1,1.1,0.3,1.1,0.8c0.1,0.4,0.1,0.9,0.1,1.3v0.2c0,1.7-0.5,3.3-1.3,4.9L79,29.5
			c0,0-1.4,2.6-2.7,5.3c-0.1,0.3-0.2,0.5-0.3,0.7C75.9,36,75.6,36.2,75.2,36.2z M63.6,15.3c-0.2,0-0.3,0-0.5-0.1
			c-0.7-0.4-1.6-0.6-2.5-0.6h-0.2c-0.6,0.1-1-0.4-1.1-0.9s0.4-1,0.9-1.1h0.2c0.1,0,0.3,0,0.4,0c0.8,0,1.6,0.2,2.4,0.4
			c0.8-0.9,1.8-1.6,2.9-2.1c0.8-0.3,1.6-0.5,2.4-0.5c1,0,2.6,0.2,4.1,1.4c0.4,0.3,0.5,1,0.2,1.4s-1,0.5-1.4,0.2
			c-1.1-0.8-2.2-1-2.9-1c-0.6,0-1.1,0.1-1.7,0.3c-1,0.4-1.9,1.1-2.4,2C64.3,15.2,63.9,15.3,63.6,15.3z"/>
	</g>
	<g>
		<path class="st0" d="M96.3,57.5c-3.4,0-6.4-1.1-8.5-3.2c-1.2-1.2-2.1-2.7-2.5-4.4c-0.1-0.5,0.2-1.1,0.7-1.2
			c0.5-0.1,1.1,0.2,1.2,0.7c0.3,1.3,1,2.4,1.9,3.4c1.7,1.7,4.2,2.6,7.1,2.6c2.3,0,4.4-0.6,6-1.6c0.3-0.2,0.5-0.4,0.8-0.6
			c0.4-0.4,1-0.3,1.4,0.1c0.4,0.4,0.3,1-0.1,1.4c-0.3,0.3-0.6,0.5-1,0.7C101.5,56.8,99.1,57.5,96.3,57.5z M106.7,42.9L106.7,42.9
			c-0.6,0-1-0.4-1-1v-7.6c0-0.7-0.2-1.7-1-2.7c-0.1-0.1-0.2-0.3-0.2-0.4c-0.1-0.5-0.3-0.9-0.5-1.3c-0.3-0.5-0.1-1.1,0.3-1.4
			c0.5-0.3,1.1-0.2,1.3,0.3l0.1,0.1c0.3,0.5,0.5,1,0.6,1.6c1,1.4,1.3,2.8,1.3,3.8v7.6C107.7,42.4,107.2,42.9,106.7,42.9z M86.2,37.8
			c-0.6,0-1-0.4-1-1v-2.5c0-1.4,0.4-2.7,1.3-3.8c0.2-1,0.7-1.8,1.3-2.6v-3.5c0-0.6,0.4-1,1-1s1,0.4,1,1v3.8c0,0.3-0.1,0.5-0.3,0.7
			c-0.6,0.6-1,1.4-1.1,2.2c0,0.2-0.1,0.3-0.2,0.4c-0.6,0.8-1,1.7-1,2.8v2.5C87.2,37.3,86.7,37.8,86.2,37.8z M103.4,17.6
			c-0.3,0-0.7-0.2-0.9-0.5c-0.1-0.1-0.2-0.2-0.2-0.4c-0.1-0.1-0.2-0.3-0.3-0.4l-2.2-2.5c-0.3-0.3-0.6-0.6-1-0.8
			c-0.2-0.1-0.3-0.2-0.5-0.3c-0.5-0.2-1.1-0.3-1.7-0.3h-0.4c-0.7,0-1.4,0.2-1.9,0.5c-0.3,0.2-0.6,0.3-0.8,0.6
			c-0.4,0.4-1,0.3-1.4-0.1c-0.4-0.4-0.3-1,0.1-1.4c0.4-0.3,0.8-0.6,1.2-0.8c0.9-0.5,1.9-0.7,2.9-0.7h0.4c0.8,0,1.7,0.2,2.4,0.5
			c0.2,0.1,0.5,0.2,0.7,0.4c0.5,0.3,1,0.7,1.5,1.2l2.2,2.5c0.2,0.2,0.3,0.4,0.5,0.6c0.1,0.2,0.2,0.3,0.3,0.5
			c0.3,0.5,0.1,1.1-0.4,1.4C103.7,17.6,103.5,17.6,103.4,17.6z"/>
	</g>
	<g>
		<path class="st0" d="M101.2,33.7c-0.1-0.1-0.2-0.1-0.3-0.2c-0.2-0.2-0.3-0.3-0.4-0.6l0,0V32c0-0.1,0-0.2-0.1-0.3
			c-0.1-0.1-0.2-0.2-0.2-0.2H99V19.2c0-0.1,0-0.1-0.1-0.1l0,0l0,0l0,0V19l-2.2-2.5l0,0c0,0-0.1,0-0.1-0.1c0,0,0,0-0.1,0h-0.4H96
			c0,0-0.1,0-0.1,0.1L93.6,19l0,0l0,0l0,0l0,0l-0.1,0.1v12.3h-1.2c-0.1,0-0.3,0.2-0.3,0.5v0.9l0,0c-0.1,0.3-0.2,0.5-0.4,0.6
			c-0.1,0.1-0.2,0.1-0.2,0.2c-0.3,0.2-0.4,0.3-0.4,0.5v13.4c0,1,0.3,1.8,1,2.4c0.9,0.9,2.4,1.4,4.2,1.4c1.5,0,2.8-0.3,3.8-1
			s1.5-1.7,1.5-2.9V34C101.7,34.1,101.5,33.9,101.2,33.7z"/>
	</g>
	<g>
		<g>
			<path class="st0" d="M42.8,109.5c-0.3,0-0.5-0.1-0.7-0.3l-6.6-6.6l-1,1c-0.4,0.4-1,0.4-1.4,0l-3.8-3.8c-0.2-0.2-0.3-0.4-0.3-0.7
				s0.1-0.5,0.3-0.7l9.2-9.2c0.4-0.4,1-0.4,1.4,0l3.6,3.6c0.4,0.4,0.4,1,0,1.4l-0.9,1l6.4,6.6c0.3,0.3,0.3,0.6,0.2,1
				c-0.1,0.3-0.4,0.6-0.7,0.7c-2.5,0.6-4.3,2.7-4.7,5.2c-0.1,0.4-0.3,0.7-0.7,0.8C43,109.5,42.9,109.5,42.8,109.5z M35.5,100.2
				c0.3,0,0.5,0.1,0.7,0.3l6.1,6.1c0.8-2,2.3-3.6,4.2-4.5l-6-6.2c-0.4-0.4-0.4-1,0-1.4l0.9-1l-2.2-2.2l-7.8,7.8l2.4,2.4l1-1
				C35,100.3,35.2,100.2,35.5,100.2z"/>
		</g>
		<g>
			<path class="st0" d="M57.2,109.5c-0.1,0-0.2,0-0.3-0.1c-0.4-0.1-0.6-0.4-0.7-0.8c-0.4-2.5-2.3-4.6-4.7-5.2
				c-0.3-0.1-0.6-0.4-0.7-0.7c-0.1-0.3,0-0.7,0.2-1l6.4-6.6l-0.9-1c-0.4-0.4-0.4-1,0-1.4l3.6-3.6c0.4-0.4,1-0.4,1.4,0l9.2,9.2
				c0.2,0.2,0.3,0.4,0.3,0.7s-0.1,0.5-0.3,0.7l-3.8,3.8c-0.4,0.4-1,0.4-1.4,0l-1-1l-6.6,6.6C57.7,109.4,57.5,109.5,57.2,109.5z
				 M53.5,102.1c1.9,0.9,3.4,2.5,4.2,4.5l6.1-6.1c0.4-0.4,1-0.4,1.4,0l1,1l2.4-2.4l-7.8-7.8l-2.2,2.2l0.9,1c0.4,0.4,0.4,1,0,1.4
				L53.5,102.1z"/>
		</g>
		<g>
			<path class="st0" d="M50,114.2c-2.5,0-4.6-2.1-4.6-4.6c0-2.4,1.8-4.4,4.1-4.6c0.3,0,0.7,0,1.1,0l0,0c2.3,0.3,4.1,2.3,4.1,4.6
				C54.6,112.2,52.5,114.2,50,114.2z M50,107c-0.1,0-0.2,0-0.3,0c-1.3,0.2-2.3,1.3-2.3,2.6c0,1.5,1.2,2.6,2.6,2.6s2.6-1.2,2.6-2.6
				s-1-2.5-2.3-2.6l0,0C50.2,107,50.1,107,50,107z"/>
		</g>
	</g>
	<g>
		<g>
			<path class="st0" d="M42.8,138.5c-0.3,0-0.5-0.1-0.7-0.3l-6.6-6.6l-1,1c-0.4,0.4-1,0.4-1.4,0l-3.8-3.8c-0.2-0.2-0.3-0.4-0.3-0.7
				s0.1-0.5,0.3-0.7l9.2-9.2c0.4-0.4,1-0.4,1.4,0l3.6,3.6c0.4,0.4,0.4,1,0,1.4l-0.9,1l6.4,6.6c0.3,0.3,0.3,0.6,0.2,1
				c-0.1,0.3-0.4,0.6-0.7,0.7c-2.5,0.6-4.3,2.7-4.7,5.2c-0.1,0.4-0.3,0.7-0.7,0.8C43,138.5,42.9,138.5,42.8,138.5z M35.5,129.2
				c0.3,0,0.5,0.1,0.7,0.3l6.1,6.1c0.8-2,2.3-3.6,4.2-4.5l-6-6.2c-0.4-0.4-0.4-1,0-1.4l0.9-1l-2.2-2.2l-7.8,7.8l2.4,2.4l1-1
				C35,129.3,35.2,129.2,35.5,129.2z"/>
		</g>
		<g>
			<path class="st0" d="M57.2,138.5c-0.1,0-0.2,0-0.3-0.1c-0.4-0.1-0.6-0.4-0.7-0.8c-0.4-2.5-2.3-4.6-4.7-5.2
				c-0.3-0.1-0.6-0.4-0.7-0.7c-0.1-0.3,0-0.7,0.2-1l6.4-6.6l-0.9-1c-0.4-0.4-0.4-1,0-1.4l3.6-3.6c0.4-0.4,1-0.4,1.4,0l9.2,9.2
				c0.2,0.2,0.3,0.4,0.3,0.7s-0.1,0.5-0.3,0.7l-3.8,3.8c-0.4,0.4-1,0.4-1.4,0l-1-1l-6.6,6.6C57.7,138.4,57.5,138.5,57.2,138.5z
				 M53.5,131.1c1.9,0.9,3.4,2.5,4.2,4.5l6.1-6.1c0.4-0.4,1-0.4,1.4,0l1,1l2.4-2.4l-7.8-7.8l-2.2,2.2l0.9,1c0.4,0.4,0.4,1,0,1.4
				L53.5,131.1z"/>
		</g>
		<g>
			<path class="st0" d="M50,143.2c-2.5,0-4.6-2.1-4.6-4.6c0-2.4,1.8-4.4,4.1-4.6c0.3,0,0.7,0,1.1,0l0,0c2.3,0.3,4.1,2.3,4.1,4.6
				C54.6,141.2,52.5,143.2,50,143.2z M50,136c-0.1,0-0.2,0-0.3,0c-1.3,0.2-2.3,1.3-2.3,2.6c0,1.5,1.2,2.6,2.6,2.6s2.6-1.2,2.6-2.6
				c0-1.4-1-2.5-2.3-2.6l0,0C50.2,136,50.1,136,50,136z"/>
		</g>
	</g>
	<g>
		<g>
			<path class="st0" d="M102.8,109.5c-0.3,0-0.5-0.1-0.7-0.3l-6.6-6.6l-1,1c-0.4,0.4-1,0.4-1.4,0l-3.8-3.8c-0.2-0.2-0.3-0.4-0.3-0.7
				s0.1-0.5,0.3-0.7l9.2-9.2c0.4-0.4,1-0.4,1.4,0l3.6,3.6c0.4,0.4,0.4,1,0,1.4l-0.9,1l6.4,6.6c0.3,0.3,0.3,0.6,0.2,1
				c-0.1,0.3-0.4,0.6-0.7,0.7c-2.5,0.6-4.4,2.7-4.7,5.2c-0.1,0.4-0.3,0.7-0.7,0.8C103,109.5,102.9,109.5,102.8,109.5z M95.5,100.2
				c0.3,0,0.5,0.1,0.7,0.3l6.1,6.1c0.8-2,2.3-3.6,4.2-4.5l-6-6.2c-0.4-0.4-0.4-1,0-1.4l0.9-1l-2.2-2.2l-7.8,7.8l2.4,2.4l1-1
				C95,100.3,95.2,100.2,95.5,100.2z"/>
		</g>
		<g>
			<path class="st0" d="M117.2,109.5c-0.1,0-0.2,0-0.3-0.1c-0.4-0.1-0.6-0.4-0.7-0.8c-0.4-2.5-2.3-4.6-4.7-5.2
				c-0.3-0.1-0.6-0.4-0.7-0.7c-0.1-0.3,0-0.7,0.2-1l6.4-6.6l-0.9-1c-0.4-0.4-0.4-1,0-1.4l3.6-3.6c0.4-0.4,1-0.4,1.4,0l9.2,9.2
				c0.2,0.2,0.3,0.4,0.3,0.7s-0.1,0.5-0.3,0.7l-3.8,3.8c-0.4,0.4-1,0.4-1.4,0l-1-1l-6.6,6.6C117.7,109.4,117.5,109.5,117.2,109.5z
				 M113.5,102.1c1.9,0.9,3.4,2.5,4.2,4.5l6.1-6.1c0.4-0.4,1-0.4,1.4,0l1,1l2.4-2.4l-7.8-7.8l-2.2,2.2l0.9,1c0.4,0.4,0.4,1,0,1.4
				L113.5,102.1z"/>
		</g>
		<g>
			<path class="st0" d="M110,114.2c-2.5,0-4.6-2.1-4.6-4.6c0-2.4,1.8-4.4,4.1-4.6c0.4,0,0.7,0,1.1,0c2.3,0.3,4.1,2.3,4.1,4.6
				C114.6,112.2,112.5,114.2,110,114.2z M110,107c-0.1,0-0.2,0-0.3,0c-1.3,0.2-2.3,1.3-2.3,2.6c0,1.5,1.2,2.6,2.6,2.6
				s2.6-1.2,2.6-2.6s-1-2.5-2.3-2.6l0,0C110.2,107,110.1,107,110,107z"/>
		</g>
	</g>
	<g>
		<g>
			<path class="st0" d="M102.8,138.5c-0.3,0-0.5-0.1-0.7-0.3l-6.6-6.6l-1,1c-0.4,0.4-1,0.4-1.4,0l-3.8-3.8c-0.2-0.2-0.3-0.4-0.3-0.7
				s0.1-0.5,0.3-0.7l9.2-9.2c0.4-0.4,1-0.4,1.4,0l3.6,3.6c0.4,0.4,0.4,1,0,1.4l-0.9,1l6.4,6.6c0.3,0.3,0.3,0.6,0.2,1
				c-0.1,0.3-0.4,0.6-0.7,0.7c-2.5,0.6-4.4,2.7-4.7,5.2c-0.1,0.4-0.3,0.7-0.7,0.8C103,138.5,102.9,138.5,102.8,138.5z M95.5,129.2
				c0.3,0,0.5,0.1,0.7,0.3l6.1,6.1c0.8-2,2.3-3.6,4.2-4.5l-6-6.2c-0.4-0.4-0.4-1,0-1.4l0.9-1l-2.2-2.2l-7.8,7.8l2.4,2.4l1-1
				C95,129.3,95.2,129.2,95.5,129.2z"/>
		</g>
		<g>
			<path class="st0" d="M117.2,138.5c-0.1,0-0.2,0-0.3-0.1c-0.4-0.1-0.6-0.4-0.7-0.8c-0.4-2.5-2.3-4.6-4.7-5.2
				c-0.3-0.1-0.6-0.4-0.7-0.7s0-0.7,0.2-1l6.4-6.6l-0.9-1c-0.4-0.4-0.4-1,0-1.4l3.6-3.6c0.4-0.4,1-0.4,1.4,0l9.2,9.2
				c0.2,0.2,0.3,0.4,0.3,0.7s-0.1,0.5-0.3,0.7l-3.8,3.8c-0.4,0.4-1,0.4-1.4,0l-1-1l-6.6,6.6C117.7,138.4,117.5,138.5,117.2,138.5z
				 M113.5,131.1c1.9,0.9,3.4,2.5,4.2,4.5l6.1-6.1c0.4-0.4,1-0.4,1.4,0l1,1l2.4-2.4l-7.8-7.8l-2.2,2.2l0.9,1c0.4,0.4,0.4,1,0,1.4
				L113.5,131.1z"/>
		</g>
		<g>
			<path class="st0" d="M110,143.2c-2.5,0-4.6-2.1-4.6-4.6c0-2.4,1.8-4.4,4.1-4.6c0.4,0,0.7,0,1.1,0c2.3,0.3,4.1,2.3,4.1,4.6
				C114.6,141.2,112.5,143.2,110,143.2z M110,136c-0.1,0-0.2,0-0.3,0c-1.3,0.2-2.3,1.3-2.3,2.6c0,1.5,1.2,2.6,2.6,2.6
				s2.6-1.2,2.6-2.6c0-1.4-1-2.5-2.3-2.6l0,0C110.2,136,110.1,136,110,136z"/>
		</g>
	</g>
	<g>
		<path class="st0" d="M80,73c-0.6,0-1-0.4-1-1v-8.3c0-0.6,0.4-1,1-1s1,0.4,1,1V72C81,72.6,80.6,73,80,73z"/>
	</g>
	<g>
		<path class="st0" d="M110,81.3c-0.6,0-1-0.4-1-1V73H51v7.3c0,0.6-0.4,1-1,1s-1-0.4-1-1V72c0-0.6,0.4-1,1-1h60c0.6,0,1,0.4,1,1v8.3
			C111,80.9,110.6,81.3,110,81.3z"/>
	</g>
</g>
</svg>
