<?xml version="1.0" encoding="utf-8"?>
<!-- Generator: Adobe Illustrator 21.1.0, SVG Export Plug-In . SVG Version: 6.00 Build 0)  -->
<svg version="1.1" xmlns="http://www.w3.org/2000/svg" xmlns:xlink="http://www.w3.org/1999/xlink" x="0px" y="0px"
	 viewBox="0 0 160 160" style="enable-background:new 0 0 160 160;" xml:space="preserve">
<style type="text/css">
	.st0{fill:#FFFFFF;}
</style>
<g id="circle">
	<path class="st0" d="M80,2c43,0,78,35,78,78s-35,78-78,78S2,123,2,80S37,2,80,2 M80,0C35.8,0,0,35.8,0,80s35.8,80,80,80
		s80-35.8,80-80S124.2,0,80,0L80,0z"/>
</g>
<g id="total">
	<g>
		<path class="st0" d="M81.3,122.5c-2.8,0-5.2-2.2-5.4-5.1c0-0.2,0-0.3,0-0.4c0-3,2.4-5.5,5.5-5.5c3,0,5.5,2.4,5.5,5.5
			c0,0.1,0,0.2,0,0.3C86.5,120.2,84.2,122.5,81.3,122.5z M81.3,113.6c-1.9,0-3.5,1.6-3.5,3.5c0,0.1,0,0.2,0,0.2
			c0.1,1.8,1.6,3.2,3.4,3.2c1.8,0,3.3-1.4,3.4-3.2c0-0.1,0-0.1,0-0.2C84.8,115.1,83.2,113.6,81.3,113.6z"/>
	</g>
	<path class="st0" d="M119.9,97.9c-2-3.1-7.2-5.1-13.3-7.5c-1.7-0.6-3.4-1.3-5.1-2c-5.5-2.3-8-3.5-9-4l-0.1-6.4
		c0.8-0.9,2.8-3.4,3.7-8.6c0.4-0.1,0.8-0.2,1.3-0.6c1.5-1.1,2.6-3.3,2.7-4.8c0.1-1.3-0.1-4.9-1.6-6.3c-0.2-0.2-0.4-0.3-0.7-0.4
		c0.5-3.8,0.6-6,0.5-7.4c-0.6-6.5-7-13.2-16.5-13.2c-9.5,0-15.9,6.7-16.5,13.2c-0.1,1.4,0,3.6,0.5,7.4c-0.2,0.1-0.5,0.2-0.7,0.4
		c-1.6,1.4-1.7,5-1.6,6.3c0.1,1.5,1.2,3.8,2.7,4.8c0.5,0.3,0.9,0.5,1.3,0.6c0.8,5.3,2.8,7.8,3.7,8.6L71,84.3c-0.9,0.5-3.4,1.7-9,4
		c-1.7,0.7-3.4,1.4-5.1,2c-6.1,2.4-11.3,4.4-13.3,7.5c-2.2,3.4-1.7,17.9-1.6,19.5l0,1h22.7v0c0,1.5,1.2,2.8,2.8,2.8h2.9
		c0.2,0.6,0.5,1.2,0.9,1.8l-1.9,1.9c-1.1,1.1-1.1,2.9,0,3.9l1.3,1.3c1.1,1.1,2.9,1.1,3.9,0l2.2-2.2c0.6,0.2,1.1,0.4,1.7,0.6v2.9
		c0,1.5,1.2,2.8,2.8,2.8h1.8c1.5,0,2.8-1.3,2.8-2.8v-3.5c0.5-0.2,0.9-0.4,1.4-0.7l2.3,2.3c1.1,1.1,2.8,1.1,3.9,0l1.3-1.3
		c0.5-0.5,0.8-1.2,0.8-2c0-0.7-0.3-1.4-0.8-2l-2.7-2.7c0.2-0.4,0.3-0.9,0.5-1.3H96c1.2,0,2.3-0.8,2.6-1.9h22.8l0-1
		C121.6,115.7,122.1,101.3,119.9,97.9z M96.8,117.5c0,0.4-0.3,0.8-0.8,0.8H91l-0.2,0.8c-0.2,0.8-0.4,1.5-0.8,2.3l-0.3,0.6l3.7,3.7
		c0.2,0.1,0.2,0.3,0.2,0.6c0,0.2-0.1,0.4-0.2,0.6l-1.3,1.3c-0.3,0.3-0.8,0.3-1.1,0l-3.5-3.5l-0.7,0.5c-0.7,0.5-1.4,0.9-2.3,1.2
		l-0.7,0.2v4.9c0,0.4-0.4,0.8-0.8,0.8h-1.8c-0.4,0-0.8-0.4-0.8-0.8v-4.6l-0.8-0.1c-0.9-0.1-1.8-0.4-2.7-0.9l-0.6-0.3l-3.2,3.2
		c-0.3,0.3-0.8,0.3-1.1,0l-1.3-1.3c-0.3-0.3-0.3-0.8,0-1.1l3-3l-0.5-0.7c-0.6-0.8-1-1.7-1.3-2.7l-0.2-0.7h-4.3
		c-0.4,0-0.8-0.4-0.8-0.8v-1.8c0-0.4,0.4-0.8,0.8-0.8h4.2l0.2-0.8c0.2-1,0.6-1.9,1.1-2.8l0.4-0.7l-3.1-3.1c-0.3-0.3-0.3-0.8,0-1.1
		l1.3-1.3c0.3-0.3,0.8-0.3,1.1,0l3.1,3.1l0.7-0.4c0.8-0.5,1.7-0.9,2.6-1.1l0.8-0.2v-4.7c0-0.4,0.4-0.8,0.8-0.8h1.8
		c0.4,0,0.8,0.4,0.8,0.8v4.7l0.8,0.2c0.8,0.2,1.6,0.5,2.4,1l0.7,0.4l3.6-3.5c0.3-0.3,0.8-0.3,1.1,0l1.3,1.3c0.1,0.1,0.2,0.3,0.2,0.6
		c0,0.2-0.1,0.4-0.2,0.5l-3.5,3.5l0.4,0.7c0.4,0.7,0.8,1.4,1,2.2l0.2,0.7H96c0.4,0,0.8,0.4,0.8,0.8V117.5z M119.5,116.3H98.8v-0.6
		c0-1.5-1.3-2.8-2.8-2.8h-3.8c-0.2-0.4-0.4-0.8-0.6-1.2l2.4-2.4c0.5-0.5,0.8-1.2,0.8-2c0-0.7-0.3-1.5-0.8-2l-1.3-1.3
		c-1.1-1.1-2.8-1.1-3.9,0l-2.5,2.5c-0.5-0.2-1-0.4-1.5-0.6v-3.2c0-1.5-1.2-2.8-2.8-2.8h-1.8c-1.5,0-2.8,1.2-2.8,2.8v3.2
		c-0.6,0.2-1.1,0.4-1.7,0.7l-2-2c-1.1-1.1-2.9-1.1-3.9,0l-1.3,1.3c-1.1,1.1-1.1,2.8,0,3.9l2,2c-0.3,0.6-0.5,1.2-0.7,1.9h-2.6
		c-1.4,0-2.6,1.1-2.8,2.5H44c-0.2-6,0-15.3,1.3-17.4c1.6-2.6,6.8-4.6,12.3-6.7c1.7-0.6,3.4-1.3,5.1-2c7.7-3.2,9.7-4.4,9.7-4.4
		l0.5-0.3l0.1-8l0-0.5l-0.4-0.3c0,0-2.6-2.2-3.4-8.6L69.1,67l-1.1,0.3c-0.2,0.1-0.4,0-0.7-0.2c-0.9-0.7-1.8-2.4-1.9-3.3
		c-0.1-1.5,0.2-4,1-4.6c0.1-0.1,0.2-0.1,0.3-0.1l1.4,0.3L67.9,58c-0.4-2.8-0.8-6.3-0.6-7.9c0.5-5.6,6.1-11.4,14.5-11.4
		c8.4,0,14,5.8,14.5,11.4c0.2,1.7-0.2,5.1-0.6,7.9l-0.2,1.4l1.4-0.3c0.1,0,0.2,0,0.3,0.1c0.7,0.6,1.1,3.2,1,4.6
		c-0.1,0.9-0.9,2.6-1.9,3.3c-0.3,0.2-0.5,0.3-0.7,0.2L94.4,67l-0.1,1.2c-0.8,6.4-3.4,8.6-3.4,8.6L90.5,77l0.1,8.5l0.5,0.3
		c0.1,0,2,1.2,9.7,4.4c1.7,0.7,3.5,1.4,5.1,2c5.5,2.1,10.7,4.1,12.3,6.7C119.5,101,119.7,110.3,119.5,116.3z"/>
	<g>
		<g>
			<path class="st0" d="M146.5,104.7h-23.6l0-1c0-0.3,0-0.6,0-0.9l0-0.7l0.7-0.3c0.1,0,0.2-0.1,0.2-0.3v-3.8l0.7-0.2
				c0.6-0.2,1.1-0.5,1.6-0.8l0.7-0.5l2.7,2.7c0.1,0.1,0.3,0.1,0.4,0l0.9-0.9c0.1-0.1,0.1-0.2,0.1-0.2c0-0.1,0-0.1-0.1-0.2l-2.8-2.8
				l0.3-0.6c0.3-0.5,0.4-1,0.6-1.6l0.2-0.8h3.9c0.2,0,0.3-0.1,0.3-0.3v-1.3c0-0.2-0.1-0.3-0.3-0.3h-4l-0.2-0.7
				c-0.2-0.5-0.4-1-0.7-1.5l-0.4-0.7l2.7-2.7c0.1-0.1,0.1-0.2,0.1-0.2c0,0,0-0.1-0.1-0.2l-0.9-0.9c-0.1-0.1-0.3-0.1-0.4,0l-2.7,2.7
				l-0.7-0.4c-0.5-0.3-1.1-0.5-1.7-0.7l-0.8-0.2v-3.6c0-0.2-0.1-0.3-0.3-0.3h-1.3c-0.2,0-0.3,0.1-0.3,0.3v3.6l-0.8,0.2
				c-0.6,0.2-1.2,0.4-1.8,0.8l-0.7,0.4l-2.4-2.4c-0.1-0.1-0.3-0.1-0.4,0l-0.9,0.9c-0.1,0.1-0.1,0.3,0,0.4l2.4,2.4l-0.4,0.7
				c-0.4,0.6-0.6,1.3-0.8,2l-0.2,0.8l-3.3,0l-0.3,0.1l-0.3-0.1c-2.2-0.9-4.5-1.6-6.5-2.3c-4.3-1.4-6.6-2.1-6.6-3.9
				c0-5.5,6.1-7.1,11.6-8.6c1.5-0.4,2.9-0.8,4.2-1.2l0-3.7c-0.7-0.7-2.1-2.6-2.7-6.4c-0.3-0.1-0.6-0.2-0.9-0.4
				c-1.2-0.8-2.1-2.6-2.1-3.8c0,0-0.2-3.6,1.3-4.9c0.1-0.1,0.3-0.2,0.4-0.3c-0.3-2.8-0.4-4.4-0.3-5.4c0.5-5,5.3-10.1,12.7-10.1
				c7.3,0,12.2,5.2,12.7,10.1c0.1,1.2-0.1,3.3-0.4,5.4c0.1,0.1,0.3,0.2,0.4,0.3c1.5,1.3,1.3,4.9,1.3,4.9c-0.1,1.2-0.9,3-2.1,3.8
				c-0.3,0.2-0.6,0.4-0.9,0.4c-0.6,3.7-2,5.7-2.7,6.4l0,4.6c0.8,0.4,2.7,1.3,6.6,2.9c5.1,2.1,6.1,3.9,7.2,5.9
				c0.2,0.4,0.5,0.9,0.8,1.3c1.7,2.6,1.3,15.6,1.3,18.2L146.5,104.7z M125.3,102.7h19.2c0.1-6.1-0.1-14.7-1-16.1
				c-0.3-0.5-0.6-1-0.8-1.4c-1.1-1.9-1.8-3.2-6.3-5.1c-5.8-2.4-7.3-3.3-7.3-3.3l-0.5-0.3l-0.1-6.6l0.4-0.3c0,0,1.9-1.6,2.5-6.3
				l0.2-1.2l1.1,0.3c0,0,0.2,0,0.3-0.1c0.6-0.4,1.2-1.7,1.3-2.3c0.1-1.4-0.3-3.1-0.7-3.3l-1.4,0.3l0.2-1.4c0.3-2.1,0.6-4.7,0.5-5.9
				c-0.4-4.1-4.5-8.3-10.7-8.3c-6.2,0-10.3,4.2-10.7,8.3c-0.1,1.2,0.2,3.8,0.5,5.9l0.2,1.4l-1.4-0.3c-0.4,0.2-0.7,1.9-0.7,3.3
				c0,0.6,0.6,1.8,1.3,2.3c0.1,0.1,0.3,0.1,0.3,0.1l1.1-0.3l0.1,1.2c0.6,4.7,2.5,6.3,2.5,6.3l0.4,0.3l0,0.5l0,5.5l-0.6,0.2
				c-1.5,0.6-3.2,1-5,1.5c-4.9,1.3-10,2.7-10.1,6.5c0.5,0.6,3.1,1.4,5.2,2.1c1.9,0.6,4.1,1.3,6.3,2.2c0.1,0,0.1,0,0.2,0h1.7
				c0.1-0.4,0.2-0.7,0.4-1.1l-1.4-1.4c-0.9-0.9-0.9-2.4,0-3.3l0.9-0.9c0.9-0.9,2.3-0.9,3.3,0l1.3,1.3c0.3-0.1,0.6-0.3,0.9-0.4v-2.1
				c0-1.3,1-2.3,2.3-2.3h1.3c1.3,0,2.3,1,2.3,2.3v2.1c0.2,0.1,0.5,0.2,0.7,0.3l1.7-1.7c0.9-0.9,2.4-0.9,3.2,0l0.9,0.9
				c0.4,0.4,0.7,1,0.7,1.6c0,0.6-0.2,1.2-0.7,1.6l-1.6,1.6c0.1,0.2,0.2,0.4,0.3,0.6h2.6c1.3,0,2.3,1,2.3,2.3v1.3
				c0,1.3-1,2.3-2.3,2.3h-2.3c-0.1,0.2-0.1,0.4-0.2,0.6l1.8,1.8c0.4,0.4,0.7,1,0.7,1.6c0,0.6-0.2,1.2-0.7,1.6l-0.9,0.9
				c-0.9,0.9-2.4,0.9-3.3,0l-1.5-1.5c-0.2,0.1-0.5,0.2-0.7,0.3v2.4C125.7,101.9,125.6,102.3,125.3,102.7z"/>
		</g>
		<g>
			<path class="st0" d="M122.1,95.3c-2.3,0-4.2-1.9-4.2-4.2s1.9-4.2,4.2-4.2c2.3,0,4.2,1.9,4.2,4.2S124.4,95.3,122.1,95.3z
				 M122.1,88.8c-1.2,0-2.2,1-2.2,2.2s1,2.2,2.2,2.2c1.2,0,2.2-1,2.2-2.2S123.3,88.8,122.1,88.8z"/>
		</g>
	</g>
	<g>
		<g>
			<path class="st0" d="M40.6,104.7H17l0-1c-0.1-2.6-0.4-15.6,1.3-18.2c0.3-0.5,0.5-0.9,0.8-1.3c1.1-2,2.1-3.8,7.2-5.9
				c3.9-1.6,5.8-2.5,6.6-2.9l0-4.6c-0.7-0.7-2.1-2.6-2.7-6.4c-0.3-0.1-0.6-0.2-0.9-0.4c-1.2-0.8-2.1-2.6-2.1-3.8
				c0,0-0.2-3.6,1.3-4.9c0.1-0.1,0.3-0.2,0.4-0.3c-0.3-2.8-0.4-4.4-0.4-5.4c0.5-5,5.3-10.1,12.7-10.1c7.3,0,12.2,5.2,12.7,10.1
				c0.1,1,0,2.7-0.4,5.4c0.1,0.1,0.3,0.2,0.4,0.3c1.5,1.3,1.3,4.9,1.3,4.9c-0.1,1.1-0.9,3-2.1,3.8c-0.3,0.2-0.6,0.4-0.9,0.4
				c-0.6,3.8-2,5.7-2.7,6.4l0,3.7c1.3,0.4,2.7,0.8,4.2,1.2c5.4,1.5,11.6,3.1,11.6,8.6c0,1.8-2.4,2.5-6.6,3.9c-2,0.6-4.2,1.3-6.5,2.3
				l-0.3,0.1l-0.4-0.1h-3.2l-0.2-0.8c-0.1-0.7-0.4-1.3-0.8-2L46.9,87l2.4-2.4c0.1-0.1,0.1-0.3,0-0.4l-0.9-0.9
				c-0.1-0.1-0.3-0.1-0.4,0l-2.4,2.4l-0.7-0.4c-0.6-0.3-1.2-0.6-1.8-0.8l-0.8-0.2v-3.6c0-0.2-0.1-0.3-0.3-0.3h-1.3
				c-0.2,0-0.3,0.1-0.3,0.3v3.6l-0.8,0.2c-0.6,0.2-1.2,0.4-1.7,0.7l-0.7,0.4l-2.7-2.7c-0.1-0.1-0.3-0.1-0.4,0l-0.9,0.9
				c-0.1,0.1-0.1,0.2-0.1,0.2c0,0.1,0,0.1,0.1,0.2l2.7,2.7l-0.4,0.7c-0.3,0.5-0.5,1-0.7,1.5l-0.2,0.7h-4c-0.2,0-0.3,0.1-0.3,0.3v1.3
				c0,0.2,0.1,0.3,0.3,0.3h3.9l0.2,0.8c0.1,0.5,0.3,1.1,0.6,1.6l0.3,0.6l-2.8,2.8c-0.1,0.1-0.1,0.2-0.1,0.2s0,0.1,0.1,0.2l0.9,0.9
				c0.1,0.1,0.3,0.1,0.4,0l2.7-2.7l0.7,0.5c0.5,0.3,1,0.6,1.6,0.8l0.7,0.2v3.8c0,0.1,0.1,0.2,0.2,0.3l0.7,0.3l0,0.7
				c0,0.3,0,0.6,0,0.9L40.6,104.7z M19,102.7h19.2c-0.2-0.4-0.4-0.8-0.4-1.2v-2.4c-0.2-0.1-0.5-0.2-0.7-0.3l-1.5,1.5
				c-0.9,0.9-2.4,0.9-3.3,0l-0.9-0.9c-0.4-0.4-0.7-1-0.7-1.6c0-0.6,0.2-1.2,0.7-1.6l1.8-1.8c-0.1-0.2-0.1-0.4-0.2-0.6h-2.3
				c-1.3,0-2.3-1-2.3-2.3v-1.3c0-1.3,1-2.3,2.3-2.3h2.6c0.1-0.2,0.2-0.4,0.3-0.6l-1.6-1.6c-0.4-0.4-0.7-1-0.7-1.6
				c0-0.6,0.2-1.2,0.7-1.6l0.9-0.9c0.9-0.9,2.4-0.9,3.2,0l1.7,1.7c0.2-0.1,0.5-0.2,0.7-0.3v-2.1c0-1.3,1-2.3,2.3-2.3h1.3
				c1.3,0,2.3,1,2.3,2.3v2.1c0.3,0.1,0.6,0.2,0.9,0.4l1.3-1.3c0.9-0.9,2.4-0.9,3.3,0l0.9,0.9c0.9,0.9,0.9,2.4,0,3.3l-1.4,1.4
				c0.2,0.3,0.3,0.7,0.4,1.1h1.7c0.1,0,0.1,0,0.2,0c2.2-0.9,4.4-1.6,6.3-2.2c2.1-0.7,4.8-1.5,5.2-2.1c-0.1-3.9-5.2-5.2-10.1-6.5
				c-1.8-0.5-3.5-0.9-5-1.5l-0.6-0.2l0-6l0.4-0.3c0,0,1.9-1.6,2.5-6.3l0.1-1.2l1.1,0.3c0.1,0,0.2,0,0.3-0.1c0.6-0.4,1.2-1.7,1.3-2.3
				c0.1-1.4-0.3-3.1-0.7-3.3L51.2,57l0.2-1.4c0.3-1.9,0.6-4.7,0.5-5.9c-0.4-4.1-4.5-8.3-10.7-8.3c-6.2,0-10.3,4.2-10.7,8.3
				c-0.1,1.2,0.2,3.8,0.5,5.9l0.2,1.4l-1.4-0.3c-0.4,0.2-0.7,1.8-0.7,3.3c0,0.6,0.6,1.8,1.3,2.3c0.1,0.1,0.3,0.1,0.3,0.1l1.1-0.3
				l0.1,1.2c0.6,4.7,2.5,6.3,2.5,6.3l0.4,0.3l-0.1,6.6l-0.5,0.3c-0.1,0-1.5,0.9-7.3,3.3c-4.5,1.9-5.2,3.1-6.3,5.1
				c-0.3,0.4-0.5,0.9-0.8,1.4C19,88,18.8,96.5,19,102.7z"/>
		</g>
		<g>
			<path class="st0" d="M41.4,95.3c-2.3,0-4.2-1.9-4.2-4.2s1.9-4.2,4.2-4.2c2.3,0,4.2,1.9,4.2,4.2S43.7,95.3,41.4,95.3z M41.4,88.8
				c-1.2,0-2.2,1-2.2,2.2s1,2.2,2.2,2.2c1.2,0,2.2-1,2.2-2.2S42.6,88.8,41.4,88.8z"/>
		</g>
	</g>
</g>
</svg>
