<?xml version="1.0" encoding="utf-8"?>
<!-- Generator: Adobe Illustrator 21.1.0, SVG Export Plug-In . SVG Version: 6.00 Build 0)  -->
<svg version="1.1" xmlns="http://www.w3.org/2000/svg" xmlns:xlink="http://www.w3.org/1999/xlink" x="0px" y="0px"
	 viewBox="0 0 160 160" style="enable-background:new 0 0 160 160;" xml:space="preserve">
<style type="text/css">
	.st0{fill:#FFFFFF;}
</style>
<g id="circle">
	<path class="st0" d="M80,2c43,0,78,35,78,78s-35,78-78,78S2,123,2,80S37,2,80,2 M80,0C35.8,0,0,35.8,0,80s35.8,80,80,80
		s80-35.8,80-80S124.2,0,80,0L80,0z"/>
</g>
<g id="leadership">
	<path class="st0" d="M80,42.2c7.8,0,13,5.3,13.5,10.5c0.2,1.6-0.3,5.2-0.6,7.7l-0.4,2.8l2.3-0.5c0.3,0.7,0.6,2.3,0.5,3.6
		c0,0.8-0.9,2.2-1.5,2.6l-2.1-0.6l-0.3,2.3c-0.8,5.9-3,7.9-3,7.9l0,0L87.7,79l0,1l0.1,7.4l0,1.1l0.9,0.6c0.2,0.1,2.2,1.3,9.9,4.5
		c1.7,0.7,3.5,1.4,5.2,2.1c5.3,2.1,10.4,4,11.8,6.3c1,1.5,1.4,9,1.2,15.8H88.5l-7.1-12.6l3.9-3.9l1.4-1.4l-1.4-1.4l-5-5L78.9,92
		l-1.4,1.4l-5,5l-1.4,1.4l1.4,1.4l3.9,3.9l-7.1,12.6H43.2c-0.2-6.8,0.2-14.3,1.2-15.8c1.5-2.3,6.5-4.2,11.9-6.3
		c1.7-0.7,3.4-1.3,5.2-2c7.7-3.2,9.7-4.4,9.9-4.5l0.9-0.6l0-1.1l0.1-7.4l0-1l-0.8-0.6c0,0-2.3-2-3.1-7.9l-0.3-2.3l-2.1,0.6
		c-0.5-0.3-1.4-1.8-1.5-2.6c-0.1-1.3,0.2-2.9,0.5-3.6l2.3,0.5l-0.4-2.8c-0.3-2.5-0.8-6.1-0.6-7.7C67,47.5,72.2,42.2,80,42.2
		 M80,40.2c-9,0-14.9,6.3-15.5,12.3c-0.2,1.6,0.2,4.7,0.6,8.2c-0.1,0-0.2,0-0.3,0c-1.9,0-2.3,4.2-2.2,5.8c0.1,1.6,1.7,4.5,3.4,4.5
		c0.1,0,0.3,0,0.4-0.1c0.9,7,3.8,9.2,3.8,9.2l-0.1,7.4c0,0-1.8,1.1-9.6,4.4c-7.8,3.2-15.6,5.5-17.9,9.1c-2.1,3.3-1.5,18.9-1.5,18.9
		h29.2l8.4-15l8.4,15h31.4c0,0,0.6-15.6-1.5-18.9c-2.3-3.6-10.2-5.9-17.9-9.1c-7.8-3.2-9.6-4.4-9.6-4.4L89.7,80c0,0,2.9-2.2,3.8-9.2
		c0.1,0,0.3,0.1,0.4,0.1c1.7,0,3.3-2.9,3.4-4.5c0.1-1.6-0.2-5.8-2.2-5.8c-0.1,0-0.2,0-0.3,0c0.5-3.4,0.8-6.5,0.6-8.2
		C94.9,46.5,89,40.2,80,40.2L80,40.2z M78.9,104.8l-5-5l5-5l5,5L78.9,104.8L78.9,104.8z"/>
	<g>
		<path class="st0" d="M120.5,44.9c5.6,0,9.3,3.8,9.7,7.4c0.1,1.2-0.3,4.5-0.5,5.7l-0.4,2.8l2-0.4c0.1,0.5,0.2,1.4,0.2,2.1
			c0,0.4-0.4,1.1-0.7,1.4l-1.8-0.5l-0.3,2.3c-0.5,3.9-1.9,5.4-2.1,5.6l-0.8,0.5l0,1.1l0.1,5.6l0,1.1l1,0.6c0.2,0.1,1.7,1,7.5,3.4
			c4.1,1.7,4.8,2.8,5.8,4.6c0.2,0.4,0.5,0.9,0.9,1.5c0.7,1.2,1,8.2,0.8,14.6h-17.7c-1.1-10.4-12.9-14.1-20-16.4
			c-1.6-0.5-3.6-1.2-4.5-1.6c0.5-2.5,4.2-3.7,9.3-5.1c1.7-0.5,3.6-1,5.1-1.6l1.3-0.5l0-1.4l0-4.9l0.1-1l-0.9-0.6
			c-0.2-0.2-1.6-1.7-2.1-5.6l-0.3-2.3l-1.8,0.5c-0.3-0.3-0.7-1-0.7-1.4c0-0.6,0.1-1.5,0.2-2.1l2,0.4l-0.4-2.8
			c-0.2-1.2-0.6-4.4-0.5-5.7C111.2,48.6,114.9,44.9,120.5,44.9 M120.5,42.9c-6.8,0-11.2,4.7-11.7,9.2c-0.1,1.2,0.1,3.6,0.5,6.1
			c-0.1,0-0.2,0-0.2,0c-1.5,0-1.7,3.2-1.6,4.3c0.1,1.2,1.3,3.4,2.6,3.4c0.1,0,0.2,0,0.3,0c0.7,5.3,2.9,6.9,2.9,6.9l0,4.9
			c-5.8,2.3-15.7,2.8-15.7,9.1c0,3.3,25,4.1,24.7,19.4h21.6c0,0,0.5-15.2-1.1-17.6c-1.7-2.7-1.7-4.4-7.6-6.9
			c-5.8-2.4-7.2-3.3-7.2-3.3l-0.1-5.6c0,0,2.2-1.7,2.9-6.9c0.1,0,0.2,0,0.3,0c1.3,0,2.5-2.2,2.6-3.4c0.1-1.2-0.2-4.3-1.6-4.3
			c-0.1,0-0.1,0-0.2,0c0.3-2.6,0.6-4.9,0.5-6.1C131.8,47.6,127.3,42.9,120.5,42.9L120.5,42.9z"/>
	</g>
	<g>
		<path class="st0" d="M39.5,44.9c5.6,0,9.3,3.8,9.7,7.4c0.1,1.3-0.3,4.5-0.5,5.7l-0.4,2.8l2-0.4c0.1,0.6,0.2,1.4,0.2,2.1
			c0,0.4-0.4,1.1-0.7,1.4L48,63.3l-0.3,2.3c-0.5,3.9-1.9,5.4-2.1,5.6l-0.8,0.5l0,1.1l0,4.9l0,1.4l1.3,0.5c1.5,0.6,3.4,1.1,5.1,1.6
			c5.1,1.4,8.8,2.6,9.3,5.1c-0.9,0.5-2.8,1.1-4.5,1.6c-7.2,2.3-18.9,6-20,16.4H18.2c-0.1-6.4,0.2-13.3,0.8-14.6
			c0.3-0.5,0.6-1,0.9-1.5c1-1.8,1.6-2.9,5.8-4.6c5.8-2.4,7.3-3.3,7.5-3.4l1-0.6l0-1.1l0.1-5.6l0.1-1l-0.9-0.6
			c-0.2-0.2-1.6-1.7-2.1-5.6L31,63.3l-1.8,0.5c-0.3-0.3-0.7-1-0.7-1.4c0-0.7,0.1-1.5,0.2-2.1l2,0.4L30.3,58
			c-0.2-1.2-0.6-4.4-0.5-5.7C30.2,48.6,33.9,44.9,39.5,44.9 M39.5,42.9c-6.8,0-11.2,4.7-11.7,9.2c-0.1,1.2,0.1,3.6,0.5,6.1
			c-0.1,0-0.2,0-0.2,0c-1.5,0-1.7,3.2-1.6,4.3c0.1,1.2,1.3,3.4,2.6,3.4c0.1,0,0.2,0,0.3,0c0.7,5.3,2.9,6.9,2.9,6.9l-0.1,5.6
			c0,0-1.4,0.8-7.2,3.3c-5.8,2.4-5.8,4.1-7.6,6.9c-1.6,2.4-1.1,17.6-1.1,17.6h21.6c-0.3-15.3,24.7-16.1,24.7-19.4
			c0-6.3-9.9-6.8-15.7-9.1l0-4.9c0,0,2.2-1.7,2.9-6.9c0.1,0,0.2,0,0.3,0c1.3,0,2.5-2.2,2.6-3.4c0.1-1.2-0.2-4.3-1.6-4.3
			c-0.1,0-0.1,0-0.2,0c0.3-2.6,0.6-4.9,0.5-6.1C50.7,47.6,46.3,42.9,39.5,42.9L39.5,42.9z"/>
	</g>
</g>
</svg>
