<?xml version="1.0" encoding="utf-8"?>
<!-- Generator: Adobe Illustrator 21.1.0, SVG Export Plug-In . SVG Version: 6.00 Build 0)  -->
<svg version="1.1" xmlns="http://www.w3.org/2000/svg" xmlns:xlink="http://www.w3.org/1999/xlink" x="0px" y="0px"
	 viewBox="0 0 160 160" style="enable-background:new 0 0 160 160;" xml:space="preserve">
<style type="text/css">
	.st0{fill:#FFFFFF;}
</style>
<g id="circle">
	<path class="st0" d="M80,2c43,0,78,35,78,78s-35,78-78,78S2,123,2,80S37,2,80,2 M80,0C35.8,0,0,35.8,0,80s35.8,80,80,80
		s80-35.8,80-80S124.2,0,80,0L80,0z"/>
</g>
<g id="customer_focused_1_">
	<path class="st0" d="M33.3,27.5l11.8,11.8l6.8-6.8v19.3H32.6l6.8-6.8L27.5,33.3L33.3,27.5 M33.3,24.7l-1.4,1.4l-5.7,5.7l-1.4,1.4
		l1.4,1.4l10.4,10.4l-5.4,5.4l-3.4,3.4h4.8h19.3h2v-2V32.6v-4.8l-3.4,3.4l-5.4,5.4L34.7,26.1L33.3,24.7L33.3,24.7z"/>
	<path class="st0" d="M126.7,27.5l5.7,5.7l-11.8,11.8l6.8,6.8h-19.3V32.6l6.8,6.8L126.7,27.5 M126.7,24.7l-1.4,1.4l-10.4,10.4
		l-5.4-5.4l-3.4-3.4v4.8v19.3v2h2h19.3h4.8l-3.4-3.4l-5.4-5.4l10.4-10.4l1.4-1.4l-1.4-1.4l-5.7-5.7L126.7,24.7L126.7,24.7z"/>
	<path class="st0" d="M51.9,108.1v19.3l-6.8-6.8l-11.8,11.8l-5.7-5.7l11.8-11.8l-6.8-6.8H51.9 M53.9,106.1h-2H32.6h-4.8l3.4,3.4
		l5.4,5.4l-10.4,10.4l-1.4,1.4l1.4,1.4l5.7,5.7l1.4,1.4l1.4-1.4l10.4-10.4l5.4,5.4l3.4,3.4v-4.8v-19.3V106.1L53.9,106.1z"/>
	<path class="st0" d="M127.4,108.1l-6.8,6.8l11.8,11.8l-5.7,5.7l-11.8-11.8l-6.8,6.8v-19.3H127.4 M132.2,106.1h-4.8h-19.3h-2v2v19.3
		v4.8l3.4-3.4l5.4-5.4l10.4,10.4l1.4,1.4l1.4-1.4l5.7-5.7l1.4-1.4l-1.4-1.4l-10.4-10.4l5.4-5.4L132.2,106.1L132.2,106.1z"/>
	<path class="st0" d="M80,39.8c6.1,0,10.2,4.1,10.5,8.1c0.1,1.4-0.3,4.8-0.5,6.1l-0.4,2.8l2.1-0.4c0.2,0.6,0.3,1.6,0.3,2.4
		c0,0.4-0.5,1.3-0.9,1.7L89.2,60l-0.3,2.3c-0.6,4.3-2.1,5.9-2.3,6.1l-0.8,0.5l0,1.1l0.1,6l0,1.1l0.9,0.6c0.2,0.1,1.8,1.1,8,3.7
		c1.4,0.6,2.8,1.1,4.2,1.7c4.1,1.6,8.3,3.2,9.4,5c0.7,1.1,1,6.9,0.9,12.2H80H50.6c-0.1-5.3,0.2-11.1,0.9-12.2c1.1-1.7,5.3-3.4,9.4-5
		c1.4-0.5,2.8-1.1,4.2-1.7c6.2-2.6,7.9-3.6,8-3.7l0.9-0.6l0-1.1l0.1-6l0.1-1l-0.9-0.6c-0.2-0.2-1.8-1.8-2.3-6.1L70.8,60l-1.9,0.6
		c-0.4-0.3-0.8-1.2-0.9-1.7c-0.1-0.8,0.1-1.8,0.3-2.4l2.1,0.4L70,54.1c-0.2-1.3-0.6-4.8-0.5-6.1C69.8,43.9,73.9,39.8,80,39.8
		 M68.4,56L68.4,56L68.4,56 M92.4,56.3L92.4,56.3L92.4,56.3 M80,37.8c-7.3,0-12.1,5.1-12.5,9.9c-0.1,1.3,0.1,3.8,0.5,6.6
		c-0.1,0-0.2,0-0.2,0c-1.6,0-1.8,3.4-1.7,4.7c0.1,1.3,1.4,3.6,2.8,3.6c0.1,0,0.2,0,0.3,0c0.7,5.7,3.1,7.5,3.1,7.5l-0.1,6
		c0,0-1.5,0.9-7.8,3.5c-6.3,2.6-12.6,4.4-14.5,7.4c-1.7,2.6-1.2,15.3-1.2,15.3H80h31.3c0,0,0.5-12.6-1.2-15.3
		c-1.9-2.9-8.2-4.8-14.5-7.4c-6.3-2.6-7.8-3.5-7.8-3.5l-0.1-6c0,0,2.3-1.8,3.1-7.5c0.1,0,0.2,0,0.3,0c1.4,0,2.7-2.3,2.8-3.6
		c0.1-1.3-0.2-4.7-1.7-4.7c-0.1,0-0.2,0-0.2,0c0.4-2.8,0.6-5.3,0.5-6.6C92.1,42.9,87.3,37.8,80,37.8L80,37.8z"/>
</g>
</svg>
