<?xml version="1.0" encoding="utf-8"?>
<!-- Generator: Adobe Illustrator 21.1.0, SVG Export Plug-In . SVG Version: 6.00 Build 0)  -->
<svg version="1.1" xmlns="http://www.w3.org/2000/svg" xmlns:xlink="http://www.w3.org/1999/xlink" x="0px" y="0px"
	 viewBox="0 0 160 160" style="enable-background:new 0 0 160 160;" xml:space="preserve">
<style type="text/css">
	.st0{fill:#FFFFFF;}
</style>
<g id="circle">
	<path class="st0" d="M80,2c43,0,78,35,78,78s-35,78-78,78S2,123,2,80S37,2,80,2 M80,0C35.8,0,0,35.8,0,80s35.8,80,80,80
		s80-35.8,80-80S124.2,0,80,0L80,0z"/>
</g>
<g id="engineering_excellence">
	<path class="st0" d="M122.2,38.7l6.8-1.9l-16.8-9.1l5.2,18.3l3.2-6c14.7,24.2,11.1,55.6-9.1,75.9c-9.3,9.3-21.7,14.4-34.9,14.4
		c-13.2,0-25.5-5.1-34.9-14.4c-7.4-7.4-11.5-17.3-11.5-27.7c0-10.5,4.1-20.3,11.5-27.7c5.9-5.9,13.7-9.1,22.1-9.1s16.2,3.2,22.1,9.1
		c4.7,4.7,7.3,11.1,7.2,17.7l-11.5,0.1c-0.4-1-0.8-2.1-1.4-3.1l4.6-4.6c0.8-0.8,1.2-1.8,1.2-2.9c0-1.1-0.4-2.1-1.2-2.9l-2.2-2.2
		c-1.6-1.6-4.2-1.6-5.8,0l-4.7,4.7c-1.1-0.6-2.2-1-3.4-1.4v-6.1c0-2.3-1.8-4.1-4.1-4.1h-3.1c-2.3,0-4.1,1.8-4.1,4.1v6.1
		c-1.3,0.4-2.6,0.9-3.8,1.6l-3.9-3.9c-0.8-0.8-1.8-1.2-2.9-1.2c0,0,0,0,0,0c-1.1,0-2.1,0.4-2.9,1.2l-2.2,2.2c-1.6,1.6-1.6,4.2,0,5.8
		l4,4c-0.7,1.3-1.2,2.8-1.6,4.2h-5.1c-2.3,0-4.1,1.8-4.1,4.1v3.1c0,2.3,1.8,4.1,4.1,4.1h5.5c0.5,1.4,1.1,2.8,2,4.1l-3.7,3.7
		c-1.6,1.6-1.6,4.2,0,5.8l2.2,2.2c1.6,1.6,4.2,1.6,5.8,0l4.2-4.2c1.3,0.6,2.6,1,3.9,1.3v5.7c0,2.3,1.8,4.1,4.1,4.1h3.1
		c2.3,0,4.1-1.8,4.1-4.1v-6.6c1.2-0.5,2.3-1,3.3-1.7l4.4,4.4c1.6,1.6,4.2,1.6,5.8,0l2.2-2.2c0.8-0.8,1.2-1.8,1.2-2.9
		c0-1.1-0.4-2.1-1.2-2.9l-10-9.9l-0.7,0.7C71,92.6,63,94.1,58.8,89.9c-3.3-3.3-3.3-8.8,0-12.1c2.6-2.6,6.8-2.6,9.4,0
		c2,2,2,5.2,0,7.2c-1.5,1.5-4,1.5-5.5,0l-1.4,1.4c1.1,1.1,2.6,1.7,4.2,1.7s3-0.6,4.2-1.7c2.8-2.8,2.8-7.3,0-10
		c-3.4-3.4-8.8-3.4-12.2,0c-4.1,4.1-4.1,10.8,0,14.9c4.8,4.8,13.5,3.5,18.6-0.8l8.6,8.6c0.4,0.4,0.6,0.9,0.6,1.5
		c0,0.6-0.2,1.1-0.6,1.5l-2.2,2.2c-0.8,0.8-2.2,0.8-3,0l-5.6-5.6l-0.7,0.5c-1.2,0.9-2.6,1.6-4.2,2.1l-0.7,0.2v8
		c0,1.2-0.9,2.1-2.1,2.1h-3.1c-1.2,0-2.1-1-2.1-2.1v-7.4l-0.8-0.1c-1.7-0.3-3.3-0.8-4.9-1.6l-0.6-0.3l-5.2,5.2c-0.8,0.8-2.2,0.8-3,0
		l-2.2-2.2c-0.8-0.8-0.8-2.2,0-3l4.8-4.8l-0.5-0.7c-1.1-1.5-1.9-3.2-2.4-4.9L46,89h-7c-1.2,0-2.1-0.9-2.1-2.1v-3.1
		c0-1.2,1-2.1,2.1-2.1h6.7l0.2-0.8c0.4-1.8,1-3.5,2-5.1l0.4-0.7l-5-5c-0.8-0.8-0.8-2.2,0-3l2.2-2.2c0.4-0.4,0.9-0.6,1.5-0.6h0
		c0.6,0,1.1,0.2,1.5,0.6l5,5l0.7-0.4c1.5-0.9,3.1-1.6,4.7-2l0.8-0.2v-7.6c0-1.2,0.9-2.1,2.1-2.1h3.1c1.2,0,2.1,1,2.1,2.1v7.6
		l0.8,0.2c1.6,0.4,3,1,4.4,1.8l0.7,0.4l5.8-5.8c0.8-0.8,2.2-0.8,3,0l2.2,2.2c0.4,0.4,0.6,0.9,0.6,1.5c0,0.6-0.2,1.1-0.6,1.5
		l-5.7,5.7l0.4,0.7c0.8,1.3,1.4,2.6,1.8,4l0.2,0.7l14.8-0.1l0-0.9c0.3-7.5-2.5-14.9-7.8-20.1c-6.3-6.3-14.6-9.7-23.5-9.7
		S46.7,52.7,40.4,59c-7.8,7.8-12.1,18.1-12.1,29.2c0,11,4.3,21.4,12.1,29.2c9.7,9.7,22.6,15,36.3,15c13.7,0,26.6-5.3,36.3-15
		C133.9,96.3,137.6,63.7,122.2,38.7z"/>
</g>
</svg>
