<?xml version="1.0" encoding="utf-8"?>
<!-- Generator: Adobe Illustrator 21.1.0, SVG Export Plug-In . SVG Version: 6.00 Build 0)  -->
<svg version="1.1" xmlns="http://www.w3.org/2000/svg" xmlns:xlink="http://www.w3.org/1999/xlink" x="0px" y="0px"
	 viewBox="0 0 160 160" style="enable-background:new 0 0 160 160;" xml:space="preserve">
<style type="text/css">
	.st0{fill:#FFFFFF;}
</style>
<g id="circle">
	<path class="st0" d="M80,2c43,0,78,35,78,78s-35,78-78,78S2,123,2,80S37,2,80,2 M80,0C35.8,0,0,35.8,0,80s35.8,80,80,80
		s80-35.8,80-80S124.2,0,80,0L80,0z"/>
</g>
<g id="manufacturing_system">
	<path class="st0" d="M137.8,89.7h-10.2V72.4c0-2.9-3.3-5.2-7.3-5.2H81V50.3h10c3.8,0,7-3.1,7-7v-7.6c0-3.8-3.1-7-7-7H69
		c-3.8,0-7,3.1-7,7v7.6c0,3.8,3.1,7,7,7h10v16.9H39.7c-4,0-7.3,2.3-7.3,5.2v17.4H22.2c-3.8,0-7,3.1-7,7v7.6c0,3.8,3.1,7,7,7h22
		c3.8,0,7-3.1,7-7v-7.6c0-3.8-3.1-7-7-7h-9.7V72.4c0-1.8,2.4-3.2,5.3-3.2H79v20.6H69c-3.8,0-7,3.1-7,7v7.6c0,3.8,3.1,7,7,7h22
		c3.8,0,7-3.1,7-7v-7.6c0-3.8-3.1-7-7-7H81V69.1h39.3c2.9,0,5.3,1.5,5.3,3.2v17.4h-9.7c-3.8,0-7,3.1-7,7v7.6c0,3.8,3.1,7,7,7h22
		c3.8,0,7-3.1,7-7v-7.6C144.8,92.9,141.7,89.7,137.8,89.7z M69,48.3c-2.7,0-5-2.2-5-5v-7.6c0-2.7,2.2-5,5-5h22c2.7,0,5,2.2,5,5v7.6
		c0,2.7-2.2,5-5,5H69z M49.1,96.7v7.6c0,2.7-2.2,5-5,5h-22c-2.7,0-5-2.2-5-5v-7.6c0-2.7,2.2-5,5-5h22C46.9,91.7,49.1,94,49.1,96.7z
		 M95.9,96.7v7.6c0,2.7-2.2,5-5,5H69c-2.7,0-5-2.2-5-5v-7.6c0-2.7,2.2-5,5-5h22C93.7,91.7,95.9,94,95.9,96.7z M142.8,104.3
		c0,2.7-2.2,5-5,5h-22c-2.7,0-5-2.2-5-5v-7.6c0-2.7,2.2-5,5-5h22c2.7,0,5,2.2,5,5V104.3z"/>
</g>
</svg>
