<svg xmlns="http://www.w3.org/2000/svg" viewBox="0 0 160 160"><defs><style>.cls-1{fill:#fff;}</style></defs><g id="Layer_3" data-name="Layer 3"><path class="cls-1" d="M17.13,126.1c-9-13-15.13-29-15.13-46.39a77.79,77.79,0,0,1,155.57,0,75.23,75.23,0,0,1-15.44,46.39v3.19A78.54,78.54,0,0,0,159.6,79.71,79.75,79.75,0,0,0,79.94,0C36,0,0,35.76,0,79.71a78.25,78.25,0,0,0,17.13,49.58Z"/><path class="cls-1" d="M142.47,33.76c9,13,15.13,29,15.13,46.39A77.79,77.79,0,0,1,2,80.14,75.23,75.23,0,0,1,17.47,33.76V30.57A78.54,78.54,0,0,0,0,80.14a79.75,79.75,0,0,0,79.65,79.71c44,0,79.94-35.76,79.94-79.71a78.25,78.25,0,0,0-17.13-49.58Z"/><path class="cls-1" d="M63.88,35.07A37.21,37.21,0,1,1,26.67,72.28,37.25,37.25,0,0,1,63.88,35.07m0-2a39.21,39.21,0,1,0,39.21,39.21A39.21,39.21,0,0,0,63.88,33.07Z"/><polygon class="cls-1" points="130.33 141.93 90.47 102.06 92.57 99.97 132.53 139.93 134.36 138.93 92.57 97.14 87.64 102.06 128.5 142.93 130.33 141.93"/><path class="cls-1" d="M70,70.73a3.31,3.31,0,0,1-2.36-1l-3.89-3.89a3.34,3.34,0,0,1,0-4.72L77.5,47.4a3.42,3.42,0,0,1,4.72,0l3.89,3.89a3.34,3.34,0,0,1,0,4.72L72.38,69.75A3.32,3.32,0,0,1,70,70.73Zm9.85-23.3a2.32,2.32,0,0,0-1.65.68L64.47,61.85a2.34,2.34,0,0,0,0,3.3L68.37,69a2.39,2.39,0,0,0,3.3,0L85.41,55.31a2.34,2.34,0,0,0,0-3.31l-3.89-3.89A2.32,2.32,0,0,0,79.86,47.43Z"/><path class="cls-1" d="M65.06,76.09l-7.64-7.64,3.72-3.72,7.64,7.64Zm-.9-2.32.9.9,2.3-2.3-.9-.9Zm-3.31-4.1,3,3,1.51-1.51-3-3Zm-2-1.22.9.9,2.3-2.3-.9-.9Z"/><path class="cls-1" d="M66.05,71.06l-3.59-3.59,2.17-2.17,3.59,3.59Zm-2.18-3.59,2.18,2.18.75-.75-2.18-2.18Z"/><path class="cls-1" d="M41.64,94.61a1.16,1.16,0,0,1-.83-.32l-1.57-1.57a1.41,1.41,0,0,1,0-1.78l3.21-4.23a2.09,2.09,0,0,1,.25-.3,2.4,2.4,0,0,1,1.11-.65l1.2-.26L60,70.43l3.05,3.05L48,88.54l-.26,1.19a2.38,2.38,0,0,1-.64,1.11,2.19,2.19,0,0,1-.32.27l-4.19,3.18A1.75,1.75,0,0,1,41.64,94.61ZM60,71.85,45.47,86.4,44,86.73a1.43,1.43,0,0,0-.62.38,1.17,1.17,0,0,0-.15.17L40,91.51a.51.51,0,0,0-.08.49l1.57,1.57a.52.52,0,0,0,.51-.1l4.19-3.18a1.3,1.3,0,0,0,.2-.16,1.4,1.4,0,0,0,.37-.61L47.11,88,61.67,73.49Z"/></g></svg>
