<?xml version="1.0" encoding="utf-8"?>
<!-- Generator: Adobe Illustrator 21.1.0, SVG Export Plug-In . SVG Version: 6.00 Build 0)  -->
<svg version="1.1" id="Layer_1" xmlns="http://www.w3.org/2000/svg" xmlns:xlink="http://www.w3.org/1999/xlink" x="0px" y="0px"
	 viewBox="0 0 160 160" style="enable-background:new 0 0 160 160;" xml:space="preserve">
<style type="text/css">
	.st0{fill:#FFFFFF;}
</style>
<g>
	<g>
		<g>
			<g>
				<path class="st0" d="M17,126.2c-9-13-15.1-29-15.1-46.4c0-42.9,35-77.7,77.9-77.7c42.9,0,77.7,34.9,77.7,77.7
					c0,17.4-5.4,33.4-15.4,46.4v3.2c11-13.6,17.5-30.8,17.5-49.6c0-44-35.7-79.7-79.7-79.7c-44,0-79.9,35.8-79.9,79.7
					c0,18.7,6.1,36,17.1,49.6V126.2z"/>
			</g>
			<g>
				<path class="st0" d="M142.3,33.9c9,13,15.1,29,15.1,46.4c0,42.9-35,77.7-77.9,77.7c-42.9,0-77.7-34.9-77.7-77.7
					c0-17.4,5.4-33.4,15.4-46.4v-3.2C6.3,44.3-0.1,61.6-0.1,80.3c0,44,35.7,79.7,79.7,79.7c44,0,79.9-35.8,79.9-79.7
					c0-18.7-6.1-36-17.1-49.6V33.9z"/>
			</g>
		</g>
	</g>
	<g>
		<path class="st0" d="M86.3,23l2.4,16.3l0.2,1.3l1.3,0.3c2.2,0.6,4.4,1.4,6.4,2.3l1.3,0.6l1-1L110,31.6l8.5,6.2l-7.6,14.7l-0.6,1.2
			l0.8,1c1.4,1.8,2.7,3.7,3.8,5.7l0.7,1.2l1.4-0.2l15.6-2.6l3.3,10l-14.8,7.4l-1.2,0.6l0.1,1.3c0,0.7,0.1,1.4,0.1,2.1
			c0,1.5-0.1,3.1-0.3,4.8l-0.2,1.4l1.3,0.6l14.2,7.1l-3.3,10l-16.3-2.7l-1.3-0.2l-0.7,1.1c-1.3,1.9-2.7,3.7-4.2,5.4l-1,1l0.6,1.2
			l7.3,14.1l-8.5,6.2l-11.6-11.8l-0.9-0.9l-1.2,0.5c-2.1,0.8-4.4,1.5-6.6,1.9l-1.4,0.3l-0.2,1.4l-2.4,15.7H73.1l-2.4-16.3l-0.2-1.3
			l-1.3-0.3c-2.2-0.6-4.4-1.4-6.4-2.3l-1.3-0.6l-1,1l-11.1,11.3l-8.5-6.2l7.6-14.7l0.6-1.2l-0.8-1c-1.4-1.8-2.7-3.7-3.8-5.7
			l-0.7-1.2l-1.4,0.2l-15.6,2.6l-3.3-10l14.8-7.4l1.2-0.6l-0.1-1.3c0-0.7-0.1-1.4-0.1-2.1c0-19.3,13.7-36,32.6-39.7l1.4-0.3l0.2-1.4
			L75.7,23H86.3 M79.7,97.1c9.4,0,17-7.6,17-17s-7.6-17-17-17s-17,7.6-17,17S70.3,97.1,79.7,97.1 M88,21H74l-2.6,17.4
			c-19.5,3.9-34.2,21-34.2,41.7c0,0.7,0,1.5,0.1,2.2l-16.3,8.1l4.3,13.3l17.3-2.9c1.2,2.1,2.5,4.1,4,6L38.2,123l11.3,8.2l12.3-12.5
			c2.2,1,4.4,1.8,6.8,2.5l2.7,18h14l2.6-17.4c2.4-0.5,4.7-1.1,6.9-2l12.8,13l11.3-8.2l-8.1-15.6c1.6-1.8,3.1-3.7,4.4-5.7l18,3
			l4.3-13.3l-15.7-7.9c0.2-1.6,0.3-3.3,0.3-5c0-0.7,0-1.5-0.1-2.2l16.3-8.1l-4.3-13.3l-17.3,2.9c-1.2-2.1-2.5-4.1-4-6l8.4-16.2
			l-11.3-8.2L97.5,41.5c-2.2-1-4.4-1.8-6.8-2.5L88,21L88,21z M79.7,95.1c-8.3,0-15-6.7-15-15c0-8.3,6.7-15,15-15c8.3,0,15,6.7,15,15
			C94.7,88.4,88,95.1,79.7,95.1L79.7,95.1z"/>
	</g>
</g>
</svg>
