<?xml version="1.0" encoding="utf-8"?>
<!-- Generator: Adobe Illustrator 21.1.0, SVG Export Plug-In . SVG Version: 6.00 Build 0)  -->
<svg version="1.1" xmlns="http://www.w3.org/2000/svg" xmlns:xlink="http://www.w3.org/1999/xlink" x="0px" y="0px"
	 viewBox="0 0 160 160" style="enable-background:new 0 0 160 160;" xml:space="preserve">
<style type="text/css">
	.st0{fill:#FFFFFF;}
	.st1{fill:none;}
</style>
<g id="circle">
	<path class="st0" d="M80,2c43,0,78,35,78,78s-35,78-78,78S2,123,2,80S37,2,80,2 M80,0C35.8,0,0,35.8,0,80s35.8,80,80,80
		s80-35.8,80-80S124.2,0,80,0L80,0z"/>
</g>
<g id="_x33_">
	<g>
		<rect x="71.2" y="84.1" class="st1" width="5.3" height="5.8"/>
		<rect x="107.2" y="71" class="st1" width="5.3" height="5.8"/>
		<rect x="59.2" y="84.1" class="st1" width="5.3" height="5.8"/>
		<rect x="71.2" y="97.3" class="st1" width="5.3" height="5.8"/>
		<rect x="83.2" y="71" class="st1" width="5.3" height="5.8"/>
		<rect x="95.2" y="84.1" class="st1" width="5.3" height="5.8"/>
		<rect x="83.2" y="84.1" class="st1" width="5.3" height="5.8"/>
		<rect x="95.2" y="71" class="st1" width="5.3" height="5.8"/>
		<rect x="83.2" y="97.3" class="st1" width="5.3" height="5.8"/>
		<rect x="71.2" y="71" class="st1" width="5.3" height="5.8"/>
		<rect x="107.2" y="84.1" class="st1" width="5.3" height="5.8"/>
		<rect x="59.2" y="71" class="st1" width="5.3" height="5.8"/>
		<rect x="47.2" y="84.1" class="st1" width="5.3" height="5.8"/>
		<path class="st1" d="M115.9,50.2h-2.8v0.5c0.5,0.7,0.7,1.6,0.7,2.5c0,2.5-2.1,4.6-4.6,4.6s-4.6-2.1-4.6-4.6c0-0.9,0.2-1.7,0.7-2.5
			v-0.5h-6.8v0.5c0.5,0.7,0.7,1.6,0.7,2.5c0,2.5-2.1,4.6-4.6,4.6S90,55.7,90,53.2c0-0.9,0.2-1.7,0.7-2.5v-0.5h-6.8v0.5
			c0.5,0.7,0.7,1.6,0.7,2.5c0,2.5-2.1,4.6-4.6,4.6s-4.6-2.1-4.6-4.6c0-0.9,0.2-1.7,0.7-2.5v-0.5h-6.8v0.5c0.5,0.7,0.7,1.6,0.7,2.5
			c0,2.5-2.1,4.6-4.6,4.6s-4.6-2.1-4.6-4.6c0-0.9,0.2-1.7,0.7-2.5v-0.5h-6.8v0.5c0.5,0.7,0.7,1.6,0.7,2.5c0,2.5-2.1,4.6-4.6,4.6
			s-4.6-2.1-4.6-4.6c0-0.9,0.2-1.7,0.7-2.5v-0.5h-2.8c-2.6,0-4.7,2.1-4.7,4.7v54.1c0,2.6,2.1,4.7,4.7,4.7h71.7
			c2.6,0,4.7-2.1,4.7-4.7V55C120.6,52.4,118.5,50.2,115.9,50.2z M119.3,107.1c0,3.1-2.5,5.7-5.7,5.7H46.3c-3.1,0-5.7-2.5-5.7-5.7
			V61.3h78.7V107.1z"/>
		<rect x="47.2" y="97.3" class="st1" width="5.3" height="5.8"/>
		<path class="st1" d="M46.3,110.8h67.4c2,0,3.7-1.6,3.7-3.7V63.3H42.7v43.8C42.7,109.1,44.3,110.8,46.3,110.8z M105.2,69h9.3v9.8
			h-9.3V69z M105.2,82.1h9.3V92h-9.3V82.1z M93.2,69h9.3v9.8h-9.3V69z M93.2,82.1h9.3V92h-9.3V82.1z M81.2,69h9.3v9.8h-9.3V69z
			 M81.2,82.1h9.3V92h-9.3V82.1z M81.2,95.3h9.3v9.8h-9.3V95.3z M69.2,69h9.3v9.8h-9.3V69z M69.2,82.1h9.3V92h-9.3V82.1z M69.2,95.3
			h9.3v9.8h-9.3V95.3z M57.2,69h9.3v9.8h-9.3V69z M57.2,82.1h9.3V92h-9.3V82.1z M57.2,95.3h9.3v9.8h-9.3V95.3z M45.2,82.1h9.3V92
			h-9.3V82.1z M45.2,95.3h9.3v9.8h-9.3V95.3z"/>
		<rect x="59.2" y="97.3" class="st1" width="5.3" height="5.8"/>
		<path class="st0" d="M115.9,48.2h-4.8v3.1l0.2,0.3c0.3,0.5,0.5,1,0.5,1.5c0,1.4-1.2,2.6-2.6,2.6s-2.6-1.2-2.6-2.6
			c0-0.6,0.2-1.1,0.5-1.5l0.2-0.3v-3.1H96.5v3.1l0.2,0.3c0.3,0.5,0.5,1,0.5,1.5c0,1.4-1.2,2.6-2.6,2.6S92,54.6,92,53.2
			c0-0.6,0.2-1.1,0.5-1.5l0.2-0.3v-3.1H81.9v3.1l0.2,0.3c0.3,0.5,0.5,1,0.5,1.5c0,1.4-1.2,2.6-2.6,2.6c-1.4,0-2.6-1.2-2.6-2.6
			c0-0.6,0.2-1.1,0.5-1.5l0.2-0.3v-3.1H67.3v3.1l0.2,0.3c0.3,0.5,0.5,1,0.5,1.5c0,1.4-1.2,2.6-2.6,2.6c-1.4,0-2.6-1.2-2.6-2.6
			c0-0.6,0.2-1.1,0.5-1.5l0.2-0.3v-3.1H52.7v3.1l0.2,0.3c0.3,0.5,0.5,1,0.5,1.5c0,1.4-1.2,2.6-2.6,2.6s-2.6-1.2-2.6-2.6
			c0-0.6,0.2-1.1,0.5-1.5l0.2-0.3v-3.1h-4.8c-3.7,0-6.7,3-6.7,6.7v54.1c0,3.7,3,6.7,6.7,6.7h71.7c3.7,0,6.7-3,6.7-6.7V55
			C122.6,51.3,119.6,48.2,115.9,48.2z M120.6,109.1c0,2.6-2.1,4.7-4.7,4.7H44.1c-2.6,0-4.7-2.1-4.7-4.7V55c0-2.6,2.1-4.7,4.7-4.7
			h2.8v0.5c-0.5,0.7-0.7,1.6-0.7,2.5c0,2.5,2.1,4.6,4.6,4.6s4.6-2.1,4.6-4.6c0-0.9-0.2-1.7-0.7-2.5v-0.5h6.8v0.5
			c-0.5,0.7-0.7,1.6-0.7,2.5c0,2.5,2.1,4.6,4.6,4.6s4.6-2.1,4.6-4.6c0-0.9-0.2-1.7-0.7-2.5v-0.5h6.8v0.5c-0.5,0.7-0.7,1.6-0.7,2.5
			c0,2.5,2.1,4.6,4.6,4.6s4.6-2.1,4.6-4.6c0-0.9-0.2-1.7-0.7-2.5v-0.5h6.8v0.5c-0.5,0.7-0.7,1.6-0.7,2.5c0,2.5,2.1,4.6,4.6,4.6
			s4.6-2.1,4.6-4.6c0-0.9-0.2-1.7-0.7-2.5v-0.5h6.8v0.5c-0.5,0.7-0.7,1.6-0.7,2.5c0,2.5,2.1,4.6,4.6,4.6s4.6-2.1,4.6-4.6
			c0-0.9-0.2-1.7-0.7-2.5v-0.5h2.8c2.6,0,4.7,2.1,4.7,4.7V109.1z"/>
		<path class="st0" d="M40.7,107.1c0,3.1,2.5,5.7,5.7,5.7h67.4c3.1,0,5.7-2.5,5.7-5.7V61.3H40.7V107.1z M42.7,63.3h74.7v43.8
			c0,2-1.6,3.7-3.7,3.7H46.3c-2,0-3.7-1.6-3.7-3.7V63.3z"/>
		<path class="st0" d="M66.5,69h-9.3v9.8h9.3V69z M64.5,76.8h-5.3V71h5.3V76.8z"/>
		<path class="st0" d="M78.5,69h-9.3v9.8h9.3V69z M76.5,76.8h-5.3V71h5.3V76.8z"/>
		<path class="st0" d="M90.5,69h-9.3v9.8h9.3V69z M88.5,76.8h-5.3V71h5.3V76.8z"/>
		<path class="st0" d="M102.5,69h-9.3v9.8h9.3V69z M100.5,76.8h-5.3V71h5.3V76.8z"/>
		<path class="st0" d="M114.5,69h-9.3v9.8h9.3V69z M112.5,76.8h-5.3V71h5.3V76.8z"/>
		<path class="st0" d="M54.5,82.1h-9.3V92h9.3V82.1z M52.5,90h-5.3v-5.8h5.3V90z"/>
		<path class="st0" d="M66.5,82.1h-9.3V92h9.3V82.1z M64.5,90h-5.3v-5.8h5.3V90z"/>
		<path class="st0" d="M78.5,82.1h-9.3V92h9.3V82.1z M76.5,90h-5.3v-5.8h5.3V90z"/>
		<path class="st0" d="M90.5,82.1h-9.3V92h9.3V82.1z M88.5,90h-5.3v-5.8h5.3V90z"/>
		<path class="st0" d="M102.5,82.1h-9.3V92h9.3V82.1z M100.5,90h-5.3v-5.8h5.3V90z"/>
		<path class="st0" d="M114.5,82.1h-9.3V92h9.3V82.1z M112.5,90h-5.3v-5.8h5.3V90z"/>
		<path class="st0" d="M54.5,95.3h-9.3v9.8h9.3V95.3z M52.5,103.1h-5.3v-5.8h5.3V103.1z"/>
		<path class="st0" d="M66.5,95.3h-9.3v9.8h9.3V95.3z M64.5,103.1h-5.3v-5.8h5.3V103.1z"/>
		<path class="st0" d="M78.5,95.3h-9.3v9.8h9.3V95.3z M76.5,103.1h-5.3v-5.8h5.3V103.1z"/>
		<path class="st0" d="M90.5,95.3h-9.3v9.8h9.3V95.3z M88.5,103.1h-5.3v-5.8h5.3V103.1z"/>
		<path class="st0" d="M51,54.3c0.6,0,1-0.4,1-1v-8.2c0-0.6-0.4-1-1-1s-1,0.4-1,1v8.2C50,53.9,50.4,54.3,51,54.3z"/>
		<path class="st0" d="M65.5,54.3c0.6,0,1-0.4,1-1v-8.2c0-0.6-0.4-1-1-1s-1,0.4-1,1v8.2C64.5,53.9,64.9,54.3,65.5,54.3z"/>
		<path class="st0" d="M80,54.3c0.6,0,1-0.4,1-1v-8.2c0-0.6-0.4-1-1-1s-1,0.4-1,1v8.2C79,53.9,79.4,54.3,80,54.3z"/>
		<path class="st0" d="M94.6,54.3c0.6,0,1-0.4,1-1v-8.2c0-0.6-0.4-1-1-1s-1,0.4-1,1v8.2C93.6,53.9,94,54.3,94.6,54.3z"/>
		<path class="st0" d="M109.2,54.3c0.6,0,1-0.4,1-1v-8.2c0-0.6-0.4-1-1-1s-1,0.4-1,1v8.2C108.2,53.9,108.6,54.3,109.2,54.3z"/>
	</g>
</g>
</svg>
