<?xml version="1.0" encoding="utf-8"?>
<!-- Generator: Adobe Illustrator 21.1.0, SVG Export Plug-In . SVG Version: 6.00 Build 0)  -->
<svg version="1.1" xmlns="http://www.w3.org/2000/svg" xmlns:xlink="http://www.w3.org/1999/xlink" x="0px" y="0px"
	 viewBox="0 0 160 160" style="enable-background:new 0 0 160 160;" xml:space="preserve">
<style type="text/css">
	.st0{fill:#FFFFFF;}
	.st1{fill:none;}
</style>
<g id="circle">
	<path class="st0" d="M80,2c43,0,78,35,78,78s-35,78-78,78S2,123,2,80S37,2,80,2 M80,0C35.8,0,0,35.8,0,80s35.8,80,80,80
		s80-35.8,80-80S124.2,0,80,0L80,0z"/>
</g>
<g id="_x31_">
	<g>
		<path class="st1" d="M85.8,62.1H74.8c-1,0-1.7,0.8-1.7,1.7v52.1c0,1,0.8,1.7,1.7,1.7h11.1c1,0,1.7-0.8,1.7-1.7V63.8
			C87.6,62.8,86.8,62.1,85.8,62.1z"/>
		<path class="st1" d="M52.3,81.7H41.2c-1,0-1.7,0.8-1.7,1.7v32.4c0,1,0.8,1.7,1.7,1.7h11.1c1,0,1.7-0.8,1.7-1.7V83.4
			C54,82.5,53.2,81.7,52.3,81.7z"/>
		<path class="st1" d="M68.9,71.7H57.8c-1,0-1.7,0.8-1.7,1.7v42.3c0,1,0.8,1.7,1.7,1.7h11.1c1,0,1.7-0.8,1.7-1.7V73.4
			C70.6,72.5,69.8,71.7,68.9,71.7z"/>
		<path class="st1" d="M104,53.1c-0.3-0.6-0.9-1-1.6-1H91.4c-1,0-1.7,0.8-1.7,1.7v62c0,1,0.8,1.7,1.7,1.7h11.1
			c0.7,0,1.4-0.5,1.6-1.1c0-0.1,0-0.3,0-0.4V53.1z"/>
		<path class="st1" d="M118.8,42.3h-11.1c-1,0-1.7,0.8-1.7,1.7v8.7c0.1,0.3,0.2,0.6,0.2,1v62c0,0.2,0,0.4-0.1,0.6
			c0.2,0.7,0.9,1.2,1.6,1.2h11.1c1,0,1.7-0.8,1.7-1.7V44.1C120.5,43.1,119.7,42.3,118.8,42.3z"/>
		<path class="st0" d="M118.8,40.3h-11.1c-2.1,0-3.7,1.7-3.7,3.7v6.4c-0.5-0.2-1-0.4-1.6-0.4H91.4c-2.1,0-3.7,1.7-3.7,3.7v6.8
			c-0.5-0.3-1.2-0.5-1.8-0.5H74.8c-2.1,0-3.7,1.7-3.7,3.7v6.6c-0.6-0.4-1.4-0.7-2.2-0.7H57.8c-2.1,0-3.7,1.7-3.7,3.7v6.8
			c-0.5-0.3-1.2-0.5-1.8-0.5H41.2c-2.1,0-3.7,1.7-3.7,3.7v32.4c0,2.1,1.7,3.7,3.7,3.7h11.1c1.1,0,2.1-0.5,2.8-1.3
			c0.7,0.7,1.6,1.2,2.7,1.2h11.1c1.2,0,2.2-0.5,2.9-1.4c0.7,1,1.8,1.6,3,1.6h11.1c1.1,0,2.1-0.5,2.8-1.3c0.7,0.7,1.6,1.2,2.7,1.2
			h11.1c1,0,1.9-0.4,2.6-1.1c0.7,0.7,1.6,1.2,2.7,1.2h11.1c2.1,0,3.7-1.7,3.7-3.7V44.1C122.5,42,120.8,40.3,118.8,40.3z M54,115.9
			c0,1-0.8,1.7-1.7,1.7H41.2c-1,0-1.7-0.8-1.7-1.7V83.4c0-1,0.8-1.7,1.7-1.7h11.1c1,0,1.7,0.8,1.7,1.7V115.9z M70.6,115.7
			c0,1-0.8,1.7-1.7,1.7H57.8c-1,0-1.7-0.8-1.7-1.7V73.4c0-1,0.8-1.7,1.7-1.7h11.1c1,0,1.7,0.8,1.7,1.7V115.7z M87.6,115.9
			c0,1-0.8,1.7-1.7,1.7H74.8c-1,0-1.7-0.8-1.7-1.7V63.8c0-1,0.8-1.7,1.7-1.7h11.1c1,0,1.7,0.8,1.7,1.7V115.9z M102.4,117.5H91.4
			c-1,0-1.7-0.8-1.7-1.7v-62c0-1,0.8-1.7,1.7-1.7h11.1c0.7,0,1.3,0.4,1.6,1v62.8c0,0.2,0,0.3,0,0.4
			C103.8,117,103.2,117.5,102.4,117.5z M120.5,115.9c0,1-0.8,1.7-1.7,1.7h-11.1c-0.8,0-1.4-0.5-1.6-1.2c0-0.2,0.1-0.4,0.1-0.6v-62
			c0-0.3-0.1-0.7-0.2-1v-8.7c0-1,0.8-1.7,1.7-1.7h11.1c1,0,1.7,0.8,1.7,1.7V115.9z"/>
	</g>
</g>
</svg>
