<?xml version="1.0" encoding="utf-8"?>
<!-- Generator: Adobe Illustrator 21.1.0, SVG Export Plug-In . SVG Version: 6.00 Build 0)  -->
<svg version="1.1" xmlns="http://www.w3.org/2000/svg" xmlns:xlink="http://www.w3.org/1999/xlink" x="0px" y="0px"
	 viewBox="0 0 160 160" style="enable-background:new 0 0 160 160;" xml:space="preserve">
<style type="text/css">
	.st0{fill:#FFFFFF;}
</style>
<g id="circle">
	<path class="st0" d="M80,2c43,0,78,35,78,78s-35,78-78,78S2,123,2,80S37,2,80,2 M80,0C35.8,0,0,35.8,0,80s35.8,80,80,80
		s80-35.8,80-80S124.2,0,80,0L80,0z"/>
</g>
<g id="_x32_">
	<g>
		<g>
			<path class="st0" d="M40.7,131.8c-1.7,0-3.1-1.4-3.1-3.1V37.5c-1.3-1-2-2.5-2-4.1c0-2.9,2.3-5.2,5.2-5.2c2.9,0,5.2,2.3,5.2,5.2
				c0,1.6-0.8,3.2-2.1,4.2v91.2C43.8,130.4,42.4,131.8,40.7,131.8z M40.7,30.2c-1.8,0-3.2,1.4-3.2,3.2c0,1.1,0.6,2.1,1.6,2.7
				l0.5,0.3v92.3c0,0.6,0.5,1.1,1.1,1.1s1.1-0.5,1.1-1.1V36.4l0.5-0.3c1-0.6,1.6-1.6,1.6-2.7C43.9,31.6,42.5,30.2,40.7,30.2z"/>
		</g>
		<g>
			<path class="st0" d="M45.8,94.1V36.4l78.7,25.9L45.8,94.1z M47.8,39.2v51.9l70.9-28.6L47.8,39.2z"/>
		</g>
	</g>
</g>
</svg>
